<svg width="165" height="103" viewBox="0 0 165 103" fill="none" xmlns="http://www.w3.org/2000/svg">
<g clip-path="url(#clip0_1246_4217)">
<rect width="165" height="103" rx="8" fill="url(#paint0_linear_1246_4217)"/>
<path d="M76.0202 12.397C75.9262 12.424 75.6776 12.5316 75.4626 12.6326C75.1938 12.7604 75.0191 12.8075 74.8982 12.7806C74.8041 12.7537 74.6294 12.7671 74.5085 12.8075C74.3271 12.8681 74.2263 12.8546 73.9441 12.7402C73.5276 12.5787 73.4671 12.572 73.4671 12.7066C73.4671 12.8412 73.0707 12.8412 72.8893 12.7066C72.7213 12.5787 72.6273 12.5787 72.4996 12.7066C72.4459 12.7671 72.2577 12.8344 72.0898 12.8681C71.9151 12.9017 71.7404 12.9623 71.7001 13.0027C71.6127 13.0901 71.3171 13.1036 71.3171 13.0161C71.3171 12.9825 71.1088 12.9152 70.8535 12.8748C70.4302 12.7941 70.2421 12.8008 69.3216 12.9219C69.1335 12.9421 69.0327 12.9286 69.0327 12.8815C69.0327 12.7604 68.9118 12.7941 68.7371 12.9757C68.5826 13.1238 68.5154 13.144 68.0383 13.144C67.0977 13.144 66.2512 13.3929 65.8077 13.79C65.539 14.0322 65.4315 14.0726 65.3912 13.938C65.371 13.8774 65.3105 13.8842 65.1829 13.9716C65.0888 14.0322 64.9343 14.086 64.8402 14.086C64.7462 14.086 64.5446 14.1937 64.3699 14.3485C64.0205 14.6513 63.7854 14.7388 63.2344 14.7791C62.8985 14.8061 62.8179 14.7859 62.6633 14.658C62.5088 14.5234 62.4685 14.5167 62.2871 14.5907C62.1594 14.6378 61.763 14.6647 61.2994 14.6647C60.5537 14.658 60.5133 14.6513 60.2782 14.4696C60.1035 14.3418 60.0296 14.2274 60.0296 14.1062C60.0296 13.9447 60.0229 13.938 59.7205 13.9851C59.5458 14.0053 59.3712 14.0457 59.3308 14.0591C59.2838 14.0793 59.136 14.3619 58.9949 14.6984C58.8538 15.0349 58.6052 15.4857 58.444 15.6943C58.1618 16.0644 58.1148 16.1048 57.3219 16.4412C56.6165 16.7373 56.4216 16.8584 56.0454 17.2084C55.6758 17.5448 55.5952 17.6592 55.5952 17.8274C55.5952 17.962 55.5079 18.1504 55.3466 18.3658C55.1316 18.6484 55.0846 18.7628 55.051 19.1665C55.0174 19.5232 55.0241 19.6645 55.098 19.7452C55.1518 19.7991 55.1921 19.8933 55.1921 19.9471C55.1921 20.0682 54.359 20.8825 53.8282 21.2929C53.6132 21.4544 53.331 21.6698 53.2101 21.764C53.0354 21.8986 52.854 21.9524 52.3702 22.013C51.779 22.087 51.3154 22.2619 51.3423 22.4033C51.349 22.4369 51.3288 22.4907 51.2952 22.5311C51.2683 22.5648 51.1877 22.7868 51.1273 23.0156C50.9929 23.4866 50.9593 23.527 50.4285 23.8096C50.0926 23.9913 50.0321 24.0586 49.8238 24.4826C49.6962 24.7584 49.5819 25.1218 49.5483 25.3506C49.5013 25.7745 49.5416 25.7207 48.7488 26.3869C48.5607 26.5484 48.3726 26.7435 48.3323 26.8243L48.2516 26.9723L48.4129 26.8377L48.5674 26.7032L48.4129 26.9387C48.2718 27.1607 48.1576 27.3963 47.8821 28.0355C47.8216 28.1836 47.7074 28.3249 47.6268 28.3585C47.5394 28.3854 47.4319 28.4998 47.3782 28.6008C47.2573 28.8363 47.096 29.8591 47.1565 30.0139C47.1968 30.1148 47.2237 30.1014 47.358 29.9332L47.5126 29.738L47.6604 30.0206C47.8015 30.2965 47.9358 30.3907 47.9358 30.2158C47.9426 30.1754 47.9963 30.2427 48.0702 30.3705C48.2315 30.6666 48.2516 31.1242 48.1038 31.0704C48.0433 31.0435 47.9829 31.0771 47.956 31.1511C47.9291 31.2184 47.9426 31.279 47.9896 31.2992C48.0433 31.3126 48.0433 31.3665 47.9896 31.4876C47.9224 31.6222 47.9358 31.676 48.0635 31.8038C48.2449 32.0057 48.3054 32.2211 48.3658 32.8671C48.4129 33.3515 48.4062 33.4121 48.171 34.011C48.0098 34.4215 47.9157 34.7916 47.8955 35.0742C47.8619 35.5924 47.6738 35.9557 47.2304 36.346C46.9012 36.6354 46.8676 36.6959 47.0355 36.6959C47.1901 36.6959 47.5999 37.1266 47.5999 37.2948C47.5999 37.3823 47.6402 37.4361 47.7141 37.4361C47.8015 37.4361 47.8082 37.4563 47.7477 37.5169C47.6335 37.6313 47.6469 37.7255 47.7612 37.6851C47.8283 37.6582 47.8485 37.6784 47.8283 37.7389C47.8015 37.7995 47.8754 37.887 48.0165 37.9745C48.1844 38.0754 48.2046 38.109 48.1105 38.109C48.0366 38.109 47.9291 38.0619 47.8619 38.0014C47.7544 37.9072 47.741 37.9072 47.6738 38.0283C47.6335 38.1023 47.6201 38.1763 47.6469 38.2032C47.6671 38.2234 47.6805 38.4522 47.6738 38.7147C47.6604 39.1386 47.6738 39.2059 47.8149 39.3203C47.9023 39.3943 48.003 39.4481 48.0366 39.4549C48.0769 39.4549 48.1105 39.5222 48.1173 39.5962C48.124 39.6769 48.1643 39.7779 48.2046 39.8182C48.2852 39.899 48.7287 39.9057 48.9033 39.825C49.0041 39.7846 49.0176 39.7913 48.9773 39.8519C48.9168 39.9596 49.0512 40.0538 49.2796 40.0672C49.4207 40.0739 49.4274 40.0807 49.3132 40.1076C49.2393 40.1278 49.1385 40.1749 49.0915 40.2085C48.9974 40.2893 48.984 40.4239 49.078 40.3633C49.1183 40.3431 49.1452 40.37 49.1452 40.4306C49.1452 40.5517 49.2998 40.7334 49.4073 40.7334C49.4408 40.7334 49.4946 40.794 49.5148 40.868C49.5685 41.0362 49.676 41.0429 49.7902 40.8814C49.8708 40.7805 49.8776 40.7872 49.8843 40.9555C49.8843 41.0833 49.9112 41.1304 49.9649 41.0968C50.0119 41.0699 50.0187 41.0766 49.9918 41.1237C49.9649 41.1641 49.9985 41.2785 50.059 41.3727C50.1799 41.5611 50.7308 41.9716 50.9526 42.0456C51.0601 42.0792 51.0937 42.1331 51.0735 42.2138C51.0533 42.2878 51.1071 42.3955 51.1944 42.483C51.2818 42.5637 51.3691 42.705 51.3893 42.7925C51.4162 42.88 51.4632 42.954 51.5035 42.954C51.5438 42.954 51.5371 43.0078 51.4901 43.1021C51.4229 43.2232 51.4363 43.2636 51.5371 43.3443C51.658 43.4318 51.6513 43.4385 51.4766 43.3981L51.2818 43.351L51.4027 43.5529C51.4632 43.6606 51.5908 43.7817 51.6782 43.8221C51.7655 43.8624 51.8327 43.9365 51.8193 43.9903C51.8058 44.0441 51.873 44.1518 51.9604 44.2258C52.1149 44.3604 52.1149 44.3671 51.9805 44.3671C51.7521 44.3671 51.7454 44.4883 51.9805 44.5354C52.3635 44.6228 53.3713 45.141 53.499 45.3227C53.546 45.39 53.7073 45.5044 53.8551 45.5784C53.9962 45.6524 54.1171 45.7466 54.1171 45.787C54.1171 45.8206 54.2582 45.9148 54.4262 45.9821C54.6008 46.0629 54.9637 46.3388 55.2862 46.6483C55.7363 47.079 55.958 47.2337 56.509 47.4962C56.8718 47.6711 57.2548 47.8528 57.3623 47.9067C57.5302 48.0009 57.584 47.9941 58.1349 47.7923C58.4574 47.6779 58.753 47.5567 58.7933 47.5231C58.9748 47.3751 59.5257 47.2472 60.3319 47.153C61.2054 47.0521 62.3812 47.0453 62.3812 47.1395C62.3812 47.1732 62.5088 47.1934 62.6701 47.1934C62.8246 47.2001 63.0732 47.2472 63.221 47.301C63.698 47.4827 63.7316 47.4827 63.9265 47.3414C64.0273 47.2674 64.296 47.153 64.5177 47.0924C64.7462 47.0386 65.1829 46.8704 65.4852 46.7223C65.7943 46.5743 66.1571 46.433 66.2982 46.4061C66.4326 46.3859 66.5468 46.3455 66.5468 46.3119C66.5468 46.2378 66.3452 46.0494 66.2646 46.0494C66.2243 46.0494 66.2041 46.0292 66.2243 46.009C66.2915 45.9417 66.5333 46.11 66.5804 46.2513C66.6341 46.4262 66.8491 46.3791 67.0641 46.1436C67.2724 45.9216 67.9443 45.7735 68.7908 45.7735C69.288 45.7735 69.5098 45.7466 69.624 45.6726C69.7113 45.612 69.7987 45.5851 69.8255 45.6053C69.8457 45.6255 69.8255 45.6457 69.7852 45.6457C69.7382 45.6457 69.7046 45.6659 69.7046 45.6928C69.7046 45.7264 69.8793 45.7466 70.0943 45.7533C70.5848 45.7533 71.0282 45.9889 71.2163 46.3455C71.2902 46.4801 71.391 46.5877 71.438 46.5877C71.4851 46.5877 71.5052 46.6214 71.4851 46.6618C71.4582 46.7021 71.4985 46.7492 71.5791 46.7694C71.7001 46.8031 71.7068 46.8233 71.6396 46.9107C71.5724 46.9915 71.5724 47.0184 71.6396 47.0386C71.6799 47.0588 71.7202 47.1328 71.7202 47.2001C71.7202 47.4962 72.0696 47.9403 72.3719 48.0278C72.4526 48.0547 72.5332 48.048 72.5533 48.0076C72.5735 47.9739 72.6541 47.9605 72.728 47.9807C72.8019 48.0009 72.9699 47.9941 73.1043 47.9739C73.2991 47.9336 73.326 47.9067 73.2655 47.8259C73.1648 47.7115 73.2723 47.6981 73.3865 47.8124C73.4469 47.873 73.4873 47.873 73.5477 47.8124C73.6619 47.6981 73.8098 47.7115 73.7627 47.8326C73.7358 47.8865 73.756 47.9336 73.7963 47.9336C73.8433 47.9336 73.8904 47.8932 73.9105 47.8461C73.9307 47.7788 74.0919 47.7452 74.3943 47.7384C74.6429 47.7317 74.8579 47.6981 74.8646 47.6577C74.9049 47.5567 75.0124 47.5904 75.0124 47.6981C75.0124 47.7653 75.0796 47.799 75.2005 47.799C75.3416 47.799 75.4088 47.8528 75.4827 48.0143C75.6104 48.2902 75.9799 48.519 76.1143 48.4113C76.1815 48.3575 76.2218 48.3508 76.2554 48.4046C76.2755 48.4383 76.2621 48.4719 76.2285 48.4719C76.1008 48.4719 76.1479 48.6469 76.3629 48.9429L76.5712 49.2256L76.4704 49.7168C76.4166 49.986 76.3898 50.2888 76.4032 50.383C76.4301 50.4974 76.3763 50.6656 76.2487 50.8742C75.9665 51.3385 75.9396 51.4327 76.0538 51.4731C76.1076 51.5 76.1546 51.5875 76.1546 51.675C76.1546 51.7894 76.1076 51.8432 75.9866 51.8768L75.8119 51.9172L75.9598 52.1662C76.0337 52.3008 76.0605 52.3681 76.0135 52.321C75.8657 52.1797 75.8388 52.2268 75.8455 52.6103C75.8455 52.9468 75.8254 53.0073 75.644 53.1756C75.4962 53.3101 75.4088 53.3505 75.3416 53.3101C75.2879 53.2765 75.2274 53.2496 75.1938 53.2496C75.1333 53.2496 75.3148 53.687 75.4693 53.9225C75.5768 54.084 75.5902 54.1176 75.6104 54.259C75.6104 54.2926 75.6843 54.3262 75.7649 54.3262C75.8791 54.3262 75.8926 54.3464 75.8321 54.407C75.7044 54.5349 75.7313 54.5887 75.9732 54.6964C76.0941 54.7502 76.121 54.7771 76.0337 54.7569L75.8791 54.7165L76.0605 54.9992C76.2083 55.2212 76.2823 55.2751 76.4032 55.2481C76.4838 55.2347 76.5376 55.2414 76.5241 55.2751C76.504 55.302 76.5443 55.3423 76.6048 55.3558C76.6719 55.3693 76.6451 55.376 76.5376 55.3693C76.2755 55.3558 76.336 55.4567 76.7862 55.7932C76.9944 55.9547 77.3304 56.2912 77.5252 56.5334C77.7268 56.7824 77.9955 57.0919 78.1366 57.2198C78.271 57.3476 78.439 57.563 78.4994 57.6908C78.5666 57.8187 78.6808 58.0407 78.7615 58.182C78.8421 58.3233 78.9026 58.5185 78.8958 58.6194C78.8891 58.7204 79.0571 59.1712 79.2654 59.6221C79.4737 60.0729 79.6752 60.5574 79.7088 60.6987C79.7491 60.84 79.8701 61.1361 79.9843 61.3515C80.2463 61.8696 80.2463 62.0849 79.9843 62.2464C79.8768 62.307 79.7827 62.4079 79.7827 62.455C79.7827 62.6098 80.3337 63.9556 80.5084 64.245C80.6696 64.5007 80.6696 64.5343 80.6091 65.1601C80.5352 65.9138 80.4076 66.1561 79.9776 66.3714C79.823 66.4521 79.7155 66.5598 79.7155 66.6271C79.7155 66.6944 79.608 66.8492 79.4804 66.977C79.3191 67.1318 79.2452 67.2664 79.2452 67.4009C79.2452 67.5019 79.2116 67.6567 79.1646 67.7374C79.1243 67.8182 79.0638 68.0335 79.0369 68.2219C78.963 68.7737 78.7212 69.5004 78.5465 69.6889C78.4054 69.8436 78.3919 69.884 78.4524 70.2406C78.486 70.456 78.4994 70.6646 78.4793 70.705C78.4658 70.7453 78.4457 70.7251 78.4457 70.6578C78.439 70.5973 78.4054 70.5435 78.3651 70.5435C78.318 70.5435 78.3113 70.5906 78.3449 70.6578C78.3718 70.7251 78.4054 71.0683 78.4121 71.4182C78.4188 71.9498 78.4524 72.1181 78.5935 72.4276C78.6943 72.6362 78.869 72.8919 78.9832 72.9996C79.0974 73.114 79.2587 73.336 79.346 73.5043C79.4333 73.6725 79.608 73.982 79.7424 74.2041C79.8701 74.4194 80.0313 74.7492 80.0918 74.9376C80.1523 75.126 80.3404 75.4759 80.4949 75.7114C80.6562 75.9469 80.7905 76.1757 80.7905 76.2228C80.7905 76.2699 80.8712 76.3776 80.9652 76.4718C81.0593 76.5593 81.1937 76.7208 81.2608 76.8352C81.4019 77.064 81.5162 77.5821 81.4154 77.5216C81.3751 77.4946 81.3616 77.7638 81.3818 78.2348C81.4087 78.8472 81.4423 79.0491 81.5699 79.2981C81.664 79.4865 81.7446 79.8297 81.7916 80.2065C81.879 80.9938 81.9327 81.2495 82.0402 81.4177C82.094 81.4917 82.1141 81.5725 82.094 81.5994C82.0335 81.66 82.2955 82.306 82.5508 82.7434C82.7323 83.0529 83.3168 83.6518 83.5251 83.746C83.6729 83.8066 83.9685 84.318 84.1902 84.8832C84.506 85.6975 84.6337 85.9464 85.0368 86.5453C85.2182 86.8212 85.413 87.1442 85.4668 87.2653C85.6616 87.7297 85.5407 88.1738 85.2182 88.1738C85.0368 88.1738 85.0569 88.3757 85.2585 88.5708C85.3526 88.6583 85.4265 88.7592 85.4265 88.7929C85.4265 88.8265 85.4869 88.9476 85.5676 89.0553C85.6885 89.2303 85.6952 89.2841 85.628 89.4927C85.581 89.6205 85.5676 89.7686 85.5877 89.8224C85.6415 89.9705 85.8094 89.9435 85.8498 89.7888C85.8968 89.6071 86.0849 89.6205 86.1118 89.8022C86.1252 89.9234 86.1857 89.9637 86.3537 89.9772C86.4746 89.9906 86.5955 90.0445 86.6157 90.0983C86.6963 90.3136 87.5026 90.5021 87.6101 90.3271C87.7176 90.1521 88.2685 89.9974 88.7926 89.9974C89.283 89.9974 89.3637 89.9772 89.6055 89.8157C89.8541 89.6407 89.9348 89.6273 90.5596 89.6071C91.7287 89.5802 91.8832 89.5869 92.2662 89.6878C92.5954 89.7686 92.6558 89.7686 92.7499 89.6878C92.8238 89.6205 92.9985 89.5869 93.2404 89.5869C93.5763 89.5869 93.6166 89.5734 93.6368 89.4321C93.6569 89.2975 93.6905 89.2841 94.1609 89.2774C94.6043 89.2774 94.7252 89.2437 95.1351 89.0351C95.7935 88.6986 96.5191 88.1603 97.1507 87.5547C97.4463 87.2721 97.8494 86.9222 98.0443 86.7808C98.4071 86.5184 99.2201 85.4821 99.4619 84.9774C99.6232 84.641 99.9255 84.3314 100.423 83.9883C100.859 83.6922 100.96 83.5307 101.081 82.9587C101.128 82.7366 101.222 82.4069 101.296 82.2185C101.37 82.0368 101.41 81.8349 101.397 81.7744C101.377 81.7138 101.384 81.4581 101.41 81.2159C101.451 80.8188 101.444 80.7583 101.33 80.6843C101.202 80.6035 101.202 80.59 101.31 80.3814C101.464 80.0854 101.679 79.9642 102.66 79.6345C103.265 79.4259 103.567 79.2846 103.769 79.1029C104.131 78.7934 104.4 78.2079 104.131 78.3089C104.044 78.3425 104.031 78.3089 104.071 78.0666C104.098 77.9051 104.158 77.6898 104.212 77.5821C104.273 77.4543 104.286 77.3668 104.246 77.3399C104.205 77.3197 104.185 77.1313 104.192 76.9227C104.205 76.5324 104.105 76.3843 104.031 76.6804C104.011 76.7679 103.99 76.667 103.997 76.4651C103.997 76.2228 103.95 76.0008 103.856 75.8258C103.769 75.6509 103.728 75.4826 103.749 75.3413C103.775 75.1596 103.749 75.0856 103.574 74.9241C103.379 74.7424 103.359 74.6886 103.372 74.3858C103.386 74.0964 103.413 74.0426 103.52 74.0426C103.601 74.0426 103.856 73.834 104.131 73.5514C104.4 73.2822 104.703 73.04 104.824 72.9996C104.965 72.9525 105.2 72.7439 105.495 72.394C105.751 72.0979 106.073 71.7749 106.221 71.6739C106.53 71.4653 107.383 71.102 107.733 71.0414C107.86 71.0145 108.042 70.927 108.136 70.8463C108.23 70.7588 108.431 70.6309 108.593 70.5502C108.754 70.4694 108.902 70.3483 108.922 70.2877C108.982 70.133 109.433 69.5274 109.607 69.3726C109.869 69.1371 110.057 68.2219 109.856 68.1479C109.802 68.1277 109.775 68.0604 109.795 67.9797C109.816 67.9124 109.802 67.8518 109.769 67.8518C109.742 67.8518 109.708 67.5557 109.701 67.1923C109.688 66.7078 109.661 66.5463 109.601 66.5598C109.554 66.5733 109.574 66.5194 109.641 66.4454C109.735 66.3445 109.748 66.2839 109.695 66.2234C109.661 66.1762 109.607 65.8465 109.58 65.4966C109.547 64.9986 109.56 64.79 109.641 64.5545C109.695 64.3863 109.715 64.245 109.681 64.2315C109.648 64.2181 109.641 64.1642 109.661 64.1104C109.708 63.9825 109.466 63.7268 109.097 63.5048C108.935 63.4173 108.808 63.3298 108.808 63.3231C108.801 63.1078 108.653 62.4954 108.593 62.4214C108.546 62.3608 108.505 62.2801 108.505 62.2397C108.499 62.1993 108.458 62.0849 108.405 61.984C108.331 61.8292 108.331 61.735 108.405 61.4389C108.479 61.1159 108.479 61.0554 108.371 60.9006C108.264 60.7324 108.264 60.7122 108.398 60.4969C108.479 60.369 108.539 60.2277 108.539 60.1806C108.539 60.1335 108.378 59.9316 108.176 59.7297C107.975 59.5279 107.793 59.2923 107.773 59.2049C107.746 59.1107 107.807 58.855 107.928 58.5521C108.035 58.283 108.149 57.9802 108.169 57.8792C108.196 57.7783 108.277 57.6774 108.351 57.6504C108.438 57.6235 108.599 57.3678 108.821 56.9102C109.003 56.5267 109.184 56.1969 109.218 56.1768C109.251 56.1498 109.278 56.0354 109.278 55.9211C109.278 55.6384 109.433 55.4231 109.668 55.376C109.889 55.3222 110.34 54.9251 110.299 54.8107C110.286 54.7636 110.333 54.73 110.4 54.73C110.568 54.73 110.736 54.5416 111.065 53.9898C111.354 53.5053 112.604 52.146 113.497 51.352C113.894 51.0021 114.304 50.7127 114.754 50.4772C115.352 50.1676 115.52 50.0331 116.299 49.2525C117.341 48.2027 117.737 47.7653 117.898 47.4558C117.959 47.3279 118.207 46.9444 118.449 46.6012C118.684 46.2647 118.899 45.9081 118.919 45.8139C118.94 45.7197 118.966 45.5784 118.987 45.4909C119 45.4101 119.141 45.1544 119.289 44.9189C119.444 44.6901 119.618 44.3671 119.685 44.2124C119.753 44.0576 119.86 43.8826 119.921 43.8288C119.988 43.7817 120.149 43.5193 120.277 43.2636C120.404 43.0011 120.566 42.7252 120.639 42.6512C120.713 42.5705 120.794 42.3147 120.841 42.0119C120.888 41.736 120.969 41.4534 121.022 41.3861C121.15 41.2381 121.244 40.5181 121.15 40.4508C121.103 40.4239 121.123 40.296 121.197 40.0941C121.271 39.9057 121.298 39.7577 121.258 39.7173C121.224 39.6837 121.056 39.6366 120.875 39.6164C120.579 39.576 120.545 39.5827 120.364 39.7779C120.263 39.8923 120.089 40.0067 119.981 40.0268C119.88 40.047 119.625 40.1143 119.423 40.1749C119.222 40.2354 118.859 40.2893 118.617 40.2893C118.375 40.296 118.106 40.3364 118.019 40.3902C117.905 40.4508 117.737 40.471 117.448 40.4373C117.065 40.3969 117.031 40.4104 116.588 40.6728L116.124 40.9555L115.721 40.8411L115.325 40.7334L114.969 40.9285C114.781 41.0362 114.478 41.1641 114.31 41.2044C114.035 41.2717 113.954 41.265 113.699 41.1506C113.531 41.0766 113.296 40.8949 113.168 40.7334C113.041 40.5786 112.873 40.37 112.792 40.2758C112.664 40.1143 112.604 40.0941 112.248 40.0941C111.811 40.0941 111.818 40.0672 112.355 39.825C112.758 39.6366 112.812 39.5491 112.711 39.2395C112.631 39.004 112.342 38.6406 112.254 38.6541C112.113 38.681 112.033 38.6406 112.033 38.5397C112.033 38.4791 111.945 38.3984 111.831 38.358C111.704 38.3109 111.623 38.2234 111.596 38.1023C111.549 37.9004 111.354 37.7053 111.038 37.5438C110.924 37.4832 110.749 37.315 110.662 37.1737C110.44 36.8238 110.212 36.6555 109.876 36.6017C109.574 36.5546 109.211 36.3864 109.211 36.2989C109.211 36.272 109.15 36.1778 109.083 36.097C109.009 36.0096 108.935 35.9086 108.922 35.8682C108.875 35.7202 108.727 35.9086 108.767 36.0836C108.794 36.2383 108.788 36.2316 108.707 36.0432C108.653 35.9288 108.573 35.8077 108.526 35.774C108.405 35.7 108.27 35.3299 108.169 34.7781C108.075 34.2667 108.035 34.159 107.686 33.4121C107.551 33.1228 107.417 32.9276 107.356 32.9276C107.303 32.9276 107.115 32.793 106.94 32.6315C106.765 32.47 106.557 32.322 106.476 32.2951C106.396 32.2682 106.302 32.1605 106.261 32.0461C106.167 31.7769 106.033 30.4782 106.073 30.2158C106.087 30.0879 106.066 29.9668 106.013 29.913C105.885 29.7851 105.892 29.6573 106.019 29.7649C106.221 29.9332 106.194 29.7784 105.986 29.5361C105.851 29.3881 105.757 29.1929 105.731 29.0113C105.69 28.7757 105.616 28.6613 105.314 28.3787C105.112 28.1903 104.844 27.9817 104.729 27.9211C104.461 27.7866 104.172 27.255 104.172 26.8983C104.172 26.6695 104.185 26.6561 104.34 26.6964C104.434 26.7234 104.508 26.7234 104.508 26.7032C104.508 26.6897 104.367 26.5417 104.199 26.3869C104.017 26.2187 103.796 25.9159 103.675 25.6601C103.554 25.4179 103.271 24.9199 103.05 24.5498C102.821 24.1797 102.573 23.6818 102.492 23.4463C102.411 23.2107 102.27 22.9147 102.176 22.7868C102.029 22.5917 102.015 22.5446 102.096 22.4907C102.17 22.4436 102.123 22.3696 101.867 22.1274C101.693 21.9524 101.478 21.6967 101.384 21.5554C101.296 21.4141 101.189 21.2795 101.155 21.2593C101.115 21.2324 101.101 21.1718 101.121 21.118C101.142 21.0642 101.101 20.9161 101.021 20.795C100.866 20.546 100.839 20.3105 100.947 20.2432C100.987 20.223 101.014 20.2567 101.014 20.324C101.014 20.3912 101.148 20.6268 101.316 20.8488C101.498 21.0911 101.619 21.3199 101.619 21.4275C101.619 21.5621 101.733 21.7169 102.082 22.0399C102.331 22.2821 102.6 22.4907 102.68 22.5109C102.875 22.5648 103.063 22.336 103.07 22.0331C103.077 21.8044 103.144 21.5688 103.446 20.7613C103.54 20.5191 103.56 20.3845 103.513 20.324C103.473 20.2836 103.312 19.9067 103.144 19.4895L102.841 18.7359L103.003 18.5878C103.09 18.5071 103.164 18.4129 103.164 18.3792C103.164 18.2783 102.983 18.3254 102.855 18.4667C102.606 18.7426 102.371 18.8166 101.881 18.7695C101.592 18.7359 101.417 18.7493 101.384 18.7897C101.323 18.8974 100.974 18.8772 100.88 18.7628C100.839 18.709 100.732 18.6484 100.658 18.6215C100.577 18.6013 100.47 18.5407 100.416 18.5004C100.322 18.4263 99.9994 18.3927 99.3343 18.3927C98.6154 18.3927 98.528 18.4062 98.528 18.5407C98.528 18.6349 98.4877 18.6686 98.3735 18.6484C98.2929 18.6417 98.1316 18.6955 98.0241 18.7695C97.7218 18.9849 97.406 19.1329 97.2649 19.1329C97.191 19.1329 97.0029 19.0723 96.8416 18.9983C96.6804 18.9243 96.4318 18.8637 96.2974 18.8637C96.163 18.8637 96.0287 18.8301 96.0085 18.7964C95.9883 18.7561 95.8741 18.7291 95.7666 18.7291C95.6591 18.7291 95.4979 18.682 95.4173 18.6282C95.3299 18.5744 95.041 18.5004 94.7723 18.46C94.5035 18.4196 94.1541 18.359 93.9929 18.3187C93.7913 18.2648 93.6368 18.2648 93.4487 18.3187C93.0791 18.4196 93.0321 18.4129 92.9783 18.2379C92.8843 17.9217 92.7566 17.8544 92.2662 17.8544C92.0108 17.8544 91.7354 17.8207 91.6548 17.7736C91.5741 17.7332 91.3591 17.6659 91.171 17.6256C90.8754 17.5583 90.8351 17.5246 90.8149 17.3631C90.7948 17.2016 90.741 17.168 90.2304 17.0065C89.5988 16.8113 89.3032 16.8113 88.5776 17.0267C87.9863 17.2016 87.5765 17.4372 87.3951 17.7131C87.2069 17.9957 87.2002 18.2514 87.3749 18.5946C87.5294 18.9041 87.4891 19.0723 87.2002 19.3415C86.8979 19.6241 86.5821 19.7587 86.3402 19.7116C86.226 19.6847 85.964 19.5501 85.7557 19.4021C85.2652 19.0589 84.3313 18.7493 83.5587 18.6686C83.1891 18.6282 82.8801 18.5609 82.7726 18.4869C82.5777 18.359 82.403 18.063 82.403 17.8678C82.403 17.6188 82.1544 17.4035 81.8185 17.3497C81.6438 17.3228 81.3952 17.2487 81.2608 17.1814C81.1332 17.1209 80.8779 17.0401 80.6898 17.0132C80.5084 16.9863 80.3001 16.9392 80.2329 16.8988C80.1523 16.8584 79.9574 16.8584 79.6551 16.919C79.2116 16.993 79.178 16.993 78.8219 16.8181C78.3919 16.6162 78.2038 16.596 78.1165 16.7575C78.0224 16.9123 77.8343 16.8181 77.8343 16.6095C77.8343 16.4278 77.626 16.2865 77.579 16.4278C77.5454 16.5354 77.3573 16.5287 77.3774 16.4278C77.3908 16.3807 77.3237 16.3336 77.2296 16.3201C76.8601 16.273 76.5846 16.024 76.6585 15.8154C76.6787 15.7683 76.7996 15.6741 76.9273 15.6136C77.0549 15.553 77.2363 15.4386 77.3304 15.3511C77.579 15.1425 77.9149 14.6378 77.841 14.5975C77.8141 14.5773 77.7671 14.4696 77.7469 14.3619C77.7133 14.2139 77.6327 14.1197 77.4312 14.0188C77.2094 13.9044 77.1624 13.8505 77.1624 13.6823C77.1624 13.5679 77.1893 13.4804 77.2229 13.4804C77.3774 13.4804 77.6999 13.1171 77.7402 12.9017C77.7604 12.7739 77.7671 12.646 77.7402 12.6258C77.7201 12.6056 77.5857 12.6595 77.4513 12.7537C77.0952 12.9825 76.9608 13.0296 76.9608 12.9017C76.9608 12.8479 76.9138 12.7873 76.8533 12.7604C76.7794 12.7335 76.7727 12.7066 76.8265 12.6729C76.9676 12.5854 76.8198 12.4576 76.6182 12.4845C76.5107 12.5047 76.4368 12.4845 76.4435 12.4441C76.4637 12.3567 76.2352 12.3297 76.0202 12.397ZM48.6615 38.0216C48.5943 38.035 48.4868 38.035 48.4263 38.0216C48.3591 38.0014 48.4129 37.9879 48.5405 37.9879C48.6682 37.9879 48.7219 38.0014 48.6615 38.0216ZM49.5483 39.724C49.5483 39.7577 49.4879 39.7913 49.4073 39.7913C49.3333 39.7913 49.293 39.7577 49.3132 39.724C49.3333 39.6837 49.4005 39.6567 49.4543 39.6567C49.508 39.6567 49.5483 39.6837 49.5483 39.724Z" fill="white"/>
<path d="M50.4421 21.1786C50.2808 21.3132 50.2741 21.3536 50.348 21.4478C50.469 21.5891 50.5026 21.5823 50.7176 21.3872C51.0669 21.0575 50.8116 20.8623 50.4421 21.1786Z" fill="white"/>
<path d="M45.8127 21.5218C45.7589 21.6496 45.9672 21.9794 46.0747 21.939C46.1553 21.9121 46.2628 21.515 46.2024 21.4545C46.1284 21.3805 45.8463 21.4276 45.8127 21.5218Z" fill="white"/>
<path d="M50.0455 21.7708C49.985 21.8919 49.8574 22.0736 49.7633 22.1745L49.5886 22.3629H49.7767C50.0724 22.3629 50.3478 22.1812 50.4083 21.939C50.4419 21.8246 50.4553 21.6833 50.4352 21.6362C50.3814 21.4747 50.1597 21.5554 50.0455 21.7708Z" fill="white"/>
<path d="M47.5665 21.7841C47.4925 21.8312 47.3313 21.8985 47.2171 21.9255C47.0961 21.9456 46.9954 21.986 46.9954 22.0062C46.9954 22.1273 47.2843 22.484 47.3582 22.4571C47.4993 22.4032 47.9494 21.8312 47.9024 21.7572C47.8419 21.663 47.721 21.6765 47.5665 21.7841Z" fill="white"/>
<path d="M46.5923 22.1947C46.4915 22.3158 46.5587 22.4302 46.7266 22.4302C46.7938 22.4302 46.8745 22.3965 46.8946 22.3629C46.9416 22.2889 46.814 22.0937 46.7266 22.0937C46.6998 22.0937 46.6393 22.1408 46.5923 22.1947Z" fill="white"/>
<path d="M48.2853 22.2418C48.0635 22.4638 48.3256 22.8541 48.601 22.7061C48.7623 22.6186 48.8026 22.4975 48.7354 22.3091C48.6749 22.1476 48.4196 22.1072 48.2853 22.2418Z" fill="white"/>
<path d="M45.7256 22.5715C45.5979 22.6253 45.5845 22.6522 45.6516 22.733C45.7659 22.8743 45.9406 22.8608 46.0346 22.7061C46.1018 22.5984 46.0951 22.5715 46.0145 22.5378C45.954 22.5176 45.907 22.4974 45.9002 22.5042C45.8935 22.5042 45.8129 22.5378 45.7256 22.5715Z" fill="white"/>
<path d="M102.425 22.7532C102.425 22.7868 102.472 22.8407 102.533 22.8609C102.6 22.8878 102.627 22.8676 102.613 22.8205C102.58 22.7196 102.425 22.6657 102.425 22.7532Z" fill="white"/>
<path d="M40.6326 34.2465C40.5587 34.2802 40.505 34.5426 40.5722 34.5426C40.6998 34.5426 41.0156 34.3744 40.9954 34.3138C40.9686 34.2331 40.7603 34.1927 40.6326 34.2465Z" fill="white"/>
<path d="M40.9013 34.5225C40.767 34.5763 40.8006 34.6772 40.9484 34.6772C41.0223 34.6772 41.0827 34.6301 41.0827 34.5763C41.0827 34.4754 41.0424 34.4619 40.9013 34.5225Z" fill="white"/>
<path d="M43.0716 34.5291C43.0179 34.6166 43.1388 34.879 43.2329 34.879C43.3269 34.879 43.3135 34.7243 43.2127 34.5762C43.1455 34.4955 43.1052 34.482 43.0716 34.5291Z" fill="white"/>
<path d="M41.1835 34.6772C41.1634 34.7109 41.1768 34.7445 41.2104 34.7445C41.2507 34.7445 41.2843 34.7109 41.2843 34.6772C41.2843 34.6368 41.2709 34.6099 41.2574 34.6099C41.2373 34.6099 41.2037 34.6368 41.1835 34.6772Z" fill="white"/>
<path d="M41.6002 34.7848C41.5061 34.879 41.6405 34.9867 41.8219 34.9598C42.0638 34.9261 42.084 34.8454 41.8757 34.7848C41.6808 34.7377 41.654 34.7377 41.6002 34.7848Z" fill="white"/>
<path d="M108.942 35.202C108.942 35.2424 108.976 35.2828 109.016 35.2962C109.07 35.3164 109.056 35.3635 108.983 35.4376C108.915 35.4981 108.895 35.552 108.935 35.552C108.976 35.552 108.989 35.5991 108.969 35.6529C108.915 35.7807 109.036 35.7807 109.144 35.6529C109.184 35.5991 109.198 35.5183 109.171 35.4712C109.137 35.4241 109.11 35.3433 109.11 35.2895C109.11 35.1819 108.942 35.1011 108.942 35.202Z" fill="white"/>
<path d="M43.1387 35.3232C43.0581 35.5386 43.2798 35.6395 43.4276 35.4578C43.4948 35.3771 43.4814 35.3434 43.3739 35.2896C43.1992 35.1954 43.1858 35.1954 43.1387 35.3232Z" fill="white"/>
<path d="M109.312 35.6192C109.258 35.7067 109.305 35.7807 109.406 35.7471C109.446 35.7269 109.453 35.6798 109.419 35.626C109.379 35.5587 109.352 35.5587 109.312 35.6192Z" fill="white"/>
<path d="M42.8296 36.3594C42.8296 36.4335 42.8632 36.494 42.8968 36.494C42.9371 36.494 42.964 36.4335 42.964 36.3594C42.964 36.2854 42.9371 36.2249 42.8968 36.2249C42.8632 36.2249 42.8296 36.2854 42.8296 36.3594Z" fill="white"/>
<path d="M42.272 36.3393C42.1108 36.4941 42.3795 36.8238 42.6012 36.7363C42.7289 36.6892 42.7222 36.5883 42.5609 36.4268C42.4198 36.2855 42.3459 36.2653 42.272 36.3393Z" fill="white"/>
<path d="M111.932 37.3688C111.885 37.4496 111.946 37.5707 112.04 37.5707C112.12 37.5707 112.12 37.389 112.04 37.3352C112.006 37.315 111.959 37.3284 111.932 37.3688Z" fill="white"/>
<path d="M111.831 37.7726C111.831 37.8062 111.858 37.8398 111.892 37.8398C111.932 37.8398 111.979 37.8062 111.999 37.7726C112.019 37.7322 111.993 37.7053 111.939 37.7053C111.878 37.7053 111.831 37.7322 111.831 37.7726Z" fill="white"/>
<path d="M123.522 38.8829C123.461 38.9502 123.481 39.0107 123.582 39.1117C123.764 39.2933 124.133 39.2933 124.53 39.1117C124.812 38.9838 124.819 38.9703 124.698 38.8963C124.496 38.7819 123.616 38.7752 123.522 38.8829Z" fill="white"/>
<path d="M122.111 39.3135C122.111 39.3808 122.447 39.4818 122.501 39.4212C122.554 39.3741 122.507 39.3472 122.299 39.2934C122.191 39.2732 122.111 39.2799 122.111 39.3135Z" fill="white"/>
<path d="M123.119 39.3875C123.119 39.4212 123.152 39.4548 123.186 39.4548C123.226 39.4548 123.253 39.4212 123.253 39.3875C123.253 39.3472 123.226 39.3203 123.186 39.3203C123.152 39.3203 123.119 39.3472 123.119 39.3875Z" fill="white"/>
<path d="M48.0299 40.1413C47.9963 40.1951 48.0165 40.2019 48.0904 40.1749C48.1576 40.148 48.2046 40.1615 48.2046 40.2019C48.2046 40.2422 48.2449 40.2624 48.2987 40.2422C48.3457 40.222 48.4263 40.2422 48.4666 40.2826C48.5271 40.3432 48.5607 40.3364 48.6077 40.2624C48.7018 40.1211 48.6883 40.0605 48.5741 40.0605C48.5204 40.0605 48.4733 40.0875 48.4733 40.1278C48.4733 40.1682 48.4129 40.1682 48.2987 40.1278C48.0837 40.0471 48.0904 40.0471 48.0299 40.1413Z" fill="white"/>
<path d="M48.7757 40.195C48.7555 40.2287 48.7622 40.2623 48.8025 40.2623C48.8361 40.2623 48.8899 40.2287 48.91 40.195C48.9302 40.1547 48.9235 40.1277 48.8832 40.1277C48.8496 40.1277 48.7958 40.1547 48.7757 40.195Z" fill="white"/>
<path d="M48.2382 40.3969C48.2181 40.4306 48.2315 40.4642 48.2651 40.4642C48.3054 40.4642 48.339 40.4306 48.339 40.3969C48.339 40.3566 48.3256 40.3297 48.3121 40.3297C48.292 40.3297 48.2584 40.3566 48.2382 40.3969Z" fill="white"/>
<path d="M48.8092 40.3902C48.8092 40.4306 48.7689 40.444 48.7286 40.4306C48.5942 40.3835 48.4666 40.4978 48.5136 40.619C48.5606 40.7401 48.6749 40.7737 48.6749 40.6661C48.6749 40.6257 48.6413 40.5988 48.601 40.5988C48.5674 40.5988 48.5539 40.5651 48.5741 40.5315C48.6077 40.4777 48.648 40.4777 48.7085 40.5315C48.7689 40.5786 48.816 40.5719 48.8697 40.5046C48.9235 40.4373 48.9302 40.3969 48.8764 40.3633C48.8428 40.3431 48.8092 40.3498 48.8092 40.3902Z" fill="white"/>
<path d="M48.2182 40.6123C48.2518 40.7132 48.4063 40.7334 48.4131 40.6325C48.4131 40.5921 48.366 40.5517 48.2988 40.545C48.2316 40.5248 48.1981 40.5517 48.2182 40.6123Z" fill="white"/>
<path d="M75.3014 48.4517C75.2544 48.4719 75.2141 48.519 75.2141 48.5661C75.2141 48.6199 75.1469 48.741 75.0662 48.842C74.9252 49.0236 74.9252 49.0304 75.0461 49.1179C75.2477 49.2659 75.335 49.2323 75.4828 48.9496C75.6575 48.6064 75.5634 48.3575 75.3014 48.4517Z" fill="white"/>
<path d="M73.8301 50.8338C73.8099 50.8742 73.8233 50.9415 73.8637 50.9819C73.9174 51.0357 73.9376 51.0155 73.9376 50.9079C73.9376 50.7464 73.904 50.7194 73.8301 50.8338Z" fill="white"/>
<path d="M108.646 58.1417C108.653 58.3234 108.68 58.458 108.7 58.4445C108.72 58.4378 108.767 58.431 108.801 58.431C108.888 58.431 108.935 58.0071 108.861 57.9062C108.714 57.7312 108.633 57.8254 108.646 58.1417Z" fill="white"/>
<path d="M108.163 58.8617C108.109 59.003 108.163 59.4067 108.23 59.3865C108.264 59.3731 108.317 59.4067 108.351 59.4673C108.385 59.5278 108.438 59.575 108.465 59.575C108.579 59.575 108.606 59.3529 108.519 59.2452C108.465 59.1847 108.405 59.0568 108.378 58.9491C108.331 58.754 108.223 58.7069 108.163 58.8617Z" fill="white"/>
<path d="M108.727 61.015C108.62 61.0957 108.539 61.1832 108.539 61.2101C108.539 61.3043 108.72 61.2572 108.835 61.1294C109.016 60.9275 108.935 60.8468 108.727 61.015Z" fill="white"/>
<path d="M115.997 63.0741C115.997 63.1077 116.03 63.1414 116.064 63.1414C116.104 63.1414 116.131 63.1077 116.131 63.0741C116.131 63.0337 116.104 63.0068 116.064 63.0068C116.03 63.0068 115.997 63.0337 115.997 63.0741Z" fill="white"/>
<path d="M112.476 64.9313C112.402 65.1197 112.436 65.2745 112.57 65.3956C112.778 65.5841 112.873 65.4495 112.765 65.0996C112.684 64.8169 112.55 64.7429 112.476 64.9313Z" fill="white"/>
<path d="M118.906 65.611C118.839 65.8128 118.671 65.9676 118.53 65.9676C118.402 65.9676 118.402 65.9743 118.503 66.0887C118.57 66.156 118.617 66.2839 118.617 66.3781C118.617 66.6203 118.402 66.9904 118.234 67.051C118.1 67.0981 118.08 67.0846 118.08 66.9433C118.08 66.8491 118.046 66.7751 118.013 66.7751C117.905 66.7751 117.838 66.9972 117.932 67.0308C118.026 67.0577 118.039 67.2865 117.952 67.3471C117.919 67.3673 117.871 67.3202 117.845 67.2461C117.824 67.1721 117.777 67.1116 117.744 67.1116C117.636 67.1116 117.462 67.4346 117.515 67.5288C117.549 67.5759 117.576 67.697 117.583 67.7979C117.589 67.9392 117.562 67.9863 117.468 67.9863C117.307 67.9863 117.253 68.0873 117.327 68.2353C117.401 68.3699 117.247 68.5785 117.173 68.4574C117.099 68.3363 117.011 68.3901 116.83 68.6593C116.702 68.8477 116.669 68.9755 116.696 69.0967C116.723 69.1909 116.709 69.2649 116.669 69.2649C116.635 69.2649 116.602 69.2111 116.602 69.1438C116.602 68.9553 116.534 68.9217 116.34 69.0226C116.057 69.1707 115.842 69.4398 115.883 69.6013C115.903 69.6754 115.889 69.7225 115.856 69.6955C115.822 69.6754 115.795 69.6148 115.795 69.561C115.795 69.4869 115.769 69.4802 115.668 69.534C115.594 69.5677 115.459 69.6013 115.365 69.6013C115.271 69.6013 115.171 69.6417 115.144 69.6888C115.07 69.8099 114.801 69.8772 114.767 69.783C114.754 69.7359 114.667 69.7628 114.552 69.857C114.438 69.9513 114.27 70.0051 114.122 70.0051C113.813 70.0051 113.713 70.0993 113.713 70.4088C113.713 70.5703 113.639 70.7453 113.477 70.9741C113.242 71.3105 113.242 71.3105 113.283 71.8489C113.309 72.1651 113.383 72.5016 113.451 72.6429C113.524 72.7842 113.578 72.9794 113.578 73.0803C113.578 73.1812 113.625 73.3293 113.686 73.4033C113.753 73.4975 113.773 73.6119 113.746 73.7801C113.719 73.9214 113.733 74.0493 113.773 74.0695C113.813 74.0964 113.773 74.2108 113.672 74.3588C113.585 74.4934 113.41 74.803 113.289 75.0519C113.175 75.3009 113.021 75.5297 112.947 75.5634C112.879 75.597 112.745 75.8056 112.658 76.0277C112.423 76.5929 112.456 77.0438 112.792 77.5754C112.994 77.8916 113.021 77.9926 112.96 78.1002C112.846 78.3156 112.926 78.9346 113.094 79.1096C113.175 79.1971 113.242 79.3047 113.242 79.3519C113.242 79.4932 113.78 79.9642 113.934 79.9642C114.015 79.9642 114.223 80.0382 114.398 80.1324C114.573 80.2266 114.754 80.3007 114.801 80.3007C114.855 80.3007 115.103 80.1997 115.359 80.0786C115.621 79.9507 115.977 79.8296 116.158 79.8094C116.622 79.7421 116.77 79.621 116.904 79.2105C116.971 79.0154 117.079 78.7395 117.146 78.6049C117.22 78.4636 117.361 77.9791 117.468 77.5283C117.576 77.0707 117.764 76.4852 117.878 76.2295C117.992 75.9671 118.134 75.5701 118.187 75.3346C118.241 75.099 118.349 74.7559 118.422 74.5607C118.503 74.3656 118.745 73.6859 118.96 73.0534C119.296 72.0709 119.356 71.822 119.356 71.4249C119.356 71.0414 119.376 70.9404 119.484 70.8664C119.551 70.8193 119.645 70.6511 119.692 70.4963C119.766 70.2473 119.766 70.1868 119.665 70.0387C119.605 69.9445 119.571 69.8369 119.591 69.8032C119.612 69.7696 119.591 69.6821 119.551 69.6148C119.471 69.4802 119.504 69.2649 119.612 69.2649C119.645 69.2649 119.719 69.386 119.78 69.534C119.894 69.8234 120.075 69.9445 120.169 69.7965C120.203 69.7427 120.277 69.5542 120.337 69.3793C120.445 69.0563 120.445 69.0563 120.263 68.7938C120.129 68.6054 120.089 68.4708 120.102 68.2757C120.116 68.1344 120.102 67.9796 120.075 67.9392C120.048 67.8921 120.042 67.7845 120.062 67.697C120.089 67.5893 120.055 67.4278 119.968 67.2596C119.887 67.1048 119.827 66.8962 119.827 66.7818C119.827 66.6607 119.753 66.5127 119.625 66.3714C119.518 66.2502 119.424 66.1157 119.424 66.0685C119.424 66.0147 119.37 65.934 119.296 65.8869C119.229 65.8398 119.161 65.7388 119.148 65.6715C119.114 65.4966 118.967 65.4562 118.906 65.611Z" fill="white"/>
<path d="M113.733 65.6177C113.538 65.6446 113.538 65.7321 113.726 65.8599C113.907 65.9878 114.035 65.9003 113.941 65.7186C113.901 65.6379 113.827 65.6042 113.733 65.6177Z" fill="white"/>
<path d="M112.906 65.8331C112.906 65.9206 113.094 66.0013 113.162 65.9407C113.182 65.9138 113.162 65.8667 113.108 65.8331C112.973 65.7456 112.906 65.7523 112.906 65.8331Z" fill="white"/>
<path d="M114.472 66.405C114.472 66.506 114.505 66.5732 114.559 66.5732C114.613 66.5732 114.653 66.5261 114.653 66.4723C114.653 66.4185 114.693 66.3714 114.74 66.3714C114.794 66.3714 114.787 66.3445 114.72 66.3041C114.552 66.1964 114.472 66.2301 114.472 66.405Z" fill="white"/>
<path d="M119.732 70.7386C119.665 70.8126 119.625 70.927 119.638 70.9943C119.658 71.0885 119.692 71.0683 119.786 70.8934C119.921 70.6242 119.9 70.5569 119.732 70.7386Z" fill="white"/>
<path d="M111.932 71.0145C111.952 71.0481 111.986 71.0818 112.006 71.0818C112.019 71.0818 112.033 71.0481 112.033 71.0145C112.033 70.9741 111.999 70.9472 111.959 70.9472C111.925 70.9472 111.912 70.9741 111.932 71.0145Z" fill="white"/>
<path d="M104.037 75.9941C104.037 76.0681 104.071 76.1287 104.105 76.1287C104.145 76.1287 104.172 76.0681 104.172 75.9941C104.172 75.9201 104.145 75.8595 104.105 75.8595C104.071 75.8595 104.037 75.9201 104.037 75.9941Z" fill="white"/>
<path d="M143.667 96L155.333 96C156.254 96 157 95.2965 157 94.4286L157 89.5795C157 89.1627 156.824 88.763 156.512 88.4683L153.321 85.4603C153.009 85.1656 152.585 85 152.143 85L143.667 85C142.746 85 142 85.7014 142 86.5692L142 94.4292C142 95.2971 142.746 96 143.667 96Z" fill="white"/>
<path d="M146.352 90.848C146.352 90.912 146.348 90.9787 146.34 91.048H144.792C144.803 91.1867 144.847 91.2933 144.924 91.368C145.004 91.44 145.101 91.476 145.216 91.476C145.387 91.476 145.505 91.404 145.572 91.26H146.3C146.263 91.4067 146.195 91.5387 146.096 91.656C146 91.7733 145.879 91.8653 145.732 91.932C145.585 91.9987 145.421 92.032 145.24 92.032C145.021 92.032 144.827 91.9853 144.656 91.892C144.485 91.7987 144.352 91.6653 144.256 91.492C144.16 91.3187 144.112 91.116 144.112 90.884C144.112 90.652 144.159 90.4493 144.252 90.276C144.348 90.1027 144.481 89.9693 144.652 89.876C144.823 89.7827 145.019 89.736 145.24 89.736C145.456 89.736 145.648 89.7813 145.816 89.872C145.984 89.9627 146.115 90.092 146.208 90.26C146.304 90.428 146.352 90.624 146.352 90.848ZM145.652 90.668C145.652 90.5507 145.612 90.4573 145.532 90.388C145.452 90.3187 145.352 90.284 145.232 90.284C145.117 90.284 145.02 90.3173 144.94 90.384C144.863 90.4507 144.815 90.5453 144.796 90.668H145.652ZM147.729 92.028C147.524 92.028 147.34 91.9947 147.177 91.928C147.014 91.8613 146.884 91.7627 146.785 91.632C146.689 91.5013 146.638 91.344 146.633 91.16H147.361C147.372 91.264 147.408 91.344 147.469 91.4C147.53 91.4533 147.61 91.48 147.709 91.48C147.81 91.48 147.89 91.4573 147.949 91.412C148.008 91.364 148.037 91.2987 148.037 91.216C148.037 91.1467 148.013 91.0893 147.965 91.044C147.92 90.9987 147.862 90.9613 147.793 90.932C147.726 90.9027 147.63 90.8693 147.505 90.832C147.324 90.776 147.176 90.72 147.061 90.664C146.946 90.608 146.848 90.5253 146.765 90.416C146.682 90.3067 146.641 90.164 146.641 89.988C146.641 89.7267 146.736 89.5227 146.925 89.376C147.114 89.2267 147.361 89.152 147.665 89.152C147.974 89.152 148.224 89.2267 148.413 89.376C148.602 89.5227 148.704 89.728 148.717 89.992H147.977C147.972 89.9013 147.938 89.8307 147.877 89.78C147.816 89.7267 147.737 89.7 147.641 89.7C147.558 89.7 147.492 89.7227 147.441 89.768C147.39 89.8107 147.365 89.8733 147.365 89.956C147.365 90.0467 147.408 90.1173 147.493 90.168C147.578 90.2187 147.712 90.2733 147.893 90.332C148.074 90.3933 148.221 90.452 148.333 90.508C148.448 90.564 148.546 90.6453 148.629 90.752C148.712 90.8587 148.753 90.996 148.753 91.164C148.753 91.324 148.712 91.4693 148.629 91.6C148.549 91.7307 148.432 91.8347 148.277 91.912C148.122 91.9893 147.94 92.028 147.729 92.028ZM149.858 89.192V92H149.174V89.192H149.858ZM153.533 89.192V92H152.849V90.316L152.221 92H151.669L151.037 90.312V92H150.353V89.192H151.161L151.949 91.136L152.729 89.192H153.533Z" fill="url(#paint1_linear_1246_4217)"/>
</g>
<defs>
<linearGradient id="paint0_linear_1246_4217" x1="0" y1="0" x2="92.535" y2="148.236" gradientUnits="userSpaceOnUse">
<stop stop-color="#51DAED"/>
<stop offset="0.485577" stop-color="#D2DB77"/>
<stop offset="1" stop-color="#F17B63"/>
</linearGradient>
<linearGradient id="paint1_linear_1246_4217" x1="144" y1="91" x2="154" y2="91" gradientUnits="userSpaceOnUse">
<stop stop-color="#5ADAE5"/>
<stop offset="0.490385" stop-color="#D5D275"/>
<stop offset="0.990385" stop-color="#F08064"/>
</linearGradient>
<clipPath id="clip0_1246_4217">
<rect width="165" height="103" fill="white"/>
</clipPath>
</defs>
</svg>
