<svg width="165" height="103" viewBox="0 0 165 103" fill="none" xmlns="http://www.w3.org/2000/svg">
<rect width="165" height="103" rx="8" fill="url(#paint0_linear_1246_4120)"/>
<g clip-path="url(#clip0_1246_4120)">
<path d="M59.0773 14.1072C58.9624 14.1761 58.7251 14.2296 58.5643 14.2296C58.2274 14.2296 58.1509 14.3138 58.2734 14.5434C58.3576 14.7042 58.3959 14.7042 59.1385 14.6659C59.5596 14.6353 60.0879 14.597 60.2946 14.5741C60.6468 14.5434 60.6315 14.5511 60.1109 14.6889C59.4601 14.8649 59.4524 14.8649 59.5213 15.0409C59.5596 15.1328 59.6285 15.1557 59.8046 15.1175C59.9348 15.0945 60.1492 15.1175 60.2946 15.1787C60.4324 15.2399 60.8153 15.3088 61.1445 15.3394C61.4813 15.37 61.9867 15.4389 62.2776 15.5001C62.959 15.6303 63.3188 15.4848 62.959 15.2093C62.8824 15.1557 62.7829 15.0409 62.737 14.9567C62.6604 14.8266 62.5685 14.8037 62.1628 14.8037C61.8948 14.8037 61.5962 14.7577 61.512 14.7118C61.4201 14.6582 61.2057 14.597 61.0373 14.5664C60.7999 14.5281 60.7387 14.4899 60.7693 14.3904C60.8229 14.1684 60.6315 14.0919 59.9501 14.0383C59.4371 14 59.2534 14.0153 59.0773 14.1072Z" fill="white"/>
<path d="M63.9464 15.1557C63.7474 15.2323 63.5943 15.569 63.6555 15.8063C63.7168 16.0282 63.9464 16.0971 64.268 15.99C64.4058 15.944 64.7963 15.9134 65.1408 15.9211C65.8222 15.944 66.0519 15.8522 65.9218 15.6073C65.8452 15.4695 65.4471 15.393 64.6432 15.3547C64.4518 15.3471 64.3139 15.3088 64.3139 15.2552C64.3139 15.1251 64.1532 15.0792 63.9464 15.1557Z" fill="white"/>
<path d="M68.8821 15.7029C68.8146 15.8133 68.8146 15.9406 68.8737 16.0934C68.9919 16.4159 68.9919 16.4159 68.5867 16.3565C68.2659 16.3055 68.2153 16.3225 68.1731 16.4753C68.1393 16.6026 68.0634 16.645 67.827 16.645C67.6666 16.645 67.3459 16.6875 67.1096 16.7384C66.7719 16.8063 66.6453 16.7978 66.4343 16.696C66.0629 16.5008 65.2272 16.5177 65.1006 16.7129C65.0247 16.8487 64.8558 16.8827 64.1468 16.9336C63.5813 16.9676 63.2014 17.0355 63.0242 17.1373C62.8722 17.2137 62.619 17.2986 62.4586 17.324C62.0028 17.3919 62.1041 17.5617 62.7878 17.9097C63.1339 18.0794 63.404 18.2491 63.3787 18.3001C63.3618 18.351 63.0833 18.3765 62.7119 18.3595C62.3658 18.3425 62.0197 18.334 61.9522 18.3425C61.8847 18.351 61.3782 18.368 60.8295 18.3849C60.2893 18.3934 59.8166 18.4274 59.7913 18.4528C59.6985 18.5462 59.9264 18.8433 60.1121 18.8687C60.2302 18.8857 60.3147 18.9706 60.3484 19.1064C60.3991 19.3016 60.4328 19.3186 60.7958 19.2931C61.0406 19.2761 61.2685 19.3101 61.4204 19.3949C61.547 19.4713 61.8678 19.6071 62.121 19.7005C62.3742 19.7938 62.5684 19.8702 62.543 19.8702C62.5177 19.8787 62.2138 19.8787 61.8678 19.8787C61.1503 19.8787 60.5341 19.8023 60.4666 19.692C60.4413 19.6496 60.2978 19.6156 60.1543 19.6156C60.0023 19.6156 59.69 19.5392 59.4452 19.4459C58.9726 19.2676 58.7869 19.3355 59.0316 19.6071C59.2173 19.8108 59.2005 19.8957 59.0063 19.7854C58.7531 19.658 58.2298 19.675 58.2888 19.8193C58.3648 20.006 58.7024 20.1164 59.1836 20.0909C59.5719 20.0739 59.69 20.0994 59.8842 20.2691C60.0108 20.3795 60.0952 20.4983 60.0699 20.5238C60.0108 20.5747 58.1116 20.2352 57.8415 20.1248C57.7317 20.0824 57.6473 19.9721 57.6473 19.8787C57.6473 19.5986 57.4701 19.3016 57.2506 19.1997C56.9299 19.0554 56.837 19.0894 57.0396 19.2846C57.2506 19.4713 57.2169 19.6156 56.9721 19.6156C56.8792 19.6156 56.7695 19.692 56.7188 19.7769C56.6513 19.9212 56.6851 19.9891 56.9045 20.2012C57.0565 20.3455 57.2253 20.4643 57.2844 20.4643C57.4532 20.4643 57.6473 20.719 57.6473 20.9566C57.6558 21.1009 57.7824 21.33 57.9765 21.5592L58.3057 21.9242L59.3186 21.9411C60.1627 21.9581 60.3653 21.9836 60.5679 22.1194C60.7029 22.2127 60.8886 22.3231 60.9815 22.374C61.0743 22.4249 61.1587 22.5353 61.1756 22.6286C61.2178 22.8578 61.3613 23.0105 61.5892 23.1039C61.8762 23.2142 61.8256 23.35 61.5048 23.35C61.2009 23.35 60.9984 23.1888 60.8971 22.8493C60.8549 22.722 60.6861 22.5862 60.3737 22.4419C59.9517 22.2467 59.8504 22.2297 59.4284 22.2976C59.0907 22.3485 58.9472 22.4164 58.9303 22.5183C58.9135 22.5947 58.9726 22.6795 59.0654 22.7135C59.2005 22.7474 59.2427 22.8578 59.268 23.2058C59.3102 23.6726 59.2427 23.8253 58.9557 23.9526C58.8628 23.9951 58.694 24.0969 58.5758 24.1903C58.3817 24.3431 58.3142 24.3431 57.5798 24.2497C57.1493 24.1903 56.7526 24.0969 56.702 24.046C56.6429 23.9866 56.5331 23.9442 56.4487 23.9442C56.3643 23.9442 56.2968 23.9017 56.2968 23.8593C56.2968 23.7489 56.5163 23.7489 56.7357 23.8678C56.8286 23.9187 57.1156 23.9866 57.3688 24.0205C57.8584 24.0884 57.9006 24.063 58.2973 23.3925C58.4999 23.053 58.5083 23.0021 58.3733 22.8493C58.2973 22.7644 58.2382 22.6456 58.2551 22.5777C58.272 22.5183 58.1285 22.391 57.9428 22.2891C57.7571 22.1873 57.5207 21.9751 57.4194 21.8138C57.3181 21.6526 57.1578 21.4489 57.0734 21.3555C56.9805 21.2622 56.8877 21.0839 56.8539 20.9566C56.8286 20.8378 56.6091 20.5577 56.3728 20.3455C56.1364 20.1333 55.9676 19.9212 56.0014 19.8702C56.0858 19.7344 55.8916 19.3016 55.7228 19.2252C55.6384 19.1912 55.1826 19.1233 54.7015 19.0724C53.9334 18.9875 53.8067 18.9875 53.6632 19.1064C53.5198 19.2252 53.5113 19.2676 53.6042 19.4713C53.7477 19.7938 53.6042 20.0909 53.2581 20.1673C52.9542 20.2352 52.9289 20.4898 53.2243 20.5322C53.4269 20.5577 53.6801 20.9566 53.6801 21.2622C53.6801 21.5083 53.8912 21.6526 54.2541 21.6526C54.3892 21.6526 54.5664 21.729 54.6508 21.8223C54.7352 21.9157 54.8872 21.9921 54.9885 21.9921C55.2079 21.9921 55.4527 22.2382 55.4527 22.4504C55.4527 22.6201 55.4527 22.6201 54.4145 22.3825C54.0937 22.3061 53.7645 22.2127 53.6801 22.1618C53.3763 21.9921 53.3509 22.0854 53.5957 22.4758C53.7392 22.6965 53.8489 22.9426 53.8489 23.019C53.8489 23.1124 53.6632 23.2737 53.3678 23.4434C52.7854 23.7829 52.2452 24.2582 52.2452 24.4279C52.2452 24.5043 52.3634 24.7929 52.4984 25.0815C52.6419 25.3615 52.8276 25.8623 52.9205 26.1933C53.275 27.4324 53.8489 30.106 53.8489 30.5303C53.8489 30.8274 53.8912 31.0056 53.984 31.082C54.195 31.2518 54.5664 31.8459 54.7268 32.2533C54.8534 32.5843 54.8534 32.6437 54.7352 32.8219C54.6593 32.9407 54.4398 33.068 54.195 33.1444C53.1906 33.4415 53.0724 33.6367 53.5113 34.3242C53.8574 34.8759 54.3807 35.1305 54.845 34.9947C55.0476 34.9268 55.3092 34.7485 55.5287 34.5109L55.8832 34.129L56.0858 34.3327C56.2462 34.4939 56.2968 34.6382 56.2968 34.9013C56.2968 35.0965 56.339 35.5039 56.3896 35.801C56.4403 36.098 56.4572 36.5479 56.4234 36.8025C56.3728 37.2184 56.3306 37.3032 56.0098 37.5663L55.6469 37.8634L54.98 37.5833C54.6086 37.4221 54.1275 37.1929 53.8912 37.0741C53.2834 36.7516 52.8192 36.7006 52.414 36.8958L52.0848 37.0571L52.2536 37.3287C52.3971 37.5494 52.4056 37.6257 52.3211 37.77C52.203 37.9483 51.9413 38.0077 51.0213 38.0841C50.346 38.1435 50.2109 38.2368 49.9239 38.797C49.8142 39.0092 49.6285 39.2723 49.5103 39.3911C49.3246 39.5609 49.2571 39.5778 49.1389 39.493C48.8773 39.3062 48.7844 39.2893 48.6494 39.3996C48.5481 39.4845 48.5228 39.6118 48.5565 39.9258C48.5903 40.2823 48.6409 40.3926 48.9448 40.6642C49.274 40.9698 49.2909 41.0122 49.2909 41.479C49.2993 41.793 49.3584 42.0901 49.4513 42.2683L49.6032 42.5569L49.7804 42.3023C49.9239 42.0986 50.0421 42.0392 50.3629 41.9967C50.6752 41.9628 50.8018 41.9034 50.9791 41.6742L51.207 41.4026L51.5868 41.5808C51.9075 41.7421 51.992 41.7506 52.2367 41.6572C52.4815 41.5639 52.5237 41.5724 52.6335 41.7166C52.701 41.8185 52.7516 42.0816 52.7516 42.3702C52.7516 42.6418 52.7938 42.8879 52.836 42.9134C53.0471 43.0492 52.8782 43.0831 52.4309 43.0067C52.1523 42.9643 51.8738 42.9558 51.7978 42.9813C51.6206 43.0492 51.6121 43.4311 51.7809 43.499C51.9498 43.5584 51.9413 43.8045 51.7725 43.8045C51.705 43.8045 51.5699 43.7621 51.4771 43.7112C51.3504 43.6518 51.2745 43.6518 51.1901 43.7197C51.0297 43.8555 51.1732 44.144 51.4011 44.144C51.4855 44.144 51.5784 44.2204 51.6121 44.3053C51.6374 44.3986 51.7556 44.526 51.8653 44.6023C51.9835 44.6787 52.0764 44.7976 52.0764 44.8655C52.0764 44.9418 52.1523 44.9928 52.2705 44.9928C52.3887 44.9928 52.49 45.0691 52.5406 45.1795C52.5997 45.3153 52.701 45.3747 52.8782 45.3747C53.1061 45.3832 53.1315 45.4086 53.1906 45.7566C53.275 46.2574 53.6042 47.0382 53.7139 47.0043C53.8067 46.9703 53.8236 46.7072 53.7561 46.3932C53.7308 46.2743 53.7899 46.2065 53.9587 46.147C54.1781 46.0707 54.2203 46.0876 54.5327 46.4611C54.7184 46.6817 54.9294 46.86 54.9885 46.86C55.0476 46.86 55.1657 46.9194 55.2332 46.9958C55.3345 47.0976 55.3514 47.1655 55.2755 47.3013C55.1995 47.4456 55.132 47.4626 54.8787 47.4201C54.7015 47.3862 54.406 47.3438 54.2119 47.3183L53.8489 47.2674V47.6154C53.8489 47.9379 53.8658 47.9718 54.1106 48.0227C54.4229 48.0822 54.4905 48.218 54.3638 48.5574C54.2541 48.8885 54.2963 48.9818 54.6593 49.2195C54.9631 49.4232 55.056 49.5844 55.2501 50.3228C55.478 51.1885 55.5287 51.1461 54.2119 51.1715C53.1061 51.197 53.0555 51.1885 52.8445 50.9933C52.4646 50.6453 52.2199 50.5095 51.9498 50.5095C51.5952 50.5095 51.3504 50.3143 51.2829 49.9833C51.131 49.2364 51.131 49.1516 51.2829 48.9139C51.3758 48.7866 51.4602 48.549 51.4855 48.3877C51.5277 48.1076 51.5446 48.0906 51.8485 48.0991C52.3802 48.1161 52.1608 47.7342 51.553 47.5899C51.4264 47.5644 51.1901 47.3692 51.0213 47.1655C50.6921 46.7581 50.7596 46.7836 49.3162 46.6138C48.5396 46.529 47.8137 46.2234 47.1975 45.7142C46.8346 45.4171 46.4041 45.3238 46.2944 45.502C46.1846 45.6717 45.7542 45.5869 45.4672 45.3323C44.986 44.9079 44.353 44.7721 44.0069 45.0267C43.8296 45.1625 43.8212 45.1455 44.2432 45.4086C44.488 45.5529 44.5809 45.6887 44.6737 45.9943C44.8257 46.512 44.7497 46.6478 44.201 46.8939C43.8465 47.0467 43.6271 47.0807 43.0446 47.0722C42.6479 47.0637 42.2259 47.0127 42.0908 46.9618C41.9642 46.9024 41.6857 46.8685 41.4746 46.877C41.1454 46.8939 41.0526 46.86 40.9007 46.6733C40.6727 46.3932 40.3267 46.3253 38.993 46.3168C38.0561 46.3083 37.8957 46.3338 37.5834 46.495C37.3893 46.6054 37.1782 46.7666 37.1023 46.8685C36.9841 47.0382 36.925 47.0467 36.4017 47.0043C36.0809 46.9788 35.7686 46.9449 35.7011 46.9279C35.5323 46.8939 35.4901 47.208 35.6504 47.3013C36.0387 47.522 35.566 47.6917 34.4603 47.7257C33.9791 47.7427 33.5571 47.7936 33.5149 47.836C33.4811 47.8869 33.422 48.0652 33.3967 48.2434C33.3461 48.5574 33.3545 48.5744 33.7259 48.7272C34.148 48.9139 34.207 49.1261 33.9201 49.4147C33.8019 49.5335 33.6922 49.5759 33.5655 49.5335C33.1097 49.3892 33 49.3892 33 49.508C33 49.7202 33.3039 49.9239 33.6922 49.9748C34.1142 50.0342 34.2661 50.1276 34.2661 50.3398C34.2661 50.4247 34.3421 50.5095 34.4434 50.535C34.5953 50.5774 34.6038 50.6029 34.5109 50.7557C34.4181 50.9 34.4265 50.9509 34.5531 51.0952C34.6797 51.231 34.8148 51.2734 35.1609 51.2734C35.566 51.2734 35.6336 51.2989 35.8024 51.528C35.9712 51.7572 36.0303 51.7826 36.4523 51.7826C36.8912 51.7826 36.9334 51.7572 37.0685 51.528C37.2795 51.1546 37.5834 51.1121 38.0983 51.4007C38.3346 51.528 38.5879 51.6893 38.6638 51.7487C38.8664 51.9354 39.5501 51.7996 39.9722 51.5026C40.2845 51.2819 40.3604 51.2649 40.5883 51.3413C40.7909 51.4177 40.9175 51.4092 41.1454 51.3073C41.4071 51.2055 41.4409 51.2055 41.4409 51.3073C41.4409 51.3752 41.3987 51.4601 41.348 51.4941C41.2889 51.528 41.2636 51.9099 41.2636 52.538C41.2721 53.8281 41.1961 54.6598 41.061 54.872C40.9935 54.9739 40.8838 55.2964 40.8078 55.6019C40.6643 56.1706 40.4871 56.578 40.352 56.6629C40.3098 56.6883 39.9384 56.6713 39.5332 56.6204C39.1281 56.578 38.7736 56.5525 38.7567 56.5695C38.7145 56.6204 39.2969 57.8596 39.3982 57.9275C39.4488 57.9529 39.5501 58.1821 39.6176 58.4282C39.6852 58.6744 39.8793 59.0308 40.0312 59.2091C40.1916 59.3958 40.3351 59.6249 40.352 59.7183C40.4111 59.9984 40.6643 59.9729 40.85 59.6589C40.9682 59.4637 41.0188 59.2345 41.0188 58.8865C41.0188 58.6234 41.0526 58.4028 41.0948 58.4028C41.2214 58.4028 41.2805 58.6574 41.1876 58.8271C41.0948 59.0054 41.0779 59.5825 41.1539 59.7947C41.1792 59.8711 41.2889 59.9305 41.3902 59.9305C41.6603 59.9305 41.9136 60.1427 42.2428 60.6349C42.4031 60.8811 42.707 61.3054 42.9096 61.5855C43.1122 61.8656 43.3063 62.2306 43.3316 62.4003C43.3569 62.5616 43.4582 62.7737 43.5511 62.8586C43.6439 62.9435 43.7199 63.0623 43.7199 63.1302C43.7199 63.1896 43.8212 63.283 43.9478 63.3339C44.4711 63.5291 45.0114 64.2845 45.0451 64.8531C45.0958 65.8886 45.1549 66.1262 45.4756 66.6185C45.7204 66.992 45.847 67.1108 46.0327 67.1278C46.4041 67.1702 46.7417 67.5691 46.8599 68.0953C46.919 68.3839 47.0287 68.6045 47.1553 68.6979C47.2566 68.7828 47.3495 68.9016 47.3495 68.961C47.3495 69.0204 47.5183 69.2666 47.7293 69.5127C47.9403 69.7588 48.1092 70.0304 48.1092 70.1238C48.1092 70.2171 48.202 70.3275 48.3117 70.3784C48.5143 70.4718 48.7 70.7773 48.7 71.0065C48.7 71.0744 48.624 71.1677 48.5312 71.2187C48.3117 71.3375 48.3117 71.6345 48.5396 72.0674C48.6325 72.2541 48.7338 72.5681 48.7591 72.7633C48.7929 72.967 48.8604 73.2132 48.9279 73.315C49.0039 73.4338 49.0292 73.5951 48.9954 73.7818C48.9448 74.0364 48.9701 74.0959 49.1558 74.2147C49.485 74.4354 49.7889 74.3929 50.7343 73.977C51.2154 73.7733 51.6965 73.5951 51.8063 73.5951C52.0595 73.5951 52.5153 73.3999 52.6588 73.2302C52.7432 73.1283 52.8107 73.1113 52.9205 73.1707C53.1146 73.2726 53.4353 73.1623 53.6632 72.9076C53.8658 72.6954 54.9885 72.1607 55.2417 72.1523C55.3345 72.1523 55.6131 72.0589 55.8663 71.9401L56.3221 71.7279L56.2799 71.3544C56.2377 70.998 56.2462 70.9725 56.5669 70.7603C56.7526 70.6415 57.0649 70.5142 57.2506 70.4887C57.4448 70.4548 57.7486 70.3614 57.9259 70.2681C58.1622 70.1492 58.2804 70.1323 58.3986 70.2002C58.6096 70.3105 58.8881 70.3105 58.9557 70.2002C58.9894 70.1492 58.9472 70.0134 58.8713 69.8946C58.6771 69.5891 58.7615 69.4618 59.1836 69.3939C59.6225 69.3175 59.7576 69.2241 59.7576 68.978C59.7576 68.8677 59.9179 68.6385 60.1374 68.4178C60.5088 68.0529 60.7705 67.5012 60.7705 67.0853C60.7705 66.941 60.8211 66.8901 60.9646 66.8901C61.1841 66.8901 61.3613 66.7458 61.3613 66.5591C61.3613 66.4912 61.5217 66.2705 61.7158 66.0668C62.0113 65.7698 62.0619 65.651 62.0704 65.3454C62.0788 65.0738 62.045 64.9805 61.9522 64.9805C61.7412 64.9805 61.3444 64.5221 61.4035 64.3354C61.4457 64.2166 61.4035 64.1572 61.2347 64.0893C61.1165 64.0468 60.9308 64.0044 60.8295 64.0044C60.4328 64.0044 60.0361 63.8092 59.6141 63.4188C59.2258 63.0623 59.1583 62.9605 59.116 62.5955C59.0823 62.3664 58.9894 62.0948 58.8966 61.9929C58.7446 61.8316 58.7446 61.8062 58.8713 61.7298C58.9472 61.6874 58.9979 61.5855 58.9894 61.5006C58.9472 61.3139 58.7446 61.229 58.7446 61.3988C58.7446 61.4667 58.6349 61.6534 58.4914 61.8062C58.3564 61.9674 58.2382 62.1372 58.2382 62.1881C58.2382 62.239 58.1622 62.3494 58.0694 62.4343C57.9765 62.5191 57.9006 62.6549 57.9006 62.7313C57.9006 62.9435 57.4701 63.3084 57.0312 63.4612C56.6682 63.5885 56.626 63.58 56.3896 63.4442C56.1871 63.3254 56.1111 63.3084 56.0267 63.3933C55.9085 63.5121 55.6722 63.5291 55.4696 63.4188C55.3936 63.3763 55.2586 63.3169 55.1742 63.2915C55.0391 63.249 55.0307 63.1727 55.0813 62.5276C55.1404 61.8062 55.1404 61.8062 54.9125 61.7043C54.7943 61.6449 54.6677 61.628 54.6339 61.6619C54.6002 61.6959 54.5833 61.942 54.5917 62.2221C54.6002 62.4937 54.5749 62.7398 54.5327 62.7653C54.406 62.8501 54.1697 62.5531 54.2203 62.3664C54.2457 62.2475 54.1781 62.1202 54.0093 61.959C53.8152 61.7722 53.7477 61.628 53.7139 61.3139C53.6886 61.0169 53.6295 60.8641 53.486 60.7622C53.1061 60.4737 52.7516 60.0408 52.5153 59.5825C52.0932 58.7677 51.9413 58.547 51.7556 58.4792C51.4771 58.3688 51.5277 58.25 51.992 57.9614C52.2283 57.8171 52.414 57.6644 52.414 57.6304C52.414 57.4946 52.7432 57.554 52.8276 57.6983C52.8867 57.8171 52.9289 57.8256 53.0302 57.7408C53.1484 57.6389 53.4269 57.6813 53.4269 57.8002C53.4269 57.8256 53.5788 58.0548 53.7645 58.2924C53.9418 58.5386 54.2119 59.0139 54.3554 59.3533C54.4989 59.6928 54.6593 59.9984 54.7184 60.0323C54.7774 60.0663 54.9631 60.1002 55.132 60.1002C55.3008 60.1002 55.4612 60.1342 55.4865 60.1766C55.5709 60.3039 56.4487 60.7792 56.6091 60.7792C56.6935 60.7792 56.8877 60.8556 57.0396 60.949C57.4194 61.1781 57.5123 61.1696 57.909 60.8047C58.2129 60.5331 58.3057 60.4907 58.6771 60.4907C59.0485 60.4907 59.1329 60.5246 59.344 60.7622C59.5212 60.9575 59.5887 61.1272 59.5887 61.3394C59.5887 61.7553 59.9601 62.0863 60.4497 62.1032C61.049 62.1287 62.1379 62.3069 62.543 62.4512C62.9904 62.6125 63.2521 62.6125 64.2734 62.4767C64.6955 62.4173 65.1344 62.3748 65.2694 62.3833C65.3961 62.3833 65.7168 62.4003 65.9869 62.4088C66.3414 62.4258 66.544 62.3918 66.7044 62.2815C67.1264 62.0014 67.5738 62.1287 67.4725 62.5106C67.4303 62.7058 67.4556 62.7483 67.7257 62.8586C67.9283 62.9435 68.0802 63.0963 68.1984 63.3254C68.2913 63.5121 68.4854 63.7243 68.6289 63.8007C68.7724 63.8686 69.0594 64.0893 69.2704 64.276C69.6587 64.641 70.1905 64.8022 70.545 64.6749C70.8235 64.5731 70.8404 64.7343 70.5872 64.938C70.4184 65.0653 70.2833 65.1078 70.0976 65.0738C69.9626 65.0484 69.7853 65.0653 69.7178 65.1078C69.6165 65.1757 69.7431 65.3369 70.3846 65.9565C70.8151 66.3724 71.2203 66.7204 71.2709 66.7204C71.33 66.7204 71.5663 66.6609 71.8027 66.5931C72.2838 66.4488 72.4189 66.2281 72.3598 65.6934C72.3344 65.4982 72.3598 65.3624 72.4442 65.2945C72.5539 65.2011 72.5961 65.2436 72.7143 65.5661C72.7903 65.7698 72.8325 65.982 72.7987 66.0329C72.7734 66.0838 72.824 66.2281 72.9169 66.3469C73.1279 66.6185 73.1448 66.9071 72.9675 67.1787C72.8071 67.4163 72.8578 67.6455 73.2967 68.8846C73.5077 69.4872 73.6006 69.8777 73.6006 70.2171C73.6006 70.633 73.6343 70.7434 73.8454 70.981C73.972 71.1338 74.2083 71.5072 74.3603 71.8128C74.5122 72.1183 74.7317 72.4748 74.8498 72.6021C75.0693 72.8312 75.1031 72.9416 75.3647 74.4269C75.4154 74.6815 75.5167 74.8682 75.7192 75.0634C76.0738 75.3859 76.7237 76.8967 76.7912 77.5163C76.8166 77.7879 76.8925 77.9746 77.0276 78.1019C77.1373 78.2037 77.2302 78.365 77.2302 78.4414C77.2302 78.6366 77.4749 78.7724 77.8463 78.7724C78.108 78.7724 78.1502 78.7384 78.2853 78.3905C78.3612 78.1698 78.5554 77.8982 78.7157 77.7709C78.8846 77.6351 79.0027 77.4653 79.0027 77.355C79.0027 77.2532 79.0449 77.1428 79.0871 77.1174C79.1378 77.0834 79.1547 76.99 79.1293 76.8967C79.0871 76.7694 79.1209 76.7354 79.2813 76.7354C79.6105 76.7354 79.7202 76.5317 79.602 76.1498C79.467 75.6745 79.4839 75.2247 79.6864 74.6306C79.8299 74.2062 79.8468 74.0534 79.7709 73.8667C79.7286 73.7394 79.6864 73.4593 79.6864 73.2471C79.6864 73.0349 79.6442 72.6954 79.5936 72.4918C79.4417 71.9231 79.6949 71.4733 80.1676 71.4733C80.2857 71.4733 80.3448 71.3969 80.387 71.2102C80.4292 70.981 80.463 70.9555 80.6403 70.998C80.9019 71.0659 81.2396 70.7943 81.3662 70.4124C81.4168 70.2511 81.5603 70.0389 81.6869 69.9371C81.8135 69.8437 81.9317 69.6824 81.957 69.5806C81.9824 69.4703 82.0837 69.3854 82.1849 69.3684C82.2947 69.3514 82.4719 69.1732 82.6323 68.9186C82.9109 68.4857 83.8816 67.5691 84.0588 67.5691C84.1179 67.5691 84.253 67.4757 84.3627 67.3569C84.5315 67.1872 84.5737 67.0683 84.5737 66.6949C84.5737 66.3554 84.6159 66.2026 84.7256 66.1008C84.8101 66.0159 84.9113 65.9565 84.9535 65.9565C84.9958 65.9565 85.097 65.8886 85.1814 65.8122C85.3165 65.6934 85.3587 65.6849 85.4094 65.7783C85.46 65.8631 85.5275 65.8716 85.6288 65.8037C85.7132 65.7613 85.9242 65.7443 86.1015 65.7613C86.4982 65.8207 86.8527 65.7358 86.8527 65.5831C86.8527 65.5067 86.9203 65.4812 87.0553 65.5067C87.1651 65.5321 87.2832 65.5067 87.3086 65.4557C87.3423 65.4048 87.4436 65.3624 87.528 65.3624C87.6462 65.3624 87.6968 65.286 87.7137 65.0484C87.7306 64.7937 87.7728 64.7258 87.9079 64.7258C88.178 64.7258 88.4734 65.4388 88.4903 66.1178C88.4987 66.627 88.5325 66.7204 88.8279 67.1023C89.0052 67.3314 89.1655 67.5436 89.174 67.5521C89.1909 67.5691 89.3175 67.5182 89.461 67.4333C89.7817 67.2466 90.0772 67.3569 90.2713 67.7304C90.3895 67.968 90.3895 67.9935 90.2291 68.0783C89.8999 68.2566 90.1025 68.664 90.4486 68.5282C90.668 68.4433 90.9634 68.8252 91.1576 69.4448C91.3264 69.954 91.3348 70.0898 91.2504 70.3614C91.1238 70.7943 91.1323 71.1762 91.2758 71.295C91.3433 71.3544 91.6134 71.3799 91.9595 71.3629C92.4659 71.3375 92.5588 71.3035 92.7191 71.1083C92.812 70.981 92.9555 70.8792 93.0399 70.8792C93.1496 70.8792 93.1834 70.8028 93.1834 70.5397C93.1834 70.1153 93.386 69.988 93.6223 70.2766C93.7067 70.3869 93.7743 70.5312 93.7743 70.6076C93.7743 70.6839 93.8755 70.8452 93.9937 70.9725C94.1625 71.1508 94.2301 71.329 94.2807 71.7449C94.3145 72.0419 94.4073 72.4323 94.4917 72.6191C94.5846 72.8312 94.6183 73.0519 94.5846 73.2471C94.5424 73.5017 94.5761 73.5781 94.7534 73.7224C94.9475 73.8837 94.9644 73.9516 94.9729 74.6645C94.9897 75.352 95.0066 75.4453 95.1586 75.5132C95.4033 75.6151 95.4287 75.8782 95.2176 76.0225C94.9897 76.1837 94.9813 76.6421 95.2008 76.9137C95.3611 77.1089 95.3611 77.1174 95.167 77.4568C95.0319 77.6945 94.9644 77.9576 94.9475 78.3056C94.9307 78.8063 94.9307 78.8148 95.1501 78.7894C95.3274 78.7724 95.4793 78.8742 95.8929 79.2986C96.1715 79.5957 96.4669 79.9436 96.5344 80.0879C96.6019 80.2237 96.7623 80.4444 96.8805 80.5802C97.0578 80.7669 97.1168 80.9367 97.1759 81.4714C97.2181 81.8278 97.2435 82.2182 97.2435 82.3286C97.235 82.4389 97.3447 82.6511 97.4798 82.8039C97.6149 82.9566 97.809 83.3386 97.9103 83.6526C98.0538 84.077 98.1466 84.2382 98.3154 84.3146C98.4421 84.374 98.7037 84.5777 98.8979 84.7729C99.1004 84.9681 99.4381 85.1803 99.6575 85.2567C100.012 85.3755 100.071 85.3755 100.248 85.2652C100.392 85.1718 100.443 85.053 100.443 84.8323C100.443 84.5438 100.358 84.4165 99.9023 84.0515C99.7926 83.9666 99.7673 83.7629 99.7673 83.033C99.7673 82.2522 99.7335 82.0655 99.5647 81.6835C99.4465 81.4459 99.2608 81.1828 99.1511 81.1064C99.0329 81.03 98.9232 80.8942 98.8979 80.8093C98.8725 80.7075 98.7797 80.6396 98.6868 80.6396C98.5771 80.6396 98.4843 80.5547 98.4336 80.3935C98.3661 80.2152 98.2648 80.1219 98.02 80.0455C97.4798 79.8842 97.3363 79.7824 97.1844 79.4599C97.1084 79.2901 96.9311 78.9676 96.7876 78.7469C96.6526 78.5263 96.5091 78.2207 96.4838 78.0679C96.4416 77.8812 96.3656 77.7879 96.2305 77.7539C96.0871 77.72 95.9858 77.5926 95.876 77.3041C95.6903 76.8288 95.741 76.5063 96.0955 75.8273C96.2728 75.4963 96.3065 75.318 96.3065 74.69C96.3065 74.0195 96.3234 73.9346 96.4922 73.8158C96.5935 73.7394 96.7708 73.68 96.8721 73.68C97.0493 73.68 97.0662 73.7139 97.0493 74.0364L97.024 74.3929L97.4376 74.4608C97.7246 74.5033 97.9187 74.5881 98.0538 74.7324C98.1635 74.8512 98.3408 74.9531 98.4505 74.9531C98.5771 74.9531 98.6784 75.0295 98.7375 75.1653C98.7881 75.2841 98.8725 75.3774 98.9232 75.3774C98.9654 75.3774 99.0076 75.5302 99.0076 75.7169C99.0076 75.9885 99.0414 76.0564 99.1595 76.0564C99.2439 76.0564 99.379 76.1668 99.455 76.3111C99.5731 76.5063 99.666 76.5657 99.877 76.5657C100.063 76.5742 100.248 76.6675 100.459 76.8542C100.763 77.1174 100.772 77.1428 100.679 77.4314C100.561 77.8303 100.654 78.348 100.848 78.348C101.042 78.348 101.16 78.2547 101.278 78.0255C101.329 77.9237 101.43 77.8388 101.498 77.8388C101.65 77.8388 102.3 77.0155 102.3 76.8203C102.3 76.6081 102.451 76.5148 102.882 76.4469C103.388 76.3705 103.49 76.3026 103.895 75.7764C104.241 75.318 104.241 75.3011 104.258 74.6051C104.266 73.7394 104.182 73.2811 103.979 73.0095C103.886 72.8991 103.819 72.7124 103.819 72.6021C103.819 72.3644 103.633 71.974 103.447 71.8213C103.372 71.7534 103.312 71.6176 103.312 71.4987C103.312 71.3544 103.228 71.2526 103.051 71.1508C102.907 71.0744 102.629 70.8792 102.435 70.7264C102.249 70.5736 101.996 70.3869 101.886 70.302C101.43 69.9625 101.202 69.6994 101.202 69.4872C101.202 69.326 101.16 69.2666 101.033 69.2666C100.941 69.2666 100.865 69.2326 100.865 69.1902C100.865 69.1477 100.797 69.0459 100.721 68.9695C100.645 68.8846 100.552 68.5961 100.51 68.316C100.443 67.8237 100.451 67.7898 100.696 67.5097C100.873 67.3145 100.949 67.1362 100.949 66.9325C100.949 66.6864 100.983 66.6355 101.135 66.6355C101.236 66.6355 101.413 66.5421 101.531 66.4318C101.852 66.1432 102.435 65.931 102.637 66.0414C102.722 66.0838 102.882 66.1178 102.992 66.1008C103.169 66.0838 103.186 66.1093 103.16 66.3978C103.135 66.7034 103.253 67.0429 103.431 67.1617C103.583 67.2635 103.962 67.2381 104.064 67.1108C104.123 67.0429 104.14 66.8477 104.106 66.61C104.03 66.0668 104.14 65.9565 104.739 65.9565C105.026 65.9565 105.355 65.8886 105.583 65.7868C105.786 65.6934 105.997 65.617 106.064 65.617C106.123 65.617 106.241 65.5236 106.317 65.4048C106.436 65.2266 106.495 65.2011 106.807 65.2436C107.178 65.2945 107.516 65.1757 107.946 64.8447C108.056 64.7513 108.276 64.6834 108.436 64.6834C108.656 64.6834 108.74 64.641 108.791 64.4882C108.833 64.3863 109.061 64.1402 109.297 63.9365C109.533 63.7328 109.728 63.5121 109.728 63.4442C109.728 63.3763 109.863 63.2405 110.023 63.1472C110.226 63.0199 110.318 62.9095 110.318 62.7653C110.318 62.6464 110.403 62.5106 110.521 62.4343C110.715 62.3069 110.724 62.2475 110.732 61.5006C110.732 60.9829 110.774 60.618 110.85 60.4652C110.918 60.3379 110.994 60.1172 111.027 59.9899C111.061 59.8456 111.162 59.7268 111.289 59.6759C111.399 59.6334 111.517 59.5061 111.534 59.4043C111.61 59.0139 111.669 58.0802 111.618 57.9529C111.584 57.8681 111.39 57.8086 110.985 57.7662C110.344 57.6983 110.268 57.588 110.749 57.4267C110.968 57.3503 111.044 57.2739 111.061 57.0957C111.078 56.9684 111.053 56.8156 111.011 56.7647C110.968 56.7053 110.909 56.4931 110.875 56.2894C110.799 55.7971 110.69 55.6019 110.479 55.6019C110.074 55.6019 109.643 55.2455 109.339 54.6598C108.951 53.913 108.554 53.4631 108.132 53.2679C107.592 53.0303 107.592 52.9709 108.233 51.8336C108.385 51.5535 108.487 51.4856 108.799 51.4092C109.086 51.3413 109.204 51.2564 109.289 51.0782C109.466 50.7047 109.365 50.5605 108.976 50.6284C108.757 50.6623 108.563 50.6368 108.411 50.552C107.955 50.3143 107.254 50.4331 107.17 50.7557C107.145 50.8575 107.069 50.9339 106.993 50.9339C106.824 50.9339 106.208 50.3822 106.14 50.1616C106.106 50.0512 106.005 50.0003 105.836 50.0003C105.532 50.0003 104.832 49.4656 104.832 49.2364C104.832 49.1176 104.916 49.0921 105.355 49.0837C105.71 49.0752 105.912 49.0327 106.005 48.9394C106.132 48.8121 106.132 48.7951 105.997 48.6932C105.786 48.5405 105.802 48.4471 106.089 48.2349C106.225 48.1331 106.376 47.9294 106.427 47.7766C106.503 47.539 106.587 47.4711 106.9 47.3777C107.33 47.2504 107.448 47.3013 107.659 47.7087C107.761 47.9124 107.761 47.9633 107.609 48.218C107.465 48.4471 107.448 48.532 107.533 48.7357C107.592 48.863 107.609 49.0837 107.575 49.2279C107.482 49.6778 107.778 49.559 108.208 48.9733C108.293 48.8545 108.546 48.6848 108.774 48.5999C109.128 48.4641 109.238 48.4556 109.812 48.549C110.158 48.6084 110.504 48.6932 110.58 48.7357C110.783 48.8375 110.842 49.177 110.74 49.6014C110.673 49.856 110.673 50.0342 110.732 50.1955C110.816 50.4247 110.842 50.4331 111.39 50.4162C112.108 50.3907 112.462 50.535 112.496 50.883C112.513 51.0188 112.488 51.1631 112.437 51.214C112.268 51.3837 112.336 51.6808 112.589 51.859C112.842 52.0457 113.019 52.538 113.019 53.0812C113.019 53.7941 113.264 54.244 113.653 54.244C113.914 54.244 113.973 54.1421 113.864 53.862C113.669 53.3528 113.939 53.1491 114.919 53.0642C115.442 53.0218 115.518 52.9878 115.611 52.8011C115.746 52.5041 115.628 51.9948 115.349 51.7062C115.231 51.5789 115.13 51.4177 115.13 51.3498C115.13 51.2819 114.699 50.7981 114.176 50.2719C113.45 49.5505 113.163 49.3213 112.994 49.3213C112.749 49.3213 112.631 49.1855 112.665 48.9564C112.682 48.863 112.64 48.8121 112.521 48.8121C112.429 48.8121 112.302 48.7272 112.251 48.6253C112.167 48.4641 112.175 48.4216 112.344 48.3113C112.454 48.2349 112.665 48.0567 112.817 47.9039C113.154 47.5899 113.197 47.2164 112.935 46.8175C112.732 46.512 112.724 46.2998 112.901 46.2319C112.977 46.198 113.019 46.1216 112.986 46.0537C112.96 45.9858 112.986 45.9264 113.045 45.9264C113.104 45.9264 113.188 45.8075 113.23 45.6548C113.281 45.5105 113.391 45.3407 113.484 45.2813C113.627 45.188 113.703 45.2049 114.024 45.4171C114.623 45.8245 115.037 45.7566 115.687 45.1455C115.923 44.9249 115.948 44.857 115.915 44.5344C115.881 44.2883 115.915 44.1016 115.999 43.9658C116.067 43.8555 116.151 43.6263 116.185 43.465C116.21 43.3038 116.303 43.0067 116.37 42.803C116.48 42.4975 116.489 42.3532 116.404 41.8524C116.269 41.0292 116.286 40.834 116.497 40.6048C116.649 40.4351 116.666 40.3756 116.581 40.2568C116.531 40.1804 116.362 39.8664 116.227 39.5609C116.083 39.2553 115.839 38.8734 115.687 38.7121C115.341 38.3557 115.172 38.0247 115.037 37.473C114.969 37.1759 114.843 36.9637 114.589 36.7176C114.404 36.5309 114.117 36.1999 113.973 35.9707C113.804 35.7331 113.636 35.5718 113.543 35.5718C113.45 35.5718 113.256 35.4869 113.095 35.3766C112.758 35.1474 111.796 34.8249 111.509 34.8419C111.314 34.8504 111.222 34.9522 111.129 35.2493C111.061 35.4869 110.799 35.4275 110.639 35.1474C110.521 34.9437 110.437 34.8928 110.209 34.8928C110.006 34.8928 109.863 34.8249 109.685 34.6382C109.457 34.4006 109.398 34.3836 108.858 34.3836C108.293 34.3836 108.276 34.3751 108.326 34.1884C108.352 34.0865 108.377 33.9338 108.377 33.8574C108.377 33.764 108.495 33.6537 108.672 33.5858C108.892 33.4924 108.968 33.4075 108.968 33.2633C108.968 33.1529 109.002 33.0171 109.044 32.9492C109.094 32.8728 109.086 32.771 109.035 32.6861C108.909 32.4909 109.01 32.2617 109.221 32.2617C109.331 32.2617 109.39 32.2023 109.39 32.092C109.39 31.9986 109.432 31.8459 109.491 31.7525C109.567 31.6252 109.567 31.5488 109.483 31.3876C109.39 31.2178 109.398 31.1329 109.533 30.8528L109.685 30.5218H110.867C111.517 30.5134 112.099 30.4879 112.158 30.4455C112.218 30.4115 112.344 30.4115 112.454 30.4539C112.555 30.4879 112.834 30.5218 113.062 30.5303C113.298 30.5388 113.56 30.5558 113.653 30.5728C113.788 30.5982 113.813 30.5643 113.796 30.4285C113.788 30.3266 113.83 30.1993 113.897 30.1484C114.007 30.055 114.083 30.072 114.319 30.2248C114.564 30.3691 114.691 30.3945 115.011 30.3436C115.45 30.2757 115.661 30.42 115.577 30.734C115.535 30.8868 115.577 30.9038 115.923 30.9038C116.143 30.9038 116.387 30.8698 116.472 30.8274C116.556 30.7765 116.666 30.7765 116.733 30.8189C116.818 30.8698 116.911 30.8528 117.004 30.7595C117.096 30.6831 117.333 30.6237 117.637 30.6152C118.016 30.6067 118.135 30.5728 118.151 30.4624C118.177 30.3181 117.983 30.2502 117.324 30.2078C117.071 30.1824 117.029 30.1484 117.004 29.9447C116.987 29.8089 117.02 29.6476 117.088 29.5713C117.155 29.4864 117.189 29.2572 117.164 28.9008L117.139 28.3576H117.552C117.772 28.3661 118.177 28.3406 118.438 28.3066C118.911 28.2557 118.92 28.2642 119.274 28.6037C119.477 28.7989 119.721 28.9517 119.823 28.9517C119.924 28.9517 120.025 29.0111 120.059 29.079C120.135 29.2912 120.439 29.2318 120.549 28.9687C120.608 28.8414 120.718 28.6461 120.802 28.5358C121.013 28.2557 120.996 28.2133 120.616 28.0181C120.431 27.9247 120.279 27.8144 120.279 27.7719C120.279 27.6871 120.937 27.5682 121.047 27.6446C121.089 27.6701 121.275 27.8908 121.46 28.1284C121.646 28.3745 121.882 28.6716 121.984 28.7989L122.169 29.0366L121.975 29.2403C121.739 29.4864 121.638 29.9617 121.629 30.7595C121.629 31.4724 121.536 31.6676 121.207 31.6676C120.929 31.6676 120.912 31.6931 121.038 31.9223C121.089 32.0156 121.14 32.2533 121.148 32.4485C121.182 32.9747 121.781 33.7131 122.997 34.6891C123.545 35.1305 124.077 35.6227 124.178 35.784C124.288 35.9453 124.609 36.2084 124.913 36.3781C125.225 36.5648 125.731 36.9807 126.12 37.3881C126.879 38.1774 126.972 38.1689 126.93 37.3032C126.905 36.8958 126.846 36.7176 126.668 36.48C126.542 36.3102 126.44 36.1574 126.44 36.132C126.44 36.115 126.542 36.0811 126.677 36.0641C127.014 36.0301 127.04 35.6397 126.727 35.3087C126.432 34.9947 126.5 34.8249 126.964 34.791C127.436 34.757 127.496 34.5364 127.099 34.3327C126.947 34.2563 126.643 34.0356 126.424 33.8404C126.001 33.4839 126.01 33.3651 126.466 33.3651C126.601 33.3651 126.719 33.3057 126.753 33.2293C126.82 33.0511 126.381 32.6946 126.086 32.6861C125.934 32.6861 125.799 32.6012 125.664 32.423C125.225 31.8289 124.921 31.5658 124.744 31.6082C124.356 31.7101 123.739 31.2857 123.739 30.9123C123.739 30.7934 123.63 30.5897 123.486 30.437C123.191 30.1314 123.208 29.8259 123.52 29.9277C123.95 30.072 124.119 30.0211 124.204 29.7325C124.305 29.3845 124.567 29.3845 124.735 29.7325C124.887 30.055 125.048 30.0296 125.233 29.6476C125.352 29.41 125.444 29.3251 125.63 29.3082C126.103 29.2487 126.609 29.3845 126.888 29.6222C127.175 29.8683 127.664 30.0211 127.749 29.8853C127.774 29.8429 127.74 29.6901 127.664 29.5458C127.546 29.3166 127.546 29.2827 127.664 29.2403C127.732 29.2148 127.791 29.096 127.791 28.9771C127.791 28.6292 127.943 28.4424 128.221 28.4424C128.407 28.4424 128.492 28.3915 128.551 28.2387C128.593 28.1199 128.703 27.9841 128.804 27.9332C128.897 27.8823 128.973 27.7635 128.973 27.6786C128.973 27.5003 129.175 27.4494 129.268 27.5937C129.293 27.6361 129.496 27.6786 129.715 27.6786C129.935 27.6786 130.239 27.7125 130.382 27.755C130.534 27.7974 130.762 27.8059 130.889 27.7719C131.117 27.7125 131.074 27.6701 129.986 26.8553C128.635 25.8453 126.035 24.0715 124.035 22.7984L122.6 21.8817L121.629 21.8732C120.844 21.8648 120.599 21.8308 120.363 21.7035C120.042 21.5253 119.375 21.5083 118.54 21.6356C118.244 21.6865 117.991 21.6695 117.746 21.6016C117.274 21.4574 116.37 21.4234 116.337 21.5422C116.278 21.7035 116.674 21.9072 117.029 21.9072C117.426 21.9072 117.746 22.1024 117.746 22.34C117.746 22.5522 117.459 22.5522 117.029 22.3316C116.843 22.2382 116.548 22.1618 116.37 22.1618C116.193 22.1618 115.898 22.0769 115.712 21.9666C115.425 21.8053 115.383 21.7544 115.434 21.5507C115.476 21.347 115.459 21.3216 115.324 21.3725C115.239 21.3979 115.062 21.5168 114.936 21.6271C114.649 21.8563 114.632 21.8563 113.154 21.6865C112.294 21.5847 111.931 21.5762 111.736 21.6441C111.593 21.695 111.23 21.7374 110.943 21.7374C110.453 21.7374 110.377 21.712 110.09 21.4489C109.635 21.05 109.525 21.0075 108.453 20.7784C107.17 20.4983 105.575 20.4219 105.068 20.6001C104.629 20.7614 104.097 20.719 103.566 20.4728C103.355 20.3795 103.051 20.2946 102.89 20.2946C102.73 20.2946 102.376 20.2352 102.114 20.1758C101.852 20.1079 101.616 20.0739 101.59 20.0994C101.574 20.1248 101.506 20.1164 101.455 20.0824C101.388 20.04 101.388 19.9891 101.464 19.9042C101.515 19.8363 101.548 19.7684 101.531 19.7514C101.515 19.7259 101.211 19.675 100.856 19.6241C100.51 19.5732 100.156 19.5138 100.08 19.4798C99.9699 19.4374 99.9023 19.5053 99.8095 19.7344C99.6575 20.0909 99.3874 20.1673 99.4465 19.8278C99.514 19.4883 99.3283 19.4119 98.3492 19.3865C97.8512 19.3695 97.0324 19.3016 96.5175 19.2252C95.6397 19.1064 95.5806 19.1064 95.4793 19.2506C95.4202 19.3355 95.3021 19.3949 95.2092 19.378C95.1248 19.361 95.0319 19.3949 94.9982 19.4459C94.9138 19.5901 95.1164 19.7854 95.3611 19.7854C95.4793 19.7854 95.6566 19.8787 95.7663 20.006L95.9689 20.2182L94.7281 20.1927C94.0359 20.1843 93.2678 20.2012 93.0146 20.2437C92.5925 20.3031 92.4912 20.2946 92.103 20.0909C91.8666 19.9721 91.6472 19.8702 91.6218 19.8702C91.529 19.8702 91.5881 20.0739 91.7231 20.2267C91.8413 20.3625 91.8497 20.3964 91.74 20.5068C91.5627 20.685 90.4823 20.5407 90.1784 20.3031C90.0518 20.2097 89.8915 20.1248 89.8239 20.1248C89.748 20.1248 89.4441 19.9975 89.1402 19.8448C88.6844 19.6241 88.4903 19.5732 88.0598 19.5817C87.4014 19.5901 87.2663 19.4204 87.7812 19.2167C88.2793 19.0215 88.2033 18.8263 87.6124 18.7584C87.3592 18.7329 87.0806 18.682 87.0047 18.648C86.9287 18.6141 86.7683 18.6396 86.6417 18.699C86.456 18.8008 86.3294 18.7923 85.6457 18.6226C84.9198 18.4359 84.4893 18.4274 84.4893 18.5802C84.4893 18.6735 85.0464 18.9366 85.2321 18.9366C85.4178 18.9366 85.7385 19.1573 85.6626 19.2252C85.6373 19.2591 85.4094 19.2252 85.1561 19.1658C84.9029 19.0979 84.1939 19.047 83.5777 19.0385C82.5141 19.0215 82.4297 19.0045 81.9486 18.7669C81.4759 18.5377 81.3831 18.5207 80.328 18.5038C79.602 18.4953 79.1378 18.5207 79.0196 18.5886C78.8592 18.6735 78.7917 18.6565 78.5469 18.4698C78.2262 18.2237 78.1333 18.2067 77.9898 18.3849C77.8463 18.5632 77.5425 18.5462 77.2892 18.3425C77.0107 18.1218 76.3017 18.1897 76.3017 18.4359C76.3017 18.5123 76.3692 18.6056 76.4536 18.6226C76.5464 18.648 76.5211 18.665 76.3776 18.6735C76.251 18.6735 75.9893 18.7414 75.7952 18.8093C75.2719 18.996 75.1031 18.9791 75.1368 18.7499C75.1537 18.6396 75.2297 18.5462 75.331 18.5292C75.4238 18.5123 75.6179 18.3849 75.753 18.2491C75.8965 18.1218 76.1413 17.9606 76.3017 17.9012C76.9769 17.672 77.3146 17.3495 77.0529 17.1967C77.0107 17.1628 76.9347 17.0439 76.8925 16.9421C76.8334 16.7893 76.7321 16.7299 76.4958 16.6875C76.3185 16.662 75.8712 16.5432 75.4998 16.4329C74.7654 16.1952 74.183 16.1697 73.2207 16.314C72.2078 16.4668 72.2078 16.4668 72.2332 16.1867C72.2669 15.9406 72.2669 15.9406 71.8871 15.9915C71.3469 16.0679 70.8995 15.9745 70.8235 15.7708C70.7644 15.6181 70.6632 15.6011 69.8613 15.5671C69.0341 15.5332 68.9665 15.5417 68.8821 15.7029ZM58.4239 41.8524C58.483 41.9458 58.5758 42.0222 58.6349 42.0222C58.694 42.0222 58.7784 41.9458 58.8291 41.8524C58.8797 41.7591 58.9726 41.6827 59.0401 41.6827C59.192 41.6827 59.192 41.7506 59.0401 42.0222C58.8206 42.4041 58.8797 42.7521 59.2005 42.9982C59.5972 43.2953 59.6309 43.4396 59.3693 43.6772C59.192 43.8385 59.1583 43.9403 59.1751 44.2629C59.192 44.475 59.1836 44.6618 59.1583 44.6787C59.1414 44.7042 58.9641 44.7381 58.7784 44.7721C58.4999 44.8145 58.4155 44.7976 58.3733 44.6872C58.331 44.5769 58.2382 44.5599 57.8584 44.6108C57.4026 44.6618 57.3941 44.6618 57.3941 44.4496C57.3941 44.3223 57.3266 44.195 57.2253 44.144C57.0649 44.0592 57.048 43.9828 57.0734 43.3547L57.0987 42.6587L57.3435 42.6333C57.4954 42.6163 57.5967 42.5399 57.622 42.4381C57.6473 42.3532 57.7402 42.2768 57.833 42.2768C57.9597 42.2768 57.985 42.2344 57.9428 42.1071C57.8837 41.9119 58.0272 41.6827 58.2044 41.6827C58.272 41.6827 58.3648 41.7591 58.4239 41.8524Z" fill="white"/>
<path d="M62.6374 16.4415C62.5838 16.4798 62.5609 16.5487 62.5838 16.5946C62.6451 16.6941 62.936 16.5716 62.936 16.4492C62.936 16.3573 62.7829 16.3497 62.6374 16.4415Z" fill="white"/>
<path d="M84.7104 17.2527C84.6798 17.314 84.7564 17.49 84.8635 17.6354C85.0396 17.8574 85.1162 17.9033 85.3612 17.9033C85.5296 17.9033 85.7364 17.9645 85.8359 18.0411C86.1268 18.263 86.257 18.286 86.6857 18.1788C87.3365 18.0104 87.949 17.9645 88.2246 18.0487C88.4926 18.1406 89.0515 18.0028 89.1051 17.8344C89.151 17.689 88.9596 17.513 88.7835 17.5359C88.4773 17.5742 87.0149 17.3599 86.724 17.2374C86.4024 17.0997 86.2876 17.1532 86.4254 17.3675C86.5403 17.5589 86.5479 17.5589 85.9354 17.3293C85.3535 17.1073 84.7793 17.0767 84.7104 17.2527Z" fill="white"/>
<path d="M83.9907 17.4824C83.9907 17.6125 84.1592 17.8268 84.2663 17.8268C84.4578 17.8268 84.3659 17.49 84.1668 17.4594C84.0673 17.4441 83.9907 17.4518 83.9907 17.4824Z" fill="white"/>
<path d="M89.5796 17.7503C89.5796 17.8957 89.8169 17.9799 90.238 17.9799C90.5443 17.9799 90.8276 18.0335 91.0419 18.133C91.4247 18.3013 92.1751 18.3396 92.3205 18.1942C92.5196 17.9952 92.4201 17.9034 91.999 17.9034C91.7769 17.9034 91.4707 17.8498 91.3176 17.7885C91.0572 17.6814 89.5796 17.6431 89.5796 17.7503Z" fill="white"/>
<path d="M87.8953 18.5539C87.8953 18.6381 87.9795 18.6687 88.1862 18.6687C88.4542 18.661 88.4618 18.6534 88.324 18.5539C88.125 18.4085 87.8953 18.4085 87.8953 18.5539Z" fill="white"/>
<path d="M88.6226 18.8983C88.546 18.9825 88.5001 19.0667 88.5154 19.082C88.5307 19.0973 88.8905 19.1509 89.304 19.1968C89.7251 19.2427 90.1462 19.304 90.2534 19.3346C90.3988 19.3652 90.4294 19.3499 90.4065 19.2427C90.3759 19.082 89.7787 18.8677 89.1662 18.7912C88.8216 18.7453 88.7451 18.7606 88.6226 18.8983Z" fill="white"/>
<path d="M108.016 21.5847C107.832 21.6919 107.848 21.7761 108.047 21.8373C108.276 21.8909 108.406 21.7608 108.261 21.6154C108.177 21.5388 108.108 21.5312 108.016 21.5847Z" fill="white"/>
<path d="M120.664 33.111C120.664 33.2105 121.07 33.5931 121.177 33.5931C121.384 33.5931 121.269 33.3865 120.955 33.1875C120.725 33.0497 120.664 33.0268 120.664 33.111Z" fill="white"/>
<path d="M121.889 33.3176C121.889 33.4248 122.165 33.6697 122.295 33.6697C122.326 33.6697 122.28 33.5625 122.18 33.4401C121.996 33.1875 121.889 33.1492 121.889 33.3176Z" fill="white"/>
<path d="M106.301 33.6314C106.27 33.7079 106.324 33.8304 106.446 33.9605C106.592 34.1059 106.638 34.2207 106.6 34.3432C106.569 34.4809 106.676 34.634 107.158 35.1468C107.48 35.4912 107.886 35.8662 108.054 35.981C108.353 36.1877 108.866 36.8995 108.873 37.1061C108.873 37.1597 109.011 37.3357 109.18 37.4888C109.371 37.6648 109.562 37.9403 109.677 38.2235C109.823 38.5985 109.899 38.6904 110.083 38.7363C110.275 38.7899 110.313 38.8435 110.359 39.096C110.382 39.2644 110.52 39.5552 110.673 39.7466C110.818 39.9456 110.941 40.1446 110.941 40.2058C110.941 40.3436 111.193 40.5579 111.346 40.5579C111.431 40.5579 111.477 40.4966 111.477 40.3665C111.477 40.1446 111.591 40.1216 111.99 40.267C112.173 40.3359 112.265 40.3359 112.326 40.2747C112.388 40.2135 112.334 40.1446 112.12 40.0374C111.66 39.8002 110.787 38.9659 110.787 38.7593C110.787 38.6674 110.719 38.499 110.634 38.3919C110.451 38.1623 110.443 38.0628 110.596 38.0016C110.765 37.9403 111.048 38.0704 111.262 38.3001C111.385 38.4302 111.492 38.4837 111.576 38.4455C111.767 38.3766 111.737 38.2924 111.461 38.1011C111.323 38.0092 111.032 37.7643 110.81 37.5577C110.596 37.3587 110.374 37.1903 110.32 37.1903C110.121 37.1903 109.731 36.8 109.494 36.356C109.295 35.9734 109.195 35.8739 109.019 35.8356C108.896 35.8126 108.759 35.7285 108.713 35.6519C108.674 35.5677 108.59 35.5065 108.537 35.5065C108.475 35.5065 108.353 35.3534 108.261 35.1621C108.092 34.81 107.449 34.2054 107.243 34.2054C107.174 34.2054 107.044 34.1059 106.944 33.9834C106.845 33.8686 106.676 33.7079 106.561 33.6314C106.362 33.5089 106.347 33.5089 106.301 33.6314Z" fill="white"/>
<path d="M126.82 34.9785C126.766 35.078 126.919 35.2004 127.095 35.2004C127.225 35.2004 127.455 35.0703 127.402 35.0244C127.302 34.9402 126.866 34.9096 126.82 34.9785Z" fill="white"/>
<path d="M127.784 35.3152C127.784 35.453 127.968 35.5448 128.083 35.476C128.206 35.3994 128.091 35.2004 127.93 35.2004C127.853 35.2004 127.784 35.254 127.784 35.3152Z" fill="white"/>
<path d="M130.816 35.7132C130.732 35.7974 130.77 35.8893 130.885 35.8893C130.946 35.8893 131 35.8587 131 35.8204C131 35.7209 130.878 35.652 130.816 35.7132Z" fill="white"/>
<path d="M117.318 36.4785C117.196 36.5244 117.188 36.7311 117.295 36.7311C117.379 36.7311 117.494 36.5168 117.441 36.4709C117.425 36.4556 117.364 36.4632 117.318 36.4785Z" fill="white"/>
<path d="M117.655 36.7694C117.494 36.9302 117.418 37.1904 117.502 37.2746C117.64 37.4123 117.984 37.2133 117.984 37.0067C117.984 36.7465 117.808 36.6164 117.655 36.7694Z" fill="white"/>
<path d="M117.724 37.6342C117.701 37.6802 117.717 37.7414 117.762 37.7644C117.877 37.8409 117.954 37.7414 117.854 37.6419C117.801 37.5883 117.755 37.5883 117.724 37.6342Z" fill="white"/>
<path d="M116.637 40.6804C116.553 40.8028 116.53 40.8947 116.583 40.9482C116.69 41.0554 116.912 40.9482 116.912 40.7799C116.912 40.7033 116.951 40.6344 116.989 40.6344C117.035 40.6344 117.066 40.5962 117.066 40.5579C117.066 40.4048 116.759 40.489 116.637 40.6804Z" fill="white"/>
<path d="M115.641 41.2927C115.504 41.4916 115.465 41.8896 115.565 41.9891C115.649 42.0733 115.879 41.8973 115.902 41.7289C115.917 41.6371 115.994 41.507 116.078 41.4304C116.292 41.2391 116.262 41.0937 115.994 41.0937C115.833 41.0937 115.726 41.1549 115.641 41.2927Z" fill="white"/>
<path d="M111.63 41.285C111.546 41.3845 111.576 41.4458 111.813 41.6601C111.99 41.8361 112.089 41.9968 112.089 42.1193C112.089 42.2264 112.127 42.3183 112.166 42.3183C112.25 42.3183 112.365 42.5632 112.411 42.8234C112.426 42.9229 112.388 42.9688 112.273 42.9765C111.997 42.9918 111.928 43.076 112.02 43.252C112.089 43.3745 112.074 43.451 111.944 43.627C111.852 43.7418 111.783 43.8873 111.783 43.9485C111.783 44.0939 111.944 44.2317 112.112 44.2317C112.189 44.2317 112.349 44.3388 112.464 44.4613C112.656 44.6756 112.686 44.6909 112.939 44.6067C113.084 44.5531 113.23 44.4842 113.268 44.4536C113.375 44.3618 113.107 44.1016 112.816 44.0021C112.579 43.9255 112.418 43.7265 112.51 43.6347C112.533 43.6117 112.64 43.6347 112.748 43.6883C112.916 43.7648 112.977 43.7572 113.084 43.6577C113.268 43.4893 113.375 43.5122 113.728 43.7954C114.401 44.3465 114.616 44.3541 114.616 43.826C114.616 43.4434 114.7 43.3362 115.037 43.2979C115.205 43.2826 115.274 43.2291 115.289 43.0989C115.305 42.9994 115.282 42.877 115.236 42.8234C115.19 42.7698 115.175 42.6168 115.198 42.4867C115.259 42.1729 115.182 41.9662 115.052 42.0734C114.998 42.1193 114.723 42.1805 114.447 42.2111C113.98 42.2571 113.896 42.2417 113.437 42.0274C113.153 41.8973 112.732 41.6524 112.495 41.4764C112.043 41.1549 111.791 41.0937 111.63 41.285Z" fill="white"/>
<path d="M113.314 44.7214C113.169 44.775 113.046 44.8592 113.046 44.9127C113.046 44.9587 112.993 45.0352 112.931 45.0735C112.839 45.127 112.839 45.1653 112.916 45.2418C112.962 45.2878 113.008 45.4791 113.008 45.6475C113.008 45.9613 113.176 46.2215 113.368 46.2215C113.46 46.2215 113.544 46.7572 113.552 47.3925C113.559 47.6986 113.521 47.8823 113.437 47.9742C113.368 48.0507 113.314 48.1502 113.314 48.1961C113.314 48.3186 113.016 48.464 112.878 48.4104C112.809 48.3798 112.778 48.3033 112.801 48.2114C112.847 48.043 112.717 47.9742 112.533 48.0737C112.434 48.1196 112.395 48.2344 112.395 48.4487C112.395 48.6171 112.342 48.8773 112.281 49.0227C112.219 49.1758 112.189 49.3824 112.212 49.4819C112.265 49.6962 112.25 49.7039 111.905 49.5431C111.668 49.4283 111.576 49.4207 111.04 49.5202C110.458 49.6197 110.428 49.635 110.022 50.0559C109.792 50.3009 109.532 50.5075 109.455 50.5228C109.264 50.5534 109.226 50.6682 109.356 50.8443C109.509 51.0509 110.336 51.0815 110.589 50.8825C110.688 50.806 110.841 50.7371 110.925 50.7371C111.002 50.7371 111.155 50.6759 111.255 50.5917C111.377 50.4998 111.614 50.4386 111.997 50.4157L112.549 50.3774V50.6988C112.549 51.0279 112.663 51.1963 112.962 51.3035C113.13 51.3647 113.467 51.1657 113.467 51.005C113.467 50.9514 113.529 50.8443 113.597 50.7677C113.72 50.6453 113.712 50.63 113.513 50.4692C113.391 50.3697 113.322 50.2549 113.345 50.209C113.437 50.0636 113.674 50.1172 113.804 50.3238C113.934 50.5075 113.957 50.5152 114.486 50.4616C115.067 50.408 115.289 50.3085 115.152 50.1707C114.922 49.9411 115.221 49.7192 115.466 49.9411C115.619 50.0789 115.626 50.0789 115.772 49.9029C115.963 49.6656 115.956 49.4896 115.726 49.2217C115.603 49.0763 115.496 48.8161 115.45 48.5405C115.404 48.2956 115.32 47.9818 115.259 47.8364C115.159 47.6068 115.167 47.5609 115.274 47.4384C115.389 47.3083 115.389 47.27 115.228 46.8567C114.907 46.0455 114.715 45.724 114.394 45.4714C114.225 45.3337 114.019 45.2265 113.95 45.2418C113.835 45.2571 113.812 45.2112 113.812 44.9587C113.812 44.6142 113.728 44.5683 113.314 44.7214Z" fill="white"/>
<path d="M38.9718 49.5509C38.9182 49.6121 38.7651 49.6657 38.6272 49.6657C38.3516 49.6657 38.0836 49.9029 38.1526 50.0866C38.1832 50.1631 38.298 50.2014 38.4971 50.2014C39.0636 50.2014 39.7297 49.5202 39.2321 49.4514C39.1479 49.4361 39.0254 49.482 38.9718 49.5509Z" fill="white"/>
<path d="M111.431 50.852C111.4 50.9208 111.285 50.9668 111.14 50.9668C110.941 50.9668 110.879 51.0127 110.772 51.2576C110.657 51.5025 110.65 51.5867 110.726 51.7933C110.879 52.1837 111.392 52.2296 111.293 51.8469C111.224 51.5714 111.408 51.4719 111.745 51.5867C112.074 51.7092 112.166 51.625 112.166 51.1734C112.166 50.9361 112.135 50.8749 111.967 50.8137C111.683 50.7065 111.477 50.7218 111.431 50.852Z" fill="white"/>
<path d="M108.965 51.3341C108.805 51.4719 108.743 51.5714 108.789 51.6173C108.828 51.6632 108.873 51.778 108.889 51.8852C108.919 52.1531 109.141 52.1684 109.272 51.9081C109.386 51.6632 109.616 51.625 109.746 51.824C109.808 51.9235 109.808 52 109.739 52.1071C109.677 52.199 109.677 52.2755 109.731 52.3291C109.777 52.375 109.777 52.4515 109.708 52.551C109.631 52.6812 109.639 52.7347 109.739 52.8878C109.815 52.9873 109.869 53.1251 109.869 53.2016C109.869 53.3317 110.144 53.569 110.29 53.569C110.382 53.5613 110.711 53.0638 110.711 52.9184C110.711 52.8572 110.673 52.7883 110.627 52.7653C110.581 52.7347 110.55 52.5357 110.558 52.3138C110.573 51.7551 110.581 51.7704 110.359 51.5102C110.213 51.3341 110.098 51.2729 109.907 51.2729C109.762 51.2729 109.624 51.2346 109.601 51.1964C109.517 51.0586 109.226 51.1198 108.965 51.3341Z" fill="white"/>
<path d="M106.347 51.3877C106.293 51.4489 106.263 51.5254 106.286 51.5408C106.354 51.6173 106.814 51.4795 106.783 51.3953C106.737 51.2576 106.462 51.2576 106.347 51.3877Z" fill="white"/>
<path d="M110.32 54.0741C110.236 54.1812 110.244 54.1889 110.405 54.1659C110.504 54.1583 110.596 54.0971 110.619 54.0435C110.657 53.9134 110.443 53.9287 110.32 54.0741Z" fill="white"/>
<path d="M109.945 55.865C109.677 56.1329 109.762 56.2247 110.16 56.1252C110.351 56.0717 110.389 55.8267 110.213 55.7579C110.144 55.7349 110.03 55.7808 109.945 55.865Z" fill="white"/>
<path d="M55.8692 56.9977C55.7467 57.1355 55.7467 57.1508 55.8616 57.2427C56.0147 57.3728 56.2367 57.258 56.2367 57.0437C56.2367 56.8447 56.03 56.8217 55.8692 56.9977Z" fill="white"/>
<path d="M109.379 57.3345C109.294 57.4569 109.279 57.5258 109.348 57.6024C109.463 57.7478 109.562 57.7248 109.562 57.5564C109.562 57.4799 109.616 57.3881 109.685 57.3651C109.746 57.3421 109.777 57.2886 109.754 57.2426C109.677 57.1125 109.501 57.1585 109.379 57.3345Z" fill="white"/>
<path d="M51.9875 57.5029C51.9875 57.5642 52.0182 57.633 52.0565 57.656C52.133 57.7096 52.2325 57.5106 52.1636 57.4417C52.0794 57.3575 51.9875 57.3958 51.9875 57.5029Z" fill="white"/>
<path d="M104.724 58.6739C104.494 58.9494 104.264 59.7684 104.295 60.197C104.333 60.6485 104.678 61.2455 104.877 61.2072C104.938 61.1919 105.03 61.0235 105.084 60.8169C105.137 60.6103 105.214 60.4113 105.267 60.3577C105.39 60.2352 105.375 60.0286 105.229 59.8832C105.122 59.7837 105.114 59.7224 105.191 59.5694C105.459 58.98 105.084 58.253 104.724 58.6739Z" fill="white"/>
<path d="M96.8455 63.2125C96.2636 63.5186 96.0186 64.039 96.2789 64.4141C96.501 64.7355 97.5422 64.7279 97.5422 64.4064C97.5422 64.3452 97.5958 64.261 97.6571 64.2074C97.726 64.1539 97.7566 64.0467 97.7336 63.9702C97.703 63.8783 97.726 63.8094 97.8025 63.7788C97.925 63.7329 97.9633 63.4115 97.8791 63.1818C97.8102 63.0058 97.1977 63.0288 96.8455 63.2125Z" fill="white"/>
<path d="M105.367 64.4601C105.214 64.6361 105.191 64.9499 105.267 65.5163C105.313 65.8301 105.375 66.1668 105.398 66.274C105.443 66.4347 105.428 66.45 105.344 66.3658C105.206 66.2433 105.007 66.251 104.892 66.3888C104.823 66.473 104.862 66.6031 105.099 67.0393C105.283 67.3761 105.443 67.5904 105.543 67.6133C106.163 67.7358 106.14 67.7205 106.102 67.9807C106.041 68.3787 106.087 68.417 106.623 68.417C107.074 68.417 107.12 68.4323 107.281 68.6466C107.48 68.9221 107.618 68.9374 107.671 68.7078C107.717 68.5471 107.725 68.5471 107.878 68.6848C108.039 68.8303 108.085 69.0292 107.955 69.0292C107.832 69.0292 107.871 69.2435 108.008 69.3277C108.131 69.3966 108.131 69.4119 107.993 69.6721C107.909 69.8176 107.863 69.9553 107.878 69.9706C107.901 69.9936 108.077 70.0319 108.284 70.0548L108.644 70.1084V69.8329C108.644 69.6798 108.682 69.4885 108.728 69.3966C108.797 69.2742 108.782 69.2129 108.651 69.0981C108.56 69.0139 108.491 68.8532 108.491 68.7231C108.491 68.4782 108.131 68.1567 107.932 68.2333C107.871 68.2562 107.802 68.218 107.779 68.1567C107.74 68.0649 107.618 68.0343 107.304 68.0343C106.936 68.0343 106.883 68.019 106.883 67.8812C106.883 67.8047 106.822 67.6975 106.737 67.6593C106.646 67.6057 106.584 67.4603 106.554 67.2383C106.508 66.9475 106.546 66.825 106.822 66.3122L107.128 65.7152L106.898 65.2484C106.768 64.9882 106.63 64.6897 106.592 64.5825C106.515 64.3988 106.477 64.3835 105.979 64.3759C105.635 64.3682 105.413 64.3988 105.367 64.4601Z" fill="white"/>
<path d="M84.8099 68.7536C84.6414 68.922 84.5802 69.9706 84.718 70.2997C84.7946 70.491 84.8711 70.5599 84.963 70.5446C85.0778 70.5216 85.1008 70.3992 85.1238 69.5802C85.1468 68.7842 85.1314 68.6465 85.0396 68.6465C84.9707 68.6465 84.8711 68.6924 84.8099 68.7536Z" fill="white"/>
<path d="M105.964 68.7384C105.964 68.7843 106.048 68.9144 106.156 69.0445C106.355 69.2818 106.401 69.519 106.27 69.6032C106.133 69.6874 106.186 69.7946 106.37 69.7946C106.469 69.7946 106.607 69.7333 106.676 69.6568C106.837 69.4808 106.845 69.0062 106.691 68.8761C106.538 68.746 105.964 68.6465 105.964 68.7384Z" fill="white"/>
<path d="M54.9965 69.3047C54.9429 69.3277 54.897 69.4119 54.897 69.4961C54.897 69.6109 54.9506 69.6415 55.1649 69.6415C55.3104 69.6415 55.4329 69.6109 55.4329 69.5726C55.4329 69.5343 55.5171 69.4884 55.6243 69.4731C55.9765 69.4348 55.8617 69.2971 55.4712 69.2818C55.2645 69.2741 55.0424 69.2818 54.9965 69.3047Z" fill="white"/>
<path d="M109.119 69.6185C109.073 69.741 108.988 70.0012 108.942 70.2155C108.805 70.8201 108.705 70.9273 108.284 70.9579C107.932 70.9809 107.917 70.9885 107.878 71.2564C107.848 71.4018 107.771 71.6085 107.702 71.708C107.511 71.9758 107.541 72.1519 107.809 72.4044C108.169 72.7412 108.292 72.7029 108.56 72.1213C108.69 71.8457 108.835 71.486 108.881 71.3176C108.935 71.1493 109.019 70.9809 109.065 70.9426C109.157 70.8661 109.21 70.9579 109.364 71.4171C109.417 71.5855 109.7 71.6008 109.769 71.4324C109.792 71.3712 109.777 71.2334 109.731 71.1416C109.67 71.0038 109.677 70.9196 109.762 70.7972C109.884 70.6288 109.854 70.1237 109.7 69.718C109.563 69.3583 109.241 69.3047 109.119 69.6185Z" fill="white"/>
<path d="M107.158 69.6262C107.128 69.6797 107.143 69.8481 107.189 70.0165C107.243 70.2231 107.243 70.3839 107.189 70.5216C107.074 70.8278 107.097 71.1492 107.235 71.2028C107.388 71.264 108.008 70.8813 108.054 70.6977C108.115 70.491 107.893 70.2461 107.664 70.2691C107.495 70.292 107.457 70.2537 107.419 70.0624C107.35 69.7333 107.22 69.5267 107.158 69.6262Z" fill="white"/>
<path d="M105.535 69.7563C105.459 69.9476 105.566 70.116 105.75 70.0854C105.964 70.0548 106.002 69.9246 105.849 69.7639C105.696 69.6109 105.589 69.6109 105.535 69.7563Z" fill="white"/>
<path d="M105.122 70.935C105.122 71.0651 105.084 71.1876 105.045 71.2105C104.999 71.2412 104.869 71.4019 104.762 71.5779C104.647 71.7539 104.356 72.106 104.111 72.3586C103.69 72.7948 103.575 73.0244 103.736 73.1239C103.859 73.1928 104.341 72.9173 104.387 72.7489C104.41 72.6571 104.525 72.5346 104.647 72.4657C104.808 72.3739 104.885 72.2591 104.923 72.0677C104.953 71.8994 105.022 71.7846 105.114 71.7616C105.191 71.7463 105.313 71.6085 105.39 71.4555C105.505 71.2105 105.505 71.1646 105.39 70.9503C105.237 70.6518 105.122 70.6442 105.122 70.935Z" fill="white"/>
<path d="M84.7181 71.0192C84.741 71.0574 84.8176 71.0957 84.8788 71.0957C84.9401 71.0957 84.986 71.0574 84.986 71.0192C84.986 70.9732 84.9171 70.9426 84.8252 70.9426C84.741 70.9426 84.6951 70.9732 84.7181 71.0192Z" fill="white"/>
<path d="M108.935 71.7156C108.766 71.8075 108.759 72.1366 108.919 72.1978C108.981 72.2208 109.118 72.1825 109.226 72.1136C109.593 71.8763 109.31 71.486 108.935 71.7156Z" fill="white"/>
<path d="M75.4155 71.8993C75.3389 71.9912 75.3389 72.0447 75.4385 72.1902C75.561 72.3815 75.5457 72.9096 75.4002 73.1775C75.3619 73.2617 75.3619 73.3765 75.4155 73.4683C75.4768 73.5755 75.4691 73.6597 75.4002 73.7668C75.3236 73.8893 75.3236 73.9734 75.4002 74.1801C75.4538 74.3179 75.4921 74.5398 75.4921 74.6623C75.4921 74.9761 75.6146 75.0756 76.005 75.0756C76.2883 75.0756 76.3802 75.0296 76.6482 74.7694C76.9468 74.4786 76.9621 74.448 76.9085 74.1418C76.8779 73.9581 76.8089 73.7591 76.763 73.6979C76.5869 73.4836 76.2577 72.8407 76.2577 72.703C76.2577 72.6264 76.2041 72.5269 76.1352 72.4657C76.0663 72.4121 75.9591 72.2437 75.8902 72.0983C75.7447 71.7922 75.5686 71.7156 75.4155 71.8993Z" fill="white"/>
<path d="M109.922 71.9911C109.892 72.014 109.869 72.1442 109.869 72.2819C109.869 72.5728 109.769 72.7029 109.386 72.9172C109.042 73.1162 108.95 73.1238 108.95 72.9784C108.95 72.8024 108.812 72.7641 108.529 72.8559C108.36 72.9095 108.215 73.032 108.146 73.1697C108.077 73.2922 107.978 73.3917 107.924 73.3917C107.87 73.3917 107.733 73.4606 107.618 73.5524C107.465 73.6749 107.419 73.7744 107.419 74.004C107.419 74.3943 107.648 74.555 107.832 74.2948C107.901 74.203 107.955 74.0652 107.955 73.9887C107.955 73.805 108.062 73.7591 108.284 73.8432C108.422 73.8968 108.514 73.8892 108.613 73.8126C108.782 73.6902 109.532 73.6596 109.601 73.7744C109.624 73.8126 109.562 73.8892 109.455 73.9351C109.203 74.0499 109.149 74.2259 109.256 74.6086C109.325 74.8612 109.402 74.953 109.746 75.1444C110.412 75.527 110.588 75.4428 110.328 74.8688C110.244 74.6775 110.19 74.4479 110.221 74.3713C110.282 74.157 110.512 74.2336 110.542 74.4785C110.573 74.7234 110.742 74.8841 110.902 74.8153C110.994 74.7846 111.017 74.6316 111.017 74.1341C111.017 73.5524 111.002 73.4759 110.826 73.3152C110.688 73.185 110.65 73.0855 110.68 72.9631C110.726 72.7794 110.55 72.4273 110.252 72.1059C110.083 71.9299 110.007 71.8992 109.922 71.9911Z" fill="white"/>
<path d="M116.966 73.7515C116.89 73.8203 116.897 74.2336 116.974 74.2336C117.035 74.2336 117.096 74.1265 117.28 73.7515C117.318 73.6826 117.035 73.6749 116.966 73.7515Z" fill="white"/>
<path d="M85.8818 74.0959C85.8435 74.2183 85.9584 74.4633 86.0655 74.4633C86.1727 74.4633 86.1191 74.0653 86.012 74.027C85.9584 74.0117 85.9048 74.0423 85.8818 74.0959Z" fill="white"/>
<path d="M103.376 74.4326C103.277 74.5015 103.208 74.6316 103.208 74.7464C103.208 74.8689 103.093 75.0908 102.909 75.3051C102.748 75.4965 102.603 75.7261 102.58 75.8026C102.557 75.9251 102.488 75.9557 102.258 75.9557C102.021 75.9557 101.952 75.9863 101.899 76.1241C101.86 76.2236 101.784 76.3001 101.715 76.3001C101.654 76.3001 101.539 76.4149 101.47 76.5527C101.202 77.0501 100.819 77.6012 100.681 77.6777C100.605 77.7237 100.383 77.7543 100.199 77.7543C99.8697 77.7543 99.8468 77.7696 99.6554 78.091C99.5482 78.2824 99.4563 78.5349 99.4563 78.665C99.4563 78.9559 99.3338 79.0324 99.1501 78.864C99.0658 78.7875 98.951 78.7569 98.8591 78.7798C98.7672 78.8105 98.6677 78.7722 98.5758 78.6727C98.3997 78.4737 98.3232 78.4814 98.0476 78.711C97.8485 78.8717 97.8179 78.9559 97.7872 79.3845C97.7643 79.7365 97.7872 79.9432 97.8868 80.1192C97.9786 80.3029 97.9863 80.3948 97.9251 80.4713C97.8638 80.5478 97.8868 80.6167 98.0169 80.7621C98.4916 81.2673 98.5376 81.3591 98.5682 81.8566C98.5911 82.1704 98.6524 82.3923 98.729 82.4765C98.8055 82.5531 98.8361 82.6679 98.8132 82.775C98.7826 82.8745 98.8055 82.9587 98.8591 82.974C98.9433 83.0046 99.5329 82.9357 99.7549 82.8745C99.8238 82.8592 99.8851 82.9204 99.9157 83.0352C99.954 83.196 100.008 83.2266 100.26 83.2342C100.429 83.2419 100.651 83.2036 100.758 83.15C100.919 83.0658 100.995 83.0658 101.217 83.1653C101.363 83.2266 101.585 83.2801 101.707 83.2878C101.899 83.3031 101.945 83.349 102.013 83.6093C102.128 84.0149 102.304 84.0302 102.771 83.6781C103.223 83.349 103.591 82.6526 103.591 82.1245C103.591 81.8107 103.621 81.7571 103.981 81.4356L104.379 81.0836L104.387 80.4942C104.402 79.7519 104.486 79.637 104.976 79.6906C105.206 79.7212 105.382 79.6983 105.466 79.637C105.589 79.5452 105.581 79.5222 105.344 79.2544C105.206 79.0936 105.015 78.9329 104.923 78.9023C104.777 78.8411 104.754 78.7952 104.793 78.5273C104.831 78.2671 104.808 78.1982 104.64 78.0451C104.372 77.7925 104.272 77.1343 104.471 76.9124C104.548 76.8282 104.655 76.7593 104.701 76.7593C104.754 76.7593 104.877 76.6981 104.969 76.6215L105.145 76.4761L104.976 76.3613C104.823 76.2542 104.816 76.2312 104.931 76.1164C104.999 76.0475 105.137 75.9939 105.229 75.9939C105.329 75.9939 105.451 75.9404 105.505 75.8791C105.589 75.7796 105.574 75.7261 105.428 75.573C105.329 75.4659 105.183 75.3817 105.107 75.3817C104.969 75.3817 104.525 75.1138 104.418 74.9607C104.387 74.9224 104.387 74.8612 104.402 74.8306C104.425 74.7923 104.333 74.6622 104.203 74.5398C103.928 74.2795 103.644 74.2489 103.376 74.4326Z" fill="white"/>
<path d="M107.434 74.7846C107.48 74.9224 107.602 74.9377 107.763 74.8076C107.909 74.7005 107.901 74.7005 107.664 74.6928C107.495 74.6928 107.419 74.7234 107.434 74.7846Z" fill="white"/>
<path d="M106.898 75.0831C106.799 75.1214 106.745 75.1826 106.768 75.2286C106.829 75.3281 107.09 75.3281 107.158 75.2209C107.235 75.0908 107.09 75.0066 106.898 75.0831Z" fill="white"/>
<path d="M87.3134 75.4199C87.2292 75.6265 87.3594 76.0704 87.5814 76.323C87.6962 76.4531 87.8417 76.6445 87.8876 76.744C87.9412 76.8435 88.1326 76.9889 88.3164 77.0654C88.5001 77.1419 88.6916 77.2874 88.7451 77.3869C88.7987 77.4864 88.8983 77.6088 88.9825 77.6624C89.0667 77.7313 89.1203 77.8614 89.1203 78.0298C89.1203 78.4124 89.2351 78.5808 89.5491 78.642C89.8859 78.7033 89.9855 78.864 90.1616 79.6217C90.2917 80.1498 90.33 80.234 90.5214 80.2952C90.6362 80.3411 90.7281 80.4024 90.7281 80.4406C90.7281 80.4789 90.8047 80.5861 90.8966 80.6779C90.9884 80.7697 91.1416 81.0606 91.2334 81.3208C91.3253 81.581 91.4861 81.9407 91.5933 82.1244C91.7005 82.3081 91.8766 82.6296 91.9761 82.8439C92.0756 83.0505 92.2364 83.2954 92.3359 83.3796C92.4278 83.4638 92.5503 83.6245 92.6116 83.7393C92.6728 83.8618 92.8336 83.9996 92.9714 84.0608C93.2394 84.1756 94.0203 84.918 94.0203 85.0634C94.0203 85.1093 94.0892 85.2165 94.1658 85.2854C94.3036 85.4078 94.3266 85.4078 94.5562 85.293C94.7783 85.1782 94.8089 85.1782 94.9926 85.293C95.2759 85.4767 95.3219 85.3619 95.3219 84.4205C95.3219 83.6858 95.3372 83.6016 95.5209 83.3643L95.7123 83.1117L95.3831 82.7291C95.1764 82.4918 94.9926 82.3464 94.8931 82.3464C94.6864 82.3464 94.25 81.7035 94.25 81.4126C94.25 81.1907 94.0892 81.0223 93.9055 81.0606C93.6681 81.1065 93.5992 80.8692 93.737 80.4636C93.8442 80.1192 93.8442 80.0809 93.737 79.9585C93.6681 79.8743 93.5073 79.8207 93.3542 79.8207C93.1016 79.8207 93.0939 79.813 93.1398 79.5681C93.2011 79.239 93.0326 79.0553 92.6805 79.0553C92.4431 79.0553 92.4201 79.0324 92.3972 78.8028C92.3742 78.5808 92.3512 78.5579 92.1369 78.5732C91.9531 78.5885 91.8612 78.5502 91.7694 78.4048C91.6928 78.2823 91.5703 78.2134 91.4478 78.2134C91.3253 78.2134 91.1722 78.1216 91.0497 77.9915C90.9348 77.8614 90.7358 77.6471 90.6056 77.5017C90.4678 77.3562 90.3223 77.1649 90.2764 77.0731C90.2228 76.9889 90.1309 76.9123 90.0697 76.9123C89.9012 76.9123 89.4266 76.5144 89.4266 76.3689C89.4266 76.3001 89.3117 76.1164 89.1739 75.9633C88.9289 75.7031 88.8983 75.6878 88.4159 75.6878C87.9872 75.6878 87.8723 75.6572 87.6809 75.4964C87.413 75.2745 87.367 75.2668 87.3134 75.4199Z" fill="white"/>
<path d="M115.917 76.3384C115.917 76.3996 115.986 76.4838 116.07 76.5297C116.193 76.5986 116.239 76.591 116.269 76.4991C116.292 76.4379 116.292 76.3461 116.262 76.3001C116.193 76.1853 115.917 76.2083 115.917 76.3384Z" fill="white"/>
<path d="M111.201 76.568C111.147 76.6981 111.232 76.8512 111.331 76.7976C111.423 76.7364 111.423 76.4532 111.324 76.4532C111.278 76.4532 111.224 76.5068 111.201 76.568Z" fill="white"/>
<path d="M87.5815 77.8768C87.505 77.9763 87.505 78.0069 87.5968 78.0681C87.6581 78.1064 87.7653 78.137 87.8342 78.137C87.9031 78.137 88.0103 78.1599 88.0792 78.1829C88.2476 78.2518 88.24 78.0375 88.0639 77.8844C87.8878 77.7237 87.7117 77.716 87.5815 77.8768Z" fill="white"/>
<path d="M112.556 78.1675C112.48 78.2594 112.48 78.3359 112.541 78.4813C112.663 78.7569 112.74 78.7492 112.763 78.4507C112.793 78.1446 112.686 78.0068 112.556 78.1675Z" fill="white"/>
<path d="M112.143 78.6574C112.066 78.7339 111.959 78.9635 111.89 79.1625C111.775 79.484 111.775 79.5452 111.89 79.8207C112.058 80.2493 112.043 80.41 111.806 80.6932L111.607 80.9305L111.867 80.9534C112.012 80.9688 112.189 81.0376 112.257 81.0989C112.365 81.1984 112.418 81.1984 112.502 81.1218C112.602 81.0453 112.602 81.007 112.464 80.8233C112.365 80.6932 112.319 80.5248 112.334 80.3871C112.349 80.2034 112.395 80.1575 112.587 80.1422C112.985 80.1039 113.023 80.0733 112.924 79.8896C112.862 79.7671 112.862 79.683 112.931 79.5528C112.977 79.461 113.008 79.285 112.992 79.1625C112.97 78.9406 112.878 78.9023 112.61 79.0171C112.502 79.0554 112.472 79.0324 112.472 78.9176C112.472 78.7186 112.395 78.5196 112.319 78.5196C112.288 78.5196 112.212 78.5808 112.143 78.6574Z" fill="white"/>
<path d="M109.853 79.0172C109.808 79.1243 109.723 79.2085 109.662 79.2085C109.608 79.2085 109.524 79.2927 109.486 79.3998C109.417 79.5759 109.386 79.5912 108.858 79.5759C108.552 79.5759 108.23 79.5376 108.146 79.4917C108.062 79.4458 107.771 79.3616 107.503 79.308C107.013 79.2085 107.005 79.2085 106.829 79.3922C106.73 79.4993 106.515 79.6294 106.347 79.6754C106.048 79.7672 105.949 79.905 105.979 80.2035C106.01 80.5785 105.949 81.0454 105.849 81.1372C105.788 81.1908 105.688 81.2826 105.62 81.3362C105.543 81.4051 105.505 81.5735 105.505 81.849C105.505 82.1245 105.451 82.3465 105.344 82.5302C105.252 82.6909 105.198 82.8975 105.214 83.0506C105.237 83.2802 105.26 83.3032 105.482 83.2879C105.964 83.2496 106.102 83.8083 105.803 84.6043C105.719 84.8415 105.665 85.0788 105.688 85.14C105.742 85.2854 106.385 85.3007 106.469 85.163C106.508 85.1094 106.538 84.543 106.538 83.8925C106.554 82.6985 106.592 82.5378 106.852 82.5914C106.975 82.6143 106.998 82.6909 106.998 83.1501C106.998 83.6476 107.005 83.6782 107.189 83.7241C107.327 83.7624 107.373 83.816 107.358 83.9231C107.342 83.9996 107.319 84.168 107.319 84.2981C107.304 84.4971 107.335 84.5277 107.511 84.5507C107.679 84.5737 107.74 84.5354 107.802 84.3747C107.863 84.2063 107.916 84.1757 108.123 84.1986C108.338 84.2216 108.376 84.191 108.399 84.0379C108.422 83.9231 108.353 83.7853 108.215 83.6399C108.024 83.4409 108.016 83.4027 108.108 83.2266C108.2 83.0506 108.184 83.0123 107.848 82.6143C107.434 82.1398 107.426 81.9485 107.825 81.8184C107.955 81.7648 108.184 81.6194 108.322 81.4816C108.46 81.3438 108.651 81.2367 108.743 81.2367C108.942 81.2367 109.019 80.9612 108.858 80.8387C108.72 80.7239 107.955 80.8081 107.955 80.9382C107.955 80.9994 107.832 81.0454 107.633 81.0607C107.373 81.076 107.304 81.1142 107.304 81.229C107.304 81.4433 107.082 81.5581 106.921 81.428C106.852 81.3745 106.814 81.2826 106.837 81.229C106.86 81.1755 106.799 81.0683 106.699 80.9918C106.577 80.8999 106.508 80.7469 106.477 80.5326C106.423 80.081 106.515 80.0198 107.143 80.1346C107.564 80.2111 107.687 80.2111 107.947 80.1116C108.123 80.0427 108.284 80.0198 108.345 80.058C108.498 80.1499 109.54 80.1422 109.723 80.0504C109.876 79.9662 110.328 79.1396 110.328 78.9406C110.328 78.7416 109.953 78.7952 109.853 79.0172Z" fill="white"/>
<path d="M70.1864 79.8361C70.1328 80.0427 70.1788 80.1346 70.3243 80.0734C70.4697 80.0198 70.4774 79.6677 70.3319 79.6677C70.2783 79.6677 70.2094 79.7443 70.1864 79.8361Z" fill="white"/>
<path d="M94.3573 80.4407C94.3343 80.4867 94.342 80.5555 94.3879 80.6015C94.5027 80.7163 94.7401 80.6397 94.7707 80.4867C94.7937 80.3948 94.7477 80.3565 94.6023 80.3565C94.4951 80.3565 94.3879 80.3948 94.3573 80.4407Z" fill="white"/>
<path d="M89.6332 80.5555C89.5261 80.6626 89.5797 80.8234 89.7175 80.8004C89.7864 80.7851 89.8476 80.7239 89.8476 80.6703C89.8476 80.5478 89.7098 80.4789 89.6332 80.5555Z" fill="white"/>
<path d="M114.202 81.0223C114.133 81.0912 114.149 81.2749 114.225 81.2749C114.317 81.2749 114.394 81.0606 114.317 81.0147C114.279 80.9917 114.233 80.9917 114.202 81.0223Z" fill="white"/>
<path d="M89.8324 81.1754C89.5874 81.2596 89.8554 81.7341 90.1387 81.7341C90.2918 81.7341 90.2918 81.7418 90.1846 81.4433C90.1004 81.1984 89.9932 81.1218 89.8324 81.1754Z" fill="white"/>
<path d="M108.468 81.4892C108.284 81.6882 108.307 81.7341 108.59 81.7341C108.889 81.7341 109.096 81.6193 108.988 81.5198C108.82 81.3591 108.59 81.3515 108.468 81.4892Z" fill="white"/>
<path d="M111.875 81.5963C111.767 81.7035 111.752 81.9331 111.852 82.002C111.89 82.0249 111.951 82.002 111.974 81.9561C112.005 81.9178 112.143 81.8872 112.288 81.9025C112.426 81.9101 112.548 81.8948 112.548 81.8642C112.548 81.8336 112.548 81.78 112.548 81.7494C112.548 81.6729 112.211 81.5045 112.066 81.5045C112.012 81.5045 111.928 81.5428 111.875 81.5963Z" fill="white"/>
<path d="M95.1304 81.7418C94.9313 81.8642 94.8088 82.0326 94.7935 82.2086C94.7859 82.2392 94.916 82.2699 95.0692 82.2852C95.3065 82.3005 95.3601 82.3464 95.406 82.5224C95.4673 82.7597 95.9037 83.2419 95.9803 83.1653C96.0109 83.1424 96.0492 82.974 96.0645 82.7903C96.1028 82.4918 96.0798 82.4459 95.9037 82.354C95.7965 82.2928 95.7046 82.178 95.7046 82.1015C95.7046 81.9101 95.5821 81.6882 95.4596 81.6423C95.406 81.6193 95.2606 81.6652 95.1304 81.7418Z" fill="white"/>
<path d="M109.463 81.8031C109.448 81.8873 109.463 81.9868 109.509 82.0327C109.616 82.1398 110.06 82.1398 110.259 82.0327C110.412 81.9561 110.412 81.9485 110.282 81.8031C110.098 81.5964 109.517 81.5964 109.463 81.8031Z" fill="white"/>
<path d="M113.728 81.8413C113.659 82.0327 113.751 82.1857 113.965 82.2393C114.202 82.3006 114.401 82.1475 114.371 81.9332C114.355 81.8107 114.287 81.7648 114.057 81.7495C113.858 81.7342 113.758 81.7571 113.728 81.8413Z" fill="white"/>
<path d="M90.6898 82.2775C90.6132 82.3923 90.6974 82.4536 90.8429 82.3923C90.9118 82.3694 90.9424 82.3158 90.9194 82.2699C90.8582 82.1704 90.751 82.1704 90.6898 82.2775Z" fill="white"/>
<path d="M110.765 82.3235C110.673 82.4077 110.703 82.4995 110.826 82.4995C110.887 82.4995 110.941 82.4459 110.941 82.3847C110.941 82.2623 110.849 82.2316 110.765 82.3235Z" fill="white"/>
<path d="M96.7076 82.6219C96.5544 82.7826 96.5391 82.8362 96.608 82.9969C96.7076 83.2112 96.7612 83.2266 97.0368 83.1041C97.3124 82.974 97.3354 82.7597 97.0904 82.5837C96.8837 82.4382 96.8837 82.4382 96.7076 82.6219Z" fill="white"/>
<path d="M112.564 82.8132C112.418 82.8668 112.388 82.928 112.411 83.1653L112.434 83.4561L113.016 83.4332C113.551 83.4102 113.613 83.4179 113.835 83.6092C114.133 83.8618 114.486 83.8541 114.524 83.5939C114.585 83.1806 114.118 82.8592 113.429 82.8438C113.222 82.8362 112.977 82.8132 112.893 82.7903C112.809 82.7597 112.663 82.775 112.564 82.8132Z" fill="white"/>
<path d="M110.964 83.0199C110.918 83.0506 110.895 83.1654 110.918 83.2878C110.971 83.5633 111.331 83.7623 111.553 83.6475C111.722 83.5557 111.76 83.2495 111.614 83.1271C111.477 83.0199 111.071 82.9511 110.964 83.0199Z" fill="white"/>
<path d="M108.46 84.2981C108.437 84.3593 108.353 84.4129 108.284 84.4129C107.832 84.4129 107.648 84.9334 107.985 85.2472C108.269 85.515 108.46 85.4079 108.514 84.9716C108.537 84.7344 108.605 84.5736 108.713 84.4971C108.843 84.3976 108.858 84.3517 108.782 84.2751C108.659 84.1527 108.514 84.1603 108.46 84.2981Z" fill="white"/>
<path d="M115.917 85.1706C115.864 85.2778 115.864 85.339 115.925 85.3696C116.024 85.4309 116.04 85.4155 116.101 85.1936C116.17 84.9869 116.032 84.964 115.917 85.1706Z" fill="white"/>
<path d="M117.15 85.2701C117.112 85.3696 117.012 85.5074 116.928 85.5916C116.744 85.7523 116.568 86.2039 116.645 86.3263C116.729 86.4641 116.974 86.4105 117.127 86.2192C117.203 86.112 117.334 85.8748 117.403 85.6758C117.51 85.4003 117.517 85.3008 117.448 85.2166C117.318 85.0558 117.226 85.0712 117.15 85.2701Z" fill="white"/>
<path d="M106.347 85.5227C106.224 85.6681 106.301 85.8747 106.462 85.8212C106.584 85.7676 106.622 85.5227 106.508 85.4538C106.469 85.4308 106.4 85.4615 106.347 85.5227Z" fill="white"/>
<path d="M95.2682 85.5686C95.2223 85.6298 95.1611 85.7676 95.1304 85.89C95.0922 86.0431 95.0309 86.0967 94.8931 86.0967C94.7323 86.0967 94.7093 86.1196 94.7553 86.3033C94.8318 86.6095 94.8625 86.6401 95.0232 86.5941C95.0998 86.5712 95.2376 86.5406 95.3142 86.51C95.429 86.4793 95.4979 86.5329 95.5898 86.7089C95.697 86.9156 95.7353 86.9386 95.965 86.9003C96.1181 86.8697 96.3248 86.8926 96.5086 86.9692C96.6923 87.0457 97.0215 87.0916 97.4273 87.0916C97.8254 87.0916 98.147 87.1299 98.2848 87.1988C99.0428 87.5738 99.1882 87.6121 99.9386 87.6197C100.39 87.6197 100.827 87.6733 101.026 87.7422C101.454 87.8876 101.577 87.834 101.684 87.4667C101.768 87.2064 101.761 87.1452 101.638 87.0151C101.523 86.885 101.416 86.862 101.079 86.8773C100.666 86.9003 100.666 86.9003 100.582 86.6324C100.505 86.4105 100.444 86.3645 100.184 86.311C100.015 86.2727 99.839 86.1885 99.7854 86.1273C99.7242 86.0431 99.6323 86.0201 99.5022 86.0507C99.3567 86.089 99.3031 86.066 99.3031 85.9819C99.3031 85.7905 99.0964 85.8517 98.9203 86.0967C98.7365 86.3569 98.6293 86.3798 98.2848 86.1962C98.147 86.1273 97.8714 86.066 97.657 86.0584C97.3278 86.0507 97.2742 86.0201 97.2512 85.8824C97.2129 85.6374 97.0445 85.5762 96.1564 85.5226C95.5209 85.4767 95.3372 85.4844 95.2682 85.5686Z" fill="white"/>
<path d="M100.628 86.2115C100.566 86.3799 100.819 86.6324 101.056 86.6324C101.294 86.6324 101.6 86.4411 101.6 86.2957C101.6 86.0814 100.712 86.0125 100.628 86.2115Z" fill="white"/>
<path d="M114.6 86.709C114.172 87.26 114.103 87.3672 114.133 87.4514C114.202 87.6503 114.447 87.5432 114.776 87.1605C114.96 86.9462 115.129 86.7625 115.144 86.7396C115.197 86.6936 114.983 86.4793 114.884 86.4793C114.83 86.4793 114.7 86.5788 114.6 86.709Z" fill="white"/>
<path d="M110.741 86.9156C110.604 86.9309 110.435 87.0151 110.366 87.0916C110.244 87.2294 110.244 87.2447 110.359 87.2906C110.535 87.3595 110.986 87.26 111.094 87.1299C111.178 87.0227 111.14 86.8467 111.032 86.8773C111.002 86.8773 110.872 86.9003 110.741 86.9156Z" fill="white"/>
<path d="M103.782 87.6351C103.315 87.9489 103.2 88.1019 103.361 88.2014C103.484 88.278 104.946 88.0101 105.107 87.8876C105.29 87.7499 105.137 87.5203 104.846 87.4897C104.724 87.4744 104.594 87.4284 104.555 87.3902C104.425 87.2677 104.249 87.3213 103.782 87.6351Z" fill="white"/>
<path d="M101.83 87.4896C101.83 87.5432 101.891 87.6656 101.967 87.7651C102.098 87.9335 102.113 87.9335 102.35 87.8187C102.496 87.7422 102.595 87.635 102.595 87.5432C102.595 87.4207 102.542 87.3977 102.212 87.3977C101.96 87.3977 101.83 87.4284 101.83 87.4896Z" fill="white"/>
<path d="M102.787 87.704C102.542 88.0943 102.549 88.1402 102.825 88.1785C103.108 88.2244 103.208 88.1173 103.262 87.704C103.3 87.4284 103.284 87.3978 103.139 87.3978C103.039 87.3978 102.917 87.505 102.787 87.704Z" fill="white"/>
<path d="M105.903 87.6427C105.313 88.01 105.382 88.1861 106.148 88.2626C106.515 88.3009 106.653 88.2779 106.913 88.1401C107.089 88.056 107.403 87.9565 107.61 87.9335C107.978 87.8952 107.993 87.8876 107.993 87.6656C107.993 87.4054 108.001 87.4054 107.403 87.5891C106.975 87.7192 106.967 87.7192 106.76 87.5585C106.485 87.3442 106.377 87.3518 105.903 87.6427Z" fill="white"/>
<path d="M108.429 87.4897C108.269 87.6504 108.33 87.7805 108.567 87.7805C108.743 87.7805 108.797 87.7422 108.797 87.6351C108.797 87.5586 108.743 87.4667 108.674 87.4438C108.521 87.3825 108.537 87.3825 108.429 87.4897Z" fill="white"/>
<path d="M110.336 87.6197C109.777 87.7345 109.662 87.7881 109.478 88.01C109.356 88.1478 109.042 88.3927 108.782 88.5458C108.345 88.7907 108.299 88.8443 108.276 89.0892C108.23 89.5867 108.613 89.6479 109.019 89.204C109.126 89.0968 109.264 89.005 109.34 89.005C109.409 89.005 109.517 88.9285 109.585 88.829C109.647 88.7371 109.846 88.584 110.029 88.4922C110.657 88.1861 111.239 87.9335 111.316 87.9335C111.461 87.9335 111.408 87.7192 111.232 87.5967C111.14 87.5279 111.04 87.4743 111.017 87.4819C110.994 87.4819 110.688 87.5432 110.336 87.6197Z" fill="white"/>
<path d="M105.099 88.4234C105.038 88.5688 105.26 88.852 105.428 88.852C105.505 88.852 105.642 88.9362 105.742 89.0434C105.979 89.2883 106.178 89.2883 106.24 89.0434C106.301 88.7908 106.232 88.6224 106.063 88.6224C105.987 88.6224 105.887 88.5612 105.834 88.477C105.727 88.3086 105.16 88.2627 105.099 88.4234Z" fill="white"/>
<path d="M107.771 89.6556C107.595 89.7857 107.664 90 107.878 90C108.062 90 108.361 89.7245 108.299 89.6173C108.23 89.5102 107.939 89.5255 107.771 89.6556Z" fill="white"/>
</g>
<path d="M143.667 96L155.333 96C156.254 96 157 95.2965 157 94.4286L157 89.5795C157 89.1627 156.824 88.763 156.512 88.4683L153.321 85.4603C153.009 85.1656 152.585 85 152.143 85L143.667 85C142.746 85 142 85.7014 142 86.5692L142 94.4292C142 95.2971 142.746 96 143.667 96Z" fill="white"/>
<path d="M146.352 90.848C146.352 90.912 146.348 90.9787 146.34 91.048H144.792C144.803 91.1867 144.847 91.2933 144.924 91.368C145.004 91.44 145.101 91.476 145.216 91.476C145.387 91.476 145.505 91.404 145.572 91.26H146.3C146.263 91.4067 146.195 91.5387 146.096 91.656C146 91.7733 145.879 91.8653 145.732 91.932C145.585 91.9987 145.421 92.032 145.24 92.032C145.021 92.032 144.827 91.9853 144.656 91.892C144.485 91.7987 144.352 91.6653 144.256 91.492C144.16 91.3187 144.112 91.116 144.112 90.884C144.112 90.652 144.159 90.4493 144.252 90.276C144.348 90.1027 144.481 89.9693 144.652 89.876C144.823 89.7827 145.019 89.736 145.24 89.736C145.456 89.736 145.648 89.7813 145.816 89.872C145.984 89.9627 146.115 90.092 146.208 90.26C146.304 90.428 146.352 90.624 146.352 90.848ZM145.652 90.668C145.652 90.5507 145.612 90.4573 145.532 90.388C145.452 90.3187 145.352 90.284 145.232 90.284C145.117 90.284 145.02 90.3173 144.94 90.384C144.863 90.4507 144.815 90.5453 144.796 90.668H145.652ZM147.729 92.028C147.524 92.028 147.34 91.9947 147.177 91.928C147.014 91.8613 146.884 91.7627 146.785 91.632C146.689 91.5013 146.638 91.344 146.633 91.16H147.361C147.372 91.264 147.408 91.344 147.469 91.4C147.53 91.4533 147.61 91.48 147.709 91.48C147.81 91.48 147.89 91.4573 147.949 91.412C148.008 91.364 148.037 91.2987 148.037 91.216C148.037 91.1467 148.013 91.0893 147.965 91.044C147.92 90.9987 147.862 90.9613 147.793 90.932C147.726 90.9027 147.63 90.8693 147.505 90.832C147.324 90.776 147.176 90.72 147.061 90.664C146.946 90.608 146.848 90.5253 146.765 90.416C146.682 90.3067 146.641 90.164 146.641 89.988C146.641 89.7267 146.736 89.5227 146.925 89.376C147.114 89.2267 147.361 89.152 147.665 89.152C147.974 89.152 148.224 89.2267 148.413 89.376C148.602 89.5227 148.704 89.728 148.717 89.992H147.977C147.972 89.9013 147.938 89.8307 147.877 89.78C147.816 89.7267 147.737 89.7 147.641 89.7C147.558 89.7 147.492 89.7227 147.441 89.768C147.39 89.8107 147.365 89.8733 147.365 89.956C147.365 90.0467 147.408 90.1173 147.493 90.168C147.578 90.2187 147.712 90.2733 147.893 90.332C148.074 90.3933 148.221 90.452 148.333 90.508C148.448 90.564 148.546 90.6453 148.629 90.752C148.712 90.8587 148.753 90.996 148.753 91.164C148.753 91.324 148.712 91.4693 148.629 91.6C148.549 91.7307 148.432 91.8347 148.277 91.912C148.122 91.9893 147.94 92.028 147.729 92.028ZM149.858 89.192V92H149.174V89.192H149.858ZM153.533 89.192V92H152.849V90.316L152.221 92H151.669L151.037 90.312V92H150.353V89.192H151.161L151.949 91.136L152.729 89.192H153.533Z" fill="url(#paint1_linear_1246_4120)"/>
<defs>
<linearGradient id="paint0_linear_1246_4120" x1="0" y1="0" x2="92.535" y2="148.236" gradientUnits="userSpaceOnUse">
<stop stop-color="#BE1F68"/>
<stop offset="1" stop-color="#EF7271"/>
</linearGradient>
<linearGradient id="paint1_linear_1246_4120" x1="144" y1="91" x2="154" y2="91" gradientUnits="userSpaceOnUse">
<stop stop-color="#BF2168"/>
<stop offset="1" stop-color="#ED7071"/>
</linearGradient>
<clipPath id="clip0_1246_4120">
<rect width="98" height="76" fill="white" transform="translate(33 14)"/>
</clipPath>
</defs>
</svg>
