<svg width="92" height="77" viewBox="0 0 92 77" fill="none" xmlns="http://www.w3.org/2000/svg">
<g opacity="0.5">
<path d="M52.8445 76.8648C31.6188 76.8648 -7.66665e-05 71.8439 -7.66665e-05 50.6183C-7.66665e-05 29.3927 31.6188 0 52.8445 0C74.0701 0 91.2769 17.2068 91.2769 38.4324C91.2769 59.658 74.0701 76.8648 52.8445 76.8648Z" fill="url(#paint0_linear_626_285)"/>
<mask id="mask0_626_285" style="mask-type:luminance" maskUnits="userSpaceOnUse" x="0" y="0" width="92" height="77">
<path d="M52.8445 76.8648C31.6188 76.8648 -7.66665e-05 71.8439 -7.66665e-05 50.6183C-7.66665e-05 29.3927 31.6188 0 52.8445 0C74.0701 0 91.2769 17.2068 91.2769 38.4324C91.2769 59.658 74.0701 76.8648 52.8445 76.8648Z" fill="white"/>
</mask>
<g mask="url(#mask0_626_285)">
</g>
</g>
<defs>
<linearGradient id="paint0_linear_626_285" x1="91.2769" y1="41.0192" x2="0.973237" y2="30.2618" gradientUnits="userSpaceOnUse">
<stop stop-color="#008799"/>
<stop offset="1" stop-color="#00E0FF"/>
</linearGradient>
</defs>
</svg>
