<svg width="156" height="131" viewBox="0 0 156 131" fill="none" xmlns="http://www.w3.org/2000/svg">
<g opacity="0.3">
<path d="M89.9695 130.865C53.8322 130.865 2.74181e-06 122.317 2.74181e-06 86.1793C2.74181e-06 50.0419 53.8322 0 89.9695 0C126.107 0 155.402 29.2951 155.402 65.4324C155.402 101.57 126.107 130.865 89.9695 130.865Z" fill="url(#paint0_linear_626_1768)"/>
<mask id="mask0_626_1768" style="mask-type:luminance" maskUnits="userSpaceOnUse" x="0" y="0" width="156" height="131">
<path d="M89.9695 130.865C53.8322 130.865 2.74181e-06 122.317 2.74181e-06 86.1793C2.74181e-06 50.0419 53.8322 0 89.9695 0C126.107 0 155.402 29.2951 155.402 65.4324C155.402 101.57 126.107 130.865 89.9695 130.865Z" fill="white"/>
</mask>
<g mask="url(#mask0_626_1768)">
</g>
</g>
<defs>
<linearGradient id="paint0_linear_626_1768" x1="69.9309" y1="-20.5991" x2="63.7116" y2="211.293" gradientUnits="userSpaceOnUse">
<stop stop-color="#FD749B"/>
<stop offset="0.104816" stop-color="#E76BA0"/>
<stop offset="0.63132" stop-color="#763BB7"/>
<stop offset="1" stop-color="#281AC8"/>
</linearGradient>
</defs>
</svg>
