<svg width="81" height="60" viewBox="0 0 81 60" fill="none" xmlns="http://www.w3.org/2000/svg">
<g filter="url(#filter0_d_1156_2)">
<path fill-rule="evenodd" clip-rule="evenodd" d="M42.2616 47.8867C38.5995 47.7857 34.9374 47.7178 31.2754 47.6965C30.1926 47.6887 29.1101 47.6849 28.0274 47.6849C25.8795 47.6849 23.7314 47.6996 21.5835 47.7253C21.497 47.7283 21.4154 47.7296 21.3373 47.7296C21.0278 47.7296 20.7739 47.71 20.4881 47.7038L19.9655 47.6883C19.7912 47.683 19.6208 47.6446 19.448 47.6251C19.1052 47.5695 18.7543 47.5504 18.4157 47.4709L17.3956 47.2394C16.0536 46.8532 14.7713 46.257 13.5867 45.4902C11.2096 43.9522 9.36657 41.5951 8.32107 38.8906C7.83291 37.5245 7.54169 36.0763 7.47463 34.5963L7.46924 33.4833C7.49645 33.114 7.54036 32.7449 7.5735 32.373C7.59002 31.9972 7.69817 31.6389 7.76213 31.2697L7.87169 30.7174L8.03648 30.1797C8.4559 28.7374 9.11228 27.3421 10.0093 26.1008C10.8931 24.8507 11.9858 23.7346 13.2379 22.8095C15.7028 21.0178 18.7609 20.0548 21.8998 20.0548C21.9758 20.0548 22.0519 20.0553 22.128 20.0565L22.1312 20.0566L22.1389 20.0565C22.2516 20.0535 22.3406 19.9597 22.3376 19.8469C22.2951 18.2535 22.463 16.6508 22.8301 15.0903C23.2009 13.5777 23.7661 12.1108 24.5013 10.7314C24.2857 12.346 24.1737 13.9745 24.1814 15.6026L24.1813 15.607L24.1814 15.6126C24.1728 19.4919 24.7783 23.3695 25.9492 27.0828C27.1336 30.7931 28.8796 34.3462 31.1661 37.558C33.4449 40.7717 36.2397 43.6653 39.4716 46.034C40.3692 46.6936 41.3025 47.3093 42.2616 47.8867Z" fill="white"/>
<path fill-rule="evenodd" clip-rule="evenodd" d="M68.6793 25.7608C71.6451 27.0113 73.9871 29.1139 75.5473 31.6601C74.5301 27.1678 71.4348 23.2127 66.8577 21.2829C59.315 18.1025 50.6158 21.6242 47.4277 29.1486C45.4932 33.7145 46.036 38.7029 48.4442 42.6321C47.7848 39.7211 47.9957 36.5851 49.2492 33.6265C52.4373 26.1019 61.1365 22.5804 68.6793 25.7608Z" fill="white"/>
<path fill-rule="evenodd" clip-rule="evenodd" d="M58.3629 41.7003C56.6192 41.237 55.1554 40.2522 54.091 38.9602C55.0055 41.3748 57.0317 43.3293 59.7228 44.0441C64.1575 45.2223 68.7122 42.59 69.8961 38.1648C70.6144 35.4797 69.9247 32.7528 68.2819 30.7592C68.8746 32.3238 69.0017 34.081 68.5362 35.821C67.3524 40.2462 62.7976 42.8784 58.3629 41.7003Z" fill="white"/>
<path fill-rule="evenodd" clip-rule="evenodd" d="M76.1294 34.845C75.9359 37.1691 75.246 39.4072 74.1029 41.351C72.9618 43.2955 71.3892 44.9402 69.5725 46.1667C67.7409 47.3764 65.6627 48.1514 63.5397 48.4267C63.0099 48.5024 62.475 48.5314 61.9425 48.5434C61.6764 48.5515 61.4094 48.5374 61.1439 48.537L60.2768 48.5062L56.7901 48.3776C54.8358 48.3106 52.8815 48.2522 50.9271 48.1961C47.3622 47.4193 43.882 46.0892 40.6828 44.2021C37.4413 42.2894 34.472 39.8336 31.9978 36.9127C29.5281 33.9928 27.5328 30.6276 26.2079 26.9942C24.8629 23.3674 24.195 19.4866 24.1809 15.607L24.181 15.6126C24.1724 19.4919 24.778 23.3696 25.9488 27.0828C27.1333 30.7931 28.8793 34.3462 31.1657 37.558C33.4446 40.7717 36.2393 43.6653 39.4712 46.034C40.3688 46.6936 41.3021 47.3093 42.2612 47.8867C38.5992 47.7857 34.9371 47.7178 31.275 47.6965C28.5271 47.6765 25.7792 47.6878 23.0313 47.7141L21.9232 47.7046L21.4873 47.7034C21.3431 47.7028 21.1895 47.7037 21.0733 47.6983C20.8237 47.6872 20.573 47.6927 20.3248 47.6658C20.0759 47.6471 19.827 47.629 19.5806 47.5911C19.3326 47.5641 19.0872 47.522 18.8428 47.4746C17.8637 47.2934 16.9074 46.997 16.0007 46.5876C15.0958 46.1773 14.2251 45.6829 13.4308 45.0806C12.6365 44.4795 11.9091 43.7892 11.2667 43.0267C9.99999 41.4889 9.05945 39.6764 8.60151 37.7315C8.13305 35.7927 8.12643 33.7259 8.56184 31.7683C8.77751 30.7868 9.12095 29.8336 9.56617 28.9282C10.0085 28.0217 10.5477 27.1558 11.1942 26.3713C12.4756 24.7926 14.1329 23.5112 15.9956 22.6434C16.9291 22.2129 17.9173 21.8997 18.9305 21.6886C19.4368 21.5787 19.9521 21.5116 20.4701 21.4581L21.256 21.4097L22.1276 21.3822L23.7096 21.3322L23.6629 19.8469C23.6105 18.1805 23.7829 16.4999 24.1908 14.8678C24.1867 15.1127 24.1798 15.3576 24.181 15.6026L24.1809 15.607C24.1822 15.349 24.1918 15.0913 24.1989 14.8335C24.3495 14.2358 24.5298 13.6441 24.7454 13.0628C25.54 10.8804 26.7763 8.83826 28.359 7.07355C29.9482 5.31264 31.9018 3.85867 34.0748 2.78543C36.2545 1.72455 38.6633 1.07152 41.151 0.869719C38.6639 0.670037 36.0986 0.990676 33.6813 1.83314C31.2551 2.65652 28.992 4.0163 27.0568 5.7666C25.114 7.51214 23.5222 9.67833 22.408 12.09C21.5169 14.0323 20.938 16.134 20.7052 18.2807C20.5697 18.2805 20.4336 18.2805 20.2992 18.2822C19.6579 18.3056 19.0147 18.3498 18.3766 18.4451C17.0999 18.6286 15.8406 18.9656 14.6345 19.4439C13.4307 19.9279 12.2788 20.5491 11.2105 21.296C10.1446 22.0465 9.17281 22.931 8.30367 23.9087C6.56467 25.864 5.29112 28.2532 4.64048 30.8126C4.31321 32.0914 4.13429 33.4094 4.10646 34.7289C4.08075 36.0485 4.22397 37.3747 4.50856 38.6695C5.07236 41.2633 6.27416 43.7162 7.96306 45.7649C9.65753 47.8067 11.8154 49.4738 14.2565 50.5372C15.4725 51.0758 16.7542 51.4655 18.0617 51.7004C18.3885 51.7613 18.7162 51.8145 19.0463 51.8501C19.3753 51.8966 19.7059 51.9208 20.0368 51.9433C20.3674 51.9741 20.6988 51.97 21.0298 51.9803L21.4873 51.983L21.9232 51.9818L23.0326 51.9723C25.7801 51.9987 28.5275 52.0098 31.275 51.9898C37.7362 51.9524 44.1975 51.783 50.6587 51.5087L50.8054 51.5029C50.8367 51.5016 50.8665 51.4943 50.8975 51.4913C52.8617 51.4349 54.8259 51.3761 56.7901 51.3088L60.2768 51.1802L61.153 51.1467C61.468 51.1248 61.783 51.1181 62.0962 51.081C62.7227 51.014 63.3464 50.9246 63.9588 50.7842C66.4196 50.2645 68.709 49.1164 70.6109 47.5584C74.4567 44.4581 76.5305 39.5006 76.1294 34.845Z" fill="white"/>
</g>
<defs>
<filter id="filter0_d_1156_2" x="0.103516" y="0.812256" width="80.0752" height="59.1877" filterUnits="userSpaceOnUse" color-interpolation-filters="sRGB">
<feFlood flood-opacity="0" result="BackgroundImageFix"/>
<feColorMatrix in="SourceAlpha" type="matrix" values="0 0 0 0 0 0 0 0 0 0 0 0 0 0 0 0 0 0 127 0" result="hardAlpha"/>
<feOffset dy="4"/>
<feGaussianBlur stdDeviation="2"/>
<feComposite in2="hardAlpha" operator="out"/>
<feColorMatrix type="matrix" values="0 0 0 0 0 0 0 0 0 0 0 0 0 0 0 0 0 0 0.25 0"/>
<feBlend mode="normal" in2="BackgroundImageFix" result="effect1_dropShadow_1156_2"/>
<feBlend mode="normal" in="SourceGraphic" in2="effect1_dropShadow_1156_2" result="shape"/>
</filter>
</defs>
</svg>
