<svg width="295" height="212" viewBox="0 0 295 212" fill="none" xmlns="http://www.w3.org/2000/svg">
<g filter="url(#filter0_d_1201_6)">
<path fill-rule="evenodd" clip-rule="evenodd" d="M261.095 99.3271C272.903 104.306 282.227 112.677 288.439 122.814C284.389 104.929 272.065 89.1825 253.843 81.4992C223.813 68.8373 189.179 82.8581 176.486 112.815C168.784 130.993 170.945 150.854 180.533 166.497C177.908 154.907 178.747 142.422 183.738 130.643C196.431 100.685 231.065 86.6649 261.095 99.3271Z" fill="url(#paint0_linear_1201_6)"/>
<path fill-rule="evenodd" clip-rule="evenodd" d="M220.024 162.787C213.082 160.943 207.254 157.022 203.016 151.878C206.657 161.491 214.724 169.273 225.438 172.119C243.094 176.809 261.228 166.329 265.941 148.711C268.801 138.021 266.055 127.164 259.515 119.227C261.874 125.456 262.381 132.452 260.527 139.38C255.814 156.998 237.68 167.478 220.024 162.787Z" fill="url(#paint1_linear_1201_6)"/>
<path fill-rule="evenodd" clip-rule="evenodd" d="M290.757 135.495C289.986 144.748 287.24 153.658 282.689 161.397C278.146 169.139 271.885 175.687 264.652 180.57C257.36 185.386 249.086 188.471 240.634 189.567C238.524 189.869 236.395 189.984 234.275 190.032C233.215 190.064 232.152 190.008 231.095 190.007L227.643 189.884L213.761 189.372C205.981 189.105 198.2 188.873 190.419 188.649C176.226 185.557 162.37 180.261 149.633 172.748C136.728 165.133 124.906 155.356 115.056 143.727C105.223 132.102 97.2789 118.704 92.0042 104.238C86.6492 89.7989 83.9902 74.3482 83.9343 58.9025L83.9346 58.9246C83.9005 74.3693 86.3115 89.8077 90.9728 104.591C95.6886 119.363 102.64 133.509 111.743 146.296C120.816 159.091 131.942 170.611 144.81 180.042C148.383 182.668 152.099 185.119 155.917 187.418C141.338 187.015 126.758 186.745 112.178 186.66C101.238 186.581 90.2974 186.626 79.3571 186.73L74.9456 186.693L73.2103 186.688C72.6359 186.685 72.0245 186.689 71.5619 186.667C70.5682 186.623 69.5699 186.645 68.5817 186.538C67.5908 186.464 66.5999 186.392 65.6188 186.241C64.6318 186.133 63.6546 185.966 62.6816 185.777C58.7836 185.056 54.9761 183.875 51.3663 182.246C47.7635 180.612 44.2972 178.644 41.1348 176.246C37.9724 173.853 35.0763 171.104 32.5189 168.068C27.4757 161.946 23.7311 154.73 21.9079 146.987C20.0428 139.268 20.0164 131.039 21.7499 123.245C22.6086 119.338 23.9759 115.543 25.7485 111.938C27.5094 108.329 29.6563 104.882 32.2301 101.758C37.3318 95.4729 43.9299 90.3716 51.3459 86.9165C55.0626 85.2023 58.9968 83.9553 63.0309 83.115C65.0465 82.6777 67.098 82.4104 69.1604 82.1976L72.2894 82.0048L75.7596 81.895L82.0579 81.6963L81.8719 75.7827C81.6633 69.1484 82.3496 62.4574 83.9737 55.9592C83.9571 56.9343 83.9297 57.9094 83.9346 58.8849L83.9343 58.9025C83.9392 57.8753 83.9775 56.8492 84.0057 55.8228C84.6055 53.443 85.3234 51.0876 86.1817 48.773C89.3452 40.0843 94.2671 31.9539 100.569 24.9281C106.896 17.9174 114.673 12.1287 123.325 7.85579C132.003 3.63213 141.593 1.03221 151.497 0.228777C141.595 -0.566217 131.382 0.710343 121.758 4.06444C112.099 7.34256 103.089 12.7563 95.3839 19.7248C87.6489 26.6743 81.3119 35.2986 76.8757 44.9C73.3278 52.6329 71.0234 61.0004 70.0965 69.5473C69.5568 69.5462 69.0151 69.5462 68.4801 69.5533C65.9266 69.6465 63.3661 69.8224 60.8256 70.2016C55.7426 70.9322 50.7289 72.2739 45.9269 74.1783C41.1344 76.1053 36.5484 78.5786 32.2952 81.5521C28.0515 84.54 24.1824 88.0615 20.7221 91.9542C13.7986 99.7388 8.72822 109.251 6.13781 119.441C4.83487 124.532 4.12254 129.779 4.01173 135.033C3.90937 140.286 4.47958 145.566 5.61262 150.721C7.85725 161.048 12.642 170.814 19.366 178.97C26.1122 187.099 34.7034 193.736 44.422 197.97C49.2634 200.114 54.3661 201.666 59.5719 202.601C60.8728 202.843 62.1775 203.055 63.4917 203.197C64.8017 203.382 66.118 203.479 67.4353 203.568C68.7513 203.691 70.0708 203.675 71.3889 203.715L73.2103 203.726L74.9456 203.721L79.3624 203.684C90.3009 203.789 101.239 203.833 112.178 203.754C137.902 203.604 163.626 202.93 189.35 201.838L189.934 201.815C190.059 201.81 190.178 201.781 190.301 201.768C198.121 201.544 205.941 201.31 213.761 201.042L227.643 200.53L231.131 200.397C232.385 200.31 233.64 200.283 234.887 200.135C237.381 199.868 239.864 199.513 242.302 198.953C252.099 196.885 261.214 192.313 268.786 186.111C284.097 173.767 292.354 154.03 290.757 135.495Z" fill="url(#paint2_linear_1201_6)"/>
</g>
<defs>
<filter id="filter0_d_1201_6" x="0" y="0" width="294.953" height="211.794" filterUnits="userSpaceOnUse" color-interpolation-filters="sRGB">
<feFlood flood-opacity="0" result="BackgroundImageFix"/>
<feColorMatrix in="SourceAlpha" type="matrix" values="0 0 0 0 0 0 0 0 0 0 0 0 0 0 0 0 0 0 127 0" result="hardAlpha"/>
<feOffset dy="4"/>
<feGaussianBlur stdDeviation="2"/>
<feComposite in2="hardAlpha" operator="out"/>
<feColorMatrix type="matrix" values="0 0 0 0 0 0 0 0 0 0 0 0 0 0 0 0 0 0 0.25 0"/>
<feBlend mode="normal" in2="BackgroundImageFix" result="effect1_dropShadow_1201_6"/>
<feBlend mode="normal" in="SourceGraphic" in2="effect1_dropShadow_1201_6" result="shape"/>
</filter>
<linearGradient id="paint0_linear_1201_6" x1="171.819" y1="121.668" x2="288.44" y2="121.668" gradientUnits="userSpaceOnUse">
<stop stop-color="#00E0FF"/>
<stop offset="1" stop-color="#008799"/>
</linearGradient>
<linearGradient id="paint1_linear_1201_6" x1="267.843" y1="143.434" x2="203.105" y2="152.515" gradientUnits="userSpaceOnUse">
<stop stop-color="#00E0FF"/>
<stop offset="1" stop-color="#008799"/>
</linearGradient>
<linearGradient id="paint2_linear_1201_6" x1="74.5" y1="102" x2="290.953" y2="101.897" gradientUnits="userSpaceOnUse">
<stop stop-color="#00E0FF"/>
<stop offset="1" stop-color="#008799"/>
</linearGradient>
</defs>
</svg>
