<svg width="547" height="360" viewBox="0 0 547 360" fill="none" xmlns="http://www.w3.org/2000/svg">
<g filter="url(#filter0_d_1196_2)">
<path d="M187.031 108.168L187.031 108.133" stroke="white"/>
<path d="M330.489 191.627C349.992 145.596 403.21 124.051 449.355 143.508C476.352 154.891 494.922 177.791 501.795 204.052C492.176 189.459 478.285 177.441 460.949 170.131C414.297 150.46 360.492 172.241 340.773 218.781C333.445 236.076 331.879 254.352 335.171 271.506C321.757 247.892 319.078 218.558 330.489 191.627Z" fill="white" stroke="white"/>
<path d="M467.759 246.764C460.548 273.717 432.805 289.752 405.791 282.576C390.449 278.5 378.655 267.81 372.64 254.397C379.037 261.291 387.395 266.528 397.169 269.124C424.715 276.442 453.006 260.093 460.36 232.605C462.969 222.851 462.58 213.009 459.774 204.039C468.436 215.923 471.854 231.455 467.759 246.764Z" fill="white" stroke="white"/>
<path d="M245.635 23.8774C258.398 19.4292 271.836 17.358 285.059 17.6548C271.943 19.3871 259.283 23.1633 247.673 28.814L247.67 28.8149C234.25 35.4433 222.18 44.4248 212.36 55.3062L212.359 55.3071C202.583 66.2077 194.944 78.8236 190.034 92.3091C188.701 95.9036 187.587 99.56 186.656 103.252L186.643 103.306L186.642 103.362C186.641 103.397 186.639 103.433 186.638 103.468L186.606 103.464C184.086 113.55 183.021 123.935 183.345 134.23L183.615 142.867L174.385 143.159L169.022 143.328L169.016 143.329H169.008L164.174 143.626L164.163 143.627L164.153 143.628C161.358 143.917 158.566 144.271 155.808 144.811L154.632 145.053C148.366 146.359 142.25 148.296 136.47 150.962L136.469 150.963C124.945 156.332 114.69 164.26 106.759 174.03C102.754 178.889 99.4165 184.25 96.6807 189.857C93.9262 195.459 91.7998 201.359 90.4639 207.438C87.7697 219.551 87.8099 232.341 90.709 244.342V244.343C93.545 256.388 99.3683 267.606 107.205 277.12L107.208 277.124C111.183 281.842 115.685 286.114 120.601 289.833V289.834C125.522 293.566 130.911 296.625 136.505 299.162H136.506C142.119 301.696 148.039 303.531 154.099 304.653V304.654C155.606 304.946 157.129 305.206 158.671 305.375C160.199 305.609 161.739 305.721 163.256 305.834V305.835C164.8 306.003 166.403 305.971 167.891 306.037V306.038C168.619 306.072 169.582 306.066 170.459 306.07H170.46L173.139 306.077V306.078L179.954 306.135H179.964C196.865 305.973 213.766 305.904 230.665 306.027H230.666C253.188 306.158 275.712 306.575 298.235 307.197L300.136 307.25L298.507 306.269C292.619 302.724 286.891 298.945 281.383 294.898V294.897C261.548 280.36 244.393 262.6 230.404 242.873V242.872L229.098 241.017C215.704 221.794 205.426 200.637 198.382 178.573C196.749 173.395 195.297 168.164 194.026 162.894C195.281 167.397 196.692 171.854 198.265 176.252L199.03 178.354C207.201 200.761 219.505 221.512 234.733 239.515C249.99 257.528 268.3 272.67 288.285 284.462C308.013 296.099 329.471 304.3 351.45 309.088L351.495 309.099L351.542 309.1C363.563 309.445 375.583 309.803 387.603 310.215V310.216L409.051 311.007H409.052L414.385 311.197L414.394 311.198H414.402C415.994 311.2 417.689 311.286 419.33 311.236C422.614 311.162 425.925 310.984 429.211 310.514L429.21 310.513C442.344 308.809 455.198 304.016 466.525 296.535L466.53 296.532C477.766 288.946 487.491 278.774 494.549 266.747L494.55 266.748C500.61 256.443 504.605 244.805 506.378 232.646C506.666 259.266 494.171 286.677 472.324 304.289L472.321 304.291C460.68 313.827 446.669 320.852 431.615 324.031L431.606 324.033C427.866 324.891 424.05 325.438 420.208 325.849L420.202 325.85C418.295 326.076 416.405 326.115 414.439 326.25L409.05 326.457L387.604 327.248C375.523 327.662 363.442 328.024 351.359 328.371H351.342L351.324 328.373C351.212 328.384 351.098 328.403 351.015 328.416L350.786 328.442L349.885 328.478H349.884C310.144 330.165 270.404 331.207 230.666 331.437H230.665C213.768 331.56 196.871 331.492 179.972 331.33H179.963L173.139 331.387L170.463 331.394L167.662 331.378H167.663C165.597 331.314 163.598 331.341 161.585 331.153L161.572 331.152L160.049 331.044C158.529 330.931 157.018 330.795 155.516 330.583L155.508 330.581H155.499C153.486 330.363 151.483 330.038 149.48 329.665H149.478C141.473 328.226 133.627 325.841 126.185 322.544L126.182 322.542L124.786 321.922C110.419 315.395 97.7054 305.438 87.6533 293.326H87.6523C77.3139 280.784 69.9585 265.768 66.5078 249.892L66.5068 249.891C64.7641 241.962 63.8877 233.844 64.0449 225.77C64.2153 217.691 65.3109 209.621 67.3145 201.792L67.3154 201.792C71.298 186.125 79.0933 171.501 89.7373 159.533C95.0603 153.545 101.01 148.129 107.532 143.537C114.071 138.965 121.123 135.164 128.491 132.201C135.875 129.272 143.583 127.21 151.397 126.086L151.4 126.085C155.3 125.503 159.236 125.233 163.171 125.089L163.17 125.088C163.989 125.078 164.819 125.079 165.649 125.081L166.099 125.082L166.147 124.634C167.574 111.482 171.12 98.6067 176.579 86.7085C183.405 71.9341 193.156 58.6643 205.056 47.9731L205.057 47.9722C216.913 37.2485 230.776 28.9201 245.632 23.8784L245.635 23.8774Z" fill="white" stroke="white"/>
</g>
<defs>
<filter id="filter0_d_1196_2" x="59.5273" y="17.1255" width="451.359" height="322.875" filterUnits="userSpaceOnUse" color-interpolation-filters="sRGB">
<feFlood flood-opacity="0" result="BackgroundImageFix"/>
<feColorMatrix in="SourceAlpha" type="matrix" values="0 0 0 0 0 0 0 0 0 0 0 0 0 0 0 0 0 0 127 0" result="hardAlpha"/>
<feOffset dy="4"/>
<feGaussianBlur stdDeviation="2"/>
<feComposite in2="hardAlpha" operator="out"/>
<feColorMatrix type="matrix" values="0 0 0 0 0 0 0 0 0 0 0 0 0 0 0 0 0 0 0.25 0"/>
<feBlend mode="normal" in2="BackgroundImageFix" result="effect1_dropShadow_1196_2"/>
<feBlend mode="normal" in="SourceGraphic" in2="effect1_dropShadow_1196_2" result="shape"/>
</filter>
</defs>
</svg>
