<svg width="547" height="360" viewBox="0 0 547 360" fill="none" xmlns="http://www.w3.org/2000/svg">
<g filter="url(#filter0_d_1201_2)">
<path fill-rule="evenodd" clip-rule="evenodd" d="M436.063 175.805C453.039 182.963 466.444 194.999 475.375 209.573C469.553 183.859 451.835 161.22 425.636 150.173C382.461 131.969 332.667 152.127 314.418 195.197C303.345 221.332 306.452 249.886 320.237 272.377C316.462 255.714 317.669 237.764 324.845 220.828C343.093 177.758 392.887 157.6 436.063 175.805Z" fill="url(#paint0_linear_1201_2)"/>
<path fill-rule="evenodd" clip-rule="evenodd" d="M377.014 267.043C367.033 264.392 358.654 258.754 352.562 251.359C357.796 265.18 369.394 276.368 384.798 280.46C410.182 287.203 436.254 272.136 443.03 246.806C447.142 231.436 443.194 215.828 433.791 204.416C437.183 213.372 437.911 223.43 435.247 233.39C428.47 258.72 402.399 273.787 377.014 267.043Z" fill="url(#paint1_linear_1201_2)"/>
<path fill-rule="evenodd" clip-rule="evenodd" d="M478.708 227.804C477.601 241.107 473.652 253.918 467.109 265.045C460.577 276.175 451.576 285.589 441.177 292.61C430.693 299.534 418.797 303.97 406.645 305.546C403.612 305.979 400.551 306.145 397.503 306.214C395.979 306.26 394.451 306.18 392.931 306.178L387.968 306.001L368.01 305.265C356.823 304.881 345.637 304.547 334.45 304.226C314.045 299.78 294.124 292.166 275.811 281.364C257.257 270.416 240.26 256.359 226.099 239.64C211.962 222.926 200.54 203.664 192.957 182.866C185.258 162.106 181.435 139.892 181.354 117.686L181.355 117.717C181.306 139.923 184.772 162.119 191.474 183.373C198.254 204.611 208.248 224.949 221.336 243.333C234.38 261.729 250.377 278.292 268.877 291.85C274.014 295.626 279.357 299.15 284.846 302.455C263.885 301.877 242.923 301.488 221.961 301.366C206.232 301.252 190.503 301.316 174.774 301.467L168.431 301.413L165.936 301.406C165.11 301.402 164.231 301.408 163.566 301.376C162.138 301.313 160.702 301.345 159.282 301.19C157.857 301.084 156.432 300.98 155.022 300.763C153.603 300.608 152.198 300.368 150.799 300.096C145.195 299.059 139.721 297.362 134.531 295.019C129.351 292.671 124.367 289.84 119.82 286.393C115.274 282.952 111.11 279.001 107.433 274.636C100.182 265.834 94.7988 255.459 92.1775 244.326C89.4961 233.229 89.4581 221.398 91.9504 210.193C93.185 204.575 95.1508 199.118 97.6992 193.936C100.231 188.747 103.318 183.791 107.018 179.3C114.353 170.264 123.839 162.929 134.501 157.962C139.845 155.498 145.501 153.705 151.301 152.496C154.199 151.868 157.148 151.483 160.114 151.177L164.612 150.9L169.601 150.743L178.657 150.457L178.389 141.955C178.089 132.416 179.076 122.797 181.411 113.454C181.387 114.856 181.348 116.258 181.355 117.66L181.354 117.686C181.362 116.209 181.417 114.734 181.457 113.258C182.319 109.836 183.352 106.45 184.586 103.122C189.134 90.6303 196.21 78.941 205.27 68.8398C214.366 58.7603 225.549 50.4377 237.987 44.2945C250.464 38.222 264.252 34.484 278.492 33.3289C264.255 32.1859 249.571 34.0213 235.735 38.8436C221.847 43.5566 208.893 51.34 197.816 61.3588C186.695 71.3503 177.584 83.7496 171.206 97.5539C166.105 108.672 162.792 120.702 161.459 132.99C160.684 132.988 159.905 132.988 159.136 132.998C155.464 133.133 151.783 133.385 148.131 133.931C140.823 134.981 133.614 136.91 126.71 139.648C119.82 142.418 113.227 145.974 107.112 150.249C101.01 154.545 95.4477 159.608 90.4727 165.205C80.5186 176.397 73.2288 190.072 69.5045 204.723C67.6312 212.042 66.6071 219.586 66.4478 227.14C66.3006 234.693 67.1204 242.284 68.7494 249.695C71.9766 264.543 78.8557 278.583 88.523 290.31C98.2222 301.997 110.574 311.539 124.547 317.627C131.507 320.71 138.844 322.94 146.328 324.285C148.198 324.633 150.074 324.938 151.964 325.141C153.847 325.408 155.739 325.546 157.633 325.675C159.525 325.851 161.423 325.828 163.318 325.887L165.936 325.903L168.431 325.895L174.781 325.841C190.508 325.992 206.235 326.056 221.961 325.942C258.945 325.727 295.93 324.758 332.914 323.188L333.753 323.154C333.932 323.147 334.103 323.105 334.28 323.088C345.524 322.765 356.767 322.429 368.01 322.043L387.968 321.307L392.983 321.115C394.786 320.99 396.59 320.952 398.383 320.739C401.968 320.356 405.538 319.844 409.044 319.04C423.13 316.066 436.234 309.494 447.121 300.576C469.134 282.83 481.004 254.453 478.708 227.804Z" fill="url(#paint2_linear_1201_2)"/>
</g>
<defs>
<filter id="filter0_d_1201_2" x="62.4309" y="33" width="420.559" height="301" filterUnits="userSpaceOnUse" color-interpolation-filters="sRGB">
<feFlood flood-opacity="0" result="BackgroundImageFix"/>
<feColorMatrix in="SourceAlpha" type="matrix" values="0 0 0 0 0 0 0 0 0 0 0 0 0 0 0 0 0 0 127 0" result="hardAlpha"/>
<feOffset dy="4"/>
<feGaussianBlur stdDeviation="2"/>
<feComposite in2="hardAlpha" operator="out"/>
<feColorMatrix type="matrix" values="0 0 0 0 0 0 0 0 0 0 0 0 0 0 0 0 0 0 0.25 0"/>
<feBlend mode="normal" in2="BackgroundImageFix" result="effect1_dropShadow_1201_2"/>
<feBlend mode="normal" in="SourceGraphic" in2="effect1_dropShadow_1201_2" result="shape"/>
</filter>
<linearGradient id="paint0_linear_1201_2" x1="307.708" y1="207.924" x2="475.377" y2="207.924" gradientUnits="userSpaceOnUse">
<stop stop-color="#00E0FF"/>
<stop offset="1" stop-color="#008799"/>
</linearGradient>
<linearGradient id="paint1_linear_1201_2" x1="445.764" y1="239.219" x2="352.689" y2="252.275" gradientUnits="userSpaceOnUse">
<stop stop-color="#00E0FF"/>
<stop offset="1" stop-color="#008799"/>
</linearGradient>
<linearGradient id="paint2_linear_1201_2" x1="167.791" y1="179.648" x2="478.99" y2="179.5" gradientUnits="userSpaceOnUse">
<stop stop-color="#00E0FF"/>
<stop offset="1" stop-color="#008799"/>
</linearGradient>
</defs>
</svg>
