<svg width="547" height="360" viewBox="0 0 547 360" fill="none" xmlns="http://www.w3.org/2000/svg">
<path d="M68.375 296.766H71.375C71.2188 298.203 70.8073 299.49 70.1406 300.625C69.474 301.76 68.5312 302.661 67.3125 303.328C66.0938 303.984 64.5729 304.312 62.75 304.312C61.4167 304.312 60.2031 304.062 59.1094 303.562C58.026 303.062 57.0938 302.354 56.3125 301.438C55.5312 300.51 54.9271 299.401 54.5 298.109C54.0833 296.807 53.875 295.359 53.875 293.766V291.5C53.875 289.906 54.0833 288.464 54.5 287.172C54.9271 285.87 55.5365 284.755 56.3281 283.828C57.1302 282.901 58.0938 282.188 59.2188 281.688C60.3438 281.188 61.6094 280.938 63.0156 280.938C64.7344 280.938 66.1875 281.26 67.375 281.906C68.5625 282.552 69.4844 283.448 70.1406 284.594C70.8073 285.729 71.2188 287.047 71.375 288.547H68.375C68.2292 287.484 67.9583 286.573 67.5625 285.812C67.1667 285.042 66.6042 284.448 65.875 284.031C65.1458 283.615 64.1927 283.406 63.0156 283.406C62.0052 283.406 61.1146 283.599 60.3438 283.984C59.5833 284.37 58.9427 284.917 58.4219 285.625C57.9115 286.333 57.526 287.182 57.2656 288.172C57.0052 289.161 56.875 290.26 56.875 291.469V293.766C56.875 294.88 56.9896 295.927 57.2188 296.906C57.4583 297.885 57.8177 298.745 58.2969 299.484C58.776 300.224 59.3854 300.807 60.125 301.234C60.8646 301.651 61.7396 301.859 62.75 301.859C64.0312 301.859 65.0521 301.656 65.8125 301.25C66.5729 300.844 67.1458 300.26 67.5312 299.5C67.9271 298.74 68.2083 297.828 68.375 296.766ZM73.9813 295.734V295.375C73.9813 294.156 74.1583 293.026 74.5125 291.984C74.8667 290.932 75.3771 290.021 76.0438 289.25C76.7104 288.469 77.5177 287.865 78.4656 287.438C79.4135 287 80.476 286.781 81.6531 286.781C82.8406 286.781 83.9083 287 84.8563 287.438C85.8146 287.865 86.6271 288.469 87.2938 289.25C87.9708 290.021 88.4865 290.932 88.8406 291.984C89.1948 293.026 89.3719 294.156 89.3719 295.375V295.734C89.3719 296.953 89.1948 298.083 88.8406 299.125C88.4865 300.167 87.9708 301.078 87.2938 301.859C86.6271 302.63 85.8198 303.234 84.8719 303.672C83.9344 304.099 82.8719 304.312 81.6844 304.312C80.4969 304.312 79.4292 304.099 78.4813 303.672C77.5333 303.234 76.7208 302.63 76.0438 301.859C75.3771 301.078 74.8667 300.167 74.5125 299.125C74.1583 298.083 73.9813 296.953 73.9813 295.734ZM76.8719 295.375V295.734C76.8719 296.578 76.9708 297.375 77.1688 298.125C77.3667 298.865 77.6635 299.521 78.0594 300.094C78.4656 300.667 78.9708 301.12 79.575 301.453C80.1792 301.776 80.8823 301.938 81.6844 301.938C82.476 301.938 83.1688 301.776 83.7625 301.453C84.3667 301.12 84.8667 300.667 85.2625 300.094C85.6583 299.521 85.9552 298.865 86.1531 298.125C86.3615 297.375 86.4656 296.578 86.4656 295.734V295.375C86.4656 294.542 86.3615 293.755 86.1531 293.016C85.9552 292.266 85.6531 291.604 85.2469 291.031C84.851 290.448 84.351 289.99 83.7469 289.656C83.1531 289.323 82.4552 289.156 81.6531 289.156C80.8615 289.156 80.1635 289.323 79.5594 289.656C78.9656 289.99 78.4656 290.448 78.0594 291.031C77.6635 291.604 77.3667 292.266 77.1688 293.016C76.9708 293.755 76.8719 294.542 76.8719 295.375ZM95.5875 290.703V304H92.6969V287.094H95.4313L95.5875 290.703ZM94.9 294.906L93.6969 294.859C93.7073 293.703 93.8792 292.635 94.2125 291.656C94.5458 290.667 95.0146 289.807 95.6188 289.078C96.2229 288.349 96.9417 287.786 97.775 287.391C98.6188 286.984 99.551 286.781 100.572 286.781C101.405 286.781 102.155 286.896 102.822 287.125C103.489 287.344 104.056 287.698 104.525 288.188C105.004 288.677 105.369 289.312 105.619 290.094C105.869 290.865 105.994 291.807 105.994 292.922V304H103.088V292.891C103.088 292.005 102.957 291.297 102.697 290.766C102.436 290.224 102.056 289.833 101.556 289.594C101.056 289.344 100.442 289.219 99.7125 289.219C98.9938 289.219 98.3375 289.37 97.7438 289.672C97.1604 289.974 96.6552 290.391 96.2281 290.922C95.8115 291.453 95.4833 292.062 95.2438 292.75C95.0146 293.427 94.9 294.146 94.9 294.906ZM112.975 290.703V304H110.084V287.094H112.819L112.975 290.703ZM112.287 294.906L111.084 294.859C111.095 293.703 111.267 292.635 111.6 291.656C111.933 290.667 112.402 289.807 113.006 289.078C113.61 288.349 114.329 287.786 115.162 287.391C116.006 286.984 116.939 286.781 117.959 286.781C118.793 286.781 119.543 286.896 120.209 287.125C120.876 287.344 121.444 287.698 121.912 288.188C122.392 288.677 122.756 289.312 123.006 290.094C123.256 290.865 123.381 291.807 123.381 292.922V304H120.475V292.891C120.475 292.005 120.345 291.297 120.084 290.766C119.824 290.224 119.444 289.833 118.944 289.594C118.444 289.344 117.829 289.219 117.1 289.219C116.381 289.219 115.725 289.37 115.131 289.672C114.548 289.974 114.043 290.391 113.616 290.922C113.199 291.453 112.871 292.062 112.631 292.75C112.402 293.427 112.287 294.146 112.287 294.906ZM134.488 304.312C133.31 304.312 132.243 304.115 131.284 303.719C130.336 303.312 129.519 302.745 128.831 302.016C128.154 301.286 127.633 300.422 127.269 299.422C126.904 298.422 126.722 297.328 126.722 296.141V295.484C126.722 294.109 126.925 292.885 127.331 291.812C127.738 290.729 128.29 289.812 128.988 289.062C129.685 288.312 130.477 287.745 131.363 287.359C132.248 286.974 133.165 286.781 134.113 286.781C135.321 286.781 136.363 286.99 137.238 287.406C138.123 287.823 138.847 288.406 139.409 289.156C139.972 289.896 140.389 290.771 140.659 291.781C140.93 292.781 141.066 293.875 141.066 295.062V296.359H128.441V294H138.175V293.781C138.133 293.031 137.977 292.302 137.706 291.594C137.446 290.885 137.029 290.302 136.456 289.844C135.883 289.385 135.102 289.156 134.113 289.156C133.456 289.156 132.852 289.297 132.3 289.578C131.748 289.849 131.274 290.255 130.878 290.797C130.482 291.339 130.175 292 129.956 292.781C129.738 293.562 129.628 294.464 129.628 295.484V296.141C129.628 296.943 129.738 297.698 129.956 298.406C130.185 299.104 130.514 299.719 130.941 300.25C131.378 300.781 131.904 301.198 132.519 301.5C133.144 301.802 133.852 301.953 134.644 301.953C135.665 301.953 136.529 301.745 137.238 301.328C137.946 300.911 138.566 300.354 139.097 299.656L140.847 301.047C140.482 301.599 140.019 302.125 139.456 302.625C138.894 303.125 138.201 303.531 137.378 303.844C136.566 304.156 135.602 304.312 134.488 304.312ZM150.906 301.938C151.594 301.938 152.229 301.797 152.812 301.516C153.396 301.234 153.875 300.849 154.25 300.359C154.625 299.859 154.839 299.292 154.891 298.656H157.641C157.589 299.656 157.25 300.589 156.625 301.453C156.01 302.307 155.203 303 154.203 303.531C153.203 304.052 152.104 304.312 150.906 304.312C149.635 304.312 148.526 304.089 147.578 303.641C146.641 303.193 145.859 302.578 145.234 301.797C144.62 301.016 144.156 300.12 143.844 299.109C143.542 298.089 143.391 297.01 143.391 295.875V295.219C143.391 294.083 143.542 293.01 143.844 292C144.156 290.979 144.62 290.078 145.234 289.297C145.859 288.516 146.641 287.901 147.578 287.453C148.526 287.005 149.635 286.781 150.906 286.781C152.229 286.781 153.385 287.052 154.375 287.594C155.365 288.125 156.141 288.854 156.703 289.781C157.276 290.698 157.589 291.74 157.641 292.906H154.891C154.839 292.208 154.641 291.578 154.297 291.016C153.964 290.453 153.505 290.005 152.922 289.672C152.349 289.328 151.677 289.156 150.906 289.156C150.021 289.156 149.276 289.333 148.672 289.688C148.078 290.031 147.604 290.5 147.25 291.094C146.906 291.677 146.656 292.328 146.5 293.047C146.354 293.755 146.281 294.479 146.281 295.219V295.875C146.281 296.615 146.354 297.344 146.5 298.062C146.646 298.781 146.891 299.432 147.234 300.016C147.589 300.599 148.062 301.068 148.656 301.422C149.26 301.766 150.01 301.938 150.906 301.938ZM167.669 287.094V289.312H158.528V287.094H167.669ZM161.622 282.984H164.512V299.812C164.512 300.385 164.601 300.818 164.778 301.109C164.955 301.401 165.184 301.594 165.466 301.688C165.747 301.781 166.049 301.828 166.372 301.828C166.611 301.828 166.861 301.807 167.122 301.766C167.393 301.714 167.596 301.672 167.731 301.641L167.747 304C167.518 304.073 167.216 304.141 166.841 304.203C166.476 304.276 166.033 304.312 165.512 304.312C164.804 304.312 164.153 304.172 163.559 303.891C162.966 303.609 162.492 303.141 162.137 302.484C161.794 301.818 161.622 300.922 161.622 299.797V282.984ZM190.959 298.25C190.959 297.719 190.876 297.25 190.709 296.844C190.553 296.427 190.272 296.052 189.866 295.719C189.47 295.385 188.918 295.068 188.209 294.766C187.511 294.464 186.626 294.156 185.553 293.844C184.428 293.51 183.412 293.141 182.506 292.734C181.6 292.318 180.824 291.844 180.178 291.312C179.532 290.781 179.037 290.172 178.694 289.484C178.35 288.797 178.178 288.01 178.178 287.125C178.178 286.24 178.36 285.422 178.725 284.672C179.09 283.922 179.61 283.271 180.287 282.719C180.975 282.156 181.793 281.719 182.741 281.406C183.689 281.094 184.746 280.938 185.912 280.938C187.621 280.938 189.069 281.266 190.256 281.922C191.454 282.568 192.366 283.417 192.991 284.469C193.616 285.51 193.928 286.625 193.928 287.812H190.928C190.928 286.958 190.746 286.203 190.381 285.547C190.017 284.88 189.465 284.359 188.725 283.984C187.985 283.599 187.048 283.406 185.912 283.406C184.84 283.406 183.954 283.568 183.256 283.891C182.558 284.214 182.037 284.651 181.694 285.203C181.36 285.755 181.194 286.385 181.194 287.094C181.194 287.573 181.293 288.01 181.491 288.406C181.699 288.792 182.017 289.151 182.444 289.484C182.881 289.818 183.433 290.125 184.1 290.406C184.777 290.688 185.584 290.958 186.522 291.219C187.814 291.583 188.928 291.99 189.866 292.438C190.803 292.885 191.574 293.391 192.178 293.953C192.793 294.505 193.246 295.135 193.537 295.844C193.84 296.542 193.991 297.333 193.991 298.219C193.991 299.146 193.803 299.984 193.428 300.734C193.053 301.484 192.517 302.125 191.819 302.656C191.121 303.188 190.282 303.599 189.303 303.891C188.334 304.172 187.251 304.312 186.053 304.312C185.001 304.312 183.965 304.167 182.944 303.875C181.933 303.583 181.011 303.146 180.178 302.562C179.355 301.979 178.694 301.26 178.194 300.406C177.704 299.542 177.459 298.542 177.459 297.406H180.459C180.459 298.188 180.61 298.859 180.912 299.422C181.215 299.974 181.626 300.432 182.147 300.797C182.678 301.161 183.277 301.432 183.944 301.609C184.621 301.776 185.324 301.859 186.053 301.859C187.105 301.859 187.996 301.714 188.725 301.422C189.454 301.13 190.006 300.714 190.381 300.172C190.767 299.63 190.959 298.99 190.959 298.25ZM204.113 304.312C202.935 304.312 201.868 304.115 200.909 303.719C199.961 303.312 199.144 302.745 198.456 302.016C197.779 301.286 197.258 300.422 196.894 299.422C196.529 298.422 196.347 297.328 196.347 296.141V295.484C196.347 294.109 196.55 292.885 196.956 291.812C197.363 290.729 197.915 289.812 198.613 289.062C199.31 288.312 200.102 287.745 200.988 287.359C201.873 286.974 202.79 286.781 203.738 286.781C204.946 286.781 205.988 286.99 206.863 287.406C207.748 287.823 208.472 288.406 209.034 289.156C209.597 289.896 210.014 290.771 210.284 291.781C210.555 292.781 210.691 293.875 210.691 295.062V296.359H198.066V294H207.8V293.781C207.758 293.031 207.602 292.302 207.331 291.594C207.071 290.885 206.654 290.302 206.081 289.844C205.508 289.385 204.727 289.156 203.738 289.156C203.081 289.156 202.477 289.297 201.925 289.578C201.373 289.849 200.899 290.255 200.503 290.797C200.107 291.339 199.8 292 199.581 292.781C199.363 293.562 199.253 294.464 199.253 295.484V296.141C199.253 296.943 199.363 297.698 199.581 298.406C199.81 299.104 200.139 299.719 200.566 300.25C201.003 300.781 201.529 301.198 202.144 301.5C202.769 301.802 203.477 301.953 204.269 301.953C205.29 301.953 206.154 301.745 206.863 301.328C207.571 300.911 208.191 300.354 208.722 299.656L210.472 301.047C210.107 301.599 209.644 302.125 209.081 302.625C208.519 303.125 207.826 303.531 207.003 303.844C206.191 304.156 205.227 304.312 204.113 304.312ZM223.734 301.109V292.406C223.734 291.74 223.599 291.161 223.328 290.672C223.068 290.172 222.672 289.786 222.141 289.516C221.609 289.245 220.953 289.109 220.172 289.109C219.443 289.109 218.802 289.234 218.25 289.484C217.708 289.734 217.281 290.062 216.969 290.469C216.667 290.875 216.516 291.312 216.516 291.781H213.625C213.625 291.177 213.781 290.578 214.094 289.984C214.406 289.391 214.854 288.854 215.438 288.375C216.031 287.885 216.74 287.5 217.562 287.219C218.396 286.927 219.323 286.781 220.344 286.781C221.573 286.781 222.656 286.99 223.594 287.406C224.542 287.823 225.281 288.453 225.812 289.297C226.354 290.13 226.625 291.177 226.625 292.438V300.312C226.625 300.875 226.672 301.474 226.766 302.109C226.87 302.745 227.021 303.292 227.219 303.75V304H224.203C224.057 303.667 223.943 303.224 223.859 302.672C223.776 302.109 223.734 301.589 223.734 301.109ZM224.234 293.75L224.266 295.781H221.344C220.521 295.781 219.786 295.849 219.141 295.984C218.495 296.109 217.953 296.302 217.516 296.562C217.078 296.823 216.745 297.151 216.516 297.547C216.286 297.932 216.172 298.385 216.172 298.906C216.172 299.438 216.292 299.922 216.531 300.359C216.771 300.797 217.13 301.146 217.609 301.406C218.099 301.656 218.698 301.781 219.406 301.781C220.292 301.781 221.073 301.594 221.75 301.219C222.427 300.844 222.964 300.385 223.359 299.844C223.766 299.302 223.984 298.776 224.016 298.266L225.25 299.656C225.177 300.094 224.979 300.578 224.656 301.109C224.333 301.641 223.901 302.151 223.359 302.641C222.828 303.12 222.193 303.521 221.453 303.844C220.724 304.156 219.901 304.312 218.984 304.312C217.839 304.312 216.833 304.089 215.969 303.641C215.115 303.193 214.448 302.594 213.969 301.844C213.5 301.083 213.266 300.234 213.266 299.297C213.266 298.391 213.443 297.594 213.797 296.906C214.151 296.208 214.661 295.63 215.328 295.172C215.995 294.703 216.797 294.349 217.734 294.109C218.672 293.87 219.719 293.75 220.875 293.75H224.234ZM233.747 290.453V304H230.841V287.094H233.591L233.747 290.453ZM233.153 294.906L231.809 294.859C231.82 293.703 231.971 292.635 232.262 291.656C232.554 290.667 232.986 289.807 233.559 289.078C234.132 288.349 234.846 287.786 235.7 287.391C236.554 286.984 237.544 286.781 238.669 286.781C239.46 286.781 240.19 286.896 240.856 287.125C241.523 287.344 242.101 287.693 242.591 288.172C243.08 288.651 243.46 289.266 243.731 290.016C244.002 290.766 244.137 291.672 244.137 292.734V304H241.247V292.875C241.247 291.99 241.096 291.281 240.794 290.75C240.502 290.219 240.085 289.833 239.544 289.594C239.002 289.344 238.367 289.219 237.637 289.219C236.783 289.219 236.07 289.37 235.497 289.672C234.924 289.974 234.466 290.391 234.122 290.922C233.778 291.453 233.528 292.062 233.372 292.75C233.226 293.427 233.153 294.146 233.153 294.906ZM244.106 293.312L242.169 293.906C242.179 292.979 242.33 292.089 242.622 291.234C242.924 290.38 243.356 289.62 243.919 288.953C244.492 288.286 245.195 287.76 246.028 287.375C246.861 286.979 247.815 286.781 248.887 286.781C249.794 286.781 250.596 286.901 251.294 287.141C252.002 287.38 252.596 287.75 253.075 288.25C253.565 288.74 253.934 289.37 254.184 290.141C254.434 290.911 254.559 291.828 254.559 292.891V304H251.653V292.859C251.653 291.911 251.502 291.177 251.2 290.656C250.908 290.125 250.492 289.755 249.95 289.547C249.419 289.328 248.783 289.219 248.044 289.219C247.408 289.219 246.846 289.328 246.356 289.547C245.867 289.766 245.455 290.068 245.122 290.453C244.789 290.828 244.533 291.26 244.356 291.75C244.19 292.24 244.106 292.76 244.106 293.312ZM261.775 280V304H258.869V280H261.775ZM273.131 304.312C271.954 304.312 270.886 304.115 269.928 303.719C268.98 303.312 268.163 302.745 267.475 302.016C266.798 301.286 266.277 300.422 265.913 299.422C265.548 298.422 265.366 297.328 265.366 296.141V295.484C265.366 294.109 265.569 292.885 265.975 291.812C266.381 290.729 266.933 289.812 267.631 289.062C268.329 288.312 269.121 287.745 270.006 287.359C270.892 286.974 271.808 286.781 272.756 286.781C273.965 286.781 275.006 286.99 275.881 287.406C276.767 287.823 277.491 288.406 278.053 289.156C278.616 289.896 279.032 290.771 279.303 291.781C279.574 292.781 279.709 293.875 279.709 295.062V296.359H267.084V294H276.819V293.781C276.777 293.031 276.621 292.302 276.35 291.594C276.09 290.885 275.673 290.302 275.1 289.844C274.527 289.385 273.746 289.156 272.756 289.156C272.1 289.156 271.496 289.297 270.944 289.578C270.392 289.849 269.918 290.255 269.522 290.797C269.126 291.339 268.819 292 268.6 292.781C268.381 293.562 268.272 294.464 268.272 295.484V296.141C268.272 296.943 268.381 297.698 268.6 298.406C268.829 299.104 269.157 299.719 269.584 300.25C270.022 300.781 270.548 301.198 271.163 301.5C271.788 301.802 272.496 301.953 273.288 301.953C274.308 301.953 275.173 301.745 275.881 301.328C276.59 300.911 277.209 300.354 277.741 299.656L279.491 301.047C279.126 301.599 278.663 302.125 278.1 302.625C277.538 303.125 276.845 303.531 276.022 303.844C275.209 304.156 274.246 304.312 273.131 304.312ZM292.628 299.516C292.628 299.099 292.534 298.714 292.347 298.359C292.17 297.995 291.8 297.667 291.238 297.375C290.685 297.073 289.852 296.812 288.738 296.594C287.8 296.396 286.951 296.161 286.191 295.891C285.441 295.62 284.8 295.292 284.269 294.906C283.748 294.521 283.347 294.068 283.066 293.547C282.784 293.026 282.644 292.417 282.644 291.719C282.644 291.052 282.79 290.422 283.081 289.828C283.383 289.234 283.805 288.708 284.347 288.25C284.899 287.792 285.56 287.432 286.331 287.172C287.102 286.911 287.961 286.781 288.909 286.781C290.264 286.781 291.42 287.021 292.378 287.5C293.336 287.979 294.071 288.62 294.581 289.422C295.092 290.214 295.347 291.094 295.347 292.062H292.456C292.456 291.594 292.316 291.141 292.034 290.703C291.764 290.255 291.363 289.885 290.831 289.594C290.31 289.302 289.67 289.156 288.909 289.156C288.107 289.156 287.456 289.281 286.956 289.531C286.467 289.771 286.107 290.078 285.878 290.453C285.659 290.828 285.55 291.224 285.55 291.641C285.55 291.953 285.602 292.234 285.706 292.484C285.821 292.724 286.019 292.948 286.3 293.156C286.581 293.354 286.977 293.542 287.488 293.719C287.998 293.896 288.649 294.073 289.441 294.25C290.826 294.562 291.967 294.938 292.863 295.375C293.758 295.812 294.425 296.349 294.863 296.984C295.3 297.62 295.519 298.391 295.519 299.297C295.519 300.036 295.363 300.714 295.05 301.328C294.748 301.943 294.305 302.474 293.722 302.922C293.149 303.359 292.461 303.703 291.659 303.953C290.868 304.193 289.977 304.312 288.988 304.312C287.498 304.312 286.238 304.047 285.206 303.516C284.175 302.984 283.394 302.297 282.863 301.453C282.331 300.609 282.066 299.719 282.066 298.781H284.972C285.014 299.573 285.243 300.203 285.659 300.672C286.076 301.13 286.586 301.458 287.191 301.656C287.795 301.844 288.394 301.938 288.988 301.938C289.779 301.938 290.441 301.833 290.972 301.625C291.514 301.417 291.925 301.13 292.206 300.766C292.488 300.401 292.628 299.984 292.628 299.516ZM308.859 299.516C308.859 299.099 308.766 298.714 308.578 298.359C308.401 297.995 308.031 297.667 307.469 297.375C306.917 297.073 306.083 296.812 304.969 296.594C304.031 296.396 303.182 296.161 302.422 295.891C301.672 295.62 301.031 295.292 300.5 294.906C299.979 294.521 299.578 294.068 299.297 293.547C299.016 293.026 298.875 292.417 298.875 291.719C298.875 291.052 299.021 290.422 299.312 289.828C299.615 289.234 300.036 288.708 300.578 288.25C301.13 287.792 301.792 287.432 302.562 287.172C303.333 286.911 304.193 286.781 305.141 286.781C306.495 286.781 307.651 287.021 308.609 287.5C309.568 287.979 310.302 288.62 310.812 289.422C311.323 290.214 311.578 291.094 311.578 292.062H308.688C308.688 291.594 308.547 291.141 308.266 290.703C307.995 290.255 307.594 289.885 307.062 289.594C306.542 289.302 305.901 289.156 305.141 289.156C304.339 289.156 303.688 289.281 303.188 289.531C302.698 289.771 302.339 290.078 302.109 290.453C301.891 290.828 301.781 291.224 301.781 291.641C301.781 291.953 301.833 292.234 301.938 292.484C302.052 292.724 302.25 292.948 302.531 293.156C302.812 293.354 303.208 293.542 303.719 293.719C304.229 293.896 304.88 294.073 305.672 294.25C307.057 294.562 308.198 294.938 309.094 295.375C309.99 295.812 310.656 296.349 311.094 296.984C311.531 297.62 311.75 298.391 311.75 299.297C311.75 300.036 311.594 300.714 311.281 301.328C310.979 301.943 310.536 302.474 309.953 302.922C309.38 303.359 308.693 303.703 307.891 303.953C307.099 304.193 306.208 304.312 305.219 304.312C303.729 304.312 302.469 304.047 301.438 303.516C300.406 302.984 299.625 302.297 299.094 301.453C298.562 300.609 298.297 299.719 298.297 298.781H301.203C301.245 299.573 301.474 300.203 301.891 300.672C302.307 301.13 302.818 301.458 303.422 301.656C304.026 301.844 304.625 301.938 305.219 301.938C306.01 301.938 306.672 301.833 307.203 301.625C307.745 301.417 308.156 301.13 308.438 300.766C308.719 300.401 308.859 299.984 308.859 299.516ZM318.388 280V304H315.481V280H318.388ZM327.478 302.25L332.181 287.094H335.275L328.494 306.609C328.337 307.026 328.129 307.474 327.869 307.953C327.619 308.443 327.296 308.906 326.9 309.344C326.504 309.781 326.025 310.135 325.462 310.406C324.91 310.688 324.249 310.828 323.478 310.828C323.249 310.828 322.957 310.797 322.603 310.734C322.249 310.672 321.999 310.62 321.853 310.578L321.837 308.234C321.921 308.245 322.051 308.255 322.228 308.266C322.416 308.286 322.546 308.297 322.619 308.297C323.275 308.297 323.832 308.208 324.291 308.031C324.749 307.865 325.134 307.578 325.447 307.172C325.77 306.776 326.046 306.229 326.275 305.531L327.478 302.25ZM324.025 287.094L328.416 300.219L329.166 303.266L327.087 304.328L320.869 287.094H324.025ZM338.522 300.562V302.891C338.522 303.839 338.282 304.839 337.803 305.891C337.324 306.953 336.652 307.839 335.788 308.547L334.147 307.406C334.48 306.948 334.761 306.479 334.991 306C335.22 305.531 335.392 305.042 335.506 304.531C335.631 304.031 335.694 303.5 335.694 302.938V300.562H338.522ZM363.781 301.547V304H352.406V301.547H363.781ZM353 281.25V304H349.984V281.25H353ZM369.638 287.094V304H366.731V287.094H369.638ZM366.513 282.609C366.513 282.141 366.653 281.745 366.934 281.422C367.226 281.099 367.653 280.938 368.216 280.938C368.768 280.938 369.19 281.099 369.481 281.422C369.783 281.745 369.934 282.141 369.934 282.609C369.934 283.057 369.783 283.443 369.481 283.766C369.19 284.078 368.768 284.234 368.216 284.234C367.653 284.234 367.226 284.078 366.934 283.766C366.653 283.443 366.513 283.057 366.513 282.609ZM379.119 301.391L383.744 287.094H386.697L380.619 304H378.681L379.119 301.391ZM375.259 287.094L380.025 301.469L380.353 304H378.416L372.291 287.094H375.259ZM395.975 304.312C394.798 304.312 393.73 304.115 392.772 303.719C391.824 303.312 391.006 302.745 390.319 302.016C389.642 301.286 389.121 300.422 388.756 299.422C388.392 298.422 388.209 297.328 388.209 296.141V295.484C388.209 294.109 388.413 292.885 388.819 291.812C389.225 290.729 389.777 289.812 390.475 289.062C391.173 288.312 391.965 287.745 392.85 287.359C393.735 286.974 394.652 286.781 395.6 286.781C396.808 286.781 397.85 286.99 398.725 287.406C399.61 287.823 400.334 288.406 400.897 289.156C401.459 289.896 401.876 290.771 402.147 291.781C402.418 292.781 402.553 293.875 402.553 295.062V296.359H389.928V294H399.663V293.781C399.621 293.031 399.465 292.302 399.194 291.594C398.933 290.885 398.517 290.302 397.944 289.844C397.371 289.385 396.59 289.156 395.6 289.156C394.944 289.156 394.34 289.297 393.788 289.578C393.235 289.849 392.761 290.255 392.366 290.797C391.97 291.339 391.663 292 391.444 292.781C391.225 293.562 391.116 294.464 391.116 295.484V296.141C391.116 296.943 391.225 297.698 391.444 298.406C391.673 299.104 392.001 299.719 392.428 300.25C392.866 300.781 393.392 301.198 394.006 301.5C394.631 301.802 395.34 301.953 396.131 301.953C397.152 301.953 398.017 301.745 398.725 301.328C399.433 300.911 400.053 300.354 400.584 299.656L402.334 301.047C401.97 301.599 401.506 302.125 400.944 302.625C400.381 303.125 399.689 303.531 398.866 303.844C398.053 304.156 397.09 304.312 395.975 304.312ZM416.719 281.25V304H413.703V281.25H416.719ZM426.25 291.484V293.953H416.062V291.484H426.25ZM427.797 281.25V283.719H416.062V281.25H427.797ZM433.138 289.75V304H430.247V287.094H433.059L433.138 289.75ZM438.419 287L438.403 289.688C438.164 289.635 437.934 289.604 437.716 289.594C437.507 289.573 437.268 289.562 436.997 289.562C436.33 289.562 435.742 289.667 435.231 289.875C434.721 290.083 434.289 290.375 433.934 290.75C433.58 291.125 433.299 291.573 433.091 292.094C432.893 292.604 432.763 293.167 432.7 293.781L431.888 294.25C431.888 293.229 431.986 292.271 432.184 291.375C432.393 290.479 432.71 289.688 433.138 289C433.565 288.302 434.106 287.76 434.763 287.375C435.429 286.979 436.221 286.781 437.138 286.781C437.346 286.781 437.585 286.807 437.856 286.859C438.127 286.901 438.315 286.948 438.419 287ZM447.494 304.312C446.317 304.312 445.249 304.115 444.291 303.719C443.343 303.312 442.525 302.745 441.837 302.016C441.16 301.286 440.64 300.422 440.275 299.422C439.91 298.422 439.728 297.328 439.728 296.141V295.484C439.728 294.109 439.931 292.885 440.337 291.812C440.744 290.729 441.296 289.812 441.994 289.062C442.692 288.312 443.483 287.745 444.369 287.359C445.254 286.974 446.171 286.781 447.119 286.781C448.327 286.781 449.369 286.99 450.244 287.406C451.129 287.823 451.853 288.406 452.416 289.156C452.978 289.896 453.395 290.771 453.666 291.781C453.936 292.781 454.072 293.875 454.072 295.062V296.359H441.447V294H451.181V293.781C451.14 293.031 450.983 292.302 450.712 291.594C450.452 290.885 450.035 290.302 449.462 289.844C448.89 289.385 448.108 289.156 447.119 289.156C446.462 289.156 445.858 289.297 445.306 289.578C444.754 289.849 444.28 290.255 443.884 290.797C443.489 291.339 443.181 292 442.962 292.781C442.744 293.562 442.634 294.464 442.634 295.484V296.141C442.634 296.943 442.744 297.698 442.962 298.406C443.192 299.104 443.52 299.719 443.947 300.25C444.384 300.781 444.91 301.198 445.525 301.5C446.15 301.802 446.858 301.953 447.65 301.953C448.671 301.953 449.535 301.745 450.244 301.328C450.952 300.911 451.572 300.354 452.103 299.656L453.853 301.047C453.489 301.599 453.025 302.125 452.462 302.625C451.9 303.125 451.207 303.531 450.384 303.844C449.572 304.156 448.608 304.312 447.494 304.312ZM464.163 304.312C462.985 304.312 461.918 304.115 460.959 303.719C460.011 303.312 459.194 302.745 458.506 302.016C457.829 301.286 457.308 300.422 456.944 299.422C456.579 298.422 456.397 297.328 456.397 296.141V295.484C456.397 294.109 456.6 292.885 457.006 291.812C457.413 290.729 457.965 289.812 458.663 289.062C459.36 288.312 460.152 287.745 461.038 287.359C461.923 286.974 462.84 286.781 463.788 286.781C464.996 286.781 466.038 286.99 466.913 287.406C467.798 287.823 468.522 288.406 469.084 289.156C469.647 289.896 470.064 290.771 470.334 291.781C470.605 292.781 470.741 293.875 470.741 295.062V296.359H458.116V294H467.85V293.781C467.808 293.031 467.652 292.302 467.381 291.594C467.121 290.885 466.704 290.302 466.131 289.844C465.558 289.385 464.777 289.156 463.788 289.156C463.131 289.156 462.527 289.297 461.975 289.578C461.423 289.849 460.949 290.255 460.553 290.797C460.157 291.339 459.85 292 459.631 292.781C459.413 293.562 459.303 294.464 459.303 295.484V296.141C459.303 296.943 459.413 297.698 459.631 298.406C459.86 299.104 460.189 299.719 460.616 300.25C461.053 300.781 461.579 301.198 462.194 301.5C462.819 301.802 463.527 301.953 464.319 301.953C465.34 301.953 466.204 301.745 466.913 301.328C467.621 300.911 468.241 300.354 468.772 299.656L470.522 301.047C470.157 301.599 469.694 302.125 469.131 302.625C468.569 303.125 467.876 303.531 467.053 303.844C466.241 304.156 465.277 304.312 464.163 304.312ZM476.956 280V304H474.05V280H476.956ZM486.047 302.25L490.75 287.094H493.844L487.062 306.609C486.906 307.026 486.698 307.474 486.438 307.953C486.188 308.443 485.865 308.906 485.469 309.344C485.073 309.781 484.594 310.135 484.031 310.406C483.479 310.688 482.818 310.828 482.047 310.828C481.818 310.828 481.526 310.797 481.172 310.734C480.818 310.672 480.568 310.62 480.422 310.578L480.406 308.234C480.49 308.245 480.62 308.255 480.797 308.266C480.984 308.286 481.115 308.297 481.188 308.297C481.844 308.297 482.401 308.208 482.859 308.031C483.318 307.865 483.703 307.578 484.016 307.172C484.339 306.776 484.615 306.229 484.844 305.531L486.047 302.25ZM482.594 287.094L486.984 300.219L487.734 303.266L485.656 304.328L479.438 287.094H482.594Z" fill="black"/>
<path d="M248.656 83.0938C251.885 83.4479 254.625 84.0417 256.875 84.875C259.125 85.7083 260.948 86.7083 262.344 87.875C263.76 89.0208 264.781 90.3021 265.406 91.7188C266.052 93.1146 266.375 94.5729 266.375 96.0938C266.375 97.8438 266.094 99.3854 265.531 100.719C264.969 102.052 264.219 103.229 263.281 104.25C262.365 105.25 261.302 106.094 260.094 106.781C258.906 107.469 257.677 108.021 256.406 108.438C255.156 108.875 253.917 109.188 252.688 109.375C251.458 109.583 250.354 109.698 249.375 109.719H248.594C247.552 109.698 246.354 109.604 245 109.438C243.667 109.292 242.292 109.052 240.875 108.719C239.479 108.385 238.104 107.958 236.75 107.438C235.396 106.896 234.188 106.229 233.125 105.438C232.062 104.646 231.208 103.708 230.562 102.625C229.917 101.542 229.594 100.281 229.594 98.8438C229.594 98.0729 229.719 97.3958 229.969 96.8125C230.219 96.2292 230.562 95.7396 231 95.3438C231.438 94.9271 231.938 94.6042 232.5 94.375C233.083 94.1458 233.708 94.0104 234.375 93.9688C235.188 93.9688 235.938 94.1458 236.625 94.5C237.333 94.8333 237.948 95.3125 238.469 95.9375C238.99 96.5417 239.406 97.2812 239.719 98.1562C240.052 99.0104 240.24 99.9688 240.281 101.031C240.323 101.885 240.521 102.76 240.875 103.656C241.229 104.552 241.75 105.365 242.438 106.094C243.125 106.823 243.979 107.417 245 107.875C246.021 108.333 247.219 108.562 248.594 108.562C249.677 108.562 250.656 108.344 251.531 107.906C252.427 107.469 253.188 106.885 253.812 106.156C254.438 105.427 254.917 104.583 255.25 103.625C255.583 102.646 255.75 101.625 255.75 100.562C255.75 99.6042 255.583 98.6562 255.25 97.7188C254.917 96.7812 254.396 95.9479 253.688 95.2188C252.979 94.4688 252.073 93.8542 250.969 93.375C249.865 92.8958 248.542 92.625 247 92.5625C243.854 92.4167 241.167 91.9479 238.938 91.1562C236.729 90.3646 234.917 89.3438 233.5 88.0938C232.083 86.8229 231.042 85.375 230.375 83.75C229.729 82.125 229.406 80.4167 229.406 78.625C229.406 76.6875 229.698 74.9896 230.281 73.5312C230.865 72.0521 231.635 70.7812 232.594 69.7188C233.573 68.6354 234.688 67.7396 235.938 67.0312C237.188 66.3021 238.479 65.7188 239.812 65.2812C241.167 64.8438 242.5 64.5417 243.812 64.375C245.146 64.1875 246.375 64.0938 247.5 64.0938H247.875C248.917 64.1146 250.073 64.2083 251.344 64.375C252.635 64.5208 253.938 64.7604 255.25 65.0938C256.583 65.4271 257.865 65.8646 259.094 66.4062C260.344 66.9479 261.448 67.6146 262.406 68.4062C263.385 69.1979 264.167 70.1354 264.75 71.2188C265.333 72.2812 265.625 73.5104 265.625 74.9062C265.625 75.7188 265.49 76.4271 265.219 77.0312C264.948 77.6354 264.583 78.1458 264.125 78.5625C263.688 78.9583 263.167 79.2604 262.562 79.4688C261.958 79.6771 261.333 79.7812 260.688 79.7812C259.896 79.7812 259.156 79.6042 258.469 79.25C257.781 78.8958 257.177 78.4062 256.656 77.7812C256.156 77.1562 255.75 76.4167 255.438 75.5625C255.146 74.6875 255 73.7292 255 72.6875C255 71.7917 254.885 70.9062 254.656 70.0312C254.427 69.1562 254.031 68.375 253.469 67.6875C252.927 66.9792 252.198 66.4062 251.281 65.9688C250.365 65.5312 249.229 65.2917 247.875 65.25H247.562C246.542 65.2917 245.594 65.5938 244.719 66.1562C243.865 66.6979 243.125 67.4167 242.5 68.3125C241.875 69.2083 241.385 70.2188 241.031 71.3438C240.698 72.4479 240.531 73.5729 240.531 74.7188C240.531 75.7188 240.677 76.6875 240.969 77.625C241.281 78.5625 241.76 79.4167 242.406 80.1875C243.073 80.9375 243.917 81.5729 244.938 82.0938C245.958 82.6146 247.198 82.9479 248.656 83.0938ZM269.75 107.094H274.562L275.375 66.7188L269.875 66.5938V65.4375L284.719 65.6875L284.094 95.125L298.5 81.6875L291.125 81.5625V80.4062L306.562 80.6875V81.8125L299.969 81.75L300.094 81.8125L292.094 89.3125L303.688 107.156H307.844V108.312H289.656V107.156H293.125L285.75 95.25L284.094 96.8125L283.844 107.094H286.719V108.25H269.75V107.094ZM332.969 82.2188H343.469V83.375H338.531C335.115 90.4583 332.479 95.7917 330.625 99.375C329.542 101.479 328.594 103.271 327.781 104.75C327.323 105.625 326.812 106.635 326.25 107.781C325.688 108.927 325.052 110.104 324.344 111.312C323.656 112.542 322.896 113.74 322.062 114.906C321.229 116.094 320.323 117.146 319.344 118.062C318.385 119 317.344 119.75 316.219 120.312C315.115 120.896 313.938 121.188 312.688 121.188C311.979 121.188 311.323 121.094 310.719 120.906C310.115 120.719 309.573 120.479 309.094 120.188C308.615 119.917 308.208 119.604 307.875 119.25C307.562 118.896 307.333 118.562 307.188 118.25C306.958 117.729 306.833 117.104 306.812 116.375C306.771 115.646 306.896 114.958 307.188 114.312C307.479 113.667 307.948 113.115 308.594 112.656C309.26 112.219 310.177 112.01 311.344 112.031C312.177 112.052 312.906 112.208 313.531 112.5C314.156 112.792 314.74 113.104 315.281 113.438C315.823 113.792 316.354 114.115 316.875 114.406C317.417 114.719 318 114.885 318.625 114.906C319.375 114.906 320.031 114.708 320.594 114.312C321.156 113.917 321.656 113.417 322.094 112.812C322.531 112.208 322.927 111.552 323.281 110.844C323.635 110.156 323.979 109.51 324.312 108.906L311.469 83.4375L308.125 83.375V82.2188L326.875 82.5938V83.75L322.781 83.6875L329.906 98.2812C330.802 96.5104 331.854 94.4062 333.062 91.9688C334.292 89.5312 335.688 86.6667 337.25 83.375H332.969V82.2188Z" fill="black"/>
<path d="M213.324 135.117C213.324 135.531 213.191 135.906 212.926 136.242C212.66 136.57 212.316 136.852 211.895 137.086C211.48 137.32 211.016 137.508 210.5 137.648C209.992 137.781 209.492 137.852 209 137.859C208.969 137.859 208.898 137.855 208.789 137.848C208.68 137.84 208.547 137.816 208.391 137.777C208.234 137.73 208.059 137.66 207.863 137.566C207.668 137.473 207.473 137.336 207.277 137.156C207.301 137.852 207.363 138.449 207.465 138.949C207.574 139.441 207.715 139.848 207.887 140.168C208.066 140.48 208.273 140.711 208.508 140.859C208.75 141 209.012 141.07 209.293 141.07C209.457 141.07 209.676 141.016 209.949 140.906C210.23 140.797 210.52 140.629 210.816 140.402C211.121 140.176 211.418 139.887 211.707 139.535C211.996 139.184 212.238 138.762 212.434 138.27L212.773 137.402L213.195 137.543L213.008 138.07C212.836 138.531 212.609 138.969 212.328 139.383C212.047 139.797 211.719 140.168 211.344 140.496C210.977 140.816 210.566 141.074 210.113 141.27C209.66 141.473 209.176 141.59 208.66 141.621C207.762 141.59 207 141.43 206.375 141.141C205.75 140.852 205.242 140.484 204.852 140.039C204.461 139.594 204.176 139.098 203.996 138.551C203.824 138.004 203.738 137.453 203.738 136.898C203.738 136.531 203.793 136.133 203.902 135.703C204.02 135.266 204.188 134.828 204.406 134.391C204.625 133.945 204.891 133.516 205.203 133.102C205.523 132.688 205.883 132.32 206.281 132C206.688 131.68 207.129 131.426 207.605 131.238C208.09 131.043 208.609 130.945 209.164 130.945C209.672 130.961 210.125 131.039 210.523 131.18C210.93 131.312 211.285 131.492 211.59 131.719C211.902 131.938 212.168 132.188 212.387 132.469C212.605 132.75 212.785 133.043 212.926 133.348C213.066 133.645 213.168 133.949 213.23 134.262C213.293 134.566 213.324 134.852 213.324 135.117ZM208.977 131.379C208.727 131.395 208.492 131.535 208.273 131.801C208.062 132.066 207.879 132.43 207.723 132.891C207.574 133.344 207.457 133.879 207.371 134.496C207.285 135.113 207.242 135.777 207.242 136.488C207.438 136.715 207.633 136.891 207.828 137.016C208.023 137.141 208.203 137.234 208.367 137.297C208.531 137.352 208.668 137.387 208.777 137.402C208.887 137.418 208.953 137.426 208.977 137.426C209.281 137.418 209.531 137.352 209.727 137.227C209.93 137.102 210.086 136.93 210.195 136.711C210.312 136.492 210.395 136.23 210.441 135.926C210.488 135.621 210.512 135.281 210.512 134.906C210.512 134.438 210.48 133.992 210.418 133.57C210.363 133.141 210.273 132.766 210.148 132.445C210.031 132.117 209.875 131.859 209.68 131.672C209.484 131.477 209.25 131.379 208.977 131.379ZM222.605 131.66C223.816 131.793 224.844 132.016 225.688 132.328C226.531 132.641 227.215 133.016 227.738 133.453C228.27 133.883 228.652 134.363 228.887 134.895C229.129 135.418 229.25 135.965 229.25 136.535C229.25 137.191 229.145 137.77 228.934 138.27C228.723 138.77 228.441 139.211 228.09 139.594C227.746 139.969 227.348 140.285 226.895 140.543C226.449 140.801 225.988 141.008 225.512 141.164C225.043 141.328 224.578 141.445 224.117 141.516C223.656 141.594 223.242 141.637 222.875 141.645H222.582C222.191 141.637 221.742 141.602 221.234 141.539C220.734 141.484 220.219 141.395 219.688 141.27C219.164 141.145 218.648 140.984 218.141 140.789C217.633 140.586 217.18 140.336 216.781 140.039C216.383 139.742 216.062 139.391 215.82 138.984C215.578 138.578 215.457 138.105 215.457 137.566C215.457 137.277 215.504 137.023 215.598 136.805C215.691 136.586 215.82 136.402 215.984 136.254C216.148 136.098 216.336 135.977 216.547 135.891C216.766 135.805 217 135.754 217.25 135.738C217.555 135.738 217.836 135.805 218.094 135.938C218.359 136.062 218.59 136.242 218.785 136.477C218.98 136.703 219.137 136.98 219.254 137.309C219.379 137.629 219.449 137.988 219.465 138.387C219.48 138.707 219.555 139.035 219.688 139.371C219.82 139.707 220.016 140.012 220.273 140.285C220.531 140.559 220.852 140.781 221.234 140.953C221.617 141.125 222.066 141.211 222.582 141.211C222.988 141.211 223.355 141.129 223.684 140.965C224.02 140.801 224.305 140.582 224.539 140.309C224.773 140.035 224.953 139.719 225.078 139.359C225.203 138.992 225.266 138.609 225.266 138.211C225.266 137.852 225.203 137.496 225.078 137.145C224.953 136.793 224.758 136.48 224.492 136.207C224.227 135.926 223.887 135.695 223.473 135.516C223.059 135.336 222.562 135.234 221.984 135.211C220.805 135.156 219.797 134.98 218.961 134.684C218.133 134.387 217.453 134.004 216.922 133.535C216.391 133.059 216 132.516 215.75 131.906C215.508 131.297 215.387 130.656 215.387 129.984C215.387 129.258 215.496 128.621 215.715 128.074C215.934 127.52 216.223 127.043 216.582 126.645C216.949 126.238 217.367 125.902 217.836 125.637C218.305 125.363 218.789 125.145 219.289 124.98C219.797 124.816 220.297 124.703 220.789 124.641C221.289 124.57 221.75 124.535 222.172 124.535H222.312C222.703 124.543 223.137 124.578 223.613 124.641C224.098 124.695 224.586 124.785 225.078 124.91C225.578 125.035 226.059 125.199 226.52 125.402C226.988 125.605 227.402 125.855 227.762 126.152C228.129 126.449 228.422 126.801 228.641 127.207C228.859 127.605 228.969 128.066 228.969 128.59C228.969 128.895 228.918 129.16 228.816 129.387C228.715 129.613 228.578 129.805 228.406 129.961C228.242 130.109 228.047 130.223 227.82 130.301C227.594 130.379 227.359 130.418 227.117 130.418C226.82 130.418 226.543 130.352 226.285 130.219C226.027 130.086 225.801 129.902 225.605 129.668C225.418 129.434 225.266 129.156 225.148 128.836C225.039 128.508 224.984 128.148 224.984 127.758C224.984 127.422 224.941 127.09 224.855 126.762C224.77 126.434 224.621 126.141 224.41 125.883C224.207 125.617 223.934 125.402 223.59 125.238C223.246 125.074 222.82 124.984 222.312 124.969H222.195C221.812 124.984 221.457 125.098 221.129 125.309C220.809 125.512 220.531 125.781 220.297 126.117C220.062 126.453 219.879 126.832 219.746 127.254C219.621 127.668 219.559 128.09 219.559 128.52C219.559 128.895 219.613 129.258 219.723 129.609C219.84 129.961 220.02 130.281 220.262 130.57C220.512 130.852 220.828 131.09 221.211 131.285C221.594 131.48 222.059 131.605 222.605 131.66ZM230.973 140.637H233.738L233.809 124.898L230.809 124.805V124.371L241.051 124.676V125.109L238.531 125.039C238.523 125.141 238.512 125.32 238.496 125.578C238.48 125.836 238.465 126.211 238.449 126.703C238.434 127.195 238.41 127.824 238.379 128.59C238.355 129.355 238.332 130.301 238.309 131.426C238.285 132.543 238.258 133.859 238.227 135.375C238.195 136.891 238.164 138.645 238.133 140.637H241.004V141.07H230.973V140.637ZM242.293 140.543L245.012 140.52L245.246 124.828L242.223 124.781V124.348L248.492 124.418L254.035 135.211L257.914 124.465L264.758 124.535V124.969L262.332 124.945C262.324 125.016 262.312 125.164 262.297 125.391C262.289 125.609 262.273 125.953 262.25 126.422C262.234 126.891 262.215 127.504 262.191 128.262C262.168 129.02 262.141 129.969 262.109 131.109C262.078 132.242 262.047 133.59 262.016 135.152C261.984 136.715 261.953 138.535 261.922 140.613H264.805V141.047H254.773V140.613H257.539L257.82 125.953L252.254 141.293L245.609 128.52L245.434 140.52L248.035 140.496V140.93L242.293 140.977V140.543ZM273.934 131.66C275.145 131.793 276.172 132.016 277.016 132.328C277.859 132.641 278.543 133.016 279.066 133.453C279.598 133.883 279.98 134.363 280.215 134.895C280.457 135.418 280.578 135.965 280.578 136.535C280.578 137.191 280.473 137.77 280.262 138.27C280.051 138.77 279.77 139.211 279.418 139.594C279.074 139.969 278.676 140.285 278.223 140.543C277.777 140.801 277.316 141.008 276.84 141.164C276.371 141.328 275.906 141.445 275.445 141.516C274.984 141.594 274.57 141.637 274.203 141.645H273.91C273.52 141.637 273.07 141.602 272.562 141.539C272.062 141.484 271.547 141.395 271.016 141.27C270.492 141.145 269.977 140.984 269.469 140.789C268.961 140.586 268.508 140.336 268.109 140.039C267.711 139.742 267.391 139.391 267.148 138.984C266.906 138.578 266.785 138.105 266.785 137.566C266.785 137.277 266.832 137.023 266.926 136.805C267.02 136.586 267.148 136.402 267.312 136.254C267.477 136.098 267.664 135.977 267.875 135.891C268.094 135.805 268.328 135.754 268.578 135.738C268.883 135.738 269.164 135.805 269.422 135.938C269.688 136.062 269.918 136.242 270.113 136.477C270.309 136.703 270.465 136.98 270.582 137.309C270.707 137.629 270.777 137.988 270.793 138.387C270.809 138.707 270.883 139.035 271.016 139.371C271.148 139.707 271.344 140.012 271.602 140.285C271.859 140.559 272.18 140.781 272.562 140.953C272.945 141.125 273.395 141.211 273.91 141.211C274.316 141.211 274.684 141.129 275.012 140.965C275.348 140.801 275.633 140.582 275.867 140.309C276.102 140.035 276.281 139.719 276.406 139.359C276.531 138.992 276.594 138.609 276.594 138.211C276.594 137.852 276.531 137.496 276.406 137.145C276.281 136.793 276.086 136.48 275.82 136.207C275.555 135.926 275.215 135.695 274.801 135.516C274.387 135.336 273.891 135.234 273.312 135.211C272.133 135.156 271.125 134.98 270.289 134.684C269.461 134.387 268.781 134.004 268.25 133.535C267.719 133.059 267.328 132.516 267.078 131.906C266.836 131.297 266.715 130.656 266.715 129.984C266.715 129.258 266.824 128.621 267.043 128.074C267.262 127.52 267.551 127.043 267.91 126.645C268.277 126.238 268.695 125.902 269.164 125.637C269.633 125.363 270.117 125.145 270.617 124.98C271.125 124.816 271.625 124.703 272.117 124.641C272.617 124.57 273.078 124.535 273.5 124.535H273.641C274.031 124.543 274.465 124.578 274.941 124.641C275.426 124.695 275.914 124.785 276.406 124.91C276.906 125.035 277.387 125.199 277.848 125.402C278.316 125.605 278.73 125.855 279.09 126.152C279.457 126.449 279.75 126.801 279.969 127.207C280.188 127.605 280.297 128.066 280.297 128.59C280.297 128.895 280.246 129.16 280.145 129.387C280.043 129.613 279.906 129.805 279.734 129.961C279.57 130.109 279.375 130.223 279.148 130.301C278.922 130.379 278.688 130.418 278.445 130.418C278.148 130.418 277.871 130.352 277.613 130.219C277.355 130.086 277.129 129.902 276.934 129.668C276.746 129.434 276.594 129.156 276.477 128.836C276.367 128.508 276.312 128.148 276.312 127.758C276.312 127.422 276.27 127.09 276.184 126.762C276.098 126.434 275.949 126.141 275.738 125.883C275.535 125.617 275.262 125.402 274.918 125.238C274.574 125.074 274.148 124.984 273.641 124.969H273.523C273.141 124.984 272.785 125.098 272.457 125.309C272.137 125.512 271.859 125.781 271.625 126.117C271.391 126.453 271.207 126.832 271.074 127.254C270.949 127.668 270.887 128.09 270.887 128.52C270.887 128.895 270.941 129.258 271.051 129.609C271.168 129.961 271.348 130.281 271.59 130.57C271.84 130.852 272.156 131.09 272.539 131.285C272.922 131.48 273.387 131.605 273.934 131.66Z" fill="black"/>
<g filter="url(#filter0_d_1158_98)">
<path fill-rule="evenodd" clip-rule="evenodd" d="M258.917 235.418C244.338 235.015 229.758 234.745 215.178 234.66C210.867 234.629 206.558 234.614 202.247 234.614C193.696 234.614 185.143 234.673 176.592 234.775C176.247 234.787 175.923 234.792 175.612 234.792C174.379 234.792 173.368 234.714 172.231 234.69L170.15 234.628C169.456 234.607 168.778 234.454 168.09 234.376C166.725 234.155 165.328 234.079 163.98 233.762L159.919 232.84C154.576 231.303 149.47 228.929 144.754 225.876C135.29 219.753 127.952 210.369 123.79 199.601C121.846 194.162 120.687 188.397 120.42 182.505L120.399 178.073C120.507 176.603 120.682 175.134 120.814 173.653C120.879 172.157 121.31 170.73 121.565 169.26L122.001 167.061L122.657 164.92C124.327 159.179 126.94 153.623 130.512 148.681C134.03 143.704 138.381 139.261 143.365 135.577C153.179 128.444 165.354 124.61 177.851 124.61C178.153 124.61 178.457 124.612 178.76 124.617L178.772 124.617L178.803 124.617C179.252 124.605 179.606 124.232 179.594 123.783C179.425 117.439 180.093 111.058 181.555 104.845C183.031 98.823 185.281 92.983 188.208 87.4912C187.35 93.9194 186.904 100.403 186.935 106.885L186.934 106.902L186.935 106.925C186.9 122.369 189.311 137.807 193.973 152.591C198.689 167.363 205.64 181.509 214.743 194.296C223.816 207.091 234.942 218.611 247.81 228.042C251.383 230.667 255.099 233.119 258.917 235.418Z" fill="url(#paint0_linear_1158_98)"/>
<path fill-rule="evenodd" clip-rule="evenodd" d="M364.095 147.327C375.903 152.306 385.227 160.677 391.439 170.814C387.389 152.929 375.065 137.183 356.843 129.499C326.813 116.837 292.179 130.858 279.486 160.815C271.784 178.993 273.945 198.854 283.533 214.497C280.908 202.907 281.747 190.422 286.738 178.643C299.431 148.685 334.065 134.665 364.095 147.327Z" fill="url(#paint1_linear_1158_98)"/>
<path fill-rule="evenodd" clip-rule="evenodd" d="M323.024 210.787C316.082 208.943 310.254 205.022 306.016 199.878C309.657 209.491 317.724 217.273 328.438 220.119C346.094 224.809 364.228 214.329 368.941 196.711C371.801 186.021 369.055 175.164 362.515 167.227C364.874 173.456 365.381 180.452 363.527 187.38C358.814 204.998 340.68 215.478 323.024 210.787Z" fill="url(#paint2_linear_1158_98)"/>
<path fill-rule="evenodd" clip-rule="evenodd" d="M393.757 183.495C392.986 192.748 390.24 201.658 385.689 209.397C381.146 217.139 374.885 223.687 367.652 228.57C360.36 233.386 352.086 236.471 343.634 237.567C341.524 237.869 339.395 237.984 337.275 238.032C336.215 238.064 335.152 238.008 334.095 238.007L330.643 237.884L316.761 237.372C308.981 237.105 301.2 236.873 293.419 236.649C279.226 233.557 265.37 228.261 252.633 220.748C239.728 213.133 227.906 203.356 218.056 191.727C208.223 180.102 200.279 166.704 195.004 152.238C189.649 137.799 186.99 122.348 186.934 106.902L186.935 106.925C186.901 122.369 189.312 137.808 193.973 152.591C198.689 167.363 205.64 181.509 214.743 194.296C223.816 207.091 234.942 218.611 247.81 228.042C251.383 230.668 255.099 233.119 258.917 235.418C244.338 235.015 229.758 234.745 215.178 234.66C204.238 234.581 193.297 234.626 182.357 234.73L177.946 234.693L176.21 234.688C175.636 234.685 175.025 234.689 174.562 234.667C173.568 234.623 172.57 234.645 171.582 234.538C170.591 234.464 169.6 234.392 168.619 234.241C167.632 234.133 166.655 233.966 165.682 233.777C161.784 233.056 157.976 231.875 154.366 230.246C150.763 228.612 147.297 226.644 144.135 224.246C140.972 221.853 138.076 219.104 135.519 216.068C130.476 209.946 126.731 202.73 124.908 194.987C123.043 187.268 123.016 179.039 124.75 171.245C125.609 167.338 126.976 163.543 128.748 159.938C130.509 156.329 132.656 152.882 135.23 149.758C140.332 143.473 146.93 138.372 154.346 134.917C158.063 133.202 161.997 131.955 166.031 131.115C168.046 130.678 170.098 130.41 172.16 130.198L175.289 130.005L178.76 129.895L185.058 129.696L184.872 123.783C184.663 117.148 185.35 110.457 186.974 103.959C186.957 104.934 186.93 105.909 186.935 106.885L186.934 106.902C186.939 105.875 186.978 104.849 187.006 103.823C187.605 101.443 188.323 99.0876 189.182 96.773C192.345 88.0843 197.267 79.9539 203.569 72.9281C209.896 65.9174 217.673 60.1287 226.325 55.8558C235.003 51.6321 244.593 49.0322 254.497 48.2288C244.595 47.4338 234.382 48.7103 224.758 52.0644C215.099 55.3426 206.089 60.7563 198.384 67.7248C190.649 74.6743 184.312 83.2986 179.876 92.9C176.328 100.633 174.023 109 173.096 117.547C172.557 117.546 172.015 117.546 171.48 117.553C168.927 117.646 166.366 117.822 163.826 118.202C158.743 118.932 153.729 120.274 148.927 122.178C144.134 124.105 139.548 126.579 135.295 129.552C131.051 132.54 127.182 136.062 123.722 139.954C116.799 147.739 111.728 157.251 109.138 167.441C107.835 172.532 107.123 177.779 107.012 183.033C106.909 188.286 107.48 193.566 108.613 198.721C110.857 209.048 115.642 218.814 122.366 226.97C129.112 235.099 137.703 241.736 147.422 245.97C152.263 248.114 157.366 249.666 162.572 250.601C163.873 250.843 165.177 251.055 166.492 251.197C167.802 251.382 169.118 251.479 170.435 251.568C171.751 251.691 173.071 251.675 174.389 251.715L176.21 251.726L177.946 251.721L182.362 251.684C193.301 251.789 204.239 251.833 215.178 251.754C240.902 251.604 266.626 250.93 292.35 249.838L292.934 249.815C293.059 249.81 293.178 249.781 293.301 249.768C301.121 249.544 308.941 249.31 316.761 249.042L330.643 248.53L334.131 248.397C335.385 248.31 336.64 248.283 337.887 248.135C340.381 247.868 342.864 247.513 345.302 246.953C355.099 244.885 364.214 240.313 371.786 234.111C387.097 221.767 395.354 202.03 393.757 183.495Z" fill="url(#paint3_linear_1158_98)"/>
</g>
<defs>
<filter id="filter0_d_1158_98" x="103" y="48" width="294.952" height="211.794" filterUnits="userSpaceOnUse" color-interpolation-filters="sRGB">
<feFlood flood-opacity="0" result="BackgroundImageFix"/>
<feColorMatrix in="SourceAlpha" type="matrix" values="0 0 0 0 0 0 0 0 0 0 0 0 0 0 0 0 0 0 127 0" result="hardAlpha"/>
<feOffset dy="4"/>
<feGaussianBlur stdDeviation="2"/>
<feComposite in2="hardAlpha" operator="out"/>
<feColorMatrix type="matrix" values="0 0 0 0 0 0 0 0 0 0 0 0 0 0 0 0 0 0 0.25 0"/>
<feBlend mode="normal" in2="BackgroundImageFix" result="effect1_dropShadow_1158_98"/>
<feBlend mode="normal" in="SourceGraphic" in2="effect1_dropShadow_1158_98" result="shape"/>
</filter>
<linearGradient id="paint0_linear_1158_98" x1="190" y1="80.5" x2="190" y2="399.5" gradientUnits="userSpaceOnUse">
<stop stop-color="#00E0FF"/>
<stop offset="1" stop-color="#008799"/>
</linearGradient>
<linearGradient id="paint1_linear_1158_98" x1="274.819" y1="169.668" x2="391.44" y2="169.668" gradientUnits="userSpaceOnUse">
<stop stop-color="#00E0FF"/>
<stop offset="1" stop-color="#008799"/>
</linearGradient>
<linearGradient id="paint2_linear_1158_98" x1="370.843" y1="191.434" x2="306.105" y2="200.515" gradientUnits="userSpaceOnUse">
<stop stop-color="#00E0FF"/>
<stop offset="1" stop-color="#008799"/>
</linearGradient>
<linearGradient id="paint3_linear_1158_98" x1="177.5" y1="150" x2="393.953" y2="149.897" gradientUnits="userSpaceOnUse">
<stop stop-color="#00E0FF"/>
<stop offset="1" stop-color="#008799"/>
</linearGradient>
</defs>
</svg>
