<svg width="69" height="51" viewBox="0 0 69 51" fill="none" xmlns="http://www.w3.org/2000/svg">
<g filter="url(#filter0_d_1145_145)">
<path fill-rule="evenodd" clip-rule="evenodd" d="M35.9144 39.3718C32.8515 39.2872 29.7886 39.2305 26.7258 39.2127C25.8202 39.2061 24.9149 39.203 24.0093 39.203C22.2129 39.203 20.4162 39.2153 18.6197 39.2368C18.5474 39.2393 18.4792 39.2403 18.4138 39.2403C18.155 39.2403 17.9426 39.224 17.7036 39.2188L17.2665 39.2058C17.1207 39.2014 16.9782 39.1692 16.8337 39.153C16.547 39.1064 16.2535 39.0905 15.9703 39.0239L15.1171 38.8303C13.9947 38.5073 12.9222 38.0087 11.9315 37.3674C9.94333 36.081 8.40182 34.1096 7.52739 31.8476C7.1191 30.7051 6.87554 29.4938 6.81945 28.256L6.81494 27.3251C6.8377 27.0162 6.87443 26.7076 6.90214 26.3965C6.91596 26.0822 7.00641 25.7825 7.05991 25.4737L7.15154 25.0118L7.28936 24.562C7.64016 23.3558 8.18914 22.1887 8.93943 21.1506C9.67855 20.105 10.5925 19.1715 11.6397 18.3978C13.7012 16.8993 16.259 16.0939 18.8843 16.0939C18.9478 16.0939 19.0115 16.0943 19.0752 16.0953L19.0778 16.0953L19.0842 16.0953C19.1785 16.0927 19.253 16.0143 19.2504 15.92C19.2149 14.5873 19.3553 13.2468 19.6624 11.9417C19.9725 10.6766 20.4452 9.44971 21.0601 8.29602C20.8798 9.64643 20.7861 11.0084 20.7925 12.3702L20.7925 12.3738L20.7925 12.3785C20.7854 15.6231 21.2918 18.8662 22.2711 21.9719C23.2618 25.0751 24.7221 28.0468 26.6344 30.7331C28.5403 33.4209 30.8778 35.8411 33.5809 37.8222C34.3316 38.3739 35.1122 38.8889 35.9144 39.3718Z" fill="url(#paint0_linear_1145_145)"/>
<path fill-rule="evenodd" clip-rule="evenodd" d="M58.0097 20.8663C60.4902 21.9122 62.449 23.6708 63.7539 25.8004C62.9032 22.0431 60.3143 18.7351 56.4862 17.1211C50.1776 14.4611 42.9019 17.4065 40.2354 23.6998C38.6174 27.5186 39.0714 31.6907 41.0856 34.9771C40.5341 32.5423 40.7104 29.9195 41.7589 27.445C44.4253 21.1516 51.7011 18.2063 58.0097 20.8663Z" fill="url(#paint1_linear_1145_145)"/>
<path fill-rule="evenodd" clip-rule="evenodd" d="M49.3813 34.1976C47.9229 33.8102 46.6986 32.9865 45.8084 31.9059C46.5733 33.9254 48.2679 35.56 50.5186 36.158C54.2277 37.1433 58.0372 34.9417 59.0273 31.2406C59.6282 28.9948 59.0513 26.7142 57.6773 25.0467C58.173 26.3553 58.2794 27.825 57.89 29.2803C56.8999 32.9814 53.0904 35.183 49.3813 34.1976Z" fill="url(#paint2_linear_1145_145)"/>
<path fill-rule="evenodd" clip-rule="evenodd" d="M64.2406 28.4642C64.0788 30.408 63.5018 32.2799 62.5457 33.9056C61.5913 35.5319 60.2761 36.9075 58.7566 37.9333C57.2247 38.9451 55.4866 39.5932 53.7109 39.8235C53.2679 39.8868 52.8205 39.9111 52.3751 39.9211C52.1525 39.9279 51.9292 39.9161 51.7071 39.9158L50.9819 39.89L48.0658 39.7825C46.4312 39.7264 44.7967 39.6776 43.1621 39.6306C40.1805 38.981 37.2697 37.8685 34.594 36.2902C31.8829 34.6904 29.3994 32.6365 27.3301 30.1935C25.2645 27.7513 23.5956 24.9368 22.4875 21.8979C21.3626 18.8646 20.804 15.6187 20.7922 12.374L20.7923 12.3786C20.7852 15.6232 21.2916 18.8664 22.2709 21.972C23.2615 25.0752 24.7218 28.0469 26.6342 30.7332C28.5401 33.4211 30.8776 35.8412 33.5807 37.8223C34.3314 38.374 35.112 38.889 35.9142 39.3719C32.8513 39.2874 29.7884 39.2306 26.7256 39.2128C24.4273 39.1961 22.129 39.2055 19.8307 39.2275L18.9039 39.2196L18.5394 39.2186C18.4187 39.2181 18.2903 39.2189 18.1931 39.2143C17.9844 39.205 17.7746 39.2096 17.5671 39.1871C17.3589 39.1715 17.1507 39.1564 16.9446 39.1246C16.7373 39.102 16.532 39.0669 16.3276 39.0273C15.5087 38.8757 14.7088 38.6278 13.9505 38.2854C13.1936 37.9422 12.4655 37.5287 11.8011 37.0249C11.1368 36.5222 10.5284 35.9448 9.99114 35.3071C8.93166 34.0209 8.14502 32.505 7.76201 30.8783C7.3702 29.2568 7.36466 27.5281 7.72883 25.8908C7.90922 25.07 8.19646 24.2727 8.56883 23.5155C8.93876 22.7573 9.38976 22.0331 9.93046 21.3769C11.0022 20.0565 12.3883 18.9849 13.9462 18.259C14.727 17.8989 15.5535 17.637 16.4009 17.4604C16.8244 17.3686 17.2554 17.3124 17.6886 17.2677L18.3459 17.2272L19.0749 17.2041L20.3981 17.1624L20.359 15.9201C20.3152 14.5264 20.4593 13.1208 20.8005 11.7557C20.797 11.9605 20.7913 12.1654 20.7923 12.3703L20.7922 12.374C20.7933 12.1582 20.8013 11.9426 20.8072 11.727C20.9332 11.2271 21.0841 10.7323 21.2644 10.246C21.9289 8.42074 22.9629 6.71275 24.2867 5.23679C25.6158 3.76401 27.2498 2.54795 29.0672 1.65031C30.8903 0.763021 32.905 0.216843 34.9856 0.0480605C32.9054 -0.118948 30.7599 0.149226 28.7381 0.85384C26.7089 1.54249 24.8161 2.67978 23.1975 4.14369C21.5726 5.60362 20.2413 7.41537 19.3094 9.4324C18.5641 11.0569 18.08 12.8147 17.8853 14.6102C17.7719 14.61 17.6581 14.61 17.5457 14.6114C17.0093 14.631 16.4714 14.668 15.9377 14.7476C14.8699 14.9011 13.8166 15.183 12.8078 15.5831C11.801 15.9879 10.8376 16.5074 9.94414 17.1321C9.05263 17.7598 8.23983 18.4996 7.5129 19.3173C6.05845 20.9527 4.99328 22.9509 4.4491 25.0915C4.17538 26.1611 4.02574 27.2634 4.00246 28.3671C3.98096 29.4707 4.10075 30.5799 4.33877 31.6628C4.81031 33.8322 5.81547 35.8838 7.22803 37.5973C8.64524 39.305 10.45 40.6993 12.4917 41.5887C13.5087 42.0392 14.5807 42.3651 15.6743 42.5616C15.9476 42.6125 16.2217 42.657 16.4978 42.6867C16.7729 42.7257 17.0495 42.7459 17.3262 42.7647C17.6027 42.7905 17.8799 42.7871 18.1568 42.7957L18.5394 42.798L18.9039 42.7969L19.8318 42.789C22.1297 42.811 24.4276 42.8204 26.7256 42.8036C32.1296 42.7723 37.5336 42.6307 42.9376 42.4013L43.0603 42.3964C43.0864 42.3953 43.1114 42.3892 43.1373 42.3866C44.7801 42.3395 46.4229 42.2904 48.0658 42.234L50.9819 42.1264L51.7147 42.0984C51.9782 42.0802 52.2417 42.0746 52.5037 42.0435C53.0276 41.9874 53.5493 41.9127 54.0614 41.7952C56.1196 41.3606 58.0344 40.4003 59.6251 39.0973C62.8417 36.5043 64.5761 32.358 64.2406 28.4642Z" fill="url(#paint3_linear_1145_145)"/>
</g>
<defs>
<filter id="filter0_d_1145_145" x="0" y="0" width="68.2817" height="50.8122" filterUnits="userSpaceOnUse" color-interpolation-filters="sRGB">
<feFlood flood-opacity="0" result="BackgroundImageFix"/>
<feColorMatrix in="SourceAlpha" type="matrix" values="0 0 0 0 0 0 0 0 0 0 0 0 0 0 0 0 0 0 127 0" result="hardAlpha"/>
<feOffset dy="4"/>
<feGaussianBlur stdDeviation="2"/>
<feComposite in2="hardAlpha" operator="out"/>
<feColorMatrix type="matrix" values="0 0 0 0 0 0 0 0 0 0 0 0 0 0 0 0 0 0 0.25 0"/>
<feBlend mode="normal" in2="BackgroundImageFix" result="effect1_dropShadow_1145_145"/>
<feBlend mode="normal" in="SourceGraphic" in2="effect1_dropShadow_1145_145" result="shape"/>
</filter>
<linearGradient id="paint0_linear_1145_145" x1="21.4365" y1="6.82734" x2="21.4365" y2="73.8415" gradientUnits="userSpaceOnUse">
<stop stop-color="#00E0FF"/>
<stop offset="1" stop-color="#008799"/>
</linearGradient>
<linearGradient id="paint1_linear_1145_145" x1="39.2549" y1="25.5595" x2="63.7542" y2="25.5595" gradientUnits="userSpaceOnUse">
<stop stop-color="#00E0FF"/>
<stop offset="1" stop-color="#008799"/>
</linearGradient>
<linearGradient id="paint2_linear_1145_145" x1="59.4268" y1="30.132" x2="45.827" y2="32.0397" gradientUnits="userSpaceOnUse">
<stop stop-color="#00E0FF"/>
<stop offset="1" stop-color="#008799"/>
</linearGradient>
<linearGradient id="paint3_linear_1145_145" x1="18.8103" y1="21.4277" x2="64.2818" y2="21.4061" gradientUnits="userSpaceOnUse">
<stop stop-color="#00E0FF"/>
<stop offset="1" stop-color="#008799"/>
</linearGradient>
</defs>
</svg>
