<?xml version="1.0" encoding="UTF-8" standalone="no"?>
<!DOCTYPE svg PUBLIC "-//W3C//DTD SVG 1.1//EN" "http://www.w3.org/Graphics/SVG/1.1/DTD/svg11.dtd">
<svg width="100%" height="100%" viewBox="0 0 1664 250" version="1.1" xmlns="http://www.w3.org/2000/svg" xmlns:xlink="http://www.w3.org/1999/xlink" xml:space="preserve" xmlns:serif="http://www.serif.com/" style="fill-rule:evenodd;clip-rule:evenodd;stroke-linejoin:round;stroke-miterlimit:2;">
    <g transform="matrix(1.17567,0,0,1.17567,-145.934,-71.0748)">
        <path d="M124.129,181.659L124.129,60.455L1539.49,60.455L1539.49,128.469C1454.28,130.029 1324.82,145.206 1149.96,200.281C804.561,309.07 582.472,205.743 305.883,187.08C223.859,181.546 165.56,180.455 124.129,181.659Z" style="fill:white;fill-rule:nonzero;"/>
    </g>
    <g transform="matrix(0.163094,0,0,0.381138,6.36874,20.9659)">
        <path d="M-39.05,144.65L-39.05,51.718L-11.19,144.65L-39.05,144.65Z" style="fill:rgb(235,235,235);"/>
    </g>
    <g transform="matrix(2.18585,0,0,0.124002,85.3564,-3.29858)">
        <path d="M-39.05,640.278L-39.05,354.641L-36.971,640.278L-39.05,640.278Z" style="fill:rgb(235,235,235);"/>
    </g>
</svg>
