<svg width="166" height="103" viewBox="0 0 166 103" fill="none" xmlns="http://www.w3.org/2000/svg">
<rect x="0.966797" width="165" height="103" rx="8" fill="url(#paint0_linear_1246_3596)"/>
<g clip-path="url(#clip0_1246_3596)">
<path d="M67.0489 15.4509C66.5053 15.4856 65.9506 15.5781 65.8286 15.6475C65.7066 15.7169 64.8302 15.8094 63.8872 15.844C62.323 15.9019 59.6938 16.214 59.5606 16.3644C59.5273 16.3875 59.5717 16.4453 59.6494 16.4684C59.7936 16.5262 59.838 16.85 59.7048 16.85C59.6494 16.8615 59.0725 16.9309 58.4069 17.0119C57.12 17.1853 56.8427 17.3356 57.2198 17.6709C57.4195 17.8444 57.7523 17.9253 59.372 18.2259C60.4703 18.434 60.9363 18.9775 60.5036 19.5787C60.2595 19.9256 60.3039 20.0412 60.7588 20.1684L61.1692 20.284L60.7033 20.3765C60.3261 20.4459 60.2263 20.5153 60.2263 20.7003C60.2263 20.8969 60.2817 20.92 60.6034 20.8622C60.9141 20.8159 60.9806 20.8275 60.9252 20.9662C60.8919 21.0587 60.7588 21.1281 60.6145 21.1281C60.4592 21.1281 60.2484 21.2784 60.0709 21.5212C59.8158 21.8797 59.7825 22.0184 59.7825 22.9319C59.7825 24.25 60.0488 25.2906 60.3816 25.2906C60.5036 25.2906 60.7809 25.3947 60.9917 25.5334C61.5464 25.8803 62.0123 25.7647 62.4783 25.1287C62.678 24.8512 63.155 24.2731 63.5322 23.8453L64.22 23.059L65.3072 22.8047C66.0948 22.6197 66.5608 22.4347 66.9934 22.134C67.5814 21.7294 70.0775 20.839 70.8208 20.7581C71.1314 20.7234 71.1536 20.6887 71.1869 20.2378C71.2202 19.7175 71.4531 19.44 72.2186 19.0122C72.4848 18.8503 72.5403 18.7694 72.4405 18.7C72.2408 18.5844 72.3739 18.0062 72.5958 18.0062C72.8509 18.0062 72.8953 17.7981 72.7067 17.4397C72.5181 17.0465 72.4959 17.0581 73.3723 16.7575C73.7384 16.6303 74.3153 16.3875 74.6481 16.214L75.2583 15.9134L74.4817 15.9828C74.0602 16.0175 73.5942 16.0753 73.4611 16.11C73.328 16.1331 73.1838 16.0869 73.1283 15.9944C73.0839 15.9134 72.5736 15.7284 72.0078 15.5897C70.9317 15.3353 69.423 15.3006 67.0489 15.4509Z" fill="white"/>
<path d="M56.3434 15.7053C55.4781 15.8672 52.5827 16.1562 52.4162 16.0868C52.3275 16.0522 52.0502 16.1678 51.7839 16.3528C51.4622 16.5725 51.2958 16.6303 51.2625 16.5262C51.1737 16.2372 51.0184 16.399 51.0184 16.7806C51.0184 17.2893 51.3512 17.5668 51.8283 17.4628C52.4717 17.324 52.028 17.6478 51.2292 17.8906C50.5303 18.1103 50.4194 18.1218 50.2641 17.96C50.1531 17.8675 49.8758 17.775 49.6317 17.7518C49.2212 17.7172 49.188 17.7403 49.1325 18.064C49.0881 18.3531 49.0216 18.4109 48.7442 18.4109C48.5001 18.4109 48.4225 18.3647 48.4447 18.2143C48.478 17.9947 48.4225 17.9484 47.9676 17.8443C47.6792 17.775 47.6016 17.8097 47.4241 18.1218C47.3131 18.3184 47.2466 18.5034 47.2798 18.5381C47.302 18.5728 47.768 18.6422 48.3116 18.7115L49.2989 18.8272L49.5319 18.515C49.7648 18.2143 50.0644 18.2143 49.9534 18.5034C49.8647 18.7578 51.1627 18.9543 51.9392 18.8272C52.2942 18.7578 52.7269 18.7347 52.8822 18.7693C53.2039 18.8387 53.692 18.5497 53.5367 18.3993C53.4923 18.3531 52.982 18.3068 52.4052 18.2953C51.4733 18.2953 51.3734 18.2722 51.5287 18.1218C51.6508 17.9947 51.9725 17.9484 52.7823 17.9368C53.3703 17.9368 53.9139 17.8906 53.9805 17.8559C54.047 17.8097 54.1802 17.8097 54.28 17.8443C54.3687 17.879 54.9345 17.6709 55.5336 17.3703C56.1327 17.0697 56.9758 16.7228 57.3973 16.6072C58.1184 16.399 58.5067 16.3065 60.4259 15.9134C60.8031 15.8325 61.1137 15.74 61.1137 15.7053C61.1137 15.6012 56.8981 15.6012 56.3434 15.7053Z" fill="white"/>
<path d="M49.8313 16.85C49.6095 16.9425 49.5873 16.9887 49.6982 17.2431C49.9534 17.8328 50.4415 17.7518 50.3749 17.139C50.3305 16.7228 50.2418 16.6765 49.8313 16.85Z" fill="white"/>
<path d="M45.4382 17.0349C45.2607 17.1274 45.0277 17.3124 44.9057 17.4396C44.6949 17.6593 44.6949 17.6593 45.0056 17.6593C45.3716 17.6593 46.0595 17.2431 46.004 17.0581C45.9374 16.8499 45.7821 16.8384 45.4382 17.0349Z" fill="white"/>
<path d="M47.7679 16.9309C47.6015 17.1044 47.7235 17.1969 48.3004 17.3703C48.7552 17.5091 48.9549 17.5322 49.1324 17.4281C49.4431 17.2547 49.3432 17.1391 48.7552 16.9772C48.1895 16.8269 47.8677 16.8153 47.7679 16.9309Z" fill="white"/>
<path d="M42.3653 17.6825C41.9104 17.8097 41.3446 17.9368 41.1228 17.9715C40.6125 18.0409 40.679 18.2375 41.2115 18.2375C41.4445 18.2375 41.6775 18.33 41.8106 18.4687C41.9326 18.5959 42.1323 18.7 42.2432 18.7C42.3653 18.7 42.6093 18.7925 42.7868 18.8965C43.0975 19.0815 43.1529 19.0815 43.6965 18.8965C44.0182 18.7925 44.5285 18.7 44.8281 18.7C45.3828 18.7 45.8043 18.5497 45.8043 18.3531C45.8043 18.2837 45.7267 18.2375 45.6268 18.2375C45.5159 18.2375 45.4715 18.1681 45.5159 18.064C45.6046 17.8212 45.3384 17.8443 44.8614 18.1334C44.4509 18.3878 44.2956 18.3878 43.5412 18.0872C43.2971 17.9947 43.164 17.8906 43.2417 17.8443C43.3748 17.7518 43.4081 17.4165 43.286 17.4397C43.2306 17.4512 42.8201 17.5553 42.3653 17.6825Z" fill="white"/>
<path d="M109.704 17.6478C109.549 17.6941 109.427 17.7866 109.427 17.8675C109.427 18.1219 109.116 18.2375 108.418 18.2375C107.708 18.2375 105.999 18.5266 105.711 18.7C105.566 18.7925 105.566 18.8156 105.744 18.8734C106.154 19.0469 105.888 19.1625 105.078 19.1625L104.213 19.1741L104.601 19.5094C104.812 19.7059 105.112 19.8562 105.267 19.8562C105.522 19.8678 105.522 19.8794 105.333 19.995C105.178 20.0875 105.034 20.0759 104.745 19.9256C104.379 19.7406 103.592 19.6712 103.459 19.81C103.337 19.9487 103.514 20.2031 103.747 20.2031C103.913 20.2031 103.947 20.2378 103.858 20.3303C103.647 20.55 103.281 20.3187 103.048 19.8447C102.926 19.5903 102.738 19.3937 102.638 19.3937C102.482 19.3937 102.493 19.44 102.704 19.6712C102.915 19.9025 102.926 19.9487 102.782 20.0066C102.527 20.1106 102.571 20.365 102.86 20.4922C102.993 20.5616 103.115 20.7234 103.137 20.8622C103.192 21.2669 103.436 21.4056 103.847 21.2553C104.08 21.1628 104.235 21.1628 104.313 21.2437C104.424 21.3594 104.28 21.4056 103.969 21.3709C103.769 21.3478 103.68 21.5791 103.814 21.7525C104.035 22.03 103.736 22.5156 103.359 22.5156C103.026 22.5156 102.937 22.3537 103.215 22.2381C103.459 22.1456 103.425 21.5559 103.159 21.3825C103.037 21.3131 102.848 21.0472 102.726 20.7928C102.604 20.55 102.427 20.3187 102.327 20.2841C102.238 20.2378 102.161 20.0759 102.161 19.9141C102.161 19.7059 102.105 19.625 101.95 19.625C101.828 19.625 101.65 19.5441 101.562 19.44C101.295 19.1625 100.963 19.3359 100.874 19.7984C100.84 20.0066 100.73 20.2147 100.641 20.2609C100.485 20.3187 100.485 20.3419 100.63 20.5269C100.718 20.6309 100.829 20.8044 100.863 20.92C100.896 21.0241 101.085 21.1397 101.273 21.1859C101.584 21.2553 101.828 21.5212 101.695 21.6484C101.673 21.6716 101.273 21.5675 100.818 21.4056C100.375 21.2437 99.72 21.0819 99.3872 21.0472C99.0544 21.0125 98.6661 20.9084 98.533 20.8275C98.3998 20.735 98.2113 20.6656 98.1114 20.6656C97.8008 20.6656 97.945 20.8622 98.3998 21.0472C98.8103 21.2091 98.8436 21.2669 98.7216 21.4172C98.5884 21.5906 98.5552 21.5791 98.4553 21.3709C98.3555 21.1859 98.2889 21.1628 98.1114 21.2669C97.9894 21.3478 97.7231 21.4403 97.5013 21.4866C97.2905 21.5212 97.0242 21.6022 96.9244 21.6484C96.7802 21.7062 96.7247 21.6716 96.7247 21.5444C96.7247 21.4403 96.647 21.3594 96.5472 21.3594C96.2698 21.3594 94.9053 21.9491 94.7722 22.1225C94.6391 22.2959 94.2619 22.3422 94.1398 22.2034C94.0955 22.1687 94.1177 22.0647 94.1842 21.9722C94.3839 21.7294 94.0955 21.475 93.6184 21.475H93.1969L93.4631 22.0069C93.7627 22.6081 93.7405 22.7237 93.3633 22.5503C93.1636 22.4578 93.0527 22.4694 92.853 22.6428C92.7088 22.77 92.5202 22.8625 92.4314 22.8625C92.3205 22.8625 92.2983 22.9319 92.3427 23.0822C92.4092 23.325 92.2317 23.5216 92.1208 23.325C92.032 23.1747 91.1778 23.1747 91.1778 23.325C91.1778 23.3828 91.2998 23.4637 91.4552 23.51C91.6105 23.5447 91.7325 23.6372 91.7325 23.695C91.7325 23.8453 91.2222 23.7181 90.7895 23.4522C90.6009 23.3366 90.4567 23.1631 90.4567 23.0244C90.4567 22.9087 90.3569 22.7469 90.2348 22.6659C90.0241 22.5272 90.0241 22.5272 90.2903 22.5272C90.4456 22.5272 90.845 22.5734 91.1778 22.6197C91.9544 22.7469 92.62 22.5156 92.62 22.1225C92.62 21.8912 92.5313 21.8334 91.9877 21.7178C91.6327 21.6369 90.8006 21.4172 90.1461 21.2322C89.4805 21.0356 88.8703 20.9084 88.7705 20.9431C88.6595 20.9894 88.6263 20.9547 88.6817 20.7928C88.7372 20.6078 88.6595 20.55 88.2158 20.4575C87.8497 20.3766 87.6389 20.3766 87.5502 20.4575C87.4614 20.5269 87.2063 20.55 86.9289 20.5153C86.3964 20.4344 85.1317 20.735 83.8892 21.2206C83.1238 21.5212 82.8797 21.7062 83.2458 21.7062C83.3345 21.7062 83.4122 21.7525 83.4122 21.8219C83.4122 21.9375 82.8464 22.5156 82.7355 22.5156C82.6356 22.5156 82.1919 23.3019 82.1919 23.4637C82.1919 23.7412 81.8369 24.0187 81.6372 23.9031C81.0714 23.5909 79.8622 24.4928 79.8622 25.2444C79.8622 25.4641 79.9288 25.6722 80.0064 25.7069C80.0952 25.7416 80.1395 25.8919 80.1063 26.0884C80.073 26.3659 80.1173 26.4353 80.4502 26.5972C80.9494 26.8516 80.9383 26.8516 81.5152 26.4469C82.0698 26.0537 82.1919 26.0191 82.1919 26.2734C82.1919 26.3775 82.3139 26.655 82.4692 26.8978C82.7577 27.3372 82.7466 27.7187 82.4692 27.7187C82.3916 27.7187 82.2473 27.7534 82.1586 27.7881C82.0255 27.8344 82.0033 27.7881 82.0477 27.6262C82.0698 27.4991 82.0477 27.3603 81.9811 27.3256C81.9256 27.2794 81.8923 27.1753 81.9367 27.0828C82.0366 26.7937 81.5484 26.8747 81.2489 27.1984C80.9272 27.5222 80.905 27.8228 81.1491 28.32C81.3598 28.7594 81.2711 28.875 80.6277 28.9559C79.9066 29.0484 79.5516 29.2797 79.5072 29.6497C79.485 29.9156 79.363 30.0312 78.8859 30.2625C78.5753 30.4244 78.2758 30.6441 78.2425 30.7597C78.2092 30.8753 78.0206 31.0372 77.832 31.1181C77.5325 31.2453 77.4327 31.2453 77.1775 31.1066C76.8336 30.9331 76.8225 30.9447 76.9667 31.3378C77.0666 31.6153 77.0666 31.6269 76.645 31.5691C76.1569 31.4997 75.6466 31.6037 75.6466 31.7656C75.6466 31.8234 75.8795 32.0084 76.1791 32.1587C76.8447 32.5056 77.1331 33.0606 77.0222 33.8006C76.9778 34.1359 76.8891 34.3209 76.7559 34.3672C76.4675 34.4597 74.7258 34.4019 74.5039 34.2862C74.3708 34.2169 74.1822 34.2284 73.9714 34.3325C73.6497 34.4828 73.6386 34.5059 73.7052 35.0609C73.7495 35.4772 73.7163 35.8125 73.5498 36.275C73.4056 36.7028 73.3723 36.9687 73.4389 37.1075C73.4944 37.2116 73.5388 37.4428 73.5388 37.6047C73.5388 37.8937 73.5609 37.9053 73.9714 37.8359C74.3708 37.7666 74.4152 37.7897 74.6148 38.1481C74.8145 38.5066 74.8256 38.5528 74.6481 38.9575C74.5372 39.235 74.2377 39.5587 73.8605 39.8478C73.1838 40.3566 72.9841 40.6919 72.9841 41.3509C72.9841 41.7325 72.9064 41.8712 72.4294 42.3337C72.1298 42.6228 71.7859 42.8656 71.6639 42.8656C71.5419 42.8656 71.3755 42.9812 71.3089 43.12C71.2313 43.2703 71.0094 43.5825 70.7986 43.8253C70.5878 44.0681 70.4436 44.3456 70.4769 44.4266C70.4991 44.5075 70.3881 44.7156 70.2106 44.8891C70.0442 45.0625 69.8667 45.3747 69.8334 45.5828C69.7891 45.7909 69.6892 46.0222 69.6005 46.1031C69.3897 46.2881 69.3897 46.7969 69.5894 47.0975C69.7003 47.2478 69.7114 47.3634 69.6338 47.4559C69.5672 47.5484 69.5672 47.6641 69.6448 47.8259C69.7114 47.9531 69.7669 48.1959 69.7669 48.3809C69.7558 48.8087 69.3786 49.9534 69.2233 50.0112C69.0347 50.0806 69.0791 50.3466 69.2788 50.4275C69.4119 50.4853 69.4452 50.5894 69.3897 50.89C69.3009 51.3987 69.4784 51.8612 69.8113 51.9884C70.1884 52.1387 70.8319 53.0059 70.9983 53.5956C71.1425 54.1275 71.2867 54.2662 72.7289 55.33L73.5277 55.9197L74.0047 55.7C74.5261 55.4572 75.6355 55.3878 75.9794 55.5844C76.1458 55.6769 76.3788 55.6191 77.0222 55.2953C78.4977 54.5669 79.2853 54.6478 79.6847 55.5612L79.8733 56.0122L80.4613 55.9544C80.8939 55.9197 81.1269 55.9544 81.3488 56.1047C81.6039 56.2781 81.6372 56.3822 81.6372 56.9834C81.6372 57.3766 81.5484 57.8969 81.4264 58.2206L81.2045 58.7872L81.8258 59.7584C82.5691 60.9031 83.3567 62.8341 83.1792 63.0537C83.1016 63.1578 83.1238 63.3197 83.2458 63.6203C83.4788 64.2216 83.4566 64.6609 83.1238 65.4703C82.3916 67.2741 82.4248 67.8291 83.3456 69.8641C83.9114 71.1244 83.9669 71.3209 83.9669 72.0378C83.9669 72.72 84.0223 72.9281 84.3884 73.6566C85.2648 75.4372 85.5644 76.2812 85.2981 76.2812C85.1539 76.2812 85.6531 77.2872 85.8417 77.3797C85.9194 77.4144 86.3188 77.3566 86.707 77.2525C87.1064 77.1484 87.5723 77.1022 87.7609 77.1369C87.9606 77.1716 88.2158 77.1369 88.4044 77.0328C88.5819 76.9403 88.8703 76.8594 89.0478 76.8594C89.3806 76.8594 89.8466 76.3969 91.2444 74.7087C91.9766 73.8184 91.9766 73.8184 92.0542 73.0553C92.1208 72.4309 92.143 72.3962 92.6977 72.0262C93.1858 71.6909 93.2856 71.5637 93.3411 71.1822C93.3855 70.9278 93.3522 70.3844 93.2745 69.9797L93.1303 69.2281L93.7959 68.5922C94.1509 68.2453 94.6723 67.8291 94.9497 67.6787C95.7373 67.2394 95.815 67.1006 95.9038 65.9328C95.9703 64.9731 95.9481 64.7881 95.6153 63.5625C95.1494 61.8512 95.1383 61.5044 95.582 60.5216C95.9703 59.6659 97.4569 57.8044 98.2334 57.1916C98.7216 56.81 99.8864 54.9716 100.452 53.6881C100.929 52.6012 100.929 51.3409 100.463 51.7572C100.386 51.815 100.02 51.9191 99.6645 51.9884C99.2984 52.0462 98.7105 52.1966 98.3666 52.3237L97.7342 52.5434L97.4458 52.2312C97.2794 52.0462 97.1906 51.8497 97.2239 51.7456C97.3016 51.5375 96.3253 50.2887 95.5931 49.6644C95.227 49.3522 95.0606 49.0978 94.9497 48.7162C94.872 48.4387 94.6945 48.0803 94.5503 47.9416C94.3617 47.7566 94.2841 47.56 94.2841 47.2594C94.2841 46.9587 94.1177 46.5309 93.7405 45.8487C93.4409 45.3053 93.0194 44.4381 92.8086 43.9294C92.4203 43.0044 92.4203 42.9928 92.6533 42.9119C92.9417 42.8194 93.4077 43.3512 94.0733 44.5075C94.3063 44.9353 94.5503 45.3169 94.6058 45.3516C94.6723 45.3862 94.7722 45.6984 94.8388 46.0453C94.9386 46.5541 95.0606 46.7737 95.4045 47.1091C95.6375 47.3403 95.8594 47.6294 95.9038 47.7681C95.9481 47.9069 96.1478 48.2075 96.3475 48.4503C96.7802 48.9359 96.8911 49.4216 96.5028 49.0516C96.3253 48.8781 96.2809 48.8781 96.2809 49.0169C96.2809 49.1094 96.3808 49.2828 96.5028 49.3984C96.6138 49.5025 96.8245 49.9419 96.9577 50.3697C97.0908 50.7859 97.2572 51.1675 97.3238 51.2137C97.4902 51.3409 98.0892 51.2022 98.2334 51.0056C98.3 50.9131 98.5108 50.8437 98.7105 50.8437C99.0211 50.8437 99.243 50.7628 99.72 50.4737C99.8088 50.4159 100.197 50.2194 100.563 50.0228C100.94 49.8378 101.273 49.5834 101.295 49.4794C101.329 49.3522 101.584 49.2019 101.972 49.0747C102.383 48.9359 102.615 48.7972 102.66 48.6469C102.704 48.5197 102.793 48.4156 102.882 48.4156C103.126 48.4156 103.714 47.7219 103.714 47.4328C103.714 47.2594 103.791 47.1437 103.947 47.1091C104.08 47.0744 104.146 46.9934 104.102 46.9241C104.069 46.8547 104.135 46.6466 104.257 46.4616C104.39 46.2766 104.49 46.0684 104.49 45.9991C104.49 45.7909 103.791 45.1897 103.547 45.1781C103.137 45.1666 102.826 44.7503 102.826 44.2069C102.826 43.8022 102.726 43.8253 102.216 44.3687C101.795 44.8197 101.062 45.155 100.829 45.0047C100.763 44.97 100.718 44.8197 100.718 44.6809C100.718 44.5306 100.641 44.2994 100.53 44.1491C100.363 43.8947 100.341 43.8831 100.208 44.0681C100.086 44.2531 100.064 44.2416 99.8975 43.9987C99.7977 43.86 99.72 43.675 99.72 43.5941C99.72 43.5131 99.5425 43.2472 99.3317 42.9928C98.888 42.4956 98.8214 42.0216 99.1542 41.825C99.5869 41.5822 99.7866 41.6862 100.175 42.3569C100.474 42.8772 100.685 43.0969 101.207 43.3859C101.872 43.7675 102.116 43.7791 102.538 43.49C102.76 43.3281 103.226 43.4784 103.104 43.675C102.882 44.0566 104.069 44.3572 106.099 44.4381L107.43 44.4959L107.874 44.9353C108.118 45.1897 108.495 45.4787 108.706 45.5944C108.917 45.6984 109.028 45.8141 108.961 45.8372C108.717 45.9297 108.806 46.1841 109.205 46.5541C109.549 46.8662 109.627 46.8894 109.871 46.7737C110.026 46.7044 110.148 46.5541 110.148 46.4384C110.148 46.3228 110.193 46.2072 110.248 46.1609C110.359 46.1031 110.403 46.3112 110.536 47.375C110.625 48.1612 111.058 49.4447 111.801 51.2369C112.178 52.1156 112.522 53.0291 112.589 53.2834C112.755 53.9078 113.088 54.0003 113.476 53.5031C113.731 53.1794 113.798 53.1447 113.987 53.2719C114.153 53.3759 114.197 53.5494 114.208 54.0581C114.22 54.5322 114.275 54.7403 114.43 54.8559C114.597 54.9831 114.652 54.9716 114.819 54.8212C114.93 54.7172 115.063 54.4859 115.129 54.3125C115.218 54.0234 115.185 53.9078 114.918 53.5262C114.53 52.9712 114.364 52.8441 114.253 53.0406C114.153 53.2141 113.92 53.0984 113.92 52.8672C113.92 52.7862 113.987 52.6937 114.075 52.6591C114.197 52.6128 114.22 52.2775 114.208 51.1212L114.197 49.6528L114.497 49.5487C114.663 49.4909 114.83 49.3522 114.863 49.2366C114.896 49.1209 115.196 48.7972 115.518 48.4966C115.85 48.1959 116.161 47.8491 116.194 47.7219C116.239 47.5947 116.416 47.4097 116.594 47.3172C116.815 47.19 116.915 47.0512 116.915 46.8662C116.915 46.4731 117.104 46.3691 117.858 46.3575C118.38 46.3575 118.557 46.2997 118.701 46.1147C118.912 45.8487 119.045 45.9412 119.19 46.45C119.323 46.9356 119.789 47.4906 119.977 47.4097C120.121 47.3519 120.144 47.3866 120.077 47.5947C120.022 47.7912 120.077 47.9069 120.288 48.0803C120.532 48.2884 120.576 48.4041 120.576 48.9475C120.576 49.5141 120.598 49.5719 120.865 49.6412C121.053 49.6991 121.22 49.6528 121.386 49.4909C122.03 48.9128 121.974 48.8781 122.34 50.1153C122.773 51.5837 122.917 52.2544 122.817 52.4047C122.773 52.4625 122.74 52.8556 122.74 53.2719C122.74 53.9194 122.762 54.0234 122.928 53.9887C123.228 53.9425 124.015 55.2953 123.938 55.7231C123.86 56.1394 124.315 56.8562 124.858 57.1569C125.069 57.2841 125.324 57.4922 125.413 57.6309C125.801 58.2553 125.935 57.7119 125.568 56.9719C125.446 56.7175 125.347 56.3359 125.347 56.1162C125.347 55.6653 124.748 54.8328 124.082 54.3587C123.816 54.1622 123.683 53.9887 123.683 53.7922C123.683 53.6419 123.549 53.3644 123.394 53.1678L123.106 52.8094L123.305 51.9769C123.405 51.5144 123.505 51.0634 123.527 50.9825C123.605 50.705 123.849 50.9131 123.827 51.2369C123.805 51.5028 123.838 51.5375 124.038 51.4797C124.204 51.4219 124.381 51.5259 124.748 51.9075C125.014 52.1734 125.236 52.4625 125.236 52.5434C125.236 52.6128 125.347 52.6937 125.491 52.7169C125.646 52.74 125.746 52.8325 125.746 52.9828C125.757 53.11 125.768 53.3066 125.779 53.4222C125.79 53.6072 125.857 53.5841 126.234 53.2719C126.478 53.0753 126.678 52.8325 126.678 52.74C126.678 52.6591 126.8 52.555 126.944 52.5087C127.088 52.4741 127.343 52.2891 127.51 52.1156C127.787 51.8034 127.809 51.7225 127.754 51.1559C127.676 50.3119 127.488 49.9766 126.511 48.8897C125.946 48.2537 125.679 47.8722 125.679 47.6756C125.679 47.2478 126.523 46.45 126.977 46.45C127.277 46.45 127.332 46.4962 127.366 46.7622C127.41 47.1784 127.787 47.2825 127.787 46.8894C127.787 46.6003 128.242 46.2997 128.519 46.4153C128.608 46.45 128.763 46.4037 128.874 46.3228C129.041 46.1725 129.44 45.9644 130.061 45.6869C130.583 45.4556 131.315 44.4381 131.603 43.5594C131.947 42.4956 132.103 41.3509 131.881 41.5591C131.681 41.7672 131.404 41.7441 131.493 41.5359C131.526 41.4434 131.592 41.2816 131.626 41.1891C131.67 41.0734 131.626 41.0156 131.504 41.0156C131.382 41.0156 131.337 40.9578 131.382 40.8422C131.459 40.6225 130.572 39.5356 130.017 39.1541L129.751 38.9806L130.106 38.4372C130.328 38.1019 130.538 37.8937 130.672 37.8937C130.794 37.8937 130.893 37.8244 130.893 37.7319C130.893 37.5006 130.039 37.4428 129.662 37.6509C129.396 37.7897 129.351 37.7781 129.085 37.5006C128.93 37.3387 128.719 37.2 128.619 37.2C128.342 37.2 128.431 37.015 129.008 36.3906C129.54 35.8125 129.862 35.72 129.751 36.1709C129.695 36.4022 129.895 36.9687 130.028 36.9687C130.073 36.9687 130.161 36.8762 130.217 36.7491C130.361 36.4716 130.794 36.3559 131.16 36.5062C131.393 36.5987 131.448 36.6912 131.448 37.015C131.448 37.3966 131.47 37.4081 132.003 37.5469C132.491 37.6625 132.558 37.7203 132.491 37.9169C132.447 38.0672 132.491 38.1944 132.624 38.2869C132.746 38.3794 132.813 38.5875 132.813 38.8303C132.813 39.4316 132.946 39.5356 133.423 39.3275C133.645 39.235 133.911 39.0731 134.011 38.9806C134.188 38.8072 134.188 38.7609 133.966 38.2175C133.789 37.7666 133.611 37.5469 133.101 37.1884C132.746 36.9456 132.435 36.6912 132.402 36.645C132.369 36.5872 132.469 36.4137 132.613 36.275C132.813 36.0784 132.89 35.8819 132.89 35.5581C132.89 35.0725 133.234 34.5869 133.512 34.7025C133.6 34.7372 133.733 34.8066 133.822 34.8412C134.088 34.9453 134.532 34.4019 134.71 33.7081C134.81 33.3497 134.887 32.7022 134.887 32.2628C134.887 31.5344 134.843 31.3725 134.41 30.54C133.7 29.1756 133.656 29.1178 133.123 28.8634C132.546 28.5975 132.269 28.5859 132.18 28.8172C132.08 29.0947 131.958 29.0253 131.681 28.5512C131.437 28.135 131.437 28.135 131.504 28.4703C131.57 28.7941 131.57 28.8056 131.359 28.6091C131.248 28.505 131.071 28.4125 130.971 28.4125C130.683 28.4125 130.638 28.2044 130.871 27.8922C130.993 27.7303 131.126 27.4066 131.16 27.1753C131.315 26.285 131.415 26.1347 131.97 26.0537C132.857 25.9266 134.776 25.9728 134.776 26.1116C134.776 26.2041 134.965 26.2272 135.398 26.1809C136.008 26.1116 136.285 25.9959 136.041 25.9034C135.63 25.7531 135.553 25.5912 135.686 25.1403C135.797 24.7472 135.852 24.7125 136.207 24.7125C136.496 24.7125 136.695 24.805 136.962 25.0825L137.328 25.4525L137.594 25.1866C137.816 24.9669 137.849 24.8859 137.738 24.7009C137.605 24.4697 137.683 24.2962 137.871 24.4234C137.938 24.4581 138.071 24.6431 138.16 24.8281C138.304 25.1172 138.304 25.2097 138.16 25.6375C138.071 25.915 137.993 26.2272 137.993 26.3428C137.993 26.4584 137.905 26.6203 137.794 26.6897C137.605 26.8169 137.594 26.8631 137.738 27.3025C137.838 27.58 138.082 27.9269 138.36 28.1812C138.615 28.4009 139.236 28.9906 139.746 29.4878C140.257 29.985 140.711 30.355 140.778 30.3203C140.922 30.2162 140.9 29.6034 140.745 29.4994C140.656 29.4416 140.689 29.3722 140.822 29.2681C141.011 29.1178 141.011 29.0947 140.833 28.8866C140.667 28.7016 140.667 28.6437 140.8 28.505C140.933 28.3662 140.933 28.3084 140.756 28.0772C140.534 27.7997 140.467 27.5453 140.645 27.6609C140.7 27.6956 140.778 27.6725 140.811 27.6262C140.845 27.5684 140.7 27.4412 140.49 27.3372C140.279 27.2331 140.101 27.0712 140.101 26.9672C140.101 26.8747 139.968 26.7706 139.802 26.7244C139.258 26.6087 139.203 26.5625 139.236 26.3544C139.258 26.2272 139.203 26.0537 139.125 25.9612C139.014 25.8109 139.036 25.7647 139.336 25.6375C139.613 25.5103 139.724 25.5103 139.902 25.6259C140.079 25.7416 140.157 25.73 140.334 25.5681C140.523 25.3947 140.589 25.3947 140.955 25.5334L141.366 25.6953L141.599 25.2328C141.921 24.6084 142.52 24.2616 142.986 24.4466C143.551 24.6662 143.485 24.3772 142.908 24.1344C142.62 24.0072 142.22 23.8106 142.02 23.7066C141.677 23.5216 141.677 23.51 141.887 23.3481C142.02 23.2556 142.087 23.1169 142.054 23.0128C141.998 22.8625 142.076 22.8509 142.564 22.9203C142.886 22.9666 143.307 23.1053 143.507 23.2209C143.918 23.4869 144.983 23.6603 144.983 23.4637C144.983 23.3944 144.894 23.2787 144.794 23.2209C144.616 23.1169 144.616 23.0822 144.761 22.9781C145.038 22.7816 144.65 22.5734 143.74 22.4116C143.296 22.3422 141.987 22.0184 140.822 21.7062C139.669 21.3941 138.093 21.0587 137.328 20.9547C136.562 20.8506 135.852 20.7466 135.73 20.7234C135.564 20.6887 135.586 20.7466 135.841 21.0241L136.163 21.3825L135.886 21.3131C134.754 21.0703 134.288 21.0125 133.234 21.0125C132.203 21.0125 132.014 20.9778 131.848 20.7928C131.592 20.5037 131.337 20.4575 129.396 20.3303C128.442 20.2609 127.565 20.1453 127.343 20.0528C126.911 19.8678 123.938 19.5556 123.816 19.6828C123.771 19.7175 123.86 19.8562 124.015 19.9834L124.293 20.2262L123.261 20.1453C122.695 20.1106 122.163 20.0528 122.074 20.0181C121.952 19.9603 121.908 20.0297 121.908 20.2494C121.908 20.4112 121.885 20.55 121.863 20.55C121.686 20.55 120.687 20.0066 120.465 19.7869C120.188 19.5209 118.934 19.1625 118.28 19.1625C118.047 19.1625 118.014 19.1856 118.136 19.3359C118.258 19.4862 118.169 19.5094 117.492 19.5094C117.06 19.5094 116.671 19.4516 116.638 19.3937C116.605 19.3244 116.216 19.2781 115.784 19.2781C115.185 19.2781 114.941 19.2203 114.697 19.0469C114.386 18.8156 114.142 18.8272 113.809 19.1047C113.643 19.2434 112.922 19.44 112.922 19.3359C112.922 19.3128 113.177 19.1509 113.476 18.9775C114.02 18.6653 114.109 18.5381 113.942 18.2953C113.809 18.0987 112.844 17.8906 112.045 17.8906C111.468 17.8906 111.269 17.8444 111.213 17.7172C111.147 17.5322 110.248 17.4859 109.704 17.6478ZM87.1841 23.0128C87.1841 23.0822 86.8845 23.3597 86.5184 23.6141L85.8639 24.0766L85.875 24.7356C85.8861 25.73 86.0303 25.8341 87.2617 25.6375C88.6817 25.4178 89.0256 25.4525 88.7483 25.7994C88.6595 25.915 88.4044 25.9612 87.9273 25.9612C87.5502 25.9497 87.1175 26.0075 86.9733 26.1L86.6959 26.2503L86.9511 26.4584C87.1397 26.6203 87.1952 26.7475 87.1397 26.9672C87.062 27.3025 86.94 27.3372 86.7403 27.0828C86.6627 26.9903 86.5184 26.9094 86.4075 26.9094C86.0747 26.9094 85.9305 27.21 86.0081 27.7187C86.0747 28.1581 86.0636 28.1812 85.642 28.4125C85.2094 28.6322 85.1983 28.6322 85.0541 28.4241C84.9098 28.2044 84.8877 28.2159 84.2997 28.4819C83.5786 28.8056 83.3456 28.8172 83.2125 28.5744C83.1238 28.4009 83.0794 28.4009 82.7577 28.5859C82.325 28.8172 82.2141 28.7594 82.5247 28.4703C82.6467 28.3547 82.7466 28.1928 82.7466 28.1119C82.7466 27.9384 83.3567 28.0078 83.6119 28.2159C83.7006 28.2853 83.745 28.2853 83.745 28.2044C83.745 28.135 83.6895 28.0425 83.6341 28.0078C83.4566 27.8922 83.623 27.7187 83.9225 27.7187C84.222 27.7187 84.4328 27.3256 84.3441 26.9556C84.2886 26.6897 84.3663 26.5625 84.8322 26.2272C85.0208 26.0884 85.1872 25.9381 85.1872 25.8919C85.1872 25.8456 85.0319 25.7184 84.8544 25.6144C84.1888 25.2212 84.5659 24.2384 85.5533 23.8106C85.7197 23.7412 85.8528 23.6141 85.8528 23.5216C85.8528 23.4406 85.9305 23.2556 86.0303 23.1169C86.1634 22.9203 86.3077 22.8625 86.6959 22.8625C87.0177 22.8625 87.1841 22.9087 87.1841 23.0128ZM93.3855 32.8641C93.2523 33.0837 93.1081 33.2687 93.0527 33.2687C92.7864 33.2687 93.0194 33.5116 93.5963 33.8469C94.2619 34.24 95.1716 35.0725 95.1716 35.3037C95.1716 35.3731 95.0828 35.5119 94.983 35.6044C94.7167 35.8472 93.3966 35.7084 92.7753 35.3731C92.3427 35.1419 92.2872 35.1419 91.6216 35.3037C91.2333 35.3962 90.8561 35.5234 90.7784 35.5928C90.6009 35.7431 90.0241 35.6275 89.6025 35.3731C89.3473 35.2228 89.3141 35.1419 89.3695 34.8412C89.4028 34.6447 89.4805 34.4597 89.5248 34.425C89.5692 34.3903 89.6358 34.2284 89.6802 34.055C89.7245 33.8816 89.8244 33.7197 89.9131 33.685C90.0019 33.6503 90.0684 33.5578 90.0684 33.4653C90.0684 33.3844 90.1794 33.1994 90.3236 33.0606C90.5233 32.8641 90.6564 32.8294 90.9892 32.8872C91.3997 32.9566 91.4995 33.0722 91.2888 33.2109C91.2111 33.2572 91.2888 33.4075 91.4663 33.5809C91.6992 33.8122 91.8102 33.8469 91.9988 33.7544C92.1319 33.6966 92.3538 33.5925 92.5091 33.5231C92.6977 33.4422 92.7198 33.3959 92.5978 33.3959C92.1097 33.3728 92.3205 32.76 92.8752 32.5866C93.5741 32.3784 93.6406 32.4131 93.3855 32.8641ZM99.2097 32.6328C99.6091 32.8062 99.7089 33.0491 99.5092 33.3728C99.4538 33.4537 99.365 33.5 99.2984 33.4537C99.132 33.3497 98.8325 33.5 98.8325 33.6734C98.8325 33.7544 98.777 33.8469 98.7105 33.87C98.6439 33.8931 98.8658 34.1706 99.2097 34.4828C99.6313 34.8644 99.8309 35.1303 99.8309 35.3153C99.8309 35.6275 99.9197 35.6506 100.119 35.3731C100.264 35.1881 100.286 35.1881 100.497 35.4541C100.796 35.8241 100.774 35.9281 100.397 35.9281C99.9086 35.9281 99.8864 36.1131 100.308 36.5294C100.608 36.83 100.707 37.0381 100.752 37.4544L100.818 37.9862L100.286 38.0672C99.7533 38.1366 99.2763 38.0094 99.2763 37.7781C99.2763 37.7203 99.1431 37.6625 98.9878 37.6394C98.5663 37.5931 98.3998 37.2694 98.6439 36.9919C98.7438 36.8762 98.8325 36.6681 98.8325 36.5409C98.8325 36.4022 98.8991 36.275 98.9767 36.2403C99.0544 36.2172 98.7992 35.8934 98.3666 35.4772C97.7675 34.8991 97.6122 34.6794 97.6122 34.4134C97.6122 34.1937 97.5567 34.0781 97.4458 34.0781C97.357 34.0781 97.2794 33.9856 97.2794 33.8816C97.2794 33.6619 97.7009 33.1531 97.8784 33.1531C97.945 33.1416 98.178 32.9912 98.3888 32.8062C98.5995 32.6097 98.777 32.4594 98.7881 32.4594C98.7992 32.4594 98.9878 32.5403 99.2097 32.6328ZM84.1222 34.3556C84.3108 34.5059 84.7767 34.8181 85.165 35.0609C85.7973 35.4425 85.8528 35.5119 85.8528 35.8819C85.8528 36.4137 86.108 36.9225 86.4852 37.1075C86.6738 37.2 86.818 37.3966 86.8734 37.6278C86.9289 37.8359 87.0177 38.0094 87.062 38.0094C87.1175 38.0094 87.2395 38.0441 87.3394 38.0787C87.4614 38.125 87.5169 38.0903 87.5169 37.9631C87.5169 37.8706 87.6389 37.6972 87.7942 37.5931C88.1492 37.3503 88.1381 37.2809 87.7388 36.8531C87.5613 36.6566 87.4059 36.4253 87.4059 36.3328C87.4059 36.1247 87.5391 36.1131 87.7166 36.2981C87.8053 36.3906 87.8941 36.3675 88.0494 36.1594C88.3711 35.7431 88.6595 35.9281 88.8814 36.7144C89.192 37.7434 89.3252 38.0094 89.5581 38.0094C89.6691 38.0094 89.9575 38.125 90.2016 38.2637C90.612 38.5066 90.6453 38.5066 90.7452 38.3216C90.8783 38.0787 91.1778 38.0672 91.4663 38.2984C91.5772 38.3909 91.7769 38.4603 91.8989 38.4603C92.0209 38.4603 92.2206 38.3909 92.3316 38.2984C92.4536 38.2059 92.6866 38.125 92.853 38.125C93.097 38.125 93.1525 38.1828 93.208 38.5297C93.3078 39.1887 92.7531 40.7497 92.3205 40.9925C92.2206 41.0619 91.8434 41.0734 91.4884 41.0387C91.1002 41.0041 90.6675 41.0387 90.4123 41.1312C90.013 41.2584 89.9131 41.2353 88.5708 40.6803C87.2839 40.1484 87.0953 40.1022 86.7736 40.2178C86.2633 40.3912 85.9305 40.8537 86.0858 41.1544C86.2744 41.5244 85.7973 41.7672 85.5311 41.4319C85.4645 41.3509 85.1761 41.2469 84.8877 41.2122C84.5659 41.1775 84.3108 41.0734 84.1998 40.9347C83.8892 40.53 83.3345 40.2062 82.9463 40.2062C82.7133 40.1947 82.4581 40.0791 82.2141 39.8709C81.8591 39.5587 81.8591 39.5472 82.0144 39.1541C82.2141 38.6569 82.0477 37.9516 81.6927 37.8359C81.3931 37.7319 80.6831 37.7666 80.1395 37.9169C79.8955 37.9747 79.2298 38.0787 78.6641 38.1366C77.5769 38.2406 77.3217 38.3331 76.8669 38.7609C76.6117 39.0037 76.5119 39.0269 75.8352 38.9691C75.1473 38.9112 75.0808 38.8766 75.1141 38.6569C75.1473 38.3909 75.4913 38.1828 76.168 38.0094C76.6672 37.8822 77.5991 37.0612 77.477 36.8531C77.3439 36.6219 77.9097 35.7894 78.3645 35.5581C78.8748 35.2806 78.9969 35.1419 78.9081 34.8644C78.8194 34.5637 79.363 34.3672 79.8511 34.5291C80.195 34.6331 80.2838 34.61 80.7164 34.3094C81.3709 33.8469 81.5817 33.8584 81.848 34.4134C82.1142 34.9453 82.6023 35.3962 83.268 35.72C83.7117 35.9397 84.2997 36.5178 84.2997 36.7259C84.2997 36.7837 84.1998 36.9572 84.0667 37.1191C83.867 37.385 83.7894 37.4197 83.3678 37.3619C82.6245 37.2462 82.6245 37.5006 83.3678 37.8359C83.7117 37.9978 84.0113 38.125 84.0334 38.125C84.0556 38.125 84.0778 37.9631 84.0778 37.7781C84.0778 37.5237 84.1333 37.4312 84.2775 37.4312C84.3884 37.4312 84.5659 37.2809 84.6658 37.0844C84.8211 36.8069 84.8433 36.6912 84.7434 36.4947C84.5548 36.1478 84.7545 35.9628 85.1317 36.1362C85.3647 36.2519 85.4091 36.2403 85.4091 36.09C85.4091 35.9975 85.1761 35.8125 84.8877 35.6853C84.5881 35.5581 84.3108 35.3731 84.2664 35.2806C84.222 35.1881 84.0778 35.1187 83.9669 35.1187C83.7339 35.1187 82.7466 33.9047 82.7466 33.6272C82.7466 33.5347 82.8242 33.3612 82.9241 33.2572C83.1016 33.0491 83.1238 33.0722 83.4455 33.5694C83.623 33.8584 83.9336 34.2053 84.1222 34.3556Z" fill="white"/>
<path d="M39.1925 18.9081C39.1259 18.9543 39.0482 19.07 39.015 19.174C38.9706 19.2781 38.6156 19.4862 38.2273 19.6365L37.4951 19.914L37.7059 20.2031C37.8945 20.469 37.9278 20.469 38.4825 20.3418C38.8042 20.2609 39.1814 20.099 39.3367 19.9718C39.7915 19.6018 39.8359 19.7059 39.4809 20.3765C39.2923 20.735 39.1481 21.0472 39.1481 21.0818C39.1481 21.1165 39.3034 21.1975 39.4809 21.2553C39.6695 21.3247 39.8137 21.4518 39.8137 21.5443C39.8137 21.7525 40.0689 21.7525 40.4571 21.5443C41.034 21.2437 42.5761 21.1397 43.3193 21.3478C43.5856 21.4287 43.7409 21.394 44.0182 21.2206C44.4176 20.9547 44.4176 20.9662 44.1846 20.6193C44.0737 20.4343 44.0515 20.3187 44.1292 20.2609C44.1957 20.2262 44.2512 19.9834 44.2512 19.7175C44.2512 19.2781 44.2401 19.255 43.9628 19.3243C43.8075 19.3706 43.5634 19.544 43.4192 19.7175C43.1751 20.0065 43.1529 20.0181 42.9532 19.8331C42.8423 19.729 42.4984 19.6018 42.1878 19.5672C41.7218 19.4978 41.5887 19.4284 41.4334 19.1509C41.2448 18.8272 41.2226 18.8156 40.2796 18.8156C39.7471 18.8156 39.259 18.8618 39.1925 18.9081Z" fill="white"/>
<path d="M46.1039 19.1278C46.0595 19.1625 46.0262 19.3012 46.0262 19.4168C46.0262 19.6481 45.9042 19.6828 45.7267 19.4978C45.6601 19.4284 45.5492 19.4053 45.4826 19.4515C45.4049 19.4978 45.4826 19.6481 45.6934 19.8678C46.0484 20.2493 46.1704 20.2493 46.9248 19.8447C47.191 19.7059 47.3464 19.5325 47.3796 19.3359C47.4351 19.0584 47.424 19.0468 46.8028 19.0468C46.4589 19.0468 46.1371 19.0815 46.1039 19.1278Z" fill="white"/>
<path d="M47.8678 19.3937C47.7235 19.5903 47.2798 19.9603 46.9026 20.2147C46.5254 20.4806 46.1926 20.7928 46.1593 20.92C46.115 21.105 46.0373 21.1396 45.7489 21.0818C45.2718 20.9893 44.584 21.29 44.584 21.5906C44.584 21.7987 44.5064 21.8218 43.8962 21.8334C42.8534 21.8565 42.6648 21.8218 42.4096 21.579C42.1989 21.3709 42.1323 21.3593 41.6553 21.4981C41.3779 21.579 41.145 21.7062 41.145 21.7872C41.145 21.9028 40.8676 21.9375 40.0134 21.9259C39.1037 21.9259 38.9262 21.8912 39.1259 21.7987C39.6029 21.5559 39.5142 21.4981 37.9167 21.1281C37.5617 21.0471 37.1512 21.0125 36.9959 21.0587C36.7851 21.1165 36.7075 21.0934 36.7075 20.9547C36.7075 20.8159 36.652 20.8043 36.4079 20.9084C36.1639 21.0009 36.0751 20.9893 35.9642 20.8275C35.8754 20.7003 35.7645 20.6656 35.6314 20.7234C35.1654 20.92 33.7454 21.1859 33.4903 21.1281C33.335 21.0934 33.0354 21.1281 32.8246 21.209C32.2921 21.4056 31.8706 21.394 31.5378 21.1743C31.3603 21.0471 30.861 20.9547 30.0734 20.8853C28.5425 20.7697 27.1446 20.5153 26.8895 20.3187C26.7453 20.2031 25.17 20.55 23.8387 20.9893C23.2618 21.1859 22.6073 21.3709 22.3965 21.4172C21.6754 21.5559 21.6089 21.6021 21.6754 21.8334C21.7087 21.949 21.7642 22.1572 21.7975 22.2843C21.8418 22.4809 21.8085 22.5156 21.5201 22.5156C21.3315 22.5156 21.1762 22.4693 21.1762 22.4115C21.1762 22.3537 20.7657 22.4115 20.2665 22.5618C19.5676 22.7584 19.3457 22.874 19.2792 23.0706C19.2015 23.2787 19.2348 23.3365 19.4567 23.3943C19.612 23.429 19.9337 23.4406 20.1778 23.4175C20.5217 23.3828 20.6104 23.4175 20.566 23.5331C20.5328 23.6256 20.5106 23.7297 20.5106 23.7875C20.5106 23.8337 20.2776 23.9031 19.9892 23.9378C18.5692 24.0881 17.4376 24.5853 17.0382 25.2212C16.7387 25.6953 16.7942 25.8803 17.1935 25.7878L17.5375 25.7184L17.3489 26.0306C17.1714 26.2965 17.1714 26.3312 17.3378 26.2618C17.5596 26.1693 18.2918 26.3081 18.2918 26.4353C18.2918 26.5278 13.9653 28.2968 13.7212 28.2968C13.6435 28.3084 13.455 28.3778 13.2996 28.4703C13.0223 28.6322 13.0223 28.6322 13.4106 28.5743C14.7307 28.3547 16.9939 27.6725 17.7815 27.2562C18.2585 27.0018 18.7689 26.7937 18.902 26.7937C19.2903 26.7937 20.1778 26.4815 20.4107 26.2618C20.566 26.1115 20.5882 26.0306 20.4995 25.9034C20.3996 25.7878 20.4329 25.7531 20.6659 25.7531C20.8212 25.7531 21.2095 25.649 21.5312 25.5218C21.8418 25.3947 22.1192 25.3137 22.1414 25.3368C22.1635 25.36 21.975 25.5103 21.7309 25.6837C21.4868 25.8456 21.2871 26.0075 21.2871 26.0306C21.2871 26.1115 22.7071 25.7531 23.2396 25.545C23.7721 25.3253 23.8054 25.3253 24.1715 25.5218C24.3823 25.6375 24.815 25.7647 25.1367 25.8109C25.9576 25.9265 26.1018 26.1925 26.0242 27.395L25.9687 28.2968H26.3459C26.7009 28.2968 26.712 28.3084 26.601 28.609C26.5234 28.8056 26.5123 29.245 26.5567 29.7306L26.6232 30.5284L26.3459 30.4475C25.9132 30.3318 25.9243 30.7134 26.3681 31.2106C26.6676 31.5343 26.7342 31.6731 26.6343 31.7887C26.5789 31.8697 26.4125 32.2281 26.2793 32.575C26.1462 32.9218 25.769 33.5231 25.4473 33.9162C25.1145 34.2978 24.815 34.7718 24.7706 34.9568C24.7262 35.1418 24.5709 35.4772 24.4045 35.6968C24.0717 36.1709 24.0495 36.4831 24.2048 38.044L24.3268 39.1887L24.7928 39.524C25.3364 39.9056 25.3585 39.9634 25.4584 41.1312C25.5028 41.6053 25.6026 42.1487 25.6914 42.3222C25.8356 42.6228 25.8356 42.669 25.6581 42.7962C25.4917 42.935 25.4917 42.9812 25.6248 43.1778C25.7135 43.305 25.9354 43.5478 26.124 43.7097C26.3903 43.9409 26.4568 44.0912 26.4235 44.2993C26.3792 44.5075 26.4679 44.7156 26.712 45.0278C26.9006 45.2706 27.0559 45.525 27.0559 45.6059C27.0559 45.6868 27.1114 45.7562 27.1668 45.7562C27.3998 45.7562 27.4109 45.3747 27.2001 44.9006C27.0781 44.6462 26.945 44.2647 26.9006 44.0565C26.8562 43.86 26.6565 43.2472 26.4457 42.7037C26.1684 41.9637 26.0907 41.6053 26.1351 41.3047C26.1684 41.085 26.2128 40.9 26.235 40.9C26.246 40.9 26.3903 40.9462 26.5345 41.004C26.7564 41.0965 26.8118 41.2122 26.8673 41.7209C26.9228 42.1372 27.0559 42.5187 27.3332 42.9465C27.5662 43.305 27.7215 43.6981 27.7215 43.9062C27.7215 44.1722 27.8879 44.4612 28.3871 45.074C28.9307 45.7331 29.0528 45.9528 29.0528 46.2881C29.0528 46.5078 29.0084 46.7853 28.9529 46.8893C28.8975 46.9934 28.8975 47.19 28.9418 47.3287C29.0528 47.6178 30.0512 48.4156 30.3064 48.4156C30.4062 48.4156 30.5282 48.485 30.5726 48.5775C30.7057 48.8087 32.2367 49.5834 32.5806 49.595C32.747 49.595 33.0687 49.5603 33.3017 49.514C33.701 49.4331 33.7454 49.4447 34.2557 49.9997C34.7771 50.5662 34.8992 50.624 36.2415 50.994C36.5743 51.0865 36.7296 51.2022 36.774 51.3872C36.8073 51.5259 36.9293 51.7225 37.0514 51.8381C37.1623 51.9422 37.2621 52.1618 37.2621 52.3122C37.2621 52.6706 38.3937 53.7806 38.7931 53.8153C38.9484 53.8268 39.1814 53.954 39.3256 54.0928C39.6251 54.3934 39.9801 54.3125 39.8914 53.9656C39.8248 53.6997 40.1798 53.3297 40.4239 53.4337C40.5126 53.4684 40.6236 53.5956 40.6568 53.6997C40.6901 53.8153 40.79 54.0465 40.8787 54.22C41.0673 54.59 41.0895 56.1856 40.9009 56.544C40.8343 56.6828 40.6901 56.8678 40.5681 56.9487C40.4571 57.0297 40.3684 57.2031 40.3684 57.3303C40.3684 57.4575 40.2575 57.6078 40.1243 57.6772C39.7693 57.839 39.3256 59.0415 39.4698 59.4347C39.5253 59.5965 39.6362 59.7584 39.6917 59.8047C39.7693 59.8509 39.7139 60.0128 39.5253 60.2672C39.259 60.6256 39.259 60.6834 39.3811 61.1575C39.4587 61.435 39.6584 61.805 39.8248 62.0015C39.9912 62.1865 40.2575 62.6375 40.4239 62.9843C40.5903 63.3312 40.8676 63.8284 41.034 64.0828C41.2004 64.3372 41.5665 65.0193 41.8439 65.609C42.3542 66.6612 42.3653 66.6728 43.5523 67.5515C44.2068 68.0487 44.7726 68.465 44.7837 68.4881C44.8059 68.4997 44.9168 69.0778 45.0389 69.7715C45.172 70.6272 45.2385 71.5984 45.2496 72.8472C45.2496 74.1884 45.294 74.8475 45.4382 75.3678C45.5936 75.969 45.6046 76.2581 45.5048 77.53C45.405 78.8365 45.416 79.0447 45.5825 79.4031C45.6934 79.6228 45.8043 80.0968 45.8376 80.4437C45.9375 81.3572 46.115 81.9468 46.3146 81.9468C46.4256 81.9468 46.4589 81.8659 46.4034 81.6578C46.359 81.4959 46.3812 81.3687 46.4478 81.3687C46.5143 81.3687 46.6142 81.6347 46.6807 81.9468C46.836 82.6868 46.836 82.6753 46.6475 82.6059C46.4145 82.5134 46.1815 82.8256 46.3368 83.0222C46.4145 83.1147 46.4367 83.3575 46.3923 83.6003C46.3479 83.9356 46.3701 84.0281 46.4921 84.0281C46.7695 84.0281 46.947 84.3287 46.8139 84.5831C46.7251 84.7681 46.8139 84.9762 47.3131 85.7393C47.657 86.2597 48.245 86.9765 48.6221 87.3581C49.2767 87.9825 49.3765 88.0518 50.4082 88.3293L51.4954 88.6184L51.8726 88.3987C52.0723 88.2715 52.2387 88.1328 52.2387 88.0865C52.2387 88.0403 51.9614 87.9131 51.6396 87.7975C51.1737 87.6587 50.9185 87.4737 50.5635 87.0575C49.9867 86.3753 49.8868 86.1093 50.0865 85.8665C50.1753 85.7625 50.2196 85.6006 50.1753 85.4965C50.142 85.3925 50.2196 85.115 50.3639 84.8722C50.5303 84.5947 50.5746 84.4328 50.4859 84.3981C50.4193 84.375 50.2418 84.2593 50.0865 84.1322C49.7537 83.8547 49.676 83.1493 49.9645 83.0337C50.0754 82.9875 50.1309 82.8025 50.1309 82.525C50.1309 82.2822 50.2085 82.0278 50.2973 81.9468C50.5303 81.7503 50.5081 81.6 50.2529 81.6C50.0311 81.6 49.6871 81.1953 49.6871 80.9409C49.6871 80.8484 49.8314 80.8022 50.0754 80.8137C50.5525 80.8368 50.8298 80.6056 50.7521 80.2587C50.6412 79.8309 50.7854 79.6343 51.1848 79.6343C51.8948 79.6343 52.2387 79.4956 52.4051 79.1603C52.6492 78.6747 52.6159 78.0503 52.3496 77.9C52.2276 77.8306 52.0945 77.6456 52.0612 77.4953C52.0279 77.3334 51.917 77.2062 51.8171 77.2062C51.684 77.2062 51.6729 77.1715 51.7728 77.0675C51.8726 76.9634 51.9503 76.9865 52.1167 77.1368C52.2387 77.2525 52.5382 77.3681 52.7934 77.4028C53.1595 77.4606 53.2926 77.4259 53.5145 77.2062C53.7918 76.9287 54.3465 75.6337 54.3465 75.2406C54.3465 75.0903 54.4242 75.0093 54.5573 75.0093C54.9567 75.0093 55.2895 74.2462 55.3117 73.275C55.3228 72.8009 55.3339 72.3731 55.3339 72.3384C55.356 72.1765 56.9203 71.1822 57.4417 70.9972C58.3292 70.7081 58.6953 70.1184 58.9504 68.6037C59.0614 67.9562 59.1612 67.0428 59.1723 66.5572C59.1945 65.7131 59.2167 65.6437 59.6937 64.9384C59.971 64.5337 60.3815 63.7937 60.5923 63.2965L60.9917 62.3947L60.8031 61.8628C60.6589 61.4581 60.5368 61.2962 60.2706 61.2037C60.082 61.1343 59.6271 60.799 59.25 60.4522L58.5732 59.8162L57.6525 59.7931C57.1421 59.77 56.6429 59.7468 56.5431 59.7468C56.4211 59.7353 56.3434 59.6428 56.3434 59.4809C56.3323 59.2843 56.1881 59.1572 55.6556 58.9028C55.0454 58.6137 54.9567 58.6022 54.7903 58.764C54.5351 59.0068 54.4575 58.9837 54.4575 58.6715C54.4575 58.5097 54.3354 58.3478 54.1246 58.2206C53.8473 58.0587 53.8029 57.9662 53.8584 57.735C53.9028 57.5384 53.8584 57.4112 53.7031 57.2956C53.5811 57.2147 53.4479 56.9372 53.4035 56.6828C53.2926 56.0815 53.2704 56.0353 52.7046 55.5381C52.2831 55.1797 52.1389 55.1218 51.6507 55.1218C50.9296 55.1218 49.9645 54.6247 49.8092 54.1968C49.7537 54.0234 49.5318 53.8153 49.2767 53.6765C49.0326 53.5493 48.7886 53.3528 48.7331 53.214C48.6776 53.0868 48.5001 52.9134 48.3337 52.8325C48.0009 52.6706 47.9454 52.5203 48.1673 52.4162C48.2339 52.3815 48.0564 52.3815 47.7457 52.4162C47.4462 52.4509 47.1578 52.5318 47.1245 52.5897C47.0912 52.659 46.8915 52.6243 46.6586 52.5203C46.4367 52.4278 46.0817 52.3468 45.8598 52.3468C45.3939 52.3468 44.8614 52.0925 44.7615 51.815C44.706 51.6531 44.6284 51.6993 44.3067 52.0693C44.0959 52.3122 43.9295 52.6475 43.9184 52.7978C43.9184 53.029 43.8962 53.0522 43.752 52.925C43.63 52.8209 43.6078 52.74 43.6965 52.6475C43.752 52.5897 43.8075 52.3931 43.8075 52.2081C43.8075 52.0347 43.8851 51.8497 43.9739 51.8034C44.0626 51.7456 44.0959 51.6415 44.0515 51.5722C43.985 51.4681 43.8296 51.5259 43.4746 51.7687C43.2084 51.9537 42.8312 52.1387 42.6426 52.185C42.2765 52.2659 42.0436 52.5203 42.0325 52.8325C42.0325 52.9481 41.8882 53.2025 41.7218 53.4106L41.4001 53.769L41.0007 53.4337C40.679 53.1793 40.5015 53.11 40.1798 53.1447C39.9468 53.1562 39.6695 53.2256 39.5475 53.295C39.0926 53.5493 38.3715 52.74 38.3715 51.9884C38.3715 51.7687 38.4492 51.2368 38.5601 50.7975L38.7376 50.0112L38.4714 49.7915C38.2606 49.6181 38.0054 49.5718 37.24 49.5718H36.2748L36.5632 48.8434C36.7185 48.4503 36.9404 47.8375 37.0625 47.4906C37.1956 47.1437 37.3398 46.7968 37.3842 46.7275C37.4507 46.635 37.3287 46.5772 36.9737 46.5193C36.2748 46.4268 35.8865 46.6465 35.6868 47.2825C35.5315 47.7681 35.5093 47.7797 34.7217 47.9993C33.7898 48.2537 33.5346 48.1728 33.1242 47.5022C32.636 46.6928 32.6028 46.2765 32.9578 45.1897C33.1242 44.6462 33.2684 44.0218 33.2684 43.779C33.2684 43.3743 33.3128 43.3281 34.3001 42.6459C35.1432 42.0678 35.4095 41.9406 35.7867 41.9406C36.0418 41.9406 36.2859 41.9868 36.3192 42.0562C36.4412 42.2528 36.8517 42.1834 37.1179 41.9175C37.4507 41.5937 38.782 41.5012 38.8929 41.7903C38.9373 41.9175 39.0593 41.9406 39.3145 41.8943C39.5918 41.8365 39.7139 41.8828 39.9246 42.114C40.1465 42.3684 40.1798 42.4609 40.08 42.7268C39.9468 43.0737 40.0578 43.6634 40.3351 44.0912C40.7789 44.8081 41.0895 44.0334 40.9785 42.4725L40.912 41.4203L41.4445 40.819C41.7329 40.4837 42.332 39.9865 42.7535 39.6975C43.1862 39.4084 43.7187 38.9806 43.9517 38.7378C44.3067 38.3678 44.3621 38.2406 44.3178 37.9168C44.2845 37.6509 44.3067 37.5468 44.4287 37.5468C44.5175 37.5468 44.6728 37.3734 44.7726 37.1537C44.8725 36.934 45.0056 36.7837 45.0832 36.8068C45.1609 36.8415 45.3717 36.6681 45.5603 36.4253C45.8043 36.09 46.0595 35.9281 46.5032 35.7778C46.825 35.6737 47.18 35.5812 47.2687 35.5812C47.5017 35.5812 47.7346 35.2806 47.5904 35.1765C47.4129 35.0725 47.9121 34.3325 48.245 34.2053C48.4003 34.1475 48.9439 33.9393 49.4653 33.7428C50.3861 33.3959 50.3971 33.3959 50.0865 33.6618C49.6539 34.0318 49.7537 34.344 50.2418 34.1937C50.4415 34.1359 50.6523 34.0318 50.73 33.974C50.7965 33.9162 51.085 33.8006 51.3734 33.7312C51.6618 33.6503 51.9725 33.4884 52.0834 33.3728C52.1832 33.2572 52.3607 33.1531 52.4828 33.1531C52.627 33.1531 52.6825 33.0722 52.6825 32.864C52.6825 32.6906 52.6159 32.575 52.5271 32.575C52.4384 32.575 52.272 32.7022 52.15 32.864C51.8504 33.2572 51.207 33.2687 50.9629 32.8872C50.8076 32.6328 50.8187 32.575 51.085 32.0662C51.329 31.6037 51.3512 31.4881 51.2292 31.4072C50.974 31.2337 50.7189 31.2915 49.9312 31.65L49.1879 31.9968L49.5762 31.65C49.787 31.4534 50.0311 31.3031 50.1198 31.3031C50.2085 31.3031 50.375 31.2106 50.497 31.095C50.6634 30.9331 50.9962 30.8868 52.1721 30.829C53.5256 30.7712 53.6698 30.7365 54.3243 30.4012C54.7015 30.1931 55.0121 30.0659 55.0121 30.1237C55.0121 30.17 54.635 30.5978 54.1801 31.0718C53.7253 31.5459 53.3481 31.9737 53.3481 32.02C53.3481 32.0778 53.6698 32.1125 54.0581 32.1125C54.4575 32.1125 54.8125 32.1703 54.8457 32.2397C54.8901 32.309 54.99 32.3322 55.0787 32.2975C55.1564 32.2628 55.2784 32.3206 55.3339 32.4247C55.4226 32.5981 55.4559 32.5981 55.7221 32.4247C55.9551 32.2628 55.9884 32.1818 55.8996 31.9506C55.8442 31.8003 55.8331 31.569 55.8664 31.4303C55.9107 31.2222 55.8775 31.1875 55.6112 31.1875C55.2118 31.1875 54.9345 30.7018 55.1896 30.4822C55.2784 30.4128 55.3117 30.3087 55.2784 30.2509C55.2451 30.1931 55.3228 29.9965 55.4448 29.8115C55.6667 29.4993 55.6667 29.4531 55.5003 28.9443C55.4004 28.6437 55.2229 28.3547 55.0787 28.2853C54.9567 28.2159 54.7126 28.0193 54.5462 27.8575C54.3132 27.6378 54.2689 27.5222 54.3576 27.3603C54.4686 27.129 54.2689 25.5218 54.1136 25.5218C54.0692 25.5218 53.8917 25.649 53.7142 25.7993C53.5478 25.9497 53.1928 26.1809 52.9487 26.3081C52.4939 26.5509 52.4828 26.5509 52.2609 26.3312C52.0057 26.0884 52.039 25.6722 52.3275 25.4409C52.4717 25.3137 52.4495 25.279 52.2054 25.1865C52.039 25.1172 51.7617 24.8975 51.5842 24.6893C51.3512 24.4234 51.2181 24.3425 51.1404 24.435C51.0628 24.5043 50.7743 24.5275 50.3971 24.4812C49.787 24.4118 49.7759 24.4118 49.5096 24.8165C49.3654 25.0478 49.2434 25.3137 49.2434 25.4062C49.2434 25.5103 49.0437 25.7993 48.7996 26.0422C48.4336 26.4122 48.3892 26.5162 48.5223 26.5972C48.722 26.7128 48.7331 26.9093 48.5667 27.2909C48.4336 27.5915 47.4462 28.2506 47.0246 28.32C46.7917 28.3547 46.7251 28.4472 46.592 29.06C46.4589 29.6728 46.3923 29.7884 46.0262 30.0081L45.6046 30.2509L45.5381 29.985C45.5048 29.8347 45.4382 29.6265 45.405 29.5225C45.3606 29.3837 45.3828 29.349 45.5048 29.4068C45.5936 29.4415 45.7045 29.4184 45.7489 29.349C45.7821 29.2797 45.7378 29.2218 45.649 29.2218C45.416 29.2218 45.4271 29.0137 45.6934 28.5512L45.9153 28.1812H45.5492C45.3606 28.1697 44.9945 28.0772 44.7504 27.95C44.5064 27.8228 44.2401 27.7303 44.1735 27.7187C44.0959 27.7187 44.0293 27.6725 44.0293 27.6031C44.0293 27.4065 43.4746 27.1059 43.1307 27.1175C42.8312 27.129 42.809 27.0943 42.809 26.6665C42.809 26.3197 42.7646 26.2156 42.6204 26.2156C42.21 26.2156 43.2306 25.3715 44.3732 24.7703C45.0167 24.435 45.6046 24.0765 45.6823 23.9725C45.771 23.8684 45.9264 23.7875 46.0262 23.7875C46.3146 23.7875 47.2465 23.3596 47.657 23.0243C47.8456 22.874 48.0453 22.7468 48.0896 22.7468C48.2339 22.7468 47.4351 23.5678 47.1911 23.6718C47.0135 23.7528 47.0025 23.7759 47.1578 23.7759C47.2576 23.7875 47.3575 23.8684 47.3796 23.9609C47.4129 24.1112 47.4795 24.0997 47.8456 23.8915C48.2006 23.695 48.3337 23.6718 48.5445 23.7759C48.9106 23.9493 49.2434 23.9378 49.2434 23.7412C49.2434 23.6603 49.0215 23.3943 48.7442 23.1631C48.1895 22.689 48.0896 22.4462 48.5223 22.6543C48.7331 22.7584 48.8329 22.7584 48.9328 22.6543C49.0104 22.5734 49.1657 22.5156 49.2989 22.5156C49.5984 22.5156 50.2418 22.0993 50.2418 21.9028C50.2418 21.8103 50.3417 21.6484 50.4637 21.5328C50.619 21.3825 50.6523 21.2784 50.5746 21.1975C50.3417 20.9547 50.4859 20.8968 51.3845 20.8968C52.1167 20.9084 52.3386 20.9431 52.5493 21.1281C52.86 21.4056 52.7823 21.5906 52.3496 21.5906C52.0168 21.5906 51.6396 21.8797 51.7395 22.0647C51.8504 22.2381 52.272 22.1803 52.505 21.949C52.8489 21.6137 53.1706 21.5906 53.215 21.9028C53.2482 22.1109 53.1484 22.215 52.749 22.4231C52.4051 22.5965 52.2387 22.7468 52.2387 22.8972C52.2387 23.1053 52.1832 23.1168 51.5842 23.059C51.0517 23.0012 50.8853 23.0243 50.6856 23.1862C50.4748 23.3712 50.4637 23.4059 50.6079 23.5331C50.7411 23.6487 50.8631 23.6372 51.2292 23.4868C51.6729 23.3018 51.7062 23.3018 51.917 23.51C52.0501 23.6372 52.2165 23.8684 52.2942 24.0303C52.4162 24.2615 52.627 24.3772 53.2261 24.5621C54.0914 24.8281 54.2023 24.7587 53.7807 24.2037C53.4923 23.8222 53.57 23.8222 54.1912 24.2037C54.5129 24.4003 54.6793 24.4581 54.6793 24.354C54.6793 24.2731 54.7792 24.0881 54.9012 23.9493L55.1342 23.7065L54.8457 23.3481C54.524 22.9434 54.5018 22.8278 54.7459 22.6197C54.9012 22.4925 54.9678 22.5156 55.2229 22.8393C55.5336 23.2325 55.8331 23.325 55.944 23.0359C55.9773 22.9434 56.1104 22.8625 56.2325 22.8625C56.3656 22.8625 56.5653 22.77 56.6873 22.6428C56.9092 22.4347 56.9092 22.4347 56.4987 22.0647C56.2435 21.8334 56.0106 21.7062 55.8885 21.7409C55.5779 21.8218 55.3893 21.5212 55.6112 21.3015C55.7111 21.1975 55.7887 21.0471 55.7887 20.9662C55.7887 20.7581 55.4226 20.4343 55.1896 20.4343C55.0898 20.4343 54.9789 20.3534 54.9456 20.2609C54.9012 20.1684 54.757 20.0875 54.6239 20.0875C54.4686 20.0875 54.2467 19.9371 54.0581 19.7175C53.7807 19.359 53.7031 19.3359 52.86 19.2665C51.8948 19.1856 51.1626 19.3359 50.7854 19.6943C50.6079 19.8678 50.5746 19.8678 50.5746 19.7175C50.5746 19.6134 50.6856 19.4515 50.8298 19.359C51.0628 19.174 51.0739 19.174 50.8409 19.174C50.4304 19.1625 49.6428 19.5093 49.2212 19.8909C48.8884 20.2031 48.8329 20.3072 48.9217 20.5153C48.9882 20.7118 49.0992 20.7812 49.3654 20.7812C49.6317 20.7812 49.6982 20.8159 49.6428 20.9662C49.6095 21.0703 49.5762 21.1628 49.5762 21.1859C49.5762 21.2668 48.489 22.03 48.2671 22.0993C47.9676 22.2034 47.9232 21.8912 48.2006 21.7293C48.4446 21.5906 48.3559 21.1975 48.0564 21.1512C47.8678 21.1165 47.8123 21.024 47.779 20.5731C47.7125 19.9025 47.8012 19.7753 48.3892 19.6828C48.6443 19.6365 49.0548 19.4747 49.2989 19.3243L49.7426 19.0468H48.9439C48.2006 19.0468 48.134 19.07 47.8678 19.3937Z" fill="white"/>
<path d="M69.8333 22.7352L69.5227 22.9549L69.7668 23.0937C69.8999 23.163 70.0774 23.1977 70.1661 23.163C70.266 23.1284 70.3215 23.1746 70.3215 23.3134C70.3215 23.429 70.4435 23.5909 70.5988 23.6718C70.7541 23.7527 70.8761 23.8799 70.8761 23.9377C70.8761 24.0649 71.6083 23.9493 72.4182 23.6949C73.1282 23.4637 73.3833 23.0937 73.0283 22.8046C72.9174 22.7121 72.6955 22.6543 72.5402 22.689C71.5085 22.874 70.7541 22.8855 70.4879 22.7005C70.155 22.4809 70.2216 22.4693 69.8333 22.7352Z" fill="white"/>
<path d="M76.7558 26.2734C76.6782 26.3774 76.545 26.4352 76.4563 26.4005C76.3675 26.3659 76.1457 26.4468 75.9571 26.5971C75.5466 26.9093 75.3691 27.3371 75.5466 27.5568C75.6465 27.684 75.6354 27.7187 75.5244 27.7187C75.4246 27.7302 75.4579 27.8112 75.6243 27.9384C75.7574 28.0656 75.8683 28.2159 75.8683 28.2852C75.8683 28.3546 75.9904 28.4124 76.1346 28.4124C76.3343 28.4124 76.4341 28.5049 76.5118 28.7477C76.6227 29.0599 76.6005 29.0831 76.301 29.1524C76.0015 29.2102 75.835 29.4531 76.0902 29.4531C76.3121 29.4531 76.19 29.6612 75.9238 29.7306C75.5688 29.8231 75.5688 30.0312 75.9127 30.0312C76.068 30.0312 76.2233 30.0774 76.2566 30.1468C76.2899 30.2046 76.2566 30.2624 76.1679 30.2624C76.0236 30.2624 75.5355 30.7249 75.5355 30.8637C75.5355 30.9677 76.19 30.7596 76.3675 30.6093C76.4452 30.5399 76.8557 30.5052 77.2772 30.5168C78.1093 30.5399 78.3644 30.4474 78.2646 30.1815C78.2313 30.089 78.2757 29.9387 78.3644 29.8346C78.5974 29.6034 78.5197 29.4068 78.1869 29.3374C78.0427 29.3027 77.9096 29.2102 77.8874 29.1177C77.843 28.8981 77.1996 27.9268 76.9888 27.7534C76.8335 27.6377 76.8335 27.6031 77.011 27.4065C77.2772 27.0943 77.244 26.9093 76.9333 26.9093C76.6116 26.9093 76.4563 26.7359 76.6893 26.6434C76.8779 26.5624 77.1441 26.0999 76.9999 26.0999C76.9444 26.0999 76.8335 26.1809 76.7558 26.2734Z" fill="white"/>
<path d="M74.5149 28.3662C74.4262 28.5743 74.3264 28.6437 74.171 28.5975C73.8826 28.5281 73.7162 28.9906 73.9603 29.1987C74.1267 29.3259 74.1156 29.3606 73.8937 29.5225C73.2946 29.9618 73.816 30.2278 74.6592 29.9156C75.2915 29.6959 75.4246 29.5456 75.4246 29.0831C75.4246 28.9096 75.4801 28.7362 75.5356 28.7015C75.7796 28.5396 75.6465 28.2043 75.3026 28.135C74.7479 28.0193 74.6481 28.054 74.5149 28.3662Z" fill="white"/>
<path d="M132.069 44.7041C131.836 45.1666 131.848 45.5135 132.114 45.9181L132.325 46.265L132.435 45.9528C132.646 45.3978 132.668 45.1319 132.58 44.785C132.458 44.311 132.269 44.2878 132.069 44.7041Z" fill="white"/>
<path d="M38.9041 45.8834C38.7266 46.0106 38.5935 46.2187 38.5935 46.3459C38.5935 46.6465 38.7599 46.6234 39.004 46.2997C39.3368 45.8603 39.4477 45.8487 40.1799 46.1147C41.023 46.4153 41.2116 46.5887 41.3115 47.0975L41.378 47.4906L42.1213 47.4212C42.5318 47.375 42.9644 47.294 43.0865 47.2247C43.2862 47.1206 43.264 47.0859 42.8646 46.9125C42.6205 46.7969 42.2988 46.5772 42.1435 46.4037C41.8329 46.0453 41.0563 45.7909 39.9802 45.6984C39.3035 45.6406 39.1704 45.6637 38.9041 45.8834Z" fill="white"/>
<path d="M43.7854 47.6409C43.7521 47.9647 43.7077 48.0225 43.3749 48.0687C42.7758 48.1612 42.8091 48.4156 43.4082 48.4156C43.6855 48.4156 43.9185 48.4618 43.9185 48.5312C43.9185 48.7162 44.2735 48.6584 44.4177 48.4503C44.5065 48.3347 44.7727 48.2422 45.1832 48.2075C45.5271 48.1843 45.8044 48.115 45.8044 48.0572C45.8044 48.0109 45.6269 47.8259 45.4161 47.6525C45.1388 47.4328 44.9391 47.3634 44.7394 47.4097C44.573 47.4443 44.3068 47.4212 44.1293 47.375C43.8408 47.2825 43.8186 47.3056 43.7854 47.6409Z" fill="white"/>
<path d="M127.477 47.3403C127.343 47.3634 127.177 47.4906 127.122 47.6063C126.844 48.1613 127.521 48.4272 127.854 47.8953C128.02 47.6178 128.009 47.2363 127.821 47.2709C127.776 47.2825 127.621 47.3172 127.477 47.3403Z" fill="white"/>
<path d="M132.857 47.9646C132.746 48.034 132.668 48.219 132.668 48.4502C132.668 48.6584 132.591 48.9706 132.502 49.144C132.302 49.5487 132.402 50.1152 132.691 50.2771C132.846 50.3581 132.89 50.4737 132.846 50.6471C132.813 50.7974 132.879 51.0056 133.001 51.1559C133.268 51.5027 133.334 51.4912 133.334 51.0749C133.334 50.7396 133.345 50.7396 133.634 50.8784C133.8 50.9477 134.122 51.2252 134.344 51.4796C134.699 51.8727 134.732 51.9537 134.588 52.0462C134.477 52.1156 134.31 52.0809 134.111 51.9537C133.933 51.8496 133.767 51.7687 133.733 51.7687C133.578 51.7687 133.678 52.3584 133.867 52.5549C133.978 52.6706 134.1 52.8556 134.144 52.9596C134.222 53.1677 134.41 53.2024 134.71 53.0868C134.943 52.9943 134.932 52.8209 134.699 52.5549C134.532 52.3584 134.532 52.3237 134.665 52.2312C134.921 52.0577 135.02 52.1502 135.176 52.7052C135.32 53.1793 135.309 53.2256 135.087 53.399C134.965 53.5031 134.765 53.5609 134.654 53.5377C134.41 53.4684 134.055 53.8384 133.955 54.2662C133.889 54.5784 133.9 54.5899 134.055 54.3818C134.144 54.2546 134.333 54.1506 134.488 54.1274C134.71 54.1043 134.765 54.1621 134.821 54.4859C134.865 54.7402 135.02 54.9715 135.22 55.1218L135.553 55.3646V54.9484C135.553 54.6131 135.597 54.5437 135.753 54.5668C135.875 54.5899 135.93 54.5437 135.897 54.4281C135.886 54.3356 135.852 53.9887 135.841 53.6534C135.83 53.214 135.764 52.9827 135.575 52.7746C135.442 52.6243 135.331 52.3584 135.331 52.1849C135.331 51.7224 135.153 51.4449 134.776 51.364C134.488 51.2946 134.455 51.2484 134.51 50.9593C134.577 50.6471 134.543 50.624 134.1 50.4968C133.833 50.4159 133.545 50.3349 133.478 50.3118C133.301 50.2656 133.29 49.5256 133.445 49.2134C133.534 49.0631 133.523 48.8549 133.434 48.5312C133.268 47.9646 133.123 47.8143 132.857 47.9646Z" fill="white"/>
<path d="M131.304 54.775C131.193 55.0178 130.938 55.33 130.727 55.4688C130.527 55.596 130.217 55.8735 130.039 56.0816C129.862 56.2897 129.595 56.5094 129.429 56.5903C129.263 56.6713 129.052 56.891 128.952 57.0991C128.786 57.4228 128.73 57.4575 128.375 57.3997C128.076 57.3419 127.998 57.365 128.053 57.4922C128.087 57.5847 128.064 57.6888 128.009 57.7235C127.832 57.8391 127.887 58.3941 128.12 58.7988C128.242 59.0069 128.342 59.3422 128.342 59.5388C128.342 60.0706 128.597 60.3135 129.096 60.2441C129.351 60.2094 129.684 60.2556 129.939 60.3713C130.805 60.7413 131.426 60.5216 131.304 59.8856C131.248 59.585 131.293 59.4578 131.559 59.1688C131.803 58.9144 131.892 58.7063 131.892 58.4172C131.892 58.0819 131.936 58.001 132.169 57.9431C132.502 57.8622 132.513 57.7813 132.225 57.3997C131.925 57.0066 131.947 56.5325 132.28 56.0238C132.435 55.7925 132.557 55.5266 132.557 55.4456C132.557 55.3069 131.681 54.3125 131.559 54.3125C131.526 54.3125 131.415 54.5206 131.304 54.775Z" fill="white"/>
<path d="M121.419 55.3184C121.275 55.4687 121.364 55.6537 121.674 55.8387C121.863 55.9428 122.129 56.2319 122.285 56.4862C122.44 56.7406 122.662 56.9834 122.784 57.0297C122.906 57.0644 123.083 57.2378 123.172 57.4112C123.605 58.2784 123.938 59.0647 124.126 59.6659C124.348 60.3944 124.969 61.1112 125.679 61.435C126.045 61.6084 126.068 61.6084 126.267 61.3541C126.389 61.2037 126.445 60.9956 126.412 60.8453C126.378 60.7066 126.445 60.4059 126.567 60.1747L126.789 59.7469H126.511C126.356 59.7469 126.234 59.6891 126.234 59.6312C126.234 59.5619 126.023 59.3075 125.779 59.0531C125.424 58.6947 125.347 58.5559 125.435 58.4403C125.535 58.3247 125.457 58.1975 125.091 57.8853C124.836 57.6656 124.437 57.365 124.215 57.2147C123.982 57.0759 123.705 56.7984 123.605 56.6019C123.461 56.3591 123.106 56.1047 122.451 55.7462C121.919 55.4803 121.464 55.2837 121.419 55.3184Z" fill="white"/>
<path d="M135.054 57.5615C134.787 57.7234 134.61 57.7465 134.166 57.6656C133.279 57.5037 133.157 57.5268 133.023 57.839C132.946 58.0009 132.89 58.2668 132.89 58.4171C132.89 58.5675 132.791 58.9259 132.668 59.215C132.502 59.6428 132.48 59.8162 132.569 60.0706C132.635 60.244 132.691 60.6256 132.68 60.9262C132.668 61.4003 132.702 61.4812 132.89 61.4812C133.212 61.4812 133.356 61.0996 133.268 60.4406C133.223 60.059 133.234 59.8625 133.312 59.8625C133.445 59.8625 133.6 60.0821 133.611 60.2671C133.645 60.6025 133.822 61.0881 133.966 61.2153C134.41 61.5853 134.599 60.9031 134.255 60.1862C134.155 59.9781 134.033 59.7121 133.978 59.5965C133.9 59.4346 133.944 59.3306 134.155 59.1571C134.321 59.03 134.443 58.8681 134.443 58.8103C134.443 58.66 133.922 58.6831 133.656 58.845C133.467 58.9721 133.412 58.9606 133.268 58.764C132.89 58.2321 133.312 57.735 133.911 58.0125C134.688 58.3593 135.508 58.1281 135.42 57.5846C135.386 57.365 135.375 57.365 135.054 57.5615Z" fill="white"/>
<path d="M138.138 58.6716C137.994 58.6947 137.883 58.7641 137.883 58.8103C137.883 58.9375 138.26 59.2844 138.404 59.2844C138.559 59.2844 138.936 59.7353 138.848 59.8162C138.715 59.955 139.103 60.5562 139.303 60.5216C139.558 60.4869 141 61.0072 141.233 61.2153C141.51 61.4697 141.621 62.2906 141.388 62.4294C141.122 62.5912 141.177 62.7531 141.488 62.7531C141.643 62.7531 142.021 62.8803 142.32 63.0422C143.086 63.4469 143.341 63.4122 143.884 62.8687C144.139 62.6144 144.384 62.4062 144.439 62.4062C144.483 62.4062 144.761 62.6953 145.049 63.0422C145.437 63.5162 145.715 63.7244 146.114 63.8631C146.403 63.9556 146.702 64.025 146.78 64.0019C146.846 63.9787 146.602 63.6319 146.236 63.2272C145.493 62.4409 145.304 62.0594 145.659 62.0594C145.77 62.0594 145.87 61.99 145.87 61.8975C145.87 61.6778 145.349 61.25 145.082 61.25C144.949 61.25 144.872 61.1691 144.872 61.0303C144.872 60.7528 144.384 60.3597 143.429 59.8625C142.708 59.4809 141.61 59.0647 141.333 59.0531C141.255 59.0531 140.978 59.2959 140.711 59.5966L140.234 60.1284L139.835 59.6775C139.513 59.3191 139.447 59.1687 139.502 58.9028C139.569 58.5906 139.558 58.5906 138.97 58.6022C138.648 58.6137 138.271 58.6484 138.138 58.6716Z" fill="white"/>
<path d="M126.622 61.5622C126.09 61.7009 125.957 62.0594 126.445 62.0594C126.633 62.0594 126.911 62.1866 127.099 62.3484C127.321 62.5334 127.665 62.6837 128.087 62.7531C129.607 63.0191 130.183 63.1347 130.361 63.2272C130.483 63.2966 130.727 63.2734 131.015 63.1694C131.326 63.0537 131.548 63.0306 131.681 63.1C131.792 63.1694 132.247 63.2041 132.702 63.1925C133.157 63.1925 133.578 63.2156 133.656 63.2619C133.722 63.3081 133.944 63.2966 134.144 63.2387C134.332 63.1694 134.676 63.0884 134.887 63.0537L135.275 62.9844L135.009 63.2272C134.865 63.3544 134.676 63.4931 134.61 63.5394C134.532 63.5856 134.432 63.7475 134.388 63.8978C134.321 64.1406 134.388 64.1059 134.909 63.6434C135.242 63.3544 135.653 63.0537 135.83 62.9844C136.13 62.8687 136.141 62.8341 135.963 62.7416C135.83 62.6606 135.575 62.6722 135.165 62.7647C134.71 62.8687 134.488 62.8687 134.277 62.7762C134.066 62.6722 133.922 62.6837 133.645 62.7994C133.356 62.9266 133.145 62.9381 132.668 62.8456C132.336 62.7762 131.759 62.7069 131.393 62.6953C130.172 62.6606 129.44 62.4178 129.95 62.2212C130.239 62.1056 130.006 61.9437 129.551 61.9437C129.307 61.9437 128.985 61.8628 128.83 61.7472C128.564 61.5737 128.553 61.5737 128.486 61.805C128.397 62.175 127.754 62.1519 127.321 61.7703C127.144 61.6084 126.955 61.4928 126.922 61.4928C126.877 61.5044 126.744 61.5391 126.622 61.5622Z" fill="white"/>
<path d="M138.359 64.6031C138.426 64.9037 138.393 64.9499 138.126 65.0077C137.96 65.054 137.749 65.1234 137.66 65.1696C137.45 65.2852 136.995 66.1177 137.061 66.2449C137.095 66.2912 137.106 66.3374 137.084 66.3374C137.061 66.3374 136.884 66.3837 136.684 66.4415C136.351 66.5456 136.307 66.5224 136.196 66.2681C135.952 65.7246 135.275 65.794 135.198 66.3721C135.175 66.5109 135.087 66.6265 134.987 66.6265C134.887 66.6265 134.61 66.8462 134.355 67.1237C133.977 67.5284 133.878 67.5862 133.822 67.4474C133.767 67.2856 133.722 67.2971 133.545 67.5052C133.423 67.644 133.334 67.8637 133.334 67.9909C133.334 68.4302 132.557 69.0546 131.614 69.3784C131.126 69.5518 130.66 69.6906 130.583 69.6906C130.505 69.6906 130.205 69.864 129.917 70.0606C129.629 70.2687 129.318 70.4421 129.229 70.4421C129.118 70.4421 129.052 70.5924 129.03 70.9046C129.007 71.159 128.919 71.4481 128.83 71.5521C128.708 71.6909 128.697 71.8181 128.774 72.0377C128.863 72.2806 128.841 72.3615 128.652 72.4887C128.453 72.6274 128.442 72.6852 128.553 72.9165C128.641 73.0784 128.697 73.7143 128.708 74.5352C128.73 75.6337 128.697 75.969 128.519 76.3737C128.408 76.6396 128.242 76.8593 128.153 76.8593C127.876 76.8593 127.998 77.3102 128.342 77.4952C128.797 77.7381 129.007 77.7149 129.706 77.3218C130.228 77.0327 130.461 76.9749 131.104 76.9749C131.648 76.9749 131.903 76.9287 131.969 76.8131C132.225 76.3621 134.122 75.7609 135.242 75.784C136.207 75.7956 137.15 76.5471 136.928 77.1368C136.806 77.4606 137.206 77.5068 137.472 77.1831C137.771 76.8246 138.326 76.4662 138.326 76.6281C138.326 76.6859 138.182 76.8824 137.993 77.0559C137.594 77.4259 137.55 77.6571 137.938 77.3912C138.282 77.1484 138.315 77.1599 138.248 77.4374C138.215 77.5646 137.993 77.7496 137.76 77.8652C137.305 78.0849 137.239 78.189 137.483 78.2815C137.572 78.3162 137.749 78.2237 137.893 78.0618C138.248 77.6687 138.359 77.7149 138.293 78.2352C138.215 78.8596 138.515 79.3452 139.069 79.5071C139.646 79.6806 139.935 79.669 140.101 79.4609C140.279 79.2412 140.434 79.2412 140.434 79.4493C140.434 79.5302 140.5 79.669 140.578 79.7384C140.7 79.8309 140.844 79.7731 141.222 79.4724C141.51 79.2412 141.887 79.0562 142.142 79.0215C142.375 78.9868 142.597 78.9174 142.642 78.8596C142.997 78.2931 144.583 76.4084 144.794 76.2927C145.249 76.0384 145.981 74.6046 146.314 73.3327L146.613 72.1649L146.303 71.714C146.136 71.4596 145.959 71.1127 145.925 70.9393C145.881 70.7543 145.748 70.5462 145.626 70.4537C145.493 70.3496 145.393 70.1299 145.371 69.8987C145.348 69.6559 145.193 69.3437 144.927 69.0199C144.494 68.4996 144.206 67.7249 144.206 67.0774C144.206 66.4762 144.017 66.0831 143.773 66.164C143.596 66.2218 143.551 66.1524 143.485 65.7362C143.185 63.7706 142.941 63.7821 142.608 65.8171C142.42 66.9502 141.954 67.9562 141.632 67.9562C141.333 67.9562 140.944 67.6671 140.279 66.9387L139.691 66.3027L140.012 65.8056C140.19 65.5281 140.378 65.2737 140.445 65.239C140.567 65.1465 140.567 65.054 140.445 64.8459C140.367 64.7187 140.279 64.7187 139.968 64.8343C139.635 64.9615 139.535 64.9499 139.136 64.7302C138.881 64.6031 138.648 64.4412 138.603 64.3718C138.448 64.1174 138.304 64.2677 138.359 64.6031Z" fill="white"/>
<path d="M99.6977 65.424C99.4869 65.7015 99.2096 66.0946 99.0764 66.2912C98.9322 66.5109 98.5994 66.7653 98.2333 66.9271C97.4789 67.2625 97.2016 67.7596 97.3902 68.4187C97.5677 69.0431 97.5233 69.4593 97.2349 69.9681C97.0019 70.3843 96.8688 71.1359 96.9353 71.7487C96.9575 72.0262 97.5233 72.4656 97.845 72.4656C98.433 72.4656 98.7769 71.9684 99.1763 70.5578C99.3649 69.8525 99.5646 69.0778 99.62 68.8234C99.6644 68.569 99.7864 68.1528 99.8863 67.91C99.9861 67.6671 100.042 67.355 100.008 67.2278C99.975 67.0775 100.019 66.985 100.175 66.9503C100.352 66.8925 100.386 66.7884 100.386 66.1756C100.374 65.794 100.308 65.3431 100.23 65.1928L100.086 64.9268L99.6977 65.424Z" fill="white"/>
<path d="M153.369 77.7612C153.336 77.9924 153.303 78.3277 153.303 78.5012C153.303 78.9984 152.97 79.6112 152.615 79.7615C152.327 79.8887 152.315 79.9118 152.471 80.0968C152.704 80.3627 152.682 80.513 152.393 80.7212C152.082 80.9524 151.972 80.9524 151.972 80.7327C151.972 80.5824 151.927 80.5709 151.75 80.6749C151.628 80.7443 151.461 80.7905 151.384 80.7674C151.306 80.7443 151.04 80.8946 150.807 81.0912C150.563 81.2877 150.03 81.623 149.631 81.8543C149.231 82.0855 148.444 82.5596 147.878 82.9296L146.846 83.5887L147.19 83.8084C147.534 84.028 147.545 84.028 148.011 83.7852C148.266 83.6465 148.754 83.3112 149.087 83.0452C149.42 82.7677 149.853 82.5134 150.052 82.4671C150.263 82.4209 150.441 82.3052 150.474 82.1665C150.518 82.0509 150.707 81.8659 150.895 81.7618C151.095 81.6577 151.361 81.4727 151.494 81.3455C151.639 81.2068 151.916 81.1027 152.16 81.0912C152.648 81.068 153.58 80.4668 153.691 80.0968C153.724 79.9696 153.857 79.8655 153.968 79.8655C154.179 79.8655 154.856 79.2412 154.856 79.033C154.856 78.9637 154.767 78.9521 154.667 78.9984C154.301 79.1487 154.135 79.114 154.024 78.848C153.968 78.7093 153.88 78.5937 153.824 78.5937C153.769 78.5937 153.769 78.3624 153.802 78.0849C153.869 77.6455 153.846 77.553 153.658 77.449C153.469 77.3449 153.436 77.3796 153.369 77.7612Z" fill="white"/>
<path d="M139.225 81.1953C138.936 82.1549 138.936 82.1549 139.247 82.2012C139.669 82.2821 140.279 81.8428 140.6 81.2415L140.889 80.6749L140.379 80.7443C139.99 80.8021 139.824 80.779 139.669 80.6171C139.458 80.4321 139.447 80.4437 139.225 81.1953Z" fill="white"/>
</g>
<path d="M144.633 96L156.3 96C157.221 96 157.967 95.2965 157.967 94.4286L157.967 89.5795C157.967 89.1627 157.791 88.763 157.479 88.4683L154.288 85.4603C153.976 85.1656 153.552 85 153.11 85L144.633 85C143.713 85 142.967 85.7014 142.967 86.5692L142.967 94.4292C142.967 95.2971 143.713 96 144.633 96Z" fill="white"/>
<path d="M147.319 90.848C147.319 90.912 147.315 90.9787 147.307 91.048H145.759C145.769 91.1867 145.813 91.2933 145.891 91.368C145.971 91.44 146.068 91.476 146.183 91.476C146.353 91.476 146.472 91.404 146.539 91.26H147.267C147.229 91.4067 147.161 91.5387 147.063 91.656C146.967 91.7733 146.845 91.8653 146.699 91.932C146.552 91.9987 146.388 92.032 146.207 92.032C145.988 92.032 145.793 91.9853 145.623 91.892C145.452 91.7987 145.319 91.6653 145.223 91.492C145.127 91.3187 145.079 91.116 145.079 90.884C145.079 90.652 145.125 90.4493 145.219 90.276C145.315 90.1027 145.448 89.9693 145.619 89.876C145.789 89.7827 145.985 89.736 146.207 89.736C146.423 89.736 146.615 89.7813 146.783 89.872C146.951 89.9627 147.081 90.092 147.175 90.26C147.271 90.428 147.319 90.624 147.319 90.848ZM146.619 90.668C146.619 90.5507 146.579 90.4573 146.499 90.388C146.419 90.3187 146.319 90.284 146.199 90.284C146.084 90.284 145.987 90.3173 145.907 90.384C145.829 90.4507 145.781 90.5453 145.763 90.668H146.619ZM148.696 92.028C148.49 92.028 148.306 91.9947 148.144 91.928C147.981 91.8613 147.85 91.7627 147.752 91.632C147.656 91.5013 147.605 91.344 147.6 91.16H148.328C148.338 91.264 148.374 91.344 148.436 91.4C148.497 91.4533 148.577 91.48 148.676 91.48C148.777 91.48 148.857 91.4573 148.916 91.412C148.974 91.364 149.004 91.2987 149.004 91.216C149.004 91.1467 148.98 91.0893 148.932 91.044C148.886 90.9987 148.829 90.9613 148.76 90.932C148.693 90.9027 148.597 90.8693 148.472 90.832C148.29 90.776 148.142 90.72 148.028 90.664C147.913 90.608 147.814 90.5253 147.732 90.416C147.649 90.3067 147.608 90.164 147.608 89.988C147.608 89.7267 147.702 89.5227 147.892 89.376C148.081 89.2267 148.328 89.152 148.632 89.152C148.941 89.152 149.19 89.2267 149.38 89.376C149.569 89.5227 149.67 89.728 149.684 89.992H148.944C148.938 89.9013 148.905 89.8307 148.844 89.78C148.782 89.7267 148.704 89.7 148.608 89.7C148.525 89.7 148.458 89.7227 148.408 89.768C148.357 89.8107 148.332 89.8733 148.332 89.956C148.332 90.0467 148.374 90.1173 148.46 90.168C148.545 90.2187 148.678 90.2733 148.86 90.332C149.041 90.3933 149.188 90.452 149.3 90.508C149.414 90.564 149.513 90.6453 149.596 90.752C149.678 90.8587 149.72 90.996 149.72 91.164C149.72 91.324 149.678 91.4693 149.596 91.6C149.516 91.7307 149.398 91.8347 149.244 91.912C149.089 91.9893 148.906 92.028 148.696 92.028ZM150.825 89.192V92H150.141V89.192H150.825ZM154.5 89.192V92H153.816V90.316L153.188 92H152.636L152.004 90.312V92H151.32V89.192H152.128L152.916 91.136L153.696 89.192H154.5Z" fill="url(#paint1_linear_1246_3596)"/>
<defs>
<linearGradient id="paint0_linear_1246_3596" x1="0.966797" y1="0" x2="93.5018" y2="148.236" gradientUnits="userSpaceOnUse">
<stop stop-color="#8C7CF3"/>
<stop offset="1" stop-color="#00B1C9"/>
</linearGradient>
<linearGradient id="paint1_linear_1246_3596" x1="144.967" y1="91" x2="154.967" y2="91" gradientUnits="userSpaceOnUse">
<stop stop-color="#887DF1"/>
<stop offset="1" stop-color="#05B0CB"/>
</linearGradient>
<clipPath id="clip0_1246_3596">
<rect width="142" height="74" fill="white" transform="translate(12.9668 15)"/>
</clipPath>
</defs>
</svg>
