<svg width="283" height="566" viewBox="0 0 283 566" fill="none" xmlns="http://www.w3.org/2000/svg">
<g clip-path="url(#clip0_1073_103)">
<path fill-rule="evenodd" clip-rule="evenodd" d="M41.2031 0H241.58C263.138 0 280.615 17.5368 280.615 39.1695V526.83C280.615 548.463 263.138 566 241.58 566H41.2031C19.6449 566 2.16858 548.463 2.16858 526.83V39.1695C2.16858 17.5368 19.6449 0 41.2031 0Z" fill="#444444"/>
<path fill-rule="evenodd" clip-rule="evenodd" d="M41.8537 3.26465H240.929C261.05 3.26465 277.362 19.6323 277.362 39.8229V526.178C277.362 546.369 261.05 562.736 240.929 562.736H41.8537C21.7328 562.736 5.42151 546.369 5.42151 526.178V39.8229C5.42151 19.6323 21.7328 3.26465 41.8537 3.26465Z" fill="#141414"/>
<path d="M280.832 54.4023H276.061V58.7545H280.832V54.4023Z" fill="#141414"/>
<path d="M6.93946 54.4023H2.16858V58.7545H6.93946V54.4023Z" fill="#141414"/>
<path d="M280.832 507.028H276.061V511.38H280.832V507.028Z" fill="#141414"/>
<path d="M6.93946 507.028H2.16858V511.38H6.93946V507.028Z" fill="#141414"/>
<path fill-rule="evenodd" clip-rule="evenodd" d="M19.6263 41.5335C19.6263 28.3297 30.3055 17.626 43.4804 17.626H239.738C252.912 17.626 263.592 28.3289 263.592 41.5335V523.16C263.592 536.364 252.913 547.068 239.738 547.068H43.4804C30.3061 547.068 19.6263 536.365 19.6263 523.16V41.5335Z" fill="url(#paint0_linear_1073_103)"/>
<path d="M181.556 320.339C180.065 313.852 175.768 310.995 174.798 306.17C174.627 305.191 174.648 304.187 174.858 303.215C176.394 295.217 176.971 286.635 169.884 280.529C169.561 280.253 169.218 280.002 168.857 279.779C163.104 276.155 157.169 274.027 150.25 274.021C153.037 277.508 160.007 279.08 159.481 283.785C157.909 290.755 151.807 295.631 150.931 303.473C149.53 316.02 159.898 325.161 172.334 324.894C173.372 324.871 174.774 324.83 176.067 324.732C176.981 324.665 177.876 324.434 178.708 324.05C180.959 322.952 181.863 321.679 181.556 320.339Z" fill="white"/>
<path d="M152.293 252.07C151.489 252.834 150.793 253.703 150.222 254.653C146.82 260.228 144.858 265.959 144.856 272.624C146.253 267.223 151.484 263.043 156.189 263.569C158.542 263.831 161.182 265.464 163.232 267.368C164.486 268.514 165.947 269.409 167.538 270.005C168.14 270.238 168.773 270.504 169.427 270.795C170.903 271.47 172.491 271.87 174.111 271.973C180.654 272.323 186.093 269.262 190.617 264.869C191.508 264.008 192.284 263.035 192.925 261.974C196.789 255.451 197.779 246.768 191.857 242.173C190.947 241.472 187.676 240.193 185.689 242.659C185.505 242.904 185.391 243.195 185.361 243.5C185.108 244.045 184.738 244.528 184.278 244.915C183.067 246.019 181.536 247.356 180.195 247.206C170.375 248.376 159.622 245.199 152.293 252.07Z" fill="white"/>
<path d="M148.843 279.401C146.601 285.443 141.561 290.899 135.393 287.514C135.295 287.464 135.213 287.379 135.112 287.324C127.678 283.366 120.232 279.41 112.996 280.964C104.804 283.225 98.527 289.67 97.4979 299.062C97.1905 301.815 97.3008 305.698 98.8756 308.446C99.2699 309.095 99.8064 309.647 100.445 310.059C101.083 310.47 101.806 310.732 102.56 310.824C103.315 310.916 104.08 310.836 104.798 310.589C105.517 310.342 106.17 309.936 106.709 309.4C112.519 303.65 121.235 306.262 129.717 305.884C129.938 305.873 130.158 305.85 130.376 305.814C143.037 303.918 149.882 291.328 148.843 279.401Z" fill="white"/>
<path d="M143.446 278.001C138.098 276.618 133.759 273.029 134.386 266.85C134.394 266.74 134.411 266.63 134.438 266.523C136.077 259.635 142.932 254.093 142.247 246.148C141.38 239.7 137.903 234.036 132.149 229.935C127.934 226.94 123.743 226.782 117.996 227.418C117.811 227.437 117.287 227.541 117.108 227.577C113.282 228.356 109.908 230.695 111.092 233.92C112.277 237.144 116.144 238.454 117.362 241.766C119.623 249.958 115.435 259.017 120.833 267.56C123.168 271.321 126.555 274.315 130.574 276.171C134.593 278.027 139.069 278.663 143.446 278.001Z" fill="white"/>
<path fill-rule="evenodd" clip-rule="evenodd" d="M112.766 26.1132C114.204 26.1132 115.369 24.9441 115.369 23.5019C115.369 22.0597 114.204 20.8906 112.766 20.8906C111.329 20.8906 110.164 22.0597 110.164 23.5019C110.164 24.9441 111.329 26.1132 112.766 26.1132Z" fill="#444444"/>
<path fill-rule="evenodd" clip-rule="evenodd" d="M173.053 27.8538C175.448 27.8538 177.39 25.9052 177.39 23.5016C177.39 21.0979 175.448 19.1494 173.053 19.1494C170.658 19.1494 168.716 21.0979 168.716 23.5016C168.716 25.9052 170.658 27.8538 173.053 27.8538Z" fill="#444444"/>
<path fill-rule="evenodd" clip-rule="evenodd" d="M127.079 21.7607H156.138C157.096 21.7607 157.873 22.5402 157.873 23.5016C157.873 24.463 157.096 25.2425 156.138 25.2425H127.079C126.121 25.2425 125.344 24.463 125.344 23.5016C125.344 22.5402 126.121 21.7607 127.079 21.7607Z" fill="#444444"/>
<path fill-rule="evenodd" clip-rule="evenodd" d="M0 117.942C0 117.462 0.465239 117.073 1.04346 117.073H2.6023V158.419H1.04346C0.467173 158.419 0 158.029 0 157.551V117.942Z" fill="#444444"/>
<path fill-rule="evenodd" clip-rule="evenodd" d="M0 169.515C0 169.035 0.465239 168.646 1.04346 168.646H2.6023V209.992H1.04346C0.467173 209.992 0 209.603 0 209.124V169.515Z" fill="#444444"/>
<path fill-rule="evenodd" clip-rule="evenodd" d="M0 77.4675C0 76.9871 0.465239 76.5977 1.04346 76.5977H2.6023V99.229H1.04346C0.467173 99.229 0 98.8409 0 98.3591V77.4675Z" fill="#444444"/>
<path fill-rule="evenodd" clip-rule="evenodd" d="M280.398 130.13H281.699C282.417 130.13 283 130.615 283 131.217V196.502C283 197.102 282.416 197.589 281.699 197.589H280.398V130.13Z" fill="#444444"/>
<path fill-rule="evenodd" clip-rule="evenodd" d="M72.4308 17.626V21.5381C72.4308 30.1825 79.4314 37.1866 88.0671 37.1866H194.933C203.568 37.1866 210.569 30.1806 210.569 21.5381V20.4522V20.2357V17.626H72.4308Z" fill="#212121"/>
</g>
<defs>
<linearGradient id="paint0_linear_1073_103" x1="19.6263" y1="300.165" x2="263.894" y2="288.873" gradientUnits="userSpaceOnUse">
<stop stop-color="#008799"/>
<stop offset="1" stop-color="#00E0FF"/>
</linearGradient>
<clipPath id="clip0_1073_103">
<rect width="283" height="566" fill="white"/>
</clipPath>
</defs>
</svg>
