<svg width="419" height="838" viewBox="0 0 419 838" fill="none" xmlns="http://www.w3.org/2000/svg">
<path fill-rule="evenodd" clip-rule="evenodd" d="M61.0038 0H357.675C389.593 0 415.468 25.9644 415.468 57.9931V780.007C415.468 812.036 389.593 838 357.675 838H61.0038C29.0855 838 3.21069 812.036 3.21069 780.007V57.9931C3.21069 25.9644 29.0855 0 61.0038 0Z" fill="#444444"/>
<path fill-rule="evenodd" clip-rule="evenodd" d="M61.967 4.83276H356.712C386.502 4.83276 410.652 29.0662 410.652 58.9596V779.04C410.652 808.934 386.502 833.167 356.712 833.167H61.967C32.1766 833.167 8.02673 808.934 8.02673 779.04V58.9596C8.02673 29.0662 32.1766 4.83276 61.967 4.83276Z" fill="#141414"/>
<rect x="408.726" y="80.5459" width="7.06368" height="6.44369" fill="#141414"/>
<rect x="3.21069" y="80.5459" width="7.0636" height="6.44369" fill="#141414"/>
<rect x="408.726" y="750.688" width="7.06368" height="6.44372" fill="#141414"/>
<rect x="3.21069" y="750.688" width="7.0636" height="6.44372" fill="#141414"/>
<path fill-rule="evenodd" clip-rule="evenodd" d="M29.0581 61.4928C29.0581 41.9438 44.8693 26.0962 64.3756 26.0962H354.948C374.453 26.0962 390.265 41.9426 390.265 61.4928V774.573C390.265 794.122 374.454 809.969 354.948 809.969H64.3756C44.8703 809.969 29.0581 794.123 29.0581 774.573V61.4928Z" fill="white"/>
<path fill-rule="evenodd" clip-rule="evenodd" d="M166.958 38.6621C169.086 38.6621 170.811 36.9311 170.811 34.7959C170.811 32.6606 169.086 30.9297 166.958 30.9297C164.83 30.9297 163.105 32.6606 163.105 34.7959C163.105 36.9311 164.83 38.6621 166.958 38.6621Z" fill="#444444"/>
<path fill-rule="evenodd" clip-rule="evenodd" d="M256.216 41.2394C259.763 41.2394 262.638 38.3545 262.638 34.7957C262.638 31.237 259.763 28.3521 256.216 28.3521C252.67 28.3521 249.795 31.237 249.795 34.7957C249.795 38.3545 252.67 41.2394 256.216 41.2394Z" fill="#444444"/>
<path fill-rule="evenodd" clip-rule="evenodd" d="M188.148 32.2183H231.172C232.591 32.2183 233.741 33.3723 233.741 34.7957C233.741 36.2191 232.591 37.3732 231.172 37.3732H188.148C186.73 37.3732 185.58 36.2191 185.58 34.7957C185.58 33.3723 186.73 32.2183 188.148 32.2183" fill="#444444"/>
<path fill-rule="evenodd" clip-rule="evenodd" d="M0 174.62C0 173.91 0.688817 173.335 1.54491 173.335H3.85287V234.55H1.54491C0.69168 234.55 0 233.973 0 233.264V174.62Z" fill="#444444"/>
<path fill-rule="evenodd" clip-rule="evenodd" d="M0 250.978C0 250.268 0.688817 249.692 1.54491 249.692H3.85287V310.907H1.54491C0.69168 310.907 0 310.331 0 309.622V250.978Z" fill="#444444"/>
<path fill-rule="evenodd" clip-rule="evenodd" d="M0 114.697C0 113.985 0.688817 113.409 1.54491 113.409H3.85287V146.916H1.54491C0.69168 146.916 0 146.341 0 145.628V114.697Z" fill="#444444"/>
<path fill-rule="evenodd" clip-rule="evenodd" d="M415.147 192.666H417.074C418.138 192.666 419 193.384 419 194.275V290.933C419 291.822 418.135 292.543 417.074 292.543H415.147V192.666Z" fill="#444444"/>
<path d="M311.762 31.8887C311.762 44.6843 301.396 55.0575 288.612 55.0576H130.389C117.603 55.0575 107.239 44.6871 107.239 31.8887V26.0967H311.762V31.8887Z" fill="#212121"/>
</svg>
