<svg width="547" height="360" viewBox="0 0 547 360" fill="none" xmlns="http://www.w3.org/2000/svg">
<path d="M68.375 300.766H71.375C71.2188 302.203 70.8073 303.49 70.1406 304.625C69.474 305.76 68.5312 306.661 67.3125 307.328C66.0938 307.984 64.5729 308.312 62.75 308.312C61.4167 308.312 60.2031 308.062 59.1094 307.562C58.026 307.062 57.0938 306.354 56.3125 305.438C55.5312 304.51 54.9271 303.401 54.5 302.109C54.0833 300.807 53.875 299.359 53.875 297.766V295.5C53.875 293.906 54.0833 292.464 54.5 291.172C54.9271 289.87 55.5365 288.755 56.3281 287.828C57.1302 286.901 58.0938 286.188 59.2188 285.688C60.3438 285.188 61.6094 284.938 63.0156 284.938C64.7344 284.938 66.1875 285.26 67.375 285.906C68.5625 286.552 69.4844 287.448 70.1406 288.594C70.8073 289.729 71.2188 291.047 71.375 292.547H68.375C68.2292 291.484 67.9583 290.573 67.5625 289.812C67.1667 289.042 66.6042 288.448 65.875 288.031C65.1458 287.615 64.1927 287.406 63.0156 287.406C62.0052 287.406 61.1146 287.599 60.3438 287.984C59.5833 288.37 58.9427 288.917 58.4219 289.625C57.9115 290.333 57.526 291.182 57.2656 292.172C57.0052 293.161 56.875 294.26 56.875 295.469V297.766C56.875 298.88 56.9896 299.927 57.2188 300.906C57.4583 301.885 57.8177 302.745 58.2969 303.484C58.776 304.224 59.3854 304.807 60.125 305.234C60.8646 305.651 61.7396 305.859 62.75 305.859C64.0312 305.859 65.0521 305.656 65.8125 305.25C66.5729 304.844 67.1458 304.26 67.5312 303.5C67.9271 302.74 68.2083 301.828 68.375 300.766ZM73.9813 299.734V299.375C73.9813 298.156 74.1583 297.026 74.5125 295.984C74.8667 294.932 75.3771 294.021 76.0438 293.25C76.7104 292.469 77.5177 291.865 78.4656 291.438C79.4135 291 80.476 290.781 81.6531 290.781C82.8406 290.781 83.9083 291 84.8563 291.438C85.8146 291.865 86.6271 292.469 87.2938 293.25C87.9708 294.021 88.4865 294.932 88.8406 295.984C89.1948 297.026 89.3719 298.156 89.3719 299.375V299.734C89.3719 300.953 89.1948 302.083 88.8406 303.125C88.4865 304.167 87.9708 305.078 87.2938 305.859C86.6271 306.63 85.8198 307.234 84.8719 307.672C83.9344 308.099 82.8719 308.312 81.6844 308.312C80.4969 308.312 79.4292 308.099 78.4813 307.672C77.5333 307.234 76.7208 306.63 76.0438 305.859C75.3771 305.078 74.8667 304.167 74.5125 303.125C74.1583 302.083 73.9813 300.953 73.9813 299.734ZM76.8719 299.375V299.734C76.8719 300.578 76.9708 301.375 77.1688 302.125C77.3667 302.865 77.6635 303.521 78.0594 304.094C78.4656 304.667 78.9708 305.12 79.575 305.453C80.1792 305.776 80.8823 305.938 81.6844 305.938C82.476 305.938 83.1688 305.776 83.7625 305.453C84.3667 305.12 84.8667 304.667 85.2625 304.094C85.6583 303.521 85.9552 302.865 86.1531 302.125C86.3615 301.375 86.4656 300.578 86.4656 299.734V299.375C86.4656 298.542 86.3615 297.755 86.1531 297.016C85.9552 296.266 85.6531 295.604 85.2469 295.031C84.851 294.448 84.351 293.99 83.7469 293.656C83.1531 293.323 82.4552 293.156 81.6531 293.156C80.8615 293.156 80.1635 293.323 79.5594 293.656C78.9656 293.99 78.4656 294.448 78.0594 295.031C77.6635 295.604 77.3667 296.266 77.1688 297.016C76.9708 297.755 76.8719 298.542 76.8719 299.375ZM95.5875 294.703V308H92.6969V291.094H95.4313L95.5875 294.703ZM94.9 298.906L93.6969 298.859C93.7073 297.703 93.8792 296.635 94.2125 295.656C94.5458 294.667 95.0146 293.807 95.6188 293.078C96.2229 292.349 96.9417 291.786 97.775 291.391C98.6188 290.984 99.551 290.781 100.572 290.781C101.405 290.781 102.155 290.896 102.822 291.125C103.489 291.344 104.056 291.698 104.525 292.188C105.004 292.677 105.369 293.312 105.619 294.094C105.869 294.865 105.994 295.807 105.994 296.922V308H103.088V296.891C103.088 296.005 102.957 295.297 102.697 294.766C102.436 294.224 102.056 293.833 101.556 293.594C101.056 293.344 100.442 293.219 99.7125 293.219C98.9938 293.219 98.3375 293.37 97.7438 293.672C97.1604 293.974 96.6552 294.391 96.2281 294.922C95.8115 295.453 95.4833 296.062 95.2438 296.75C95.0146 297.427 94.9 298.146 94.9 298.906ZM112.975 294.703V308H110.084V291.094H112.819L112.975 294.703ZM112.287 298.906L111.084 298.859C111.095 297.703 111.267 296.635 111.6 295.656C111.933 294.667 112.402 293.807 113.006 293.078C113.61 292.349 114.329 291.786 115.162 291.391C116.006 290.984 116.939 290.781 117.959 290.781C118.793 290.781 119.543 290.896 120.209 291.125C120.876 291.344 121.444 291.698 121.912 292.188C122.392 292.677 122.756 293.312 123.006 294.094C123.256 294.865 123.381 295.807 123.381 296.922V308H120.475V296.891C120.475 296.005 120.345 295.297 120.084 294.766C119.824 294.224 119.444 293.833 118.944 293.594C118.444 293.344 117.829 293.219 117.1 293.219C116.381 293.219 115.725 293.37 115.131 293.672C114.548 293.974 114.043 294.391 113.616 294.922C113.199 295.453 112.871 296.062 112.631 296.75C112.402 297.427 112.287 298.146 112.287 298.906ZM134.488 308.312C133.31 308.312 132.243 308.115 131.284 307.719C130.336 307.312 129.519 306.745 128.831 306.016C128.154 305.286 127.633 304.422 127.269 303.422C126.904 302.422 126.722 301.328 126.722 300.141V299.484C126.722 298.109 126.925 296.885 127.331 295.812C127.738 294.729 128.29 293.812 128.988 293.062C129.685 292.312 130.477 291.745 131.363 291.359C132.248 290.974 133.165 290.781 134.113 290.781C135.321 290.781 136.363 290.99 137.238 291.406C138.123 291.823 138.847 292.406 139.409 293.156C139.972 293.896 140.389 294.771 140.659 295.781C140.93 296.781 141.066 297.875 141.066 299.062V300.359H128.441V298H138.175V297.781C138.133 297.031 137.977 296.302 137.706 295.594C137.446 294.885 137.029 294.302 136.456 293.844C135.883 293.385 135.102 293.156 134.113 293.156C133.456 293.156 132.852 293.297 132.3 293.578C131.748 293.849 131.274 294.255 130.878 294.797C130.482 295.339 130.175 296 129.956 296.781C129.738 297.562 129.628 298.464 129.628 299.484V300.141C129.628 300.943 129.738 301.698 129.956 302.406C130.185 303.104 130.514 303.719 130.941 304.25C131.378 304.781 131.904 305.198 132.519 305.5C133.144 305.802 133.852 305.953 134.644 305.953C135.665 305.953 136.529 305.745 137.238 305.328C137.946 304.911 138.566 304.354 139.097 303.656L140.847 305.047C140.482 305.599 140.019 306.125 139.456 306.625C138.894 307.125 138.201 307.531 137.378 307.844C136.566 308.156 135.602 308.312 134.488 308.312ZM150.906 305.938C151.594 305.938 152.229 305.797 152.812 305.516C153.396 305.234 153.875 304.849 154.25 304.359C154.625 303.859 154.839 303.292 154.891 302.656H157.641C157.589 303.656 157.25 304.589 156.625 305.453C156.01 306.307 155.203 307 154.203 307.531C153.203 308.052 152.104 308.312 150.906 308.312C149.635 308.312 148.526 308.089 147.578 307.641C146.641 307.193 145.859 306.578 145.234 305.797C144.62 305.016 144.156 304.12 143.844 303.109C143.542 302.089 143.391 301.01 143.391 299.875V299.219C143.391 298.083 143.542 297.01 143.844 296C144.156 294.979 144.62 294.078 145.234 293.297C145.859 292.516 146.641 291.901 147.578 291.453C148.526 291.005 149.635 290.781 150.906 290.781C152.229 290.781 153.385 291.052 154.375 291.594C155.365 292.125 156.141 292.854 156.703 293.781C157.276 294.698 157.589 295.74 157.641 296.906H154.891C154.839 296.208 154.641 295.578 154.297 295.016C153.964 294.453 153.505 294.005 152.922 293.672C152.349 293.328 151.677 293.156 150.906 293.156C150.021 293.156 149.276 293.333 148.672 293.688C148.078 294.031 147.604 294.5 147.25 295.094C146.906 295.677 146.656 296.328 146.5 297.047C146.354 297.755 146.281 298.479 146.281 299.219V299.875C146.281 300.615 146.354 301.344 146.5 302.062C146.646 302.781 146.891 303.432 147.234 304.016C147.589 304.599 148.062 305.068 148.656 305.422C149.26 305.766 150.01 305.938 150.906 305.938ZM167.669 291.094V293.312H158.528V291.094H167.669ZM161.622 286.984H164.512V303.812C164.512 304.385 164.601 304.818 164.778 305.109C164.955 305.401 165.184 305.594 165.466 305.688C165.747 305.781 166.049 305.828 166.372 305.828C166.611 305.828 166.861 305.807 167.122 305.766C167.393 305.714 167.596 305.672 167.731 305.641L167.747 308C167.518 308.073 167.216 308.141 166.841 308.203C166.476 308.276 166.033 308.312 165.512 308.312C164.804 308.312 164.153 308.172 163.559 307.891C162.966 307.609 162.492 307.141 162.137 306.484C161.794 305.818 161.622 304.922 161.622 303.797V286.984ZM190.959 302.25C190.959 301.719 190.876 301.25 190.709 300.844C190.553 300.427 190.272 300.052 189.866 299.719C189.47 299.385 188.918 299.068 188.209 298.766C187.511 298.464 186.626 298.156 185.553 297.844C184.428 297.51 183.412 297.141 182.506 296.734C181.6 296.318 180.824 295.844 180.178 295.312C179.532 294.781 179.037 294.172 178.694 293.484C178.35 292.797 178.178 292.01 178.178 291.125C178.178 290.24 178.36 289.422 178.725 288.672C179.09 287.922 179.61 287.271 180.287 286.719C180.975 286.156 181.793 285.719 182.741 285.406C183.689 285.094 184.746 284.938 185.912 284.938C187.621 284.938 189.069 285.266 190.256 285.922C191.454 286.568 192.366 287.417 192.991 288.469C193.616 289.51 193.928 290.625 193.928 291.812H190.928C190.928 290.958 190.746 290.203 190.381 289.547C190.017 288.88 189.465 288.359 188.725 287.984C187.985 287.599 187.048 287.406 185.912 287.406C184.84 287.406 183.954 287.568 183.256 287.891C182.558 288.214 182.037 288.651 181.694 289.203C181.36 289.755 181.194 290.385 181.194 291.094C181.194 291.573 181.293 292.01 181.491 292.406C181.699 292.792 182.017 293.151 182.444 293.484C182.881 293.818 183.433 294.125 184.1 294.406C184.777 294.688 185.584 294.958 186.522 295.219C187.814 295.583 188.928 295.99 189.866 296.438C190.803 296.885 191.574 297.391 192.178 297.953C192.793 298.505 193.246 299.135 193.537 299.844C193.84 300.542 193.991 301.333 193.991 302.219C193.991 303.146 193.803 303.984 193.428 304.734C193.053 305.484 192.517 306.125 191.819 306.656C191.121 307.188 190.282 307.599 189.303 307.891C188.334 308.172 187.251 308.312 186.053 308.312C185.001 308.312 183.965 308.167 182.944 307.875C181.933 307.583 181.011 307.146 180.178 306.562C179.355 305.979 178.694 305.26 178.194 304.406C177.704 303.542 177.459 302.542 177.459 301.406H180.459C180.459 302.188 180.61 302.859 180.912 303.422C181.215 303.974 181.626 304.432 182.147 304.797C182.678 305.161 183.277 305.432 183.944 305.609C184.621 305.776 185.324 305.859 186.053 305.859C187.105 305.859 187.996 305.714 188.725 305.422C189.454 305.13 190.006 304.714 190.381 304.172C190.767 303.63 190.959 302.99 190.959 302.25ZM204.113 308.312C202.935 308.312 201.868 308.115 200.909 307.719C199.961 307.312 199.144 306.745 198.456 306.016C197.779 305.286 197.258 304.422 196.894 303.422C196.529 302.422 196.347 301.328 196.347 300.141V299.484C196.347 298.109 196.55 296.885 196.956 295.812C197.363 294.729 197.915 293.812 198.613 293.062C199.31 292.312 200.102 291.745 200.988 291.359C201.873 290.974 202.79 290.781 203.738 290.781C204.946 290.781 205.988 290.99 206.863 291.406C207.748 291.823 208.472 292.406 209.034 293.156C209.597 293.896 210.014 294.771 210.284 295.781C210.555 296.781 210.691 297.875 210.691 299.062V300.359H198.066V298H207.8V297.781C207.758 297.031 207.602 296.302 207.331 295.594C207.071 294.885 206.654 294.302 206.081 293.844C205.508 293.385 204.727 293.156 203.738 293.156C203.081 293.156 202.477 293.297 201.925 293.578C201.373 293.849 200.899 294.255 200.503 294.797C200.107 295.339 199.8 296 199.581 296.781C199.363 297.562 199.253 298.464 199.253 299.484V300.141C199.253 300.943 199.363 301.698 199.581 302.406C199.81 303.104 200.139 303.719 200.566 304.25C201.003 304.781 201.529 305.198 202.144 305.5C202.769 305.802 203.477 305.953 204.269 305.953C205.29 305.953 206.154 305.745 206.863 305.328C207.571 304.911 208.191 304.354 208.722 303.656L210.472 305.047C210.107 305.599 209.644 306.125 209.081 306.625C208.519 307.125 207.826 307.531 207.003 307.844C206.191 308.156 205.227 308.312 204.113 308.312ZM223.734 305.109V296.406C223.734 295.74 223.599 295.161 223.328 294.672C223.068 294.172 222.672 293.786 222.141 293.516C221.609 293.245 220.953 293.109 220.172 293.109C219.443 293.109 218.802 293.234 218.25 293.484C217.708 293.734 217.281 294.062 216.969 294.469C216.667 294.875 216.516 295.312 216.516 295.781H213.625C213.625 295.177 213.781 294.578 214.094 293.984C214.406 293.391 214.854 292.854 215.438 292.375C216.031 291.885 216.74 291.5 217.562 291.219C218.396 290.927 219.323 290.781 220.344 290.781C221.573 290.781 222.656 290.99 223.594 291.406C224.542 291.823 225.281 292.453 225.812 293.297C226.354 294.13 226.625 295.177 226.625 296.438V304.312C226.625 304.875 226.672 305.474 226.766 306.109C226.87 306.745 227.021 307.292 227.219 307.75V308H224.203C224.057 307.667 223.943 307.224 223.859 306.672C223.776 306.109 223.734 305.589 223.734 305.109ZM224.234 297.75L224.266 299.781H221.344C220.521 299.781 219.786 299.849 219.141 299.984C218.495 300.109 217.953 300.302 217.516 300.562C217.078 300.823 216.745 301.151 216.516 301.547C216.286 301.932 216.172 302.385 216.172 302.906C216.172 303.438 216.292 303.922 216.531 304.359C216.771 304.797 217.13 305.146 217.609 305.406C218.099 305.656 218.698 305.781 219.406 305.781C220.292 305.781 221.073 305.594 221.75 305.219C222.427 304.844 222.964 304.385 223.359 303.844C223.766 303.302 223.984 302.776 224.016 302.266L225.25 303.656C225.177 304.094 224.979 304.578 224.656 305.109C224.333 305.641 223.901 306.151 223.359 306.641C222.828 307.12 222.193 307.521 221.453 307.844C220.724 308.156 219.901 308.312 218.984 308.312C217.839 308.312 216.833 308.089 215.969 307.641C215.115 307.193 214.448 306.594 213.969 305.844C213.5 305.083 213.266 304.234 213.266 303.297C213.266 302.391 213.443 301.594 213.797 300.906C214.151 300.208 214.661 299.63 215.328 299.172C215.995 298.703 216.797 298.349 217.734 298.109C218.672 297.87 219.719 297.75 220.875 297.75H224.234ZM233.747 294.453V308H230.841V291.094H233.591L233.747 294.453ZM233.153 298.906L231.809 298.859C231.82 297.703 231.971 296.635 232.262 295.656C232.554 294.667 232.986 293.807 233.559 293.078C234.132 292.349 234.846 291.786 235.7 291.391C236.554 290.984 237.544 290.781 238.669 290.781C239.46 290.781 240.19 290.896 240.856 291.125C241.523 291.344 242.101 291.693 242.591 292.172C243.08 292.651 243.46 293.266 243.731 294.016C244.002 294.766 244.137 295.672 244.137 296.734V308H241.247V296.875C241.247 295.99 241.096 295.281 240.794 294.75C240.502 294.219 240.085 293.833 239.544 293.594C239.002 293.344 238.367 293.219 237.637 293.219C236.783 293.219 236.07 293.37 235.497 293.672C234.924 293.974 234.466 294.391 234.122 294.922C233.778 295.453 233.528 296.062 233.372 296.75C233.226 297.427 233.153 298.146 233.153 298.906ZM244.106 297.312L242.169 297.906C242.179 296.979 242.33 296.089 242.622 295.234C242.924 294.38 243.356 293.62 243.919 292.953C244.492 292.286 245.195 291.76 246.028 291.375C246.861 290.979 247.815 290.781 248.887 290.781C249.794 290.781 250.596 290.901 251.294 291.141C252.002 291.38 252.596 291.75 253.075 292.25C253.565 292.74 253.934 293.37 254.184 294.141C254.434 294.911 254.559 295.828 254.559 296.891V308H251.653V296.859C251.653 295.911 251.502 295.177 251.2 294.656C250.908 294.125 250.492 293.755 249.95 293.547C249.419 293.328 248.783 293.219 248.044 293.219C247.408 293.219 246.846 293.328 246.356 293.547C245.867 293.766 245.455 294.068 245.122 294.453C244.789 294.828 244.533 295.26 244.356 295.75C244.19 296.24 244.106 296.76 244.106 297.312ZM261.775 284V308H258.869V284H261.775ZM273.131 308.312C271.954 308.312 270.886 308.115 269.928 307.719C268.98 307.312 268.163 306.745 267.475 306.016C266.798 305.286 266.277 304.422 265.913 303.422C265.548 302.422 265.366 301.328 265.366 300.141V299.484C265.366 298.109 265.569 296.885 265.975 295.812C266.381 294.729 266.933 293.812 267.631 293.062C268.329 292.312 269.121 291.745 270.006 291.359C270.892 290.974 271.808 290.781 272.756 290.781C273.965 290.781 275.006 290.99 275.881 291.406C276.767 291.823 277.491 292.406 278.053 293.156C278.616 293.896 279.032 294.771 279.303 295.781C279.574 296.781 279.709 297.875 279.709 299.062V300.359H267.084V298H276.819V297.781C276.777 297.031 276.621 296.302 276.35 295.594C276.09 294.885 275.673 294.302 275.1 293.844C274.527 293.385 273.746 293.156 272.756 293.156C272.1 293.156 271.496 293.297 270.944 293.578C270.392 293.849 269.918 294.255 269.522 294.797C269.126 295.339 268.819 296 268.6 296.781C268.381 297.562 268.272 298.464 268.272 299.484V300.141C268.272 300.943 268.381 301.698 268.6 302.406C268.829 303.104 269.157 303.719 269.584 304.25C270.022 304.781 270.548 305.198 271.163 305.5C271.788 305.802 272.496 305.953 273.288 305.953C274.308 305.953 275.173 305.745 275.881 305.328C276.59 304.911 277.209 304.354 277.741 303.656L279.491 305.047C279.126 305.599 278.663 306.125 278.1 306.625C277.538 307.125 276.845 307.531 276.022 307.844C275.209 308.156 274.246 308.312 273.131 308.312ZM292.628 303.516C292.628 303.099 292.534 302.714 292.347 302.359C292.17 301.995 291.8 301.667 291.238 301.375C290.685 301.073 289.852 300.812 288.738 300.594C287.8 300.396 286.951 300.161 286.191 299.891C285.441 299.62 284.8 299.292 284.269 298.906C283.748 298.521 283.347 298.068 283.066 297.547C282.784 297.026 282.644 296.417 282.644 295.719C282.644 295.052 282.79 294.422 283.081 293.828C283.383 293.234 283.805 292.708 284.347 292.25C284.899 291.792 285.56 291.432 286.331 291.172C287.102 290.911 287.961 290.781 288.909 290.781C290.264 290.781 291.42 291.021 292.378 291.5C293.336 291.979 294.071 292.62 294.581 293.422C295.092 294.214 295.347 295.094 295.347 296.062H292.456C292.456 295.594 292.316 295.141 292.034 294.703C291.764 294.255 291.363 293.885 290.831 293.594C290.31 293.302 289.67 293.156 288.909 293.156C288.107 293.156 287.456 293.281 286.956 293.531C286.467 293.771 286.107 294.078 285.878 294.453C285.659 294.828 285.55 295.224 285.55 295.641C285.55 295.953 285.602 296.234 285.706 296.484C285.821 296.724 286.019 296.948 286.3 297.156C286.581 297.354 286.977 297.542 287.488 297.719C287.998 297.896 288.649 298.073 289.441 298.25C290.826 298.562 291.967 298.938 292.863 299.375C293.758 299.812 294.425 300.349 294.863 300.984C295.3 301.62 295.519 302.391 295.519 303.297C295.519 304.036 295.363 304.714 295.05 305.328C294.748 305.943 294.305 306.474 293.722 306.922C293.149 307.359 292.461 307.703 291.659 307.953C290.868 308.193 289.977 308.312 288.988 308.312C287.498 308.312 286.238 308.047 285.206 307.516C284.175 306.984 283.394 306.297 282.863 305.453C282.331 304.609 282.066 303.719 282.066 302.781H284.972C285.014 303.573 285.243 304.203 285.659 304.672C286.076 305.13 286.586 305.458 287.191 305.656C287.795 305.844 288.394 305.938 288.988 305.938C289.779 305.938 290.441 305.833 290.972 305.625C291.514 305.417 291.925 305.13 292.206 304.766C292.488 304.401 292.628 303.984 292.628 303.516ZM308.859 303.516C308.859 303.099 308.766 302.714 308.578 302.359C308.401 301.995 308.031 301.667 307.469 301.375C306.917 301.073 306.083 300.812 304.969 300.594C304.031 300.396 303.182 300.161 302.422 299.891C301.672 299.62 301.031 299.292 300.5 298.906C299.979 298.521 299.578 298.068 299.297 297.547C299.016 297.026 298.875 296.417 298.875 295.719C298.875 295.052 299.021 294.422 299.312 293.828C299.615 293.234 300.036 292.708 300.578 292.25C301.13 291.792 301.792 291.432 302.562 291.172C303.333 290.911 304.193 290.781 305.141 290.781C306.495 290.781 307.651 291.021 308.609 291.5C309.568 291.979 310.302 292.62 310.812 293.422C311.323 294.214 311.578 295.094 311.578 296.062H308.688C308.688 295.594 308.547 295.141 308.266 294.703C307.995 294.255 307.594 293.885 307.062 293.594C306.542 293.302 305.901 293.156 305.141 293.156C304.339 293.156 303.688 293.281 303.188 293.531C302.698 293.771 302.339 294.078 302.109 294.453C301.891 294.828 301.781 295.224 301.781 295.641C301.781 295.953 301.833 296.234 301.938 296.484C302.052 296.724 302.25 296.948 302.531 297.156C302.812 297.354 303.208 297.542 303.719 297.719C304.229 297.896 304.88 298.073 305.672 298.25C307.057 298.562 308.198 298.938 309.094 299.375C309.99 299.812 310.656 300.349 311.094 300.984C311.531 301.62 311.75 302.391 311.75 303.297C311.75 304.036 311.594 304.714 311.281 305.328C310.979 305.943 310.536 306.474 309.953 306.922C309.38 307.359 308.693 307.703 307.891 307.953C307.099 308.193 306.208 308.312 305.219 308.312C303.729 308.312 302.469 308.047 301.438 307.516C300.406 306.984 299.625 306.297 299.094 305.453C298.562 304.609 298.297 303.719 298.297 302.781H301.203C301.245 303.573 301.474 304.203 301.891 304.672C302.307 305.13 302.818 305.458 303.422 305.656C304.026 305.844 304.625 305.938 305.219 305.938C306.01 305.938 306.672 305.833 307.203 305.625C307.745 305.417 308.156 305.13 308.438 304.766C308.719 304.401 308.859 303.984 308.859 303.516ZM318.388 284V308H315.481V284H318.388ZM327.478 306.25L332.181 291.094H335.275L328.494 310.609C328.337 311.026 328.129 311.474 327.869 311.953C327.619 312.443 327.296 312.906 326.9 313.344C326.504 313.781 326.025 314.135 325.462 314.406C324.91 314.688 324.249 314.828 323.478 314.828C323.249 314.828 322.957 314.797 322.603 314.734C322.249 314.672 321.999 314.62 321.853 314.578L321.837 312.234C321.921 312.245 322.051 312.255 322.228 312.266C322.416 312.286 322.546 312.297 322.619 312.297C323.275 312.297 323.832 312.208 324.291 312.031C324.749 311.865 325.134 311.578 325.447 311.172C325.77 310.776 326.046 310.229 326.275 309.531L327.478 306.25ZM324.025 291.094L328.416 304.219L329.166 307.266L327.087 308.328L320.869 291.094H324.025ZM338.522 304.562V306.891C338.522 307.839 338.282 308.839 337.803 309.891C337.324 310.953 336.652 311.839 335.788 312.547L334.147 311.406C334.48 310.948 334.761 310.479 334.991 310C335.22 309.531 335.392 309.042 335.506 308.531C335.631 308.031 335.694 307.5 335.694 306.938V304.562H338.522ZM363.781 305.547V308H352.406V305.547H363.781ZM353 285.25V308H349.984V285.25H353ZM369.638 291.094V308H366.731V291.094H369.638ZM366.513 286.609C366.513 286.141 366.653 285.745 366.934 285.422C367.226 285.099 367.653 284.938 368.216 284.938C368.768 284.938 369.19 285.099 369.481 285.422C369.783 285.745 369.934 286.141 369.934 286.609C369.934 287.057 369.783 287.443 369.481 287.766C369.19 288.078 368.768 288.234 368.216 288.234C367.653 288.234 367.226 288.078 366.934 287.766C366.653 287.443 366.513 287.057 366.513 286.609ZM379.119 305.391L383.744 291.094H386.697L380.619 308H378.681L379.119 305.391ZM375.259 291.094L380.025 305.469L380.353 308H378.416L372.291 291.094H375.259ZM395.975 308.312C394.798 308.312 393.73 308.115 392.772 307.719C391.824 307.312 391.006 306.745 390.319 306.016C389.642 305.286 389.121 304.422 388.756 303.422C388.392 302.422 388.209 301.328 388.209 300.141V299.484C388.209 298.109 388.413 296.885 388.819 295.812C389.225 294.729 389.777 293.812 390.475 293.062C391.173 292.312 391.965 291.745 392.85 291.359C393.735 290.974 394.652 290.781 395.6 290.781C396.808 290.781 397.85 290.99 398.725 291.406C399.61 291.823 400.334 292.406 400.897 293.156C401.459 293.896 401.876 294.771 402.147 295.781C402.418 296.781 402.553 297.875 402.553 299.062V300.359H389.928V298H399.663V297.781C399.621 297.031 399.465 296.302 399.194 295.594C398.933 294.885 398.517 294.302 397.944 293.844C397.371 293.385 396.59 293.156 395.6 293.156C394.944 293.156 394.34 293.297 393.788 293.578C393.235 293.849 392.761 294.255 392.366 294.797C391.97 295.339 391.663 296 391.444 296.781C391.225 297.562 391.116 298.464 391.116 299.484V300.141C391.116 300.943 391.225 301.698 391.444 302.406C391.673 303.104 392.001 303.719 392.428 304.25C392.866 304.781 393.392 305.198 394.006 305.5C394.631 305.802 395.34 305.953 396.131 305.953C397.152 305.953 398.017 305.745 398.725 305.328C399.433 304.911 400.053 304.354 400.584 303.656L402.334 305.047C401.97 305.599 401.506 306.125 400.944 306.625C400.381 307.125 399.689 307.531 398.866 307.844C398.053 308.156 397.09 308.312 395.975 308.312ZM416.719 285.25V308H413.703V285.25H416.719ZM426.25 295.484V297.953H416.062V295.484H426.25ZM427.797 285.25V287.719H416.062V285.25H427.797ZM433.138 293.75V308H430.247V291.094H433.059L433.138 293.75ZM438.419 291L438.403 293.688C438.164 293.635 437.934 293.604 437.716 293.594C437.507 293.573 437.268 293.562 436.997 293.562C436.33 293.562 435.742 293.667 435.231 293.875C434.721 294.083 434.289 294.375 433.934 294.75C433.58 295.125 433.299 295.573 433.091 296.094C432.893 296.604 432.763 297.167 432.7 297.781L431.888 298.25C431.888 297.229 431.986 296.271 432.184 295.375C432.393 294.479 432.71 293.688 433.138 293C433.565 292.302 434.106 291.76 434.763 291.375C435.429 290.979 436.221 290.781 437.138 290.781C437.346 290.781 437.585 290.807 437.856 290.859C438.127 290.901 438.315 290.948 438.419 291ZM447.494 308.312C446.317 308.312 445.249 308.115 444.291 307.719C443.343 307.312 442.525 306.745 441.837 306.016C441.16 305.286 440.64 304.422 440.275 303.422C439.91 302.422 439.728 301.328 439.728 300.141V299.484C439.728 298.109 439.931 296.885 440.337 295.812C440.744 294.729 441.296 293.812 441.994 293.062C442.692 292.312 443.483 291.745 444.369 291.359C445.254 290.974 446.171 290.781 447.119 290.781C448.327 290.781 449.369 290.99 450.244 291.406C451.129 291.823 451.853 292.406 452.416 293.156C452.978 293.896 453.395 294.771 453.666 295.781C453.936 296.781 454.072 297.875 454.072 299.062V300.359H441.447V298H451.181V297.781C451.14 297.031 450.983 296.302 450.712 295.594C450.452 294.885 450.035 294.302 449.462 293.844C448.89 293.385 448.108 293.156 447.119 293.156C446.462 293.156 445.858 293.297 445.306 293.578C444.754 293.849 444.28 294.255 443.884 294.797C443.489 295.339 443.181 296 442.962 296.781C442.744 297.562 442.634 298.464 442.634 299.484V300.141C442.634 300.943 442.744 301.698 442.962 302.406C443.192 303.104 443.52 303.719 443.947 304.25C444.384 304.781 444.91 305.198 445.525 305.5C446.15 305.802 446.858 305.953 447.65 305.953C448.671 305.953 449.535 305.745 450.244 305.328C450.952 304.911 451.572 304.354 452.103 303.656L453.853 305.047C453.489 305.599 453.025 306.125 452.462 306.625C451.9 307.125 451.207 307.531 450.384 307.844C449.572 308.156 448.608 308.312 447.494 308.312ZM464.163 308.312C462.985 308.312 461.918 308.115 460.959 307.719C460.011 307.312 459.194 306.745 458.506 306.016C457.829 305.286 457.308 304.422 456.944 303.422C456.579 302.422 456.397 301.328 456.397 300.141V299.484C456.397 298.109 456.6 296.885 457.006 295.812C457.413 294.729 457.965 293.812 458.663 293.062C459.36 292.312 460.152 291.745 461.038 291.359C461.923 290.974 462.84 290.781 463.788 290.781C464.996 290.781 466.038 290.99 466.913 291.406C467.798 291.823 468.522 292.406 469.084 293.156C469.647 293.896 470.064 294.771 470.334 295.781C470.605 296.781 470.741 297.875 470.741 299.062V300.359H458.116V298H467.85V297.781C467.808 297.031 467.652 296.302 467.381 295.594C467.121 294.885 466.704 294.302 466.131 293.844C465.558 293.385 464.777 293.156 463.788 293.156C463.131 293.156 462.527 293.297 461.975 293.578C461.423 293.849 460.949 294.255 460.553 294.797C460.157 295.339 459.85 296 459.631 296.781C459.413 297.562 459.303 298.464 459.303 299.484V300.141C459.303 300.943 459.413 301.698 459.631 302.406C459.86 303.104 460.189 303.719 460.616 304.25C461.053 304.781 461.579 305.198 462.194 305.5C462.819 305.802 463.527 305.953 464.319 305.953C465.34 305.953 466.204 305.745 466.913 305.328C467.621 304.911 468.241 304.354 468.772 303.656L470.522 305.047C470.157 305.599 469.694 306.125 469.131 306.625C468.569 307.125 467.876 307.531 467.053 307.844C466.241 308.156 465.277 308.312 464.163 308.312ZM476.956 284V308H474.05V284H476.956ZM486.047 306.25L490.75 291.094H493.844L487.062 310.609C486.906 311.026 486.698 311.474 486.438 311.953C486.188 312.443 485.865 312.906 485.469 313.344C485.073 313.781 484.594 314.135 484.031 314.406C483.479 314.688 482.818 314.828 482.047 314.828C481.818 314.828 481.526 314.797 481.172 314.734C480.818 314.672 480.568 314.62 480.422 314.578L480.406 312.234C480.49 312.245 480.62 312.255 480.797 312.266C480.984 312.286 481.115 312.297 481.188 312.297C481.844 312.297 482.401 312.208 482.859 312.031C483.318 311.865 483.703 311.578 484.016 311.172C484.339 310.776 484.615 310.229 484.844 309.531L486.047 306.25ZM482.594 291.094L486.984 304.219L487.734 307.266L485.656 308.328L479.438 291.094H482.594Z" fill="white"/>
<path d="M248.656 79.0938C251.885 79.4479 254.625 80.0417 256.875 80.875C259.125 81.7083 260.948 82.7083 262.344 83.875C263.76 85.0208 264.781 86.3021 265.406 87.7188C266.052 89.1146 266.375 90.5729 266.375 92.0938C266.375 93.8438 266.094 95.3854 265.531 96.7188C264.969 98.0521 264.219 99.2292 263.281 100.25C262.365 101.25 261.302 102.094 260.094 102.781C258.906 103.469 257.677 104.021 256.406 104.438C255.156 104.875 253.917 105.188 252.688 105.375C251.458 105.583 250.354 105.698 249.375 105.719H248.594C247.552 105.698 246.354 105.604 245 105.438C243.667 105.292 242.292 105.052 240.875 104.719C239.479 104.385 238.104 103.958 236.75 103.438C235.396 102.896 234.188 102.229 233.125 101.438C232.062 100.646 231.208 99.7083 230.562 98.625C229.917 97.5417 229.594 96.2812 229.594 94.8438C229.594 94.0729 229.719 93.3958 229.969 92.8125C230.219 92.2292 230.562 91.7396 231 91.3438C231.438 90.9271 231.938 90.6042 232.5 90.375C233.083 90.1458 233.708 90.0104 234.375 89.9688C235.188 89.9688 235.938 90.1458 236.625 90.5C237.333 90.8333 237.948 91.3125 238.469 91.9375C238.99 92.5417 239.406 93.2812 239.719 94.1562C240.052 95.0104 240.24 95.9688 240.281 97.0312C240.323 97.8854 240.521 98.7604 240.875 99.6562C241.229 100.552 241.75 101.365 242.438 102.094C243.125 102.823 243.979 103.417 245 103.875C246.021 104.333 247.219 104.562 248.594 104.562C249.677 104.562 250.656 104.344 251.531 103.906C252.427 103.469 253.188 102.885 253.812 102.156C254.438 101.427 254.917 100.583 255.25 99.625C255.583 98.6458 255.75 97.625 255.75 96.5625C255.75 95.6042 255.583 94.6562 255.25 93.7188C254.917 92.7812 254.396 91.9479 253.688 91.2188C252.979 90.4688 252.073 89.8542 250.969 89.375C249.865 88.8958 248.542 88.625 247 88.5625C243.854 88.4167 241.167 87.9479 238.938 87.1562C236.729 86.3646 234.917 85.3438 233.5 84.0938C232.083 82.8229 231.042 81.375 230.375 79.75C229.729 78.125 229.406 76.4167 229.406 74.625C229.406 72.6875 229.698 70.9896 230.281 69.5312C230.865 68.0521 231.635 66.7812 232.594 65.7188C233.573 64.6354 234.688 63.7396 235.938 63.0312C237.188 62.3021 238.479 61.7188 239.812 61.2812C241.167 60.8438 242.5 60.5417 243.812 60.375C245.146 60.1875 246.375 60.0938 247.5 60.0938H247.875C248.917 60.1146 250.073 60.2083 251.344 60.375C252.635 60.5208 253.938 60.7604 255.25 61.0938C256.583 61.4271 257.865 61.8646 259.094 62.4062C260.344 62.9479 261.448 63.6146 262.406 64.4062C263.385 65.1979 264.167 66.1354 264.75 67.2188C265.333 68.2812 265.625 69.5104 265.625 70.9062C265.625 71.7188 265.49 72.4271 265.219 73.0312C264.948 73.6354 264.583 74.1458 264.125 74.5625C263.688 74.9583 263.167 75.2604 262.562 75.4688C261.958 75.6771 261.333 75.7812 260.688 75.7812C259.896 75.7812 259.156 75.6042 258.469 75.25C257.781 74.8958 257.177 74.4062 256.656 73.7812C256.156 73.1562 255.75 72.4167 255.438 71.5625C255.146 70.6875 255 69.7292 255 68.6875C255 67.7917 254.885 66.9062 254.656 66.0312C254.427 65.1562 254.031 64.375 253.469 63.6875C252.927 62.9792 252.198 62.4062 251.281 61.9688C250.365 61.5312 249.229 61.2917 247.875 61.25H247.562C246.542 61.2917 245.594 61.5938 244.719 62.1562C243.865 62.6979 243.125 63.4167 242.5 64.3125C241.875 65.2083 241.385 66.2188 241.031 67.3438C240.698 68.4479 240.531 69.5729 240.531 70.7188C240.531 71.7188 240.677 72.6875 240.969 73.625C241.281 74.5625 241.76 75.4167 242.406 76.1875C243.073 76.9375 243.917 77.5729 244.938 78.0938C245.958 78.6146 247.198 78.9479 248.656 79.0938ZM269.75 103.094H274.562L275.375 62.7188L269.875 62.5938V61.4375L284.719 61.6875L284.094 91.125L298.5 77.6875L291.125 77.5625V76.4062L306.562 76.6875V77.8125L299.969 77.75L300.094 77.8125L292.094 85.3125L303.688 103.156H307.844V104.312H289.656V103.156H293.125L285.75 91.25L284.094 92.8125L283.844 103.094H286.719V104.25H269.75V103.094ZM332.969 78.2188H343.469V79.375H338.531C335.115 86.4583 332.479 91.7917 330.625 95.375C329.542 97.4792 328.594 99.2708 327.781 100.75C327.323 101.625 326.812 102.635 326.25 103.781C325.688 104.927 325.052 106.104 324.344 107.312C323.656 108.542 322.896 109.74 322.062 110.906C321.229 112.094 320.323 113.146 319.344 114.062C318.385 115 317.344 115.75 316.219 116.312C315.115 116.896 313.938 117.188 312.688 117.188C311.979 117.188 311.323 117.094 310.719 116.906C310.115 116.719 309.573 116.479 309.094 116.188C308.615 115.917 308.208 115.604 307.875 115.25C307.562 114.896 307.333 114.562 307.188 114.25C306.958 113.729 306.833 113.104 306.812 112.375C306.771 111.646 306.896 110.958 307.188 110.312C307.479 109.667 307.948 109.115 308.594 108.656C309.26 108.219 310.177 108.01 311.344 108.031C312.177 108.052 312.906 108.208 313.531 108.5C314.156 108.792 314.74 109.104 315.281 109.438C315.823 109.792 316.354 110.115 316.875 110.406C317.417 110.719 318 110.885 318.625 110.906C319.375 110.906 320.031 110.708 320.594 110.312C321.156 109.917 321.656 109.417 322.094 108.812C322.531 108.208 322.927 107.552 323.281 106.844C323.635 106.156 323.979 105.51 324.312 104.906L311.469 79.4375L308.125 79.375V78.2188L326.875 78.5938V79.75L322.781 79.6875L329.906 94.2812C330.802 92.5104 331.854 90.4062 333.062 87.9688C334.292 85.5312 335.688 82.6667 337.25 79.375H332.969V78.2188Z" fill="#F7FFF7"/>
<path d="M213.324 131.117C213.324 131.531 213.191 131.906 212.926 132.242C212.66 132.57 212.316 132.852 211.895 133.086C211.48 133.32 211.016 133.508 210.5 133.648C209.992 133.781 209.492 133.852 209 133.859C208.969 133.859 208.898 133.855 208.789 133.848C208.68 133.84 208.547 133.816 208.391 133.777C208.234 133.73 208.059 133.66 207.863 133.566C207.668 133.473 207.473 133.336 207.277 133.156C207.301 133.852 207.363 134.449 207.465 134.949C207.574 135.441 207.715 135.848 207.887 136.168C208.066 136.48 208.273 136.711 208.508 136.859C208.75 137 209.012 137.07 209.293 137.07C209.457 137.07 209.676 137.016 209.949 136.906C210.23 136.797 210.52 136.629 210.816 136.402C211.121 136.176 211.418 135.887 211.707 135.535C211.996 135.184 212.238 134.762 212.434 134.27L212.773 133.402L213.195 133.543L213.008 134.07C212.836 134.531 212.609 134.969 212.328 135.383C212.047 135.797 211.719 136.168 211.344 136.496C210.977 136.816 210.566 137.074 210.113 137.27C209.66 137.473 209.176 137.59 208.66 137.621C207.762 137.59 207 137.43 206.375 137.141C205.75 136.852 205.242 136.484 204.852 136.039C204.461 135.594 204.176 135.098 203.996 134.551C203.824 134.004 203.738 133.453 203.738 132.898C203.738 132.531 203.793 132.133 203.902 131.703C204.02 131.266 204.188 130.828 204.406 130.391C204.625 129.945 204.891 129.516 205.203 129.102C205.523 128.688 205.883 128.32 206.281 128C206.688 127.68 207.129 127.426 207.605 127.238C208.09 127.043 208.609 126.945 209.164 126.945C209.672 126.961 210.125 127.039 210.523 127.18C210.93 127.312 211.285 127.492 211.59 127.719C211.902 127.938 212.168 128.188 212.387 128.469C212.605 128.75 212.785 129.043 212.926 129.348C213.066 129.645 213.168 129.949 213.23 130.262C213.293 130.566 213.324 130.852 213.324 131.117ZM208.977 127.379C208.727 127.395 208.492 127.535 208.273 127.801C208.062 128.066 207.879 128.43 207.723 128.891C207.574 129.344 207.457 129.879 207.371 130.496C207.285 131.113 207.242 131.777 207.242 132.488C207.438 132.715 207.633 132.891 207.828 133.016C208.023 133.141 208.203 133.234 208.367 133.297C208.531 133.352 208.668 133.387 208.777 133.402C208.887 133.418 208.953 133.426 208.977 133.426C209.281 133.418 209.531 133.352 209.727 133.227C209.93 133.102 210.086 132.93 210.195 132.711C210.312 132.492 210.395 132.23 210.441 131.926C210.488 131.621 210.512 131.281 210.512 130.906C210.512 130.438 210.48 129.992 210.418 129.57C210.363 129.141 210.273 128.766 210.148 128.445C210.031 128.117 209.875 127.859 209.68 127.672C209.484 127.477 209.25 127.379 208.977 127.379ZM222.605 127.66C223.816 127.793 224.844 128.016 225.688 128.328C226.531 128.641 227.215 129.016 227.738 129.453C228.27 129.883 228.652 130.363 228.887 130.895C229.129 131.418 229.25 131.965 229.25 132.535C229.25 133.191 229.145 133.77 228.934 134.27C228.723 134.77 228.441 135.211 228.09 135.594C227.746 135.969 227.348 136.285 226.895 136.543C226.449 136.801 225.988 137.008 225.512 137.164C225.043 137.328 224.578 137.445 224.117 137.516C223.656 137.594 223.242 137.637 222.875 137.645H222.582C222.191 137.637 221.742 137.602 221.234 137.539C220.734 137.484 220.219 137.395 219.688 137.27C219.164 137.145 218.648 136.984 218.141 136.789C217.633 136.586 217.18 136.336 216.781 136.039C216.383 135.742 216.062 135.391 215.82 134.984C215.578 134.578 215.457 134.105 215.457 133.566C215.457 133.277 215.504 133.023 215.598 132.805C215.691 132.586 215.82 132.402 215.984 132.254C216.148 132.098 216.336 131.977 216.547 131.891C216.766 131.805 217 131.754 217.25 131.738C217.555 131.738 217.836 131.805 218.094 131.938C218.359 132.062 218.59 132.242 218.785 132.477C218.98 132.703 219.137 132.98 219.254 133.309C219.379 133.629 219.449 133.988 219.465 134.387C219.48 134.707 219.555 135.035 219.688 135.371C219.82 135.707 220.016 136.012 220.273 136.285C220.531 136.559 220.852 136.781 221.234 136.953C221.617 137.125 222.066 137.211 222.582 137.211C222.988 137.211 223.355 137.129 223.684 136.965C224.02 136.801 224.305 136.582 224.539 136.309C224.773 136.035 224.953 135.719 225.078 135.359C225.203 134.992 225.266 134.609 225.266 134.211C225.266 133.852 225.203 133.496 225.078 133.145C224.953 132.793 224.758 132.48 224.492 132.207C224.227 131.926 223.887 131.695 223.473 131.516C223.059 131.336 222.562 131.234 221.984 131.211C220.805 131.156 219.797 130.98 218.961 130.684C218.133 130.387 217.453 130.004 216.922 129.535C216.391 129.059 216 128.516 215.75 127.906C215.508 127.297 215.387 126.656 215.387 125.984C215.387 125.258 215.496 124.621 215.715 124.074C215.934 123.52 216.223 123.043 216.582 122.645C216.949 122.238 217.367 121.902 217.836 121.637C218.305 121.363 218.789 121.145 219.289 120.98C219.797 120.816 220.297 120.703 220.789 120.641C221.289 120.57 221.75 120.535 222.172 120.535H222.312C222.703 120.543 223.137 120.578 223.613 120.641C224.098 120.695 224.586 120.785 225.078 120.91C225.578 121.035 226.059 121.199 226.52 121.402C226.988 121.605 227.402 121.855 227.762 122.152C228.129 122.449 228.422 122.801 228.641 123.207C228.859 123.605 228.969 124.066 228.969 124.59C228.969 124.895 228.918 125.16 228.816 125.387C228.715 125.613 228.578 125.805 228.406 125.961C228.242 126.109 228.047 126.223 227.82 126.301C227.594 126.379 227.359 126.418 227.117 126.418C226.82 126.418 226.543 126.352 226.285 126.219C226.027 126.086 225.801 125.902 225.605 125.668C225.418 125.434 225.266 125.156 225.148 124.836C225.039 124.508 224.984 124.148 224.984 123.758C224.984 123.422 224.941 123.09 224.855 122.762C224.77 122.434 224.621 122.141 224.41 121.883C224.207 121.617 223.934 121.402 223.59 121.238C223.246 121.074 222.82 120.984 222.312 120.969H222.195C221.812 120.984 221.457 121.098 221.129 121.309C220.809 121.512 220.531 121.781 220.297 122.117C220.062 122.453 219.879 122.832 219.746 123.254C219.621 123.668 219.559 124.09 219.559 124.52C219.559 124.895 219.613 125.258 219.723 125.609C219.84 125.961 220.02 126.281 220.262 126.57C220.512 126.852 220.828 127.09 221.211 127.285C221.594 127.48 222.059 127.605 222.605 127.66ZM230.973 136.637H233.738L233.809 120.898L230.809 120.805V120.371L241.051 120.676V121.109L238.531 121.039C238.523 121.141 238.512 121.32 238.496 121.578C238.48 121.836 238.465 122.211 238.449 122.703C238.434 123.195 238.41 123.824 238.379 124.59C238.355 125.355 238.332 126.301 238.309 127.426C238.285 128.543 238.258 129.859 238.227 131.375C238.195 132.891 238.164 134.645 238.133 136.637H241.004V137.07H230.973V136.637ZM242.293 136.543L245.012 136.52L245.246 120.828L242.223 120.781V120.348L248.492 120.418L254.035 131.211L257.914 120.465L264.758 120.535V120.969L262.332 120.945C262.324 121.016 262.312 121.164 262.297 121.391C262.289 121.609 262.273 121.953 262.25 122.422C262.234 122.891 262.215 123.504 262.191 124.262C262.168 125.02 262.141 125.969 262.109 127.109C262.078 128.242 262.047 129.59 262.016 131.152C261.984 132.715 261.953 134.535 261.922 136.613H264.805V137.047H254.773V136.613H257.539L257.82 121.953L252.254 137.293L245.609 124.52L245.434 136.52L248.035 136.496V136.93L242.293 136.977V136.543ZM273.934 127.66C275.145 127.793 276.172 128.016 277.016 128.328C277.859 128.641 278.543 129.016 279.066 129.453C279.598 129.883 279.98 130.363 280.215 130.895C280.457 131.418 280.578 131.965 280.578 132.535C280.578 133.191 280.473 133.77 280.262 134.27C280.051 134.77 279.77 135.211 279.418 135.594C279.074 135.969 278.676 136.285 278.223 136.543C277.777 136.801 277.316 137.008 276.84 137.164C276.371 137.328 275.906 137.445 275.445 137.516C274.984 137.594 274.57 137.637 274.203 137.645H273.91C273.52 137.637 273.07 137.602 272.562 137.539C272.062 137.484 271.547 137.395 271.016 137.27C270.492 137.145 269.977 136.984 269.469 136.789C268.961 136.586 268.508 136.336 268.109 136.039C267.711 135.742 267.391 135.391 267.148 134.984C266.906 134.578 266.785 134.105 266.785 133.566C266.785 133.277 266.832 133.023 266.926 132.805C267.02 132.586 267.148 132.402 267.312 132.254C267.477 132.098 267.664 131.977 267.875 131.891C268.094 131.805 268.328 131.754 268.578 131.738C268.883 131.738 269.164 131.805 269.422 131.938C269.688 132.062 269.918 132.242 270.113 132.477C270.309 132.703 270.465 132.98 270.582 133.309C270.707 133.629 270.777 133.988 270.793 134.387C270.809 134.707 270.883 135.035 271.016 135.371C271.148 135.707 271.344 136.012 271.602 136.285C271.859 136.559 272.18 136.781 272.562 136.953C272.945 137.125 273.395 137.211 273.91 137.211C274.316 137.211 274.684 137.129 275.012 136.965C275.348 136.801 275.633 136.582 275.867 136.309C276.102 136.035 276.281 135.719 276.406 135.359C276.531 134.992 276.594 134.609 276.594 134.211C276.594 133.852 276.531 133.496 276.406 133.145C276.281 132.793 276.086 132.48 275.82 132.207C275.555 131.926 275.215 131.695 274.801 131.516C274.387 131.336 273.891 131.234 273.312 131.211C272.133 131.156 271.125 130.98 270.289 130.684C269.461 130.387 268.781 130.004 268.25 129.535C267.719 129.059 267.328 128.516 267.078 127.906C266.836 127.297 266.715 126.656 266.715 125.984C266.715 125.258 266.824 124.621 267.043 124.074C267.262 123.52 267.551 123.043 267.91 122.645C268.277 122.238 268.695 121.902 269.164 121.637C269.633 121.363 270.117 121.145 270.617 120.98C271.125 120.816 271.625 120.703 272.117 120.641C272.617 120.57 273.078 120.535 273.5 120.535H273.641C274.031 120.543 274.465 120.578 274.941 120.641C275.426 120.695 275.914 120.785 276.406 120.91C276.906 121.035 277.387 121.199 277.848 121.402C278.316 121.605 278.73 121.855 279.09 122.152C279.457 122.449 279.75 122.801 279.969 123.207C280.188 123.605 280.297 124.066 280.297 124.59C280.297 124.895 280.246 125.16 280.145 125.387C280.043 125.613 279.906 125.805 279.734 125.961C279.57 126.109 279.375 126.223 279.148 126.301C278.922 126.379 278.688 126.418 278.445 126.418C278.148 126.418 277.871 126.352 277.613 126.219C277.355 126.086 277.129 125.902 276.934 125.668C276.746 125.434 276.594 125.156 276.477 124.836C276.367 124.508 276.312 124.148 276.312 123.758C276.312 123.422 276.27 123.09 276.184 122.762C276.098 122.434 275.949 122.141 275.738 121.883C275.535 121.617 275.262 121.402 274.918 121.238C274.574 121.074 274.148 120.984 273.641 120.969H273.523C273.141 120.984 272.785 121.098 272.457 121.309C272.137 121.512 271.859 121.781 271.625 122.117C271.391 122.453 271.207 122.832 271.074 123.254C270.949 123.668 270.887 124.09 270.887 124.52C270.887 124.895 270.941 125.258 271.051 125.609C271.168 125.961 271.348 126.281 271.59 126.57C271.84 126.852 272.156 127.09 272.539 127.285C272.922 127.48 273.387 127.605 273.934 127.66Z" fill="#F7FFF7"/>
<g filter="url(#filter0_d_1158_138)">
<path fill-rule="evenodd" clip-rule="evenodd" d="M258.917 231.418C244.338 231.015 229.758 230.745 215.178 230.66C210.867 230.629 206.558 230.614 202.247 230.614C193.696 230.614 185.143 230.673 176.592 230.775C176.247 230.787 175.923 230.792 175.612 230.792C174.379 230.792 173.368 230.714 172.231 230.69L170.15 230.628C169.456 230.607 168.778 230.454 168.09 230.376C166.725 230.155 165.328 230.079 163.98 229.762L159.919 228.84C154.576 227.303 149.47 224.929 144.754 221.876C135.29 215.753 127.952 206.369 123.79 195.601C121.846 190.162 120.687 184.397 120.42 178.505L120.399 174.073C120.507 172.603 120.682 171.134 120.814 169.653C120.879 168.157 121.31 166.73 121.565 165.26L122.001 163.061L122.657 160.92C124.327 155.179 126.94 149.623 130.512 144.681C134.03 139.704 138.381 135.261 143.365 131.577C153.179 124.444 165.354 120.61 177.851 120.61C178.153 120.61 178.457 120.612 178.76 120.617L178.772 120.617L178.803 120.617C179.252 120.605 179.606 120.232 179.594 119.783C179.425 113.439 180.093 107.058 181.555 100.845C183.031 94.823 185.281 88.983 188.208 83.4912C187.35 89.9194 186.904 96.4028 186.935 102.885L186.934 102.902L186.935 102.925C186.9 118.369 189.311 133.807 193.973 148.591C198.689 163.363 205.64 177.509 214.743 190.296C223.816 203.091 234.942 214.611 247.81 224.042C251.383 226.667 255.099 229.119 258.917 231.418Z" fill="url(#paint0_linear_1158_138)"/>
<path fill-rule="evenodd" clip-rule="evenodd" d="M364.095 143.327C375.903 148.306 385.227 156.677 391.439 166.814C387.389 148.929 375.065 133.183 356.843 125.499C326.813 112.837 292.179 126.858 279.486 156.815C271.784 174.993 273.945 194.854 283.533 210.497C280.908 198.907 281.747 186.422 286.738 174.643C299.431 144.685 334.065 130.665 364.095 143.327Z" fill="url(#paint1_linear_1158_138)"/>
<path fill-rule="evenodd" clip-rule="evenodd" d="M323.024 206.787C316.082 204.943 310.254 201.022 306.016 195.878C309.657 205.491 317.724 213.273 328.438 216.119C346.094 220.809 364.228 210.329 368.941 192.711C371.801 182.021 369.055 171.164 362.515 163.227C364.874 169.456 365.381 176.452 363.527 183.38C358.814 200.998 340.68 211.478 323.024 206.787Z" fill="url(#paint2_linear_1158_138)"/>
<path fill-rule="evenodd" clip-rule="evenodd" d="M393.757 179.495C392.986 188.748 390.24 197.658 385.689 205.397C381.146 213.139 374.885 219.687 367.652 224.57C360.36 229.386 352.086 232.471 343.634 233.567C341.524 233.869 339.395 233.984 337.275 234.032C336.215 234.064 335.152 234.008 334.095 234.007L330.643 233.884L316.761 233.372C308.981 233.105 301.2 232.873 293.419 232.649C279.226 229.557 265.37 224.261 252.633 216.748C239.728 209.133 227.906 199.356 218.056 187.727C208.223 176.102 200.279 162.704 195.004 148.238C189.649 133.799 186.99 118.348 186.934 102.902L186.935 102.925C186.901 118.369 189.312 133.808 193.973 148.591C198.689 163.363 205.64 177.509 214.743 190.296C223.816 203.091 234.942 214.611 247.81 224.042C251.383 226.668 255.099 229.119 258.917 231.418C244.338 231.015 229.758 230.745 215.178 230.66C204.238 230.581 193.297 230.626 182.357 230.73L177.946 230.693L176.21 230.688C175.636 230.685 175.025 230.689 174.562 230.667C173.568 230.623 172.57 230.645 171.582 230.538C170.591 230.464 169.6 230.392 168.619 230.241C167.632 230.133 166.655 229.966 165.682 229.777C161.784 229.056 157.976 227.875 154.366 226.246C150.763 224.612 147.297 222.644 144.135 220.246C140.972 217.853 138.076 215.104 135.519 212.068C130.476 205.946 126.731 198.73 124.908 190.987C123.043 183.268 123.016 175.039 124.75 167.245C125.609 163.338 126.976 159.543 128.748 155.938C130.509 152.329 132.656 148.882 135.23 145.758C140.332 139.473 146.93 134.372 154.346 130.917C158.063 129.202 161.997 127.955 166.031 127.115C168.046 126.678 170.098 126.41 172.16 126.198L175.289 126.005L178.76 125.895L185.058 125.696L184.872 119.783C184.663 113.148 185.35 106.457 186.974 99.9592C186.957 100.934 186.93 101.909 186.935 102.885L186.934 102.902C186.939 101.875 186.978 100.849 187.006 99.8228C187.605 97.443 188.323 95.0876 189.182 92.773C192.345 84.0843 197.267 75.9539 203.569 68.9281C209.896 61.9174 217.673 56.1287 226.325 51.8558C235.003 47.6321 244.593 45.0322 254.497 44.2288C244.595 43.4338 234.382 44.7103 224.758 48.0644C215.099 51.3426 206.089 56.7563 198.384 63.7248C190.649 70.6743 184.312 79.2986 179.876 88.9C176.328 96.6329 174.023 105 173.096 113.547C172.557 113.546 172.015 113.546 171.48 113.553C168.927 113.646 166.366 113.822 163.826 114.202C158.743 114.932 153.729 116.274 148.927 118.178C144.134 120.105 139.548 122.579 135.295 125.552C131.051 128.54 127.182 132.062 123.722 135.954C116.799 143.739 111.728 153.251 109.138 163.441C107.835 168.532 107.123 173.779 107.012 179.033C106.909 184.286 107.48 189.566 108.613 194.721C110.857 205.048 115.642 214.814 122.366 222.97C129.112 231.099 137.703 237.736 147.422 241.97C152.263 244.114 157.366 245.666 162.572 246.601C163.873 246.843 165.177 247.055 166.492 247.197C167.802 247.382 169.118 247.479 170.435 247.568C171.751 247.691 173.071 247.675 174.389 247.716L176.21 247.726L177.946 247.721L182.362 247.684C193.301 247.789 204.239 247.833 215.178 247.754C240.902 247.604 266.626 246.93 292.35 245.838L292.934 245.815C293.059 245.81 293.178 245.781 293.301 245.768C301.121 245.544 308.941 245.31 316.761 245.042L330.643 244.53L334.131 244.397C335.385 244.31 336.64 244.283 337.887 244.135C340.381 243.868 342.864 243.513 345.302 242.953C355.099 240.885 364.214 236.313 371.786 230.111C387.098 217.767 395.354 198.03 393.757 179.495Z" fill="url(#paint3_linear_1158_138)"/>
</g>
<defs>
<filter id="filter0_d_1158_138" x="103" y="44" width="294.953" height="211.794" filterUnits="userSpaceOnUse" color-interpolation-filters="sRGB">
<feFlood flood-opacity="0" result="BackgroundImageFix"/>
<feColorMatrix in="SourceAlpha" type="matrix" values="0 0 0 0 0 0 0 0 0 0 0 0 0 0 0 0 0 0 127 0" result="hardAlpha"/>
<feOffset dy="4"/>
<feGaussianBlur stdDeviation="2"/>
<feComposite in2="hardAlpha" operator="out"/>
<feColorMatrix type="matrix" values="0 0 0 0 0 0 0 0 0 0 0 0 0 0 0 0 0 0 0.25 0"/>
<feBlend mode="normal" in2="BackgroundImageFix" result="effect1_dropShadow_1158_138"/>
<feBlend mode="normal" in="SourceGraphic" in2="effect1_dropShadow_1158_138" result="shape"/>
</filter>
<linearGradient id="paint0_linear_1158_138" x1="189.658" y1="83.4912" x2="189.658" y2="231.418" gradientUnits="userSpaceOnUse">
<stop stop-color="#F7FFF7"/>
<stop offset="0.42" stop-color="#4ECDC4"/>
<stop offset="1" stop-color="#00B1C9"/>
</linearGradient>
<linearGradient id="paint1_linear_1158_138" x1="274.819" y1="165.668" x2="391.44" y2="165.668" gradientUnits="userSpaceOnUse">
<stop stop-color="#F7FFF7"/>
<stop offset="0.451923" stop-color="#4ECDC4"/>
<stop offset="0.759615" stop-color="#00B1C9"/>
<stop offset="1" stop-color="#00B1C9"/>
</linearGradient>
<linearGradient id="paint2_linear_1158_138" x1="370.843" y1="187.434" x2="306.105" y2="196.515" gradientUnits="userSpaceOnUse">
<stop stop-color="#F7FFF7"/>
<stop offset="0.451923" stop-color="#4ECDC4"/>
<stop offset="0.759615" stop-color="#00B1C9"/>
<stop offset="1" stop-color="#00B1C9"/>
</linearGradient>
<linearGradient id="paint3_linear_1158_138" x1="107" y1="145.897" x2="393.953" y2="145.897" gradientUnits="userSpaceOnUse">
<stop stop-color="#F7FFF7"/>
<stop offset="0.5" stop-color="#4ECDC4"/>
<stop offset="1" stop-color="#00B1C9"/>
</linearGradient>
</defs>
</svg>
