<svg width="714" height="337" viewBox="0 0 714 337" fill="none" xmlns="http://www.w3.org/2000/svg">
<g clip-path="url(#clip0_1072_30)">
<path d="M331.56 154.4C329.587 154.4 328.173 153.973 327.32 153.12C326.467 152.213 326.04 150.533 326.04 148.08C326.04 146.427 326.2 144.32 326.52 141.76C326.893 139.147 327.48 135.573 328.28 131.04C329.667 122.667 330.76 115.413 331.56 109.28C332.04 105.44 332.28 102.24 332.28 99.68C332.28 97.28 331.4 96.08 329.64 96.08C328.253 96.08 326.573 96.8 324.6 98.24C322.68 99.6267 320.547 101.867 318.2 104.96C317.453 105.973 316.627 106.48 315.72 106.48C314.973 106.48 314.307 106.133 313.72 105.44C313.187 104.693 312.92 103.867 312.92 102.96C312.92 102.107 313.08 101.253 313.4 100.4C313.773 99.4933 314.36 98.48 315.16 97.36C317.72 93.7867 320.573 91.04 323.72 89.12C326.867 87.1467 330.013 86.16 333.16 86.16C336.093 86.16 338.333 87.0933 339.88 88.96C341.48 90.8267 342.28 93.5467 342.28 97.12C342.28 98.56 342.147 100.267 341.88 102.24C341.613 104.16 341.373 105.733 341.16 106.96C340.947 108.187 340.787 109.04 340.68 109.52C343.72 100.827 347.133 94.7733 350.92 91.36C354.707 87.8933 358.867 86.16 363.4 86.16C366.867 86.16 369.587 87.3867 371.56 89.84C373.587 92.2933 374.6 95.76 374.6 100.24C374.6 102 374.36 104.187 373.88 106.8C376.547 99.44 379.667 94.16 383.24 90.96C386.813 87.76 390.92 86.16 395.56 86.16C399.293 86.16 402.147 87.36 404.12 89.76C406.147 92.16 407.16 95.52 407.16 99.84C407.16 102.187 406.813 105.04 406.12 108.4L401.24 131.28C400.707 133.947 400.44 136.24 400.44 138.16C400.44 140.4 400.947 142.08 401.96 143.2C403.027 144.32 404.493 144.88 406.36 144.88C408.12 144.88 409.827 144.293 411.48 143.12C413.187 141.947 415.187 140 417.48 137.28C418.12 136.533 418.84 136.16 419.64 136.16C420.333 136.16 420.867 136.48 421.24 137.12C421.667 137.76 421.88 138.64 421.88 139.76C421.88 141.84 421.373 143.493 420.36 144.72C417.587 148.08 414.84 150.533 412.12 152.08C409.4 153.627 406.547 154.4 403.56 154.4C399.027 154.4 395.48 153.067 392.92 150.4C390.36 147.68 389.08 144.053 389.08 139.52C389.08 136.373 389.72 131.813 391 125.84L394.2 111.2C394.307 110.72 394.493 109.867 394.76 108.64C395.027 107.413 395.24 106.267 395.4 105.2C395.56 104.08 395.64 102.987 395.64 101.92C395.64 100.053 395.267 98.6667 394.52 97.76C393.827 96.8 392.813 96.32 391.48 96.32C388.973 96.32 386.333 97.9467 383.56 101.2C380.84 104.4 378.227 109.733 375.72 117.2C373.267 124.667 371.267 134.373 369.72 146.32C369.347 149.52 368.68 151.68 367.72 152.8C366.813 153.867 365.32 154.4 363.24 154.4C361.427 154.4 360.093 153.973 359.24 153.12C358.44 152.267 358.04 150.667 358.04 148.32C358.04 146.133 358.333 143.28 358.92 139.76C359.507 136.187 360.253 132 361.16 127.2C363.613 114.293 364.84 105.973 364.84 102.24C364.84 100.213 364.44 98.72 363.64 97.76C362.893 96.8 361.747 96.32 360.2 96.32C357.587 96.32 354.893 97.8133 352.12 100.8C349.347 103.733 346.627 108.987 343.96 116.56C341.347 124.08 339.16 134.267 337.4 147.12C337.027 149.84 336.467 151.733 335.72 152.8C335.027 153.867 333.64 154.4 331.56 154.4ZM425.274 154.4C421.967 154.4 419.327 153.2 417.354 150.8C415.38 148.4 414.394 145.253 414.394 141.36C414.394 137.093 415.38 133.067 417.354 129.28C419.327 125.44 421.94 122.373 425.194 120.08C428.5 117.733 431.994 116.56 435.674 116.56C436.847 116.56 437.62 116.8 437.994 117.28C438.42 117.707 438.767 118.507 439.034 119.68C440.154 119.467 441.327 119.36 442.554 119.36C445.167 119.36 446.474 120.293 446.474 122.16C446.474 123.28 446.074 125.947 445.274 130.16C444.047 136.293 443.434 140.56 443.434 142.96C443.434 143.76 443.62 144.4 443.994 144.88C444.42 145.36 444.954 145.6 445.594 145.6C446.607 145.6 447.834 144.96 449.274 143.68C450.714 142.347 452.66 140.213 455.114 137.28C455.754 136.533 456.474 136.16 457.274 136.16C457.967 136.16 458.5 136.48 458.874 137.12C459.3 137.76 459.514 138.64 459.514 139.76C459.514 141.893 459.007 143.547 457.994 144.72C455.807 147.44 453.487 149.733 451.034 151.6C448.58 153.467 446.207 154.4 443.914 154.4C442.154 154.4 440.527 153.813 439.034 152.64C437.594 151.413 436.5 149.76 435.754 147.68C432.98 152.16 429.487 154.4 425.274 154.4ZM428.154 146.32C429.327 146.32 430.447 145.627 431.514 144.24C432.58 142.853 433.354 141.013 433.834 138.72L436.794 124C434.554 124.053 432.474 124.907 430.554 126.56C428.687 128.16 427.194 130.293 426.074 132.96C424.954 135.627 424.394 138.453 424.394 141.44C424.394 143.093 424.714 144.32 425.354 145.12C426.047 145.92 426.98 146.32 428.154 146.32ZM488.692 136.16C489.385 136.16 489.919 136.48 490.292 137.12C490.719 137.76 490.932 138.64 490.932 139.76C490.932 141.893 490.425 143.547 489.412 144.72C487.119 147.547 484.612 149.867 481.892 151.68C479.172 153.493 476.052 154.4 472.532 154.4C461.652 154.4 456.212 146.747 456.212 131.44C456.212 129.093 456.292 126.72 456.452 124.32H453.332C451.732 124.32 450.639 124.027 450.052 123.44C449.519 122.853 449.252 121.92 449.252 120.64C449.252 117.653 450.452 116.16 452.852 116.16H457.412C458.319 110.293 459.705 104.933 461.572 100.08C463.439 95.2267 465.679 91.36 468.292 88.48C470.959 85.6 473.812 84.16 476.852 84.16C479.092 84.16 480.852 85.1467 482.132 87.12C483.412 89.0933 484.052 91.5733 484.052 94.56C484.052 102.827 480.585 110.027 473.652 116.16H482.612C483.465 116.16 484.079 116.347 484.452 116.72C484.825 117.093 485.012 117.787 485.012 118.8C485.012 122.48 481.999 124.32 475.972 124.32H466.212C466.105 126.987 466.052 129.067 466.052 130.56C466.052 136.107 466.692 140 467.972 142.24C469.305 144.48 471.385 145.6 474.212 145.6C476.505 145.6 478.532 144.907 480.292 143.52C482.052 142.133 484.132 140.053 486.532 137.28C487.172 136.533 487.892 136.16 488.692 136.16ZM474.692 91.84C473.892 91.84 472.985 92.8533 471.972 94.88C471.012 96.8533 470.079 99.6267 469.172 103.2C468.319 106.72 467.599 110.64 467.012 114.96C470.159 112.24 472.505 109.2 474.052 105.84C475.652 102.427 476.452 99.3333 476.452 96.56C476.452 93.4133 475.865 91.84 474.692 91.84ZM499.298 156.16C496.525 156.16 494.391 155.52 492.898 154.24C491.458 152.96 490.738 151.52 490.738 149.92C490.738 148.533 491.245 147.333 492.258 146.32C493.271 145.307 494.765 144.8 496.738 144.8C497.431 144.8 498.231 144.88 499.138 145.04C500.098 145.147 500.818 145.227 501.298 145.28C501.245 143.893 500.925 142.587 500.338 141.36C499.805 140.133 499.111 138.96 498.258 137.84C497.405 136.667 496.605 135.653 495.858 134.8C494.205 137.947 492.551 140.56 490.898 142.64C489.298 144.72 487.538 146.693 485.618 148.56C484.658 149.52 483.645 150 482.578 150C481.725 150 481.031 149.707 480.498 149.12C479.965 148.48 479.698 147.707 479.698 146.8C479.698 145.733 480.071 144.747 480.818 143.84L481.858 142.56C484.791 138.933 487.005 135.947 488.498 133.6C489.405 132.053 490.471 130 491.698 127.44C492.925 124.827 494.125 122.133 495.298 119.36C496.311 117.013 498.418 115.84 501.618 115.84C503.111 115.84 504.151 115.973 504.738 116.24C505.325 116.507 505.618 116.933 505.618 117.52C505.618 117.84 505.511 118.347 505.298 119.04C505.085 119.733 504.791 120.427 504.418 121.12C503.458 123.04 502.978 124.667 502.978 126C502.978 126.8 503.245 127.68 503.778 128.64C504.365 129.6 505.245 130.8 506.418 132.24C508.125 134.48 509.405 136.4 510.258 138C511.165 139.547 511.618 141.253 511.618 143.12C511.618 143.653 511.565 144.4 511.458 145.36C514.071 144.347 517.138 141.653 520.658 137.28C521.298 136.533 522.018 136.16 522.818 136.16C523.511 136.16 524.045 136.48 524.418 137.12C524.845 137.76 525.058 138.64 525.058 139.76C525.058 141.787 524.551 143.44 523.538 144.72C520.871 148.027 518.311 150.293 515.858 151.52C513.458 152.693 510.471 153.333 506.898 153.44C504.765 155.253 502.231 156.16 499.298 156.16ZM529.039 111.44C526.799 111.44 525.119 110.933 523.999 109.92C522.879 108.853 522.319 107.387 522.319 105.52C522.319 103.653 523.039 102.107 524.479 100.88C525.972 99.6 527.812 98.96 529.999 98.96C531.972 98.96 533.572 99.44 534.799 100.4C536.025 101.36 536.639 102.72 536.639 104.48C536.639 106.613 535.945 108.32 534.559 109.6C533.172 110.827 531.332 111.44 529.039 111.44ZM528.399 154.4C524.932 154.4 522.399 153.173 520.799 150.72C519.252 148.267 518.479 145.013 518.479 140.96C518.479 138.56 518.772 135.493 519.359 131.76C519.999 127.973 520.799 124.453 521.759 121.2C522.239 119.493 522.879 118.32 523.679 117.68C524.479 117.04 525.759 116.72 527.519 116.72C530.239 116.72 531.599 117.627 531.599 119.44C531.599 120.773 531.092 123.867 530.079 128.72C528.799 134.587 528.159 138.56 528.159 140.64C528.159 142.24 528.372 143.467 528.799 144.32C529.225 145.173 529.945 145.6 530.959 145.6C531.919 145.6 533.119 144.933 534.559 143.6C535.999 142.267 537.919 140.16 540.319 137.28C540.959 136.533 541.679 136.16 542.479 136.16C543.172 136.16 543.705 136.48 544.079 137.12C544.505 137.76 544.719 138.64 544.719 139.76C544.719 141.893 544.212 143.547 543.199 144.72C537.919 151.173 532.985 154.4 528.399 154.4ZM561.366 142.72C561.953 142.187 562.54 141.92 563.126 141.92C563.766 141.92 564.273 142.293 564.646 143.04C565.073 143.733 565.286 144.587 565.286 145.6C565.286 147.84 564.486 149.627 562.886 150.96C560.113 153.253 556.966 154.4 553.446 154.4C548.38 154.4 544.673 152.293 542.326 148.08C539.98 143.813 538.806 138.267 538.806 131.44C538.806 124.933 539.633 117.52 541.286 109.2C542.993 100.88 545.473 93.7333 548.726 87.76C552.033 81.7867 555.953 78.8 560.486 78.8C563.046 78.8 565.046 80 566.486 82.4C567.98 84.7467 568.726 88.1333 568.726 92.56C568.726 98.9067 566.966 106.267 563.446 114.64C559.98 123.013 555.233 131.28 549.206 139.44C549.58 141.627 550.246 143.2 551.206 144.16C552.166 145.12 553.473 145.6 555.126 145.6C556.033 145.6 557.046 145.333 558.166 144.8C559.34 144.267 560.406 143.573 561.366 142.72ZM558.726 86.72C557.5 86.72 556.113 88.9333 554.566 93.36C553.02 97.7867 551.66 103.28 550.486 109.84C549.313 116.4 548.673 122.693 548.566 128.72C552.353 122.48 555.366 116.24 557.606 110C559.846 103.707 560.966 97.9733 560.966 92.8C560.966 88.7467 560.22 86.72 558.726 86.72Z" fill="white"/>
<path d="M297.56 240.4C295.587 240.4 294.173 239.973 293.32 239.12C292.467 238.213 292.04 236.533 292.04 234.08C292.04 232.427 292.2 230.32 292.52 227.76C292.893 225.147 293.48 221.573 294.28 217.04C295.667 208.667 296.76 201.413 297.56 195.28C298.04 191.44 298.28 188.24 298.28 185.68C298.28 183.28 297.4 182.08 295.64 182.08C294.253 182.08 292.573 182.8 290.6 184.24C288.68 185.627 286.547 187.867 284.2 190.96C283.453 191.973 282.627 192.48 281.72 192.48C280.973 192.48 280.307 192.133 279.72 191.44C279.187 190.693 278.92 189.867 278.92 188.96C278.92 188.107 279.08 187.253 279.4 186.4C279.773 185.493 280.36 184.48 281.16 183.36C283.72 179.787 286.573 177.04 289.72 175.12C292.867 173.147 296.013 172.16 299.16 172.16C302.093 172.16 304.333 173.093 305.88 174.96C307.48 176.827 308.28 179.547 308.28 183.12C308.28 184.56 308.147 186.267 307.88 188.24C307.613 190.16 307.373 191.733 307.16 192.96C306.947 194.187 306.787 195.04 306.68 195.52C309.72 186.827 313.133 180.773 316.92 177.36C320.707 173.893 324.867 172.16 329.4 172.16C332.867 172.16 335.587 173.387 337.56 175.84C339.587 178.293 340.6 181.76 340.6 186.24C340.6 188 340.36 190.187 339.88 192.8C342.547 185.44 345.667 180.16 349.24 176.96C352.813 173.76 356.92 172.16 361.56 172.16C365.293 172.16 368.147 173.36 370.12 175.76C372.147 178.16 373.16 181.52 373.16 185.84C373.16 188.187 372.813 191.04 372.12 194.4L367.24 217.28C366.707 219.947 366.44 222.24 366.44 224.16C366.44 226.4 366.947 228.08 367.96 229.2C369.027 230.32 370.493 230.88 372.36 230.88C374.12 230.88 375.827 230.293 377.48 229.12C379.187 227.947 381.187 226 383.48 223.28C384.12 222.533 384.84 222.16 385.64 222.16C386.333 222.16 386.867 222.48 387.24 223.12C387.667 223.76 387.88 224.64 387.88 225.76C387.88 227.84 387.373 229.493 386.36 230.72C383.587 234.08 380.84 236.533 378.12 238.08C375.4 239.627 372.547 240.4 369.56 240.4C365.027 240.4 361.48 239.067 358.92 236.4C356.36 233.68 355.08 230.053 355.08 225.52C355.08 222.373 355.72 217.813 357 211.84L360.2 197.2C360.307 196.72 360.493 195.867 360.76 194.64C361.027 193.413 361.24 192.267 361.4 191.2C361.56 190.08 361.64 188.987 361.64 187.92C361.64 186.053 361.267 184.667 360.52 183.76C359.827 182.8 358.813 182.32 357.48 182.32C354.973 182.32 352.333 183.947 349.56 187.2C346.84 190.4 344.227 195.733 341.72 203.2C339.267 210.667 337.267 220.373 335.72 232.32C335.347 235.52 334.68 237.68 333.72 238.8C332.813 239.867 331.32 240.4 329.24 240.4C327.427 240.4 326.093 239.973 325.24 239.12C324.44 238.267 324.04 236.667 324.04 234.32C324.04 232.133 324.333 229.28 324.92 225.76C325.507 222.187 326.253 218 327.16 213.2C329.613 200.293 330.84 191.973 330.84 188.24C330.84 186.213 330.44 184.72 329.64 183.76C328.893 182.8 327.747 182.32 326.2 182.32C323.587 182.32 320.893 183.813 318.12 186.8C315.347 189.733 312.627 194.987 309.96 202.56C307.347 210.08 305.16 220.267 303.4 233.12C303.027 235.84 302.467 237.733 301.72 238.8C301.027 239.867 299.64 240.4 297.56 240.4ZM422.234 215.44C422.927 215.44 423.46 215.787 423.834 216.48C424.207 217.173 424.394 218.053 424.394 219.12C424.394 221.68 423.62 223.2 422.074 223.68C418.874 224.8 415.354 225.44 411.514 225.6C410.5 230.08 408.5 233.68 405.514 236.4C402.527 239.067 399.14 240.4 395.354 240.4C392.154 240.4 389.407 239.627 387.114 238.08C384.874 236.533 383.167 234.48 381.994 231.92C380.82 229.36 380.234 226.587 380.234 223.6C380.234 219.547 381.007 215.947 382.554 212.8C384.1 209.6 386.234 207.12 388.954 205.36C391.674 203.547 394.687 202.64 397.994 202.64C402.047 202.64 405.3 204.053 407.754 206.88C410.26 209.653 411.727 213.093 412.154 217.2C414.66 217.04 417.647 216.507 421.114 215.6C421.54 215.493 421.914 215.44 422.234 215.44ZM395.994 231.92C397.7 231.92 399.167 231.227 400.394 229.84C401.674 228.453 402.527 226.453 402.954 223.84C401.3 222.72 400.02 221.253 399.114 219.44C398.26 217.627 397.834 215.707 397.834 213.68C397.834 212.827 397.914 211.973 398.074 211.12H397.674C395.54 211.12 393.754 212.16 392.314 214.24C390.927 216.267 390.234 219.147 390.234 222.88C390.234 225.813 390.794 228.053 391.914 229.6C393.087 231.147 394.447 231.92 395.994 231.92ZM460.088 215.44C460.781 215.44 461.314 215.787 461.688 216.48C462.061 217.173 462.248 218.053 462.248 219.12C462.248 220.453 462.061 221.493 461.688 222.24C461.314 222.933 460.728 223.413 459.928 223.68C456.728 224.8 453.208 225.44 449.368 225.6C448.301 230.027 446.274 233.6 443.288 236.32C440.354 239.04 437.101 240.4 433.528 240.4C428.141 240.4 424.221 238.347 421.768 234.24C419.314 230.133 418.088 224.187 418.088 216.4C418.088 209.52 418.941 202.053 420.648 194C422.354 185.893 424.834 179.013 428.088 173.36C431.394 167.653 435.314 164.8 439.848 164.8C442.301 164.8 444.274 165.867 445.768 168C447.261 170.08 448.008 172.8 448.008 176.16C448.008 180.533 447.181 184.88 445.528 189.2C443.874 193.52 441.128 198.053 437.288 202.8C440.861 203.067 443.768 204.56 446.008 207.28C448.248 209.947 449.581 213.253 450.008 217.2C452.514 217.04 455.501 216.507 458.968 215.6C459.288 215.493 459.661 215.44 460.088 215.44ZM438.008 172.72C436.941 172.72 435.768 174.32 434.488 177.52C433.261 180.667 432.114 184.96 431.048 190.4C429.981 195.84 429.181 201.787 428.648 208.24C432.168 201.787 434.968 196.107 437.048 191.2C439.181 186.24 440.248 181.84 440.248 178C440.248 176.293 440.034 174.987 439.608 174.08C439.234 173.173 438.701 172.72 438.008 172.72ZM433.848 231.92C435.501 231.92 436.968 231.227 438.248 229.84C439.528 228.453 440.381 226.453 440.808 223.84C439.154 222.72 437.874 221.253 436.968 219.44C436.114 217.627 435.688 215.707 435.688 213.68C435.688 212.933 435.794 211.92 436.008 210.64H435.768C433.581 210.64 431.741 211.733 430.248 213.92C428.808 216.053 428.088 218.933 428.088 222.56C428.088 225.6 428.648 227.92 429.768 229.52C430.941 231.12 432.301 231.92 433.848 231.92ZM465.82 197.44C463.58 197.44 461.9 196.933 460.78 195.92C459.66 194.853 459.1 193.387 459.1 191.52C459.1 189.653 459.82 188.107 461.26 186.88C462.753 185.6 464.593 184.96 466.78 184.96C468.753 184.96 470.353 185.44 471.58 186.4C472.807 187.36 473.42 188.72 473.42 190.48C473.42 192.613 472.727 194.32 471.34 195.6C469.953 196.827 468.113 197.44 465.82 197.44ZM465.18 240.4C461.713 240.4 459.18 239.173 457.58 236.72C456.033 234.267 455.26 231.013 455.26 226.96C455.26 224.56 455.553 221.493 456.14 217.76C456.78 213.973 457.58 210.453 458.54 207.2C459.02 205.493 459.66 204.32 460.46 203.68C461.26 203.04 462.54 202.72 464.3 202.72C467.02 202.72 468.38 203.627 468.38 205.44C468.38 206.773 467.873 209.867 466.86 214.72C465.58 220.587 464.94 224.56 464.94 226.64C464.94 228.24 465.153 229.467 465.58 230.32C466.007 231.173 466.727 231.6 467.74 231.6C468.7 231.6 469.9 230.933 471.34 229.6C472.78 228.267 474.7 226.16 477.1 223.28C477.74 222.533 478.46 222.16 479.26 222.16C479.953 222.16 480.487 222.48 480.86 223.12C481.287 223.76 481.5 224.64 481.5 225.76C481.5 227.893 480.993 229.547 479.98 230.72C474.7 237.173 469.767 240.4 465.18 240.4ZM505.348 222.16C506.041 222.16 506.574 222.48 506.948 223.12C507.374 223.76 507.588 224.64 507.588 225.76C507.588 227.893 507.081 229.547 506.068 230.72C503.774 233.547 501.268 235.867 498.548 237.68C495.881 239.493 492.841 240.4 489.428 240.4C484.734 240.4 481.241 238.267 478.948 234C476.708 229.733 475.588 224.213 475.588 217.44C475.588 210.933 476.414 203.52 478.068 195.2C479.774 186.88 482.254 179.733 485.508 173.76C488.814 167.787 492.734 164.8 497.268 164.8C499.828 164.8 501.828 166 503.268 168.4C504.761 170.747 505.508 174.133 505.508 178.56C505.508 184.907 503.748 192.267 500.228 200.64C496.708 209.013 491.934 217.307 485.908 225.52C486.281 227.707 486.894 229.28 487.748 230.24C488.601 231.147 489.721 231.6 491.108 231.6C493.294 231.6 495.214 230.987 496.868 229.76C498.521 228.48 500.628 226.32 503.188 223.28C503.828 222.533 504.548 222.16 505.348 222.16ZM495.508 172.72C494.281 172.72 492.894 174.933 491.348 179.36C489.801 183.787 488.441 189.28 487.268 195.84C486.094 202.4 485.454 208.693 485.348 214.72C489.134 208.48 492.148 202.24 494.388 196C496.628 189.707 497.748 183.973 497.748 178.8C497.748 174.747 497.001 172.72 495.508 172.72ZM529.761 224.56C530.455 224.56 530.988 224.88 531.361 225.52C531.788 226.16 532.001 227.04 532.001 228.16C532.001 230.08 531.548 231.733 530.641 233.12C529.148 235.413 527.175 237.2 524.721 238.48C522.321 239.76 519.441 240.4 516.081 240.4C510.961 240.4 506.988 238.88 504.161 235.84C501.335 232.747 499.921 228.587 499.921 223.36C499.921 219.68 500.695 216.267 502.241 213.12C503.788 209.92 505.921 207.387 508.641 205.52C511.415 203.653 514.535 202.72 518.001 202.72C521.095 202.72 523.575 203.653 525.441 205.52C527.308 207.333 528.241 209.813 528.241 212.96C528.241 216.64 526.908 219.813 524.241 222.48C521.628 225.093 517.148 227.173 510.801 228.72C512.081 231.173 514.241 232.4 517.281 232.4C519.468 232.4 521.255 231.893 522.641 230.88C524.081 229.867 525.735 228.16 527.601 225.76C528.241 224.96 528.961 224.56 529.761 224.56ZM516.641 210.56C514.668 210.56 512.988 211.707 511.601 214C510.268 216.293 509.601 219.067 509.601 222.32V222.48C512.748 221.733 515.228 220.613 517.041 219.12C518.855 217.627 519.761 215.893 519.761 213.92C519.761 212.907 519.468 212.107 518.881 211.52C518.348 210.88 517.601 210.56 516.641 210.56Z" fill="white"/>
<path d="M532.784 262.972C533.096 262.972 533.336 263.116 533.504 263.404C533.696 263.692 533.792 264.088 533.792 264.592C533.792 265.552 533.564 266.296 533.108 266.824C532.22 267.904 530.96 268.9 529.328 269.812C527.72 270.724 525.992 271.18 524.144 271.18C521.624 271.18 519.668 270.496 518.276 269.128C516.884 267.76 516.188 265.888 516.188 263.512C516.188 261.856 516.536 260.32 517.232 258.904C517.928 257.464 518.888 256.324 520.112 255.484C521.36 254.644 522.764 254.224 524.324 254.224C525.716 254.224 526.832 254.644 527.672 255.484C528.512 256.3 528.932 257.416 528.932 258.832C528.932 260.488 528.332 261.916 527.132 263.116C525.956 264.292 523.952 265.228 521.12 265.924C521.72 267.028 522.86 267.58 524.54 267.58C525.62 267.58 526.844 267.208 528.212 266.464C529.604 265.696 530.804 264.7 531.812 263.476C532.1 263.14 532.424 262.972 532.784 262.972ZM523.712 257.752C522.824 257.752 522.068 258.268 521.444 259.3C520.844 260.332 520.544 261.58 520.544 263.044V263.116C521.96 262.78 523.076 262.276 523.892 261.604C524.708 260.932 525.116 260.152 525.116 259.264C525.116 258.808 524.984 258.448 524.72 258.184C524.48 257.896 524.144 257.752 523.712 257.752ZM540.905 271.288C537.713 271.288 535.157 270.688 533.237 269.488C531.317 268.264 530.357 266.404 530.357 263.908C530.357 262.588 530.585 261.58 531.041 260.884C531.497 260.188 532.169 259.84 533.057 259.84C533.705 259.84 534.233 260.008 534.641 260.344C535.049 260.68 535.253 261.112 535.253 261.64C535.253 262.12 535.217 262.54 535.145 262.9C535.145 262.996 535.121 263.164 535.073 263.404C535.049 263.644 535.037 263.896 535.037 264.16C535.037 265.24 535.577 266.044 536.657 266.572C537.761 267.1 539.297 267.364 541.265 267.364C543.305 267.364 544.901 267.004 546.053 266.284C547.205 265.54 547.781 264.508 547.781 263.188C547.781 262.372 547.517 261.676 546.989 261.1C546.461 260.5 545.801 260.008 545.009 259.624C544.217 259.216 543.101 258.724 541.661 258.148C539.813 257.428 538.301 256.744 537.125 256.096C535.973 255.448 534.977 254.572 534.137 253.468C533.321 252.34 532.913 250.948 532.913 249.292C532.913 247.564 533.369 246.028 534.281 244.684C535.217 243.34 536.549 242.296 538.277 241.552C540.029 240.808 542.081 240.436 544.433 240.436C546.185 240.436 547.793 240.7 549.257 241.228C550.721 241.732 551.885 242.512 552.749 243.568C553.637 244.624 554.081 245.92 554.081 247.456C554.081 248.968 553.853 250.108 553.397 250.876C552.941 251.644 552.269 252.028 551.381 252.028C550.757 252.028 550.229 251.836 549.797 251.452C549.389 251.068 549.185 250.612 549.185 250.084C549.185 249.628 549.221 249.208 549.293 248.824C549.365 248.104 549.401 247.648 549.401 247.456C549.401 246.448 548.909 245.68 547.925 245.152C546.941 244.624 545.717 244.36 544.253 244.36C542.189 244.36 540.605 244.744 539.501 245.512C538.421 246.256 537.881 247.312 537.881 248.68C537.881 249.592 538.157 250.372 538.709 251.02C539.285 251.668 539.993 252.208 540.833 252.64C541.673 253.072 542.849 253.588 544.361 254.188C546.185 254.932 547.649 255.604 548.753 256.204C549.857 256.804 550.793 257.62 551.561 258.652C552.353 259.684 552.749 260.956 552.749 262.468C552.749 265.3 551.669 267.484 549.509 269.02C547.373 270.532 544.505 271.288 540.905 271.288ZM560.362 251.848C559.354 251.848 558.598 251.62 558.094 251.164C557.59 250.684 557.338 250.024 557.338 249.184C557.338 248.344 557.662 247.648 558.31 247.096C558.982 246.52 559.81 246.232 560.794 246.232C561.682 246.232 562.402 246.448 562.954 246.88C563.506 247.312 563.782 247.924 563.782 248.716C563.782 249.676 563.47 250.444 562.846 251.02C562.222 251.572 561.394 251.848 560.362 251.848ZM560.074 271.18C558.514 271.18 557.374 270.628 556.654 269.524C555.958 268.42 555.61 266.956 555.61 265.132C555.61 264.052 555.742 262.672 556.006 260.992C556.294 259.288 556.654 257.704 557.086 256.24C557.302 255.472 557.59 254.944 557.95 254.656C558.31 254.368 558.886 254.224 559.678 254.224C560.902 254.224 561.514 254.632 561.514 255.448C561.514 256.048 561.286 257.44 560.83 259.624C560.254 262.264 559.966 264.052 559.966 264.988C559.966 265.708 560.062 266.26 560.254 266.644C560.446 267.028 560.77 267.22 561.226 267.22C561.658 267.22 562.198 266.92 562.846 266.32C563.494 265.72 564.358 264.772 565.438 263.476C565.726 263.14 566.05 262.972 566.41 262.972C566.722 262.972 566.962 263.116 567.13 263.404C567.322 263.692 567.418 264.088 567.418 264.592C567.418 265.552 567.19 266.296 566.734 266.824C564.358 269.728 562.138 271.18 560.074 271.18ZM567.061 271.18C566.149 271.18 565.501 270.7 565.117 269.74C564.757 268.78 564.577 267.244 564.577 265.132C564.577 262.012 565.021 259.048 565.909 256.24C566.125 255.544 566.473 255.04 566.953 254.728C567.457 254.392 568.153 254.224 569.041 254.224C569.521 254.224 569.857 254.284 570.049 254.404C570.241 254.524 570.337 254.752 570.337 255.088C570.337 255.472 570.157 256.336 569.797 257.68C569.557 258.64 569.365 259.48 569.221 260.2C569.077 260.896 568.957 261.772 568.861 262.828C569.509 260.956 570.277 259.372 571.165 258.076C572.077 256.78 573.001 255.82 573.937 255.196C574.897 254.548 575.797 254.224 576.637 254.224C577.477 254.224 578.065 254.416 578.401 254.8C578.761 255.184 578.941 255.772 578.941 256.564C578.941 257.332 578.713 258.724 578.257 260.74C578.065 261.604 577.933 262.252 577.861 262.684C579.061 259.732 580.393 257.584 581.857 256.24C583.321 254.896 584.689 254.224 585.961 254.224C587.521 254.224 588.301 255.004 588.301 256.564C588.301 257.5 588.037 259.192 587.509 261.64C587.053 263.728 586.825 265.108 586.825 265.78C586.825 266.74 587.173 267.22 587.869 267.22C588.349 267.22 588.913 266.932 589.561 266.356C590.233 265.756 591.121 264.796 592.225 263.476C592.513 263.14 592.837 262.972 593.197 262.972C593.509 262.972 593.749 263.116 593.917 263.404C594.109 263.692 594.205 264.088 594.205 264.592C594.205 265.552 593.977 266.296 593.521 266.824C592.489 268.096 591.373 269.14 590.173 269.956C588.997 270.772 587.653 271.18 586.141 271.18C584.917 271.18 583.993 270.832 583.369 270.136C582.745 269.416 582.433 268.384 582.433 267.04C582.433 266.368 582.601 265.168 582.937 263.44C583.249 261.928 583.405 260.884 583.405 260.308C583.405 259.924 583.273 259.732 583.009 259.732C582.697 259.732 582.253 260.14 581.677 260.956C581.101 261.748 580.525 262.804 579.949 264.124C579.373 265.444 578.905 266.836 578.545 268.3C578.281 269.452 577.969 270.22 577.609 270.604C577.273 270.988 576.721 271.18 575.953 271.18C575.161 271.18 574.561 270.808 574.153 270.064C573.769 269.296 573.577 268.372 573.577 267.292C573.577 266.38 573.697 265.06 573.937 263.332C574.129 261.796 574.225 260.788 574.225 260.308C574.225 259.924 574.093 259.732 573.829 259.732C573.469 259.732 573.013 260.164 572.461 261.028C571.909 261.892 571.369 262.996 570.841 264.34C570.337 265.684 569.929 267.004 569.617 268.3C569.353 269.428 569.041 270.196 568.681 270.604C568.345 270.988 567.805 271.18 567.061 271.18ZM597.99 271.972C596.742 271.972 595.782 271.684 595.11 271.108C594.462 270.532 594.138 269.884 594.138 269.164C594.138 268.54 594.366 268 594.822 267.544C595.278 267.088 595.95 266.86 596.838 266.86C597.15 266.86 597.51 266.896 597.918 266.968C598.35 267.016 598.674 267.052 598.89 267.076C598.866 266.452 598.722 265.864 598.458 265.312C598.218 264.76 597.906 264.232 597.522 263.728C597.138 263.2 596.778 262.744 596.442 262.36C595.698 263.776 594.954 264.952 594.21 265.888C593.49 266.824 592.698 267.712 591.834 268.552C591.402 268.984 590.946 269.2 590.466 269.2C590.082 269.2 589.77 269.068 589.53 268.804C589.29 268.516 589.17 268.168 589.17 267.76C589.17 267.28 589.338 266.836 589.674 266.428L590.142 265.852C591.462 264.22 592.458 262.876 593.13 261.82C593.562 261.124 593.994 260.296 594.426 259.336C594.882 258.376 595.47 257.068 596.19 255.412C596.646 254.356 597.594 253.828 599.034 253.828C599.706 253.828 600.174 253.888 600.438 254.008C600.702 254.128 600.834 254.32 600.834 254.584C600.834 254.728 600.786 254.956 600.69 255.268C600.594 255.58 600.462 255.892 600.294 256.204C599.862 257.068 599.646 257.8 599.646 258.4C599.646 258.76 599.766 259.156 600.006 259.588C600.27 260.02 600.666 260.56 601.194 261.208C601.962 262.216 602.538 263.08 602.922 263.8C603.33 264.496 603.534 265.264 603.534 266.104C603.534 267.112 603.294 268.072 602.814 268.984C602.358 269.872 601.71 270.592 600.87 271.144C600.03 271.696 599.07 271.972 597.99 271.972Z" fill="white"/>
<path d="M271.956 231.698C269.284 220.072 261.581 214.95 259.843 206.303C259.538 204.548 259.574 202.749 259.951 201.008C262.704 186.672 263.739 171.291 251.037 160.346C250.458 159.852 249.842 159.403 249.195 159.002C238.885 152.507 228.247 148.694 215.847 148.682C220.841 154.932 233.333 157.75 232.391 166.183C229.573 178.675 218.636 187.415 217.067 201.469C214.556 223.957 233.139 240.341 255.427 239.863C257.288 239.821 259.801 239.746 262.119 239.571C263.757 239.451 265.36 239.037 266.852 238.349C270.885 236.381 272.506 234.1 271.956 231.698Z" fill="white"/>
<path d="M219.507 109.339C218.068 110.709 216.819 112.266 215.796 113.969C209.699 123.961 206.183 134.234 206.179 146.179C208.684 136.498 218.058 129.007 226.491 129.949C230.707 130.419 235.439 133.346 239.114 136.759C241.361 138.813 243.981 140.417 246.832 141.484C247.91 141.903 249.045 142.379 250.218 142.901C252.864 144.111 255.709 144.826 258.612 145.012C270.339 145.639 280.087 140.153 288.196 132.279C289.793 130.736 291.184 128.992 292.332 127.091C299.259 115.399 301.032 99.8375 290.419 91.6013C288.787 90.3447 282.924 88.0535 279.364 92.4728C279.034 92.9118 278.83 93.433 278.776 93.9796C278.322 94.9567 277.659 95.8226 276.835 96.5163C274.665 98.4939 271.921 100.891 269.518 100.623C251.916 102.72 232.644 97.0243 219.507 109.339Z" fill="white"/>
<path d="M213.325 158.326C209.306 169.154 200.273 178.932 189.218 172.866C189.043 172.776 188.897 172.624 188.715 172.526C175.392 165.431 162.046 158.341 149.077 161.126C134.395 165.179 123.144 176.729 121.299 193.564C120.748 198.497 120.946 205.456 123.768 210.382C124.475 211.546 125.437 212.534 126.581 213.273C127.725 214.011 129.021 214.48 130.373 214.645C131.724 214.809 133.096 214.665 134.383 214.223C135.671 213.781 136.842 213.052 137.807 212.092C148.222 201.786 163.843 206.469 179.045 205.79C179.441 205.771 179.835 205.73 180.226 205.666C202.919 202.266 215.186 179.701 213.325 158.326Z" fill="white"/>
<path d="M203.652 155.816C194.067 153.336 186.29 146.904 187.413 135.83C187.427 135.632 187.459 135.436 187.507 135.243C190.444 122.899 202.731 112.966 201.503 98.7266C199.948 87.1689 193.718 77.0173 183.403 69.6683C175.849 64.2995 168.339 64.0158 158.037 65.1564C157.706 65.1905 156.767 65.3774 156.447 65.4413C149.589 66.8383 143.542 71.0298 145.665 76.8094C147.787 82.589 154.718 84.9355 156.901 90.8713C160.954 105.554 153.448 121.792 163.123 137.102C167.307 143.844 173.377 149.21 180.581 152.536C187.785 155.863 195.806 157.003 203.652 155.816Z" fill="white"/>
</g>
<defs>
<clipPath id="clip0_1072_30">
<rect width="714" height="337" fill="white"/>
</clipPath>
</defs>
</svg>
