<svg width="165" height="103" viewBox="0 0 165 103" fill="none" xmlns="http://www.w3.org/2000/svg">
<rect width="165" height="103" rx="8" fill="url(#paint0_linear_1246_4322)"/>
<mask id="mask0_1246_4322" style="mask-type:alpha" maskUnits="userSpaceOnUse" x="30" y="3" width="103" height="99">
<path d="M93.4103 23.6417L91.4308 41.5366L101.328 53.4665L107.267 49.4899L109.246 51.4782V53.4665L121.123 59.4315L133 91.2447L77.5744 101.186L30.0667 15.6884L57.7795 3.75842L89.4513 9.7234L93.4103 23.6417Z" fill="#444444"/>
</mask>
<g mask="url(#mask0_1246_4322)">
<path d="M133.265 -65.4437C133.094 -65.1608 133.094 -64.8344 133.244 -64.4427C133.545 -63.6158 133.545 -63.6158 132.513 -63.7681C131.697 -63.8987 131.568 -63.8551 131.461 -63.4635C131.375 -63.1371 131.182 -63.0283 130.58 -63.0283C130.172 -63.0283 129.356 -62.9194 128.754 -62.7889C127.895 -62.6148 127.573 -62.6366 127.035 -62.8977C126.09 -63.3982 123.963 -63.3547 123.641 -62.8542C123.448 -62.506 123.018 -62.4189 121.214 -62.2884C119.774 -62.2013 118.808 -62.0273 118.357 -61.7661C117.97 -61.5703 117.325 -61.3527 116.917 -61.2874C115.757 -61.1133 116.015 -60.6781 117.755 -59.7859C118.636 -59.3507 119.323 -58.9155 119.259 -58.7849C119.216 -58.6544 118.507 -58.5891 117.562 -58.6326C116.681 -58.6761 115.8 -58.6979 115.628 -58.6761C115.456 -58.6544 114.167 -58.6108 112.771 -58.5673C111.396 -58.5455 110.193 -58.4585 110.129 -58.3932C109.892 -58.1539 110.472 -57.3922 110.945 -57.327C111.246 -57.2834 111.461 -57.0658 111.547 -56.7177C111.675 -56.2172 111.761 -56.1736 112.685 -56.2389C113.308 -56.2825 113.888 -56.1954 114.275 -55.9778C114.597 -55.782 115.413 -55.4338 116.058 -55.1944C116.702 -54.955 117.196 -54.7592 117.132 -54.7592C117.068 -54.7375 116.294 -54.7374 115.413 -54.7374C113.587 -54.7374 112.019 -54.9333 111.847 -55.2162C111.783 -55.325 111.418 -55.412 111.052 -55.412C110.666 -55.412 109.871 -55.6079 109.248 -55.8472C108.045 -56.3042 107.572 -56.1301 108.195 -55.4338C108.668 -54.9115 108.625 -54.6939 108.131 -54.9768C107.486 -55.3032 106.154 -55.2597 106.305 -54.8898C106.498 -54.411 107.358 -54.1281 108.582 -54.1934C109.57 -54.237 109.871 -54.1717 110.365 -53.7365C110.687 -53.4536 110.902 -53.1489 110.838 -53.0836C110.687 -52.9531 105.854 -53.8235 105.166 -54.1064C104.887 -54.2152 104.672 -54.4981 104.672 -54.7374C104.672 -55.4556 104.221 -56.2172 103.663 -56.4783C102.846 -56.8482 102.61 -56.7612 103.125 -56.2607C103.663 -55.782 103.577 -55.412 102.954 -55.412C102.717 -55.412 102.438 -55.2162 102.309 -54.9986C102.137 -54.6286 102.223 -54.4546 102.782 -53.9105C103.168 -53.5406 103.598 -53.236 103.748 -53.236C104.178 -53.236 104.672 -52.5831 104.672 -51.9738C104.694 -51.6039 105.016 -51.0164 105.51 -50.4288L106.348 -49.4931L108.926 -49.4496C111.074 -49.4061 111.59 -49.3408 112.105 -48.9926C112.449 -48.7533 112.921 -48.4704 113.158 -48.3398C113.394 -48.2093 113.609 -47.9264 113.652 -47.687C113.759 -47.0995 114.124 -46.7078 114.705 -46.4684C115.435 -46.1855 115.306 -45.8373 114.49 -45.8373C113.716 -45.8373 113.201 -46.2508 112.943 -47.1212C112.836 -47.4476 112.406 -47.7958 111.611 -48.1657C110.537 -48.6662 110.279 -48.7098 109.205 -48.5357C108.346 -48.4051 107.98 -48.231 107.938 -47.9699C107.895 -47.774 108.045 -47.5564 108.281 -47.4694C108.625 -47.3824 108.732 -47.0995 108.797 -46.2073C108.904 -45.0104 108.732 -44.6187 108.002 -44.2923C107.766 -44.1835 107.336 -43.9224 107.035 -43.683C106.541 -43.2914 106.369 -43.2914 104.5 -43.5307C103.405 -43.6831 102.395 -43.9224 102.266 -44.053C102.116 -44.2053 101.837 -44.3141 101.622 -44.3141C101.407 -44.3141 101.235 -44.4229 101.235 -44.5317C101.235 -44.8146 101.794 -44.8146 102.352 -44.5099C102.588 -44.3794 103.319 -44.2053 103.963 -44.1183C105.209 -43.9442 105.317 -44.0095 106.326 -45.7285C106.842 -46.599 106.863 -46.7295 106.52 -47.1212C106.326 -47.3388 106.176 -47.6435 106.219 -47.8176C106.262 -47.9699 105.897 -48.2963 105.424 -48.5574C104.951 -48.8186 104.35 -49.3626 104.092 -49.776C103.834 -50.1895 103.426 -50.7117 103.211 -50.9511C102.975 -51.1905 102.739 -51.6474 102.653 -51.9738C102.588 -52.2785 102.03 -52.9966 101.428 -53.5406C100.827 -54.0846 100.397 -54.6286 100.483 -54.7592C100.698 -55.1074 100.204 -56.2172 99.7742 -56.413C99.5594 -56.5001 98.3993 -56.6741 97.1748 -56.8047C95.2199 -57.0223 94.8977 -57.0223 94.5325 -56.7177C94.1673 -56.413 94.1458 -56.3042 94.3821 -55.782C94.7473 -54.955 94.3821 -54.1934 93.5013 -53.9976C92.7279 -53.8235 92.6635 -53.1707 93.4154 -53.0619C93.931 -52.9966 94.5754 -51.9738 94.5754 -51.1905C94.5754 -50.5594 95.1125 -50.1895 96.0362 -50.1895C96.38 -50.1895 96.8311 -49.9936 97.0459 -49.7543C97.2607 -49.5149 97.6474 -49.319 97.9052 -49.319C98.4638 -49.319 99.0868 -48.688 99.0868 -48.144C99.0868 -47.7088 99.0868 -47.7088 96.4444 -48.3181C95.6281 -48.5139 94.7903 -48.7533 94.5754 -48.8838C93.8021 -49.319 93.7376 -49.0797 94.3606 -48.0787C94.7258 -47.5129 95.0051 -46.8819 95.0051 -46.686C95.0051 -46.4466 94.5325 -46.0332 93.7806 -45.598C92.2983 -44.7276 90.9234 -43.509 90.9234 -43.0738C90.9234 -42.8779 91.2242 -42.138 91.5679 -41.3982C91.9331 -40.6801 92.4057 -39.3962 92.642 -38.5475C93.5443 -35.3705 95.0051 -28.5159 95.0051 -27.4279C95.0051 -26.6662 95.1125 -26.2093 95.3488 -26.0134C95.8859 -25.5782 96.8311 -24.055 97.2393 -23.0105C97.5615 -22.1618 97.5615 -22.0095 97.2607 -21.5525C97.0674 -21.2478 96.5089 -20.9214 95.8859 -20.7256C93.3294 -19.964 93.0287 -19.4635 94.1458 -17.7009C95.0266 -16.2864 96.3585 -15.6336 97.54 -15.9818C98.0556 -16.1558 98.7215 -16.6128 99.2801 -17.2221L100.182 -18.2013L100.698 -17.6791C101.106 -17.2656 101.235 -16.8957 101.235 -16.2211C101.235 -15.7206 101.342 -14.6761 101.471 -13.9145C101.6 -13.1529 101.643 -11.9996 101.557 -11.3467C101.428 -10.2805 101.321 -10.0629 100.505 -9.3883L99.5808 -8.62667L97.8837 -9.34477C96.9385 -9.75822 95.714 -10.3458 95.1125 -10.6504C93.5658 -11.4773 92.3842 -11.6079 91.3531 -11.1074L90.5152 -10.6939L90.9449 -9.9976C91.3101 -9.43182 91.3316 -9.23597 91.1167 -8.86604C90.816 -8.40907 90.15 -8.25674 87.8084 -8.06089C86.0899 -7.90857 85.7461 -7.6692 85.0157 -6.233C84.7365 -5.68899 84.2638 -5.01441 83.9631 -4.70976C83.4905 -4.27454 83.3186 -4.23102 83.0179 -4.44863C82.3519 -4.92736 82.1156 -4.97089 81.7719 -4.688C81.5141 -4.47039 81.4496 -4.14398 81.5356 -3.33884C81.6215 -2.4249 81.7504 -2.14201 82.5238 -1.44566C83.3616 -0.662277 83.4045 -0.553474 83.4045 0.643356C83.426 1.4485 83.5764 2.21012 83.8127 2.6671L84.1994 3.40695L84.6505 2.75414C85.0157 2.23189 85.3165 2.07956 86.1328 1.97076C86.9277 1.88371 87.2499 1.73139 87.701 1.14385L88.2811 0.44751L89.2478 0.90448C90.0641 1.31793 90.2789 1.3397 90.9019 1.10033C91.5249 0.860962 91.6323 0.882721 91.9116 1.25265C92.0835 1.51378 92.2124 2.18836 92.2124 2.92822C92.2124 3.62456 92.3198 4.25562 92.4272 4.3209C92.9642 4.66907 92.5346 4.75612 91.396 4.56027C90.6871 4.45147 89.9782 4.4297 89.7848 4.49499C89.3337 4.66908 89.3122 5.64831 89.7419 5.82239C90.1715 5.97472 90.15 6.60577 89.7204 6.60577C89.5485 6.60577 89.2048 6.49696 88.9685 6.3664C88.6463 6.21407 88.4529 6.21407 88.2381 6.38816C87.8299 6.73633 88.1951 7.47619 88.7752 7.47619C88.99 7.47619 89.2263 7.67204 89.3122 7.88964C89.3767 8.12901 89.6774 8.45542 89.9567 8.65127C90.2575 8.84711 90.4938 9.15176 90.4938 9.32585C90.4938 9.5217 90.6871 9.65226 90.9879 9.65226C91.2886 9.65226 91.5464 9.8481 91.6753 10.131C91.8257 10.4792 92.0835 10.6315 92.5346 10.6315C93.1146 10.6532 93.1791 10.7185 93.3294 11.6107C93.5443 12.8946 94.3821 14.8966 94.6614 14.8095C94.8977 14.7225 94.9406 14.0479 94.7688 13.2428C94.7043 12.9381 94.8547 12.764 95.2844 12.6117C95.8429 12.4159 95.9503 12.4594 96.7452 13.4168C97.2178 13.9826 97.7548 14.4396 97.9052 14.4396C98.0556 14.4396 98.3563 14.5919 98.5282 14.7878C98.786 15.0489 98.829 15.223 98.6356 15.5711C98.4423 15.9411 98.2704 15.9846 97.6259 15.8758C97.1748 15.7888 96.4229 15.6799 95.9288 15.6147L95.0051 15.4841V16.3763C95.0051 17.2032 95.048 17.2902 95.671 17.4208C96.4659 17.5731 96.6377 17.9213 96.3155 18.7917C96.0362 19.6404 96.1437 19.8798 97.0674 20.4891C97.8408 21.0113 98.0771 21.4248 98.5712 23.3179C99.1512 25.5375 99.2801 25.4287 95.9288 25.494C93.1146 25.5593 92.9857 25.5375 92.4487 25.037C91.482 24.1448 90.859 23.7967 90.1715 23.7967C89.2693 23.7967 88.6463 23.2962 88.4744 22.4475C88.0877 20.5326 88.0877 20.315 88.4744 19.7057C88.7107 19.3793 88.9255 18.77 88.99 18.3565C89.0974 17.6384 89.1404 17.5949 89.9137 17.6167C91.2671 17.6602 90.7086 16.6809 89.1618 16.311C88.8396 16.2457 88.2381 15.7452 87.8084 15.223C86.9706 14.1785 87.1425 14.2438 83.469 13.8085C81.4926 13.5909 79.6451 12.8075 78.0769 11.5019C77.1531 10.7403 76.0575 10.5009 75.7783 10.9579C75.499 11.3931 74.4034 11.1755 73.673 10.5227C72.4485 9.43465 70.8373 9.08648 69.9565 9.7393C69.5054 10.0875 69.4839 10.0439 70.558 10.7185C71.181 11.0885 71.4173 11.4366 71.6536 12.22C72.0403 13.5474 71.847 13.8956 70.4506 14.5266C69.5483 14.9183 68.9898 15.0054 67.5075 14.9836C66.4978 14.9619 65.4237 14.8313 65.08 14.7007C64.7578 14.5484 64.0488 14.4614 63.5118 14.4831C62.674 14.5266 62.4376 14.4396 62.051 13.9609C61.4709 13.2428 60.5902 13.0687 57.1959 13.0469C54.8114 13.0252 54.4032 13.0904 53.6083 13.5039C53.1142 13.7868 52.5772 14.2002 52.3838 14.4614C52.0831 14.8966 51.9327 14.9183 50.6008 14.8095C49.7845 14.7442 48.9896 14.6572 48.8178 14.6137C48.3881 14.5266 48.2807 15.3318 48.6889 15.5711C49.6771 16.1369 48.474 16.5721 45.6598 16.6592C44.4353 16.7027 43.3612 16.8333 43.2538 16.9421C43.1679 17.0726 43.0175 17.5296 42.953 17.9866C42.8241 18.7917 42.8456 18.8352 43.7909 19.2269C44.865 19.7057 45.0154 20.2497 44.2849 20.9895C43.9842 21.2942 43.7049 21.403 43.3827 21.2942C42.2226 20.9243 41.9434 20.9243 41.9434 21.2289C41.9434 21.7729 42.7167 22.2952 43.7049 22.4257C44.779 22.5781 45.1657 22.8174 45.1657 23.3615C45.1657 23.5791 45.3591 23.7967 45.6169 23.8619C46.0035 23.9707 46.025 24.036 45.7887 24.4277C45.5524 24.7977 45.5739 24.9282 45.8961 25.2982C46.2184 25.6463 46.5621 25.7551 47.4429 25.7551C48.474 25.7551 48.6459 25.8204 49.0755 26.4079C49.5052 26.9955 49.6556 27.0608 50.7297 27.0608C51.8468 27.0608 51.9542 26.9955 52.2979 26.4079C52.835 25.4505 53.6083 25.3417 54.9188 26.0815C55.5203 26.4079 56.1648 26.8214 56.3581 26.9737C56.8737 27.4525 58.6138 27.1043 59.6879 26.3427C60.4827 25.7769 60.6761 25.7334 61.2561 25.9292C61.7717 26.1251 62.0939 26.1033 62.674 25.8422C63.3399 25.581 63.4258 25.581 63.4258 25.8422C63.4258 26.0163 63.3184 26.2339 63.1895 26.3209C63.0392 26.4079 62.9747 27.3872 62.9747 28.9975C62.9962 32.3051 62.8028 34.4376 62.4591 34.9816C62.2873 35.2428 62.008 36.0697 61.8147 36.853C61.4494 38.311 60.9983 39.3555 60.6546 39.5731C60.5472 39.6384 59.602 39.5949 58.5708 39.4643C57.5396 39.3555 56.6374 39.2902 56.5944 39.3338C56.487 39.4643 57.9693 42.6414 58.2271 42.8155C58.356 42.8807 58.6138 43.4683 58.7856 44.0993C58.9575 44.7304 59.4516 45.6443 59.8383 46.1013C60.2464 46.58 60.6116 47.1676 60.6546 47.4069C60.805 48.125 61.4494 48.0598 61.9221 47.2546C62.2228 46.7541 62.3517 46.1666 62.3517 45.2744C62.3517 44.5998 62.4376 44.034 62.5451 44.034C62.8673 44.034 63.0177 44.6869 62.7814 45.1221C62.5451 45.5791 62.5021 47.0588 62.6954 47.6028C62.7599 47.7986 63.0392 47.951 63.2969 47.951C63.9844 47.951 64.6289 48.495 65.4667 49.7571C65.8748 50.3882 66.6482 51.4762 67.1638 52.1943C67.6794 52.9124 68.1735 53.8481 68.2379 54.2833C68.3024 54.6968 68.5602 55.2408 68.7965 55.4584C69.0328 55.676 69.2261 55.9806 69.2261 56.1547C69.2261 56.307 69.4839 56.5464 69.8061 56.677C71.138 57.1775 72.5129 59.1142 72.5989 60.5721C72.7278 63.2269 72.8781 63.8362 73.6945 65.0983C74.3175 66.0558 74.6397 66.3605 75.1123 66.404C76.0575 66.5128 76.9168 67.5355 77.2176 68.8847C77.368 69.6246 77.6472 70.1903 77.9695 70.4297C78.2273 70.6473 78.4636 70.952 78.4636 71.1043C78.4636 71.2566 78.8932 71.8877 79.4303 72.5187C79.9673 73.1498 80.397 73.8461 80.397 74.0855C80.397 74.3249 80.6333 74.6077 80.9126 74.7383C81.4282 74.9777 81.9008 75.7611 81.9008 76.3486C81.9008 76.5227 81.7074 76.762 81.4711 76.8926C80.9126 77.1973 80.9126 77.9589 81.4926 79.0687C81.7289 79.5474 81.9867 80.3525 82.0511 80.853C82.1371 81.3753 82.3089 82.0064 82.4808 82.2675C82.6741 82.5721 82.7386 82.9856 82.6527 83.4643C82.5238 84.1171 82.5882 84.2695 83.0608 84.5741C83.8986 85.1399 84.672 85.0311 87.078 83.9648C88.3025 83.4426 89.5271 82.9856 89.8063 82.9856C90.4508 82.9856 91.6109 82.4851 91.9761 82.0499C92.1909 81.7887 92.3627 81.7452 92.642 81.8975C93.1361 82.1587 93.9524 81.8758 94.5325 81.223C95.048 80.679 97.9052 79.308 98.5497 79.2863C98.786 79.2863 99.4949 79.0469 100.139 78.7423L101.299 78.1982L101.192 77.2408C101.085 76.3268 101.106 76.2615 101.922 75.7175C102.395 75.4129 103.19 75.0865 103.663 75.0212C104.157 74.9341 104.93 74.6948 105.381 74.4554C105.983 74.1508 106.283 74.1072 106.584 74.2813C107.121 74.5642 107.83 74.5642 108.002 74.2813C108.088 74.1508 107.98 73.8026 107.787 73.4979C107.293 72.7146 107.508 72.3882 108.582 72.2141C109.699 72.0182 110.043 71.7789 110.043 71.1478C110.043 70.8649 110.451 70.2774 111.01 69.7116C111.955 68.7759 112.621 67.3614 112.621 66.2952C112.621 65.9252 112.75 65.7947 113.115 65.7947C113.673 65.7947 114.124 65.4248 114.124 64.946C114.124 64.7719 114.533 64.2062 115.027 63.6839C115.779 62.9223 115.908 62.6176 115.929 61.8342C115.951 61.1379 115.865 60.8985 115.628 60.8985C115.091 60.8985 114.082 59.7235 114.232 59.2447C114.339 58.9401 114.232 58.7878 113.802 58.6137C113.501 58.5049 113.029 58.3961 112.771 58.3961C111.761 58.3961 110.752 57.8956 109.678 56.8946C108.689 55.9806 108.518 55.7195 108.41 54.7838C108.324 54.1963 108.088 53.4999 107.852 53.2388C107.465 52.8253 107.465 52.7601 107.787 52.5642C107.98 52.4554 108.109 52.1943 108.088 51.9767C107.98 51.4979 107.465 51.2803 107.465 51.7156C107.465 51.8896 107.186 52.3684 106.82 52.7601C106.477 53.1735 106.176 53.6087 106.176 53.7393C106.176 53.8699 105.983 54.1527 105.746 54.3704C105.51 54.588 105.317 54.9361 105.317 55.132C105.317 55.676 104.221 56.6117 103.104 57.0034C102.18 57.3298 102.073 57.308 101.471 56.9599C100.956 56.6552 100.762 56.6117 100.548 56.8293C100.247 57.134 99.6453 57.1775 99.1297 56.8946C98.9364 56.7858 98.5927 56.6335 98.3778 56.5682C98.0341 56.4594 98.0126 56.2635 98.1415 54.6097C98.2919 52.7601 98.2919 52.7601 97.7119 52.4989C97.4111 52.3466 97.0889 52.3031 97.003 52.3901C96.917 52.4772 96.8741 53.1082 96.8955 53.8263C96.917 54.5227 96.8526 55.1537 96.7452 55.219C96.4229 55.4366 95.8214 54.675 95.9503 54.1963C96.0148 53.8916 95.8429 53.5652 95.4132 53.1518C94.9191 52.673 94.7473 52.3031 94.6614 51.4979C94.5969 50.7363 94.4465 50.3446 94.0813 50.0835C93.1146 49.3436 92.2124 48.2339 91.6108 47.0588C90.5367 44.9698 90.15 44.404 89.6774 44.2299C88.9685 43.947 89.0974 43.6424 90.2789 42.9025C90.8804 42.5326 91.3531 42.1409 91.3531 42.0538C91.3531 41.7057 92.1909 41.858 92.4057 42.2279C92.5561 42.5326 92.6635 42.5543 92.9213 42.3367C93.222 42.0756 93.931 42.1844 93.931 42.4891C93.931 42.5543 94.3176 43.1419 94.7903 43.7512C95.2414 44.3822 95.9288 45.6008 96.294 46.4712C96.6592 47.3417 97.0674 48.1251 97.2178 48.2121C97.3681 48.2991 97.8408 48.3862 98.2704 48.3862C98.7001 48.3862 99.1082 48.4732 99.1727 48.582C99.3875 48.9084 101.622 50.127 102.03 50.127C102.245 50.127 102.739 50.3229 103.125 50.5622C104.092 51.1498 104.328 51.128 105.338 50.1923C106.112 49.496 106.348 49.3872 107.293 49.3872C108.238 49.3872 108.453 49.4742 108.99 50.0835C109.441 50.584 109.613 51.0192 109.613 51.5632C109.613 52.6295 110.558 53.4782 111.804 53.5217C113.33 53.587 116.101 54.0439 117.132 54.4139C118.271 54.8273 118.937 54.8273 121.536 54.4792C122.61 54.3268 123.727 54.218 124.071 54.2398C124.393 54.2398 125.209 54.2833 125.897 54.3051C126.799 54.3486 127.315 54.2615 127.723 53.9787C128.797 53.2606 129.936 53.587 129.678 54.5662C129.57 55.0667 129.635 55.1755 130.322 55.4584C130.838 55.676 131.225 56.0677 131.525 56.6552C131.762 57.134 132.256 57.678 132.621 57.8738C132.986 58.0479 133.717 58.6137 134.254 59.0924C135.242 60.0281 136.595 60.4416 137.497 60.1152C138.206 59.854 138.249 60.2675 137.605 60.7897C137.175 61.1161 136.831 61.2249 136.359 61.1379C136.015 61.0726 135.564 61.1161 135.392 61.225C135.134 61.399 135.457 61.8125 137.089 63.401C138.185 64.4673 139.216 65.3595 139.345 65.3595C139.495 65.3595 140.097 65.2071 140.698 65.0331C141.923 64.6631 142.267 64.0974 142.116 62.7264C142.052 62.2259 142.116 61.8778 142.331 61.7037C142.61 61.4643 142.718 61.5731 143.018 62.4C143.212 62.9223 143.319 63.4663 143.233 63.5969C143.169 63.7274 143.298 64.0974 143.534 64.402C144.071 65.0983 144.114 65.8382 143.663 66.5345C143.255 67.1438 143.384 67.7314 144.501 70.9084C145.038 72.4534 145.274 73.4544 145.274 74.3249C145.274 75.3911 145.36 75.674 145.897 76.2833C146.219 76.675 146.821 77.6325 147.208 78.4158C147.594 79.1992 148.153 80.1132 148.453 80.4396C149.012 81.0271 149.098 81.31 149.764 85.1181C149.893 85.7709 150.151 86.2497 150.666 86.7502C151.568 87.5771 153.223 91.4505 153.394 93.039C153.459 93.7353 153.652 94.2141 153.996 94.5405C154.275 94.8016 154.512 95.2151 154.512 95.4109C154.512 95.9114 155.135 96.2596 156.08 96.2596C156.746 96.2596 156.853 96.1725 157.197 95.2803C157.39 94.7146 157.884 94.0182 158.292 93.6918C158.722 93.3436 159.023 92.9084 159.023 92.6255C159.023 92.3644 159.13 92.0815 159.238 92.0162C159.367 91.9292 159.41 91.6898 159.345 91.4505C159.238 91.1241 159.324 91.037 159.732 91.037C160.57 91.037 160.849 90.5148 160.548 89.5355C160.204 88.3169 160.247 87.1636 160.763 85.6404C161.128 84.5523 161.171 84.1607 160.978 83.6819C160.87 83.3555 160.763 82.6374 160.763 82.0934C160.763 81.5494 160.656 80.679 160.527 80.1567C160.14 78.6987 160.784 77.5454 161.987 77.5454C162.288 77.5454 162.439 77.3496 162.546 76.8708C162.653 76.2833 162.739 76.218 163.19 76.3268C163.856 76.5009 164.716 75.8046 165.038 74.8253C165.167 74.4119 165.532 73.8679 165.854 73.6067C166.177 73.3674 166.477 72.9539 166.542 72.6928C166.606 72.4099 166.864 72.1923 167.122 72.1488C167.401 72.1053 167.852 71.6483 168.26 70.9955C168.969 69.8857 171.44 67.5355 171.891 67.5355C172.041 67.5355 172.385 67.2962 172.664 66.9915C173.094 66.5563 173.201 66.2517 173.201 65.2942C173.201 64.4238 173.309 64.0321 173.588 63.7709C173.803 63.5533 174.061 63.401 174.168 63.401C174.275 63.401 174.533 63.2269 174.748 63.0311C175.092 62.7264 175.199 62.7047 175.328 62.944C175.457 63.1616 175.629 63.1834 175.887 63.0093C176.101 62.9005 176.638 62.857 177.09 62.9005C178.099 63.0528 179.002 62.8352 179.002 62.4435C179.002 62.2477 179.173 62.1824 179.517 62.2477C179.796 62.313 180.097 62.2477 180.162 62.1171C180.248 61.9866 180.505 61.8778 180.72 61.8778C181.021 61.8778 181.15 61.6819 181.193 61.0726C181.236 60.4198 181.343 60.2457 181.687 60.2457C182.374 60.2457 183.126 62.0736 183.169 63.8145C183.191 65.1201 183.277 65.3595 184.028 66.3387C184.48 66.9262 184.888 67.4702 184.909 67.492C184.952 67.5355 185.274 67.405 185.64 67.1874C186.456 66.7086 187.208 66.9915 187.702 67.949C188.003 68.5583 188.003 68.6236 187.595 68.8412C186.757 69.2981 187.272 70.3427 188.153 69.9945C188.712 69.7769 189.464 70.7561 189.958 72.3446C190.387 73.6503 190.409 73.9984 190.194 74.6948C189.872 75.8046 189.893 76.7838 190.258 77.0885C190.43 77.2408 191.118 77.3061 191.998 77.2625C193.287 77.1973 193.524 77.1102 193.932 76.6097C194.168 76.2833 194.533 76.0222 194.748 76.0222C195.027 76.0222 195.113 75.8263 195.113 75.1518C195.113 74.0637 195.629 73.7373 196.231 74.4772C196.445 74.7601 196.617 75.13 196.617 75.3258C196.617 75.5217 196.875 75.9351 197.176 76.2615C197.605 76.7185 197.777 77.1755 197.906 78.2418C197.992 79.0034 198.228 80.0044 198.443 80.4831C198.68 81.0271 198.765 81.5929 198.68 82.0934C198.572 82.7462 198.658 82.9421 199.109 83.312C199.603 83.7254 199.646 83.8995 199.668 85.7274C199.711 87.49 199.754 87.7294 200.14 87.9035C200.763 88.1646 200.828 88.8392 200.291 89.2091C199.711 89.6226 199.689 90.7976 200.248 91.494C200.656 91.9945 200.656 92.0162 200.162 92.8867C199.818 93.496 199.646 94.1705 199.603 95.0627C199.56 96.3466 199.56 96.3684 200.119 96.3031C200.57 96.2596 200.957 96.5207 202.009 97.6087C202.718 98.3703 203.47 99.2625 203.642 99.6325C203.814 99.9806 204.222 100.546 204.523 100.895C204.974 101.373 205.124 101.809 205.275 103.179C205.382 104.093 205.447 105.094 205.447 105.377C205.425 105.66 205.704 106.204 206.048 106.596C206.392 106.988 206.886 107.967 207.144 108.772C207.509 109.86 207.745 110.273 208.175 110.469C208.497 110.622 209.163 111.144 209.657 111.644C210.173 112.145 211.032 112.689 211.59 112.885C212.493 113.189 212.643 113.189 213.094 112.906C213.459 112.667 213.588 112.362 213.588 111.797C213.588 111.057 213.374 110.73 212.213 109.795C211.934 109.577 211.87 109.055 211.87 107.183C211.87 105.181 211.784 104.703 211.354 103.723C211.053 103.114 210.581 102.44 210.302 102.244C210.001 102.048 209.722 101.7 209.657 101.482C209.593 101.221 209.356 101.047 209.12 101.047C208.841 101.047 208.604 100.829 208.476 100.416C208.304 99.9589 208.046 99.7195 207.423 99.5237C206.048 99.1102 205.683 98.8491 205.296 98.0222C205.103 97.587 204.652 96.7601 204.286 96.1943C203.943 95.6285 203.578 94.8451 203.513 94.4534C203.406 93.9747 203.212 93.7353 202.869 93.6483C202.503 93.5612 202.246 93.2348 201.966 92.495C201.494 91.2764 201.623 90.4495 202.525 88.7086C202.976 87.86 203.062 87.403 203.062 85.7927C203.062 84.0736 203.105 83.856 203.535 83.5514C203.792 83.3555 204.243 83.2032 204.501 83.2032C204.952 83.2032 204.995 83.2902 204.952 84.1171L204.888 85.0311L205.941 85.2052C206.671 85.314 207.165 85.5316 207.509 85.9015C207.788 86.2062 208.239 86.4673 208.518 86.4673C208.841 86.4673 209.099 86.6631 209.249 87.0113C209.378 87.3159 209.593 87.5553 209.722 87.5553C209.829 87.5553 209.936 87.947 209.936 88.4257C209.936 89.1221 210.022 89.2962 210.323 89.2962C210.538 89.2962 210.882 89.5791 211.075 89.949C211.376 90.4495 211.612 90.6018 212.149 90.6018C212.622 90.6236 213.094 90.8629 213.631 91.3417C214.405 92.0162 214.426 92.0815 214.19 92.8214C213.889 93.8441 214.125 95.1715 214.62 95.1715C215.114 95.1715 215.414 94.9322 215.715 94.3446C215.844 94.0835 216.102 93.8659 216.274 93.8659C216.66 93.8659 218.314 91.7551 218.314 91.2546C218.314 90.7106 218.701 90.4712 219.797 90.2972C221.086 90.1013 221.344 89.9272 222.375 88.5781C223.255 87.403 223.255 87.3595 223.298 85.5751C223.32 83.3555 223.105 82.1804 222.59 81.4841C222.353 81.2012 222.181 80.7225 222.181 80.4396C222.181 79.8303 221.709 78.8293 221.236 78.4376C221.043 78.2635 220.892 77.9154 220.892 77.6107C220.892 77.2408 220.678 76.9796 220.226 76.7185C219.861 76.5227 219.152 76.0222 218.658 75.6305C218.186 75.2388 217.541 74.7601 217.262 74.5425C216.102 73.672 215.522 72.9975 215.522 72.4534C215.522 72.04 215.414 71.8877 215.092 71.8877C214.856 71.8877 214.662 71.8006 214.662 71.6918C214.662 71.583 214.491 71.3219 214.297 71.126C214.104 70.9084 213.868 70.1686 213.76 69.4505C213.588 68.1884 213.61 68.1013 214.233 67.3832C214.684 66.8827 214.877 66.4257 214.877 65.9035C214.877 65.2724 214.963 65.1419 215.35 65.1419C215.608 65.1419 216.059 64.9025 216.36 64.6196C217.176 63.8797 218.658 63.3357 219.174 63.6186C219.389 63.7274 219.797 63.8145 220.076 63.7709C220.527 63.7274 220.57 63.7927 220.506 64.5326C220.441 65.3159 220.742 66.1864 221.193 66.491C221.58 66.7521 222.547 66.6869 222.804 66.3605C222.955 66.1864 222.998 65.6859 222.912 65.0766C222.718 63.6839 222.998 63.401 224.523 63.401C225.253 63.401 226.091 63.2269 226.671 62.9658C227.187 62.7264 227.724 62.5306 227.896 62.5306C228.046 62.5306 228.347 62.2912 228.54 61.9866C228.841 61.5296 228.991 61.4643 229.786 61.5731C230.731 61.7037 231.591 61.399 232.686 60.5504C232.966 60.311 233.524 60.1369 233.932 60.1369C234.491 60.1369 234.706 60.0281 234.835 59.6364C234.942 59.3753 235.522 58.7442 236.123 58.222C236.725 57.6997 237.219 57.1339 237.219 56.9599C237.219 56.7858 237.563 56.4376 237.971 56.1982C238.487 55.8718 238.723 55.5889 238.723 55.219C238.723 54.9144 238.938 54.5662 239.238 54.3704C239.733 54.0439 239.754 53.8916 239.775 51.9767C239.775 50.6493 239.883 49.7136 240.076 49.3219C240.248 48.9955 240.441 48.4297 240.527 48.1033C240.613 47.7334 240.871 47.4287 241.193 47.2981C241.473 47.1893 241.773 46.8629 241.816 46.6018C242.01 45.6008 242.16 43.2071 242.031 42.8807C241.945 42.6631 241.451 42.5108 240.42 42.402C238.787 42.2279 238.594 41.945 239.818 41.5316C240.377 41.3357 240.57 41.1399 240.613 40.6829C240.656 40.3565 240.592 39.9648 240.484 39.8343C240.377 39.6819 240.227 39.1379 240.141 38.6157C239.947 37.3535 239.668 36.853 239.131 36.853C238.1 36.853 237.004 35.9391 236.231 34.4376C235.243 32.5227 234.233 31.3694 233.159 30.8689C231.784 30.2596 231.784 30.1073 233.417 27.1913C233.803 26.4732 234.061 26.2991 234.856 26.1033C235.586 25.9292 235.887 25.7116 236.102 25.2546C236.553 24.2972 236.295 23.9272 235.307 24.1013C234.749 24.1884 234.255 24.1231 233.868 23.9055C232.708 23.2962 230.925 23.6008 230.71 24.4277C230.645 24.6889 230.452 24.8847 230.259 24.8847C229.829 24.8847 228.261 23.4703 228.089 22.9045C228.003 22.6216 227.745 22.491 227.316 22.491C226.542 22.491 224.759 21.1201 224.759 20.5326C224.759 20.2279 224.974 20.1626 226.091 20.1409C226.993 20.1191 227.509 20.0103 227.745 19.771C228.068 19.4445 228.068 19.401 227.724 19.1399C227.187 18.7482 227.23 18.5088 227.96 17.9648C228.304 17.7037 228.691 17.1814 228.819 16.7897C229.013 16.1804 229.228 16.0064 230.022 15.767C231.118 15.4406 231.419 15.5711 231.956 16.6157C232.214 17.1379 232.214 17.2685 231.827 17.9213C231.462 18.5088 231.419 18.7264 231.634 19.2487C231.784 19.5751 231.827 20.1409 231.741 20.5108C231.505 21.6641 232.257 21.3595 233.352 19.858C233.567 19.5533 234.212 19.1181 234.792 18.9005C235.694 18.5524 235.973 18.5306 237.434 18.77C238.315 18.9223 239.195 19.1399 239.389 19.2487C239.904 19.5098 240.055 20.3802 239.797 21.4683C239.625 22.1211 239.625 22.5781 239.775 22.9915C239.99 23.5791 240.055 23.6008 241.451 23.5573C243.277 23.492 244.179 23.862 244.265 24.7541C244.308 25.1023 244.244 25.4722 244.115 25.6028C243.685 26.038 243.857 26.7996 244.502 27.2566C245.146 27.7353 245.597 28.9975 245.597 30.3901C245.597 32.218 246.22 33.3713 247.208 33.3713C247.874 33.3713 248.025 33.1102 247.745 32.3921C247.251 31.0865 247.939 30.5642 250.431 30.3466C251.763 30.2378 251.956 30.1508 252.192 29.672C252.536 28.9104 252.235 27.6048 251.526 26.8649C251.226 26.5385 250.968 26.1251 250.968 25.951C250.968 25.7769 249.872 24.5365 248.54 23.1874C246.693 21.3377 245.962 20.7502 245.533 20.7502C244.91 20.7502 244.609 20.402 244.695 19.8145C244.738 19.5751 244.631 19.4445 244.33 19.4445C244.093 19.4445 243.771 19.2269 243.642 18.9658C243.428 18.5524 243.449 18.4436 243.879 18.1607C244.158 17.9648 244.695 17.5078 245.082 17.1161C245.941 16.311 246.048 15.3535 245.382 14.3308C244.867 13.5474 244.845 13.0034 245.296 12.8293C245.49 12.7423 245.597 12.5464 245.511 12.3723C245.447 12.1982 245.511 12.0459 245.662 12.0459C245.812 12.0459 246.027 11.7413 246.134 11.3496C246.263 10.9797 246.542 10.5444 246.779 10.3921C247.144 10.1528 247.337 10.1963 248.154 10.7403C249.679 11.7848 250.732 11.6107 252.386 10.0439C252.987 9.47817 253.052 9.30408 252.966 8.47718C252.88 7.84612 252.966 7.36739 253.181 7.01922C253.352 6.73633 253.567 6.1488 253.653 5.73534C253.718 5.32189 253.954 4.56027 254.126 4.03802C254.405 3.25463 254.427 2.8847 254.212 1.60082C253.868 -0.509956 253.911 -1.01045 254.448 -1.59799C254.835 -2.0332 254.878 -2.18552 254.663 -2.49017C254.534 -2.68602 254.104 -3.49117 253.761 -4.27455C253.395 -5.05793 252.772 -6.03716 252.386 -6.45061C251.505 -7.36456 251.075 -8.21322 250.732 -9.62766C250.56 -10.3893 250.237 -10.9333 249.593 -11.5644C249.12 -12.0431 248.39 -12.8918 248.025 -13.4793C247.595 -14.0886 247.165 -14.502 246.929 -14.502C246.693 -14.502 246.199 -14.7197 245.791 -15.0025C244.931 -15.5901 242.482 -16.417 241.752 -16.3735C241.258 -16.3517 241.021 -16.0906 240.785 -15.3289C240.613 -14.7197 239.947 -14.872 239.539 -15.5901C239.238 -16.1123 239.024 -16.2429 238.444 -16.2429C237.928 -16.2429 237.563 -16.417 237.112 -16.8957C236.532 -17.505 236.381 -17.5485 235.006 -17.5485C233.567 -17.5485 233.524 -17.5703 233.653 -18.049C233.717 -18.3102 233.782 -18.7018 233.782 -18.8977C233.782 -19.1371 234.083 -19.42 234.534 -19.594C235.092 -19.8334 235.286 -20.051 235.286 -20.4209C235.286 -20.7038 235.372 -21.052 235.479 -21.2261C235.608 -21.4219 235.586 -21.6831 235.458 -21.9007C235.135 -22.4012 235.393 -22.9887 235.93 -22.9887C236.209 -22.9887 236.36 -23.141 236.36 -23.4239C236.36 -23.6633 236.467 -24.0549 236.618 -24.2943C236.811 -24.6207 236.811 -24.8166 236.596 -25.23C236.36 -25.6653 236.381 -25.8828 236.725 -26.601L237.112 -27.4496H240.119C241.773 -27.4714 243.256 -27.5367 243.406 -27.6455C243.556 -27.7325 243.879 -27.7325 244.158 -27.6237C244.416 -27.5367 245.125 -27.4496 245.705 -27.4279C246.306 -27.4061 246.972 -27.3626 247.208 -27.3191C247.552 -27.2538 247.617 -27.3408 247.574 -27.689C247.552 -27.9501 247.66 -28.2765 247.831 -28.4071C248.111 -28.6465 248.304 -28.6029 248.906 -28.2112C249.529 -27.8413 249.851 -27.776 250.667 -27.9066C251.784 -28.0807 252.321 -27.7108 252.106 -26.9056C251.999 -26.5139 252.106 -26.4704 252.987 -26.4704C253.546 -26.4704 254.169 -26.5574 254.384 -26.6662C254.598 -26.7968 254.878 -26.7968 255.05 -26.688C255.264 -26.5574 255.501 -26.601 255.737 -26.8403C255.973 -27.0362 256.575 -27.1885 257.348 -27.2102C258.315 -27.232 258.616 -27.319 258.659 -27.6019C258.723 -27.9719 258.229 -28.146 256.553 -28.2548C255.909 -28.32 255.801 -28.4071 255.737 -28.9293C255.694 -29.2775 255.78 -29.691 255.952 -29.8868C256.124 -30.1044 256.21 -30.6919 256.145 -31.6059L256.081 -32.9986H257.133C257.692 -32.9768 258.723 -33.0421 259.389 -33.1292C260.592 -33.2597 260.613 -33.2379 261.516 -32.3675C262.031 -31.867 262.654 -31.4753 262.912 -31.4753C263.17 -31.4753 263.428 -31.323 263.514 -31.1489C263.707 -30.6049 264.48 -30.7572 264.76 -31.4318C264.91 -31.7582 265.189 -32.2587 265.404 -32.5416C265.941 -33.2597 265.898 -33.3685 264.931 -33.869C264.459 -34.1084 264.072 -34.3913 264.072 -34.5001C264.072 -34.7177 265.748 -35.0223 266.027 -34.8265C266.134 -34.7612 266.607 -34.1954 267.08 -33.5861C267.552 -32.9551 268.154 -32.1934 268.412 -31.867L268.884 -31.2577L268.39 -30.7355C267.789 -30.1044 267.531 -28.8858 267.509 -26.8403C267.509 -25.0124 267.273 -24.5119 266.435 -24.5119C265.726 -24.5119 265.683 -24.4467 266.006 -23.8591C266.135 -23.6198 266.263 -23.0105 266.285 -22.5099C266.371 -21.1608 267.896 -19.2676 270.99 -16.7652C272.386 -15.6336 273.739 -14.3715 273.997 -13.958C274.276 -13.5446 275.093 -12.87 275.866 -12.4348C276.661 -11.956 277.95 -10.8898 278.938 -9.84527C280.871 -7.82153 281.108 -7.84328 281 -10.0629C280.936 -11.1074 280.786 -11.5644 280.334 -12.1737C280.012 -12.6089 279.754 -13.0006 279.754 -13.0658C279.754 -13.1094 280.012 -13.1964 280.356 -13.2399C281.215 -13.327 281.28 -14.328 280.485 -15.1766C279.733 -15.9818 279.905 -16.417 281.086 -16.504C282.289 -16.5911 282.44 -17.1568 281.43 -17.6791C281.043 -17.8749 280.27 -18.4407 279.711 -18.9412C278.637 -19.8552 278.659 -20.1598 279.819 -20.1598C280.163 -20.1598 280.463 -20.3121 280.549 -20.508C280.721 -20.965 279.604 -21.8789 278.852 -21.9007C278.465 -21.9007 278.122 -22.1183 277.778 -22.5752C276.661 -24.0985 275.888 -24.7731 275.436 -24.6642C274.448 -24.4031 272.88 -25.4912 272.88 -26.4486C272.88 -26.7533 272.601 -27.2755 272.236 -27.6672C271.484 -28.4506 271.527 -29.234 272.321 -28.9729C273.417 -28.6029 273.847 -28.7335 274.062 -29.4734C274.319 -30.3655 274.985 -30.3655 275.415 -29.4734C275.802 -28.6465 276.21 -28.7117 276.682 -29.691C276.983 -30.3003 277.219 -30.5179 277.692 -30.5614C278.895 -30.7137 280.184 -30.3656 280.893 -29.7563C281.623 -29.1252 282.869 -28.7335 283.084 -29.0817C283.149 -29.1905 283.063 -29.5822 282.869 -29.9521C282.569 -30.5396 282.569 -30.6267 282.869 -30.7355C283.041 -30.8008 283.192 -31.1054 283.192 -31.41C283.192 -32.3022 283.578 -32.781 284.287 -32.781C284.76 -32.781 284.975 -32.9115 285.125 -33.3032C285.232 -33.6079 285.512 -33.9561 285.769 -34.0866C286.006 -34.2172 286.199 -34.5218 286.199 -34.7394C286.199 -35.1964 286.715 -35.327 286.951 -34.957C287.015 -34.8482 287.531 -34.7394 288.09 -34.7394C288.648 -34.7394 289.421 -34.6524 289.787 -34.5436C290.173 -34.4348 290.753 -34.413 291.076 -34.5001C291.656 -34.6524 291.548 -34.7612 288.777 -36.8502C285.34 -39.4397 278.723 -43.9877 273.632 -47.2518L269.98 -49.6019L267.509 -49.6237C265.512 -49.6455 264.889 -49.7325 264.287 -50.0589C263.471 -50.5159 261.774 -50.5594 259.647 -50.233C258.895 -50.1024 258.25 -50.146 257.627 -50.32C256.424 -50.69 254.126 -50.777 254.04 -50.4724C253.889 -50.0589 254.899 -49.5367 255.801 -49.5367C256.811 -49.5367 257.627 -49.0362 257.627 -48.4269C257.627 -47.8828 256.897 -47.8829 255.801 -48.4486C255.329 -48.688 254.577 -48.8838 254.126 -48.8838C253.675 -48.8838 252.923 -49.1014 252.45 -49.3843C251.72 -49.7978 251.612 -49.9283 251.741 -50.4506C251.849 -50.9729 251.806 -51.0381 251.462 -50.9076C251.247 -50.8423 250.796 -50.5377 250.474 -50.2548C249.743 -49.6672 249.7 -49.6672 245.941 -50.1024C243.75 -50.3636 242.826 -50.3853 242.332 -50.2112C241.967 -50.0807 241.043 -49.9719 240.313 -49.9719C239.067 -49.9719 238.873 -50.0372 238.143 -50.7117C236.983 -51.7345 236.703 -51.8433 233.975 -52.4308C230.71 -53.1489 226.65 -53.3448 225.361 -52.8878C224.244 -52.4743 222.89 -52.5831 221.537 -53.2142C221 -53.4536 220.226 -53.6712 219.818 -53.6712C219.41 -53.6712 218.508 -53.8235 217.842 -53.9758C217.176 -54.1499 216.574 -54.237 216.51 -54.1717C216.467 -54.1064 216.295 -54.1282 216.166 -54.2152C215.994 -54.324 215.994 -54.4546 216.188 -54.6722C216.317 -54.8463 216.403 -55.0203 216.36 -55.0639C216.317 -55.1291 215.543 -55.2597 214.641 -55.3903C213.76 -55.5208 212.858 -55.6732 212.665 -55.7602C212.385 -55.869 212.213 -55.6949 211.977 -55.1074C211.59 -54.1934 210.903 -53.9976 211.053 -54.868C211.225 -55.7384 210.753 -55.9343 208.261 -55.9996C206.993 -56.0431 204.909 -56.2172 203.599 -56.413C201.365 -56.7177 201.214 -56.7177 200.957 -56.3477C200.806 -56.1301 200.506 -55.9778 200.269 -56.0213C200.054 -56.0648 199.818 -55.9778 199.732 -55.8472C199.517 -55.4773 200.033 -54.9768 200.656 -54.9768C200.957 -54.9768 201.408 -54.7374 201.687 -54.411L202.203 -53.867L199.045 -53.9323C197.283 -53.9541 195.328 -53.9106 194.684 -53.8017C193.61 -53.6494 193.352 -53.6712 192.364 -54.1934C191.762 -54.4981 191.204 -54.7592 191.139 -54.7592C190.903 -54.7592 191.053 -54.2369 191.397 -53.8453C191.698 -53.4971 191.719 -53.41 191.44 -53.1272C190.989 -52.6702 188.239 -53.0401 187.466 -53.6494C187.143 -53.8888 186.735 -54.1064 186.563 -54.1064C186.37 -54.1064 185.597 -54.4328 184.823 -54.8245C183.663 -55.3903 183.169 -55.5208 182.074 -55.4991C180.398 -55.4773 180.054 -55.9125 181.365 -56.4348C182.632 -56.9353 182.439 -57.4358 180.935 -57.6098C180.291 -57.6751 179.582 -57.8057 179.388 -57.8927C179.195 -57.9798 178.787 -57.9145 178.465 -57.7622C177.992 -57.5011 177.67 -57.5228 175.93 -57.958C174.082 -58.4368 172.986 -58.4585 172.986 -58.0668C172.986 -57.8275 174.404 -57.1529 174.877 -57.1529C175.35 -57.1529 176.166 -56.5871 175.973 -56.413C175.908 -56.326 175.328 -56.413 174.684 -56.5653C174.039 -56.7394 172.235 -56.87 170.666 -56.8918C167.96 -56.9353 167.745 -56.9788 166.52 -57.5881C165.317 -58.1756 165.081 -58.2191 162.396 -58.2627C160.548 -58.2844 159.367 -58.2191 159.066 -58.0451C158.658 -57.8275 158.486 -57.871 157.863 -58.3497C157.046 -58.9808 156.81 -59.0243 156.445 -58.5673C156.08 -58.1103 155.306 -58.1539 154.662 -58.6761C153.953 -59.2419 152.148 -59.0678 152.148 -58.4368C152.148 -58.2409 152.32 -58.0015 152.535 -57.958C152.771 -57.8927 152.707 -57.8492 152.342 -57.8275C152.02 -57.8275 151.354 -57.6534 150.86 -57.4793C149.528 -57.0005 149.098 -57.0441 149.184 -57.6316C149.227 -57.9145 149.42 -58.1539 149.678 -58.1974C149.914 -58.2409 150.408 -58.5673 150.752 -58.9155C151.117 -59.2419 151.74 -59.6553 152.148 -59.8077C153.867 -60.3952 154.726 -61.2221 154.06 -61.6138C153.953 -61.7008 153.76 -62.0055 153.652 -62.2666C153.502 -62.6583 153.244 -62.8106 152.643 -62.9194C152.191 -62.9847 151.053 -63.2894 150.108 -63.5723C148.239 -64.1816 146.756 -64.2468 144.307 -63.8769C141.729 -63.4852 141.729 -63.4852 141.794 -64.2033C141.88 -64.8344 141.88 -64.8344 140.913 -64.7038C139.538 -64.508 138.4 -64.7474 138.206 -65.2696C138.056 -65.6613 137.798 -65.7048 135.757 -65.7919C133.652 -65.8789 133.48 -65.8571 133.265 -65.4437ZM106.649 1.60082C106.799 1.84019 107.035 2.03603 107.186 2.03603C107.336 2.03603 107.551 1.84019 107.68 1.60082C107.809 1.36146 108.045 1.16561 108.217 1.16561C108.603 1.16561 108.603 1.3397 108.217 2.03603C107.658 3.01527 107.809 3.90745 108.625 4.53851C109.635 5.30013 109.721 5.67007 109.055 6.27937C108.603 6.69282 108.518 6.95394 108.561 7.78085C108.603 8.32486 108.582 8.8036 108.518 8.84711C108.475 8.9124 108.023 8.99944 107.551 9.08648C106.842 9.19528 106.627 9.15176 106.52 8.86888C106.412 8.58599 106.176 8.54247 105.209 8.67303C104.049 8.8036 104.028 8.8036 104.028 8.25957C104.028 7.93317 103.856 7.60676 103.598 7.47619C103.19 7.25858 103.147 7.06274 103.211 5.45245L103.276 3.66808L103.899 3.60281C104.286 3.55928 104.543 3.36343 104.608 3.10231C104.672 2.8847 104.909 2.68886 105.145 2.68886C105.467 2.68886 105.531 2.58005 105.424 2.25364C105.274 1.75314 105.639 1.16561 106.09 1.16561C106.262 1.16561 106.498 1.36146 106.649 1.60082Z" fill="white"/>
<path d="M57.1424 21.3388C57.006 21.4957 56.6163 21.6331 56.2655 21.6331C55.564 21.6331 54.882 22.2414 55.0574 22.7124C55.1354 22.9086 55.4276 23.0067 55.9343 23.0067C57.3762 23.0067 59.0714 21.2603 57.8049 21.0837C57.5905 21.0444 57.2788 21.1622 57.1424 21.3388Z" fill="white"/>
<path d="M100.147 40.4321C99.8352 40.7853 99.8352 40.8246 100.127 41.06C100.517 41.3936 101.082 41.0993 101.082 40.5498C101.082 40.0396 100.556 39.9808 100.147 40.4321Z" fill="white"/>
<path d="M90.2676 41.7272C90.2676 41.8842 90.3455 42.0608 90.4429 42.1196C90.6378 42.257 90.8911 41.7468 90.7157 41.5702C90.5014 41.3543 90.2676 41.4524 90.2676 41.7272Z" fill="white"/>
<path d="M97.9254 71.986C97.789 72.0448 97.6721 72.2607 97.6721 72.4765C97.6721 72.7709 97.8085 72.8494 98.3541 72.8494C98.7243 72.8494 99.0361 72.7709 99.0361 72.6728C99.0361 72.5746 99.2505 72.4569 99.5232 72.4177C100.42 72.3195 100.127 71.9663 99.1335 71.9271C98.6074 71.9075 98.0423 71.9271 97.9254 71.986Z" fill="white"/>
</g>
<path d="M143.667 96L155.333 96C156.254 96 157 95.2965 157 94.4286L157 89.5795C157 89.1627 156.824 88.763 156.512 88.4683L153.321 85.4603C153.009 85.1656 152.585 85 152.143 85L143.667 85C142.746 85 142 85.7014 142 86.5692L142 94.4292C142 95.2971 142.746 96 143.667 96Z" fill="white"/>
<path d="M146.352 90.848C146.352 90.912 146.348 90.9787 146.34 91.048H144.792C144.803 91.1867 144.847 91.2933 144.924 91.368C145.004 91.44 145.101 91.476 145.216 91.476C145.387 91.476 145.505 91.404 145.572 91.26H146.3C146.263 91.4067 146.195 91.5387 146.096 91.656C146 91.7733 145.879 91.8653 145.732 91.932C145.585 91.9987 145.421 92.032 145.24 92.032C145.021 92.032 144.827 91.9853 144.656 91.892C144.485 91.7987 144.352 91.6653 144.256 91.492C144.16 91.3187 144.112 91.116 144.112 90.884C144.112 90.652 144.159 90.4493 144.252 90.276C144.348 90.1027 144.481 89.9693 144.652 89.876C144.823 89.7827 145.019 89.736 145.24 89.736C145.456 89.736 145.648 89.7813 145.816 89.872C145.984 89.9627 146.115 90.092 146.208 90.26C146.304 90.428 146.352 90.624 146.352 90.848ZM145.652 90.668C145.652 90.5507 145.612 90.4573 145.532 90.388C145.452 90.3187 145.352 90.284 145.232 90.284C145.117 90.284 145.02 90.3173 144.94 90.384C144.863 90.4507 144.815 90.5453 144.796 90.668H145.652ZM147.729 92.028C147.524 92.028 147.34 91.9947 147.177 91.928C147.014 91.8613 146.884 91.7627 146.785 91.632C146.689 91.5013 146.638 91.344 146.633 91.16H147.361C147.372 91.264 147.408 91.344 147.469 91.4C147.53 91.4533 147.61 91.48 147.709 91.48C147.81 91.48 147.89 91.4573 147.949 91.412C148.008 91.364 148.037 91.2987 148.037 91.216C148.037 91.1467 148.013 91.0893 147.965 91.044C147.92 90.9987 147.862 90.9613 147.793 90.932C147.726 90.9027 147.63 90.8693 147.505 90.832C147.324 90.776 147.176 90.72 147.061 90.664C146.946 90.608 146.848 90.5253 146.765 90.416C146.682 90.3067 146.641 90.164 146.641 89.988C146.641 89.7267 146.736 89.5227 146.925 89.376C147.114 89.2267 147.361 89.152 147.665 89.152C147.974 89.152 148.224 89.2267 148.413 89.376C148.602 89.5227 148.704 89.728 148.717 89.992H147.977C147.972 89.9013 147.938 89.8307 147.877 89.78C147.816 89.7267 147.737 89.7 147.641 89.7C147.558 89.7 147.492 89.7227 147.441 89.768C147.39 89.8107 147.365 89.8733 147.365 89.956C147.365 90.0467 147.408 90.1173 147.493 90.168C147.578 90.2187 147.712 90.2733 147.893 90.332C148.074 90.3933 148.221 90.452 148.333 90.508C148.448 90.564 148.546 90.6453 148.629 90.752C148.712 90.8587 148.753 90.996 148.753 91.164C148.753 91.324 148.712 91.4693 148.629 91.6C148.549 91.7307 148.432 91.8347 148.277 91.912C148.122 91.9893 147.94 92.028 147.729 92.028ZM149.858 89.192V92H149.174V89.192H149.858ZM153.533 89.192V92H152.849V90.316L152.221 92H151.669L151.037 90.312V92H150.353V89.192H151.161L151.949 91.136L152.729 89.192H153.533Z" fill="url(#paint1_linear_1246_4322)"/>
<defs>
<linearGradient id="paint0_linear_1246_4322" x1="0" y1="0" x2="92.535" y2="148.236" gradientUnits="userSpaceOnUse">
<stop stop-color="#8C7CF3"/>
<stop offset="1" stop-color="#F1716A"/>
</linearGradient>
<linearGradient id="paint1_linear_1246_4322" x1="144" y1="91" x2="154" y2="91" gradientUnits="userSpaceOnUse">
<stop stop-color="#907CEF"/>
<stop offset="1" stop-color="#F0827F"/>
</linearGradient>
</defs>
</svg>
