<svg width="165" height="103" viewBox="0 0 165 103" fill="none" xmlns="http://www.w3.org/2000/svg">
<g clip-path="url(#clip0_1246_3518)">
<rect width="165" height="103" rx="8" fill="url(#paint0_linear_1246_3518)"/>
<g clip-path="url(#clip1_1246_3518)">
<path d="M136.742 12.1051C135.828 12.1472 135.178 12.2208 135.026 12.3049C134.833 12.4205 134.68 12.4205 134.264 12.3259C133.878 12.2313 133.472 12.2313 132.629 12.3154C132.019 12.3785 131.044 12.431 130.476 12.431C129.541 12.431 129.409 12.4521 129.064 12.7044C128.698 12.9566 128.668 12.9566 128.404 12.799C127.977 12.5361 127.642 12.5887 127.398 12.9461C127.134 13.3246 127.033 13.3351 126.423 12.9987C125.804 12.6623 125.662 12.6728 125.418 13.0828C125.164 13.5033 124.92 13.5559 124.544 13.272C124.311 13.0933 124.219 13.0723 124.067 13.1669C123.915 13.272 123.823 13.251 123.58 13.0618C123.295 12.8515 123.234 12.841 121.863 12.9356C120.594 13.0302 120.34 13.0828 119.476 13.4297C118.573 13.7871 118.43 13.8187 117.293 13.8397C115.973 13.8607 114.845 14.0499 114.764 14.2602C114.744 14.3338 114.784 14.523 114.866 14.6807C114.947 14.8384 115.008 14.975 115.008 14.9961C115.008 15.0802 114.043 15.2589 113.626 15.2589C112.987 15.2589 110.001 15.6794 109.899 15.7845C109.848 15.8266 109.838 15.9632 109.879 16.0789C109.94 16.2891 110.011 16.2996 111.494 16.2891C112.337 16.2786 113.098 16.3101 113.18 16.3627C113.271 16.4258 113.007 16.5309 112.387 16.6886C111.534 16.9093 111.412 16.9199 111.037 16.7832C110.498 16.5835 110.011 16.6781 110.051 16.9829C110.082 17.1722 110.143 17.2037 110.509 17.1722C110.945 17.1301 110.945 17.1301 110.884 17.4455C110.823 17.7398 110.844 17.7503 111.25 17.8239C111.565 17.8765 111.748 17.845 111.92 17.7293C112.245 17.5191 112.733 17.5296 112.875 17.7503C112.966 17.9185 112.997 17.908 113.23 17.6242C113.464 17.3404 113.505 17.3298 113.596 17.4875C113.728 17.7398 114.002 17.7293 114.327 17.4665C114.642 17.2142 114.825 17.1932 114.784 17.4245C114.754 17.5716 114.866 17.6032 115.424 17.6137C115.891 17.6242 116.166 17.6768 116.287 17.7924C116.399 17.887 116.612 17.9921 116.765 18.0342C116.988 18.0867 117.039 18.1603 117.019 18.339C116.998 18.5178 117.049 18.5808 117.252 18.6019C117.476 18.6334 117.526 18.707 117.638 19.2326C117.791 19.9369 117.669 20.6097 117.283 21.3141C116.927 21.9343 116.958 22.1235 117.374 22.0394C117.547 22.0079 117.821 21.9238 117.963 21.8712C118.176 21.7871 118.309 21.8187 118.694 22.0605C119.233 22.3969 119.314 22.523 119.121 22.7858C118.999 22.9645 118.969 22.9645 118.603 22.7963C118.085 22.5651 117.293 22.5125 117.293 22.7122C117.293 22.7963 117.486 22.912 117.75 22.975C118.928 23.2904 119.314 23.7004 119.019 24.2891C118.857 24.6255 118.857 24.6255 118.268 24.5519C117.709 24.4888 117.669 24.4994 117.354 24.8147C117.181 24.9934 116.988 25.1406 116.937 25.1406C116.897 25.1406 116.714 25.2668 116.541 25.4139C116.155 25.7398 116.094 26.2865 116.43 26.3706C116.653 26.4337 116.704 26.6124 116.501 26.6124C116.318 26.6124 116.023 26.9593 116.023 27.1695C116.023 27.2641 116.145 27.4534 116.298 27.6005C116.572 27.8634 116.572 27.8739 116.46 28.5677C116.318 29.3877 116.44 29.8397 116.876 30.134C117.09 30.2812 117.11 30.3443 117.009 30.502C116.917 30.6702 116.927 30.7543 117.1 30.9961C117.222 31.1538 117.364 31.4691 117.435 31.6899C117.506 31.9001 117.648 32.1314 117.75 32.184C118.034 32.3417 118.928 32.3101 119.06 32.1419C119.162 32.0158 119.243 32.0263 119.578 32.226C119.883 32.3942 119.994 32.5309 120.045 32.7832C120.116 33.1616 120.198 33.2142 120.391 32.9724C120.492 32.8463 120.634 32.8252 120.939 32.8673C121.345 32.9304 121.366 32.9199 121.833 32.3206C122.097 31.9842 122.422 31.6058 122.534 31.4796C122.706 31.3009 122.747 31.1748 122.696 30.8804C122.635 30.502 122.838 30.1551 122.98 30.3969C123.092 30.5756 123.224 30.5125 123.387 30.1866C123.478 30.0079 123.62 29.8712 123.722 29.8712C123.996 29.8712 124.351 29.5664 124.351 29.3351C124.351 29.209 124.28 29.1354 124.148 29.1354C123.834 29.1354 123.905 28.9251 124.24 28.862C124.514 28.799 124.534 28.7674 124.484 28.4415C124.423 28.0841 124.423 28.0841 124.839 28.0841C125.083 28.0841 125.266 28.0316 125.296 27.9369C125.326 27.8528 125.601 27.7687 125.987 27.7267C126.759 27.6321 126.972 27.527 127.012 27.2221C127.033 27.0854 127.124 26.9698 127.226 26.9488C127.378 26.9172 127.409 26.9488 127.348 27.138C127.287 27.3482 127.307 27.3588 127.825 27.3272C128.221 27.3062 128.363 27.2536 128.363 27.138C128.363 27.0224 128.485 26.9803 128.8 26.9593C129.318 26.9383 129.531 26.8121 130.262 26.0447C130.628 25.6662 130.923 25.456 131.116 25.435C131.369 25.4139 131.41 25.3509 131.441 25.0565C131.481 24.6465 131.522 24.6465 131.877 24.9934C132.151 25.2668 132.151 25.2668 132.69 25.0986C132.994 25.0145 133.634 24.8988 134.122 24.8358C134.691 24.7727 135.178 24.636 135.493 24.4783C135.93 24.2471 136.701 23.9212 138.093 23.4061C138.591 23.2273 138.682 23.1012 138.408 22.9961C138.113 22.8804 135.889 23.0591 135.645 23.2168C135.513 23.3009 135.33 23.343 135.249 23.3114C134.995 23.2063 135.381 22.8489 135.818 22.7753C136.478 22.6597 136.641 22.544 136.641 22.1971C136.641 21.8817 136.661 21.8712 137.016 21.9028C137.311 21.9238 137.423 21.9974 137.555 22.2497C137.697 22.5125 137.788 22.5651 138.123 22.5756C138.337 22.5756 138.601 22.6176 138.692 22.6597C139.058 22.8279 139.23 22.6912 139.22 22.2497C139.21 21.8817 139.18 21.8292 138.987 21.8607C138.834 21.8817 138.773 21.8397 138.773 21.682C138.773 21.4402 138.591 21.2931 138.337 21.3351C138.235 21.3561 138.042 21.3036 137.92 21.209C137.676 21.0513 137.291 20.3364 137.392 20.2313C137.443 20.1682 137.839 20.2839 138.865 20.6728C139.139 20.7779 139.352 20.799 139.403 20.7464C139.464 20.6833 139.464 20.6203 139.393 20.5782C139.037 20.3469 139.667 19.7898 140.297 19.7687C140.49 19.7687 140.855 19.6846 141.109 19.569C141.505 19.4008 141.566 19.3482 141.536 19.0959L141.505 18.8121L142.054 18.8857C142.48 18.9383 142.623 18.9172 142.724 18.7911C142.887 18.5808 142.785 18.4126 142.491 18.4126C142.359 18.4126 142.196 18.339 142.125 18.2444C142.013 18.1078 142.023 18.0762 142.196 18.0342C142.359 17.9921 142.399 17.8975 142.389 17.5927C142.379 17.2668 142.419 17.2037 142.612 17.1722C142.765 17.1511 142.836 17.0775 142.816 16.9619C142.795 16.8252 142.653 16.7727 142.298 16.7517C142.034 16.7306 141.82 16.6781 141.82 16.615C141.82 16.5624 141.861 16.5204 141.912 16.5204C141.973 16.5204 142.226 16.3312 142.48 16.0999C142.734 15.8686 143.019 15.6794 143.1 15.6794C143.303 15.6794 143.273 15.4691 143.029 15.1958C142.775 14.912 142.866 14.6912 143.201 14.7648C143.334 14.7858 143.496 14.7438 143.557 14.6702C143.618 14.5861 143.78 14.523 143.912 14.523C144.034 14.523 144.217 14.4494 144.298 14.3548C144.41 14.2392 144.552 14.2076 144.755 14.2602C144.969 14.3022 145.111 14.2602 145.334 14.071C145.537 13.8923 145.822 13.7976 146.238 13.7451C146.909 13.6715 147.173 13.5138 146.787 13.4297C145.517 13.1564 144.826 13.1248 144.298 13.3036C144.024 13.3877 143.496 13.4823 143.13 13.5033C142.663 13.5243 142.399 13.5979 142.277 13.7135C142.186 13.8082 142.034 13.8923 141.932 13.8923C141.841 13.8923 141.516 13.9869 141.211 14.092C140.906 14.2076 140.622 14.2707 140.581 14.2497C140.419 14.1446 140.51 14.0184 140.886 13.8397C141.231 13.661 141.404 13.5033 141.414 13.3666C141.414 13.3351 140.977 13.3246 140.449 13.3456C139.505 13.3877 139.312 13.3246 139.616 13.0723C139.687 13.0092 140.205 12.9356 140.754 12.9251C141.404 12.9041 141.769 12.8515 141.79 12.7674C141.82 12.6938 141.658 12.6203 141.343 12.5782C140.307 12.4415 139.515 12.2944 139.088 12.1472C138.834 12.0631 138.54 12.0105 138.428 12.021C138.306 12.0316 137.555 12.0631 136.742 12.1051Z" fill="white"/>
<path d="M111.524 12.3889C111.473 12.431 110.529 12.473 109.412 12.4836L107.38 12.5046L107.137 12.7779C106.883 13.0617 106.538 13.1353 106.426 12.9461C106.345 12.8094 105.451 12.9041 104.943 13.1038C104.699 13.1984 103.998 13.2615 102.932 13.2825C102.038 13.293 101.297 13.3351 101.297 13.3771C101.297 13.4192 101.439 13.5874 101.602 13.7556L101.906 14.0604L103.694 14.0815C104.679 14.1025 105.532 14.134 105.583 14.1656C105.634 14.1971 105.623 14.2917 105.552 14.3758C105.41 14.5545 103.826 14.5861 103.511 14.4073C103.348 14.3127 103.257 14.3443 103.034 14.5545C102.891 14.6912 102.638 14.8489 102.465 14.8804C102.17 14.954 102.17 14.954 102.353 14.7437C102.546 14.523 102.516 14.2076 102.292 14.2076C102.231 14.2076 102.069 14.3127 101.937 14.4389L101.693 14.6702L101.632 14.4389C101.591 14.2602 101.5 14.2076 101.236 14.2076C100.962 14.2076 100.87 14.155 100.789 13.9553C100.738 13.7976 100.566 13.6504 100.352 13.5874C100.048 13.4822 99.8852 13.5033 99.1336 13.7766C98.6563 13.9448 98.1789 14.134 98.0672 14.1971C97.9555 14.2602 97.7016 14.3127 97.5086 14.3127C97.0313 14.3127 96.6352 14.6491 96.7875 14.9119C96.9399 15.1642 97.9453 15.3009 98.5242 15.1537C98.7578 15.1012 99.032 15.0486 99.1336 15.0486C99.2961 15.0486 99.2961 15.0591 99.1438 15.2168C99.0219 15.343 98.768 15.3955 98.1586 15.406C97.4477 15.4165 97.3359 15.4376 97.3359 15.5953C97.3359 15.8896 97.7422 16.0683 98.5649 16.1419C99.2555 16.205 99.3469 16.184 99.5195 15.9947C99.6211 15.8791 99.8039 15.7845 99.9156 15.7845C100.038 15.7845 100.464 15.6899 100.87 15.5742C101.266 15.4586 101.795 15.364 102.038 15.364C102.658 15.364 103.115 15.1748 103.186 14.9014C103.237 14.6912 103.277 14.7122 103.745 15.1748C104.019 15.4586 104.242 15.6899 104.242 15.7109C104.242 15.7214 103.582 15.7214 102.77 15.7004L101.307 15.6583L101.063 15.9317C100.911 16.0999 100.708 16.205 100.525 16.205C100.17 16.205 100.027 16.2996 99.9359 16.5729C99.8953 16.7411 99.7836 16.7937 99.4992 16.8042C98.9609 16.8357 98.0063 17.2037 97.9656 17.4034C97.9149 17.6662 98.2195 17.7188 99.0625 17.5821C99.6414 17.477 99.9055 17.477 100.058 17.5611C100.21 17.6452 100.352 17.6347 100.647 17.5085C100.962 17.3719 101.104 17.3614 101.419 17.456C101.723 17.5506 101.906 17.5506 102.292 17.4244C102.83 17.2667 103.176 17.3508 102.942 17.5926C102.881 17.6557 102.82 17.7819 102.82 17.866C102.82 18.0236 102.861 18.0236 103.836 17.7293C104.141 17.6347 104.648 17.5296 104.953 17.4875C105.451 17.4244 105.512 17.3824 105.542 17.1511C105.593 16.8147 105.745 16.6255 105.969 16.6255C106.06 16.6255 106.223 16.5309 106.334 16.4047C106.456 16.2681 106.609 16.205 106.761 16.2365C106.903 16.2681 107.157 16.247 107.33 16.205C107.502 16.1524 107.766 16.0893 107.929 16.0578C108.112 16.0158 108.203 15.9211 108.203 15.7845C108.203 15.6688 108.315 15.5006 108.447 15.4165C108.579 15.3219 108.813 15.0591 108.955 14.8384C109.28 14.3338 109.595 14.2917 110.316 14.6702C110.702 14.8699 110.895 14.9119 111.352 14.8699C111.677 14.8384 111.991 14.7332 112.113 14.6281C112.255 14.502 112.55 14.4284 113.027 14.3968C113.474 14.3653 113.901 14.2602 114.165 14.113C114.398 13.9974 114.734 13.8922 114.896 13.8922C115.333 13.8922 115.516 13.7976 115.516 13.5663C115.516 13.3666 115.597 13.3561 117.049 13.3771C118.004 13.3876 118.623 13.3456 118.684 13.2825C118.888 13.0723 118.684 12.8515 118.238 12.7989C117.994 12.7674 117.415 12.6938 116.938 12.6202C116.46 12.5571 115.16 12.4836 114.043 12.473C112.926 12.4625 111.92 12.4205 111.809 12.3784C111.697 12.3364 111.565 12.3364 111.524 12.3889Z" fill="white"/>
<path d="M90.4602 15.4271C90.2773 15.6373 90.125 15.8581 90.125 15.9001C90.125 16.0683 90.582 16.1104 91.1914 16.0158C91.882 15.9001 92.1258 15.9842 92.2172 16.3627C92.2477 16.5099 92.2883 16.6255 92.3086 16.6255C92.3898 16.6255 93.2836 16.0683 93.3344 15.9842C93.3648 15.9212 93.3242 15.774 93.2531 15.6583C93.0906 15.406 92.2883 15.1643 91.3438 15.0907C90.8055 15.0381 90.775 15.0486 90.4602 15.4271Z" fill="white"/>
<path d="M86.2453 15.5112C86.1438 15.5848 86.0625 15.7109 86.0625 15.795C86.0625 15.9107 86.2352 15.9422 86.8547 15.9317C87.9414 15.9107 87.9109 15.9212 87.8703 15.6479C87.8398 15.4376 87.7789 15.4166 87.1289 15.3956C86.6516 15.3745 86.357 15.4166 86.2453 15.5112Z" fill="white"/>
<path d="M94.3907 15.732C94.1571 16.0158 94.4516 16.184 95.2336 16.2155C96.4422 16.2576 96.4219 15.753 95.2032 15.6268C94.6446 15.5638 94.5126 15.5848 94.3907 15.732Z" fill="white"/>
<path d="M84.1125 16.0683C84.0109 16.0894 83.9297 16.205 83.9297 16.3206C83.9297 16.4678 84.0008 16.5204 84.1836 16.5204C84.4883 16.5204 85.0469 16.2471 85.0469 16.0999C85.0469 15.9948 84.4477 15.9737 84.1125 16.0683Z" fill="white"/>
<path d="M86.3672 16.0999C86.2859 16.1524 85.9812 16.205 85.707 16.205C85.1891 16.205 84.7422 16.4152 84.7422 16.6675C84.7422 16.8463 85.9305 16.7622 86.2352 16.5624C86.357 16.4783 86.5805 16.4152 86.7227 16.4152C87.007 16.4152 87.0781 16.1629 86.8141 16.0578C86.6008 15.9737 86.55 15.9842 86.3672 16.0999Z" fill="white"/>
<path d="M88.6422 16.4677C88.5102 16.6675 88.5001 16.7621 88.5915 16.8777C88.8352 17.1826 89.2008 16.8567 89.211 16.3311C89.211 16.0998 88.8149 16.1944 88.6422 16.4677Z" fill="white"/>
<path d="M81.5938 16.5098C81.4516 16.5624 81.0453 16.657 80.6898 16.72C80.1414 16.8357 80.0297 16.8252 79.8773 16.6885C79.6437 16.4677 79.5016 16.4783 79.3391 16.7095C79.2273 16.8672 77.4195 17.4664 76.668 17.5926C76.5461 17.6136 76.4648 17.7082 76.4648 17.8239C76.4648 17.9921 76.5664 18.0236 77.2164 18.0551C77.7648 18.0867 78.0289 18.0551 78.2016 17.9395C78.3336 17.8554 78.557 17.7818 78.7094 17.7818C78.8617 17.7818 79.1562 17.7292 79.3695 17.6662C79.6742 17.5716 79.7961 17.5716 79.9078 17.6662C80.0398 17.7818 80.1211 17.7608 80.3648 17.5821C80.5273 17.4559 80.7914 17.3613 80.9539 17.3613C81.1062 17.3613 81.3805 17.2667 81.543 17.1511C81.7156 17.0354 81.9492 16.9408 82.0711 16.9408C82.3758 16.9408 82.4773 16.7306 82.2539 16.5518C82.0406 16.3942 81.9594 16.3942 81.5938 16.5098Z" fill="white"/>
<path d="M94.7969 16.5624C94.7969 16.7621 95.0305 16.8252 95.7414 16.8147C96.2289 16.8147 96.3203 16.7832 96.3 16.636C96.2594 16.3942 94.7969 16.3206 94.7969 16.5624Z" fill="white"/>
<path d="M97.6609 16.5308C97.2241 16.6675 97.2952 16.8987 97.7523 16.8672C98.321 16.8146 98.5546 16.7305 98.5546 16.5728C98.5546 16.3941 98.189 16.3731 97.6609 16.5308Z" fill="white"/>
<path d="M93.5578 17.1195C93.2429 17.2036 93.3648 17.4559 93.7711 17.5716C93.9945 17.6346 94.4211 17.6557 94.7156 17.6136C95.1625 17.561 95.2843 17.5821 95.4062 17.7292C95.5586 17.9185 95.5687 17.9185 94.8883 18.4231C94.5734 18.6543 94.6953 18.9382 95.1117 18.9382C95.2945 18.9382 95.5281 19.0223 95.6297 19.1169C95.8023 19.2746 95.8429 19.2746 96.1781 19.1169C96.6656 18.8751 96.8586 18.8856 96.7773 19.1484C96.6961 19.4112 96.8789 19.4218 97.6914 19.1695C98.514 18.9172 100.129 18.9277 100.515 19.201C100.87 19.4428 102.15 19.3797 102.526 19.1169C102.658 19.0118 102.841 18.9382 102.942 18.9382C103.064 18.9382 103.125 18.8541 103.125 18.6964C103.125 18.0551 102.18 17.7923 100.759 18.0446C100.271 18.1287 99.7429 18.2023 99.5804 18.2023C99.4078 18.2023 99.2453 18.2444 99.2148 18.3074C99.1234 18.4651 98.514 18.4336 98.2906 18.2549C98.0367 18.0551 97.7422 18.0551 97.4679 18.2549C97.275 18.402 97.2547 18.3915 97.214 18.1497C97.1836 18.0131 97.2242 17.8344 97.3054 17.7503C97.4273 17.6241 97.3867 17.5821 97.0414 17.4139C96.8078 17.3087 96.5133 17.2562 96.3609 17.2877C96.2086 17.3193 95.8734 17.2772 95.6195 17.1931C95.1828 17.0565 93.9437 17.0144 93.5578 17.1195Z" fill="white"/>
<path d="M84.6203 17.3193C84.2953 17.498 84.2953 17.5086 84.4578 17.7714C84.6304 18.0552 84.4882 18.3075 84.1632 18.3075C83.6757 18.297 82.8937 18.0342 82.7515 17.8344C82.5586 17.5611 81.0859 17.477 80.7304 17.7188C80.5984 17.8134 80.3953 17.887 80.2937 17.887C80.1922 17.887 79.9992 17.9711 79.8875 18.0867C79.7656 18.1919 79.5625 18.2549 79.4406 18.2339C79.1562 18.1814 78.5164 18.5808 78.5773 18.7595C78.5976 18.8331 78.689 18.8647 78.7601 18.8436C78.8414 18.8121 79.0343 18.7911 79.1867 18.7911C79.339 18.7806 79.5015 18.728 79.5422 18.6649C79.5828 18.6019 79.9484 18.5493 80.3547 18.5388C80.9234 18.5283 81.0859 18.5598 81.0859 18.6754C81.0859 18.8542 80.7507 18.9593 80.375 18.9172C80.2125 18.8962 80.1211 18.9488 80.0906 19.0644C80.0398 19.3167 80.5172 19.4218 81.0554 19.2747C81.2992 19.2011 81.6242 19.1485 81.7765 19.1485C81.9289 19.1485 82.3757 19.0539 82.7617 18.9383C83.2593 18.7911 83.7773 18.728 84.4679 18.728C86.1234 18.728 87.2203 18.2865 86.7531 17.8029C86.5804 17.6242 86.3976 17.6452 86.0625 17.908C85.6664 18.2129 85.4531 18.0447 85.707 17.6452C85.7984 17.4875 85.8492 17.3193 85.8086 17.2563C85.7172 17.0986 84.9351 17.1301 84.6203 17.3193Z" fill="white"/>
<path d="M90.3382 17.3719C89.8203 17.5822 89.4343 18.1814 89.7085 18.3496C89.7593 18.3811 89.7796 18.4967 89.7593 18.6019C89.7187 18.749 89.7898 18.7806 90.2671 18.8121C90.714 18.8331 90.9375 18.7806 91.425 18.5178C92.1054 18.1603 92.5625 17.7609 92.5625 17.5191C92.5625 17.2773 92.3085 17.2142 92.0242 17.4034C91.8007 17.5611 91.7601 17.5611 91.6484 17.414C91.5062 17.2352 90.7343 17.2037 90.3382 17.3719Z" fill="white"/>
<path d="M88.0938 17.519C88.0938 17.6136 88.1648 17.7082 88.2461 17.7397C88.3273 17.7818 88.3984 17.8974 88.3984 18.0026C88.3984 18.2654 88.6219 18.36 88.8961 18.2128C89.0992 18.0972 89.1297 17.7608 88.9672 17.4874C88.8555 17.2982 88.0938 17.3192 88.0938 17.519Z" fill="white"/>
<path d="M86.8954 18.4336C86.6516 18.6859 86.7532 18.8646 87.0985 18.791C87.4337 18.728 87.6876 18.5493 87.6876 18.4021C87.6876 18.2654 87.0376 18.2864 86.8954 18.4336Z" fill="white"/>
<path d="M92.3391 18.5282C92.0953 18.6754 92.1055 18.9067 92.3695 19.0538C92.6641 19.2115 93.4867 19.1064 93.6289 18.8961C93.7 18.8015 93.832 18.728 93.9336 18.728C94.0758 18.728 94.0859 18.6964 93.9844 18.5703C93.832 18.381 92.6234 18.3495 92.3391 18.5282Z" fill="white"/>
<path d="M73.0726 19.3482C72.9609 19.4638 72.8593 19.6635 72.8593 19.7687C72.8593 19.9158 72.7476 20.0105 72.4835 20.0946C72.2702 20.1681 71.7421 20.431 71.3155 20.6833C70.8788 20.9461 70.3812 21.1773 70.2187 21.2194C69.8124 21.293 69.7616 21.4191 70.0155 21.6399C70.1273 21.745 70.2187 21.9027 70.2187 21.9973C70.2187 22.3863 70.4929 22.4493 71.1226 22.2076C71.4476 22.0919 71.9148 21.9868 72.1687 21.9868C72.5038 21.9868 72.6765 21.9237 72.8187 21.766C73.0827 21.4612 73.5296 21.2404 73.7124 21.314C73.8038 21.3455 74.0882 21.2404 74.3523 21.0617C74.6265 20.8935 75.0429 20.7148 75.2968 20.6727C75.5507 20.6412 75.957 20.5466 76.2109 20.4625C76.4648 20.3889 76.9218 20.2943 77.2265 20.2522C78.1609 20.1471 78.2827 19.9053 77.5921 19.5164C77.2773 19.3377 77.1757 19.3271 76.7695 19.4428C76.1601 19.611 75.896 19.6005 75.6218 19.4007C75.4695 19.2956 75.053 19.222 74.3421 19.18C73.3671 19.1274 73.2757 19.1379 73.0726 19.3482Z" fill="white"/>
<path d="M92.6641 19.6741C92.3492 19.7161 92.0039 19.8002 91.882 19.8633C91.7602 19.9369 91.5469 19.9895 91.4047 19.9895C91.2422 19.9895 91.1406 20.0525 91.1406 20.1366C91.1406 20.2207 91.0289 20.3154 90.8867 20.3469C90.5516 20.431 90.318 21.1774 90.5414 21.4087C90.7445 21.6189 91.3234 21.4507 91.5977 21.1038C91.8414 20.7989 91.9734 20.7674 92.5016 20.883C92.857 20.9566 92.9992 20.9146 93.6695 20.5677C94.0961 20.3469 94.5531 20.1156 94.6953 20.0525C94.8375 19.979 94.9492 19.8633 94.9492 19.7792C94.9492 19.6531 94.7766 19.6215 94.0859 19.611C93.6086 19.611 92.9688 19.632 92.6641 19.6741Z" fill="white"/>
<path d="M97.2344 19.7792C97.0922 19.8213 96.4524 20.042 95.8125 20.2523C94.736 20.5992 94.6039 20.6728 94.0555 21.2089C93.4664 21.8081 93.4055 21.9868 93.8219 21.9868C94.1063 21.9868 94.7055 22.1866 94.8477 22.3337C94.9188 22.3968 94.6852 22.4073 94.1875 22.3653C93.5985 22.3127 93.375 22.3337 93.2227 22.4494C93.0297 22.5966 93.0297 22.6071 93.2735 22.8173C93.4664 22.975 93.6695 23.0276 94.1469 23.0381C94.482 23.0381 94.7969 23.0801 94.8578 23.1327C94.9086 23.1853 95.2945 23.2483 95.711 23.2799C96.1274 23.3009 96.818 23.385 97.2344 23.4691C97.6508 23.5532 98.2906 23.6058 98.6563 23.6058C99.4078 23.5847 100.098 23.3324 100.017 23.1012C99.9867 23.0171 100.017 22.9224 100.078 22.8804C100.149 22.8383 100.373 23.0065 100.627 23.3114C100.86 23.5847 101.216 23.8686 101.409 23.9422L101.754 24.0683L101.439 24.0788C101.053 24.0893 100.627 24.4152 100.708 24.6255C100.779 24.8252 101.591 24.7621 101.673 24.5519C101.734 24.3837 101.977 24.3521 102.028 24.5098C102.048 24.5624 102.262 24.7201 102.516 24.8567C102.963 25.0985 102.973 25.1196 102.973 25.6242C102.973 26.0341 102.942 26.1393 102.8 26.1393C102.709 26.1393 102.546 26.2234 102.445 26.3285C102.333 26.4231 102.13 26.5072 101.988 26.5072C101.845 26.5072 101.703 26.5703 101.673 26.6544C101.642 26.7385 101.449 26.8646 101.256 26.9382C100.891 27.0749 100.789 27.3061 101.002 27.5269C101.165 27.6951 101.023 27.7477 100.18 27.8738C99.5906 27.9579 99.3672 27.9474 99.0016 27.8213C98.4125 27.6215 98.3211 27.6215 98.1078 27.8633C98.0063 27.9789 97.7828 28.0841 97.6 28.1051C97.3258 28.1366 97.275 28.1787 97.2344 28.5046C97.1227 29.1984 97.275 29.2615 98.3211 28.9671C98.6461 28.883 99.3367 28.7989 99.8445 28.7884C100.667 28.7674 100.779 28.7884 100.738 28.9356C100.677 29.1353 100.87 29.3351 101.256 29.4402C101.612 29.5348 101.683 29.7345 101.378 29.7871C101.236 29.8081 101.134 29.9027 101.114 30.0394C101.094 30.2181 101.145 30.2602 101.419 30.2602C102.018 30.2812 102.404 30.4073 102.465 30.6176C102.536 30.8278 102.668 30.8699 103.43 30.9645C103.673 30.9855 103.927 31.0906 103.998 31.1747C104.141 31.3745 104.547 31.3955 104.791 31.2063C104.963 31.0696 104.963 31.0486 104.811 30.7332C104.72 30.544 104.598 30.3968 104.547 30.3968C104.374 30.3968 103.531 29.724 103.531 29.5874C103.531 29.4297 103.795 29.3981 103.887 29.5558C103.917 29.6084 104.08 29.6609 104.232 29.6609C104.445 29.6609 104.598 29.7556 104.791 30.0184C104.973 30.2707 105.105 30.3653 105.248 30.3232C105.38 30.2917 105.481 30.3443 105.563 30.5125L105.695 30.7542L105.837 30.4704C105.908 30.3127 106.02 30.1866 106.07 30.1866C106.131 30.1866 106.172 30.092 106.172 29.9763C106.172 29.8397 106.243 29.7661 106.375 29.7661C106.649 29.7661 106.741 29.5033 106.578 29.1879C106.507 29.0512 106.477 28.862 106.517 28.7569C106.598 28.5361 106.405 28.2943 106.152 28.2943C105.908 28.2943 105.359 27.7161 105.359 27.4638C105.37 27.2326 105.816 26.7174 106.03 26.7174C106.395 26.7174 106.974 27.1695 107.177 27.6215C107.36 28.0105 107.421 28.063 107.787 28.1051C108.274 28.1471 108.406 28.1156 108.406 27.9264C108.406 27.6846 108.691 27.5164 108.934 27.632C109.117 27.7161 109.219 27.6741 109.493 27.3902C109.676 27.201 109.828 26.9908 109.828 26.9382C109.828 26.8856 109.95 26.8436 110.092 26.8541C110.427 26.8751 110.641 26.5913 110.478 26.318C110.397 26.1918 110.153 26.1077 109.645 26.0446C109.005 25.9605 108.914 25.9185 108.914 25.7293C108.914 25.3298 108.741 25.1931 108.234 25.1826C107.97 25.1721 107.523 25.088 107.259 24.9829C106.426 24.6675 106.517 24.268 107.38 24.3627C107.645 24.3942 107.909 24.3732 107.98 24.3206C108.163 24.1945 108.02 23.8791 107.756 23.8686C107.543 23.8686 107.543 23.8686 107.777 23.774C108.051 23.6583 108.061 23.406 107.807 22.975C107.645 22.7017 107.533 22.6386 107.086 22.586C106.67 22.5335 106.477 22.4389 106.152 22.134C105.745 21.7556 105.684 21.745 105.085 21.9343C104.902 21.9973 104.821 21.9343 104.608 21.5768C104.263 21.0197 103.948 20.8199 103.47 20.8515C103.247 20.862 102.881 20.8305 102.648 20.7884C102.262 20.7148 102.211 20.7358 102.059 20.9776C101.876 21.2615 101.52 21.3351 101.327 21.1353C101.246 21.0512 101.094 21.0828 100.789 21.251C100.505 21.4086 100.373 21.4297 100.403 21.3351C100.423 21.2615 100.616 21.1143 100.82 21.0092C101.023 20.904 101.195 20.7779 101.195 20.7464C101.195 20.7043 101.104 20.5256 101.002 20.3469C100.738 19.8948 100.19 19.8107 99.3875 20.0841C99.0625 20.1997 98.6867 20.2628 98.5547 20.2312C98.4024 20.1892 98.3008 20.2207 98.2297 20.3364C98.1891 20.431 97.986 20.5361 97.8031 20.5676C97.5695 20.6202 97.3461 20.7884 97.0922 21.0933C96.6961 21.5874 96.6352 21.7766 96.8688 21.7766C97.082 21.7766 97.1735 21.9763 97.0313 22.1445C96.9399 22.2602 96.8586 22.2602 96.6656 22.1761C96.2797 21.9868 96.2594 21.6399 96.5945 21.0722C96.8485 20.6517 96.9703 20.5571 97.3969 20.431C98.1688 20.1997 98.3516 20.1156 98.3516 19.9474C98.3516 19.8738 98.2094 19.7792 98.0367 19.7372C97.6508 19.6636 97.5594 19.6636 97.2344 19.7792Z" fill="white"/>
<path d="M84.2851 19.8739C84.1836 19.9685 84.2445 20.1787 84.4172 20.41C84.5898 20.6308 84.6203 20.6308 85.1789 20.5046C85.6054 20.3995 85.7578 20.3154 85.7578 20.1787C85.7578 20.0841 85.6968 19.9685 85.6359 19.9159C85.4937 19.8318 84.3562 19.7898 84.2851 19.8739Z" fill="white"/>
<path d="M88.8047 19.8948C87.9922 19.9264 87.3016 19.9684 87.261 19.9789C87.068 20.0105 87.2102 20.1892 87.4946 20.2943C87.9008 20.4415 87.8297 20.6412 87.3422 20.7674C87.0376 20.8515 86.8954 20.8304 86.6211 20.6833C86.3571 20.5361 86.2454 20.5151 86.0727 20.6202C85.7782 20.7779 85.8391 20.9356 86.3165 21.2194C86.5399 21.3456 86.7633 21.5873 86.8344 21.7766C86.9665 22.0814 87.0071 22.113 87.3016 22.0499C87.4844 22.0184 87.9211 21.9553 88.2766 21.8922C89.2821 21.745 90.1251 20.9881 89.5563 20.7569C89.404 20.6938 89.404 20.6728 89.5766 20.5466C89.6782 20.473 89.8711 20.4099 90.0133 20.4099C90.3688 20.4099 90.5618 20.2628 90.511 20.042C90.4704 19.8002 90.5415 19.8002 88.8047 19.8948Z" fill="white"/>
<path d="M101.226 20C101.033 20.2102 101.063 20.389 101.337 20.5677C101.551 20.7148 101.652 20.7148 102.028 20.6097C102.292 20.5361 102.739 20.5151 103.155 20.5572C103.775 20.6202 103.836 20.6097 103.836 20.4205C103.836 20.0526 103.562 19.9579 102.434 19.9054C101.632 19.8738 101.317 19.8949 101.226 20Z" fill="white"/>
<path d="M82.4367 20.6412C82.264 20.8304 82.1015 21.1248 82.0812 21.3035C82.0406 21.6819 81.5734 22.0078 81.3804 21.8081C81.289 21.7135 81.2992 21.6189 81.4312 21.4191C81.6546 21.0512 81.6343 20.883 81.3398 20.7463C80.9945 20.5781 80.832 20.5886 80.6796 20.7779C80.5984 20.8725 80.3851 20.9356 80.1211 20.9356C79.8265 20.9356 79.664 20.883 79.6234 20.7779C79.5421 20.5571 79.1968 20.5781 78.6789 20.8409C78.1812 21.0932 78.0187 21.0407 78.2929 20.7253C78.557 20.4204 78.4046 20.3469 77.8562 20.5045C77.5921 20.5781 76.9015 20.7568 76.3125 20.883C75.7234 21.0197 74.982 21.2509 74.6671 21.4086C74.0273 21.7135 73.8851 21.9868 74.3625 21.9868C74.6265 21.9868 74.8906 22.1445 74.8906 22.3127C74.8906 22.3547 74.6164 22.4073 74.2812 22.4283C73.6109 22.4809 73.5195 22.5334 73.6109 22.7752C73.6718 22.9539 73.7226 22.9539 76.1703 22.7647C76.7593 22.7227 76.932 22.7542 77.064 22.8909C77.3484 23.1747 77.1961 23.3009 76.607 23.2903C76.3023 23.2798 75.4289 23.2903 74.657 23.3219C73.5195 23.3639 73.2351 23.406 73.1945 23.5426C73.0726 23.8475 73.4687 23.9947 74.3015 23.9631C74.7281 23.9526 75.114 23.9737 75.1546 24.0157C75.1953 24.0578 75.1242 24.2154 74.982 24.3626C74.7789 24.5834 74.7687 24.6465 74.8906 24.7306C75.0937 24.8672 76.2007 24.7831 77.0234 24.5624C77.389 24.4677 78.1203 24.3521 78.6484 24.3101C79.2375 24.268 79.7453 24.1629 79.9484 24.0472C80.2632 23.879 80.3039 23.879 80.507 24.0262C80.6289 24.1208 80.8218 24.2575 80.9336 24.3416C81.0961 24.4677 81.3195 24.4783 82.1523 24.3836C83.4218 24.2575 83.4828 24.2365 83.3203 24.0367C83.0867 23.7529 83.3711 23.5637 84.0312 23.5637C84.8336 23.5637 84.8945 23.3534 84.2039 23.0275C83.9195 22.8909 83.5945 22.7752 83.4828 22.7752C83.1578 22.7752 83.1375 22.2601 83.4523 22.0394C83.6554 21.9027 83.7164 21.7555 83.7671 21.2299C83.8586 20.473 83.7367 20.3048 83.1172 20.3048C82.8328 20.3048 82.6804 20.3889 82.4367 20.6412Z" fill="white"/>
<path d="M89.7695 21.7451C89.6578 21.7766 89.4852 21.8712 89.3938 21.9658C89.2922 22.0499 89.2109 22.0815 89.2109 22.0289C89.2109 21.9763 89.0078 22.1656 88.7539 22.4494C88.5102 22.7332 88.2055 23.0171 88.0836 23.0801C87.7586 23.2483 87.8094 23.385 88.2563 23.5637C88.8555 23.8055 88.9367 23.8686 88.7945 24.0473C88.7336 24.1314 88.5813 24.1945 88.4594 24.1945C88.175 24.1945 87.9516 24.3521 88.0328 24.4993C88.0734 24.5624 88.2156 24.615 88.3578 24.615C88.4898 24.615 88.6016 24.657 88.6016 24.7201C88.6016 24.7727 88.4695 24.8252 88.307 24.8252C88.1445 24.8252 87.9617 24.8988 87.8906 24.9829C87.8195 25.067 87.6266 25.1406 87.4539 25.1406C87.2813 25.1406 86.9969 25.1932 86.8039 25.2667C86.55 25.3614 86.4891 25.4349 86.5195 25.6031C86.5906 25.8975 86.4383 26.1182 86.2047 26.0657C85.9102 26.0131 85.9102 25.6767 86.225 25.3403C86.5297 25.0144 86.5297 25.0039 85.7578 24.8357C85.25 24.7201 85.0266 24.8147 84.5289 25.3719C84.2547 25.6872 84.2547 25.6872 83.6961 25.5506C83.2594 25.456 82.9953 25.456 82.5484 25.5506C81.9898 25.6662 81.9391 25.6557 81.5734 25.4034C81.2992 25.2142 81.1164 25.1511 80.9234 25.2037C80.6289 25.2773 80.1516 24.8988 80.243 24.657C80.3242 24.4257 79.8063 24.3627 79.2273 24.5414C78.9328 24.636 78.4859 24.7411 78.2219 24.7832C77.8867 24.8252 77.7344 24.8988 77.7344 25.0039C77.7344 25.1616 78.1203 25.1616 79.2578 25.0039C79.593 24.9619 79.4508 25.2037 79.0852 25.2773C78.1406 25.498 77.8766 25.6031 77.6125 25.8975L77.3281 26.2129L76.932 25.7608L76.5461 25.3088L76.0484 25.4244C75.5203 25.5611 73.0117 25.6452 72.9102 25.5401C72.8695 25.498 72.8695 25.3719 72.9102 25.2562C72.9609 25.067 73.0523 25.0355 73.5094 25.0355C74.1898 25.0355 74.4031 24.8462 74.0781 24.5098C73.8852 24.3101 73.7836 24.2891 73.2859 24.3521C72.8898 24.3942 72.5141 24.3627 72.0977 24.2365C71.7625 24.1419 71.2953 24.0263 71.0617 23.9737C70.8281 23.9317 70.4625 23.795 70.2492 23.6688C69.7211 23.385 69.2133 23.3955 68.7461 23.7319C68.3297 24.0158 68.0859 24.0052 68.0859 23.6899C68.0859 23.5742 68.0148 23.4271 67.9336 23.3535C67.8016 23.2378 67.7203 23.2694 67.4359 23.5532C67.2023 23.7845 67.0195 23.8896 66.857 23.8581C66.6539 23.837 66.6133 23.7529 66.5828 23.3745C66.5422 22.8489 66.3391 22.7858 65.882 23.1853C65.5672 23.4586 65.1102 23.6268 64.4094 23.7319C64.1453 23.7635 63.7797 23.9106 63.607 24.0473C63.3328 24.247 63.15 24.2996 62.632 24.2996C62.0734 24.2996 61.9516 24.3416 61.7281 24.5729C61.4031 24.8988 61.0375 24.8778 60.9969 24.5309C60.9664 24.3627 61.0172 24.2996 61.1492 24.2996C61.2508 24.2996 61.5656 24.184 61.8398 24.0368C62.1852 23.8686 62.5203 23.7845 62.8859 23.774C63.3938 23.774 64.2266 23.4271 64.2266 23.2168C64.2266 23.1117 63.1195 23.2483 62.7438 23.406C62.3781 23.5637 61.7078 23.6899 61.1289 23.7214C60.2453 23.774 59.6359 23.9527 59.382 24.247C59.1586 24.4888 59.0672 24.5204 58.7523 24.4678C58.5492 24.4363 58.1125 24.2681 57.7875 24.0893C57.3711 23.8686 57.0461 23.774 56.7008 23.774C56.3352 23.774 56.1422 23.7109 55.9188 23.5112C55.5633 23.2063 55.4313 23.1853 54.9945 23.4165C54.7 23.5637 54.6289 23.5637 54.1922 23.4165C53.4406 23.1642 51.4703 22.9014 50.8 22.9645C50.282 23.0066 50.1703 22.9855 50.0078 22.8068C49.8453 22.6281 49.7336 22.5966 49.3578 22.6491C48.9922 22.7017 48.8602 22.6702 48.6469 22.502C48.2406 22.1761 47.6516 22.1235 47.2961 22.3863C47.0625 22.5545 46.8086 22.5966 45.8945 22.6386C44.95 22.6702 44.7164 22.7122 44.3508 22.933C43.9648 23.1537 43.8836 23.1642 43.6703 23.0381C43.3961 22.8909 43.1219 22.9435 42.0656 23.343C41.7406 23.4691 41.3648 23.5637 41.2125 23.5637C41.0602 23.5637 40.7961 23.7004 40.593 23.8791C40.3492 24.1104 40.1461 24.1945 39.8719 24.1945C39.6586 24.1945 39.3234 24.2891 39.1102 24.4047C38.8766 24.5414 38.5313 24.615 38.2063 24.615C37.8914 24.6255 37.5867 24.6886 37.475 24.7727C37.3633 24.8568 37.1906 24.9303 37.0891 24.9303C36.825 24.9303 36.8656 25.1301 37.1602 25.2457C37.5055 25.3824 37.6781 25.7819 37.5258 26.0762C37.4141 26.2759 37.4344 26.297 37.7188 26.297C38.0742 26.297 38.1047 26.4231 37.8406 26.8752C37.6781 27.1485 37.5867 27.1905 37.2008 27.1905C36.957 27.201 36.6727 27.2431 36.5813 27.2851C36.4492 27.3482 36.3984 27.3272 36.3984 27.2115C36.3984 27.1169 36.4898 27.0118 36.6016 26.9803C37.018 26.8436 36.7844 26.7175 36.1242 26.7175C35.5961 26.7175 35.3523 26.77 35.0781 26.9487C34.8852 27.0749 34.5398 27.1905 34.3164 27.201C33.9609 27.2326 32.6 27.6741 32.468 27.8108C32.3461 27.9369 32.5797 28.0841 32.925 28.0946C33.1992 28.1051 33.2398 28.1261 33.0469 28.1577C32.9148 28.1892 32.6914 28.2943 32.5594 28.3995C32.3563 28.5782 32.3461 28.5992 32.4984 28.6938C32.7016 28.8094 34.9563 28.7253 35.2102 28.5887C35.3625 28.5046 35.3828 28.5256 35.3219 28.7884C35.2203 29.2405 35.1898 29.2615 34.7633 29.1879C34.3875 29.1248 34.357 29.1353 34.225 29.4507C34.0117 29.9974 32.9047 30.3443 32.1023 30.134C31.8688 30.0709 31.7164 30.1235 31.2797 30.4389C30.9852 30.6491 30.6297 30.8173 30.4875 30.8173C30.3352 30.8173 30.0406 30.975 29.7969 31.1853C29.5227 31.4271 29.2688 31.5532 29.0758 31.5532C28.7203 31.5532 28.6086 31.774 28.7711 32.1419C28.8625 32.3627 28.8523 32.4152 28.7 32.4573C28.2125 32.615 28.1008 32.8147 28.2227 33.3088C28.2938 33.6031 28.3953 33.6031 29.3094 33.3298C29.5734 33.2562 29.8273 33.2247 29.8578 33.2667C29.9492 33.3614 29.5023 33.866 29.3195 33.866C29.2484 33.866 29.1367 33.9816 29.0859 34.1288C29.0352 34.2654 28.8523 34.4547 28.6797 34.5493C28.5172 34.6334 28.375 34.7385 28.375 34.77C28.375 34.8541 29.6141 34.6964 29.8172 34.5913C30.1219 34.4231 30.4875 34.5913 30.5281 34.8962L30.5586 35.18L30.8734 34.8331C31.1477 34.5282 31.2086 34.5072 31.4828 34.6018C31.6961 34.6754 31.8789 34.6859 32.0617 34.6123C32.2852 34.5177 32.3359 34.5282 32.3359 34.6544C32.3359 34.7595 32.2242 34.8121 32.0008 34.8121C31.7367 34.8121 31.6352 34.8751 31.5438 35.0749C31.4727 35.2221 31.3406 35.3377 31.2289 35.3377C31.1172 35.3377 30.9445 35.4533 30.8328 35.6005C30.6703 35.8108 30.5383 35.8633 30.2133 35.8633C29.7461 35.8633 29.3398 36.042 29.0453 36.3784C28.9336 36.5046 28.7305 36.5992 28.5477 36.5992C28.375 36.5992 28.0094 36.7148 27.725 36.8515C26.9328 37.2299 26.5469 37.3561 25.9375 37.4297C25.6328 37.4717 25.2773 37.5558 25.1555 37.6294C25.0336 37.703 24.8102 37.7556 24.6578 37.7556C24.3938 37.7556 23.4086 38.3548 23.3984 38.5125C23.3984 38.6491 23.825 38.7227 24.0891 38.6176C24.2414 38.5545 24.4953 38.4809 24.6578 38.4389C24.8102 38.4073 25.0641 38.2917 25.2063 38.1971C25.3586 38.092 25.6938 38.0079 25.9883 38.0079C26.6688 37.9868 27.1664 37.8712 27.3797 37.682C27.4914 37.5769 27.6539 37.5453 27.857 37.5979C28.1109 37.6504 28.2227 37.6084 28.5477 37.3035C28.8828 36.9882 29.025 36.9251 29.6445 36.862C30.457 36.7674 30.8734 36.5887 30.9648 36.2838C30.9953 36.1682 31.107 36.0736 31.1984 36.0736C31.3 36.0736 31.4828 36 31.6047 35.9054C31.7367 35.8108 32.0109 35.7372 32.2141 35.7267C32.4172 35.7267 32.6609 35.6636 32.7523 35.5795C32.8438 35.4954 33.1586 35.4008 33.443 35.3482C33.7984 35.2957 34.0625 35.1695 34.2555 34.9803C34.4078 34.8226 34.7023 34.6754 34.9055 34.6334C35.2203 34.5808 35.2711 34.5387 35.3016 34.2444C35.332 33.887 35.4133 33.8449 36.4289 33.6452C36.8148 33.5716 37.1297 33.4349 37.343 33.2457C37.7797 32.8568 38.257 32.6045 38.582 32.6045C38.7344 32.6045 38.9984 32.4888 39.1711 32.3522C39.557 32.0473 40.207 31.9422 40.207 32.184C40.207 32.2891 40.0648 32.3627 39.7398 32.3942C39.4758 32.4257 39.0695 32.5939 38.775 32.7832C38.5008 32.9619 38.1453 33.1406 37.9828 33.1721C37.8102 33.2142 37.5359 33.3824 37.3531 33.5506C37.1703 33.7083 36.9672 33.866 36.8961 33.887C36.825 33.908 36.7945 34.0026 36.8352 34.1077C36.9266 34.3706 37.4242 34.3285 37.9828 34.0236C38.2977 33.8554 38.6227 33.7608 38.9273 33.7608C39.2727 33.7608 39.4453 33.7083 39.5773 33.5506C39.7094 33.3929 39.882 33.3403 40.2781 33.3298C41.1922 33.3088 41.3242 33.2352 41.3242 32.7621C41.3242 32.4047 41.3547 32.3416 41.568 32.3101C41.9438 32.247 42.2383 32.3732 42.5531 32.6991C42.8578 33.025 43.6094 33.3719 43.9648 33.3614C44.0766 33.3508 44.3305 33.3193 44.5234 33.2878C44.9398 33.2142 46.1383 33.6137 46.4836 33.9395C46.6055 34.0552 46.7781 34.1813 46.8797 34.2129C46.9711 34.2444 47.0727 34.4126 47.1133 34.5808C47.1539 34.8121 47.2758 34.9382 47.5805 35.0749C48.0273 35.2851 48.0273 35.3692 47.5602 35.3587C47.2859 35.3482 47.2555 35.3797 47.3164 35.5795C47.418 35.9159 47.4078 36.0736 47.225 36.5887C47.1234 36.841 47.0727 37.1143 47.1031 37.1984C47.1945 37.4192 47.6617 37.1248 48.0273 36.6097C48.2305 36.3259 48.4133 36.1787 48.5656 36.1787C48.7383 36.1787 48.8398 36.0736 48.9516 35.8002C49.0938 35.4533 49.0938 35.4008 48.9313 35.2221C48.7688 35.0328 48.7688 35.0223 48.9922 35.0223C49.2055 35.0223 49.2156 35.0539 49.1547 35.4954C49.1039 35.8423 49.1242 36.0315 49.2359 36.1997C49.5102 36.5992 49.4492 37.272 49.0938 37.682C48.8297 37.9974 48.8195 38.0499 48.9516 38.1866C49.0328 38.2812 49.1242 38.5861 49.1547 38.8699C49.2156 39.364 49.1953 39.4165 48.9313 39.6268C48.3219 40.0999 48.2813 40.1734 48.4844 40.4888C48.5758 40.6255 48.6164 40.6045 48.7992 40.3942C49.0938 40.0158 49.2766 40.2575 49.0328 40.6886L48.8398 41.025L49.175 41.2878C49.5508 41.6031 49.6016 41.8554 49.2766 41.8554C49.1039 41.8554 48.9922 41.9711 48.8602 42.2864C48.6164 42.8226 48.6875 43.0118 49.1344 43.0118C49.3883 43.0118 49.5 43.0644 49.5508 43.2115C49.5813 43.3272 49.7945 43.4849 50.0078 43.5795C50.3734 43.7267 50.4141 43.7792 50.4141 44.1156C50.4141 44.3784 50.475 44.5256 50.6578 44.6412C50.8203 44.7569 50.9117 44.9356 50.9523 45.251C51.0031 45.6294 50.9727 45.7345 50.7492 45.9763C50.5055 46.2391 50.4648 46.2497 50.2719 46.113C50.0281 45.9343 49.6422 45.9027 49.5508 46.0604C49.4391 46.2391 49.1141 46.1761 49.043 45.9553C49.0125 45.8397 48.8906 45.7451 48.7789 45.7451C48.6266 45.7451 48.5859 45.8292 48.5656 46.1866C48.5453 46.7858 48.5453 46.8068 48.6367 47.1327C48.6977 47.3745 48.657 47.4691 48.393 47.7214C48.2 47.9001 48.068 48.1419 48.0375 48.3522C48.0172 48.5624 47.8445 48.8568 47.5805 49.1616C47.357 49.4139 47.1641 49.6767 47.1641 49.7293C47.1641 49.8659 46.3922 50.8436 45.925 51.2851C45.5086 51.6951 45.3969 51.9054 45.1328 52.7884C44.9398 53.4402 44.7367 53.8712 44.5438 54.092C44.2594 54.3968 44.2391 54.4809 44.1984 55.4901C44.1578 56.3416 44.1781 56.5939 44.3 56.7096C44.4625 56.8778 44.493 57.5611 44.3711 58.1288C44.3102 58.4336 44.3203 58.4862 44.5133 58.5387C44.8383 58.6228 44.7773 59.159 44.4523 59.1274C44.3102 59.1064 44.2188 59.159 44.2188 59.2431C44.2188 59.5269 44.6352 60.3574 44.8383 60.4625C44.9906 60.5571 45.0313 60.6728 45.0109 61.0197L44.9805 61.4612L45.407 61.4297C45.7523 61.3981 45.8336 61.4297 45.8945 61.5979C45.925 61.7135 46.057 61.8397 46.1789 61.8712C46.3008 61.9027 46.575 62.1445 46.7883 62.4073C47.1539 62.8594 47.1844 62.933 47.2148 63.7004C47.2352 64.1419 47.3164 64.7832 47.4078 65.1196C47.4992 65.456 47.5703 65.9395 47.5703 66.1918C47.5703 66.5598 47.6313 66.7385 47.875 67.0118C48.0477 67.2115 48.1797 67.4428 48.1797 67.5269C48.1797 67.611 48.2711 67.7687 48.3828 67.8738C48.657 68.1261 48.6367 68.3048 48.3219 68.6202C48.1086 68.841 48.007 68.883 47.7227 68.8305C47.2758 68.7359 47.1539 68.9461 47.4891 69.2405C47.6211 69.3561 47.7633 69.5348 47.8039 69.6399C47.875 69.8397 48.525 70.155 48.718 70.0709C48.7891 70.0499 49.043 70.2076 49.2867 70.4389C49.7234 70.8594 49.7234 70.8699 49.6625 71.4165C49.5813 72.1524 49.7539 72.6255 50.3023 73.1721C50.668 73.5401 50.7289 73.6557 50.6883 73.8975C50.5766 74.4547 50.9523 74.6018 51.4703 74.2024C51.6633 74.0552 51.6633 74.0131 51.5313 73.5926C51.3586 73.0355 51.1758 72.7832 50.8813 72.7411C50.6578 72.7096 50.6172 72.5414 50.4547 70.8804C50.4242 70.565 50.3023 70.1656 50.2008 69.9868C50.0992 69.8081 50.0078 69.5874 50.0078 69.4928C50.0078 69.3981 49.9367 69.2615 49.8555 69.1879C49.7641 69.1038 49.7031 68.8725 49.7031 68.5677C49.7031 68.2628 49.6219 67.9474 49.4898 67.7267C49.3273 67.4428 49.307 67.3482 49.4188 67.2746C49.5203 67.201 49.5102 67.1485 49.3477 67.0328C48.7586 66.5703 48.7688 66.6018 48.8297 65.7398C48.8602 65.2983 48.8906 64.7937 48.8906 64.6255L48.9008 64.3206L49.1344 64.5519C49.307 64.7201 49.4492 64.7727 49.5914 64.7201C49.7336 64.678 49.825 64.7096 49.8656 64.8147C49.8961 64.9093 50.018 64.9829 50.1195 64.9829C50.2922 64.9829 50.3125 65.067 50.3125 65.6767C50.3125 66.1708 50.4039 66.6439 50.607 67.2851C50.7695 67.7792 50.9219 68.3048 50.9422 68.452C50.9625 68.6518 51.0539 68.7253 51.3586 68.7989C51.7039 68.883 51.7344 68.9251 51.7344 69.2615C51.7344 69.5453 51.8156 69.7135 52.1 70.0079C52.4555 70.3758 52.4656 70.3968 52.3031 70.6702C52.2117 70.8278 52.1406 71.0381 52.1406 71.1537C52.1406 71.2589 52.6078 71.837 53.1969 72.4363C53.7859 73.046 54.2836 73.6557 54.3242 73.7924C54.3547 73.9395 54.5273 74.2654 54.7 74.5072C54.9336 74.8436 54.9945 75.0328 54.9539 75.2536C54.9234 75.4428 54.9742 75.6846 55.1164 75.9474L55.3398 76.3574L55.0859 76.5466C54.8422 76.7359 54.8422 76.7569 55.0148 76.883C55.1875 77.0197 55.1773 77.0407 54.9336 77.3876C54.6086 77.8397 54.6086 77.9658 54.9742 78.3443C55.1469 78.5125 55.3094 78.7437 55.3398 78.8594C55.3805 78.975 55.4922 79.0696 55.6039 79.0696C55.7461 79.0696 55.8578 79.1958 55.9594 79.4481C56.0813 79.7424 56.1523 79.816 56.3148 79.774C56.4266 79.7424 56.6703 79.8055 56.843 79.9106C57.0258 80.0158 57.3711 80.1314 57.6047 80.1734C57.8484 80.2155 58.1227 80.3416 58.2141 80.4573C58.5492 80.8568 59.443 81.4875 59.6867 81.4875C59.8188 81.4875 60.1031 81.6031 60.3164 81.7608C61.2609 82.4231 62.4695 82.8016 63.0891 82.6229C63.3023 82.5703 63.5867 82.3811 63.7391 82.2129C63.9523 81.9816 64.1047 81.908 64.3992 81.908C64.7953 81.908 65.2422 82.1393 65.2422 82.339C65.2422 82.5598 65.8922 83.4533 66.5219 84.0841C67.1313 84.7043 67.2023 84.7464 67.6391 84.7464C67.9438 84.7464 68.2383 84.8305 68.4617 84.9671C68.6445 85.0933 69.0813 85.272 69.4266 85.3876C70.0461 85.5769 70.0664 85.5769 70.4016 85.3771C70.8281 85.1038 70.8586 85.1143 70.8078 85.4297C70.7672 85.6399 70.8789 85.8397 71.3664 86.4073C72.2094 87.3955 72.2602 87.5006 72.2805 88.184C72.2906 88.6886 72.3313 88.8252 72.5547 89.025C72.6969 89.1511 72.8898 89.2667 73.0016 89.2667C73.1539 89.2667 73.1742 89.2142 73.1234 88.9934C73.032 88.615 73.2352 88.7727 73.418 89.2247C73.4992 89.4244 73.6719 89.6242 73.8141 89.6872C74.0273 89.7713 74.068 89.866 74.0984 90.2865L74.1289 90.7911L74.8602 90.7595C75.6727 90.728 75.9672 90.8331 76.1094 91.2221C76.1703 91.3798 76.282 91.4744 76.4141 91.4744C76.5461 91.4744 76.6578 91.5795 76.7188 91.7372C76.8305 92.0525 77.1148 92.0736 77.4398 91.8002L77.6836 91.6005L77.4602 91.3482C77.1758 91.0328 77.1656 90.9487 77.4195 90.9487C77.5313 90.9487 77.643 90.8541 77.6836 90.749C77.775 90.4231 78.1406 90.0026 78.3234 90.0026C78.4047 90.0026 78.6992 90.1603 78.9734 90.3495C79.4305 90.6649 79.5828 90.9593 79.3594 91.1064C79.207 91.201 79.2375 91.4323 79.4203 91.6215C79.5625 91.7792 79.6031 91.7792 79.8672 91.611C80.1414 91.4533 80.375 91.0854 80.375 90.8226C80.375 90.5808 79.532 89.5611 79.2172 89.4244C79.0445 89.3508 78.6891 89.2562 78.4352 89.2142C77.9984 89.1511 77.9375 89.1721 77.643 89.4665C77.4602 89.6452 77.2164 89.7924 77.0742 89.7924C76.9422 89.7924 76.668 89.8765 76.475 89.9711C76.0078 90.1918 75.6016 90.0447 75.6016 89.6347C75.6016 89.477 75.5102 89.3088 75.3578 89.2037C75.2156 89.1196 75.0938 88.9619 75.0734 88.8673C75.0531 88.7727 74.9516 88.6886 74.85 88.6886C74.6977 88.6886 74.6266 88.5309 74.4641 87.9211L74.2711 87.1432L74.525 86.3968C74.7078 85.8292 74.7586 85.5138 74.718 85.1353C74.6672 84.7253 74.6977 84.5677 74.8602 84.3364C74.9719 84.1787 75.1039 83.8633 75.1344 83.632C75.2156 83.159 75.0531 82.9382 74.5656 82.8121C74.3727 82.77 74.2813 82.6754 74.2813 82.5388C74.2813 82.2339 73.743 82.0447 73.0117 82.0867C72.4328 82.1288 71.925 82.1288 71.0617 82.1077C70.8484 82.1077 70.5133 82.1393 70.3102 82.1708C69.7414 82.2759 69.7109 82.0552 70.2086 81.5821C70.5438 81.2562 70.625 81.1091 70.625 80.8042C70.625 80.5939 70.6961 80.2786 70.7875 80.0999C70.8789 79.9211 70.9297 79.7004 70.8992 79.5953C70.8789 79.5006 70.8992 79.3324 70.95 79.2273C71.0313 79.0801 71.0719 79.0696 71.143 79.1853C71.1836 79.2589 71.2547 79.3009 71.2852 79.2589C71.3867 79.1537 71.5289 78.4389 71.5391 78.0499C71.5391 77.8186 71.6 77.6715 71.7523 77.5979C71.8641 77.5243 72.0266 77.314 72.1078 77.1248C72.1891 76.9251 72.3414 76.7148 72.4633 76.6518C72.6258 76.5571 72.6563 76.473 72.6055 76.2523C72.5039 75.8318 72.3516 75.6951 72.1078 75.7687C71.9859 75.8108 71.7727 75.8423 71.6203 75.8318C71.468 75.8213 71.1125 75.9054 70.8281 76.021C70.5438 76.1366 70.1781 76.2313 70.0156 76.2313C69.3453 76.2313 69 76.6623 69 77.5033C69 77.6925 68.9391 77.7976 68.7969 77.8397C68.6852 77.8712 68.5633 77.9763 68.5328 78.092C68.3906 78.5335 68.2586 78.7332 68.1266 78.6807C67.893 78.5861 67.6695 78.8489 67.7406 79.1327C67.7914 79.3324 67.7609 79.385 67.5984 79.385C67.4867 79.385 67.3344 79.2799 67.2531 79.1537C67.1008 78.9225 67.1008 78.9225 66.6234 79.1117C66.3594 79.2168 65.8617 79.364 65.5164 79.4376C64.8969 79.5742 64.8867 79.5742 64.6125 79.3114C64.4602 79.1537 64.1656 79.0066 63.9523 78.975C63.5766 78.9119 63.5664 78.8909 63.4852 78.3863C63.4344 78.092 63.3734 77.7556 63.3531 77.6294C63.3328 77.5033 63.2008 77.2825 63.0789 77.1564C62.9164 76.9987 62.7641 76.5887 62.6117 75.9684L62.3883 75.0223L62.5914 74.339C62.693 73.9606 62.8148 73.4455 62.8555 73.1826C62.9469 72.6255 63.1094 72.2575 63.5766 71.5953C63.8609 71.1853 63.9219 71.0066 63.9219 70.565C63.9219 70.2602 63.8508 69.8817 63.7695 69.703C63.6172 69.3981 63.6172 69.3876 63.9828 69.0512C64.1859 68.8725 64.4602 68.6518 64.6023 68.5782C64.7344 68.5046 64.8867 68.3259 64.9375 68.1787C65.0188 67.9684 65.1 67.9264 65.425 67.9264C65.7297 67.9264 65.882 67.8528 66.1156 67.6005C66.2781 67.4218 66.5219 67.2326 66.6539 67.18C66.7859 67.1274 66.8672 67.0433 66.8266 67.0118C66.7656 66.9382 67.8016 66.5598 68.0656 66.5598C68.1367 66.5598 68.3297 66.6649 68.4922 66.791C68.7867 67.0118 68.7969 67.0118 69.1422 66.8226C69.4367 66.6544 69.518 66.6439 69.65 66.7595C69.7414 66.8436 69.8125 67.0223 69.8125 67.159C69.8125 67.4008 69.843 67.4218 70.1984 67.3587C71.143 67.201 71.3359 67.2115 71.4477 67.4113C71.4984 67.5269 71.6609 67.611 71.8031 67.611C72.0469 67.611 72.0672 67.5795 72.0063 67.2746C71.9656 67.0854 71.925 66.8436 71.9148 66.7385C71.8945 66.6439 71.793 66.4862 71.6813 66.4126C71.3766 66.1813 71.6305 66.0131 72.4227 65.908C72.9914 65.8449 73.1336 65.8554 73.225 65.9816C73.3266 66.1182 73.418 66.1182 73.8344 66.0236C74.4133 65.887 75.2664 66.0131 75.2156 66.2339C75.1648 66.4967 75.4188 66.6649 75.8555 66.6649C76.1195 66.6649 76.3328 66.6018 76.4141 66.4967C76.6273 66.2444 77.0438 66.36 77.2266 66.7175C77.3078 66.8857 77.4602 67.0959 77.5617 67.1905C77.7039 67.3167 77.7547 67.5374 77.775 68.2733C77.7852 68.7779 77.7648 69.2194 77.7141 69.251C77.5719 69.3456 77.6227 69.6504 77.8359 69.9238C77.9477 70.0709 78.0391 70.2602 78.0391 70.3548C78.0391 70.4494 78.1508 70.7017 78.293 70.9119C78.4352 71.1222 78.5469 71.4165 78.5469 71.5532C78.5469 71.837 78.6484 71.8896 79.1156 71.837C79.3492 71.8055 79.4609 71.7424 79.4609 71.6163C79.4609 71.5217 79.532 71.2378 79.6234 70.975C79.8977 70.1656 79.9078 68.6623 79.6539 67.4533C79.3391 65.9395 79.3695 65.4875 79.8367 64.7727C80.2836 64.0999 80.9438 63.406 81.1367 63.406C81.2078 63.406 81.4109 63.2904 81.5734 63.1432C81.7461 62.996 81.9695 62.8804 82.0914 62.8804C82.2336 62.8804 82.3047 62.8173 82.3047 62.6807C82.3047 62.3758 82.8531 61.8292 83.1477 61.8292C83.3102 61.8292 83.5945 61.661 83.8688 61.4192C84.1227 61.1879 84.4172 60.9776 84.5289 60.9356C84.6406 60.9041 84.8133 60.6833 84.9047 60.452C85.057 60.0946 85.1281 60.042 85.4125 60.042C85.7578 60.042 86.0117 59.8213 85.9305 59.5795C85.9 59.5059 85.9203 59.2431 85.9813 59.0013C86.0523 58.7069 86.0523 58.5282 85.9813 58.4336C85.9102 58.3495 85.9102 58.1393 85.9609 57.8344C86.0117 57.5716 86.0523 57.1826 86.0625 56.9619C86.0625 56.4257 86.4078 55.7319 86.6719 55.7319C86.9258 55.7319 86.9258 55.795 86.6211 56.2996C86.4484 56.5939 86.3977 56.8042 86.4383 57.0144C86.4688 57.1931 86.4281 57.4034 86.3266 57.5716C86.1641 57.8344 86.1031 58.4021 86.2453 58.339C86.2859 58.318 86.6109 57.9816 86.9664 57.5926C87.6367 56.8357 87.6773 56.678 87.4336 56.0158C87.3625 55.8476 87.393 55.8265 87.7078 55.8896C88.0125 55.9527 88.1242 55.9106 88.4289 55.6373C88.6219 55.4481 88.8758 55.0907 88.9773 54.8384L89.1602 54.3653H89.6883C90.1352 54.3653 90.257 54.3232 90.4805 54.0815C90.6227 53.9238 90.7344 53.7661 90.7344 53.724C90.7344 53.6925 90.9172 53.5558 91.1508 53.4297C91.5266 53.2089 91.6078 53.1984 92.1969 53.3035C93.0398 53.4612 93.0195 53.4612 93.1516 53.1458C93.243 52.9566 93.243 52.82 93.1617 52.6728C93.0602 52.473 93.0398 52.473 92.8773 52.6202C92.7453 52.7464 92.6742 52.7569 92.5828 52.6623C92.4102 52.4836 92.4305 52.1892 92.6133 52.1156C92.6945 52.0841 92.7656 51.9684 92.7656 51.8528C92.7656 51.7372 92.9789 51.4323 93.2531 51.1695C93.6188 50.8016 93.8117 50.6859 94.0555 50.6859C94.5023 50.6859 94.8984 50.5177 94.8984 50.318C94.8984 50.2024 95.0102 50.1603 95.2844 50.1603C95.4977 50.1603 95.7617 50.0867 95.8734 50.0026C95.975 49.9185 96.2289 49.8029 96.432 49.7398C96.6453 49.6767 96.8281 49.5506 96.8586 49.4349C96.8891 49.3088 97.0008 49.2457 97.2039 49.2352C97.3664 49.2352 97.7422 49.1301 98.0469 49.0144C98.707 48.7516 98.6563 48.7621 98.6563 48.9408C98.6563 49.0985 98.0773 49.4875 97.6914 49.5926C97.5492 49.6242 97.4375 49.7083 97.4375 49.7608C97.4375 49.8239 97.3258 49.9816 97.1836 50.1182C96.9602 50.3285 96.95 50.3916 97.0414 50.6754C97.2445 51.2641 97.8336 51.18 98.6258 50.4652C98.8086 50.3075 99.1234 50.1393 99.3367 50.0972C99.5398 50.0552 99.8547 49.9395 100.017 49.8449C100.19 49.7398 100.535 49.6242 100.769 49.5926C101.317 49.5085 102.008 49.1511 102.008 48.9619C102.008 48.6991 101.754 48.5939 100.941 48.5204C100.17 48.4468 99.5703 48.184 99.3469 47.816C99.2047 47.5847 99.2555 46.7963 99.418 46.7332C99.5906 46.6596 99.6211 46.3127 99.4586 46.2181C99.4078 46.1761 99.225 46.2076 99.0523 46.2707C98.8188 46.3758 98.7273 46.3758 98.6055 46.2707C98.3516 46.0499 98.5953 45.9133 99.2047 45.9448C99.6922 45.9658 99.8039 45.9238 100.098 45.6504C100.393 45.3771 100.423 45.314 100.332 45.0512C100.17 44.5887 99.8852 44.4941 99.1234 44.6623C97.8844 44.9251 97.3359 45.1038 97.0109 45.3561C96.493 45.7556 95.6195 46.113 95.4875 45.9763C95.4063 45.8922 95.5281 45.7871 95.9242 45.5874C96.2289 45.4402 96.625 45.2089 96.818 45.0617C97.0211 44.9041 97.2953 44.7989 97.5086 44.7989C97.7828 44.7989 97.9555 44.6938 98.4328 44.2102L99.0117 43.6215L101.876 43.6741C104.618 43.7161 104.75 43.7161 104.923 43.5164C105.014 43.4008 105.38 43.1064 105.725 42.8541C106.192 42.5072 106.497 42.36 106.944 42.2864C107.614 42.1708 108.65 41.6347 108.853 41.2983C109.097 40.8988 109.138 40.3206 108.965 39.9632C108.833 39.7109 108.741 39.6478 108.467 39.6478C108.173 39.6478 108.122 39.6058 108.071 39.364C108.041 39.2063 108.071 38.996 108.142 38.8909C108.234 38.7227 108.213 38.6596 108.061 38.5335C107.949 38.4494 107.736 38.3863 107.584 38.3863C107.391 38.3863 107.279 38.3232 107.238 38.1761C107.188 38.0184 107.086 37.9658 106.781 37.9658C106.426 37.9658 106.385 37.9343 106.355 37.682C106.334 37.4717 106.233 37.3456 106.02 37.251C105.471 36.9987 105.41 36.9461 105.38 36.6728C105.349 36.4415 105.39 36.3995 105.634 36.3679C105.908 36.3364 105.918 36.3154 105.877 35.8108C105.857 35.5269 105.786 35.1905 105.705 35.0749C105.623 34.9698 105.563 34.77 105.563 34.6544C105.563 34.5387 105.471 34.2549 105.359 34.0236C105.248 33.7924 105.156 33.4454 105.156 33.2352C105.156 32.8673 105.014 32.6045 104.811 32.6045C104.679 32.6045 103.836 33.5506 103.836 33.7083C103.836 33.866 103.125 34.3916 102.891 34.3916C102.8 34.3916 102.546 34.4862 102.323 34.6123C101.886 34.8436 101.713 34.8016 101.368 34.4126C101.256 34.2864 101.104 34.2234 100.982 34.2549C100.809 34.3075 100.789 34.2549 100.789 33.8344C100.789 33.3508 101.084 32.7306 101.459 32.4468C101.551 32.3837 101.612 32.2365 101.581 32.1209C101.551 31.9527 101.449 31.9211 100.911 31.8896C100.413 31.8686 100.271 31.8265 100.322 31.7109C100.352 31.6268 100.241 31.4796 100.048 31.3535C99.8648 31.2378 99.6008 31.0381 99.4484 30.9119C99.1844 30.6912 99.1336 30.6807 98.6055 30.8068C98.2195 30.9014 97.6914 30.9119 96.9398 30.8699C95.8938 30.7963 95.8227 30.8068 95.7211 31.0066C95.6602 31.1222 95.6094 31.385 95.6094 31.5742C95.6094 31.774 95.4977 32.0893 95.3555 32.3101C95.2133 32.5204 95.1016 32.8357 95.1016 33.0039C95.1016 33.3088 94.6852 33.6978 93.8117 34.2339C93.4156 34.4757 93.3852 34.8436 93.7508 34.8962C94.2789 34.9803 94.4719 35.9054 94.0758 36.431C93.9438 36.6097 93.8828 36.8094 93.9133 36.9671C93.9438 37.1774 93.9133 37.2299 93.7406 37.2299C93.507 37.2299 93.182 37.4297 92.7656 37.8186C92.5117 38.0604 92.0039 38.2812 91.1406 38.5335C90.2875 38.7858 90.2266 38.8489 90.2266 39.5006C90.2266 39.816 90.1555 40.247 90.0641 40.4678C89.9828 40.678 89.8914 40.9829 89.8711 41.1406C89.8406 41.4034 89.4039 42.1183 89.1703 42.297C89.1195 42.3285 89.018 42.339 88.9469 42.3075C88.8656 42.2759 88.7336 42.3285 88.6523 42.4231C88.4492 42.6229 88.1547 42.6439 88.0227 42.4547C87.9211 42.318 87.6875 41.7188 87.5148 41.1511C87.4234 40.8673 87.4641 40.678 87.8094 39.7845C88.0328 39.2168 88.2563 38.6912 88.3172 38.6281C88.5711 38.3127 88.3375 38.2076 87.2711 38.1971C86.7023 38.1866 86.2047 38.1445 86.1742 38.113C86.1438 38.0815 86.1133 37.9238 86.1133 37.7766C86.1133 37.4928 86.1031 37.4928 85.4836 37.5243C84.8641 37.5663 84.8438 37.5558 84.732 37.2615C84.5188 36.6938 84.468 36.6518 83.9398 36.5677C83.5945 36.5046 83.3914 36.41 83.3203 36.2733C83.1883 36.0315 82.457 35.9895 82.1422 36.2207C81.9086 36.3889 81.5531 36.473 81.5125 36.3574C81.5023 36.3154 81.5633 36.1682 81.6547 36.021C81.7563 35.8528 81.7969 35.6636 81.7563 35.4954C81.7156 35.3482 81.7359 35.138 81.7969 35.0118C81.9797 34.6544 81.8273 34.4021 81.3805 34.3285C80.8727 34.2444 80.8523 33.9501 81.35 33.6767C81.4719 33.6137 81.5938 33.4139 81.6242 33.2457C81.6852 32.9409 82.0711 32.5939 82.8023 32.1945C82.9445 32.1209 83.1781 31.9422 83.3203 31.816C83.4625 31.6899 83.6555 31.5532 83.757 31.5217C83.8484 31.4796 83.9297 31.3955 83.9297 31.3219C83.9297 31.2483 84.275 31.0486 84.6914 30.8804C85.4023 30.5966 85.4531 30.565 85.4531 30.2707C85.4531 29.9868 85.4836 29.9553 85.707 30.0184C85.8492 30.0499 86.0727 30.113 86.2148 30.1445C86.6922 30.2707 86.9664 29.7871 86.55 29.5769C86.3469 29.4822 86.3773 29.4612 86.8242 29.4507C87.1086 29.4507 87.4438 29.4402 87.5859 29.4402C87.718 29.4297 87.8906 29.3561 87.9516 29.2615C88.0328 29.1353 88.2359 29.0828 88.5711 29.0723C88.8352 29.0617 89.2008 29.0197 89.3633 28.9776C89.7898 28.862 90.907 28.021 90.968 27.7687C90.9984 27.6426 91.1102 27.5585 91.2219 27.5585C91.3438 27.5585 91.4555 27.5164 91.4859 27.4639C91.5164 27.4113 91.7094 27.3377 91.9125 27.3062C92.2273 27.2431 92.268 27.201 92.2375 26.9487C92.207 26.6859 92.2375 26.6649 92.6234 26.6334C92.9078 26.6123 93.1008 26.6544 93.2023 26.7595C93.2938 26.8541 93.4969 26.9277 93.6695 26.9277C93.9133 26.9277 93.9844 26.8857 93.9844 26.728C93.9844 26.4231 94.1469 26.3706 94.482 26.5703C94.7461 26.728 94.8273 26.7385 95.2539 26.6123C95.6398 26.4967 96.2898 26.0972 96.7266 25.6978C96.757 25.6662 96.6961 25.5926 96.5945 25.519C96.1984 25.2142 96.5234 24.4363 96.9297 24.6991C97.1633 24.8462 97.3969 24.7727 97.468 24.5309C97.4984 24.4363 97.5492 24.2681 97.5899 24.1629C97.6508 24.0263 97.6102 23.9842 97.4172 23.9842C97.275 23.9842 97.082 23.8896 96.9906 23.7845C96.7875 23.5532 96.0359 23.4481 95.5383 23.5847C95.2742 23.6583 95.1828 23.7529 95.0914 24.0999C94.9695 24.4993 94.7258 24.678 94.4109 24.5939C94.3399 24.5729 94.2281 24.678 94.157 24.8147C94.0859 24.9724 93.832 25.1511 93.4766 25.2878C93.1719 25.4139 92.8063 25.5926 92.6641 25.6872C92.3289 25.9395 91.9836 25.929 91.8516 25.6557C91.6586 25.2878 91.7703 25.0144 92.1562 24.8778C92.4508 24.7727 92.5117 24.6991 92.5117 24.4468C92.5117 24.1734 92.4711 24.1419 92.1359 24.1104C91.8719 24.0893 91.7297 24.1314 91.6281 24.2681C91.4555 24.5204 90.9375 24.8568 90.8563 24.7832C90.7547 24.6675 91.1305 23.9842 91.3031 23.9842C91.3945 23.9842 91.4453 23.9106 91.425 23.795C91.3844 23.6058 91.0391 23.5637 90.7141 23.7214C90.5719 23.774 90.5312 23.7424 90.5312 23.5742C90.5312 23.406 90.6125 23.3324 90.8156 23.2904C91.1 23.2273 91.1102 23.2063 91.1102 22.6071C91.1203 22.0184 91.1 21.9658 90.8258 21.8292C90.5414 21.6715 90.1656 21.6504 89.7695 21.7451Z" fill="white"/>
<path d="M116.856 23.1117C116.572 23.1643 116.491 23.364 116.572 23.7214C116.643 23.9948 116.643 23.9948 117.496 23.9422C118.461 23.8896 118.603 23.8371 118.471 23.5953C118.319 23.3009 117.344 23.0066 116.856 23.1117Z" fill="white"/>
<path d="M85.9305 23.774C85.7172 23.9632 85.4633 24.0894 85.2907 24.0894C84.9454 24.0894 84.661 24.2471 84.7727 24.3732C84.8235 24.4153 85.0266 24.4573 85.2297 24.4678C85.4329 24.4783 85.9102 24.5204 86.2758 24.5624C87.0985 24.6571 87.4133 24.5309 87.3626 24.1104C87.3422 23.9107 87.261 23.8161 87.1087 23.795C86.9868 23.774 86.8344 23.6899 86.7735 23.6058C86.5805 23.3745 86.3063 23.4271 85.9305 23.774Z" fill="white"/>
<path d="M99.7227 23.8791C99.6922 23.9317 99.4789 24.0263 99.2656 24.0894C98.768 24.2261 98.707 24.5099 99.1641 24.5099C99.4687 24.5099 99.9766 24.1209 99.9766 23.8791C99.9766 23.7425 99.8039 23.7425 99.7227 23.8791Z" fill="white"/>
<path d="M100.322 25.067C99.9155 25.3088 99.4585 25.7713 99.5194 25.8764C99.5499 25.929 99.8546 25.9816 100.19 25.9816C100.728 25.9816 100.83 25.95 101.165 25.6347C101.642 25.1721 101.581 24.9303 100.972 24.9303C100.728 24.9408 100.444 24.9934 100.322 25.067Z" fill="white"/>
<path d="M101.662 25.2352C101.622 25.2982 101.693 25.4454 101.805 25.5611C101.977 25.7398 102.048 25.7503 102.221 25.6662C102.526 25.4875 102.424 25.2036 102.038 25.1616C101.866 25.1406 101.693 25.1721 101.662 25.2352Z" fill="white"/>
<path d="M92.1664 27.7266C91.8719 27.9158 91.557 28.1681 91.4758 28.2838C91.3945 28.4099 91.2727 28.5045 91.2016 28.5045C91.1305 28.5045 91.0188 28.6202 90.9578 28.7673C90.8664 28.9776 90.7648 29.0302 90.4906 29.0302C90.1352 29.0302 89.8203 29.2509 89.8203 29.4927C89.8203 29.5768 89.9828 29.6189 90.3078 29.6189C90.7242 29.6083 90.7852 29.6399 90.8156 29.8396C90.8563 30.1445 90.9172 30.1445 91.6281 29.766C91.9633 29.5873 92.2781 29.4507 92.3391 29.4507C92.4 29.4507 92.5422 29.356 92.6438 29.2404C92.8266 29.0302 92.8367 29.0302 93.0703 29.293C93.3547 29.6083 93.9641 29.7976 94.35 29.703C94.5227 29.6609 94.6445 29.6819 94.7055 29.7765C94.8172 29.9763 94.9797 29.7976 95.0609 29.3771C95.1219 29.0512 95.1117 29.0407 94.7359 29.0091C94.4313 28.9881 94.3297 28.925 94.3094 28.7673C94.2484 28.452 93.9844 28.1786 93.507 27.9684C93.1922 27.8317 93.0703 27.7161 93.0703 27.5584C93.0703 27.2641 92.8164 27.3061 92.1664 27.7266Z" fill="white"/>
<path d="M97.1328 29.4087C97.1328 29.5769 97.3664 29.8712 97.4883 29.8712C97.7117 29.8712 97.6711 29.5769 97.4477 29.4507C97.2242 29.3351 97.1328 29.3141 97.1328 29.4087Z" fill="white"/>
<path d="M96.2391 29.7872C96.2594 29.9238 96.3508 30.0395 96.4524 30.0605C96.6758 30.1025 96.8079 29.7767 96.6149 29.6505C96.361 29.4823 96.1985 29.5454 96.2391 29.7872Z" fill="white"/>
<path d="M91.7805 30.4599C91.3438 30.7332 91.2219 30.9645 91.4758 31.0486C91.9329 31.2168 93.1719 30.7332 93.1719 30.3968C93.1719 30.071 92.3391 30.113 91.7805 30.4599Z" fill="white"/>
<path d="M94.0554 30.9751C93.8624 31.1222 93.8522 31.5638 94.035 31.6268C94.1772 31.6689 94.6952 31.1538 94.6952 30.9751C94.6952 30.7753 94.2991 30.7753 94.0554 30.9751Z" fill="white"/>
<path d="M105.126 31.4166C105.085 31.4481 105.055 31.5743 105.055 31.6794C105.055 31.9737 105.4 31.8791 105.441 31.5743C105.471 31.3535 105.278 31.2484 105.126 31.4166Z" fill="white"/>
<path d="M26.4655 32.8883C26.0592 32.9409 25.9678 33.1406 26.2116 33.435C26.4452 33.7188 26.5264 33.7083 26.953 33.3404C27.2475 33.0775 27.278 33.0145 27.1561 32.9199C27.0749 32.8673 26.9631 32.8252 26.9022 32.8358C26.8514 32.8463 26.6483 32.8673 26.4655 32.8883Z" fill="white"/>
<path d="M35.1289 34.8541C35.0172 34.9277 34.8852 35.0012 34.8242 35.0118C34.7734 35.0118 34.7227 35.0853 34.7227 35.1484C34.7227 35.243 34.8648 35.2746 35.1695 35.2641C35.7078 35.2325 35.8602 35.1169 35.6367 34.8751C35.4336 34.6648 35.3828 34.6648 35.1289 34.8541Z" fill="white"/>
<path d="M33.7579 35.6531C33.5852 35.8318 33.5751 35.9054 33.6563 36.0841C33.768 36.2838 33.7884 36.2943 34.0321 36.1156C34.1844 36.021 34.418 35.9054 34.5602 35.8633C34.9868 35.7477 34.8852 35.4954 34.3977 35.4638C34.0727 35.4428 33.9204 35.4849 33.7579 35.6531Z" fill="white"/>
<path d="M48.4233 36.5362C48.1085 36.6833 47.9257 36.9567 48.0374 37.1354C48.0679 37.1879 48.1694 37.1879 48.2811 37.1249C48.3827 37.0723 48.6366 37.0197 48.8397 37.0197C49.2358 37.0197 49.3983 36.8095 49.1952 36.5467C49.0429 36.3575 48.8397 36.3575 48.4233 36.5362Z" fill="white"/>
<path d="M91.2422 37.0408C91.0086 37.4403 91.0696 37.5874 91.425 37.4928C91.943 37.3562 92.1664 36.7044 91.6993 36.7044C91.5164 36.7044 91.3844 36.8095 91.2422 37.0408Z" fill="white"/>
<path d="M48.1086 37.4086C48.0375 37.4297 47.9766 37.5348 47.9766 37.6294C47.9766 37.7135 47.9055 37.8817 47.804 37.9868C47.6516 38.1655 47.6516 38.1866 47.804 38.3653C47.9055 38.4704 47.9766 38.6701 47.9766 38.7963C47.9766 39.1327 48.2 39.0275 48.4032 38.586C48.7688 37.8081 48.8094 37.6609 48.7586 37.5032C48.6977 37.3456 48.3727 37.293 48.1086 37.4086Z" fill="white"/>
<path d="M22.0275 38.5966C21.804 38.7122 21.5704 38.8068 21.4993 38.8068C21.3267 38.8068 21.3267 39.2168 21.5095 39.2904C21.5806 39.3219 21.7939 39.2484 21.9868 39.1327C22.1798 39.0171 22.5048 38.8909 22.7181 38.8594C23.0025 38.7963 23.0939 38.7438 23.0532 38.6281C23.0228 38.544 22.9923 38.4494 22.9923 38.4284C22.9923 38.3022 22.3728 38.4074 22.0275 38.5966Z" fill="white"/>
<path d="M47.4688 38.7016C47.4688 38.7542 47.5195 38.8068 47.5703 38.8068C47.6313 38.8068 47.6719 38.7542 47.6719 38.7016C47.6719 38.6386 47.6313 38.5965 47.5703 38.5965C47.5195 38.5965 47.4688 38.6386 47.4688 38.7016Z" fill="white"/>
<path d="M18.6857 39.8791C18.5334 40.0789 18.4623 40.2576 18.5232 40.3207C18.6451 40.4468 19.0514 40.3207 19.3459 40.0789C19.549 39.9107 19.5592 39.8581 19.4474 39.7109C19.2342 39.4481 18.9701 39.5112 18.6857 39.8791Z" fill="white"/>
<path d="M46.4531 39.7319C46.2094 39.9422 46.1992 39.9422 46.3922 40.1629C46.6563 40.4678 47.0219 40.4468 47.225 40.1209C47.3266 39.9527 47.4891 39.8581 47.6516 39.8581C48.0985 39.8581 47.7633 39.6478 47.2047 39.5847C46.7985 39.5322 46.6563 39.5637 46.4531 39.7319Z" fill="white"/>
<path d="M17.3047 40.226C17.1726 40.3732 17.1015 40.5204 17.132 40.5624C17.2437 40.6676 17.7109 40.4048 17.7109 40.2366C17.7109 39.9632 17.5484 39.9632 17.3047 40.226Z" fill="white"/>
<path d="M87.8703 40.3942C87.7688 40.4468 87.6875 40.5939 87.6875 40.6991C87.6875 40.8673 87.7586 40.9093 88.0227 40.9093C88.4188 40.9093 88.8047 40.657 88.6523 40.4993C88.4898 40.3311 88.0531 40.268 87.8703 40.3942Z" fill="white"/>
<path d="M46.4836 40.5624C46.2094 40.615 46.1992 40.7096 46.4429 41.3193C46.5547 41.5926 46.6562 41.7398 46.6969 41.6662C46.7375 41.5926 46.7476 41.54 46.7172 41.54C46.6867 41.54 46.7273 41.3298 46.7984 41.0775C46.9304 40.6465 46.9203 40.4678 46.7679 40.4993C46.7375 40.5098 46.6054 40.5414 46.4836 40.5624Z" fill="white"/>
<path d="M107.909 42.3075C107.482 42.4442 106.466 43.4113 105.918 44.1998C105.664 44.5677 105.37 44.8515 105.136 44.9672C104.882 45.0828 104.75 45.2195 104.75 45.3456C104.75 45.6715 104.557 45.9553 104.344 45.9553C104.07 45.9553 103.907 46.2917 104.08 46.5335C104.181 46.6807 104.283 46.7017 104.506 46.6386C104.669 46.5966 104.973 46.5651 105.187 46.5756C106.192 46.6071 106.558 46.6071 106.852 46.5335C107.035 46.4915 107.259 46.4915 107.35 46.523C107.502 46.5861 107.502 46.6071 107.34 46.7963C107.238 46.912 107.076 47.0066 106.964 47.0066C106.71 47.0066 106.73 47.1853 107.025 47.3745C107.33 47.5848 107.604 47.4691 107.858 47.0066C108.041 46.7017 108.559 46.3863 108.68 46.523C108.721 46.5545 108.64 46.7333 108.518 46.912C108.315 47.1958 108.305 47.2589 108.427 47.385C108.782 47.753 109.422 47.7425 109.422 47.364C109.422 47.3009 109.493 47.1853 109.584 47.1012C109.828 46.8909 110.062 46.3653 109.96 46.2602C109.899 46.1971 109.727 46.2076 109.534 46.2812C109.107 46.4389 109.046 46.3548 109.33 45.9658C109.544 45.6715 109.544 45.6294 109.391 45.4612C109.259 45.293 109.249 45.251 109.381 45.0723C109.574 44.7885 109.564 44.5572 109.32 44.2628C109.158 44.0631 109.107 44.0421 109.026 44.1577C108.975 44.2313 108.884 44.2628 108.823 44.2313C108.762 44.1892 108.64 44.2313 108.548 44.3259C108.305 44.5677 108.061 44.4731 108 44.1157C107.949 43.8423 107.898 43.8003 107.665 43.8318C107.512 43.8423 107.391 43.8108 107.391 43.7477C107.391 43.6216 108 43.0013 108.386 42.728C108.66 42.5388 108.691 42.1708 108.437 42.1814C108.335 42.1919 108.102 42.2444 107.909 42.3075Z" fill="white"/>
<path d="M47.5094 43.2536C47.55 43.4323 47.7125 43.7161 47.875 43.8738C48.0477 44.0315 48.1797 44.2312 48.1797 44.3258C48.1797 44.4099 48.2915 44.5361 48.4133 44.5781C48.5454 44.6307 48.7079 44.8094 48.779 44.9881C48.8704 45.2089 49.0532 45.3561 49.4594 45.5242C50.1399 45.8186 50.3125 45.766 50.3125 45.2614C50.3125 44.9776 50.2618 44.8725 50.1094 44.8304C49.9774 44.7989 49.9063 44.6833 49.9063 44.5256C49.9063 44.021 49.7133 43.7371 49.2258 43.5164C48.9516 43.4007 48.6571 43.222 48.5555 43.1379C48.454 43.0433 48.1696 42.9592 47.9055 42.9382L47.4485 42.9172L47.5094 43.2536Z" fill="white"/>
<path d="M100.688 44.0736C100.688 44.1893 100.769 44.3154 100.87 44.3469C100.962 44.389 101.145 44.5257 101.266 44.6623C101.47 44.8831 101.581 44.9146 102.079 44.8831C102.546 44.862 102.678 44.8095 102.698 44.6728C102.719 44.5467 102.638 44.4416 102.445 44.368C102.292 44.3049 102.028 44.1787 101.855 44.1052C101.693 44.0316 101.358 43.9475 101.124 43.9159C100.748 43.8844 100.688 43.8949 100.688 44.0736Z" fill="white"/>
<path d="M102.028 46.502C101.886 46.6492 101.865 46.9015 102.008 46.9015C102.099 46.9015 102.312 46.5756 102.312 46.4389C102.312 46.3338 102.16 46.3654 102.028 46.502Z" fill="white"/>
<path d="M99.6718 47.2694C99.4788 47.5112 99.6311 47.9422 99.9561 48.0158C100.108 48.0578 100.322 48.1524 100.433 48.226C100.708 48.4258 100.931 48.4047 101.144 48.163C101.246 48.0473 101.398 47.9527 101.469 47.9527C101.551 47.9527 101.601 47.8896 101.571 47.816C101.551 47.7425 101.337 47.6899 101.033 47.6899C100.413 47.6794 99.9561 47.4902 100.037 47.2694C100.119 47.0592 99.8444 47.0592 99.6718 47.2694Z" fill="white"/>
<path d="M102.516 47.3956C102.323 47.5322 102.13 47.7425 102.089 47.8581C102.048 47.9633 101.967 48.0579 101.906 48.0579C101.723 48.0579 101.794 48.3522 102.028 48.5204C102.262 48.6886 102.678 48.7412 102.962 48.6255C103.135 48.552 103.186 48.0579 103.023 48.0579C102.973 48.0579 102.922 47.9843 102.922 47.9002C102.922 47.8161 102.962 47.7425 103.013 47.7425C103.125 47.7425 103.206 47.4271 103.155 47.2379C103.084 47.0592 102.922 47.0907 102.516 47.3956Z" fill="white"/>
<path d="M82.0406 70.4495C82.0304 70.891 82.0711 71.0802 82.1523 71.0802C82.3351 71.0802 82.4976 70.8384 82.5687 70.4495C82.6297 70.1761 82.5992 70.071 82.457 69.9554C82.1218 69.7136 82.0508 69.7977 82.0406 70.4495Z" fill="white"/>
<path d="M82.7516 71.5533C82.579 71.6899 82.579 71.7004 82.7415 71.7109C82.843 71.7109 82.9141 71.795 82.9141 71.9317C82.9141 72.0789 82.9649 72.1314 83.0868 72.1104C83.2798 72.0684 83.3509 71.7215 83.1985 71.5322C83.0665 71.3535 82.9954 71.364 82.7516 71.5533Z" fill="white"/>
<path d="M82.1624 71.7845C82.0507 71.9001 82.1015 72.0262 82.2538 72.0262C82.3351 72.0262 82.4062 71.9842 82.4062 71.9316C82.4062 71.795 82.2437 71.7004 82.1624 71.7845Z" fill="white"/>
<path d="M81.0555 72.0998C80.9235 72.2365 80.9845 72.6359 81.1571 72.699C81.3907 72.7936 81.604 72.5518 81.5329 72.2575C81.472 72.0367 81.1977 71.9421 81.0555 72.0998Z" fill="white"/>
<path d="M81.2078 72.9934C81.2688 73.1827 81.4922 73.2142 81.4922 73.0355C81.4922 72.9409 81.4211 72.8673 81.3297 72.8673C81.2383 72.8673 81.1875 72.9198 81.2078 72.9934Z" fill="white"/>
<path d="M83.7266 73.8554C83.7266 74.2548 83.8891 74.4546 83.9906 74.1918C84.0719 73.971 83.9602 73.498 83.8281 73.498C83.7672 73.498 83.7266 73.6556 83.7266 73.8554Z" fill="white"/>
<path d="M76.3327 74.0867C75.9264 74.1603 75.4592 74.3285 75.2967 74.4441C74.9717 74.6859 74.535 75.4848 74.6569 75.611C74.8092 75.7582 75.2967 75.5794 75.2967 75.3797C75.2967 75.222 75.3678 75.18 75.6928 75.18C75.9975 75.18 76.1194 75.1274 76.2514 74.9172C76.4241 74.6438 76.9319 74.4546 77.2975 74.5282C77.5616 74.5808 77.6124 74.7595 77.3788 74.7595C77.1655 74.7595 77.1858 75.0328 77.4092 75.1274C77.5006 75.1695 77.9171 75.222 78.3335 75.2536C78.9733 75.3061 79.0546 75.3377 78.9022 75.4533C78.628 75.6635 78.821 75.8107 79.3694 75.8107C80.0194 75.8107 80.2733 75.9474 80.2733 76.3153C80.2733 76.6517 80.3647 76.7989 80.6085 76.8935C80.6999 76.9356 80.8217 77.0722 80.8827 77.2194C81.0046 77.5768 81.1772 77.6084 82.6702 77.5768C84.1631 77.5453 84.3866 77.4296 83.9092 76.9671C83.7772 76.8409 83.5538 76.7568 83.3405 76.7568C83.0866 76.7568 82.985 76.7043 82.9444 76.5466C82.9139 76.431 82.8327 76.3363 82.7616 76.3363C82.6905 76.3363 82.5788 76.2733 82.5077 76.1892C82.4467 76.1051 82.335 76.0525 82.2538 76.084C82.0811 76.1576 81.685 75.9369 80.8522 75.3377C80.4358 75.0433 80.0803 74.8646 79.8975 74.8646C79.5624 74.8646 79.3491 74.6964 79.4303 74.4967C79.4506 74.4126 79.3897 74.3074 79.2881 74.2444C79.1155 74.1603 78.8108 74.1077 77.4296 73.9815C77.2366 73.9605 76.7389 74.0131 76.3327 74.0867Z" fill="white"/>
<path d="M84.6 74.7069C84.6406 74.8646 84.6203 74.9698 84.5492 74.9698C84.4883 74.9698 84.4375 75.0118 84.4375 75.0749C84.4375 75.2431 84.9148 75.1905 84.9859 75.0118C85.0672 74.791 85.0672 74.8016 84.8844 74.6123C84.6508 74.3706 84.5289 74.4126 84.6 74.7069Z" fill="white"/>
<path d="M75.8657 75.5585C75.6118 75.8108 75.8352 76.0421 76.3024 76C76.6173 75.9685 76.668 75.9264 76.668 75.7057C76.668 75.4849 76.6173 75.4324 76.3532 75.4113C76.1602 75.3903 75.9673 75.4429 75.8657 75.5585Z" fill="white"/>
<path d="M85.3313 77.6819C84.8539 77.7135 84.468 77.9658 84.7523 78.0604C84.8336 78.0814 85.0367 78.155 85.1992 78.2076C85.4328 78.2811 85.4938 78.3547 85.4734 78.5334C85.4531 78.6596 85.4938 78.8383 85.5648 78.9224C85.7984 79.2273 85.5242 79.3219 84.8641 79.1852C84.0922 79.0065 83.7875 79.0591 83.7469 79.3534C83.7164 79.5426 83.7773 79.5952 84.0516 79.6373C84.2344 79.6583 84.4781 79.6898 84.5898 79.6898C85.3617 79.7003 86.2656 79.8475 86.2656 79.9631C86.2656 80.0998 86.4789 80.226 86.7328 80.226C86.8039 80.226 86.9359 80.0578 87.0172 79.858C87.1797 79.4796 87.3523 79.406 87.7078 79.6057C87.8703 79.7003 87.9516 79.6793 88.1039 79.5006L88.307 79.2798L88.7031 79.4901C89.2313 79.7739 89.2719 79.7634 89.475 79.3324C89.6781 78.8698 89.5461 78.6491 89.0586 78.6491C88.8555 78.6491 88.6625 78.565 88.5406 78.4283C88.4391 78.3127 88.1141 78.0919 87.8195 77.9553C87.2914 77.6924 86.4891 77.6083 85.3313 77.6819Z" fill="white"/>
<path d="M90.6327 79.2168C90.1655 79.7004 91.2319 80.1419 91.9835 79.774C92.471 79.5427 92.2983 79.385 91.3639 79.2273C90.9475 79.1537 90.7038 79.1432 90.6327 79.2168Z" fill="white"/>
<path d="M80.1719 79.4691C80.1719 79.5743 80.2836 79.774 80.4258 79.9107C80.6492 80.1314 80.7203 80.1419 81.025 80.0473C81.218 79.9843 81.482 79.9527 81.6141 79.9843C81.9187 80.0473 82.1727 79.7845 81.9797 79.6268C81.8477 79.5322 80.6797 79.2799 80.3344 79.2799C80.243 79.2799 80.1719 79.364 80.1719 79.4691Z" fill="white"/>
</g>
<path d="M143.667 96L155.333 96C156.254 96 157 95.2965 157 94.4286L157 89.5795C157 89.1627 156.824 88.763 156.512 88.4683L153.321 85.4603C153.009 85.1656 152.585 85 152.143 85L143.667 85C142.746 85 142 85.7014 142 86.5692L142 94.4292C142 95.2971 142.746 96 143.667 96Z" fill="white"/>
<path d="M146.352 90.848C146.352 90.912 146.348 90.9787 146.34 91.048H144.792C144.803 91.1867 144.847 91.2933 144.924 91.368C145.004 91.44 145.101 91.476 145.216 91.476C145.387 91.476 145.505 91.404 145.572 91.26H146.3C146.263 91.4067 146.195 91.5387 146.096 91.656C146 91.7733 145.879 91.8653 145.732 91.932C145.585 91.9987 145.421 92.032 145.24 92.032C145.021 92.032 144.827 91.9853 144.656 91.892C144.485 91.7987 144.352 91.6653 144.256 91.492C144.16 91.3187 144.112 91.116 144.112 90.884C144.112 90.652 144.159 90.4493 144.252 90.276C144.348 90.1027 144.481 89.9693 144.652 89.876C144.823 89.7827 145.019 89.736 145.24 89.736C145.456 89.736 145.648 89.7813 145.816 89.872C145.984 89.9627 146.115 90.092 146.208 90.26C146.304 90.428 146.352 90.624 146.352 90.848ZM145.652 90.668C145.652 90.5507 145.612 90.4573 145.532 90.388C145.452 90.3187 145.352 90.284 145.232 90.284C145.117 90.284 145.02 90.3173 144.94 90.384C144.863 90.4507 144.815 90.5453 144.796 90.668H145.652ZM147.729 92.028C147.524 92.028 147.34 91.9947 147.177 91.928C147.014 91.8613 146.884 91.7627 146.785 91.632C146.689 91.5013 146.638 91.344 146.633 91.16H147.361C147.372 91.264 147.408 91.344 147.469 91.4C147.53 91.4533 147.61 91.48 147.709 91.48C147.81 91.48 147.89 91.4573 147.949 91.412C148.008 91.364 148.037 91.2987 148.037 91.216C148.037 91.1467 148.013 91.0893 147.965 91.044C147.92 90.9987 147.862 90.9613 147.793 90.932C147.726 90.9027 147.63 90.8693 147.505 90.832C147.324 90.776 147.176 90.72 147.061 90.664C146.946 90.608 146.848 90.5253 146.765 90.416C146.682 90.3067 146.641 90.164 146.641 89.988C146.641 89.7267 146.736 89.5227 146.925 89.376C147.114 89.2267 147.361 89.152 147.665 89.152C147.974 89.152 148.224 89.2267 148.413 89.376C148.602 89.5227 148.704 89.728 148.717 89.992H147.977C147.972 89.9013 147.938 89.8307 147.877 89.78C147.816 89.7267 147.737 89.7 147.641 89.7C147.558 89.7 147.492 89.7227 147.441 89.768C147.39 89.8107 147.365 89.8733 147.365 89.956C147.365 90.0467 147.408 90.1173 147.493 90.168C147.578 90.2187 147.712 90.2733 147.893 90.332C148.074 90.3933 148.221 90.452 148.333 90.508C148.448 90.564 148.546 90.6453 148.629 90.752C148.712 90.8587 148.753 90.996 148.753 91.164C148.753 91.324 148.712 91.4693 148.629 91.6C148.549 91.7307 148.432 91.8347 148.277 91.912C148.122 91.9893 147.94 92.028 147.729 92.028ZM149.858 89.192V92H149.174V89.192H149.858ZM153.533 89.192V92H152.849V90.316L152.221 92H151.669L151.037 90.312V92H150.353V89.192H151.161L151.949 91.136L152.729 89.192H153.533Z" fill="url(#paint1_linear_1246_3518)"/>
</g>
<defs>
<linearGradient id="paint0_linear_1246_3518" x1="0" y1="0" x2="92.535" y2="148.236" gradientUnits="userSpaceOnUse">
<stop stop-color="#F2719C"/>
<stop offset="1" stop-color="#FF9473"/>
</linearGradient>
<linearGradient id="paint1_linear_1246_3518" x1="144" y1="91" x2="154" y2="91" gradientUnits="userSpaceOnUse">
<stop stop-color="#F2729B"/>
<stop offset="1" stop-color="#F98387"/>
</linearGradient>
<clipPath id="clip0_1246_3518">
<rect width="165" height="103" fill="white"/>
</clipPath>
<clipPath id="clip1_1246_3518">
<rect width="130" height="80" fill="white" transform="translate(17 12)"/>
</clipPath>
</defs>
</svg>
