<svg width="271" height="213" viewBox="0 0 271 213" fill="none" xmlns="http://www.w3.org/2000/svg">
<g clip-path="url(#clip0_185_227)">
<path opacity="0.1" d="M171.93 28.4601C157.522 27.9596 143.797 23.2844 130.691 18.1846C117.585 13.0849 104.604 7.40856 90.5401 4.69882C81.4931 2.9561 71.1495 2.70976 63.8581 7.58152C56.8458 12.2698 54.5788 20.365 53.3605 27.8731C52.4423 33.5232 51.9049 39.472 54.4171 44.7605C56.1597 48.4294 59.2563 51.5191 61.398 55.036C68.8486 67.277 63.5815 82.3692 55.5075 94.3193C51.7196 99.9117 47.3239 105.26 44.4048 111.217C41.4856 117.174 40.1291 124.024 42.6856 130.109C45.2213 136.137 51.2605 140.676 57.8162 143.865C71.1077 150.338 86.7731 152.191 102.037 153.242C135.841 155.564 169.825 154.552 203.72 153.551C216.263 153.179 228.86 152.801 241.199 150.852C248.053 149.769 255.128 148.053 260.102 143.907C266.418 138.645 267.983 129.732 263.755 123.133C256.656 112.064 237.028 109.315 232.069 97.4352C229.338 90.8968 232.142 83.6114 236.11 77.5472C244.625 64.5384 258.895 53.1255 259.646 38.2561C260.168 28.0356 253.301 17.8151 242.689 12.9826C231.571 7.91696 216.156 8.55377 207.951 16.9398C199.496 25.5827 184.653 28.9056 171.93 28.4601Z" fill="#00B1C9"/>
<path d="M131.258 196.482C131.258 196.482 119.258 175.121 101.175 168.965C93.5858 166.381 86.9622 161.523 82.4335 154.882C80.2905 151.729 78.4392 148.385 76.903 144.892" stroke="#535461" stroke-width="2" stroke-miterlimit="10"/>
<path d="M65.5335 140.94C67.5918 142.948 77.1867 145.026 77.1867 145.026C77.1867 145.026 74.8389 135.455 72.7728 133.445C71.7767 132.517 70.4584 132.017 69.1001 132.053C67.7418 132.089 66.4515 132.658 65.5053 133.637C64.5591 134.617 64.0323 135.93 64.0376 137.295C64.0429 138.66 64.5798 139.968 65.5335 140.94Z" fill="#FF8000"/>
<path d="M70.96 158.26C73.7774 158.821 82.9602 155.328 82.9602 155.328C82.9602 155.328 75.8044 148.577 72.9896 148.016C72.3144 147.868 71.6166 147.857 70.937 147.983C70.2574 148.109 69.6096 148.369 69.0315 148.75C68.4534 149.13 67.9566 149.623 67.5702 150.198C67.1837 150.774 66.9154 151.421 66.7808 152.102C66.6462 152.783 66.6481 153.484 66.7864 154.164C66.9248 154.844 67.1967 155.49 67.5863 156.063C67.9759 156.637 68.4754 157.126 69.0555 157.504C69.6357 157.881 70.2849 158.138 70.9652 158.26H70.96Z" fill="#FF8000"/>
<path d="M90.7249 176.995C93.438 176.052 99.5946 168.381 99.5946 168.381C99.5946 168.381 90.0284 166.182 87.3153 167.126C86.0527 167.608 85.0267 168.565 84.4545 169.795C83.8823 171.024 83.8088 172.429 84.2495 173.711C84.6903 174.994 85.6108 176.054 86.816 176.667C88.0212 177.28 89.4166 177.398 90.7066 176.995H90.7249Z" fill="#FF8000"/>
<path d="M108.854 187.8C111.687 187.331 119.054 180.819 119.054 180.819C119.054 180.819 109.994 177.027 107.161 177.496C105.823 177.745 104.635 178.512 103.854 179.631C103.072 180.75 102.758 182.133 102.98 183.481C103.202 184.83 103.941 186.038 105.039 186.845C106.137 187.653 107.507 187.996 108.854 187.8Z" fill="#FF8000"/>
<path d="M90.9559 147.848C90.9559 150.731 85.7619 159.099 85.7619 159.099C85.7619 159.099 80.5601 150.736 80.5575 147.854C80.5575 146.468 81.1053 145.14 82.0803 144.16C83.0553 143.181 84.3778 142.631 85.7567 142.631C87.1356 142.631 88.458 143.181 89.4331 144.16C90.4081 145.14 90.9559 146.468 90.9559 147.854V147.848Z" fill="#FF8000"/>
<path d="M112 160.747C111.142 163.499 103.694 169.919 103.694 169.919C103.694 169.919 101.221 160.378 102.079 157.626C102.26 156.945 102.576 156.308 103.008 155.752C103.441 155.197 103.981 154.736 104.595 154.396C105.21 154.056 105.887 153.844 106.585 153.774C107.283 153.704 107.988 153.776 108.658 153.987C109.327 154.198 109.948 154.543 110.481 155.001C111.014 155.459 111.45 156.021 111.762 156.652C112.073 157.284 112.254 157.972 112.294 158.676C112.333 159.38 112.231 160.084 111.992 160.747H112Z" fill="#FF8000"/>
<path d="M130.742 176.104C130.361 178.961 124.1 186.555 124.1 186.555C124.1 186.555 120.057 177.572 120.448 174.712C120.539 174.033 120.762 173.378 121.105 172.785C121.448 172.192 121.904 171.673 122.446 171.257C122.989 170.842 123.608 170.537 124.268 170.361C124.927 170.186 125.615 170.142 126.291 170.234C126.968 170.325 127.62 170.549 128.21 170.894C128.8 171.238 129.317 171.696 129.731 172.241C130.145 172.786 130.448 173.408 130.623 174.071C130.798 174.734 130.841 175.425 130.75 176.104H130.742Z" fill="#FF8000"/>
<path d="M65.5335 140.94C67.5918 142.948 77.1867 145.026 77.1867 145.026C77.1867 145.026 74.8389 135.455 72.7728 133.445C71.7767 132.517 70.4584 132.017 69.1001 132.053C67.7418 132.089 66.4515 132.658 65.5053 133.637C64.5591 134.617 64.0323 135.93 64.0376 137.295C64.0429 138.66 64.5798 139.968 65.5335 140.94Z" fill="#1A535C"/>
<path d="M70.96 158.26C73.7774 158.821 82.9602 155.328 82.9602 155.328C82.9602 155.328 75.8044 148.577 72.9896 148.016C72.3144 147.868 71.6166 147.857 70.937 147.983C70.2574 148.109 69.6096 148.369 69.0315 148.75C68.4534 149.13 67.9566 149.623 67.5702 150.198C67.1837 150.774 66.9154 151.421 66.7808 152.102C66.6462 152.783 66.6481 153.484 66.7864 154.164C66.9248 154.844 67.1967 155.49 67.5863 156.063C67.9759 156.637 68.4754 157.126 69.0555 157.504C69.6357 157.881 70.2849 158.138 70.9652 158.26H70.96Z" fill="#1A535C"/>
<path d="M90.7249 176.995C93.438 176.052 99.5946 168.381 99.5946 168.381C99.5946 168.381 90.0284 166.182 87.3153 167.126C86.0527 167.608 85.0267 168.565 84.4545 169.795C83.8823 171.024 83.8088 172.429 84.2495 173.711C84.6903 174.994 85.6108 176.054 86.816 176.667C88.0212 177.28 89.4166 177.398 90.7066 176.995H90.7249Z" fill="#1A535C"/>
<path d="M108.854 187.8C111.687 187.331 119.054 180.819 119.054 180.819C119.054 180.819 109.994 177.027 107.161 177.496C105.823 177.745 104.635 178.512 103.854 179.631C103.072 180.75 102.758 182.133 102.98 183.481C103.202 184.83 103.941 186.038 105.039 186.845C106.137 187.653 107.507 187.996 108.854 187.8Z" fill="#1A535C"/>
<path d="M90.9559 147.848C90.9559 150.731 85.7619 159.099 85.7619 159.099C85.7619 159.099 80.5601 150.736 80.5575 147.854C80.5575 146.468 81.1053 145.14 82.0803 144.16C83.0553 143.181 84.3778 142.631 85.7567 142.631C87.1356 142.631 88.458 143.181 89.4331 144.16C90.4081 145.14 90.9559 146.468 90.9559 147.854V147.848Z" fill="#1A535C"/>
<path d="M112 160.747C111.142 163.499 103.694 169.919 103.694 169.919C103.694 169.919 101.221 160.378 102.079 157.626C102.26 156.945 102.576 156.308 103.008 155.752C103.441 155.197 103.981 154.736 104.595 154.396C105.21 154.056 105.887 153.844 106.585 153.774C107.283 153.704 107.988 153.776 108.658 153.987C109.327 154.198 109.948 154.543 110.481 155.001C111.014 155.459 111.45 156.021 111.762 156.652C112.073 157.284 112.254 157.972 112.294 158.676C112.333 159.38 112.231 160.084 111.992 160.747H112Z" fill="#1A535C"/>
<path opacity="0.25" d="M130.742 176.104C130.361 178.961 124.1 186.555 124.1 186.555C124.1 186.555 120.057 177.572 120.448 174.712C120.539 174.033 120.762 173.378 121.105 172.785C121.448 172.192 121.904 171.673 122.446 171.257C122.989 170.842 123.608 170.537 124.268 170.361C124.927 170.186 125.615 170.142 126.291 170.234C126.968 170.325 127.62 170.549 128.21 170.894C128.8 171.238 129.317 171.696 129.731 172.241C130.145 172.786 130.448 173.408 130.623 174.071C130.798 174.734 130.841 175.425 130.75 176.104H130.742Z" fill="black"/>
<path d="M130.567 196.058C130.567 196.058 128.219 171.641 114.166 158.653C108.27 153.202 104.175 146.074 102.714 138.149C102.026 134.393 101.683 130.582 101.688 126.763" stroke="#535461" stroke-width="2" stroke-miterlimit="10"/>
<path d="M92.8856 118.526C93.9578 121.202 101.891 127.006 101.891 127.006C101.891 127.006 103.6 117.297 102.527 114.621C102.272 113.985 101.895 113.405 101.416 112.915C100.938 112.424 100.368 112.034 99.7397 111.765C99.111 111.496 98.4359 111.354 97.7526 111.347C97.0694 111.341 96.3916 111.469 95.7578 111.725C95.124 111.982 94.5467 112.361 94.0589 112.842C93.571 113.322 93.1821 113.895 92.9145 114.526C92.6468 115.157 92.5055 115.836 92.4988 116.522C92.492 117.208 92.6199 117.889 92.8752 118.526H92.8856Z" fill="#067182"/>
<path d="M90.8599 136.569C93.2078 138.228 103.009 138.771 103.009 138.771C103.009 138.771 99.1922 129.687 96.8443 128.026C96.2868 127.617 95.6538 127.324 94.9822 127.163C94.3107 127.003 93.614 126.979 92.933 127.091C92.2519 127.204 91.6 127.452 91.0153 127.821C90.4307 128.189 89.9249 128.671 89.5276 129.238C89.1303 129.805 88.8493 130.446 88.7012 131.123C88.553 131.801 88.5405 132.501 88.6646 133.183C88.7886 133.865 89.0466 134.516 89.4235 135.097C89.8004 135.678 90.2887 136.177 90.8599 136.567V136.569Z" fill="#067182"/>
<path d="M101.368 161.748C104.237 161.989 112.961 157.487 112.961 157.487C112.961 157.487 105.101 151.575 102.239 151.342C101.551 151.268 100.854 151.333 100.191 151.534C99.5281 151.734 98.9115 152.065 98.3776 152.508C97.8437 152.951 97.4033 153.497 97.0822 154.113C96.7611 154.73 96.5658 155.404 96.5078 156.097C96.4498 156.791 96.5301 157.488 96.7442 158.15C96.9583 158.811 97.3018 159.423 97.7545 159.95C98.2072 160.476 98.7601 160.906 99.3806 161.215C100.001 161.524 100.677 161.705 101.368 161.748Z" fill="#067182"/>
<path d="M113.586 179.002C116.367 179.726 125.73 176.77 125.73 176.77C125.73 176.77 118.976 169.615 116.197 168.892C114.871 168.569 113.472 168.783 112.301 169.488C111.13 170.192 110.283 171.331 109.94 172.658C109.598 173.985 109.788 175.394 110.471 176.581C111.153 177.768 112.273 178.637 113.588 179.002H113.586Z" fill="#067182"/>
<path d="M113.341 135.188C112.178 137.827 104.054 143.359 104.054 143.359C104.054 143.359 102.672 133.597 103.833 130.961C104.395 129.701 105.431 128.716 106.714 128.222C107.998 127.728 109.424 127.764 110.68 128.322C111.937 128.881 112.923 129.917 113.421 131.203C113.92 132.49 113.891 133.923 113.341 135.188Z" fill="#067182"/>
<path d="M127.376 155.548C125.482 157.715 116.083 160.553 116.083 160.553C116.083 160.553 117.671 150.823 119.565 148.658C120.016 148.143 120.563 147.722 121.175 147.419C121.787 147.116 122.453 146.937 123.134 146.893C123.815 146.849 124.498 146.939 125.144 147.16C125.79 147.381 126.387 147.727 126.9 148.18C127.413 148.632 127.832 149.182 128.133 149.797C128.435 150.412 128.613 151.081 128.657 151.765C128.701 152.449 128.611 153.135 128.391 153.784C128.171 154.433 127.826 155.033 127.376 155.548Z" fill="#067182"/>
<path d="M138.317 177.218C136.804 179.676 128.028 184.071 128.028 184.071C128.028 184.071 127.955 174.212 129.458 171.754C130.18 170.572 131.339 169.727 132.681 169.404C134.023 169.081 135.437 169.307 136.614 170.032C137.79 170.757 138.631 171.921 138.953 173.27C139.274 174.618 139.049 176.039 138.328 177.22L138.317 177.218Z" fill="#067182"/>
<path opacity="0.1" d="M155.966 213C194.695 213 226.091 210.732 226.091 207.934C226.091 205.137 194.695 202.869 155.966 202.869C117.237 202.869 85.8404 205.137 85.8404 207.934C85.8404 210.732 117.237 213 155.966 213Z" fill="#00B1C9"/>
<path d="M255.162 66.5248C255.365 65.9666 253.839 62.8691 253.839 62.7171C253.839 62.5651 252.261 60.8381 252.261 59.8737C252.261 58.9093 250.174 56.8285 250.174 56.8285C250.174 56.8285 247.375 55.6597 247.069 53.1203C246.764 50.5809 243.717 50.5311 243.709 50.5311C243.709 50.5311 243.722 50.2979 243.728 49.9493C243.728 49.1631 243.704 47.748 243.352 46.9775C242.83 45.8611 241.62 45.5047 241.62 45.5047C241.62 45.5047 241.315 43.5235 240.704 42.9129C240.363 42.5549 240.118 42.1151 239.993 41.6353C239.869 41.1555 239.868 40.6517 239.992 40.1717C240.297 39.21 239.585 36.7649 238.109 36.4164C236.632 36.0678 234.952 35.5018 234.952 35.5018C234.952 35.5018 234.788 35.5332 234.545 35.5673L234.341 35.5018C233.988 35.5679 233.631 35.6125 233.272 35.6354C232.96 35.6441 232.654 35.5431 232.408 35.3498C231.887 34.7916 227.778 33.725 227.014 33.725C226.249 33.725 224.06 32.7082 224.06 32.7082C224.06 32.7082 222.534 31.542 221.874 31.0336C221.259 30.5645 220.124 28.6593 219.96 28.3789L219.939 28.3422H219.926C219.77 27.9814 219.636 27.6112 219.527 27.2337C219.503 27.155 219.485 27.0764 219.464 26.9978C220.208 26.2125 220.845 25.3312 221.358 24.3772C221.41 24.2776 221.457 24.1754 221.507 24.0758C221.619 24.0755 221.731 24.0578 221.838 24.0234C221.883 24.0082 221.927 23.9907 221.971 23.971C222.487 23.698 222.875 23.232 223.051 22.6738C223.087 22.5637 223.119 22.451 223.147 22.3383L223.171 22.2256C223.189 22.1496 223.205 22.071 223.22 21.9924C223.236 21.9138 223.234 21.9059 223.241 21.8614C223.249 21.8168 223.265 21.7094 223.275 21.6334C223.286 21.5574 223.275 21.5469 223.294 21.505C223.307 21.408 223.317 21.3136 223.33 21.2167C223.372 20.8577 223.414 20.4986 223.489 20.1475C223.488 20.1423 223.488 20.1369 223.489 20.1317C223.792 18.7533 224.619 17.5897 225.203 16.3161C225.287 16.1327 225.365 15.9466 225.438 15.7605C225.511 15.5745 225.579 15.3517 225.639 15.1421C225.657 15.0792 225.67 15.0163 225.688 14.9534C225.727 14.7996 225.761 14.645 225.79 14.4895C225.803 14.424 225.816 14.3585 225.827 14.2903C225.863 14.0807 225.892 13.8684 225.907 13.6562C226.012 12.4427 225.834 11.2214 225.386 10.0895C225.005 9.13556 224.436 8.27599 224.05 7.3247C223.466 5.87811 223.312 4.24283 222.597 2.86962C221.4 0.560839 218.577 -0.594861 216.258 0.272569C215.152 0.686629 214.192 1.49116 213.067 1.84495C211.565 2.32715 209.955 1.9655 208.398 1.74799C206.84 1.53047 205.121 1.51213 203.869 2.53418C202.426 3.71084 202.043 5.92266 200.681 7.21201C200.112 7.75448 199.405 8.10041 198.805 8.60095C198.384 8.94098 198.059 9.38661 197.864 9.89292C197.864 9.92961 197.84 9.9663 197.83 10.003C197.819 10.0397 197.806 10.0895 197.796 10.134C197.785 10.1786 197.778 10.2362 197.77 10.286C197.762 10.3358 197.77 10.3568 197.77 10.3908C197.762 10.478 197.762 10.5657 197.77 10.6529C197.778 10.741 197.792 10.8285 197.811 10.915C197.816 10.9381 197.822 10.9608 197.83 10.9831C197.847 11.0558 197.868 11.1276 197.892 11.198C197.892 11.198 197.892 11.2242 197.892 11.2373C197.921 11.3159 197.952 11.3919 197.984 11.4705L198.033 11.5832C198.033 11.6147 198.062 11.6461 198.075 11.6802C198.273 12.0555 198.432 12.4508 198.547 12.8595C198.612 13.1202 198.596 13.3946 198.5 13.6457C198.364 13.929 198.172 14.1821 197.937 14.3899C196.923 15.4479 196.141 16.7063 195.638 18.085C195.581 18.2423 195.526 18.3995 195.474 18.5594C195.474 18.5594 195.474 18.5594 195.474 18.5725L195.542 18.5908C195.688 18.6331 195.837 18.6655 195.988 18.6878C196.074 18.6878 196.16 18.7087 196.249 18.714C196.599 18.7342 196.949 18.7078 197.292 18.6354C197.381 18.617 197.467 18.5961 197.553 18.5725C197.907 18.4765 198.252 18.3493 198.584 18.1925C198.584 18.2973 198.584 18.3995 198.584 18.5043C198.584 18.562 198.584 18.6196 198.584 18.6773C198.586 20.9233 199.213 23.1241 200.393 25.032C201.573 26.9399 203.259 28.4792 205.262 29.4769C205.278 29.5896 205.291 29.6971 205.306 29.8071C205.322 29.9172 205.33 29.9932 205.34 30.0849L205.202 29.9513C205.202 29.9513 204.286 29.4953 203.42 30.8161C202.554 32.1369 200.926 32.7449 200.926 32.7449C200.926 32.7449 191.663 34.2177 191.308 35.4362L186.98 35.6983C186.98 35.6983 185.454 35.9001 185.303 39.1051C185.151 42.3102 184.335 42.6089 184.335 42.6089C184.335 42.6089 182.553 45.7537 182.707 47.3811C182.861 49.0085 181.332 49.8183 181.332 49.8183L181.129 52.701C181.129 52.701 179.449 52.4389 178.989 54.428C178.53 56.4171 177.719 57.3107 177.719 57.3107C177.719 57.3107 174.917 59.6483 174.766 61.6269L173.036 62.6935C173.036 62.6935 169.014 61.7789 168.098 60.1541L167.816 59.892C167.807 59.8799 167.799 59.8667 167.793 59.8527C167.792 59.8588 167.792 59.865 167.793 59.8711C167.193 59.3024 165.915 58.1074 166.11 58.3825C166.228 58.6381 166.257 58.9259 166.194 59.2002L165.894 58.8673L165.093 57.9737C165.093 57.9737 159.111 51.071 155.294 50.5861L155.005 50.0122C154.926 49.857 154.789 49.7396 154.625 49.6855C154.46 49.6315 154.28 49.6453 154.126 49.7239L148.368 52.6067C148.291 52.6448 148.223 52.6979 148.167 52.7627C148.11 52.8276 148.068 52.903 148.04 52.9846C148.013 53.0661 148.002 53.1523 148.008 53.2381C148.015 53.3239 148.038 53.4077 148.076 53.4846L148.72 54.7556H148.707C148.7 54.7592 148.693 54.7642 148.688 54.7705C148.683 54.7767 148.679 54.784 148.676 54.7918C148.674 54.7997 148.673 54.808 148.674 54.8162C148.675 54.8243 148.677 54.8323 148.681 54.8394L148.908 55.2876C148.916 55.3025 148.928 55.3139 148.944 55.3193C148.96 55.3247 148.977 55.3236 148.992 55.3164L149.229 55.7855C149.213 55.7939 149.2 55.8085 149.194 55.8262C149.188 55.8439 149.19 55.8631 149.198 55.8798L149.628 56.7289C149.632 56.7374 149.638 56.745 149.645 56.7512C149.652 56.7574 149.66 56.7621 149.668 56.7651C149.677 56.768 149.687 56.7691 149.696 56.7683C149.705 56.7675 149.714 56.7648 149.722 56.7604L149.897 57.1037C149.882 57.112 149.87 57.1259 149.865 57.1425C149.86 57.159 149.861 57.177 149.868 57.1928L150.307 58.0576C150.31 58.0656 150.315 58.0729 150.322 58.0788C150.328 58.0847 150.336 58.0891 150.344 58.0919C150.353 58.0946 150.362 58.0955 150.37 58.0946C150.379 58.0936 150.388 58.0908 150.395 58.0864L154.569 66.3702C154.648 66.5254 154.784 66.643 154.949 66.6974C155.114 66.7519 155.293 66.7389 155.448 66.6611L159.867 64.4414L160.024 64.5567L161.328 66.2418C161.107 66.7659 160.921 67.2901 160.765 67.7592C160.761 67.7743 160.757 67.7891 160.752 67.8037C160.718 67.9033 160.687 68.0029 160.658 68.0972L160.627 68.1968C160.595 68.2938 160.567 68.3881 160.541 68.4772L160.494 68.6449C160.494 68.6764 160.473 68.7105 160.465 68.7419C160.321 69.2503 160.23 69.6434 160.181 69.8609L159.844 69.7561L160.173 69.8976C160.173 69.9159 160.173 69.9369 160.173 69.95C160.157 70.0182 160.152 70.0575 160.152 70.0575C160.251 70.1046 160.355 70.1492 160.465 70.1937C162.247 70.9799 171.145 74.8951 171.602 75.49C172.11 76.1504 175.47 78.0792 178.525 76.4544C181.58 74.8296 182.24 72.3427 182.24 72.3427C182.24 72.3427 185.193 68.2283 185.295 67.6255C185.397 67.0228 187.687 66.3152 187.687 66.3152C187.687 66.3152 187.89 73.1288 186.719 75.608C185.548 78.0871 183.359 89.1121 183.359 89.1121C183.502 89.0837 183.647 89.0749 183.792 89.0859L183.664 89.7227C183.842 89.689 184.024 89.689 184.202 89.7227C184.04 90.9727 183.106 96.7984 183.106 96.7984C183.106 96.7984 182.801 99.44 182.29 100.352C181.778 101.264 181.731 106.039 181.731 106.039L180.917 109.493C180.917 109.493 181.024 109.731 181.225 110.088V110.101C181.225 110.101 182.099 112.051 183.573 113.143C183.505 113.683 183.368 114.212 183.163 114.716C182.642 115.73 182.757 117.153 182.757 117.153C182.757 117.153 181.893 121.06 181.992 122.179C182.091 123.298 181.413 126.037 181.413 126.037L180.497 134.871C180.497 134.871 179.887 142.536 180.192 144.62C180.497 146.703 179.989 149.544 179.989 149.544C179.989 149.544 180.599 155.587 180.445 156.245C180.291 156.903 179.529 159.749 179.989 161.324C180.448 162.899 180.192 167.212 180.192 167.212C180.192 167.212 180.497 172.902 180.852 174.728C181.207 176.555 180.75 178.892 180.75 178.892C180.75 178.892 180.393 182.802 180.229 182.802C180.064 182.802 178.752 185.491 181.45 188.133C184.147 190.774 182.483 190.36 182.483 190.36C182.483 190.36 180.343 189.294 180.599 191.477C180.839 193.555 181.176 193.012 181.207 192.955L180.685 194.624C180.685 194.624 180.818 194.64 181.043 194.674L180.748 195.03C180.439 195.418 180.095 195.776 179.72 196.1C179.109 196.556 179.057 197.57 179.057 197.57C179.057 197.57 175.293 201.684 171.782 203.765C169.935 204.86 168.338 205.788 167.644 206.553C167.018 207.242 167.122 207.801 168.427 208.233C171.176 209.148 176.01 209.604 179.469 208.437C181.534 207.746 183.39 206.541 184.864 204.934C184.864 204.934 187.056 203.815 189.192 204.221C191.329 204.627 195.604 201.836 195.604 201.836L195.526 201.115L195.299 199.042C195.299 199.042 194.778 198.432 194.942 197.774C195.012 197.475 194.905 196.705 194.767 195.94C194.731 195.738 194.691 195.539 194.652 195.35L195.044 195.277C195.044 195.277 194.538 192.687 195.453 192.179C196.369 191.671 196.113 185.019 196.113 185.019C196.113 185.019 194.942 183.497 194.331 183.243C193.721 182.988 194.279 179.836 194.384 179.435C194.488 179.034 195.299 171.159 195.299 171.159C195.299 171.159 194.994 168.672 195.401 167.605C195.808 166.539 194.892 162.427 194.892 162.427C194.892 162.427 194.587 161.919 195.153 161.308C195.719 160.697 195.5 155.283 195.5 155.283C195.5 155.283 195.451 152.542 195.451 151.829C195.451 151.116 196.061 148.53 196.619 147.668C197.178 146.805 196.825 144.111 196.825 144.111L196.857 143.91C196.857 143.834 196.883 143.734 196.901 143.621L196.948 143.359C197.192 141.872 197.523 140.4 197.939 138.951C198.602 136.818 199.366 133.063 199.366 133.063L204.109 120.651L204.164 120.505C204.164 120.505 206.35 124.567 206.35 128.327C206.35 128.327 206.913 132.845 206.759 134.064C206.605 135.282 207.219 141.019 207.219 141.019C207.219 141.019 207.879 149.243 207.879 149.599C207.879 149.955 208.692 156.303 209.204 157.27C209.715 158.237 208.682 161.177 208.387 161.481C208.092 161.785 208.489 169.251 208.489 169.251C208.489 169.251 207.725 175.14 207.573 176.358C207.422 177.577 206.809 182.249 207.312 184.079C207.816 185.908 207.618 186.159 207.618 186.159C207.618 186.159 209.444 188.038 208.382 188.19C207.32 188.342 205.687 189.713 206.345 191.896C207.002 194.079 208.588 197.331 208.588 197.331C208.588 197.331 208.904 197.26 209.431 197.153V197.756L209.493 200.783C209.493 200.783 209.848 203.665 209.645 204.339C209.496 204.818 209.292 207.096 209.193 208.27C209.157 208.705 209.136 208.996 209.136 208.996C209.136 208.996 209.136 211.684 214.784 210.875C220.432 210.065 221.452 207.827 221.452 207.827L221.494 207.546C221.577 207.022 221.754 205.945 221.908 205.34C222.114 204.525 220.283 200.869 220.283 200.869C220.283 200.869 219.975 198.385 219.467 197.824C219.256 197.502 219.116 197.138 219.057 196.757C219.01 196.553 218.971 196.341 218.937 196.131C219.07 196.149 219.198 196.173 219.313 196.199C219.313 196.199 219.007 194.422 220.181 193.861C221.355 193.301 221.045 192.137 220.894 191.629C220.742 191.12 221.35 188.28 221.35 188.28C221.268 187.997 221.263 187.697 221.334 187.412C221.406 187.126 221.552 186.865 221.757 186.655C222.472 185.942 223.03 180.965 223.03 180.965L223.153 161.795C223.153 161.795 223.51 158.389 223.103 157.021C222.696 155.653 222.287 153.011 222.842 152.303C223.398 151.596 222.894 148.294 222.894 148.294C222.894 148.294 222.894 141.336 223.656 139.612C224.418 137.887 224.178 126.967 224.178 126.967L224.379 119.81C224.379 119.81 226.041 118.238 225.647 109.988C227.421 109.878 229.421 109.812 229.724 110.059C230.282 110.515 233.898 112.852 236.035 111.369C236.494 111.165 238.578 109.388 238.578 109.388L237.681 94.1647C238.242 95.0138 238.581 95.5772 238.581 95.5772C238.581 93.444 244.581 86.5386 244.581 86.5386C244.581 86.5386 250.179 79.2795 251.4 78.4147C252.621 77.5499 255.013 72.9821 255.013 72.9821C255.368 72.1107 255.776 71.2626 256.237 70.4427C256.79 69.5229 254.958 67.0857 255.162 66.5248ZM242.029 71.8578C240.503 72.0098 237.297 75.5136 237.245 76.2736C237.219 76.6746 236.882 77.2144 236.569 77.639C236.546 77.3323 236.52 77.0205 236.494 76.7034C236.134 72.2169 235.748 66.745 235.925 66.2208C236.23 65.3062 236.126 61.1945 236.126 61.1945L236.183 61.1159C237.211 64.3025 240.396 68.0605 240.396 68.0605C240.396 68.0605 240.957 69.6853 241.617 69.7351C242.277 69.7849 242.029 71.8578 242.029 71.8578Z" fill="url(#paint0_linear_185_227)"/>
<path d="M160.427 70.6969C160.427 70.6969 162.281 60.9219 168.253 60.8721L172.614 69.8923L169.706 71.9076C169.706 71.9076 163.385 72.1094 160.427 70.6969Z" fill="#65617D"/>
<path opacity="0.1" d="M172.614 69.8896L169.706 71.9075C169.706 71.9075 165.271 72.049 162.078 71.2628C161.51 71.1296 160.957 70.94 160.427 70.6968C160.427 70.6968 160.427 70.6444 160.46 70.5395C160.46 70.5273 160.46 70.5151 160.46 70.5028C160.735 69.276 161.113 68.0749 161.59 66.9126C161.773 66.4749 161.981 66.0216 162.206 65.5708C163.08 63.8805 164.308 62.2243 165.988 61.404C166.61 61.0969 167.287 60.9187 167.979 60.8799H168.156H168.245L168.339 61.079L169.815 64.1268L172.614 69.8896Z" fill="black"/>
<path d="M222.174 110.507C222.174 110.507 228.435 109.902 228.996 110.355C229.557 110.808 233.11 113.128 235.215 111.665C237.32 110.203 235.917 105.114 235.917 104.912C235.917 104.71 235.719 97.5061 235.719 97.5061L231.954 92.4168L227.24 83.5066L217.609 82.5501L217.87 96.7015L217.82 103.958L222.174 110.507Z" fill="#65617D"/>
<path opacity="0.1" d="M222.174 110.507C222.174 110.507 228.435 109.902 228.996 110.355C229.557 110.808 233.11 113.128 235.215 111.665C237.32 110.203 235.917 105.114 235.917 104.912C235.917 104.71 235.719 97.5061 235.719 97.5061L231.954 92.4168L227.24 83.5066L217.609 82.5501L217.87 96.7015L217.82 103.958L222.174 110.507Z" fill="black"/>
<path d="M166.995 60.6204C166.995 60.6204 166.497 66.7685 162.683 66.868C162.683 66.868 161.603 66.2129 160.15 65.1227C156.8 62.6043 151.484 57.764 152.953 53.2617C155.06 46.8123 165.292 58.7048 165.292 58.7048L166.074 59.5905L166.995 60.6204Z" fill="#F89D8F"/>
<path opacity="0.1" d="M166.995 60.6205C166.995 60.6205 166.497 66.7685 162.683 66.8681C162.683 66.8681 161.603 66.2129 160.15 65.1228L159.824 64.7035C160.47 65.0425 161.182 65.2348 161.911 65.2669C162.868 65.2879 163.945 64.9314 164.637 63.5425C165.033 62.7511 165.382 61.9364 165.68 61.1027C165.863 60.6142 165.993 60.1072 166.066 59.5906L166.995 60.6205Z" fill="black"/>
<path d="M165.342 71.7555L164.483 70.6469L161.588 66.9125L160.116 65.0047C160.762 65.3453 161.475 65.5386 162.203 65.5708C163.161 65.5917 164.238 65.2353 164.932 63.8438C165.329 63.0525 165.677 62.2377 165.975 61.404C166.453 60.0438 166.442 59.3441 166.275 59.1083C166.108 58.8724 167.34 60.0229 167.932 60.5863L167.953 60.6073C168.122 60.7645 168.232 60.8693 168.232 60.8693L168.334 61.0738L169.787 63.9931L169.802 64.1163C169.935 65.044 170.426 70.9221 165.342 71.7555Z" fill="#E7EFFD"/>
<path d="M195.389 201.461C195.389 201.461 191.176 204.234 189.071 203.82C186.966 203.406 184.805 204.528 184.805 204.528C183.354 206.12 181.524 207.317 179.486 208.005C176.077 209.163 171.313 208.71 168.605 207.801C167.322 207.374 167.22 206.818 167.836 206.137C168.522 205.374 170.095 204.454 171.916 203.367C175.375 201.302 179.087 197.219 179.087 197.219C179.087 197.219 179.137 196.212 179.739 195.759C180.109 195.442 180.447 195.091 180.752 194.711C181.289 194.071 181.795 193.4 181.795 193.4L194.186 193.804C194.186 193.804 194.398 194.703 194.562 195.62C194.7 196.372 194.807 197.137 194.737 197.433C194.586 198.086 195.089 198.691 195.089 198.691L195.311 200.749L195.389 201.461Z" fill="#65617D"/>
<path d="M221.327 204.936C221.178 205.539 220.998 206.621 220.917 207.13C220.889 207.303 220.876 207.408 220.876 207.408C220.876 207.408 219.871 209.625 214.304 210.432C208.737 211.239 208.737 208.566 208.737 208.566C208.737 208.566 208.758 208.278 208.795 207.845C208.891 206.666 209.092 204.41 209.238 203.93C209.439 203.275 209.089 200.403 209.089 200.403L209.029 197.399L208.988 195.303L218.217 194.344C218.276 195.037 218.375 195.727 218.515 196.409C218.573 196.784 218.711 197.141 218.919 197.457C219.42 198.015 219.723 200.481 219.723 200.481C219.723 200.481 221.523 204.129 221.327 204.936Z" fill="#65617D"/>
<path opacity="0.1" d="M194.197 193.801C194.197 193.801 194.408 194.7 194.572 195.617C193.234 195.864 187.383 196.883 185.919 196.17C184.265 195.363 180.702 194.91 180.702 194.91L180.762 194.705C181.299 194.066 181.805 193.395 181.805 193.395L194.197 193.801Z" fill="black"/>
<path opacity="0.1" d="M218.511 196.419C216.163 196.021 211.045 196.985 209.025 197.399L208.984 195.303L218.213 194.344C218.272 195.041 218.371 195.734 218.511 196.419Z" fill="black"/>
<path d="M223.73 120.03L223.529 127.135C223.529 127.135 223.79 137.969 223.028 139.683C222.266 141.396 222.274 148.299 222.274 148.299C222.274 148.299 222.778 151.575 222.225 152.277C221.672 152.98 222.073 155.606 222.485 156.966C222.898 158.326 222.532 161.704 222.532 161.704L222.433 180.751C222.433 180.751 221.883 185.688 221.179 186.395C220.976 186.605 220.833 186.864 220.763 187.147C220.692 187.43 220.698 187.727 220.779 188.007C220.779 188.007 220.177 190.827 220.328 191.333C220.479 191.838 220.779 192.994 219.626 193.547C218.473 194.1 218.771 195.866 218.771 195.866C216.013 195.211 208.19 196.977 208.19 196.977C208.19 196.977 206.624 193.751 205.98 191.584C205.336 189.417 206.935 188.057 207.986 187.915C209.037 187.774 207.235 185.897 207.235 185.897C207.235 185.897 207.436 185.635 206.935 183.832C206.434 182.029 207.034 177.38 207.196 176.172C207.357 174.964 208.098 169.118 208.098 169.118C208.098 169.118 207.699 161.712 207.999 161.408C208.299 161.104 209.304 158.182 208.803 157.215C208.302 156.248 207.498 149.958 207.498 149.615C207.498 149.271 206.846 141.098 206.846 141.098C206.846 141.098 206.246 135.403 206.395 134.195C206.544 132.987 205.993 128.503 205.993 128.503C205.993 124.771 203.838 120.741 203.838 120.741L203.783 120.885L199.122 133.202C199.122 133.202 198.37 136.928 197.716 139.046C197.305 140.483 196.978 141.944 196.737 143.42L196.693 143.682C196.675 143.794 196.659 143.891 196.649 143.965L196.617 144.169C196.617 144.169 196.967 146.839 196.416 147.696C195.866 148.553 195.24 151.122 195.24 151.837C195.24 152.552 195.287 155.267 195.287 155.267C195.287 155.267 195.49 160.658 194.937 161.263C194.384 161.869 194.676 162.372 194.676 162.372C194.676 162.372 195.582 166.452 195.18 167.511C194.778 168.57 195.081 171.036 195.081 171.036C195.081 171.036 194.285 178.83 194.196 179.238C194.108 179.647 193.544 182.766 194.144 183.017C194.744 183.269 195.9 184.781 195.9 184.781C195.9 184.781 196.161 191.382 195.25 191.886C194.34 192.389 194.846 194.96 194.846 194.96C194.846 194.96 187.575 196.372 185.919 195.565C184.262 194.758 180.701 194.304 180.701 194.304L181.2 192.648C181.171 192.706 180.84 193.243 180.602 191.181C180.341 189.013 182.46 190.072 182.46 190.072C182.46 190.072 184.114 190.476 181.453 187.855C178.792 185.234 180.099 182.564 180.25 182.564C180.401 182.564 180.751 178.685 180.751 178.685C180.751 178.685 181.202 176.366 180.85 174.553C180.498 172.739 180.201 167.094 180.201 167.094C180.201 167.094 180.461 162.812 180 161.25C179.538 159.688 180.3 156.866 180.451 156.208C180.602 155.55 180 149.557 180 149.557C180 149.557 180.503 146.737 180.201 144.672C179.898 142.607 180.503 134.997 180.503 134.997L181.406 126.228C181.406 126.228 182.055 123.508 181.956 122.399C181.857 121.291 182.708 117.42 182.708 117.42C182.708 117.42 182.608 116.008 183.109 115.001C183.61 113.995 183.814 110.669 183.814 110.669L188.629 99.5816L190.977 89.8066L222.83 89.5052C222.83 89.5052 222.947 90.3517 223.138 91.8926C223.328 93.4336 223.605 95.7161 223.92 98.5307C224.197 101.088 224.499 104.097 224.797 107.441C225.736 118.115 223.73 120.03 223.73 120.03Z" fill="#1A535C"/>
<path d="M220.772 31.7961L213.345 39.7602C213.345 39.7602 203.818 35.9289 204.819 34.6185C205.208 34.1101 205.145 32.522 204.921 30.7452C204.569 27.9569 203.818 24.7414 203.818 24.7414C203.818 24.7414 220.469 22.0211 219.063 24.841C218.541 25.8735 218.64 27.0764 218.959 28.1875C219.365 29.4807 219.978 30.6993 220.772 31.7961Z" fill="#F89D8F"/>
<path opacity="0.1" d="M219.063 24.841C218.541 25.8735 218.307 25.9731 218.627 27.0842C216.449 29.4428 213.671 31.9979 210.238 31.9979C208.393 32.0008 206.572 31.5719 204.921 30.7452C204.569 27.9569 203.818 24.7414 203.818 24.7414C203.818 24.7414 220.469 22.0211 219.063 24.841Z" fill="black"/>
<path d="M222.175 19.6916C222.198 21.2815 221.907 22.8602 221.317 24.3359C220.728 25.8116 219.852 27.1549 218.741 28.2875C217.63 29.4201 216.306 30.3196 214.846 30.9335C213.386 31.5474 211.819 31.8636 210.236 31.8636C208.653 31.8636 207.086 31.5474 205.626 30.9335C204.166 30.3196 202.842 29.4201 201.731 28.2875C200.62 27.1549 199.744 25.8116 199.155 24.3359C198.565 22.8602 198.274 21.2815 198.297 19.6916C198.297 19.634 198.297 19.5763 198.297 19.5187C198.32 16.3382 199.6 13.2971 201.855 11.0643C204.109 8.83161 207.155 7.59017 210.321 7.61311C213.487 7.63604 216.514 8.92148 218.737 11.1866C220.959 13.4518 222.195 16.5111 222.172 19.6916H222.175Z" fill="#F89D8F"/>
<path opacity="0.1" d="M223.903 98.8216C222.322 98.8347 217.055 98.8793 211.17 98.9736H211.1L209.154 99.005H209.094C202.115 99.1177 195.239 97.7471 192.479 98.0092C186.609 98.5622 194.584 92.5661 194.584 92.5661C194.584 92.5661 200.936 94.2696 207.954 93.9236L209.641 93.8372C214.976 93.5332 220.337 93.03 223.134 92.1862C223.329 93.7428 223.601 96.0175 223.903 98.8216Z" fill="black"/>
<path d="M223.903 98.5202C222.322 98.5202 217.055 98.5779 211.17 98.6696H211.1L209.154 98.7037H209.094C202.115 98.8164 195.239 97.4458 192.479 97.7052C186.609 98.2582 194.584 92.2648 194.584 92.2648C194.584 92.2648 200.936 93.9656 207.954 93.6223L209.641 93.5332C214.976 93.2318 220.337 92.726 223.134 91.8822C223.329 93.4388 223.601 95.7057 223.903 98.5202Z" fill="#E3A79F"/>
<path opacity="0.1" d="M207.027 35.1216L197.797 39.4562L190.675 94.783C190.675 94.783 194.889 92.8699 197.296 94.0781C199.704 95.2862 207.126 94.1803 207.126 94.1803C207.126 94.1803 212.544 93.8763 213.348 94.4816C214.151 95.087 223.579 91.9632 223.579 91.9632C223.579 91.9632 225.285 88.1318 223.981 87.5291C222.677 86.9263 224.383 80.9775 224.383 80.9775L223.579 41.0679L221.975 35.9288L217.66 33.3082L213.241 36.8355L211.154 37.1369L207.027 35.1216Z" fill="black"/>
<path d="M207.027 34.5166L197.797 38.8511L190.675 94.1832C190.675 94.1832 194.889 92.2675 197.296 93.4783C199.704 94.689 207.126 93.5778 207.126 93.5778C207.126 93.5778 212.544 93.2765 213.348 93.8792C214.151 94.482 223.579 91.3608 223.579 91.3608C223.579 91.3608 225.285 87.532 223.981 86.9267C222.677 86.3213 224.383 80.3751 224.383 80.3751L223.579 40.4602L221.975 35.3211L217.66 32.7005L213.241 36.2305L211.154 36.5292L207.027 34.5166Z" fill="#E7EFFD"/>
<path opacity="0.1" d="M206.875 37.0873C206.875 37.0873 209.533 40.2609 209.483 40.916C209.434 41.5712 209.335 43.1331 209.335 43.1331L207.326 47.216C207.326 47.216 206.222 52.3053 206.222 53.364C206.222 54.4228 204.467 63.5845 204.467 63.5845L202.361 77.694L199.703 96.1878L202.411 100.874L205.622 98.1533L209.885 65.1962L210.788 58.697C210.788 58.697 211.74 47.0064 211.74 45.7983C211.74 44.5901 211.189 41.4139 211.189 41.4139C211.189 41.4139 211.842 38.3897 214.549 37.6848C217.257 36.9798 214.349 37.5328 214.349 37.5328L212.783 36.2722L211.429 36.8278C211.429 36.8278 207.678 35.6774 206.875 37.0873Z" fill="black"/>
<path d="M206.576 36.7912C206.576 36.7912 209.234 39.9648 209.184 40.6199C209.135 41.2751 209.033 42.837 209.033 42.837L207.027 46.9199C207.027 46.9199 205.937 52.004 205.937 53.0601C205.937 54.1162 204.181 63.2806 204.181 63.2806L202.06 77.411L199.415 95.8917L202.125 100.58L205.321 97.852L209.589 64.9027L210.491 58.4036C210.491 58.4036 211.444 46.7129 211.444 45.5022C211.444 44.2914 210.893 41.1179 210.893 41.1179C210.893 41.1179 211.545 38.0963 214.253 37.3887C216.961 36.6811 214.052 37.2393 214.052 37.2393L212.487 35.9788L211.154 36.5291C211.154 36.5291 207.379 35.3734 206.576 36.7912Z" fill="#1A535C"/>
<path opacity="0.1" d="M204.818 31.4948C204.818 31.4948 204.416 31.7962 204.317 33.8114C204.218 35.8267 202.812 40.363 202.812 40.363C202.812 40.363 208.03 36.7334 210.638 37.137L204.818 31.4948Z" fill="black"/>
<path d="M204.818 30.8894C204.818 30.8894 204.416 31.1907 204.317 33.2086C204.218 35.2265 202.812 39.7602 202.812 39.7602C202.812 39.7602 208.03 36.1332 210.638 36.5368L204.818 30.8894Z" fill="#E7EFFD"/>
<path opacity="0.1" d="M219.066 29.8806L210.838 37.1371C210.838 37.1371 217.762 41.2698 218.665 42.2788C219.567 43.2877 220.47 32.4016 220.47 32.4016L219.066 29.8806Z" fill="black"/>
<path d="M219.365 29.2776L211.153 36.5289C211.153 36.5289 218.074 40.659 218.979 41.668C219.885 42.6769 220.787 31.7908 220.787 31.7908L219.365 29.2776Z" fill="#E7EFFD"/>
<path opacity="0.1" d="M205.119 31.4947C205.119 31.4947 204.216 31.0413 203.363 32.3516C202.51 33.662 200.906 34.2647 200.906 34.2647C200.906 34.2647 191.775 35.727 191.425 36.9351L187.163 37.1972C187.163 37.1972 185.658 37.3964 185.506 40.5726C185.355 43.7488 184.544 44.0423 184.544 44.0423C184.544 44.0423 182.788 47.1661 182.937 48.7778C183.085 50.3895 181.583 51.1966 181.583 51.1966L187.844 67.573C187.844 67.573 188.045 74.3264 186.889 76.795C185.733 79.2636 183.578 90.1995 183.578 90.1995C183.578 90.1995 184.484 89.9977 184.431 90.6005C184.379 91.2032 183.328 97.8072 183.328 97.8072C183.328 97.8072 183.028 100.428 182.527 101.335C182.026 102.241 181.974 106.979 181.974 106.979L181.171 110.405C181.171 110.405 183.078 114.689 185.986 114.074C188.895 113.458 194.196 102.045 194.196 102.045L197.556 89.699L200.165 77.5052L200.916 69.2423L202.121 50.9503L203.877 38.8561C203.877 38.8561 205.823 32.3516 205.119 31.4947Z" fill="black"/>
<path d="M204.818 30.8895C204.818 30.8895 203.916 30.4361 203.063 31.7464C202.21 33.0567 200.605 33.6621 200.605 33.6621C200.605 33.6621 191.475 35.1218 191.125 36.3325L186.86 36.5946C186.86 36.5946 185.355 36.7964 185.206 39.97C185.057 43.1436 184.251 43.4476 184.251 43.4476C184.251 43.4476 182.495 46.5714 182.647 48.1831C182.798 49.7947 181.293 50.6019 181.293 50.6019L187.554 66.9782C187.554 66.9782 187.755 73.7316 186.602 76.2003C185.449 78.6689 183.291 89.6048 183.291 89.6048C183.291 89.6048 184.194 89.403 184.144 90.0084C184.095 90.6138 183.041 97.2125 183.041 97.2125C183.041 97.2125 182.741 99.8332 182.237 100.74C181.734 101.647 181.687 106.385 181.687 106.385L180.891 109.799C180.891 109.799 182.798 114.084 185.707 113.468C188.616 112.852 193.883 101.427 193.883 101.427L197.245 89.0807L199.854 76.8842L200.608 68.6214L201.811 50.3294L203.566 38.2351C203.566 38.2351 205.52 31.7464 204.818 30.8895Z" fill="#1A535C"/>
<path opacity="0.1" d="M172.614 69.8897L169.705 71.9076C169.705 71.9076 165.27 72.0491 162.077 71.2629L160.46 70.5396L160.134 70.3981L160.468 70.5029C162.145 71.0035 163.457 70.993 164.483 70.6471C168.599 69.2555 168.135 62.4261 167.986 60.88C167.97 60.7254 167.96 60.6179 167.952 60.5865C167.951 60.5804 167.951 60.5742 167.952 60.5681L167.976 60.6074C168.031 60.7002 168.095 60.7879 168.166 60.8695C168.223 60.935 168.283 61.0031 168.349 61.066L169.802 63.9854L169.817 64.1086L172.614 69.8897Z" fill="black"/>
<path d="M182.697 50.1879L181.294 50.5915L181.093 53.4742C181.093 53.4742 179.436 53.2122 178.985 55.1881C178.534 57.1641 177.733 58.0708 177.733 58.0708C177.733 58.0708 174.973 60.3901 174.821 62.3529L173.118 63.4012C173.118 63.4012 169.153 62.4735 168.253 60.8723C168.253 60.8723 170.058 73.8732 160.427 70.697C160.427 70.697 171.211 75.4351 171.712 76.0903C172.213 76.7455 175.526 78.6585 178.534 77.0468C181.542 75.4351 182.196 72.956 182.196 72.956C182.196 72.956 185.105 68.8731 185.207 68.2677C185.309 67.6623 187.555 66.9574 187.555 66.9574L191.87 56.4748L182.697 50.1879Z" fill="#1A535C"/>
<path opacity="0.1" d="M217.913 35.9288L219.366 29.2776C219.366 29.2776 220.018 31.4449 220.67 31.948L222.828 33.6095C222.828 33.6095 224.985 34.6184 225.736 34.6184C226.488 34.6184 230.552 35.6667 231.053 36.2301C231.554 36.7936 233.563 36.3821 233.563 36.3821C233.563 36.3821 235.216 36.9351 236.672 37.2889C238.128 37.6427 238.83 40.0615 238.527 41.018C238.406 41.4943 238.407 41.9936 238.53 42.4694C238.653 42.9451 238.894 43.3817 239.231 43.7382C239.831 44.3436 240.134 46.3091 240.134 46.3091C240.871 46.5504 241.484 47.0752 241.837 47.7688C242.341 48.8773 242.19 51.2962 242.19 51.2962L234.716 61.8783C234.716 61.8783 234.815 65.9612 234.515 66.8575C234.215 67.7538 235.558 83.1841 235.558 83.1841L237.123 109.689C237.123 109.689 235.068 111.453 234.616 111.655C234.165 111.856 233.711 102.281 233.711 101.929C233.711 101.578 222.126 84.4944 222.126 84.4944C222.126 84.4944 220.561 81.9733 220.561 81.4204C220.561 80.8674 219.105 75.7755 219.105 75.7755L216.898 65.9508L217.913 35.9288Z" fill="black"/>
<path d="M242.81 50.7197C242.81 51.0656 242.791 51.2962 242.791 51.2962L235.322 61.8705C235.322 61.8705 235.427 65.9508 235.124 66.8497C234.949 67.3738 235.333 72.7986 235.688 77.251C235.949 80.4665 236.178 83.1763 236.178 83.1763L236.838 94.4188L237.73 109.681C237.73 109.681 235.675 111.445 235.223 111.647C234.772 111.849 234.321 102.273 234.321 101.919C234.321 101.565 222.733 84.4866 222.733 84.4866C222.733 84.4866 221.168 81.9655 221.168 81.4126C221.168 80.8596 219.714 75.7677 219.714 75.7677L217.507 65.9404L218.509 35.9105L219.362 29.2593C219.362 29.2593 220.617 31.4266 221.269 31.9271C221.921 32.4277 223.424 33.5912 223.424 33.5912C223.424 33.5912 225.581 34.6002 226.335 34.6002C227.089 34.6002 231.151 35.6484 231.652 36.2119C232.153 36.7753 234.162 36.3639 234.162 36.3639C234.162 36.3639 235.816 36.9168 237.269 37.2706C238.722 37.6244 239.426 40.0432 239.126 40.9972C239.004 41.4736 239.004 41.9733 239.127 42.4495C239.25 42.9258 239.491 43.3629 239.828 43.72C240.43 44.3254 240.73 46.2882 240.73 46.2882C241.469 46.5312 242.083 47.0578 242.436 47.7531C242.789 48.5367 242.823 49.9335 242.81 50.7197Z" fill="#1A535C"/>
<path opacity="0.1" d="M181.494 184.983C181.755 184.983 192.278 185.386 192.078 187.1C191.877 188.814 181.494 184.983 181.494 184.983Z" fill="black"/>
<path opacity="0.1" d="M183.853 187.855C183.853 187.855 190.925 189.013 189.07 190.072C187.215 191.131 183.853 187.855 183.853 187.855Z" fill="black"/>
<path opacity="0.1" d="M210.134 183.874C210.134 183.874 221.874 184.883 220.118 186.191C218.362 187.499 214.199 187.703 213.998 187.763C213.797 187.824 210.134 183.874 210.134 183.874Z" fill="black"/>
<path opacity="0.1" d="M208.733 189.066C208.733 189.066 215.255 190.174 215.453 191.424C215.651 192.674 208.733 189.066 208.733 189.066Z" fill="black"/>
<path opacity="0.1" d="M212.344 158.729C212.344 158.729 218.312 160.139 218.664 161.088L212.344 158.729Z" fill="black"/>
<path opacity="0.1" d="M189.319 163.064C189.319 163.064 186.21 163.971 189.22 165.784C192.23 167.597 189.319 163.064 189.319 163.064Z" fill="black"/>
<path opacity="0.1" d="M203.113 114.637C203.466 114.637 208.933 112.824 210.838 113.631C212.742 114.438 215.103 114.435 215.103 114.435L203.113 114.637Z" fill="black"/>
<path opacity="0.1" d="M203.818 120.389L203.763 120.887L199.102 133.204C199.102 133.204 198.35 136.931 197.696 139.048C197.285 140.486 196.958 141.946 196.717 143.422L200.857 117.633L203.818 120.389Z" fill="black"/>
<path d="M211.102 98.6694L209.156 98.7035H209.096L207.956 93.6247C208.517 93.5959 209.078 93.5671 209.644 93.533L211.102 98.6694Z" fill="#3F3D56"/>
<path d="M234.765 92.5188L233.516 93.5513L229.342 97.0001C229.342 97.0001 218.054 103.049 214.944 97.3041C212.202 92.2436 225.001 88.6298 228.082 87.8409C228.502 87.7335 228.739 87.6811 228.739 87.6811L234.765 92.5188Z" fill="#F89D8F"/>
<path opacity="0.1" d="M186.561 42.9837C186.561 42.9837 188.768 43.99 189.269 45.4026C189.77 46.8151 186.561 42.9837 186.561 42.9837Z" fill="black"/>
<path opacity="0.1" d="M179.738 58.0995C179.738 58.0995 176.527 62.0304 177.831 63.5426C179.135 65.0547 179.738 58.0995 179.738 58.0995Z" fill="black"/>
<path opacity="0.1" d="M237.123 45.2007C237.123 45.2007 234.113 45.502 234.014 48.1227L237.123 45.2007Z" fill="black"/>
<path opacity="0.1" d="M209.232 86.5202C209.532 86.2188 216.456 75.9381 218.06 76.8448L209.232 86.5202Z" fill="black"/>
<path opacity="0.1" d="M222.174 19.7019C222.177 21.677 221.692 23.6218 220.763 25.3625L220.674 25.3468C219.918 25.1869 219.524 24.2985 218.945 23.7482C218.59 23.4083 218.138 23.1886 217.652 23.12C217.166 23.0514 216.672 23.1373 216.237 23.3656C215.798 23.63 215.441 24.012 215.206 24.4689C214.971 24.9258 214.867 25.4394 214.907 25.9522C214.526 24.3378 214.646 22.6213 214.273 21.0044C213.9 19.3875 212.775 17.7522 211.239 17.7234C210.576 17.7234 209.801 17.9697 209.324 17.4613C209.034 17.1599 208.974 16.6751 208.758 16.3213C207.659 14.534 204.323 15.4382 202.951 16.3528C201.631 17.2333 199.998 18.7323 198.299 19.5185C198.322 16.338 199.602 13.2969 201.857 11.0642C204.112 8.83146 207.157 7.59002 210.323 7.61295C213.489 7.63589 216.516 8.92133 218.739 11.1865C220.961 13.4516 222.197 16.511 222.174 19.6915V19.7019Z" fill="black"/>
<path d="M208.759 16.0278C208.978 16.3921 209.036 16.869 209.325 17.1678C209.803 17.6657 210.578 17.4115 211.24 17.4299C212.777 17.4561 213.901 19.094 214.274 20.7109C214.647 22.3278 214.535 24.0417 214.908 25.656C214.869 25.1434 214.973 24.6299 215.208 24.1734C215.444 23.7169 215.802 23.3355 216.241 23.0721C216.675 22.844 217.169 22.7581 217.654 22.8262C218.14 22.8943 218.591 23.1132 218.946 23.4521C219.526 24.005 219.919 24.8908 220.676 25.0507C221.432 25.2105 222.163 24.482 222.434 23.6801C222.706 22.8782 222.695 22.0002 222.867 21.1695C223.209 19.5971 224.229 18.3104 224.795 16.8166C225.467 14.9976 225.448 12.9937 224.743 11.1875C224.367 10.2415 223.806 9.38975 223.439 8.4437C222.859 7.00759 222.708 5.38804 222.006 4.02007C220.825 1.72963 218.044 0.581792 215.759 1.44398C214.668 1.85542 213.721 2.65209 212.615 3.01636C211.131 3.49332 209.547 3.13429 208.011 2.9194C206.474 2.70451 204.781 2.68354 203.547 3.70559C202.128 4.87177 201.739 7.06524 200.417 8.34673C199.856 8.88396 199.159 9.22727 198.567 9.72519C197.975 10.2231 197.466 10.9621 197.523 11.7719C197.612 12.8202 198.63 13.7636 198.254 14.7306C198.118 15.01 197.929 15.2601 197.698 15.467C196.579 16.643 195.748 18.0641 195.27 19.6181C197.954 20.4593 200.86 17.4875 202.96 16.0829C204.319 15.1473 207.661 14.2536 208.759 16.0278Z" fill="#141720"/>
<path opacity="0.1" d="M234.766 92.5188L233.516 93.5513C232.416 91.7169 227.895 88.0296 227.895 88.0296L228.09 87.8409C228.51 87.7335 228.748 87.6811 228.748 87.6811L234.766 92.5188Z" fill="black"/>
<path d="M235.97 90.653C235.97 90.653 235.521 91.7746 235.057 92.7495C234.593 93.7244 234.089 94.5997 234.063 93.8842C234.014 92.4717 228.196 87.7336 228.196 87.7336L228.979 86.9631L229.894 86.0721L235.97 90.653Z" fill="#E7EFFD"/>
<path opacity="0.1" d="M236.17 83.1946L236.83 94.4372C235.265 92.0026 230.995 85.7629 228.243 85.9647L234.916 78.2574C235.193 77.9462 235.448 77.6161 235.68 77.2694C235.936 80.4849 236.17 83.1946 236.17 83.1946Z" fill="black"/>
<path opacity="0.1" d="M235.97 90.653C235.97 90.653 235.521 91.7746 235.057 92.7495C233.309 90.3411 230.904 87.4951 228.984 86.9631L229.9 86.0721L235.97 90.653Z" fill="black"/>
<path d="M240.987 49.8942L242.792 51.3041C242.792 51.3041 245.8 51.3566 246.103 53.875C246.405 56.3934 249.163 57.5439 249.163 57.5439C249.163 57.5439 251.218 59.6089 251.218 60.5655C251.218 61.522 252.784 63.2385 252.784 63.3879C252.784 63.5373 254.289 66.6139 254.088 67.1668C253.887 67.7198 255.692 70.1413 255.132 71.048C254.678 71.8612 254.275 72.7024 253.926 73.5664C253.926 73.5664 251.578 78.1028 250.365 78.9597C249.152 79.8167 243.645 87.0208 243.645 87.0208C243.645 87.0208 237.726 93.8737 237.726 95.9912C237.726 95.9912 231.956 86.3158 228.546 86.5569L235.217 78.847C235.217 78.847 236.372 77.5891 236.422 76.8318C236.471 76.0744 239.631 72.5994 241.136 72.4474C241.136 72.4474 241.397 70.3824 240.734 70.3326C240.071 70.2828 239.531 68.6685 239.531 68.6685C239.531 68.6685 235.117 63.4272 235.068 60.1016C235.018 56.776 240.987 49.8942 240.987 49.8942Z" fill="#1A535C"/>
<path opacity="0.1" d="M243.645 54.6745C243.645 54.6745 239.429 57.7982 240.334 58.8046C241.24 59.8109 243.645 54.6745 243.645 54.6745Z" fill="black"/>
<path opacity="0.1" d="M243.847 67.5729C243.847 67.5729 251.673 65.0545 252.474 67.5729H243.847Z" fill="black"/>
<path opacity="0.1" d="M195.389 201.461C195.389 201.461 191.176 204.234 189.071 203.82C186.966 203.406 184.805 204.527 184.805 204.527C183.354 206.12 181.524 207.317 179.486 208.005C176.077 209.163 171.313 208.71 168.605 207.801C167.322 207.373 167.22 206.818 167.836 206.136C170.781 206.726 177.363 207.898 179.137 207.046C181.443 205.937 184.753 203.518 184.753 203.518C184.753 203.518 189.071 202.913 189.671 202.913C190.099 202.913 193.43 201.532 195.311 200.738L195.389 201.461Z" fill="black"/>
<path opacity="0.1" d="M220.913 207.132C220.884 207.305 220.871 207.41 220.871 207.41C220.871 207.41 219.867 209.627 214.3 210.434C208.733 211.242 208.733 208.569 208.733 208.569C208.733 208.569 208.754 208.28 208.79 207.848C210.551 208.516 214.396 209.268 220.913 207.132Z" fill="black"/>
<path opacity="0.1" d="M188.643 54.069C188.643 54.069 188.643 65.5579 187.665 66.6926C186.686 67.8273 188.643 54.069 188.643 54.069Z" fill="black"/>
<path opacity="0.1" d="M233.862 57.7717L235.315 61.8783C235.315 61.8783 235.894 57.8477 233.862 57.7717Z" fill="black"/>
<g opacity="0.1">
<path opacity="0.1" d="M198.394 13.7296C198.762 12.7836 197.799 11.8585 197.674 10.8469C197.546 11.1328 197.49 11.4461 197.512 11.7589C197.577 12.5215 198.138 13.2369 198.295 13.9419C198.335 13.8746 198.368 13.8035 198.394 13.7296Z" fill="black"/>
<path opacity="0.1" d="M215.043 24.5817C214.683 22.991 214.782 21.3086 214.422 19.7205C214.062 18.1324 212.927 16.4656 211.391 16.4394C210.728 16.4394 209.954 16.6831 209.474 16.1774C209.187 15.8786 209.127 15.3912 208.91 15.0374C207.812 13.2501 204.475 14.1569 203.1 15.0715C201.047 16.4421 198.23 19.3064 195.6 18.6565C195.472 18.9631 195.355 19.2723 195.259 19.5894C197.943 20.4307 200.849 17.4589 202.949 16.0542C204.319 15.1396 207.66 14.2198 208.759 16.0201C208.978 16.3844 209.035 16.8614 209.325 17.1601C209.802 17.658 210.577 17.4038 211.24 17.4222C212.776 17.4484 213.901 19.0863 214.274 20.7032C214.647 22.3201 214.534 24.034 214.908 25.6483C214.882 25.2873 214.928 24.9247 215.043 24.5817Z" fill="black"/>
<path opacity="0.1" d="M222.585 22.6896C222.324 23.4916 221.596 24.2253 220.824 24.0602C220.052 23.8951 219.674 23.012 219.097 22.4616C218.742 22.1222 218.29 21.903 217.804 21.8348C217.318 21.7667 216.824 21.853 216.389 22.0817C215.971 22.3327 215.627 22.6915 215.393 23.121C215.159 23.5504 215.044 24.0348 215.059 24.5241C215.259 23.9073 215.68 23.3872 216.241 23.0644C216.675 22.8363 217.169 22.7504 217.654 22.8185C218.139 22.8866 218.591 23.1055 218.946 23.4444C219.525 23.9973 219.919 24.8831 220.675 25.043C221.432 25.2028 222.162 24.4743 222.434 23.6724C222.577 23.2016 222.67 22.7166 222.71 22.2258C222.678 22.3828 222.636 22.5377 222.585 22.6896Z" fill="black"/>
<path opacity="0.1" d="M224.943 15.8262C224.38 17.32 223.357 18.6093 223.018 20.1817C222.95 20.4988 222.911 20.8238 222.872 21.1487C223.216 19.5763 224.231 18.2975 224.794 16.809C225.045 16.135 225.201 15.4295 225.259 14.7124C225.182 15.0912 225.076 15.4635 224.943 15.8262Z" fill="black"/>
</g>
<path d="M156.653 53.3967L156.625 53.4108C156.576 53.4356 156.556 53.4954 156.581 53.5446L157.339 55.0566C157.363 55.1057 157.423 55.1255 157.472 55.1007L157.5 55.0866C157.549 55.0619 157.568 55.002 157.544 54.9529L156.786 53.4408C156.761 53.3917 156.701 53.372 156.653 53.3967Z" fill="#3A3768"/>
<path d="M149.152 55.5035L149.135 55.5117C149.108 55.5254 149.097 55.5585 149.111 55.5856L149.341 56.0444C149.355 56.0715 149.388 56.0824 149.415 56.0687L149.431 56.0605C149.458 56.0468 149.469 56.0137 149.455 55.9866L149.225 55.5279C149.212 55.5007 149.179 55.4898 149.152 55.5035Z" fill="#3A3768"/>
<path d="M149.668 56.5481L149.651 56.5564C149.621 56.572 149.608 56.6098 149.624 56.6409L150.053 57.4975C150.069 57.5285 150.106 57.541 150.137 57.5254L150.154 57.5171C150.184 57.5015 150.197 57.4637 150.181 57.4327L149.752 56.576C149.736 56.545 149.699 56.5325 149.668 56.5481Z" fill="#3A3768"/>
<path d="M150.323 57.8566L150.307 57.8648C150.278 57.8798 150.266 57.9161 150.281 57.9458L150.716 58.8141C150.731 58.8439 150.767 58.8558 150.796 58.8409L150.813 58.8326C150.842 58.8176 150.854 58.7814 150.839 58.7517L150.404 57.8833C150.389 57.8536 150.353 57.8416 150.323 57.8566Z" fill="#3A3768"/>
<path d="M154.537 50.5025L148.754 53.4281C148.465 53.5739 148.349 53.9268 148.495 54.2164L154.957 67.1083C155.103 67.3979 155.454 67.5144 155.742 67.3686L161.525 64.443C161.813 64.2972 161.929 63.9442 161.784 63.6547L155.321 50.7627C155.176 50.4732 154.825 50.3567 154.537 50.5025Z" fill="#3A3768"/>
<path d="M153.739 51.3488C153.706 51.3637 153.676 51.3855 153.652 51.4127C153.627 51.4399 153.609 51.472 153.598 51.5068C153.586 51.5416 153.582 51.5784 153.586 51.6148C153.59 51.6513 153.601 51.6865 153.619 51.7183L153.645 51.7681C153.663 51.8 153.674 51.8354 153.678 51.872C153.682 51.9085 153.677 51.9454 153.666 51.9802C153.654 52.0151 153.636 52.0471 153.611 52.0742C153.586 52.1013 153.556 52.1229 153.523 52.1376L150.63 53.6025C150.598 53.6207 150.563 53.6321 150.527 53.6358C150.49 53.6395 150.454 53.6356 150.419 53.6242C150.384 53.6129 150.353 53.5944 150.325 53.5698C150.298 53.5453 150.277 53.5154 150.262 53.482L150.236 53.4296C150.221 53.3961 150.199 53.3662 150.172 53.3417C150.145 53.3172 150.113 53.2986 150.078 53.2873C150.044 53.2759 150.007 53.272 149.971 53.2757C149.935 53.2795 149.9 53.2908 149.868 53.309L149.304 53.592C149.243 53.6229 149.188 53.6658 149.142 53.7181C149.097 53.7705 149.063 53.8314 149.041 53.8972C149.02 53.963 149.011 54.0324 149.017 54.1015C149.022 54.1706 149.041 54.2379 149.072 54.2996L155.226 66.572C155.257 66.6341 155.3 66.6894 155.352 66.7347C155.404 66.7801 155.464 66.8146 155.53 66.8363C155.595 66.858 155.665 66.8664 155.733 66.8611C155.802 66.8558 155.869 66.8368 155.931 66.8053L160.978 64.2502C161.04 64.2193 161.095 64.1765 161.139 64.1244C161.184 64.0722 161.219 64.0116 161.24 63.9461C161.262 63.8806 161.27 63.8115 161.265 63.7427C161.26 63.6739 161.242 63.6068 161.211 63.5452L155.064 51.2702C155.033 51.2087 154.991 51.154 154.939 51.1091C154.887 51.0642 154.826 51.0301 154.761 51.0087C154.696 50.9873 154.627 50.979 154.559 50.9843C154.491 50.9896 154.424 51.0083 154.363 51.0395L153.739 51.3488Z" fill="#00B1C9"/>
<path d="M152.067 52.2755L151.282 52.6727C151.235 52.6962 151.217 52.7529 151.24 52.7994L151.253 52.8252C151.276 52.8717 151.333 52.8905 151.379 52.867L152.164 52.4698C152.211 52.4463 152.229 52.3896 152.206 52.3431L152.193 52.3173C152.17 52.2708 152.113 52.2521 152.067 52.2755Z" fill="#E6E8EC"/>
<path d="M152.45 52.3105C152.518 52.3105 152.573 52.2553 152.573 52.1873C152.573 52.1193 152.518 52.0641 152.45 52.0641C152.382 52.0641 152.327 52.1193 152.327 52.1873C152.327 52.2553 152.382 52.3105 152.45 52.3105Z" fill="#E6E8EC"/>
<path opacity="0.1" d="M25.3063 6.83739C25.3063 6.83739 50.6475 5.3017 47.6605 23.1404C47.6605 23.1404 48.2527 26.2851 45.4091 27.7239C45.4091 27.7239 45.3648 26.4135 42.8004 26.8512C41.8904 27.0029 40.9658 27.0469 40.0456 26.9822C38.8024 26.8989 37.6205 26.4093 36.6803 25.588C36.6803 25.588 29.5689 22.6398 26.7959 10.9361C26.7959 10.9361 24.748 8.38357 24.8289 7.72841L29.1046 9.56285C29.1046 9.56285 27.6437 12.6631 28.7941 15.2392C28.7941 15.2392 28.9324 9.67554 29.7541 9.80657C29.9211 9.8354 31.9768 10.881 31.9768 10.881C31.9768 10.881 29.462 16.2795 31.3585 20.2026C31.3585 20.2026 30.6385 13.5515 32.762 11.2715L35.7725 13.0378C35.7725 13.0378 32.8325 18.6119 34.8255 23.164C34.8255 23.164 34.3038 16.1852 36.3908 13.4676L39.1195 15.6034C39.1195 15.6034 36.3595 21.1068 38.0421 24.8726C38.0421 24.8726 38.2612 16.7486 39.7091 16.1354C39.7091 16.1354 42.0961 18.2503 42.4613 19.1177C42.4613 19.1177 40.5699 23.1063 41.7439 25.2133C41.7439 25.2133 42.4613 19.8017 43.0482 19.7755C43.0482 19.7755 45.4274 23.3631 45.6752 25.8187C45.6752 25.8187 45.5709 22.1629 43.6248 19.4322C43.6248 19.4322 45.9231 19.8279 47.277 21.3269C47.277 21.3269 46.9065 18.7901 43.0482 18.57C43.0482 18.57 41.0839 15.8498 40.5569 15.6873C40.5569 15.6873 44.3943 15.3649 46.7213 16.4001C46.7213 16.4001 44.6735 14.0075 39.8552 15.0898L37.1629 12.8832C37.1629 12.8832 42.2134 12.1861 44.3552 12.954C44.3552 12.954 41.89 10.8391 36.4351 12.38L33.4977 10.6216C33.4977 10.6216 37.8047 9.68865 40.3717 10.0267C40.3717 10.0267 37.6638 8.55915 32.6394 10.1499L30.5524 9.20383C30.5524 9.20383 33.709 8.58012 34.6325 8.48315C35.556 8.38619 35.6055 8.12675 35.6055 8.12675C33.6068 7.79298 31.5551 8.02249 29.6785 8.78977C29.6785 8.78977 25.2306 7.1178 25.3063 6.83739Z" fill="#00B1C9"/>
<path opacity="0.1" d="M39.4985 54.5591C39.4985 54.5591 50.9482 53.8646 49.5995 61.9257C49.5995 61.9257 49.8603 63.3487 48.5821 63.996C48.5821 63.996 48.5612 63.3985 47.4081 63.6002C46.9973 63.6706 46.5795 63.6909 46.1638 63.6605C45.6022 63.6228 45.0682 63.402 44.6429 63.0316C44.6429 63.0316 41.4237 61.695 40.1715 56.4092C40.1715 56.4092 39.2454 55.2588 39.2819 54.9626L41.215 55.7908C41.215 55.7908 40.555 57.1902 41.0741 58.3537C41.0741 58.3537 41.1367 55.8405 41.5072 55.9008C41.5828 55.9139 42.5115 56.3856 42.5115 56.3856C42.5115 56.3856 41.3767 58.8254 42.2324 60.597C42.2324 60.597 41.9089 57.5938 42.8663 56.5612L44.2281 57.3605C44.2281 57.3605 42.8898 59.8789 43.7924 61.9492C43.7924 61.9492 43.5603 58.8045 44.5046 57.5675L45.7385 58.5319C45.7385 58.5319 44.4916 61.0163 45.2507 62.725C45.2507 62.725 45.3498 59.0561 46.0046 58.7757C46.0046 58.7757 47.082 59.7296 47.249 60.1227C47.249 60.1227 46.3933 61.9257 46.9229 62.877C46.9229 62.877 47.249 60.4319 47.5151 60.4214C47.5151 60.4214 48.5899 62.041 48.7021 63.1521C48.7021 63.1521 48.6551 61.4985 47.776 60.2694C48.3951 60.3884 48.9663 60.6862 49.4195 61.1264C49.4195 61.1264 49.2525 59.9811 47.5099 59.8816C47.5099 59.8816 46.6229 58.6525 46.3855 58.5712C46.3855 58.5712 48.1177 58.4245 49.169 58.8936C49.169 58.8936 48.2455 57.8139 46.0672 58.3039L44.849 57.3055C44.849 57.3055 47.1316 56.9936 48.0994 57.3396C48.0994 57.3396 46.9855 56.383 44.5229 57.0775L43.1976 56.2913C43.1976 56.2913 45.1438 55.872 46.302 56.0292C46.302 56.0292 45.0785 55.3662 42.8089 56.0843L41.862 55.6571C41.862 55.6571 43.2863 55.3741 43.7063 55.3295C44.1264 55.285 44.1446 55.1697 44.1446 55.1697C43.2421 55.0182 42.3155 55.1217 41.4681 55.4684C41.4681 55.4684 39.4567 54.6848 39.4985 54.5591Z" fill="#00B1C9"/>
<path opacity="0.1" d="M0.217455 11.4759C0.217455 11.4759 11.6672 10.784 10.3185 18.8425C10.3185 18.8425 10.5793 20.2681 9.30105 20.9154C9.30105 20.9154 9.28018 20.3179 8.12712 20.5197C7.71613 20.5888 7.29846 20.609 6.88276 20.5799C6.32089 20.5413 5.78692 20.3195 5.36187 19.9484C5.36187 19.9484 2.1427 18.6145 0.890508 13.3286C0.890508 13.3286 -0.0355918 12.1756 0.000930446 11.8794L1.934 12.7076C1.934 12.7076 1.27399 14.1096 1.79313 15.2732C1.79313 15.2732 1.85574 12.76 2.22618 12.8202C2.30183 12.8202 3.23054 13.3051 3.23054 13.3051C3.23054 13.3051 2.09574 15.7449 2.9514 17.5164C2.9514 17.5164 2.62792 14.5106 3.58533 13.4806L4.94708 14.2668C4.94708 14.2668 3.61924 16.7879 4.51925 18.8425C4.51925 18.8425 4.28707 15.6977 5.23143 14.4634L6.46536 15.4278C6.46536 15.4278 5.21839 17.9121 5.97753 19.6208C5.97753 19.6208 6.07666 15.9519 6.73145 15.6741C6.73145 15.6741 7.80886 16.628 7.97582 17.0211C7.97582 17.0211 7.12015 18.8241 7.64973 19.7754C7.64973 19.7754 7.97582 17.3304 8.24191 17.3173C8.24191 17.3173 9.3167 18.9394 9.42888 20.048C9.42888 20.048 9.38192 18.397 8.50278 17.1653C9.12239 17.2829 9.69391 17.5809 10.1463 18.0222C10.1463 18.0222 9.97932 16.8744 8.23669 16.7748C8.23669 16.7748 7.34972 15.5457 7.11233 15.4645C7.11233 15.4645 8.84452 15.3177 9.89584 15.7868C9.89584 15.7868 8.97235 14.7045 6.79406 15.1972L5.58622 14.2092C5.58622 14.2092 7.86886 13.8947 8.8367 14.2432C8.8367 14.2432 7.72277 13.2867 5.26013 13.9812L3.93489 13.195C3.93489 13.195 5.88101 12.7731 7.03928 12.9329C7.03928 12.9329 5.81579 12.2699 3.54619 12.988L2.59923 12.5608C2.59923 12.5608 4.0262 12.2804 4.4436 12.2358C4.86099 12.1913 4.88186 12.076 4.88186 12.076C3.97742 11.9176 3.04693 12.0156 2.19487 12.359C2.19487 12.359 0.183542 11.6043 0.217455 11.4759Z" fill="#00B1C9"/>
<path d="M258.899 195.08C265.583 195.08 271.001 194.16 271.001 193.026C271.001 191.891 265.583 190.971 258.899 190.971C252.215 190.971 246.797 191.891 246.797 193.026C246.797 194.16 252.215 195.08 258.899 195.08Z" fill="#1A535C"/>
<path d="M263.902 189.666C264.423 189.181 264.906 188.618 265.057 187.915C265.209 187.213 264.911 186.387 264.251 186.133C263.51 185.85 262.72 186.366 262.12 186.885C261.52 187.404 260.831 188.002 260.046 187.892C260.45 187.524 260.752 187.058 260.923 186.538C261.094 186.018 261.128 185.462 261.022 184.925C260.991 184.704 260.901 184.496 260.761 184.322C260.351 183.88 259.605 184.06 259.112 184.417C257.547 185.523 257.111 187.658 257.103 189.582C256.944 188.888 257.077 188.164 257.075 187.454C257.072 186.744 256.876 185.955 256.292 185.572C255.92 185.372 255.501 185.274 255.079 185.287C254.375 185.261 253.592 185.331 253.112 185.848C252.515 186.49 252.669 187.567 253.19 188.274C253.712 188.982 254.495 189.425 255.225 189.912C255.809 190.261 256.306 190.738 256.681 191.306C256.725 191.39 256.761 191.478 256.788 191.568H261.199C262.18 191.058 263.089 190.418 263.902 189.666Z" fill="#1A535C"/>
<path d="M15.1288 210.225C20.3746 210.225 24.6272 209.502 24.6272 208.61C24.6272 207.719 20.3746 206.996 15.1288 206.996C9.88301 206.996 5.63043 207.719 5.63043 208.61C5.63043 209.502 9.88301 210.225 15.1288 210.225Z" fill="#1A535C"/>
<path d="M19.0553 205.971C19.4892 205.616 19.8058 205.138 19.9631 204.598C20.0779 204.053 19.8483 203.398 19.3292 203.199C18.7474 202.976 18.1266 203.38 17.657 203.788C17.1874 204.197 16.6448 204.664 16.0292 204.575C16.3462 204.286 16.5835 203.92 16.7179 203.513C16.8523 203.105 16.8792 202.669 16.7961 202.247C16.7691 202.073 16.6951 201.909 16.5822 201.773C16.2587 201.427 15.6744 201.577 15.2778 201.849C14.0491 202.717 13.7126 204.394 13.6996 205.903C13.5769 205.358 13.6813 204.792 13.6761 204.234C13.6709 203.676 13.5222 203.055 13.0526 202.756C12.7605 202.598 12.432 202.52 12.1004 202.53C11.55 202.51 10.9343 202.567 10.556 202.971C10.0891 203.477 10.2091 204.323 10.616 204.876C11.023 205.429 11.6439 205.78 12.2152 206.163C12.6733 206.437 13.0639 206.811 13.3578 207.258C13.3917 207.32 13.4205 207.385 13.4439 207.452H16.9057C17.6858 207.059 18.409 206.561 19.0553 205.971Z" fill="#1A535C"/>
<path d="M39.074 198.11C44.3198 198.11 48.5724 197.387 48.5724 196.495C48.5724 195.604 44.3198 194.881 39.074 194.881C33.8282 194.881 29.5756 195.604 29.5756 196.495C29.5756 197.387 33.8282 198.11 39.074 198.11Z" fill="#1A535C"/>
<path d="M43.0022 193.856C43.4354 193.501 43.7511 193.022 43.9074 192.483C44.0248 191.938 43.7927 191.285 43.2735 191.086C42.6944 190.861 42.0735 191.267 41.6013 191.676C41.1291 192.085 40.5917 192.551 39.9761 192.462C40.2929 192.173 40.5298 191.807 40.6637 191.398C40.7977 190.99 40.8241 190.554 40.7404 190.132C40.7135 189.958 40.6395 189.795 40.5265 189.661C40.2057 189.312 39.6213 189.461 39.2352 189.734C38.0065 190.604 37.67 192.279 37.6569 193.788C37.5317 193.243 37.6361 192.677 37.6334 192.119C37.6308 191.561 37.4769 190.942 37.01 190.641C36.7179 190.483 36.3892 190.406 36.0578 190.418C35.5047 190.397 34.8891 190.452 34.5134 190.858C34.0438 191.361 34.1664 192.208 34.5734 192.763C34.9804 193.319 35.6012 193.665 36.1726 194.05C36.63 194.324 37.0205 194.697 37.3152 195.143C37.3497 195.205 37.3777 195.271 37.3987 195.34H40.8604C41.638 194.945 42.3585 194.446 43.0022 193.856Z" fill="#1A535C"/>
<path d="M146.926 59.3811V88.347C146.926 88.7289 146.852 89.1071 146.707 89.46C146.562 89.8129 146.349 90.1336 146.08 90.4036C145.811 90.6736 145.492 90.8877 145.141 91.0335C144.789 91.1793 144.413 91.254 144.033 91.2533H140.926V56.4775H144.033C144.413 56.4768 144.789 56.5514 145.14 56.697C145.491 56.8427 145.81 57.0565 146.079 57.3262C146.348 57.5959 146.561 57.9163 146.706 58.2689C146.851 58.6215 146.926 58.9995 146.926 59.3811Z" fill="#C7CCE1"/>
<path opacity="0.2" d="M144.598 56.5325V91.1983C144.412 91.2352 144.222 91.2536 144.032 91.2533H143.557V56.4775H144.032C144.222 56.4773 144.412 56.4957 144.598 56.5325Z" fill="black"/>
<path d="M133.21 101.586H122.008V191.815H133.21V101.586Z" fill="#DCDFED"/>
<path d="M135.874 201.448H118.059V203.961H135.874V201.448Z" fill="#C7CCE1"/>
<path opacity="0.1" d="M135.874 201.448H118.059V202.858H135.874V201.448Z" fill="black"/>
<path opacity="0.1" d="M133.21 190.03H122.008V191.812H133.21V190.03Z" fill="black"/>
<path d="M114.141 190.4H139.79C141.185 190.4 142.565 190.676 143.853 191.212C145.142 191.748 146.312 192.533 147.298 193.524C148.284 194.514 149.066 195.69 149.6 196.984C150.133 198.278 150.408 199.665 150.408 201.066V202.706H103.524V201.066C103.524 199.665 103.798 198.278 104.332 196.984C104.865 195.69 105.648 194.514 106.633 193.524C107.619 192.533 108.79 191.748 110.078 191.212C111.366 190.676 112.747 190.4 114.141 190.4Z" fill="#DCDFED"/>
<path opacity="0.1" d="M133.21 114.008H122.008V124.831H133.21V114.008Z" fill="black"/>
<path opacity="0.1" d="M133.21 113.272H122.008V124.095H133.21V113.272Z" fill="black"/>
<path d="M134.376 113.639H120.969V124.462H134.376V113.639Z" fill="#DCDFED"/>
<path d="M139.243 94.7884V99.2801C139.243 100.398 138.801 101.47 138.015 102.26C137.228 103.05 136.161 103.494 135.048 103.494H120.179C119.066 103.494 117.999 103.05 117.212 102.26C116.426 101.47 115.984 100.398 115.984 99.2801V94.7884C115.984 94.2353 116.093 93.6878 116.304 93.1769C116.515 92.6661 116.824 92.2021 117.213 91.8112C117.603 91.4204 118.065 91.1105 118.574 90.8992C119.083 90.6879 119.628 90.5793 120.179 90.5796H135.048C135.599 90.5793 136.144 90.6879 136.653 90.8992C137.162 91.1105 137.624 91.4204 138.013 91.8112C138.403 92.2021 138.712 92.6661 138.923 93.1769C139.134 93.6878 139.243 94.2353 139.243 94.7884Z" fill="#C7CCE1"/>
<path opacity="0.1" d="M139.244 94.7883V95.2469C137.879 97.0451 136.119 98.5024 134.101 99.5056C132.083 100.509 129.862 101.031 127.611 101.031C125.359 101.031 123.138 100.509 121.12 99.5056C119.103 98.5024 117.342 97.0451 115.977 95.2469V94.7883C115.977 94.2353 116.086 93.6877 116.297 93.1769C116.508 92.6661 116.817 92.202 117.207 91.8112C117.596 91.4204 118.059 91.1105 118.567 90.8991C119.076 90.6878 119.621 90.5792 120.172 90.5796H135.042C135.593 90.5782 136.139 90.686 136.648 90.8969C137.158 91.1077 137.621 91.4175 138.012 91.8084C138.402 92.1993 138.712 92.6637 138.923 93.1751C139.135 93.6864 139.244 94.2346 139.244 94.7883Z" fill="black"/>
<path d="M114.162 52.9367H141.061C141.374 52.9367 141.675 53.0618 141.896 53.2844C142.118 53.5071 142.242 53.809 142.242 54.1239V87.9301C142.242 91.3086 140.906 94.5488 138.528 96.9379C136.15 99.3269 132.925 100.669 129.561 100.669H125.661C122.298 100.669 119.073 99.3269 116.695 96.9379C114.316 94.5488 112.98 91.3086 112.98 87.9301V54.1239C112.98 53.809 113.105 53.5071 113.326 53.2844C113.548 53.0618 113.849 52.9367 114.162 52.9367Z" fill="#C7CCE1"/>
<path d="M119.133 35.4756H136.09C137.284 35.4756 138.429 35.9522 139.274 36.8005C140.118 37.6487 140.593 38.7992 140.593 39.9989V52.9579C140.593 53.3902 140.422 53.8048 140.117 54.1105C139.813 54.4162 139.4 54.5879 138.97 54.5879H116.253C116.04 54.5879 115.829 54.5458 115.632 54.4639C115.435 54.3819 115.256 54.2619 115.106 54.1105C114.955 53.9591 114.836 53.7795 114.754 53.5817C114.672 53.3839 114.63 53.172 114.63 52.9579V39.9962C114.63 38.7966 115.105 37.6461 115.949 36.7978C116.794 35.9496 117.939 35.473 119.133 35.473V35.4756Z" fill="#C7CCE1"/>
<path opacity="0.2" d="M138.018 48.8827H117.693V50.2349H138.018V48.8827Z" fill="black"/>
<path opacity="0.1" d="M139.241 57.2765H115.979V74.2346H139.241V57.2765Z" fill="black"/>
<path d="M139.241 56.9072H115.979V73.8653H139.241V56.9072Z" fill="#00B1C9"/>
<g opacity="0.1">
<path opacity="0.1" d="M121.136 76.7714H116.315C116.201 76.7714 116.109 76.864 116.109 76.9784V78.4407C116.109 78.5551 116.201 78.6477 116.315 78.6477H121.136C121.25 78.6477 121.342 78.5551 121.342 78.4407V76.9784C121.342 76.864 121.25 76.7714 121.136 76.7714Z" fill="black"/>
<path opacity="0.1" d="M127.059 76.7714H122.238C122.124 76.7714 122.032 76.864 122.032 76.9784V78.4407C122.032 78.5551 122.124 78.6477 122.238 78.6477H127.059C127.173 78.6477 127.265 78.5551 127.265 78.4407V76.9784C127.265 76.864 127.173 76.7714 127.059 76.7714Z" fill="black"/>
<path opacity="0.1" d="M132.98 76.7714H128.159C128.045 76.7714 127.953 76.864 127.953 76.9784V78.4407C127.953 78.5551 128.045 78.6477 128.159 78.6477H132.98C133.094 78.6477 133.186 78.5551 133.186 78.4407V76.9784C133.186 76.864 133.094 76.7714 132.98 76.7714Z" fill="black"/>
<path opacity="0.1" d="M138.905 76.7714H134.084C133.971 76.7714 133.878 76.864 133.878 76.9784V78.4407C133.878 78.5551 133.971 78.6477 134.084 78.6477H138.905C139.019 78.6477 139.111 78.5551 139.111 78.4407V76.9784C139.111 76.864 139.019 76.7714 138.905 76.7714Z" fill="black"/>
<path opacity="0.1" d="M121.136 80.4456H116.315C116.201 80.4456 116.109 80.5383 116.109 80.6526V82.1149C116.109 82.2293 116.201 82.322 116.315 82.322H121.136C121.25 82.322 121.342 82.2293 121.342 82.1149V80.6526C121.342 80.5383 121.25 80.4456 121.136 80.4456Z" fill="black"/>
<path opacity="0.1" d="M127.059 80.4456H122.238C122.124 80.4456 122.032 80.5383 122.032 80.6526V82.1149C122.032 82.2293 122.124 82.322 122.238 82.322H127.059C127.173 82.322 127.265 82.2293 127.265 82.1149V80.6526C127.265 80.5383 127.173 80.4456 127.059 80.4456Z" fill="black"/>
<path opacity="0.1" d="M132.98 80.4456H128.159C128.045 80.4456 127.953 80.5383 127.953 80.6526V82.1149C127.953 82.2293 128.045 82.322 128.159 82.322H132.98C133.094 82.322 133.186 82.2293 133.186 82.1149V80.6526C133.186 80.5383 133.094 80.4456 132.98 80.4456Z" fill="black"/>
<path opacity="0.1" d="M121.136 84.0279H116.315C116.201 84.0279 116.109 84.1206 116.109 84.2349V85.6973C116.109 85.8116 116.201 85.9043 116.315 85.9043H121.136C121.25 85.9043 121.342 85.8116 121.342 85.6973V84.2349C121.342 84.1206 121.25 84.0279 121.136 84.0279Z" fill="black"/>
<path opacity="0.1" d="M127.059 84.0279H122.238C122.124 84.0279 122.032 84.1206 122.032 84.2349V85.6973C122.032 85.8116 122.124 85.9043 122.238 85.9043H127.059C127.173 85.9043 127.265 85.8116 127.265 85.6973V84.2349C127.265 84.1206 127.173 84.0279 127.059 84.0279Z" fill="black"/>
<path opacity="0.1" d="M132.98 84.0279H128.159C128.045 84.0279 127.953 84.1206 127.953 84.2349V85.6973C127.953 85.8116 128.045 85.9043 128.159 85.9043H132.98C133.094 85.9043 133.186 85.8116 133.186 85.6973V84.2349C133.186 84.1206 133.094 84.0279 132.98 84.0279Z" fill="black"/>
<path opacity="0.1" d="M121.136 87.9798H116.315C116.201 87.9798 116.109 88.0725 116.109 88.1869V89.6492C116.109 89.7635 116.201 89.8562 116.315 89.8562H121.136C121.25 89.8562 121.342 89.7635 121.342 89.6492V88.1869C121.342 88.0725 121.25 87.9798 121.136 87.9798Z" fill="black"/>
<path opacity="0.1" d="M127.059 87.9798H122.238C122.124 87.9798 122.032 88.0725 122.032 88.1869V89.6492C122.032 89.7635 122.124 89.8562 122.238 89.8562H127.059C127.173 89.8562 127.265 89.7635 127.265 89.6492V88.1869C127.265 88.0725 127.173 87.9798 127.059 87.9798Z" fill="black"/>
<path opacity="0.1" d="M132.98 87.9798H128.159C128.045 87.9798 127.953 88.0725 127.953 88.1869V89.6492C127.953 89.7635 128.045 89.8562 128.159 89.8562H132.98C133.094 89.8562 133.186 89.7635 133.186 89.6492V88.1869C133.186 88.0725 133.094 87.9798 132.98 87.9798Z" fill="black"/>
<path opacity="0.1" d="M138.905 80.4456H134.084C133.971 80.4456 133.878 80.5383 133.878 80.6526V82.1149C133.878 82.2293 133.971 82.322 134.084 82.322H138.905C139.019 82.322 139.111 82.2293 139.111 82.1149V80.6526C139.111 80.5383 139.019 80.4456 138.905 80.4456Z" fill="black"/>
<path opacity="0.1" d="M138.322 83.8261H134.711C134.427 83.8261 134.197 84.0572 134.197 84.3424V89.9977C134.197 90.2828 134.427 90.514 134.711 90.514H138.322C138.606 90.514 138.836 90.2828 138.836 89.9977V84.3424C138.836 84.0572 138.606 83.8261 138.322 83.8261Z" fill="black"/>
</g>
<path d="M121.136 76.402H116.315C116.201 76.402 116.109 76.4947 116.109 76.6091V78.0714C116.109 78.1857 116.201 78.2784 116.315 78.2784H121.136C121.25 78.2784 121.342 78.1857 121.342 78.0714V76.6091C121.342 76.4947 121.25 76.402 121.136 76.402Z" fill="#F2F3F3"/>
<path d="M127.057 76.402H122.236C122.122 76.402 122.03 76.4947 122.03 76.6091V78.0714C122.03 78.1857 122.122 78.2784 122.236 78.2784H127.057C127.171 78.2784 127.263 78.1857 127.263 78.0714V76.6091C127.263 76.4947 127.171 76.402 127.057 76.402Z" fill="#F2F3F3"/>
<path d="M132.98 76.402H128.159C128.045 76.402 127.953 76.4947 127.953 76.6091V78.0714C127.953 78.1857 128.045 78.2784 128.159 78.2784H132.98C133.094 78.2784 133.186 78.1857 133.186 78.0714V76.6091C133.186 76.4947 133.094 76.402 132.98 76.402Z" fill="#F2F3F3"/>
<path d="M138.903 76.402H134.082C133.968 76.402 133.876 76.4947 133.876 76.6091V78.0714C133.876 78.1857 133.968 78.2784 134.082 78.2784H138.903C139.017 78.2784 139.109 78.1857 139.109 78.0714V76.6091C139.109 76.4947 139.017 76.402 138.903 76.402Z" fill="#D44F6A"/>
<path d="M121.136 80.076H116.315C116.201 80.076 116.109 80.1687 116.109 80.283V81.7453C116.109 81.8597 116.201 81.9524 116.315 81.9524H121.136C121.25 81.9524 121.342 81.8597 121.342 81.7453V80.283C121.342 80.1687 121.25 80.076 121.136 80.076Z" fill="#F2F3F3"/>
<path d="M127.057 80.076H122.236C122.122 80.076 122.03 80.1687 122.03 80.283V81.7453C122.03 81.8597 122.122 81.9524 122.236 81.9524H127.057C127.171 81.9524 127.263 81.8597 127.263 81.7453V80.283C127.263 80.1687 127.171 80.076 127.057 80.076Z" fill="#F2F3F3"/>
<path d="M132.98 80.076H128.159C128.045 80.076 127.953 80.1687 127.953 80.283V81.7453C127.953 81.8597 128.045 81.9524 128.159 81.9524H132.98C133.094 81.9524 133.186 81.8597 133.186 81.7453V80.283C133.186 80.1687 133.094 80.076 132.98 80.076Z" fill="#F2F3F3"/>
<path d="M121.136 83.6586H116.315C116.201 83.6586 116.109 83.7513 116.109 83.8656V85.3279C116.109 85.4423 116.201 85.535 116.315 85.535H121.136C121.25 85.535 121.342 85.4423 121.342 85.3279V83.8656C121.342 83.7513 121.25 83.6586 121.136 83.6586Z" fill="#F2F3F3"/>
<path d="M127.057 83.6586H122.236C122.122 83.6586 122.03 83.7513 122.03 83.8656V85.3279C122.03 85.4423 122.122 85.535 122.236 85.535H127.057C127.171 85.535 127.263 85.4423 127.263 85.3279V83.8656C127.263 83.7513 127.171 83.6586 127.057 83.6586Z" fill="#F2F3F3"/>
<path d="M132.98 83.6586H128.159C128.045 83.6586 127.953 83.7513 127.953 83.8656V85.3279C127.953 85.4423 128.045 85.535 128.159 85.535H132.98C133.094 85.535 133.186 85.4423 133.186 85.3279V83.8656C133.186 83.7513 133.094 83.6586 132.98 83.6586Z" fill="#F2F3F3"/>
<path d="M121.136 87.6105H116.315C116.201 87.6105 116.109 87.7032 116.109 87.8175V89.2799C116.109 89.3942 116.201 89.4869 116.315 89.4869H121.136C121.25 89.4869 121.342 89.3942 121.342 89.2799V87.8175C121.342 87.7032 121.25 87.6105 121.136 87.6105Z" fill="#F2F3F3"/>
<path d="M127.057 87.6105H122.236C122.122 87.6105 122.03 87.7032 122.03 87.8175V89.2799C122.03 89.3942 122.122 89.4869 122.236 89.4869H127.057C127.171 89.4869 127.263 89.3942 127.263 89.2799V87.8175C127.263 87.7032 127.171 87.6105 127.057 87.6105Z" fill="#F2F3F3"/>
<path d="M132.98 87.6105H128.159C128.045 87.6105 127.953 87.7032 127.953 87.8175V89.2799C127.953 89.3942 128.045 89.4869 128.159 89.4869H132.98C133.094 89.4869 133.186 89.3942 133.186 89.2799V87.8175C133.186 87.7032 133.094 87.6105 132.98 87.6105Z" fill="#F2F3F3"/>
<path d="M138.903 80.076H134.082C133.968 80.076 133.876 80.1687 133.876 80.283V81.7453C133.876 81.8597 133.968 81.9524 134.082 81.9524H138.903C139.017 81.9524 139.109 81.8597 139.109 81.7453V80.283C139.109 80.1687 139.017 80.076 138.903 80.076Z" fill="#FECB42"/>
<path d="M138.322 83.4593H134.711C134.428 83.4593 134.198 83.6904 134.198 83.9756V89.6309C134.198 89.916 134.428 90.1471 134.711 90.1471H138.322C138.606 90.1471 138.836 89.916 138.836 89.6309V83.9756C138.836 83.6904 138.606 83.4593 138.322 83.4593Z" fill="#97D25E"/>
<path d="M130.084 71.8053H127.577V72.1067H130.084V71.8053Z" fill="#C7CCE1"/>
<path d="M133.595 71.8053H131.089V72.1067H133.595V71.8053Z" fill="#C7CCE1"/>
<path d="M137.107 71.8053H134.6V72.1067H137.107V71.8053Z" fill="#C7CCE1"/>
</g>
<defs>
<linearGradient id="paint0_linear_185_227" x1="202.163" y1="211.035" x2="202.163" y2="2.81839e-05" gradientUnits="userSpaceOnUse">
<stop stop-color="#808080" stop-opacity="0.25"/>
<stop offset="0.54" stop-color="#808080" stop-opacity="0.12"/>
<stop offset="1" stop-color="#808080" stop-opacity="0.1"/>
</linearGradient>
<clipPath id="clip0_185_227">
<rect width="271" height="213" fill="white"/>
</clipPath>
</defs>
</svg>
