<svg width="288" height="225" viewBox="0 0 288 225" fill="none" xmlns="http://www.w3.org/2000/svg">
<g clip-path="url(#clip0_184_142)">
<path opacity="0.1" d="M271.367 142.008C261.636 154.422 265.407 172.569 271.6 187.097C273.664 191.962 276.023 197.107 275.138 202.324C274.068 208.702 268.389 213.369 262.423 215.84C251.551 220.348 238.539 219.272 228.554 213.044C219.92 207.662 213.74 198.907 204.964 193.77C190.271 185.172 171.57 188.418 155.614 194.341C144.327 198.532 131.986 203.979 120.769 199.602C112.875 196.519 107.42 189.021 104.448 181.07C103.012 177.228 101.971 173.09 99.2316 170.034C97.601 168.225 95.475 166.942 93.2988 165.857C73.4096 155.976 48.2893 161.267 28.9693 150.304C15.9211 142.9 7.57032 128.932 3.86966 114.369C0.168999 99.8069 0.602465 84.535 1.54016 69.535C2.20657 58.8769 3.40376 47.4975 10.2006 39.269C17.3896 30.5675 29.7241 27.331 40.8674 28.9833C52.0106 30.6355 62.1218 36.5379 71.0241 43.4778C82.1378 52.1557 92.4407 62.9616 106.084 66.4788C115.376 68.8729 125.151 67.5636 134.731 67.1084C150.752 66.3488 166.778 68.0365 182.71 69.8838C197.961 71.6572 213.324 73.5961 227.855 78.5704C238.138 82.0906 246.382 88.4778 256.089 92.9409C262.417 95.8493 269.32 96.6532 275.312 100.36C282.684 104.923 289.466 112.862 287.57 122.155C285.771 130.986 276.539 135.417 271.367 142.008Z" fill="#00B1C9"/>
<path d="M226.337 186.021C225.178 184.656 223.864 183.432 222.421 182.373C222.722 182.155 223.017 181.935 223.306 181.714C227.027 178.942 230.214 176.098 230.899 174.056C232.727 168.638 251.472 158.707 251.472 158.707C251.472 158.707 232.27 162.319 222.212 156.449C216.211 152.947 206.955 152.338 200.465 152.418L200.512 152.305L200.6 152.11C200.65 152.001 200.701 151.895 200.754 151.785C200.807 151.676 200.839 151.608 200.886 151.519L200.925 151.448C200.992 151.318 201.063 151.188 201.137 151.058C201.317 150.739 201.509 150.42 201.712 150.1V150.083C202.235 149.275 202.803 148.498 203.413 147.754L203.437 147.724C203.924 147.133 204.431 146.542 204.941 146.001L204.97 145.968L205.33 145.587L205.389 145.528C205.876 145.017 206.362 144.532 206.834 144.08L206.943 143.976L207.238 143.707L207.374 143.58L207.636 143.335L207.775 143.208L208.167 142.853L208.379 142.664L208.538 142.525L208.771 142.321L208.889 142.221L209.184 141.961L209.211 141.937C210.163 141.121 210.791 140.645 210.791 140.645H210.776C210.474 140.862 210.158 141.06 209.83 141.236L209.786 141.257L209.491 141.405L209.408 141.443L209.146 141.562L208.998 141.621L208.792 141.706L208.591 141.78L208.429 141.839L208.176 141.925L208.058 141.964L207.733 142.061L207.68 142.076L207.297 142.179C200.627 143.902 191.147 141.355 190.277 141.112L190.221 141.098C190.221 141.098 186.411 140.308 181.475 139.599C183.763 134.905 186.054 130.49 188.177 126.559C190.009 130.578 193.12 133.874 197.023 135.928C197.171 135.763 197.318 135.591 197.442 135.42C197.885 135.674 198.147 135.795 198.147 135.795C199.386 134.375 200.248 132.665 200.653 130.824C201.923 132.03 203.358 133.049 204.914 133.85C205.042 133.706 205.165 133.56 205.283 133.41C205.463 133.504 205.56 133.552 205.56 133.552C208.028 130.764 208.683 127.165 208.406 123.502C212.994 125.253 218.06 125.275 222.663 123.565C222.663 123.547 222.663 123.526 222.663 123.508C223.087 123.364 223.32 123.263 223.32 123.263C222.949 120.523 221.551 118.238 219.652 116.341C228.463 116.524 233.216 111.05 233.216 111.05L233.166 110.982C233.529 110.642 233.712 110.432 233.712 110.432C232.547 108.788 231.077 107.383 229.383 106.295C233.405 103.909 235.148 100.821 235.148 100.821C235.047 100.726 234.941 100.634 234.853 100.543C235.074 100.224 235.183 100.032 235.183 100.032C234.962 99.8217 234.732 99.6236 234.502 99.4404C234.652 99.2128 234.726 99.0827 234.726 99.0827C231.187 95.7458 226.493 94.5428 221.837 94.4039C224.651 91.27 226.383 87.311 226.776 83.1133C223.238 81.9576 219.623 82.7556 216.332 84.4167C216.601 81.3502 216.159 78.2629 215.04 75.396C215.943 76.0928 216.914 76.695 217.939 77.1931C218.065 77.0473 218.186 76.8985 218.302 76.7468C218.481 76.8384 218.596 76.8827 218.596 76.8827C221.02 74.0571 221.616 70.4483 221.283 66.8039C225.898 68.4831 230.964 68.4264 235.54 66.6443V66.5882C235.961 66.4374 236.192 66.334 236.192 66.334C235.776 63.6 234.354 61.3359 232.414 59.468C241.225 59.5153 245.893 53.9675 245.893 53.9675L245.84 53.8995C246.197 53.5537 246.376 53.3409 246.376 53.3409C245.184 51.7196 243.693 50.343 241.983 49.2857C245.967 46.8384 247.659 43.7231 247.659 43.7231C247.556 43.6286 247.45 43.5399 247.347 43.4483C247.562 43.1231 247.668 42.931 247.668 42.931C247.444 42.7241 247.211 42.5291 246.978 42.3399C247.125 42.1094 247.199 41.9793 247.199 41.9793C243.611 38.6985 238.895 37.5665 234.225 37.5015C236.987 34.3239 238.655 30.339 238.981 26.1369C235.413 25.0345 231.824 25.8916 228.56 27.6148C228.813 24.2778 228.204 20.9317 226.791 17.8995C226.549 17.9498 226.313 18.0089 226.08 18.0709C226.024 17.9527 225.992 17.8936 225.992 17.8936C225.897 17.6867 225.839 17.5744 225.839 17.5744C221.79 18.3931 218.885 21.3163 216.821 24.8276C216.668 25.0877 216.526 25.3507 216.376 25.6167C214.841 21.8201 212.174 18.5913 208.739 16.3714C205.722 19.2236 204.852 23.2788 205.018 27.3813C205.018 27.6591 205.047 27.9369 205.065 28.2148C201.613 25.5113 197.379 24.0033 192.999 23.9172C192.376 26.3527 192.671 28.7498 193.526 31.0108C190.573 30.5555 187.556 30.7666 184.695 31.6286C184.695 31.667 184.695 31.7054 184.695 31.7438C184.273 31.8562 184.04 31.9389 184.04 31.9389C184.27 35.3734 186.104 38.2138 188.631 40.5103C184.747 41.0874 181.116 42.7897 178.184 45.4079C178.282 45.5813 178.381 45.7497 178.479 45.9133C178.273 46.0936 178.166 46.2089 178.166 46.2089C179.968 49.398 183.12 51.2128 186.638 52.197C183.057 54.3404 180.243 57.5626 178.597 61.4039C178.682 61.463 178.768 61.5192 178.853 61.5783C178.674 61.9685 178.591 62.196 178.591 62.196C181.596 64.3419 185.24 64.6699 188.858 64.0877C188.274 66.1736 188.029 68.3403 188.133 70.5044C185.913 73.6286 183.66 76.8975 181.437 80.2049C181.035 80.1813 180.811 80.1842 180.811 80.1842C180.69 80.6319 180.599 81.0871 180.537 81.5468C179.31 83.3793 178.096 85.2177 176.901 87.0414C175.378 87.094 173.867 87.3393 172.405 87.7714C172.405 87.8098 172.405 87.8483 172.405 87.8867C171.983 87.9931 171.747 88.0699 171.747 88.0699C171.747 88.1172 171.747 88.1645 171.747 88.2118C169.771 85.5369 167.005 83.5359 164.024 82.0433C167.918 80.39 171.186 77.5369 173.354 73.8975C170.638 71.3616 167.032 70.5724 163.328 70.6965C165.039 67.8204 165.982 64.5506 166.065 61.2029C165.826 61.1409 165.587 61.0936 165.348 61.0492C165.348 60.9192 165.348 60.8512 165.348 60.8512C165.348 60.6236 165.348 60.4995 165.348 60.4995C161.347 59.4768 157.44 60.8453 154.019 63.1034C153.766 63.2719 153.515 63.4433 153.267 63.6207C153.581 59.5554 152.62 55.4934 150.519 52.002C146.538 53.2581 143.955 56.5212 142.28 60.2778C142.165 60.532 142.059 60.7891 141.953 61.0492C140.05 57.12 136.913 53.9251 133.024 51.9547C131.382 53.8729 130.583 56.1547 130.341 58.5606C127.883 56.8687 125.078 55.7497 122.132 55.2857L122.09 55.3951C121.663 55.3123 121.415 55.2857 121.415 55.2857C120.094 58.4719 120.489 61.8236 121.71 64.9832C117.962 63.8276 113.96 63.7824 110.186 64.8532C110.186 65.0512 110.213 65.2463 110.236 65.4443C109.971 65.5182 109.83 65.5655 109.83 65.5655C110.03 69.2128 112.053 72.2098 114.778 74.6187C110.606 74.9953 106.654 76.6647 103.472 79.3951C103.522 79.4867 103.575 79.5724 103.625 79.6611C103.292 79.933 103.115 80.1015 103.115 80.1015C104.861 83.332 107.99 85.2088 111.496 86.2551C109.462 88.489 107.975 91.1665 107.152 94.0758C107.417 94.2177 107.683 94.3448 107.954 94.466C107.895 94.6699 107.869 94.7852 107.869 94.7852C111.628 96.8217 115.93 96.3399 119.929 94.862C118.717 103.277 123.709 109.215 123.709 109.215C123.913 109.126 124.113 109.032 124.299 108.919C124.594 109.333 124.774 109.555 124.774 109.555C126.511 108.792 128.032 107.606 129.197 106.105C129.827 107.73 130.688 109.255 131.753 110.633C131.932 110.557 132.107 110.475 132.278 110.388C132.399 110.548 132.47 110.633 132.47 110.633C134.206 109.875 135.726 108.694 136.893 107.199C137.285 115.818 137.621 130.034 136.648 144.698C136.058 153.647 134.976 162.765 133.11 170.882C129.728 156.857 125.366 139.868 120.952 125.737C116.14 110.329 106.869 95.6157 98.2675 81.9103C92.1312 72.1359 84.3584 60.1448 77.0691 50.0394C83.8335 52.2916 89.1589 49.9271 89.1589 49.9271C89.1589 49.9271 89.1589 49.8709 89.1412 49.8443C89.616 49.6906 89.8725 49.5754 89.8725 49.5754C89.5237 47.6033 88.7956 45.7181 87.7288 44.0246C92.3966 43.5547 95.3041 41.4887 95.3041 41.4887C95.254 41.3586 95.1979 41.2345 95.1448 41.1074C95.4839 40.9094 95.6638 40.7823 95.6638 40.7823C95.5518 40.4867 95.4309 40.2236 95.3041 39.9517C95.54 39.8098 95.6638 39.7212 95.6638 39.7212C93.8946 35.2167 90.1644 32.1547 86.0097 30.0768C89.9037 28.4235 93.1714 25.5704 95.3395 21.931C92.6237 19.3951 89.0174 18.6059 85.3138 18.73C87.0301 15.8593 87.9796 12.5938 88.0708 9.24827C87.832 9.1862 87.5931 9.13892 87.3543 9.09458C87.3543 8.96453 87.3543 8.89655 87.3543 8.89655C87.3543 8.66897 87.3543 8.54483 87.3543 8.54483C83.3529 7.52217 79.4458 8.89064 76.0253 11.1488C75.7717 11.3172 75.521 11.4887 75.2733 11.666C75.587 7.60071 74.6262 3.53872 72.5251 0.0472917C68.5443 1.30345 65.9613 4.5665 64.2864 8.32315C64.1714 8.57734 64.0652 8.83448 63.9591 9.09458C62.0559 5.16534 58.9193 1.97044 55.0303 0C53.3879 1.91823 52.5888 4.2 52.347 6.60591C49.8877 4.91359 47.0817 3.7946 44.1347 3.33104L44.0935 3.44039C43.6659 3.35763 43.4182 3.33104 43.4182 3.33104C42.0972 6.51724 42.4923 9.86896 43.7131 13.0286C39.9518 11.8648 35.9345 11.8196 32.1482 12.8985C32.1482 13.0965 32.1747 13.2916 32.1983 13.4897C31.9329 13.5635 31.7914 13.6108 31.7914 13.6108C31.9919 17.2581 34.0147 20.2552 36.7393 22.664C32.5685 23.0443 28.6192 24.7168 25.4398 27.4493C25.4899 27.5409 25.543 27.6266 25.5931 27.7153C25.2599 27.9872 25.083 28.1557 25.083 28.1557C26.8286 31.3862 29.9572 33.2631 33.4633 34.3094C31.4298 36.5432 29.9427 39.2207 29.1198 42.13C29.3852 42.2719 29.6506 42.399 29.9219 42.5202C29.8629 42.7241 29.8363 42.8394 29.8363 42.8394C33.596 44.8759 37.8982 44.3941 41.8967 42.9163C40.6847 51.331 45.6769 57.269 45.6769 57.269C45.8804 57.1803 46.0809 57.0857 46.2667 56.9734C46.5616 57.3872 46.7414 57.6089 46.7414 57.6089C48.479 56.8457 49.9993 55.6602 51.1645 54.1596C51.7978 55.7915 52.6639 57.3227 53.7358 58.7054C53.9147 58.6286 54.0897 58.5468 54.2607 58.4601C54.3816 58.6197 54.4524 58.7054 54.4524 58.7054C57.8847 57.2276 60.0255 54.2364 61.3494 50.8167C66.1647 55.8798 72.2892 56.7044 73.8521 56.8345C82.8162 69.5261 93.7 86.0187 100.615 100.259C100.615 100.259 114.842 127.815 123.91 156.697C119.301 151.821 112.999 144.745 111.587 141.118C109.302 135.248 80.9556 141.118 80.9556 141.118L80.8995 141.133C80.0149 141.375 70.5495 143.923 63.8794 142.2L63.502 142.097L63.4489 142.082L63.1246 141.984L63.0066 141.946L62.753 141.86L62.5909 141.801L62.3903 141.727L62.1839 141.641L62.0365 141.582L61.7741 141.464L61.6915 141.426L61.3966 141.278L61.3524 141.257C61.0246 141.081 60.7084 140.883 60.4058 140.666H60.3911C62.9626 142.684 65.3327 144.948 67.4681 147.426L67.5359 147.508L67.9074 147.964L68.0047 148.085C68.1266 148.238 68.2465 148.392 68.3645 148.546L68.4352 148.637C68.5709 148.819 68.7046 149.001 68.8363 149.184L68.9336 149.326C69.026 149.456 69.1164 149.587 69.2049 149.719L69.3582 149.95L69.5558 150.245L69.7179 150.505L69.8831 150.801C69.9361 150.893 69.9922 150.984 70.0423 151.076L70.0629 151.114C70.1484 151.271 70.234 151.425 70.3136 151.581L70.3961 151.75C70.465 151.888 70.5298 152.025 70.5908 152.161L70.6586 152.311L70.7117 152.438C64.2245 152.359 54.9654 152.967 48.9648 156.47C38.9066 162.34 19.7045 158.728 19.7045 158.728C19.7045 158.728 38.4496 168.659 40.2778 174.077C41.0091 176.24 44.5741 179.335 48.6021 182.276L49.469 182.902C48.2862 183.838 47.1996 184.889 46.2254 186.041C37.0843 196.877 15.1369 207.712 15.1369 207.712H15.2018L15.3905 207.73L15.7149 207.76L16.3046 207.816H16.4049C21.0993 208.259 37.6357 209.964 47.0717 212.808C47.4108 212.911 47.741 213.015 48.0595 213.118C50.8018 214.02 66.3416 212.666 76.8627 209.506C77.1576 209.418 77.4525 209.338 77.7473 209.261L78.0098 209.196C78.2299 209.143 78.4511 209.093 78.6732 209.045L78.9357 208.989C79.2305 208.93 79.5254 208.874 79.8203 208.827H79.8144C80.1093 208.776 80.4041 208.735 80.699 208.697L80.9673 208.664L81.6131 208.593L81.8932 208.566C82.1606 208.543 82.427 208.524 82.6924 208.51H82.7779C83.0727 208.496 83.347 208.484 83.633 208.478H83.9279H84.8125H85.4199L85.8328 208.493L86.4225 208.522L86.8442 208.552L87.2098 208.581L87.6787 208.623L87.8998 208.646L88.404 208.699L88.7638 208.744L89.0351 208.779L89.4332 208.835L89.6543 208.868C89.6543 208.93 89.6307 208.998 89.6189 209.063C89.6189 209.063 89.9993 211.188 92.4939 213.266C88.2684 214.484 84.7624 215.885 82.1439 217.404C81.9876 217.49 81.849 217.581 81.6957 217.67C81.8018 217.67 81.905 217.646 82.0171 217.637C82.1292 217.629 82.2147 217.637 82.312 217.637H189.832C189.932 217.637 190.029 217.637 190.126 217.637C190.224 217.637 190.336 217.655 190.442 217.67C190.529 217.679 190.616 217.693 190.701 217.711C190.794 217.724 190.886 217.744 190.976 217.77C190.779 217.644 190.582 217.522 190.386 217.404C187.113 215.489 182.454 213.789 176.748 212.379C178.461 211.493 179.417 210.488 179.815 209.424C180.151 209.347 180.493 209.273 180.85 209.202C182.245 208.917 183.655 208.709 185.072 208.578L185.662 208.531L185.957 208.507C189.233 208.256 192.527 208.588 195.688 209.489C206.203 212.648 221.746 214.002 224.491 213.1C224.809 212.994 225.14 212.891 225.479 212.79C234.894 209.95 251.428 208.241 256.146 207.798H256.246L256.836 207.742L257.16 207.712L257.349 207.695H257.414C257.414 207.695 235.481 196.856 226.337 186.021ZM213.731 74.3557L213.581 74.3882C213.581 74.3409 213.601 74.2936 213.61 74.2463L213.731 74.3557ZM169.238 98.9911C168.592 99.3399 168.023 99.6886 167.545 100.011C167.137 98.5947 166.534 97.2426 165.752 95.9941C168.076 95.7687 170.335 95.0953 172.405 94.0108C171.311 95.7133 170.255 97.3773 169.238 98.9911ZM171.225 107.299C172.13 107.727 173.068 108.083 174.029 108.364C171.769 109.673 169.788 111.418 168.203 113.498C169.131 111.449 170.146 109.38 171.225 107.299ZM142.092 144.715C142.923 130.945 143.43 116.045 142.723 105.556C145.574 107.428 148.851 108.547 152.25 108.807L152.265 108.751C152.71 108.798 152.964 108.807 152.964 108.807C153.804 106.17 153.536 103.522 152.622 101.001C156.679 103.034 161.334 103.526 165.726 102.387C165.937 102.765 166.172 103.129 166.427 103.478C160.722 112.64 156.838 119.217 156.838 119.217C152.884 125.178 146.367 146.025 140.443 166.963C140.992 160.714 141.599 152.911 142.092 144.715ZM159.586 141.103C158.495 143.905 154.488 148.762 150.596 153.077C155.703 140.187 160.822 129.269 163.679 123.396C164.49 121.732 165.269 120.053 166.038 118.371C168.972 120.44 172.525 120.798 176.064 120.287C175.185 123.169 174.991 126.218 175.498 129.189C175.793 129.207 176.088 129.21 176.382 129.204C176.418 129.414 176.441 129.526 176.441 129.526C177.79 129.609 179.142 129.448 180.434 129.05C178.859 132.248 177.282 135.553 175.734 138.901C168.368 138.168 160.731 138.171 159.589 141.1L159.586 141.103ZM213.982 74.8492C213.929 74.731 213.896 74.669 213.896 74.669C213.837 74.5359 213.793 74.4414 213.769 74.3911C213.925 74.529 214.079 74.6611 214.232 74.7872L213.982 74.8492ZM193.6 72.7005C196.112 71.8374 198.339 70.1616 200.261 68.1576C201.577 72.053 204.083 75.4344 207.424 77.8226C206.349 78.9213 205.408 80.1436 204.619 81.464C204.463 81.7212 204.325 81.9842 204.162 82.2473C202.686 78.4304 200.071 75.1634 196.673 72.8926C193.609 75.6975 192.677 79.7379 192.777 83.8286C192.777 84.1064 192.798 84.3842 192.813 84.665C191.141 83.2972 189.255 82.2157 187.231 81.464C189.41 78.3724 191.571 75.4286 193.609 72.7005H193.6Z" fill="url(#paint0_linear_184_142)"/>
<path d="M129.165 162.76C129.165 162.76 114.51 148.07 112.29 142.286C110.069 136.502 82.537 142.286 82.537 142.286C82.537 142.286 68.7724 146.291 62.5535 141.839C62.5535 141.839 72.3226 149.406 73.2102 155.637C74.0978 161.867 108.737 177.893 108.737 177.893L129.165 197.031L136.272 193.026L129.165 162.76Z" fill="#FF8000"/>
<path d="M136.271 193.028L129.165 197.03L123.453 191.692L108.739 177.895C108.739 177.895 74.1032 161.858 73.2126 155.651C72.9997 154.401 72.5632 153.199 71.924 152.104C69.1228 147.009 62.895 142.111 62.5677 141.854C68.7895 146.288 82.5365 142.291 82.5365 142.291C82.5365 142.291 110.069 136.504 112.289 142.291C114.51 148.079 129.165 162.765 129.165 162.765L136.271 193.028Z" fill="#1A535C"/>
<path opacity="0.1" d="M126.946 191.693H123.455L108.741 177.896C108.741 177.896 74.1052 161.858 73.2146 155.651C73.0017 154.401 72.5652 153.199 71.926 152.104C74.729 152.094 77.5304 152.235 80.3181 152.527C90.0873 162.319 103.852 167.217 103.852 167.217C117.623 158.311 126.946 191.693 126.946 191.693Z" fill="black"/>
<path d="M126.503 193.028H109.627L63.8894 191.255C63.8894 191.255 56.9923 187.235 51.1037 182.87C47.1907 179.973 43.7319 176.92 43.0183 174.786C41.249 169.445 23.0347 159.653 23.0347 159.653C23.0347 159.653 41.6854 163.2 51.4546 157.427C61.2237 151.655 79.8745 153.881 79.8745 153.881C89.6436 163.673 103.408 168.57 103.408 168.57C111.043 163.634 117.309 171.7 121.381 179.864C123.452 184.101 125.165 188.504 126.503 193.028Z" fill="#4ECDC4"/>
<path d="M142.031 162.76C142.031 162.76 156.686 148.07 158.907 142.286C161.127 136.502 188.659 142.286 188.659 142.286C188.659 142.286 202.424 146.291 208.643 141.839C208.643 141.839 198.874 149.406 197.986 155.637C197.099 161.867 162.46 177.893 162.46 177.893L142.031 197.031L134.925 193.026L142.031 162.76Z" fill="#FF8000"/>
<path d="M208.64 141.851C208.313 142.108 202.085 147.009 199.284 152.107C198.643 153.202 198.207 154.404 197.995 155.654C197.11 161.885 162.469 177.91 162.469 177.91L147.743 191.707L142.031 197.031L134.925 193.026L142.031 162.76C142.031 162.76 156.686 148.07 158.907 142.286C161.127 136.502 188.659 142.286 188.659 142.286C188.659 142.286 202.418 146.288 208.64 141.851Z" fill="#1A535C"/>
<path opacity="0.1" d="M127.551 187.573C126.932 188.149 125.891 188.628 126.077 189.455C126.159 189.733 126.326 189.977 126.555 190.153C127.711 191.182 129.583 191.983 129.427 193.525C129.338 194.412 128.566 195.042 128.188 195.84C127.401 197.507 128.642 199.632 130.391 200.205C132.14 200.779 134.098 200.105 135.54 198.955C135.849 198.707 136.179 198.426 136.575 198.426C136.876 198.468 137.169 198.559 137.441 198.695C138.621 199.103 139.951 198.198 140.455 197.043C140.959 195.887 140.868 194.569 140.765 193.313C141.434 193.883 142.534 193.573 143.103 192.896C143.672 192.219 143.837 191.306 143.988 190.437L145.04 184.345C145.884 184.1 146.22 182.959 145.834 182.17C145.447 181.381 144.548 180.949 143.675 180.866C142.802 180.783 141.929 180.982 141.068 181.147C138.816 181.582 136.524 181.78 134.23 181.738C132.328 181.7 129.887 179.347 128.837 181.443C127.879 183.317 129.291 185.956 127.551 187.573Z" fill="black"/>
<path opacity="0.1" d="M199.285 152.104C198.645 153.199 198.208 154.4 197.996 155.651C197.112 161.882 162.47 177.907 162.47 177.907L147.744 191.704H143.822C143.822 191.704 153.146 158.311 166.914 167.211C166.914 167.211 180.679 162.313 190.448 152.521C193.383 152.217 196.334 152.078 199.285 152.104Z" fill="black"/>
<path d="M248.186 159.645C248.186 159.645 229.98 169.437 228.202 174.778C227.536 176.782 224.44 179.593 220.83 182.327C214.8 186.893 207.334 191.247 207.334 191.247L161.596 193.02H144.709C145.892 188.999 147.371 185.071 149.132 181.268C153.169 172.67 159.724 163.336 167.8 168.547C167.8 168.547 181.565 163.65 191.334 153.858C191.334 153.858 209.985 151.632 219.754 157.404C229.523 163.177 248.186 159.645 248.186 159.645Z" fill="#4ECDC4"/>
<path d="M205.989 57.0472C205.989 57.0472 178.425 89.1458 166.674 116.456C165.465 119.267 164.218 122.072 162.896 124.818C155.849 139.519 134.645 186.295 135.385 215.557L127.391 217.262C127.391 217.262 147.817 133.581 156.256 120.674C156.256 120.674 193.557 56.5773 205.992 50.3467L205.989 57.0472Z" fill="#635151"/>
<path d="M141.926 145.847C141.442 153.934 140.852 161.63 140.33 167.769C140.227 169.034 140.121 170.231 140.036 171.358C139.484 177.523 139.083 181.442 139.083 181.442V181.466C138.98 183.393 138.381 186.322 137.414 189.966C137.096 191.172 136.73 192.458 136.335 193.809C136.258 194.054 136.188 194.302 136.114 194.551C135.776 195.69 135.413 196.872 135.026 198.097C134.866 198.597 134.707 199.102 134.542 199.617C133.658 202.389 132.667 205.345 131.593 208.425C130.635 211.206 129.618 214.088 128.565 217.023L128.391 217.498C128.365 217.569 128.338 217.646 128.311 217.72H122.759C122.783 217.643 122.803 217.569 122.821 217.498C123.67 214.484 124.452 211.531 125.18 208.664C125.908 205.797 126.601 202.957 127.217 200.291C127.471 199.201 127.715 198.136 127.949 197.095C128.025 196.758 128.099 196.425 128.17 196.093C128.205 195.946 128.238 195.798 128.267 195.656C128.426 194.95 128.577 194.255 128.721 193.587C128.78 193.339 128.833 193.088 128.886 192.845L129.019 192.222C129.352 190.664 129.659 189.186 129.939 187.806C130.169 186.674 130.379 185.613 130.573 184.614C130.847 183.195 131.092 181.915 131.296 180.807C131.885 177.647 132.18 175.826 132.18 175.826C132.194 175.786 132.204 175.744 132.213 175.702C132.572 174.39 132.906 173.042 133.212 171.665C135.014 163.661 136.067 154.67 136.642 145.844C138.157 122.672 136.403 100.623 136.403 100.623L140.333 95.2314C143.663 101.737 143.158 125.087 141.926 145.847Z" fill="#635151"/>
<path d="M196.344 110.893C196.344 110.893 188.226 124.043 180.176 140.808C179.39 142.455 178.603 144.13 177.817 145.832C174.756 152.447 172.028 159.211 169.643 166.099C169.416 166.761 169.195 167.426 168.982 168.086C168.581 169.318 168.201 170.548 167.844 171.762C167.703 172.238 167.564 172.714 167.434 173.187C167.181 174.086 166.941 174.977 166.715 175.862C166.388 177.157 166.09 178.439 165.83 179.704C165.83 179.704 164.161 184.85 161.9 193.005C161.758 193.531 161.605 194.063 161.46 194.613C161.357 194.991 161.251 195.378 161.145 195.771C160.337 198.786 159.467 202.126 158.588 205.714C158.293 206.944 157.998 208.197 157.686 209.486C157.078 212.063 156.468 214.747 155.878 217.501C155.878 217.578 155.846 217.649 155.834 217.723H150.264C150.264 217.646 150.288 217.572 150.296 217.501C150.68 214.563 151.066 211.693 151.476 208.93C151.756 206.95 152.045 205.017 152.334 203.16C152.841 199.894 153.36 196.841 153.876 194.09C153.947 193.729 154.015 193.374 154.08 193.025C154.08 193.025 154.08 192.999 154.08 192.984C154.652 189.836 155.399 186.723 156.318 183.659C156.546 182.936 156.813 182.225 157.117 181.531C157.117 181.531 157.869 179.598 159.181 176.347L159.847 174.677C160.732 172.519 161.77 169.933 162.964 167.039C163.129 166.634 163.3 166.221 163.474 165.801C165.904 159.94 168.862 152.964 172.026 145.841C172.875 143.932 173.736 141.999 174.609 140.104C182.095 123.724 190.258 107.914 195.315 104.296L196.344 110.893Z" fill="#635151"/>
<path d="M60.7826 38.7992C60.7826 38.7992 88.5361 74.6307 101.634 102.003C101.634 102.003 132.275 162.24 131.387 197.329L139.378 199.038C139.378 199.038 130.497 156.736 121.391 127.153C116.717 111.961 107.712 97.4574 99.3579 83.944C87.333 64.4958 68.8356 36.1628 60.7767 32.1253L60.7826 38.7992Z" fill="#635151"/>
<path d="M189.41 217.868C189.324 217.841 189.235 217.821 189.145 217.809C189.061 217.79 188.977 217.777 188.891 217.767C188.788 217.767 188.688 217.741 188.597 217.735C188.505 217.729 188.405 217.735 188.302 217.735H83.8842C83.7869 217.735 83.6896 217.735 83.5893 217.735C83.489 217.735 83.38 217.752 83.2797 217.767C83.4212 217.679 83.5746 217.59 83.7161 217.504C86.2609 215.994 89.6666 214.617 93.7683 213.414C101.933 211.019 112.858 209.314 125.178 208.67C126.626 208.59 128.095 208.531 129.578 208.484L131.598 208.43C132.916 208.404 134.251 208.386 135.593 208.386C135.82 208.386 136.041 208.386 136.268 208.386C141.526 208.386 146.618 208.578 151.46 208.933C153.583 209.088 155.652 209.276 157.667 209.494C163.698 210.105 169.68 211.128 175.572 212.556C181.113 213.946 185.639 215.624 188.818 217.51C189.022 217.624 189.22 217.744 189.41 217.868Z" fill="#635151"/>
<path opacity="0.1" d="M126.505 193.029H109.629L63.8912 191.255C63.8912 191.255 56.9941 187.236 51.1055 182.87C60.4529 174.576 75.7598 174.742 79.431 176.79C83.4295 179.001 90.9782 178.114 90.9782 178.114C96.5248 165.538 111.661 173.146 121.391 179.84C123.461 184.085 125.171 188.497 126.505 193.029Z" fill="black"/>
<path d="M130.053 187.909C130.053 187.909 99.4129 160.312 90.9765 179.453C90.9765 179.453 83.4278 180.34 79.4323 178.117C75.4367 175.895 57.6736 175.892 48.792 186.573C39.9104 197.255 18.597 207.94 18.597 207.94C18.597 207.94 40.1404 209.796 50.5701 213.281C53.2239 214.167 68.3332 212.834 78.5447 209.734C88.7561 206.633 99.864 211.513 99.864 211.513L131.386 198.591L130.053 187.909Z" fill="#FF8000"/>
<path d="M131.388 198.591L99.866 211.513C96.6439 210.205 93.2608 209.337 89.8079 208.933C86.352 208.522 82.3889 208.564 78.5496 209.734C68.3352 212.849 53.2377 214.185 50.575 213.281C40.1454 209.796 18.6019 207.94 18.6019 207.94C18.6019 207.94 39.9183 197.258 48.7969 186.574C57.6756 175.889 75.4358 175.892 79.4342 178.114C83.4327 180.337 90.9785 179.45 90.9785 179.45C99.4148 160.31 130.055 187.907 130.055 187.907L130.695 193.052L131.388 198.591Z" fill="#1A535C"/>
<path opacity="0.1" d="M220.816 182.329C214.786 186.896 207.319 191.249 207.319 191.249L161.582 193.023H144.709C145.893 189.002 147.371 185.074 149.132 181.271C158.636 174.349 175.615 164.619 181.568 178.111C181.568 178.111 189.117 178.998 193.112 176.775C196.704 174.777 211.43 174.568 220.816 182.329Z" fill="black"/>
<path d="M142.49 187.909C142.49 187.909 173.13 160.312 181.566 179.453C181.566 179.453 189.115 180.34 193.11 178.117C197.106 175.895 214.869 175.892 223.751 186.573C232.632 197.255 253.946 207.94 253.946 207.94C253.946 207.94 232.408 209.796 221.976 213.287C219.322 214.173 204.212 212.84 194.001 209.74C183.789 206.639 172.699 211.513 172.699 211.513L141.148 198.591L142.49 187.909Z" fill="#FF8000"/>
<path d="M253.949 207.94C253.949 207.94 232.408 209.796 221.976 213.287C219.322 214.173 204.212 212.84 194.001 209.74C188.911 208.185 183.607 208.623 179.552 209.444C177.207 209.912 174.912 210.605 172.699 211.513L141.148 198.591L141.953 192.151L142.481 187.909C142.481 187.909 173.121 160.312 181.557 179.453C181.557 179.453 189.106 180.34 193.102 178.117C197.097 175.895 214.86 175.892 223.742 186.573C232.623 197.255 253.949 207.94 253.949 207.94Z" fill="#1A535C"/>
<path opacity="0.1" d="M179.561 209.444C177.213 209.912 174.915 210.605 172.699 211.513L141.148 198.591L141.953 192.151C151.775 190.909 170.458 197.255 170.458 197.255C170.458 197.255 182.837 204.177 179.561 209.444Z" fill="black"/>
<path opacity="0.1" d="M131.385 198.591L99.8631 211.513C96.6409 210.205 93.2579 209.337 89.8049 208.933C89.7393 208.759 89.6871 208.58 89.6487 208.398C92.8539 190.194 120.053 191.743 130.698 193.07L131.385 198.591Z" fill="black"/>
<path d="M178.555 209.648C178.169 210.686 177.24 211.673 175.577 212.551C174.651 213.031 173.684 213.427 172.687 213.733C168.886 214.93 166.309 216.233 164.584 217.516C164.481 217.593 164.389 217.664 164.289 217.738H106.789C106.744 217.649 106.7 217.578 106.668 217.516C106.582 217.368 106.529 217.295 106.529 217.295C99.7971 217.085 95.9549 215.273 93.7788 213.426C91.3549 211.377 90.9863 209.288 90.9863 209.288C90.9863 209.226 91.0099 209.158 91.0217 209.096C93.7965 194.22 112.745 192.695 125.227 193.357C126.465 193.425 127.639 193.507 128.727 193.605L129.402 193.667L130.791 193.815L131.381 193.883C132.074 193.963 132.705 194.048 133.268 194.128C133.584 194.169 133.858 194.214 134.153 194.249C135.147 194.4 135.831 194.521 136.126 194.574L136.291 194.607C136.496 194.444 136.712 194.297 136.939 194.166C137.223 194.002 137.519 193.858 137.824 193.738C137.954 193.685 138.086 193.64 138.219 193.596C139.405 193.218 140.635 193.001 141.879 192.952C142.282 192.925 142.695 192.91 143.123 192.907C143.651 192.907 144.196 192.907 144.756 192.931C145.317 192.955 145.818 192.984 146.364 193.029C146.461 193.029 146.558 193.029 146.658 193.052C149.083 193.278 151.493 193.633 153.88 194.116C156.436 194.619 158.937 195.219 161.148 195.804C165.781 197.028 169.151 198.168 169.151 198.168C169.151 198.168 180.483 204.494 178.555 209.648Z" fill="#4ECDC4"/>
<path d="M138.427 91.1862C145.077 89.4934 149.587 84.644 148.5 80.3548C147.413 76.0657 141.142 73.9609 134.492 75.6537C127.842 77.3466 123.332 82.196 124.419 86.4851C125.505 90.7743 131.777 92.8791 138.427 91.1862Z" fill="#FF8000"/>
<path d="M145.889 78.0381C145.889 78.0381 163.688 67.8677 172.298 76.0283C172.298 76.0283 164.522 91.0667 145.332 83.3879L145.889 78.0381Z" fill="#1A535C"/>
<path opacity="0.05" d="M143.085 78.0771C143.085 78.0771 153.754 60.5441 165.227 63.5116C165.227 63.5116 165.679 80.4416 145.176 83.019L143.085 78.0771Z" fill="black"/>
<path d="M144.482 82.3329L144.187 81.6354L142.389 77.3822C142.389 77.3822 147.045 69.7182 153.532 65.3851C156.852 63.1595 160.647 61.8088 164.534 62.8167C164.531 62.8167 164.985 79.7467 144.482 82.3329Z" fill="#4ECDC4"/>
<path opacity="0.05" d="M153.531 65.3852C153.277 70.1882 151.095 76.0108 144.222 81.6591L144.189 81.6384L142.391 77.3852C142.391 77.3852 147.044 69.7182 153.531 65.3852Z" fill="black"/>
<path d="M143.524 81.6561L142.533 80.9615L139.122 78.5822C139.122 78.5822 139.001 69.7152 142.126 62.598C143.754 58.8945 146.255 55.6728 150.129 54.4374C150.129 54.4374 159.506 68.527 143.524 81.6561Z" fill="#1A535C"/>
<path opacity="0.05" d="M142.666 80.9702H142.533L139.122 78.5909C139.122 78.5909 139.001 69.724 142.126 62.6067C144.323 66.7919 145.411 72.7742 142.666 80.9702Z" fill="black"/>
<path d="M136.608 80.7106C136.608 80.7106 125.485 63.4642 133.134 54.4051C133.134 54.4051 148.547 61.3509 141.98 80.9825L136.608 80.7106Z" fill="#FF8000"/>
<path opacity="0.05" d="M133.954 81.6411C133.954 81.6411 118.066 68.6717 122.569 57.6796C122.569 57.6796 139.377 59.5239 139.144 80.2342L133.954 81.6411Z" fill="black"/>
<path d="M133.261 81.6411C133.261 81.6411 117.376 68.6687 121.864 57.6796C121.864 57.6796 138.672 59.5239 138.439 80.2342L133.261 81.6411Z" fill="#1A535C"/>
<path opacity="0.05" d="M131.469 83.8727C131.469 83.8727 111.571 78.9722 110.931 67.114C110.931 67.114 126.899 61.5692 135.547 80.3791L131.469 83.8727Z" fill="black"/>
<path d="M131.122 84.5674C131.122 84.5674 111.223 79.6669 110.584 67.8088C110.584 67.8088 126.551 62.264 135.2 81.0738L131.122 84.5674Z" fill="#FF8000"/>
<path opacity="0.05" d="M130.089 87.9664C130.089 87.9664 109.988 91.9417 104.412 81.4639C104.412 81.4639 116.552 69.6826 132.313 83.0718L130.089 87.9664Z" fill="black"/>
<path d="M129.74 88.6525C129.74 88.6525 109.639 92.6279 104.063 82.15C104.063 82.15 116.203 70.3687 131.964 83.7579L129.74 88.6525Z" fill="#1A535C"/>
<path opacity="0.05" d="M133.026 87.2778C133.026 87.2778 118.376 101.636 107.985 95.9261C107.985 95.9261 111.709 79.4039 132.212 81.9605L133.026 87.2778Z" fill="black"/>
<path d="M133.721 87.9661C133.721 87.9661 119.072 102.325 108.681 96.6143C108.681 96.6143 112.405 80.0922 132.907 82.6488L133.721 87.9661Z" fill="#FF8000"/>
<path opacity="0.05" d="M132.5 85.6845C132.5 85.6845 134.918 106.079 124.067 110.849C124.067 110.849 113.275 97.8146 127.803 83.0865L132.5 85.6845Z" fill="black"/>
<path d="M133.543 86.0309C133.543 86.0309 135.961 106.425 125.109 111.195C125.109 111.195 114.317 98.161 128.845 83.4329L133.543 86.0309Z" fill="#1A535C"/>
<path opacity="0.05" d="M140.32 87.0973C140.32 87.0973 142.738 107.491 131.887 112.262C131.887 112.262 121.095 99.2273 135.623 84.4992L140.32 87.0973Z" fill="black"/>
<path d="M141.017 87.0973C141.017 87.0973 143.435 107.491 132.584 112.262C132.584 112.262 121.791 99.2273 136.32 84.4992L141.017 87.0973Z" fill="#FF8000"/>
<path opacity="0.05" d="M138.448 87.5088C138.448 87.5088 155.353 99.1097 151.791 110.43C151.791 110.43 134.898 109.99 133.403 89.3324L138.448 87.5088Z" fill="black"/>
<path d="M139.142 87.5088C139.142 87.5088 156.05 99.1097 152.488 110.43C152.488 110.43 135.594 109.99 134.099 89.3324L139.142 87.5088Z" fill="#1A535C"/>
<path opacity="0.05" d="M143.063 84.8102C143.063 84.8102 163.954 89.8643 166.293 103.632C166.293 103.632 150.877 110.592 139.421 89.0042L143.063 84.8102Z" fill="black"/>
<path d="M143.759 84.4611C143.759 84.4611 164.651 89.5153 166.989 103.283C166.989 103.283 151.573 110.243 140.117 88.6552L143.759 84.4611Z" fill="#FF8000"/>
<path d="M136.608 80.7106C136.608 80.7106 125.485 63.4642 133.134 54.4051C133.134 54.4051 148.547 61.3509 141.98 80.9825L136.608 80.7106Z" fill="#FF8000"/>
<path d="M136.608 80.7106C136.608 80.7106 125.485 63.4642 133.134 54.4051C133.134 54.4051 148.547 61.3509 141.98 80.9825L136.608 80.7106Z" fill="#4ECDC4"/>
<path d="M131.122 84.5674C131.122 84.5674 111.223 79.6669 110.584 67.8088C110.584 67.8088 126.551 62.264 135.2 81.0738L131.122 84.5674Z" fill="#FF8000"/>
<path d="M131.122 84.5674C131.122 84.5674 111.223 79.6669 110.584 67.8088C110.584 67.8088 126.551 62.264 135.2 81.0738L131.122 84.5674Z" fill="#4ECDC4"/>
<path d="M133.721 87.9661C133.721 87.9661 119.072 102.325 108.681 96.6143C108.681 96.6143 112.405 80.0922 132.907 82.6488L133.721 87.9661Z" fill="#FF8000"/>
<path d="M133.721 87.9661C133.721 87.9661 119.072 102.325 108.681 96.6143C108.681 96.6143 112.405 80.0922 132.907 82.6488L133.721 87.9661Z" fill="#4ECDC4"/>
<path d="M141.017 87.0973C141.017 87.0973 143.435 107.491 132.584 112.262C132.584 112.262 121.791 99.2273 136.32 84.4992L141.017 87.0973Z" fill="#FF8000"/>
<path d="M141.017 87.0973C141.017 87.0973 143.435 107.491 132.584 112.262C132.584 112.262 121.791 99.2273 136.32 84.4992L141.017 87.0973Z" fill="#4ECDC4"/>
<path d="M143.759 84.4611C143.759 84.4611 164.651 89.5153 166.989 103.283C166.989 103.283 151.573 110.243 140.117 88.6552L143.759 84.4611Z" fill="#FF8000"/>
<path d="M143.759 84.4611C143.759 84.4611 164.651 89.5153 166.989 103.283C166.989 103.283 151.573 110.243 140.117 88.6552L143.759 84.4611Z" fill="#4ECDC4"/>
<path opacity="0.05" d="M145.761 81.4995C145.761 81.4995 167.237 82.2857 172.264 95.3114C172.264 95.3114 158.541 105.21 143.028 86.338L145.761 81.4995Z" fill="black"/>
<path opacity="0.05" d="M146.109 79.7585C146.109 79.7585 167.584 80.5447 172.612 93.5702C172.612 93.5702 158.889 103.469 143.375 84.5969L146.109 79.7585Z" fill="black"/>
<path d="M146.109 80.8048C146.109 80.8048 167.584 81.591 172.612 94.6166C172.612 94.6166 158.889 104.515 143.375 85.6432L146.109 80.8048Z" fill="#1A535C"/>
<path d="M151.427 86.3676C150.82 88.7983 149.508 90.9942 147.657 92.6778C145.806 94.3613 143.498 95.457 141.026 95.8262C138.554 96.1954 136.027 95.8216 133.767 94.7521C131.506 93.6825 129.613 91.9653 128.326 89.8173C127.039 87.6694 126.416 85.1872 126.536 82.6846C126.657 80.1819 127.514 77.7712 129.001 75.757C130.488 73.7429 132.537 72.2157 134.889 71.3687C137.242 70.5216 139.792 70.3927 142.218 70.9981C143.829 71.4008 145.346 72.1179 146.681 73.1083C148.016 74.0988 149.144 75.3432 149.999 76.7705C150.854 78.1977 151.42 79.7799 151.665 81.4267C151.91 83.0734 151.829 84.7523 151.427 86.3676Z" fill="#1A535C"/>
<path d="M62.6441 39.9573C69.2941 38.2644 73.8039 33.415 72.7172 29.1258C71.6304 24.8366 65.3586 22.7319 58.7086 24.4247C52.0587 26.1176 47.5489 30.967 48.6356 35.2561C49.7224 39.5453 55.9942 41.6501 62.6441 39.9573Z" fill="#FF8000"/>
<path d="M70.1044 26.8171C70.1044 26.8171 87.903 16.6466 96.5133 24.8072C96.5133 24.8072 88.7375 39.8456 69.5471 32.1668L70.1044 26.8171Z" fill="#1A535C"/>
<path opacity="0.05" d="M67.2985 26.8525C67.2985 26.8525 77.967 9.31946 89.4405 12.287C89.4405 12.287 89.8917 29.217 69.3892 31.7943L67.2985 26.8525Z" fill="black"/>
<path d="M68.6955 31.1085L68.4006 30.411L66.6019 26.1578C66.6019 26.1578 71.2609 18.5085 77.7481 14.1607C81.0684 11.9351 84.8634 10.5844 88.7498 11.5923C88.7439 11.5923 89.198 28.5253 68.6955 31.1085Z" fill="#4ECDC4"/>
<path opacity="0.05" d="M77.7481 14.1605C77.4945 18.9635 75.3125 24.7861 68.439 30.4344L68.4065 30.4137L66.6078 26.1605C66.6078 26.1605 71.2609 18.5083 77.7481 14.1605Z" fill="black"/>
<path d="M67.7228 30.4346L66.7467 29.74L63.3351 27.3607C63.3351 27.3607 63.2142 18.4937 66.3398 11.3765C67.9675 7.67304 70.468 4.45136 74.3427 3.2159C74.3427 3.2159 83.7196 17.3026 67.7228 30.4346Z" fill="#1A535C"/>
<path opacity="0.05" d="M66.8794 29.7396H66.7467L63.3351 27.3603C63.3351 27.3603 63.2142 18.4933 66.3398 11.3761C68.5366 15.5672 69.6247 21.5524 66.8794 29.7396Z" fill="black"/>
<path d="M60.824 29.4858C60.824 29.4858 49.7013 12.2395 57.3503 3.1804C57.3503 3.1804 72.7634 10.1262 66.1965 29.7577L60.824 29.4858Z" fill="#FF8000"/>
<path opacity="0.05" d="M58.1697 30.4197C58.1697 30.4197 42.2849 17.4473 46.7729 6.45816C46.7729 6.45816 63.5806 8.30249 63.3477 29.0128L58.1697 30.4197Z" fill="black"/>
<path d="M57.4741 30.4197C57.4741 30.4197 41.5893 17.4473 46.0773 6.45816C46.0773 6.45816 62.8851 8.30249 62.6521 29.0128L57.4741 30.4197Z" fill="#1A535C"/>
<path opacity="0.05" d="M55.6826 32.6485C55.6826 32.6485 35.7846 27.748 35.1447 15.8899C35.1447 15.8899 51.1121 10.3451 59.7607 29.1549L55.6826 32.6485Z" fill="black"/>
<path d="M55.3388 33.3463C55.3388 33.3463 35.4408 28.4459 34.8009 16.5877C34.8009 16.5877 50.7683 11.0429 59.4169 29.8528L55.3388 33.3463Z" fill="#FF8000"/>
<path opacity="0.05" d="M54.3055 36.7301C54.3055 36.7301 34.204 40.7054 28.628 30.2276C28.628 30.2276 40.7679 18.4463 56.5289 31.8355L54.3055 36.7301Z" fill="black"/>
<path d="M53.9568 37.4248C53.9568 37.4248 33.8553 41.4002 28.2793 30.9223C28.2793 30.9223 40.4192 19.1411 56.1802 32.5302L53.9568 37.4248Z" fill="#1A535C"/>
<path opacity="0.05" d="M57.241 36.0528C57.241 36.0528 42.5917 50.4114 32.2004 44.7011C32.2004 44.7011 35.9246 28.1789 56.4272 30.7356L57.241 36.0528Z" fill="black"/>
<path d="M57.9376 36.7507C57.9376 36.7507 43.2883 51.1093 32.897 45.4049C32.897 45.4049 36.6213 28.8827 57.1238 31.4394L57.9376 36.7507Z" fill="#FF8000"/>
<path opacity="0.05" d="M56.7165 34.4689C56.7165 34.4689 59.1345 54.863 48.2831 59.6334C48.2831 59.6334 37.4908 46.599 52.0192 31.8709L56.7165 34.4689Z" fill="black"/>
<path d="M57.7561 34.8089C57.7561 34.8089 60.174 55.203 49.3227 59.9735C49.3227 59.9735 38.5303 46.939 53.0587 32.2109L57.7561 34.8089Z" fill="#1A535C"/>
<path opacity="0.05" d="M64.5365 35.8727C64.5365 35.8727 66.9544 56.2668 56.1031 61.0372C56.1031 61.0372 45.3108 48.0027 59.8392 33.2746L64.5365 35.8727Z" fill="black"/>
<path d="M65.2331 35.8727C65.2331 35.8727 67.6511 56.2668 56.7997 61.0372C56.7997 61.0372 46.0073 48.0027 60.5358 33.2746L65.2331 35.8727Z" fill="#FF8000"/>
<path opacity="0.05" d="M62.6645 36.2838C62.6645 36.2838 79.5695 47.8878 76.0075 59.2139C76.0075 59.2139 59.1142 58.7735 57.6192 38.1164L62.6645 36.2838Z" fill="black"/>
<path d="M63.3561 36.2838C63.3561 36.2838 80.2612 47.8878 76.6991 59.2139C76.6991 59.2139 59.8058 58.7735 58.3108 38.1164L63.3561 36.2838Z" fill="#1A535C"/>
<path opacity="0.05" d="M67.2789 33.5824C67.2789 33.5824 88.1706 38.6366 90.509 52.4041C90.509 52.4041 75.093 59.3647 63.6372 37.7765L67.2789 33.5824Z" fill="black"/>
<path d="M67.9755 33.2391C67.9755 33.2391 88.8672 38.2933 91.2056 52.0608C91.2056 52.0608 75.7896 59.0214 64.3338 37.4332L67.9755 33.2391Z" fill="#FF8000"/>
<path d="M60.824 29.4858C60.824 29.4858 49.7013 12.2395 57.3503 3.1804C57.3503 3.1804 72.7634 10.1262 66.1965 29.7577L60.824 29.4858Z" fill="#FF8000"/>
<path d="M60.824 29.4858C60.824 29.4858 49.7013 12.2395 57.3503 3.1804C57.3503 3.1804 72.7634 10.1262 66.1965 29.7577L60.824 29.4858Z" fill="#4ECDC4"/>
<path d="M55.3388 33.3463C55.3388 33.3463 35.4408 28.4459 34.8009 16.5877C34.8009 16.5877 50.7683 11.0429 59.4169 29.8528L55.3388 33.3463Z" fill="#FF8000"/>
<path d="M55.3388 33.3463C55.3388 33.3463 35.4408 28.4459 34.8009 16.5877C34.8009 16.5877 50.7683 11.0429 59.4169 29.8528L55.3388 33.3463Z" fill="#4ECDC4"/>
<path d="M57.9376 36.7507C57.9376 36.7507 43.2883 51.1093 32.897 45.4049C32.897 45.4049 36.6213 28.8827 57.1238 31.4394L57.9376 36.7507Z" fill="#FF8000"/>
<path d="M57.9376 36.7507C57.9376 36.7507 43.2883 51.1093 32.897 45.4049C32.897 45.4049 36.6213 28.8827 57.1238 31.4394L57.9376 36.7507Z" fill="#4ECDC4"/>
<path d="M65.2331 35.8727C65.2331 35.8727 67.6511 56.2668 56.7997 61.0372C56.7997 61.0372 46.0073 48.0027 60.5358 33.2746L65.2331 35.8727Z" fill="#FF8000"/>
<path d="M65.2331 35.8727C65.2331 35.8727 67.6511 56.2668 56.7997 61.0372C56.7997 61.0372 46.0073 48.0027 60.5358 33.2746L65.2331 35.8727Z" fill="#4ECDC4"/>
<path d="M67.9755 33.2391C67.9755 33.2391 88.8672 38.2933 91.2056 52.0608C91.2056 52.0608 75.7896 59.0214 64.3338 37.4332L67.9755 33.2391Z" fill="#FF8000"/>
<path d="M67.9755 33.2391C67.9755 33.2391 88.8672 38.2933 91.2056 52.0608C91.2056 52.0608 75.7896 59.0214 64.3338 37.4332L67.9755 33.2391Z" fill="#4ECDC4"/>
<path opacity="0.05" d="M69.9763 30.2777C69.9763 30.2777 91.4519 31.0639 96.4795 44.0895C96.4795 44.0895 82.7561 53.9881 67.2428 35.1161L69.9763 30.2777Z" fill="black"/>
<path opacity="0.05" d="M70.325 28.5342C70.325 28.5342 91.8006 29.3204 96.8282 42.346C96.8282 42.346 83.1048 52.2445 67.5916 33.3726L70.325 28.5342Z" fill="black"/>
<path d="M70.325 29.5798C70.325 29.5798 91.8006 30.366 96.8282 43.3916C96.8282 43.3916 83.1048 53.2902 67.5916 34.4183L70.325 29.5798Z" fill="#1A535C"/>
<path d="M75.6421 35.143C75.0357 37.5737 73.7239 39.7696 71.8726 41.4531C70.0214 43.1367 67.7137 44.2323 65.2413 44.6016C62.7689 44.9708 60.2429 44.597 57.9824 43.5274C55.7219 42.4579 53.8285 40.7406 52.5415 38.5927C51.2546 36.4448 50.6318 33.9626 50.7519 31.4599C50.8721 28.9573 51.7297 26.5465 53.2165 24.5324C54.7033 22.5182 56.7524 20.9911 59.1049 20.1441C61.4574 19.297 64.0076 19.1681 66.4332 19.7735C68.0449 20.1762 69.5616 20.8933 70.8968 21.8837C72.2319 22.8741 73.3593 24.1185 74.2145 25.5458C75.0697 26.9731 75.6359 28.5553 75.8809 30.202C76.1258 31.8487 76.0447 33.5277 75.6421 35.143Z" fill="#1A535C"/>
<path d="M212.204 57.4514C217.436 53.0024 219.362 46.6602 216.506 43.2856C213.65 39.911 207.093 40.782 201.861 45.231C196.629 49.68 194.703 56.0223 197.559 59.3968C200.415 62.7714 206.972 61.9004 212.204 57.4514Z" fill="#FF8000"/>
<path d="M213.154 42.3845C213.154 42.3845 224.69 25.4101 235.998 28.954C235.998 28.954 235.6 45.887 214.997 47.4357L213.154 42.3845Z" fill="#4ECDC4"/>
<path opacity="0.05" d="M210.654 43.6521C210.654 43.6521 212.556 23.2019 224.165 20.8196C224.165 20.8196 231.988 35.8314 214.705 47.1782L210.654 43.6521Z" fill="black"/>
<path d="M213.778 46.8621L213.206 46.3656L209.727 43.336C209.727 43.336 210.561 34.3981 214.477 27.6533C216.485 24.1922 219.304 21.3074 223.238 20.5035C223.238 20.5005 231.061 35.5124 213.778 46.8621Z" fill="#1A535C"/>
<path opacity="0.05" d="M214.477 27.6532C216.352 32.0867 216.942 38.2699 213.244 46.3714H213.206L209.727 43.3359C209.727 43.3359 210.561 34.395 214.477 27.6532Z" fill="black"/>
<path d="M212.62 46.676L211.44 46.4898L207.333 45.8543C207.333 45.8543 203.334 37.9302 203.028 30.1716C202.865 26.1282 203.712 22.1292 206.643 19.3184C206.628 19.3154 221.224 27.8455 212.62 46.676Z" fill="#4ECDC4"/>
<path opacity="0.05" d="M211.546 46.4363L211.425 46.4895L207.317 45.854C207.317 45.854 203.319 37.9299 203.012 30.1713C206.822 32.9703 210.422 37.8649 211.546 46.4363Z" fill="black"/>
<path d="M205.993 48.8689C205.993 48.8689 188.442 38.2699 191.341 26.7546C191.341 26.7546 208.231 26.2078 210.921 46.7438L205.993 48.8689Z" fill="#FF8000"/>
<path opacity="0.05" d="M204.015 50.8758C204.015 50.8758 184.06 46.2176 183.276 34.3654C183.276 34.3654 199.176 28.6285 208.045 47.3319L204.015 50.8758Z" fill="black"/>
<path d="M203.39 51.18C203.39 51.18 183.436 46.5219 182.651 34.6696C182.651 34.6696 198.551 28.9327 207.421 47.6361L203.39 51.18Z" fill="#4ECDC4"/>
<path opacity="0.05" d="M202.758 53.9762C202.758 53.9762 182.737 58.3328 176.963 47.9614C176.963 47.9614 188.879 35.9525 204.89 49.0402L202.758 53.9762Z" fill="black"/>
<path d="M202.753 54.7508C202.753 54.7508 182.731 59.1074 176.957 48.736C176.957 48.736 188.873 36.7271 204.884 49.8148L202.753 54.7508Z" fill="#FF8000"/>
<path opacity="0.05" d="M203.307 58.2475C203.307 58.2475 186.992 70.6613 177.391 63.7096C177.391 63.7096 183.135 47.7815 203.163 52.8712L203.307 58.2475Z" fill="black"/>
<path d="M203.301 59.0276C203.301 59.0276 186.986 71.4414 177.385 64.4897C177.385 64.4897 183.129 48.5616 203.157 53.6513L203.301 59.0276Z" fill="#4ECDC4"/>
<path opacity="0.05" d="M205.649 56.3412C205.649 56.3412 198.778 75.689 186.942 75.1333C186.942 75.1333 183.05 58.6525 202.591 51.9225L205.649 56.3412Z" fill="black"/>
<path d="M206.579 56.666C206.579 56.666 199.708 76.0138 187.872 75.4581C187.872 75.4581 183.98 58.9773 203.521 52.2473L206.579 56.666Z" fill="#FF8000"/>
<path opacity="0.05" d="M204.479 55.1589C204.479 55.1589 215.587 72.4171 207.929 81.4643C207.929 81.4643 192.522 74.5067 199.121 54.8781L204.479 55.1589Z" fill="black"/>
<path d="M205.569 54.9988C205.569 54.9988 216.677 72.2569 209.019 81.3042C209.019 81.3042 193.612 74.3465 200.211 54.718L205.569 54.9988Z" fill="#4ECDC4"/>
<path opacity="0.05" d="M212.126 52.9715C212.126 52.9715 223.234 70.2296 215.576 79.2769C215.576 79.2769 200.169 72.3193 206.768 52.6907L212.126 52.9715Z" fill="black"/>
<path d="M212.748 52.6669C212.748 52.6669 223.856 69.9251 216.198 78.9724C216.198 78.9724 200.791 72.0147 207.39 52.3861L212.748 52.6669Z" fill="#FF8000"/>
<path opacity="0.05" d="M210.621 54.1659C210.621 54.1659 230.894 57.1482 232.657 68.8911C232.657 68.8911 217.289 75.9315 206.894 58.032L210.621 54.1659Z" fill="black"/>
<path d="M211.243 53.8608C211.243 53.8608 231.516 56.8431 233.279 68.5859C233.279 68.5859 217.911 75.6263 207.516 57.7268L211.243 53.8608Z" fill="#4ECDC4"/>
<path opacity="0.05" d="M213.586 49.7117C213.586 49.7117 234.569 45.0566 242.702 56.3945C242.702 56.3945 231.904 69.4349 212.153 55.0822L213.586 49.7117Z" fill="black"/>
<path d="M214.056 49.0937C214.056 49.0937 235.04 44.4385 243.172 55.7765C243.172 55.7765 232.374 68.8168 212.623 54.4641L214.056 49.0937Z" fill="#FF8000"/>
<path d="M205.993 48.8689C205.993 48.8689 188.442 38.2699 191.341 26.7546C191.341 26.7546 208.231 26.2078 210.921 46.7438L205.993 48.8689Z" fill="#FF8000"/>
<path d="M205.993 48.8689C205.993 48.8689 188.442 38.2699 191.341 26.7546C191.341 26.7546 208.231 26.2078 210.921 46.7438L205.993 48.8689Z" fill="#1A535C"/>
<path d="M202.753 54.7508C202.753 54.7508 182.731 59.1074 176.957 48.736C176.957 48.736 188.873 36.7271 204.884 49.8148L202.753 54.7508Z" fill="#FF8000"/>
<path d="M202.753 54.7508C202.753 54.7508 182.731 59.1074 176.957 48.736C176.957 48.736 188.873 36.7271 204.884 49.8148L202.753 54.7508Z" fill="#1A535C"/>
<path d="M206.579 56.666C206.579 56.666 199.708 76.0138 187.872 75.4581C187.872 75.4581 183.98 58.9773 203.521 52.2473L206.579 56.666Z" fill="#FF8000"/>
<path d="M206.579 56.666C206.579 56.666 199.708 76.0138 187.872 75.4581C187.872 75.4581 183.98 58.9773 203.521 52.2473L206.579 56.666Z" fill="#1A535C"/>
<path d="M212.748 52.6669C212.748 52.6669 223.856 69.9251 216.198 78.9724C216.198 78.9724 200.791 72.0147 207.39 52.3861L212.748 52.6669Z" fill="#FF8000"/>
<path d="M212.748 52.6669C212.748 52.6669 223.856 69.9251 216.198 78.9724C216.198 78.9724 200.791 72.0147 207.39 52.3861L212.748 52.6669Z" fill="#1A535C"/>
<path d="M214.056 49.0937C214.056 49.0937 235.04 44.4385 243.172 55.7765C243.172 55.7765 232.374 68.8168 212.623 54.4641L214.056 49.0937Z" fill="#FF8000"/>
<path d="M214.056 49.0937C214.056 49.0937 235.04 44.4385 243.172 55.7765C243.172 55.7765 232.374 68.8168 212.623 54.4641L214.056 49.0937Z" fill="#1A535C"/>
<path opacity="0.05" d="M214.569 45.5497C214.569 45.5497 234.208 36.8009 244.431 46.2915C244.431 46.2915 236.437 61.2235 214.233 51.1004L214.569 45.5497Z" fill="black"/>
<path opacity="0.05" d="M214.106 43.8324C214.106 43.8324 233.745 35.0836 243.968 44.5742C243.968 44.5742 235.974 59.5063 213.77 49.3831L214.106 43.8324Z" fill="black"/>
<path d="M214.569 44.7724C214.569 44.7724 234.208 36.0236 244.431 45.5143C244.431 45.5143 236.437 60.4463 214.233 50.3231L214.569 44.7724Z" fill="#4ECDC4"/>
<path d="M221.778 47.4296C222.299 49.8803 222.082 52.4307 221.157 54.7582C220.231 57.0858 218.638 59.0861 216.579 60.5062C214.519 61.9264 212.086 62.7026 209.586 62.7368C207.087 62.771 204.633 62.0616 202.536 60.6984C200.439 59.3351 198.792 57.3792 197.803 55.0778C196.815 52.7765 196.529 50.233 196.982 47.7689C197.436 45.3049 198.608 43.0309 200.35 41.2344C202.093 39.4378 204.328 38.1995 206.772 37.6759C208.396 37.3284 210.073 37.305 211.706 37.6071C213.34 37.9093 214.898 38.531 216.291 39.4367C217.685 40.3425 218.886 41.5146 219.828 42.886C220.769 44.2574 221.432 45.8014 221.778 47.4296Z" fill="#4ECDC4"/>
<path d="M199.929 113.28C205.231 108.915 207.257 102.604 204.455 99.1846C201.652 95.765 195.083 96.5315 189.781 100.897C184.479 105.262 182.453 111.573 185.255 114.992C188.058 118.412 194.627 117.645 199.929 113.28Z" fill="#FF8000"/>
<path d="M201.108 98.1957C201.108 98.1957 212.903 81.4046 224.161 85.1258C224.161 85.1258 223.498 102.05 202.871 103.274L201.108 98.1957Z" fill="#4ECDC4"/>
<path opacity="0.05" d="M198.584 99.4253C198.584 99.4253 200.808 79.0076 212.443 76.8086C212.443 76.8086 220.031 91.9416 202.571 103.016L198.584 99.4253Z" fill="black"/>
<path d="M201.655 102.682L201.091 102.177L197.659 99.0913C197.659 99.0913 198.632 90.1682 202.654 83.4854C204.718 80.0568 207.579 77.2164 211.524 76.4746C211.527 76.4746 219.114 91.6076 201.655 102.682Z" fill="#1A535C"/>
<path opacity="0.05" d="M202.657 83.4858C204.465 87.94 204.957 94.141 201.13 102.183H201.091L197.659 99.0977C197.659 99.0977 198.647 90.1686 202.657 83.4858Z" fill="black"/>
<path d="M200.501 102.479L199.321 102.272L195.213 101.562C195.213 101.562 191.339 93.582 191.156 85.8145C191.059 81.7682 191.964 77.7839 194.939 75.0174C194.939 75.0263 209.4 83.7869 200.501 102.479Z" fill="#4ECDC4"/>
<path opacity="0.05" d="M199.433 102.224L199.309 102.275L195.213 101.562C195.213 101.562 191.338 93.582 191.156 85.8146C194.921 88.6816 198.445 93.6352 199.433 102.224Z" fill="black"/>
<path d="M193.84 104.568C193.84 104.568 176.457 93.6944 179.536 82.2264C179.536 82.2264 196.432 81.9486 198.8 102.52L193.84 104.568Z" fill="#FF8000"/>
<path opacity="0.05" d="M191.832 106.543C191.832 106.543 171.951 101.568 171.356 89.6956C171.356 89.6956 187.344 84.2099 195.921 103.052L191.832 106.543Z" fill="black"/>
<path d="M191.202 106.839C191.202 106.839 171.321 101.864 170.725 89.9913C170.725 89.9913 186.714 84.5056 195.291 103.348L191.202 106.839Z" fill="#4ECDC4"/>
<path opacity="0.05" d="M190.526 109.62C190.526 109.62 170.436 113.66 164.828 103.197C164.828 103.197 176.918 91.3744 192.735 104.719L190.526 109.62Z" fill="black"/>
<path d="M190.505 110.397C190.505 110.397 170.415 114.437 164.806 103.974C164.806 103.974 176.896 92.1516 192.713 105.496L190.505 110.397Z" fill="#FF8000"/>
<path opacity="0.05" d="M191.012 113.903C191.012 113.903 174.499 126.065 165.013 118.954C165.013 118.954 171.005 103.117 190.962 108.523L191.012 113.903Z" fill="black"/>
<path d="M190.981 114.683C190.981 114.683 174.468 126.845 164.982 119.734C164.982 119.734 170.973 103.898 190.93 109.304L190.981 114.683Z" fill="#4ECDC4"/>
<path opacity="0.05" d="M193.382 112.037C193.382 112.037 186.207 131.276 174.383 130.528C174.383 130.528 170.75 113.976 190.394 107.565L193.382 112.037Z" fill="black"/>
<path d="M194.303 112.372C194.303 112.372 187.128 131.61 175.304 130.865C175.304 130.865 171.671 114.314 191.316 107.903L194.303 112.372Z" fill="#FF8000"/>
<path opacity="0.05" d="M192.229 110.82C192.229 110.82 203.065 128.258 195.266 137.19C195.266 137.19 179.971 129.99 186.877 110.468L192.229 110.82Z" fill="black"/>
<path d="M193.322 110.69C193.322 110.69 204.158 128.128 196.359 137.06C196.359 137.06 181.064 129.86 187.97 110.338L193.322 110.69Z" fill="#4ECDC4"/>
<path opacity="0.05" d="M199.909 108.766C199.909 108.766 210.746 126.204 202.946 135.136C202.946 135.136 187.651 127.936 194.557 108.414L199.909 108.766Z" fill="black"/>
<path d="M200.538 108.47C200.538 108.47 211.375 125.908 203.575 134.84C203.575 134.84 188.28 127.64 195.186 108.118L200.538 108.47Z" fill="#FF8000"/>
<path opacity="0.05" d="M198.385 109.936C198.385 109.936 218.607 113.237 220.184 125.01C220.184 125.01 204.707 131.808 194.595 113.746L198.385 109.936Z" fill="black"/>
<path d="M199.015 109.64C199.015 109.64 219.238 112.942 220.815 124.714C220.815 124.714 205.338 131.512 195.226 113.45L199.015 109.64Z" fill="#4ECDC4"/>
<path opacity="0.05" d="M201.419 105.529C201.419 105.529 222.473 101.205 230.429 112.67C230.429 112.67 219.427 125.539 199.904 110.876L201.419 105.529Z" fill="black"/>
<path d="M201.89 104.917C201.89 104.917 222.943 100.593 230.899 112.058C230.899 112.058 219.897 124.927 200.374 110.264L201.89 104.917Z" fill="#FF8000"/>
<path d="M193.84 104.568C193.84 104.568 176.457 93.6944 179.536 82.2264C179.536 82.2264 196.432 81.9486 198.8 102.52L193.84 104.568Z" fill="#FF8000"/>
<path d="M193.84 104.568C193.84 104.568 176.457 93.6944 179.536 82.2264C179.536 82.2264 196.432 81.9486 198.8 102.52L193.84 104.568Z" fill="#1A535C"/>
<path d="M190.505 110.397C190.505 110.397 170.415 114.437 164.806 103.974C164.806 103.974 176.896 92.1516 192.713 105.496L190.505 110.397Z" fill="#FF8000"/>
<path d="M190.505 110.397C190.505 110.397 170.415 114.437 164.806 103.974C164.806 103.974 176.896 92.1516 192.713 105.496L190.505 110.397Z" fill="#1A535C"/>
<path d="M194.303 112.372C194.303 112.372 187.128 131.61 175.304 130.865C175.304 130.865 171.671 114.314 191.316 107.903L194.303 112.372Z" fill="#FF8000"/>
<path d="M194.303 112.372C194.303 112.372 187.128 131.61 175.304 130.865C175.304 130.865 171.671 114.314 191.316 107.903L194.303 112.372Z" fill="#1A535C"/>
<path d="M200.538 108.47C200.538 108.47 211.375 125.908 203.575 134.84C203.575 134.84 188.28 127.64 195.186 108.118L200.538 108.47Z" fill="#FF8000"/>
<path d="M200.538 108.47C200.538 108.47 211.375 125.908 203.575 134.84C203.575 134.84 188.28 127.64 195.186 108.118L200.538 108.47Z" fill="#1A535C"/>
<path d="M201.89 104.917C201.89 104.917 222.943 100.593 230.899 112.058C230.899 112.058 219.897 124.927 200.374 110.264L201.89 104.917Z" fill="#FF8000"/>
<path d="M201.89 104.917C201.89 104.917 222.943 100.593 230.899 112.058C230.899 112.058 219.897 124.927 200.374 110.264L201.89 104.917Z" fill="#1A535C"/>
<path opacity="0.05" d="M202.46 101.386C202.46 101.386 222.237 92.9471 232.304 102.597C232.304 102.597 224.077 117.402 202.035 106.927L202.46 101.386Z" fill="black"/>
<path opacity="0.05" d="M202.036 99.6589C202.036 99.6589 221.81 91.2176 231.88 100.871C231.88 100.871 223.653 115.676 201.612 105.201L202.036 99.6589Z" fill="black"/>
<path d="M202.482 100.605C202.482 100.605 222.256 92.1693 232.329 101.82C232.329 101.82 224.102 116.624 202.06 106.15L202.482 100.605Z" fill="#4ECDC4"/>
<path d="M209.649 103.377C210.132 105.836 209.877 108.383 208.915 110.696C207.954 113.009 206.33 114.985 204.249 116.373C202.168 117.761 199.723 118.5 197.223 118.495C194.723 118.491 192.28 117.743 190.204 116.347C188.128 114.951 186.511 112.97 185.559 110.653C184.606 108.336 184.36 105.788 184.852 103.331C185.344 100.875 186.551 98.6191 188.322 96.8501C190.093 95.081 192.347 93.878 194.799 93.393C198.089 92.7432 201.502 93.4301 204.287 95.3025C207.072 97.1749 209.001 100.079 209.649 103.377Z" fill="#4ECDC4"/>
<path opacity="0.3" d="M268.741 36.9254C276.841 36.9254 283.408 30.3433 283.408 22.2239C283.408 14.1045 276.841 7.52246 268.741 7.52246C260.641 7.52246 254.074 14.1045 254.074 22.2239C254.074 30.3433 260.641 36.9254 268.741 36.9254Z" fill="#00E0FF"/>
<path d="M29.4593 140.92L30.8364 144.851L29.7778 151.451C29.7778 151.451 28.1796 156.715 28.3388 159.269C28.498 161.823 28.3388 165.331 28.3388 165.331C28.3388 165.331 24.5055 172.351 27.6989 175.224C28.442 175.892 29.0642 175.756 29.5802 175.159C30.1005 175.448 30.636 175.708 31.1843 175.939L28.5039 186.39L25.9444 191.495C25.9444 191.495 20.507 196.12 18.4281 205.853C18.4281 205.853 16.364 212.338 15.0341 214.271C14.9737 214.362 14.9077 214.449 14.8366 214.531C14.6298 214.201 14.4408 213.859 14.2704 213.508L11.8701 219.89C11.8701 219.89 16.6677 222.603 20.0263 223.732C23.3849 224.861 27.2242 223.572 28.3418 222.136C29.4593 220.7 26.1037 219.103 23.7034 218.149C22.5387 217.685 21.9047 216.582 21.5567 215.569C21.5243 215.255 21.5007 214.906 21.4889 214.525C21.4388 212.713 21.716 210.269 23.2228 208.416C25.9415 205.064 30.0992 196.77 30.0992 196.77C30.0992 196.77 34.2599 192.302 35.2182 190.528L40.9771 180.893C44.1705 184.531 47.3758 193.091 47.3758 193.091L48.6556 200.908C48.6556 200.908 52.8133 212.075 54.093 213.192C54.1284 213.225 54.1638 213.257 54.1992 213.296L54.2316 213.331L54.3083 213.42L54.3407 213.458L54.441 213.591L54.4646 213.627L54.5412 213.742L54.5766 213.801L54.6444 213.916L54.6769 213.969L54.7683 214.138L54.8007 214.2L54.8626 214.327L54.898 214.401L54.9629 214.54L54.9894 214.599L55.072 214.794L55.1044 214.871L55.1605 215.013L55.1929 215.093L55.2637 215.276L55.2814 215.323L55.3551 215.527L55.3816 215.604L55.4376 215.764L55.4612 215.832L55.535 216.056V216.086L55.5969 216.284L55.6175 216.352L55.6735 216.532V216.579L55.7384 216.804V216.848L55.7885 217.026L55.8062 217.091L55.8534 217.259V217.306L55.9036 217.499L55.9271 217.59L55.9507 217.682L55.9802 217.794V217.824C56.0185 217.971 56.051 218.119 56.0805 218.237L56.1188 218.397L56.1365 218.471V218.492C55.9025 218.336 55.6798 218.164 55.4701 217.977C55.5632 219.039 55.5632 220.107 55.4701 221.169C55.3109 222.766 56.9091 225.012 56.9091 225.012C56.9091 225.012 71.3018 221.501 72.1009 219.101C72.9 216.701 69.5414 217.032 68.5831 217.345C67.6248 217.658 62.8272 216.706 62.1873 215.589C62.0663 215.383 61.9219 215.192 61.7568 215.019C61.619 214.868 61.4349 214.769 61.234 214.735C61.033 214.702 60.8267 214.737 60.6481 214.836L60.6127 214.794L60.5714 214.744L60.5419 214.708L60.4918 214.64C60.4564 214.593 60.421 214.54 60.3856 214.487L60.3473 214.428C60.2824 214.327 60.2175 214.218 60.1527 214.1V214.076C59.1324 212.208 58.0355 208.398 57.7937 207.494V207.473L57.773 207.399V207.372V207.352V207.313V207.296L54.096 195.331C55.2165 191.025 54.096 188.95 54.096 188.95L52.0171 179.217L50.8376 174.81C50.873 174.771 50.8907 174.751 50.8907 174.751C49.9353 172.07 49.1834 166.383 48.7175 161.988C48.688 161.703 48.6585 161.424 48.629 161.152L52.1675 162.786C52.1675 162.786 56.9651 170.125 60.0052 166.629C63.0454 163.132 53.9279 160.088 53.9279 160.088L48.1838 156.242V156.074L47.5439 151.289C47.5439 151.289 45.7747 145.546 46.5856 141.715C47.2667 138.464 45.0463 137.282 44.374 136.986C44.2686 136.945 44.1602 136.913 44.0496 136.889C43.165 136.682 42.1949 135.786 41.3634 134.82C40.6461 133.996 39.8055 133.289 38.8717 132.724C39.4121 132.365 39.7885 131.806 39.9185 131.17C40.0512 130.434 39.8005 129.692 39.5735 128.979C39.8992 128.18 40.2775 127.403 40.7058 126.653H40.7323L40.9269 126.331C42.6139 126.135 44.1705 125.325 45.3015 124.055C46.4325 122.785 47.0594 121.144 47.0633 119.441C47.0595 118.277 46.7612 117.133 46.1963 116.116C46.9129 115.868 47.5999 115.552 47.3404 114.816C47.1665 114.316 46.6976 113.991 46.3349 113.61C45.3707 112.593 45.0788 111.068 44.0703 110.099C43.7791 109.821 43.4418 109.597 43.0736 109.437C42.0504 108.845 40.7382 108.78 39.5558 108.999C38.0814 109.268 36.725 109.915 35.2949 110.329C34.0358 110.696 32.7206 110.882 31.5175 111.396C29.4534 112.283 27.8788 114.056 26.9293 116.075C26.0919 117.848 25.6997 119.838 24.7826 121.581C23.8656 123.325 22.1819 124.901 20.2062 124.833C19.6961 124.815 19.1653 124.691 18.6876 124.871C18.3118 125.034 18.0007 125.318 17.803 125.678C16.7179 127.451 17.4167 129.831 16.5527 131.719C15.9129 133.123 14.5299 134.01 13.3976 135.062C12.2653 136.114 11.2892 137.684 11.8259 139.129C11.9775 139.494 12.2004 139.824 12.4815 140.101C12.7626 140.377 13.0962 140.595 13.4625 140.74C13.8327 140.942 14.2314 141.087 14.6449 141.169C15.7182 141.387 16.8299 141.254 17.9209 141.169C20.8697 140.959 24.1133 141.071 26.4723 139.265C27.4394 138.52 28.1855 137.492 28.958 136.525C28.9663 138.004 29.1344 139.478 29.4593 140.92ZM33.7173 150.952C33.9561 151.351 34.2009 151.744 34.4545 152.134C36.8135 155.752 33.617 160.705 33.617 160.705C32.8906 161.303 32.2662 162.014 31.7682 162.813C31.8095 161.291 31.9864 159.562 32.4995 158.311C33.2956 156.381 33.6052 152.837 33.7202 150.952H33.7173Z" fill="url(#paint1_linear_184_142)"/>
<path d="M31.3157 144.021L30.0655 151.809C30.0655 151.809 28.5026 156.952 28.6589 159.443C28.8152 161.935 28.6589 165.355 28.6589 165.355C28.6589 165.355 24.9111 172.212 28.0338 175.017C31.1565 177.821 32.0942 166.135 32.0942 166.135C32.0942 166.135 31.6254 161.149 32.7193 158.5C33.8133 155.852 33.9696 150.086 33.9696 150.086L31.3157 144.021Z" fill="white"/>
<path d="M31.3157 144.021L30.0655 151.809C30.0655 151.809 28.5026 156.952 28.6589 159.443C28.8152 161.935 28.6589 165.355 28.6589 165.355C28.6589 165.355 24.9111 172.212 28.0338 175.017C31.1565 177.821 32.0942 166.135 32.0942 166.135C32.0942 166.135 31.6254 161.149 32.7193 158.5C33.8133 155.852 33.9696 150.086 33.9696 150.086L31.3157 144.021Z" fill="#F89D8F"/>
<path d="M49.6177 170.811L51.7791 178.924L53.8108 188.43C53.8108 188.43 54.9047 190.454 53.8108 194.663L57.4023 206.35C57.4023 206.35 59.434 213.83 60.6813 213.984C61.9286 214.138 59.431 219.896 59.431 219.896L55.9958 217.871C55.9958 217.871 55.0433 213.207 53.8078 212.104C52.5723 211.002 48.5001 200.104 48.5001 200.104L47.2498 192.47C47.2498 192.47 43.3457 182.03 39.9075 179.536C36.4693 177.041 35.3782 172.992 35.3782 172.992L49.6177 170.811Z" fill="white"/>
<path d="M35.3778 173.001C35.3778 173.001 36.4718 177.053 39.9071 179.545C43.3423 182.037 47.2494 192.479 47.2494 192.479L48.4997 200.113C48.4997 200.113 52.5601 211.02 53.8074 212.113C54.7244 212.914 55.4734 215.66 55.8066 217.044C55.9275 217.549 55.9953 217.88 55.9953 217.88L59.4306 219.905C59.4306 219.905 61.9311 214.138 60.6809 213.993C60.4862 213.97 60.2739 213.769 60.0528 213.446C58.8497 211.697 57.3989 206.353 57.3989 206.353L53.8103 194.663C54.9043 190.457 53.8103 188.43 53.8103 188.43L51.7786 178.924L49.6172 170.811L35.3778 173.001Z" fill="#F89D8F"/>
<path d="M15.3846 213.517L16.6348 216.473L22.2581 215.849C22.0823 215.045 21.9836 214.225 21.9632 213.402C21.9131 211.629 22.1844 209.246 23.6558 207.434C26.3096 204.163 30.373 196.058 30.373 196.058C30.373 196.058 34.4334 191.696 35.3858 189.981L43.2059 176.897L42.9611 175.714L45.0695 173.766H31.9476L28.8249 185.92L26.3244 190.906C26.3244 190.906 21.0167 195.426 18.982 204.931C18.982 204.931 16.9563 211.265 15.6647 213.154C15.5838 213.284 15.49 213.406 15.3846 213.517Z" fill="#F89D8F"/>
<path opacity="0.1" d="M55.8093 217.043C55.9302 217.549 55.998 217.88 55.998 217.88L59.4333 219.904C59.4333 219.904 61.9338 214.138 60.6835 213.993C60.4889 213.97 60.2766 213.769 60.0554 213.446C59.8944 213.544 59.7686 213.691 59.6965 213.865C59.6243 214.04 59.6096 214.232 59.6544 214.416C59.7038 214.649 59.7872 214.873 59.9021 215.081C60.371 215.861 58.3393 217.105 58.3393 217.105C57.6552 217.98 56.5465 217.516 55.8093 217.043Z" fill="black"/>
<path d="M59.8088 214.723C59.7647 214.529 59.7856 214.325 59.8683 214.144C59.9509 213.962 60.0908 213.813 60.2664 213.719C60.442 213.625 60.6435 213.591 60.84 213.623C61.0365 213.655 61.217 213.751 61.3539 213.896C61.5146 214.065 61.6551 214.253 61.7726 214.454C62.3978 215.545 67.0804 216.479 68.021 216.169C68.9616 215.858 72.2377 215.545 71.4563 217.883C70.6749 220.221 56.6183 223.649 56.6183 223.649C56.6183 223.649 55.0554 221.468 55.2117 219.91C55.3025 218.874 55.3025 217.832 55.2117 216.795C55.2117 216.795 57.4026 218.817 58.4937 217.425C58.4937 217.425 60.5253 216.178 60.0565 215.4C59.9405 215.188 59.857 214.96 59.8088 214.723Z" fill="#4ECDC4"/>
<path opacity="0.1" d="M15.3846 213.517L16.6348 216.473L22.2581 215.849C22.0823 215.045 21.9836 214.225 21.9632 213.402C21.9077 213.29 21.8259 213.194 21.725 213.12C21.6241 213.047 21.507 213 21.3838 212.982C21.2605 212.965 21.1348 212.977 21.0175 213.019C20.9001 213.06 20.7946 213.13 20.71 213.221C20.4151 213.532 20.1202 213.863 19.9079 214.132C19.2828 214.912 17.2541 214.442 17.2541 214.442C16.7263 214.617 16.1041 213.851 15.6559 213.159C15.5774 213.287 15.4866 213.407 15.3846 213.517Z" fill="black"/>
<path d="M20.5439 213.541C20.6373 213.44 20.7558 213.366 20.8873 213.327C21.0187 213.288 21.1583 213.284 21.2915 213.317C21.4248 213.35 21.5468 213.418 21.645 213.514C21.7432 213.61 21.8141 213.731 21.8502 213.863C22.145 214.972 22.7584 216.402 24.1148 216.946C26.459 217.88 29.738 219.441 28.644 220.842C27.5501 222.243 23.8022 223.502 20.5203 222.399C17.2383 221.297 12.5587 218.66 12.5587 218.66L14.9029 212.427C14.9029 212.427 16.1532 215.087 17.0909 214.765C17.0909 214.765 19.1226 215.232 19.7448 214.454C19.9748 214.174 20.2667 213.854 20.5439 213.541Z" fill="#4ECDC4"/>
<path d="M29.4393 174.718C35.6876 178.457 43.1863 176.899 43.1863 176.899L43.03 175.809L43.3543 175.841C49.3255 176.367 50.6819 174.564 50.6819 174.564C49.7472 171.946 49.0159 166.392 48.5588 162.097C48.494 161.48 48.435 160.889 48.379 160.324C48.2551 159.074 48.1637 158.019 48.1047 157.306C48.0546 156.68 48.0281 156.319 48.0281 156.319L47.4029 151.643C47.4029 151.643 45.6838 146.027 46.4652 142.294C47.1317 139.108 44.9643 137.958 44.3068 137.687C44.2033 137.647 44.0968 137.615 43.9883 137.592C43.1302 137.388 42.1778 136.516 41.3669 135.579C40.1835 134.227 38.6753 133.201 36.9851 132.597C36.2007 132.301 35.5314 132.006 35.5314 132.006C34.4374 130.759 31.471 131.539 31.471 131.539C27.8794 133.877 29.7518 141.511 29.7518 141.511L31.2439 145.767C32.1025 148.127 33.2389 150.375 34.629 152.465C36.9261 156.012 33.8093 160.832 33.8093 160.832C28.9704 164.743 29.4393 174.718 29.4393 174.718Z" fill="#1A535C"/>
<path opacity="0.05" d="M42.7977 167.474L43.3579 175.841C49.3291 176.367 50.6855 174.564 50.6855 174.564C49.7508 171.946 49.0195 166.392 48.5624 162.097C48.4976 161.48 48.4386 160.888 48.3826 160.324L42.7977 167.474Z" fill="black"/>
<path opacity="0.1" d="M32.8772 145.578C32.8772 145.578 35.6903 150.878 36.625 153.213C37.5598 155.548 37.5627 154.77 38.0316 155.551C38.5004 156.331 43.4985 159.756 43.4985 159.756L48.5556 162.094C48.3404 160.082 48.187 158.344 48.1015 157.318L43.3364 154.15C43.3364 154.15 40.0574 152.125 39.9011 149.474C39.7448 146.822 37.7131 141.993 37.7131 141.993C37.7131 141.993 33.6527 137.63 31.9336 139.655C30.2145 141.68 32.8772 145.578 32.8772 145.578Z" fill="black"/>
<path d="M37.7187 141.216C37.7187 141.216 39.7503 146.045 39.9066 148.696C40.0629 151.348 43.3419 153.372 43.3419 153.372L53.6625 160.229C53.6625 160.229 62.5647 163.185 59.5982 166.62C56.6318 170.054 51.9315 162.881 51.9315 162.881L43.4952 158.985C43.4952 158.985 38.4824 155.557 38.0283 154.779C37.5742 154.002 37.5594 154.779 36.6217 152.441C35.684 150.103 32.8739 144.807 32.8739 144.807C32.8739 144.807 30.22 140.911 31.9362 138.895C33.6524 136.88 37.7187 141.216 37.7187 141.216Z" fill="#F89D8F"/>
<path opacity="0.1" d="M38.9709 143.237C38.9709 143.237 35.8482 140.899 35.2231 140.122C34.9459 139.779 34.5184 139.827 34.1262 139.992C33.3945 140.305 32.5984 140.435 31.8055 140.373C31.1214 140.314 30.458 140.353 30.5376 140.743C30.6939 141.523 30.0687 136.691 30.0687 136.691L32.7226 135.757L36.1726 137.622L38.9709 143.237Z" fill="black"/>
<path d="M38.9709 142.942C38.9709 142.942 35.8482 140.604 35.2231 139.826C34.9459 139.484 34.5184 139.531 34.1262 139.696C33.3945 140.009 32.5984 140.14 31.8055 140.078C31.1214 140.019 30.458 140.057 30.5376 140.447C30.6939 141.227 30.0687 136.395 30.0687 136.395L32.7226 135.461L36.1726 137.326L38.9709 142.942Z" fill="#1A535C"/>
<path opacity="0.1" d="M46.3257 143.238C45.7604 143.486 45.1438 143.594 44.528 143.554C43.9121 143.513 43.3151 143.325 42.7872 143.004" fill="black"/>
<path opacity="0.1" d="M36.0813 122.438C36.1993 121.507 35.0434 123.44 34.9018 122.362L41.619 126.257C41.619 126.257 41.2357 126.783 40.7344 127.617C40.4799 127.646 40.2239 127.661 39.9678 127.661C37.9656 127.658 37.3257 123.833 36.0813 122.438Z" fill="black"/>
<path d="M40.1408 127.345C43.8929 127.345 46.9347 124.31 46.9347 120.567C46.9347 116.824 43.8929 113.79 40.1408 113.79C36.3886 113.79 33.3469 116.824 33.3469 120.567C33.3469 124.31 36.3886 127.345 40.1408 127.345Z" fill="#F89D8F"/>
<path opacity="0.1" d="M43.1907 120.685C43.1874 121.115 43.1044 121.54 42.9459 121.939C42.6511 122.468 42.0613 122.707 41.5364 123.023C39.4723 124.3 38.8442 127.161 39.5077 129.511C39.7407 130.339 40.0975 131.181 39.9589 132.026C39.6964 133.48 38.0333 134.237 36.556 134.364C35.0787 134.491 33.5336 134.255 32.1506 134.793C29.83 135.694 28.8097 138.411 26.8429 139.927C24.5488 141.7 21.3907 141.582 18.501 141.786C17.4335 141.863 16.3484 141.99 15.2986 141.786C14.2489 141.582 13.2139 140.941 12.8423 139.939C12.3204 138.526 13.2728 136.983 14.3786 135.966C15.4844 134.949 16.8349 134.075 17.46 132.715C18.3034 130.871 17.6222 128.542 18.6808 126.804C18.8731 126.453 19.1758 126.175 19.5419 126.014C20.0078 125.84 20.5267 125.961 21.0162 125.979C22.9447 126.044 24.5901 124.501 25.4865 122.805C26.3829 121.108 26.7633 119.169 27.583 117.425C28.5089 115.451 30.0541 113.71 32.0651 112.856C33.2446 112.353 34.5273 112.17 35.754 111.812C37.1517 111.408 38.4845 110.775 39.9146 110.512C41.3448 110.249 42.9666 110.423 44.0104 111.431C44.9953 112.38 45.2813 113.87 46.222 114.863C46.5788 115.238 47.0329 115.554 47.2069 116.045C47.6138 117.198 45.644 117.295 44.9894 117.759C44.5051 118.097 44.0954 118.531 43.786 119.035C43.4765 119.538 43.2738 120.1 43.1907 120.685Z" fill="black"/>
<path d="M42.8771 120.529C42.8738 120.959 42.7908 121.384 42.6323 121.782C42.3374 122.312 41.7477 122.551 41.2228 122.867C39.1587 124.144 38.5306 127.005 39.1941 129.355C39.427 130.182 39.7838 131.025 39.6452 131.87C39.3828 133.324 37.7197 134.081 36.2424 134.208C34.7651 134.335 33.22 134.099 31.837 134.637C29.5164 135.538 28.4961 138.254 26.5293 139.771C24.2352 141.544 21.0771 141.426 18.1873 141.63C17.1199 141.707 16.0348 141.834 14.985 141.63C13.9353 141.426 12.9003 140.784 12.5287 139.782C12.0068 138.37 12.9592 136.827 14.065 135.81C15.1708 134.793 16.5213 133.918 17.1464 132.559C17.9898 130.715 17.3086 128.385 18.3672 126.648C18.5595 126.296 18.8622 126.019 19.2282 125.858C19.6941 125.684 20.2131 125.805 20.7026 125.823C22.6311 125.888 24.2765 124.345 25.1729 122.648C26.0693 120.952 26.4497 119.013 27.2694 117.269C28.1953 115.295 29.7405 113.554 31.7515 112.7C32.931 112.197 34.2137 112.014 35.4404 111.656C36.8381 111.251 38.1709 110.619 39.601 110.356C41.0312 110.093 42.653 110.267 43.6968 111.275C44.6817 112.224 44.9677 113.714 45.9084 114.707C46.2651 115.082 46.7193 115.398 46.8932 115.889C47.3002 117.042 45.3304 117.139 44.6758 117.603C44.1915 117.941 43.7818 118.375 43.4723 118.878C43.1629 119.382 42.9602 119.944 42.8771 120.529Z" fill="#141720"/>
<path d="M63.1356 96.8335C64.1499 100.519 67.6678 102.76 67.6678 102.76C67.6678 102.76 69.5461 99.0266 68.5317 95.3409C67.5174 91.6552 63.9995 89.4148 63.9995 89.4148C63.9995 89.4148 62.1212 93.1596 63.1356 96.8335Z" fill="#4ECDC4"/>
<path d="M82.0992 117.367C81.0081 121.029 82.8069 124.8 82.8069 124.8C82.8069 124.8 86.3719 122.633 87.4629 118.971C88.5539 115.309 86.7552 111.538 86.7552 111.538C86.7552 111.538 83.1902 113.704 82.0992 117.367Z" fill="#4ECDC4"/>
<path d="M218.879 140.926C216.201 143.648 216.028 147.825 216.028 147.825C216.028 147.825 220.191 147.588 222.869 144.869C225.546 142.15 225.72 137.97 225.72 137.97C225.72 137.97 221.556 138.213 218.879 140.926Z" fill="#4ECDC4"/>
<path d="M72.4037 30.9712L70.4998 29.0674C68.776 27.3435 66.4379 26.375 63.9999 26.375C61.5619 26.375 59.2238 27.3435 57.4999 29.0674L55.5961 30.9712L57.8942 33.2692L59.798 31.3655C60.9124 30.2511 62.4239 29.625 63.9999 29.625C65.5759 29.625 67.0874 30.2511 68.2018 31.3655L70.1056 33.2692L72.4037 30.9712Z" fill="white"/>
<path d="M67.8075 35.5675L65.9037 33.6636C65.3988 33.1587 64.714 32.875 63.9999 32.875C63.2858 32.875 62.601 33.1587 62.0961 33.6636L60.1923 35.5675L63.9999 39.375L67.8075 35.5675Z" fill="white"/>
<path d="M143.931 75.0061C143.725 74.9205 143.499 74.898 143.28 74.9414C143.062 74.9849 142.862 75.0923 142.704 75.25L131.125 86.8295C131.017 86.9367 130.933 87.0646 130.876 87.2055C130.819 87.3464 130.792 87.4974 130.795 87.6492C130.796 87.6766 130.797 87.704 130.8 87.7314C130.818 87.9113 130.878 88.0845 130.976 88.2363C131.074 88.3881 131.208 88.5141 131.365 88.6038C131.388 88.6172 131.412 88.6298 131.437 88.6415C131.588 88.7132 131.753 88.7502 131.92 88.75H143.5C143.798 88.7497 144.084 88.631 144.295 88.4201C144.506 88.2092 144.625 87.9233 144.625 87.625V76.0455C144.625 75.8229 144.56 75.6052 144.436 75.4201C144.312 75.235 144.136 75.0909 143.931 75.0061ZM143.5 87.625L141.813 87.625V77.7334L143.5 76.0459V87.625Z" fill="white"/>
<g clip-path="url(#clip1_184_142)">
<path d="M206.25 44.75C205.017 44.75 204 45.7666 204 47V50C204 51.2334 205.017 52.25 206.25 52.25H207V53C207 54.2334 208.017 55.25 209.25 55.25H213.75C214.983 55.25 216 54.2334 216 53V50C216 48.7666 214.983 47.75 213.75 47.75H213V47C213 45.7666 211.983 44.75 210.75 44.75H206.25ZM206.25 46.25H210.75C211.178 46.25 211.5 46.5723 211.5 47V50C211.5 50.4277 211.178 50.75 210.75 50.75H210C209.587 50.75 209.25 51.0869 209.25 51.5C209.25 51.9131 209.587 52.25 210 52.25H210.75C211.983 52.25 213 51.2334 213 50V49.25H213.75C214.178 49.25 214.5 49.5723 214.5 50V53C214.5 53.4277 214.178 53.75 213.75 53.75H209.25C208.822 53.75 208.5 53.4277 208.5 53V50C208.5 49.5723 208.822 49.25 209.25 49.25H210C210.413 49.25 210.75 48.9131 210.75 48.5C210.75 48.0869 210.413 47.75 210 47.75H209.25C208.017 47.75 207 48.7666 207 50V50.75H206.25C205.822 50.75 205.5 50.4277 205.5 50V47C205.5 46.5723 205.822 46.25 206.25 46.25Z" fill="white"/>
</g>
<path d="M195.271 110.566C195.873 111.375 196.628 112.057 197.493 112.575V110.08C196.732 110.13 195.983 110.294 195.271 110.566ZM194.264 111.039C193.848 111.272 193.454 111.544 193.089 111.851H193.064C194.203 112.815 195.6 113.424 197.081 113.601C195.966 112.963 195.004 112.088 194.264 111.039ZM193.781 106.546C193.859 107.655 194.174 108.699 194.674 109.626C195.571 109.256 196.524 109.039 197.493 108.984V106.546H193.78H193.781ZM192.685 106.546H190.362C190.481 108.235 191.158 109.836 192.288 111.097C192.721 110.722 193.191 110.39 193.69 110.106C193.104 109.005 192.761 107.791 192.685 106.546ZM201.392 109.648C201.9 108.714 202.217 107.664 202.297 106.547H198.566V108.986C199.564 109.049 200.515 109.279 201.392 109.649V109.648ZM202.374 110.135C202.851 110.41 203.303 110.73 203.72 111.09C204.845 109.83 205.519 108.232 205.637 106.547H203.394C203.317 107.803 202.969 109.027 202.374 110.135ZM198.566 112.585C199.432 112.07 200.188 111.391 200.791 110.585C200.079 110.307 199.329 110.137 198.566 110.082V112.586V112.585ZM199.017 113.589C200.463 113.396 201.824 112.793 202.938 111.851H202.928C202.575 111.555 202.196 111.292 201.796 111.064C201.063 112.096 200.115 112.957 199.017 113.589ZM194.675 102.37C194.161 103.322 193.857 104.373 193.781 105.452H197.493V103.011C196.524 102.956 195.572 102.74 194.675 102.371V102.37ZM193.691 101.89C193.193 101.607 192.723 101.277 192.289 100.902C191.16 102.163 190.483 103.764 190.364 105.452H192.685C192.761 104.207 193.104 102.992 193.691 101.89ZM197.491 99.425C196.629 99.9421 195.876 100.623 195.275 101.43C195.986 101.701 196.733 101.864 197.493 101.914V99.425H197.491ZM197.081 98.3988C195.603 98.5752 194.209 99.1805 193.071 100.14H193.081C193.45 100.45 193.846 100.724 194.265 100.959C195.006 99.9101 195.967 99.0363 197.081 98.3988ZM200.787 101.408C200.184 100.604 199.43 99.927 198.566 99.4137V101.91C199.328 101.855 200.076 101.685 200.787 101.408ZM201.791 100.927C202.191 100.699 202.569 100.436 202.921 100.14H202.929C201.817 99.2031 200.46 98.6037 199.019 98.4125C200.113 99.0425 201.058 99.9007 201.791 100.929V100.927ZM202.297 105.452C202.221 104.363 201.911 103.303 201.389 102.344C200.492 102.721 199.538 102.945 198.566 103.006V105.452H202.297ZM203.394 105.452H205.637C205.519 103.764 204.841 102.163 203.712 100.902C203.296 101.262 202.846 101.582 202.37 101.858C202.953 102.94 203.314 104.158 203.394 105.454V105.452ZM198 114.75C195.679 114.75 193.454 113.828 191.813 112.187C190.172 110.546 189.25 108.321 189.25 106C189.25 103.679 190.172 101.454 191.813 99.8128C193.454 98.1719 195.679 97.25 198 97.25C200.321 97.25 202.546 98.1719 204.187 99.8128C205.828 101.454 206.75 103.679 206.75 106C206.75 108.321 205.828 110.546 204.187 112.187C202.546 113.828 200.321 114.75 198 114.75Z" fill="white"/>
</g>
<defs>
<linearGradient id="paint0_linear_184_142" x1="136.274" y1="217.764" x2="136.274" y2="0" gradientUnits="userSpaceOnUse">
<stop stop-color="#808080" stop-opacity="0.25"/>
<stop offset="0.54" stop-color="#808080" stop-opacity="0.12"/>
<stop offset="1" stop-color="#808080" stop-opacity="0.1"/>
</linearGradient>
<linearGradient id="paint1_linear_184_142" x1="-82025.8" y1="96567.1" x2="-82025.8" y2="50945" gradientUnits="userSpaceOnUse">
<stop stop-color="#808080" stop-opacity="0.25"/>
<stop offset="0.54" stop-color="#808080" stop-opacity="0.12"/>
<stop offset="1" stop-color="#808080" stop-opacity="0.1"/>
</linearGradient>
<clipPath id="clip0_184_142">
<rect width="287" height="225" fill="white" transform="translate(0.890625)"/>
</clipPath>
<clipPath id="clip1_184_142">
<rect width="12" height="12" fill="white" transform="translate(204 44)"/>
</clipPath>
</defs>
</svg>
