<svg width="165" height="103" viewBox="0 0 165 103" fill="none" xmlns="http://www.w3.org/2000/svg">
<g clip-path="url(#clip0_1246_3985)">
<rect width="165" height="103" rx="8" fill="url(#paint0_linear_1246_3985)"/>
<g clip-path="url(#clip1_1246_3985)">
<path d="M105.205 11.0555C105.314 11.1596 105.75 11.236 105.75 11.1458C105.75 11.1041 105.692 11.0694 105.627 11.0694C105.554 11.0694 105.416 11.0485 105.314 11.0277C105.191 10.993 105.154 11.0069 105.205 11.0555Z" fill="white"/>
<path d="M104.878 11.3333C104.878 11.3819 105.009 11.4652 105.336 11.611C105.372 11.6249 105.387 11.5694 105.372 11.4791C105.358 11.3472 105.3 11.3055 105.118 11.2916C104.987 11.2778 104.878 11.2986 104.878 11.3333Z" fill="white"/>
<path d="M105.539 11.7568C105.336 11.8123 105.132 12.0623 105.067 12.34L105.016 12.5414L105.329 12.4928C105.503 12.465 105.648 12.4372 105.655 12.4303C105.692 12.4025 105.794 11.6943 105.757 11.7012C105.735 11.7082 105.634 11.729 105.539 11.7568Z" fill="white"/>
<path d="M106.331 12.104C106.331 12.2081 106.273 12.2498 106.099 12.2637C105.924 12.2776 105.837 12.3331 105.765 12.472C105.699 12.6039 105.583 12.6733 105.321 12.7428L104.965 12.8261L104.936 13.3954C104.9 14.0273 104.689 14.548 104.159 15.2909C103.926 15.6173 103.425 16.6449 103.425 16.7976C103.425 16.8115 103.556 16.8323 103.716 16.8462L104.006 16.8671L103.737 17.2489C103.49 17.5961 103.461 17.6794 103.454 18.1168C103.447 18.4918 103.396 18.6792 103.251 18.9431C103.004 19.3944 102.953 19.6999 103.062 20.0471C103.12 20.2345 103.163 20.79 103.171 21.5538C103.178 22.7688 103.178 22.7688 102.938 23.4215C102.8 23.7756 102.619 24.4213 102.524 24.8518C102.321 25.7406 102.117 26.2405 101.768 26.6779C101.63 26.8445 101.391 27.2472 101.231 27.5666C100.926 28.1846 100.722 28.3859 100.155 28.629C99.596 28.872 99.2981 28.8303 98.4916 28.3721C98.092 28.1568 97.6706 27.9207 97.5471 27.8583C97.4163 27.7888 97.271 27.6361 97.2129 27.5111C97.1112 27.2889 97.1184 27.275 97.3073 27.1292L97.5035 26.9695H97.2129L96.9223 26.9626L97.162 26.7612C97.3073 26.6293 97.4745 26.5529 97.6052 26.5529C97.7142 26.5529 97.9395 26.4627 98.092 26.3585C98.2446 26.2474 98.4698 26.1155 98.5861 26.0599C98.7023 26.0044 98.8186 25.9211 98.8331 25.8655C98.8549 25.803 98.8331 25.7892 98.775 25.8239C98.7241 25.8516 98.6588 25.8378 98.6297 25.7822C98.5352 25.6433 97.7506 25.6156 97.4817 25.7475C97.2274 25.8725 96.9877 26.1641 96.915 26.4418C96.8932 26.546 96.8278 26.6501 96.7842 26.664C96.7406 26.6779 96.2611 26.546 95.7162 26.3654L94.7353 26.0322L94.2776 25.5461C93.8852 25.1295 93.6963 24.9976 92.9843 24.6505L92.1488 24.2339L92.1996 23.9978C92.2287 23.8589 92.2069 23.6715 92.156 23.5534C92.0834 23.3868 92.0398 23.359 91.9017 23.3868C91.7637 23.4215 91.7419 23.4076 91.7637 23.2896C91.8 23.1021 91.7491 23.116 91.5312 23.359C91.4367 23.4701 91.2841 23.5673 91.2042 23.5673C91.0807 23.5673 91.0589 23.5326 91.1025 23.359C91.1534 23.1091 91.1316 23.1091 90.8555 23.3035L90.6448 23.4493L89.9836 22.873C89.6203 22.5536 89.2934 22.2411 89.2498 22.1717C89.2062 22.0884 89.0972 22.0398 88.9809 22.0398C88.7412 22.0398 88.4796 21.8315 88.4142 21.5954C88.327 21.2552 88.763 20.6164 89.3006 20.304C89.4968 20.1859 89.5477 20.0818 89.7293 19.4569C89.9182 18.7765 90.1289 18.3668 90.1289 18.6584C90.1289 18.8042 90.2234 18.8112 90.3469 18.6723C90.4195 18.589 90.4195 18.5682 90.3396 18.5682C90.2815 18.5682 90.2888 18.5404 90.3687 18.4779C90.4849 18.4015 90.4777 18.3807 90.2742 18.2627C90.0635 18.1446 90.0563 18.1307 90.1798 18.0405C90.3687 17.9085 90.4341 17.9224 90.3832 18.0891C90.3396 18.2071 90.4631 18.1446 90.8773 17.8391L91.4295 17.4295L91.3859 17.1448C91.3568 16.9365 91.3786 16.8393 91.4658 16.7699C91.553 16.7004 91.5602 16.6449 91.5021 16.5407C91.4585 16.4643 91.4367 16.3949 91.4513 16.388C91.4658 16.3741 91.662 16.2352 91.8945 16.0686C92.3522 15.7422 92.3449 15.8186 91.9816 15.284C91.9017 15.166 91.8073 15.1035 91.7491 15.1312C91.3495 15.2701 91.3205 15.2632 91.2333 14.8882C91.1824 14.6869 91.1606 14.4994 91.1897 14.4647C91.2551 14.3605 91.3641 14.3953 91.3641 14.5133C91.3641 14.6105 91.3859 14.6105 91.473 14.5411C91.5312 14.4925 91.582 14.423 91.582 14.3814C91.582 14.3397 91.5602 14.3328 91.5312 14.3536C91.5094 14.3814 91.444 14.3675 91.4004 14.3328C91.2769 14.2356 91.0298 14.3328 90.4922 14.6799C90.2597 14.8327 90.0199 14.9577 89.9691 14.9577C89.9182 14.9577 89.7002 15.0549 89.4823 15.166C89.2643 15.284 89.0681 15.3743 89.0463 15.3743C89.0245 15.3743 89.1481 15.2493 89.3297 15.1035C89.6058 14.8743 89.6348 14.8188 89.5549 14.7216C89.475 14.6313 89.4895 14.5827 89.6348 14.4091C89.722 14.2911 89.8383 14.2008 89.8819 14.2008C89.9327 14.1939 89.9836 14.1384 90.0127 14.0689C90.0345 14.0064 90.0781 13.9092 90.0998 13.8537C90.1362 13.7842 90.0781 13.7981 89.9182 13.8884C89.7947 13.9578 89.693 14.0342 89.693 14.055C89.693 14.0759 89.4459 14.2911 89.1481 14.5341C88.6758 14.916 88.5377 14.9854 88.1163 15.0687C87.6077 15.166 87.4842 15.1382 87.4043 14.8882C87.368 14.7841 87.3244 14.7702 87.1863 14.8188C87.0483 14.8674 86.9974 14.8535 86.9102 14.7285C86.8085 14.5827 86.8013 14.5827 86.4234 14.6938C86.1546 14.7771 85.9948 14.791 85.864 14.7424C85.7695 14.7077 85.6097 14.6799 85.508 14.6799C85.4135 14.6799 85.2682 14.6174 85.1883 14.5411C85.1084 14.4647 84.9558 14.4022 84.8468 14.4022C84.6942 14.4022 84.6724 14.3814 84.7378 14.3189C84.9485 14.1175 84.8323 14.055 84.2292 14.055H83.6262L83.6116 13.819C83.5971 13.687 83.6262 13.5551 83.6625 13.5343C83.7061 13.5135 83.7352 13.4649 83.7352 13.4232C83.7352 13.2982 83.5898 13.3676 83.3355 13.6107C83.0377 13.8953 83.0159 13.8884 82.5727 13.3468L82.3038 13.0205L82.0277 13.201C81.8824 13.2913 81.7444 13.3607 81.7298 13.3399C81.708 13.326 81.6717 13.0413 81.6499 12.708C81.6281 12.3817 81.5918 12.1109 81.57 12.1109C81.4828 12.1109 81.1195 12.4859 81.1195 12.5761C81.1195 12.6872 81.0832 12.6872 80.9016 12.5969C80.8071 12.5483 80.749 12.5553 80.6836 12.6317C80.6255 12.7011 80.5528 12.708 80.422 12.6594C80.1023 12.5483 79.8916 12.59 79.6228 12.8261L79.354 13.0552L79.7754 13.451C80.175 13.8398 80.1895 13.8467 80.3058 13.7079C80.4075 13.5968 80.4874 13.5829 80.7417 13.6176C81.0178 13.6523 81.0469 13.6731 81.0469 13.8467C81.0469 13.9787 81.0977 14.055 81.2358 14.1175C81.4029 14.187 81.4247 14.2286 81.3811 14.4161C81.3157 14.7285 81.1995 14.8327 80.9597 14.8049C80.7926 14.7771 80.7417 14.8049 80.7127 14.9299C80.6618 15.1174 80.4438 15.166 79.6301 15.166C78.78 15.166 78.5911 15.1174 78.4603 14.8674L78.3441 14.666L78.206 14.8813C78.0389 15.1382 77.8209 15.1174 77.9227 14.8466C78.0026 14.6452 77.8936 14.6244 77.6466 14.791C77.5448 14.8535 77.4722 14.9993 77.4431 15.1729C77.3777 15.5617 77.138 15.7075 76.7747 15.5826C76.5349 15.4992 76.5059 15.5062 76.4114 15.645C76.3533 15.7214 76.2443 15.7908 76.1789 15.7908C76.0845 15.7908 76.0045 15.895 75.9173 16.1102C75.8374 16.3046 75.6195 16.5963 75.3652 16.8462C74.8566 17.3392 74.8348 17.492 75.2344 17.603C75.3942 17.6516 75.525 17.7072 75.525 17.728C75.525 17.8044 75.1109 18.0127 74.9655 18.0127C74.7258 18.0127 74.6459 18.1238 74.486 18.714L74.3262 19.2903L74.0065 19.4013C73.7013 19.4986 73.6795 19.5263 73.5124 19.9846C73.4252 20.2484 73.3526 20.4706 73.3671 20.4845C73.3744 20.4914 73.5197 20.5609 73.6941 20.6442C73.8757 20.7345 74.0355 20.8733 74.0719 20.9705C74.1809 21.2344 74.1591 21.2899 73.992 21.2066C73.8757 21.1441 73.8176 21.1511 73.7159 21.2344C73.6141 21.3246 73.5415 21.3316 73.3889 21.276C73.1273 21.1858 73.1273 21.1858 73.1273 21.3455C73.1273 21.5121 73.0765 21.519 72.735 21.3802C72.3354 21.2205 71.7469 21.1302 71.4345 21.1788C71.2746 21.1997 71.0421 21.3177 70.8895 21.4427C70.6861 21.6093 70.6425 21.6232 70.6861 21.519C70.7224 21.4427 70.766 21.3246 70.7878 21.2552C70.8096 21.1719 70.8387 21.1511 70.875 21.1997C70.9041 21.2552 70.9695 21.2274 71.0639 21.1302C71.202 20.9775 71.202 20.9775 71.0421 21.0122C70.9477 21.04 70.875 21.0261 70.875 20.9914C70.875 20.9636 70.7224 20.8872 70.5335 20.8386C70.2284 20.7553 70.163 20.6928 69.9087 20.297C69.4509 19.5749 68.9787 19.1931 68.5064 19.1653C68.412 19.1653 68.332 19.1167 68.332 19.0681C68.332 19.0125 68.2812 18.9917 68.194 19.0195C68.1141 19.0403 68.0196 19.0125 67.9615 18.9431C67.7944 18.7487 67.5473 18.7001 67.2785 18.8112C67.1041 18.8737 67.0242 18.957 67.0242 19.0542C67.0242 19.1931 67.017 19.1931 66.8426 19.082C66.6173 18.9431 66.443 18.9986 66.443 19.2139C66.443 19.3458 66.1451 19.6096 65.9852 19.6096C65.9707 19.6096 65.9344 19.4847 65.9053 19.3319C65.8617 19.0681 65.8472 19.0542 65.6074 19.0542C65.3895 19.0542 65.3459 19.082 65.3095 19.2417C65.2877 19.3527 65.2514 19.4847 65.2369 19.5472C65.2151 19.6096 65.2587 19.6791 65.3241 19.7069C65.4403 19.7485 65.4403 19.7555 65.3241 19.8388C65.2514 19.8874 65.1715 20.0332 65.1424 20.1651L65.0916 20.4081L64.8663 20.0332L64.6411 19.6583L64.4449 19.9638C64.3359 20.1304 64.1906 20.3595 64.118 20.4637L63.9945 20.665L63.8419 20.4845C63.6602 20.2623 63.6094 20.2554 63.6021 20.4567C63.6021 20.6025 63.5948 20.6025 63.544 20.4845C63.4931 20.3665 63.4786 20.3665 63.3333 20.547C63.1589 20.7553 63.1371 21.0052 63.2461 21.4496C63.2824 21.6024 63.297 21.7343 63.2824 21.7482C63.2679 21.7621 63.1516 21.7204 63.0209 21.6579C62.832 21.5607 62.752 21.5538 62.643 21.6232C62.5268 21.6926 62.4905 21.6787 62.396 21.5538C62.2943 21.4149 62.2798 21.4149 62.149 21.526C61.9673 21.6787 61.9746 21.8315 62.1563 21.8315C62.2362 21.8315 62.3016 21.8662 62.3016 21.9079C62.3016 21.9495 62.367 21.9704 62.4469 21.9495C62.614 21.9079 62.6285 21.9981 62.5195 22.2759C62.4687 22.4147 62.4033 22.4564 62.2289 22.4564C62.0836 22.4564 62.0109 22.4217 62.0109 22.3522C62.0109 22.1856 61.5241 22.2134 61.466 22.38C61.437 22.4842 61.3425 22.5258 61.1173 22.5397L60.8121 22.5605L61.0519 22.6855C61.1899 22.7549 61.357 22.7897 61.4297 22.7688C61.5459 22.7341 61.575 22.7549 61.575 22.9008C61.575 22.991 61.5459 23.1577 61.5023 23.2549C61.4515 23.3798 61.4588 23.5881 61.5169 23.9214C61.5823 24.3241 61.6186 24.4005 61.713 24.3658C61.7784 24.338 61.8729 24.3033 61.931 24.2825C62.0109 24.2478 62.0109 24.2686 61.9455 24.3866C61.8947 24.4699 61.793 24.5394 61.713 24.5394C61.6186 24.5394 61.5314 24.6157 61.4733 24.7477L61.3861 24.9629L61.1972 24.8171C61.0882 24.7407 60.9284 24.6782 60.8339 24.6782C60.7395 24.6782 60.5941 24.6366 60.5215 24.581C60.4416 24.5255 60.3398 24.4977 60.289 24.5185C60.2381 24.5394 60.1945 24.5185 60.1945 24.4699C60.1945 24.4144 60.0783 24.4074 59.7949 24.4352C59.4898 24.4769 59.3517 24.463 59.2209 24.3797C59.0611 24.2755 59.0538 24.2755 58.9739 24.5116C58.9013 24.7477 58.9085 24.7616 59.1265 24.8935C59.2573 24.9629 59.3953 25.0393 59.4316 25.0532C59.4752 25.0671 59.4389 25.1504 59.3517 25.2406C59.2645 25.3309 59.1773 25.442 59.1483 25.4906C59.0902 25.5947 59.1701 25.7892 59.2791 25.7892C59.3227 25.7892 59.5406 25.9627 59.7586 26.171L60.1509 26.5529H59.9184C59.7005 26.5529 59.6859 26.5668 59.6859 26.8098C59.6787 27.1362 59.497 27.4069 59.388 27.2472C59.1265 26.8584 58.8504 26.3516 58.7777 26.1085C58.7123 25.9072 58.647 25.8169 58.5307 25.803C58.4508 25.7892 58.3781 25.7614 58.3854 25.7336C58.3854 25.7058 58.5598 25.5461 58.7777 25.3726L59.1628 25.0601L58.6833 25.0393C58.1965 25.0185 58.1965 25.0185 57.9567 25.2823C57.8259 25.4281 57.6298 25.7197 57.5208 25.928C57.3973 26.171 57.2302 26.3654 57.0703 26.4627C56.2275 26.9695 56.1694 27.1014 56.2348 28.3026L56.2929 29.1983L56.4963 29.1566C56.6198 29.1289 56.707 29.1428 56.707 29.1775C56.707 29.2191 56.7216 29.2886 56.7434 29.3441C56.7652 29.3997 56.5254 29.601 56.0895 29.8857C55.5155 30.2676 55.3992 30.3648 55.3847 30.5384C55.3702 30.698 55.3193 30.7605 55.1885 30.7883C55.0432 30.8161 54.9923 30.8925 54.927 31.1702C54.7526 31.9062 54.1931 32.6074 53.4448 33.0379C52.958 33.3157 51.5484 33.8642 50.9018 34.0169C50.5676 34.1003 50.306 34.1211 49.95 34.0864C49.376 34.0308 49.2743 34.0725 48.7512 34.5307C48.417 34.8362 48.3225 34.8779 47.4506 35.1001C46.5279 35.3362 46.5206 35.3362 46.4189 35.5861C46.3245 35.7944 46.2518 35.85 45.9248 35.9472C45.4453 36.093 45.3 36.093 45.0966 35.9541C44.944 35.8569 44.9004 35.8569 44.5952 35.9541C44.1448 36.0999 44.1157 36.093 44.2538 35.8916C44.37 35.718 44.37 35.7041 44.1666 35.5028L43.9631 35.3014L43.8469 35.6625C43.7379 36.0097 43.7306 36.0235 43.6289 35.8916C43.5708 35.8152 43.4545 35.7041 43.3819 35.6486C43.2511 35.5514 43.2438 35.5583 43.2874 35.7111C43.3165 35.8361 43.2947 35.8777 43.1857 35.9055C43.0259 35.9472 42.9968 36.0652 43.1494 36.0652C43.3601 36.0652 43.331 36.1832 43.0695 36.4193C42.9241 36.5512 42.8297 36.6137 42.8588 36.5651C42.8878 36.5165 42.866 36.4818 42.8006 36.4818C42.7352 36.4818 42.6844 36.5165 42.6844 36.5582C42.6844 36.5998 42.5173 36.7804 42.3066 36.9539C42.0959 37.1345 41.7616 37.4469 41.5655 37.6413C41.3693 37.8427 40.897 38.1898 40.512 38.412C39.0661 39.2522 39.1896 39.1411 38.6883 40.0506L38.2305 40.8769L38.1288 40.5714C38.0707 40.4047 38.0271 40.0229 38.0271 39.7243L38.0344 39.1827L37.8382 39.3146C37.4095 39.6063 37.2715 39.8979 36.9809 41.0713C36.8501 41.599 36.8501 41.6059 37.0027 41.8837C37.1262 42.1128 37.1552 42.3072 37.1698 42.8904C37.177 43.5709 37.1625 43.6334 36.9373 44.1263C36.712 44.5985 36.6902 44.6957 36.6902 45.3414C36.6902 46.0427 36.6902 46.0496 36.9591 46.4176C37.1044 46.6259 37.2933 46.9453 37.3732 47.1258C37.5548 47.5216 37.8309 47.9243 38.434 48.6256C38.681 48.9172 38.9135 49.2157 38.9571 49.2921C39.0734 49.5074 39.1315 50.0351 39.0661 50.2642L39.0007 50.4725L38.8554 50.1947C38.7755 50.042 38.652 49.7365 38.5866 49.5213C38.5212 49.306 38.434 49.1047 38.3977 49.0838C38.2959 49.0283 38.3032 49.1602 38.4122 49.3199C38.4776 49.4171 38.4703 49.5004 38.3977 49.6671C38.2741 49.9517 38.2088 49.9378 38.1506 49.6185C38.1143 49.3754 37.4895 48.4312 37.3659 48.4242C37.2715 48.4242 37.148 48.9311 37.1843 49.188C37.2279 49.5213 37.5621 49.9865 37.9908 50.3267C38.3395 50.5975 38.3831 50.7155 38.2233 50.9863C38.1288 51.1529 38.1143 51.139 37.751 50.4516C37.3877 49.7643 37.3732 49.7504 37.1698 49.7851C36.9591 49.8268 36.9445 49.8129 36.6394 49.2296C36.3851 48.7436 36.2979 48.6325 36.1671 48.6325C36.0218 48.6325 36 48.6672 36 48.8755C36 49.181 36.1017 49.3754 36.7338 50.2711C37.0099 50.6669 37.395 51.1113 37.6202 51.2987C38.0126 51.6181 38.928 52.7152 39.1533 53.1248C39.2187 53.2428 39.3059 53.5761 39.3422 53.8469C39.4366 54.4649 39.6328 54.812 40.1559 55.2356C40.4466 55.4786 40.5773 55.6522 40.7009 55.9646C40.7953 56.1937 40.9988 56.527 41.1659 56.7214C41.6018 57.2213 41.6599 57.3671 41.7834 58.2628C41.9578 59.5057 42.372 60.4986 43.1857 61.6511C44.1084 62.9426 44.2247 63.1925 44.2029 63.755C44.1884 64.0327 44.2174 64.2826 44.2755 64.3798C44.3337 64.4909 44.3482 64.6992 44.3191 65.0742C44.2828 65.4699 44.3046 65.6991 44.3845 65.956C44.5444 66.4489 44.5298 66.7336 44.3191 67.0738C44.1084 67.4141 43.9922 67.4696 43.6071 67.3863C43.2511 67.303 43.2293 67.3516 43.2874 68.1084C43.331 68.7055 43.44 69.0457 43.7016 69.3998C43.8251 69.5665 43.8832 69.5873 43.9922 69.5318C44.0648 69.4901 44.261 69.4623 44.4136 69.4623C44.6534 69.4623 44.8059 69.5318 45.2782 69.872C46.0338 70.4135 46.942 70.7121 47.8284 70.7121C48.1627 70.7121 48.4969 70.6774 48.5695 70.6427C48.664 70.5941 48.8166 70.5941 49.0418 70.6427C49.4487 70.7329 50.0445 70.601 50.6911 70.2886C51.1198 70.0803 51.1198 70.0803 51.0108 69.9136C50.9018 69.7539 50.9018 69.7401 51.2288 69.5179C51.4104 69.3929 51.6284 69.1707 51.701 69.0318C51.8391 68.7749 51.8391 68.7749 52.1951 68.8166C52.4712 68.8444 52.6455 68.8166 52.9652 68.6916C53.3794 68.5319 53.3794 68.5319 53.2195 68.4069L53.0597 68.282L53.2995 67.9695C53.5901 67.5807 54.0042 67.3793 54.5128 67.3793C54.7453 67.3793 55.0795 67.3099 55.3774 67.1988C55.8279 67.0322 55.9732 67.0183 56.9686 67.0044C57.9858 66.9975 58.0657 67.0044 58.0294 67.1224C58.0148 67.1919 58.0584 67.3099 58.1238 67.3793C58.2691 67.5321 58.4072 67.5668 58.3636 67.4349C58.3418 67.3863 58.429 67.2682 58.5525 67.171C58.7196 67.0322 58.8722 66.9905 59.2645 66.9627C59.7223 66.928 59.7586 66.935 59.7586 67.0669C59.7586 67.1988 59.7659 67.1988 59.9184 67.053C60.071 66.9072 60.0855 66.9072 60.2817 67.0183C60.4706 67.1224 60.4924 67.1224 60.6959 66.9766C60.8194 66.8933 60.972 66.8239 61.0373 66.8239C61.2771 66.8239 61.7566 66.5461 61.9092 66.324C61.9891 66.199 62.1563 65.8518 62.2725 65.5533C62.5704 64.7895 62.7302 64.6298 63.4277 64.4007C63.7983 64.2826 64.4449 63.9633 65.2151 63.5119C65.8763 63.1231 66.5011 62.7898 66.5955 62.7621C66.69 62.7412 66.937 62.7551 67.1405 62.7829C67.8162 62.887 69.0659 62.6649 70.4754 62.1927C71.1584 61.9636 71.9067 61.6789 72.1538 61.5609C72.9893 61.1443 73.7231 61.0679 77.2324 61.0332C77.741 61.0262 77.959 61.1235 78.8163 61.7067C79.4848 62.1649 79.8698 62.3038 80.1459 62.1858C80.4293 62.0539 80.5456 62.0816 81.0033 62.3802C81.3956 62.6371 81.4683 62.6579 81.9042 62.6579H82.3838L82.1876 62.8523C82.0786 62.9565 81.9914 63.0676 81.9914 63.0953C81.9914 63.1231 82.1658 63.0815 82.3765 63.0051C82.5799 62.9287 82.7616 62.8662 82.7761 62.8662C82.7834 62.8662 82.7906 63.0259 82.7906 63.2134V63.5605L83.0667 63.5189C83.2774 63.4911 83.3791 63.505 83.4663 63.5953C83.6116 63.7272 83.5681 63.8383 83.3646 63.8383C83.2484 63.8383 83.2266 63.8869 83.2266 64.1507C83.2266 64.3312 83.2629 64.4632 83.3065 64.4632C83.3573 64.4632 83.3719 64.5257 83.3501 64.609C83.321 64.6992 83.3646 64.8312 83.4591 64.9561C83.6044 65.1367 83.6552 65.1575 84.0403 65.1575C84.4327 65.1575 84.469 65.1714 84.5344 65.338C84.578 65.4352 84.607 65.6644 84.607 65.8449C84.607 66.1365 84.6361 66.199 84.9267 66.4698C85.29 66.81 85.5298 67.2752 85.6024 67.7751C85.646 68.0806 85.6388 68.1014 85.5225 68.0112C85.3772 67.9001 85.3917 67.8862 85.2319 68.275L85.1084 68.5736L85.2973 68.5319C85.4498 68.4972 85.5007 68.518 85.5952 68.6777C85.6605 68.7888 85.8059 69.0388 85.9221 69.2401L86.1401 69.6081L86.3944 69.4554L86.6487 69.3096L86.6923 69.4554C86.7141 69.5456 86.7867 69.6012 86.8884 69.6012C87.0338 69.6012 87.0628 69.5456 87.1427 69.136C87.3607 67.9903 87.3316 68.0528 87.8984 67.6224C88.189 67.4071 88.7412 67.0669 89.1263 66.8725L89.8238 66.5114L90.2888 65.7616C90.7392 65.0256 90.7538 65.0186 90.9717 65.0533C91.1461 65.0811 91.2115 65.0603 91.2551 64.97C91.2914 64.8659 91.3205 64.8867 91.4077 65.0811C91.4658 65.213 91.5021 65.3241 91.4948 65.3311C91.1098 65.5394 91.0734 65.581 91.0734 65.8865C91.0734 66.2962 90.9935 66.4698 90.6084 66.8864C90.4123 67.0947 90.2452 67.3585 90.2016 67.5321C90.1507 67.6987 90.0199 68.0251 89.9037 68.2681L89.693 68.6986L89.8673 68.6569L90.0417 68.6152L89.9545 69.0249L89.8673 69.4276L89.5041 69.4068C89.2062 69.3859 89.119 69.4068 88.9882 69.5456C88.8429 69.6984 88.5014 70.358 88.5523 70.4066C88.5595 70.4205 88.7194 70.3927 88.8938 70.358C89.0754 70.3163 89.4968 70.2608 89.8383 70.24L90.4559 70.1914L90.6593 69.8095C90.7683 69.6012 90.979 69.1152 91.1243 68.7402L91.3931 68.0459L91.6329 68.5319C91.9598 69.1915 92.0688 69.7401 91.9526 70.1428C91.8363 70.5594 91.6256 70.8232 91.2841 70.9898C91.0807 71.094 91.0008 71.1773 91.0008 71.2953C91.0008 71.5106 90.7102 71.6425 90.4559 71.5314C90.3106 71.4689 90.2742 71.3995 90.2742 71.212V70.976L89.6421 71.0246C88.7557 71.087 88.2834 71.1843 88.0655 71.3439C87.8475 71.5106 87.833 71.587 87.9928 71.9619L88.1091 72.2396H89.0391C89.9109 72.2396 89.9763 72.2327 90.0199 72.1008C90.0635 71.9758 90.1289 71.9619 90.652 71.9619H91.2333L91.1897 71.7328L91.1461 71.5036H91.5966C91.8509 71.5106 92.1923 71.4828 92.3595 71.4481C92.6428 71.3925 92.6719 71.4064 92.9916 71.6842C93.3476 71.9966 93.8707 72.7465 94.1105 73.2811C94.1904 73.4547 94.2703 73.7671 94.2994 73.9893C94.343 74.3643 94.3357 74.3851 94.1177 74.5587C93.9143 74.7253 93.8998 74.767 93.9434 75.003C94.0451 75.5724 94.1468 75.8015 94.3866 76.0584C94.5319 76.2112 94.6263 76.357 94.6045 76.3986C94.5682 76.4542 94.8952 77.0444 95.1713 77.4193C95.2294 77.5026 95.5418 77.6693 95.8542 77.7873C96.4791 78.0303 96.7043 78.2039 96.777 78.5094C96.8424 78.7594 97.162 78.9815 97.2492 78.8288C97.4672 78.4747 97.4817 78.4677 97.8595 78.6135C98.0702 78.6899 98.1792 78.7663 98.1356 78.7941C98.0848 78.8218 98.0484 78.8913 98.0484 78.9538C98.0484 79.051 98.0702 79.051 98.1938 78.9399C98.3391 78.8149 98.3536 78.8149 98.7169 78.9815C98.9276 79.0718 99.3563 79.3495 99.6832 79.5856C100.788 80.4188 101.042 80.4605 102.008 79.9328C102.822 79.4884 103.069 79.4259 103.352 79.5648C103.476 79.6273 103.614 79.7522 103.658 79.8495C103.723 79.9814 103.781 80.0161 103.89 79.9883C103.977 79.9675 104.115 79.9258 104.202 79.905C104.333 79.8703 104.355 79.8842 104.326 79.9953C104.297 80.0994 104.355 80.1619 104.602 80.266C105.067 80.4605 105.445 80.8215 105.503 81.1062C105.554 81.3492 105.583 81.3631 105.91 81.2312C106.07 81.1687 106.215 81.4881 106.157 81.7658C106.121 81.9602 106.121 81.9602 106.477 81.9602H106.833L106.854 81.5992C106.876 81.2589 106.891 81.2312 107.094 81.1895C107.486 81.1131 107.879 80.9187 108.664 80.4327C109.085 80.1619 109.615 79.8842 109.841 79.8078C110.407 79.6134 111.185 79.6273 112.144 79.8425C112.565 79.9397 113.023 80.0161 113.168 80.0161C113.575 80.0161 114.411 79.5856 114.578 79.294C114.65 79.1621 114.752 79.0718 114.803 79.0926C114.868 79.1135 114.897 78.9607 114.919 78.5441C114.948 77.8567 115.217 77.218 115.609 76.8847C115.806 76.725 115.856 76.6417 115.82 76.5167C115.762 76.2806 115.893 75.9196 116.205 75.4474C116.634 74.8156 116.997 74.4684 117.462 74.2462C117.833 74.0657 117.884 74.0171 117.884 73.8366C117.884 73.7185 118.022 73.3089 118.196 72.927C118.472 72.2813 118.53 72.2049 118.879 71.9758C119.148 71.7883 119.322 71.6008 119.511 71.2676C119.656 71.0037 120.078 70.4969 120.514 70.0525C121.233 69.3096 121.269 69.2818 121.843 69.0874C122.163 68.9832 122.439 68.8652 122.446 68.8305C122.505 68.6916 122.701 68.5597 122.853 68.5597C122.991 68.5597 123.042 68.4903 123.151 68.1084C123.26 67.7473 123.405 67.5182 123.892 66.935C124.597 66.074 125.018 65.3102 125.149 64.6367C125.222 64.2896 125.36 63.9563 125.665 63.4356C125.898 63.0398 126.232 62.3246 126.421 61.8456C126.697 61.1165 126.828 60.8874 127.184 60.45C127.423 60.1653 127.62 59.8945 127.62 59.8528C127.62 59.8112 127.67 59.4848 127.721 59.1307C127.816 58.5683 127.816 58.4503 127.714 58.1795C127.612 57.8809 127.612 57.8532 127.823 57.2977C127.946 56.9783 128.077 56.4853 128.128 56.2007C128.172 55.916 128.223 55.6105 128.244 55.5202C128.288 55.3258 128.194 55.3258 127.968 55.5272C127.838 55.6383 127.772 55.791 127.736 56.0479C127.67 56.527 127.62 56.6589 127.54 56.5409C127.511 56.4923 127.518 56.3951 127.554 56.3257C127.612 56.2215 127.598 56.2007 127.438 56.2007C127.293 56.2007 127.256 56.166 127.256 56.034C127.256 55.9438 127.234 55.8119 127.205 55.7424C127.169 55.6452 127.191 55.6313 127.314 55.6591C127.511 55.7077 127.525 55.666 127.583 54.8051C127.634 53.9511 127.729 53.4928 127.932 53.1109C128.034 52.9165 128.077 52.6804 128.085 52.3124C128.092 51.7917 128.099 51.7848 128.52 51.1876C128.942 50.5975 128.942 50.5836 128.978 49.9934L129.022 49.3893L128.68 49.5837C128.353 49.7643 128.339 49.792 128.375 50.0142C128.404 50.2086 128.375 50.2781 128.194 50.4447C128.07 50.5558 127.932 50.6461 127.896 50.6461C127.852 50.6461 127.838 50.7086 127.859 50.7849C127.91 50.9793 127.845 50.9585 127.489 50.6599C127.22 50.4308 127.162 50.3267 127.031 49.8476C126.9 49.3754 126.82 49.2435 126.53 48.945C126.312 48.7297 126.043 48.327 125.818 47.8965C125.462 47.223 125.44 47.1883 125.091 47.0564L124.728 46.9106L124.677 46.3621C124.619 45.6747 124.619 45.6747 124.35 45.5428C124.183 45.4594 124.096 45.4525 123.979 45.515C123.9 45.5566 123.805 45.5705 123.783 45.5428C123.653 45.4247 123.66 44.5499 123.791 44.0222C123.9 43.5639 123.914 43.4181 123.841 43.1543C123.769 42.8835 123.376 42.1753 123.289 42.1753C123.275 42.1753 123.18 42.2586 123.079 42.3558C122.926 42.5016 122.904 42.5572 122.984 42.5988C123.035 42.6335 123.1 42.6613 123.137 42.6613C123.217 42.6613 123.202 42.8696 123.115 42.8696C123.079 42.8696 122.991 42.7932 122.926 42.696C122.861 42.5988 122.752 42.5224 122.679 42.5224C122.592 42.5224 122.497 42.4044 122.388 42.1475C122.258 41.8351 122.192 41.7587 122.018 41.724C121.843 41.6823 121.814 41.6615 121.887 41.5782C121.952 41.5018 121.945 41.4809 121.858 41.4809C121.771 41.4809 121.734 41.592 121.691 41.967C121.654 42.3489 121.618 42.453 121.524 42.453C121.335 42.453 121.262 42.3697 121.095 41.9809C120.942 41.6198 120.942 41.6059 121.073 41.5712C121.204 41.5365 121.204 41.5226 121.037 41.1616C120.877 40.8144 120.87 40.7797 120.971 40.5019C121.088 40.1895 121.066 40.1201 120.826 40.0784C120.717 40.0645 120.688 40.009 120.703 39.8909C120.717 39.8007 120.688 39.5299 120.645 39.2869C120.565 38.8842 120.521 38.8147 120.209 38.5648C119.86 38.2801 119.482 37.7108 119.584 37.6135C119.613 37.5858 119.722 37.6483 119.816 37.7524L119.991 37.9468V37.7246C119.991 37.5372 120.005 37.5163 120.107 37.5997C120.172 37.6483 120.201 37.7455 120.18 37.8357C120.15 37.9538 120.194 38.0093 120.39 38.0996L120.645 38.2176V38.044C120.645 37.926 120.601 37.8704 120.521 37.8704C120.405 37.8635 120.405 37.8566 120.528 37.7663C120.666 37.6621 120.666 37.6552 120.514 37.3914L120.347 37.1136L120.506 37.0303C120.623 36.9748 120.637 36.94 120.572 36.8984C120.521 36.8706 120.506 36.8081 120.528 36.7665C120.565 36.7179 120.514 36.6901 120.398 36.6901C120.289 36.6901 120.172 36.6345 120.121 36.5512C119.983 36.3429 119.896 36.3846 119.947 36.6207C119.969 36.7318 119.962 36.829 119.933 36.829C119.903 36.829 119.729 36.6831 119.555 36.5096C119.097 36.0652 118.988 36.0166 118.85 36.2041C118.741 36.3499 118.741 36.3429 118.538 36.0444C118.312 35.7041 118.174 35.6278 117.913 35.6903C117.753 35.7319 117.738 35.7111 117.738 35.4889C117.738 35.1556 117.462 34.989 117.302 35.232C117.222 35.357 117.208 35.3431 117.063 34.8848C116.997 34.6765 116.866 34.4127 116.772 34.3016C116.619 34.1211 116.59 34.1141 116.452 34.1975C116.271 34.3016 116.096 34.2044 115.987 33.9336C115.929 33.7739 115.915 33.7739 115.748 33.8781C115.602 33.9683 115.537 33.9753 115.413 33.9128L115.253 33.8295L115.421 33.6628L115.58 33.4962H115.275C114.679 33.4962 114.244 33.149 114.244 32.6769C114.244 32.5727 114.265 32.1839 114.294 31.8159L114.338 31.1355L113.989 31.1841L113.64 31.2257L113.749 31.0591C113.815 30.9688 113.924 30.8091 113.996 30.698C114.084 30.5661 114.098 30.4828 114.047 30.4203C114.011 30.3787 113.975 30.1148 113.975 29.851C113.982 29.5316 113.917 29.1636 113.793 28.7817C113.619 28.2262 113.619 28.1985 113.749 28.1707C113.96 28.1152 113.917 27.8791 113.691 27.7958C113.343 27.6708 113.023 27.3931 112.798 27.0181C112.543 26.5946 112.529 26.5113 112.718 26.4627C112.812 26.4418 112.849 26.3863 112.827 26.303C112.812 26.2266 112.718 25.7197 112.609 25.1712C112.449 24.3102 112.434 24.1505 112.522 23.9561C112.572 23.8381 112.616 23.6437 112.616 23.5326C112.623 23.4146 112.652 23.2479 112.681 23.1507C112.725 22.991 112.66 22.9285 111.831 22.3731C110.858 21.7204 110.836 21.6926 110.836 21.0122C110.836 20.8942 110.821 20.79 110.792 20.79C110.771 20.79 110.633 20.8664 110.487 20.9636L110.218 21.1372L110.182 20.9566L110.146 20.7692L109.782 21.1163C109.136 21.7482 109.02 21.6718 108.62 20.3873C108.467 19.8943 108.453 19.7624 108.518 19.4152C108.562 19.1444 108.562 18.9153 108.504 18.6862C108.424 18.3668 108.446 17.9085 108.555 17.6447C108.591 17.5475 108.555 17.5267 108.337 17.5267H108.075L108.22 17.2559L108.366 16.9781L107.937 16.6102C107.559 16.2908 107.508 16.2144 107.545 16.0478C107.566 15.9436 107.69 15.7561 107.828 15.6381L108.068 15.4229L107.697 15.2979C107.501 15.2354 107.269 15.1174 107.189 15.041C107.021 14.8882 106.92 14.4716 106.913 13.9509C106.913 13.4579 106.796 13.1316 106.549 12.8747C106.346 12.6664 106.339 12.6455 106.448 12.4859C106.52 12.3817 106.549 12.2567 106.52 12.1456C106.462 11.9443 106.331 11.9096 106.331 12.104ZM90.1652 15.159C90.187 15.1937 90.1725 15.2423 90.1289 15.2701C90.0199 15.3326 90.1144 15.4437 90.2815 15.4437C90.4704 15.4437 90.4559 15.5478 90.2306 15.7145C89.9836 15.9019 89.8819 15.9019 89.9327 15.7075C89.9545 15.6242 89.9473 15.5062 89.9109 15.4367C89.7874 15.2146 90.0272 14.9507 90.1652 15.159ZM89.7947 18.4362C89.8238 18.6029 89.8092 18.6792 89.7148 18.7487C89.5259 18.8875 89.4968 18.8667 89.4532 18.6168C89.4241 18.464 89.4532 18.3668 89.5331 18.3043C89.7075 18.1793 89.7438 18.2002 89.7947 18.4362ZM66.9007 19.5402C66.8716 19.6513 66.8426 19.6652 66.7627 19.6027C66.6464 19.5124 66.69 19.4013 66.8426 19.4013C66.9007 19.4013 66.9225 19.45 66.9007 19.5402ZM104.261 78.8496C104.311 79.1135 104.297 79.1551 104.123 79.3009C103.905 79.4745 103.716 79.5092 103.716 79.3704C103.716 79.3287 103.694 79.176 103.672 79.0301C103.628 78.808 103.65 78.7663 103.832 78.6691C104.152 78.5094 104.21 78.5302 104.261 78.8496Z" fill="white"/>
<path d="M75.8155 12.5691C75.8155 12.6802 75.7356 12.8955 75.6339 13.0482C75.5322 13.2079 75.4523 13.437 75.4523 13.5828C75.4523 13.7911 75.4305 13.8258 75.3215 13.7981C75.227 13.7772 75.1616 13.8397 75.0744 14.0133L74.9509 14.2494L75.583 14.291C75.9318 14.3188 76.5276 14.3674 76.9126 14.4091L77.6029 14.4785L78.1769 14.173L78.7509 13.8675L78.7726 13.437C78.7872 13.0551 78.7726 12.9857 78.6128 12.833C78.5184 12.7427 78.3948 12.6663 78.3367 12.6663C78.2859 12.6663 77.9008 12.7774 77.4866 12.9093L76.731 13.1524L76.4694 12.9232C76.3314 12.7982 76.128 12.6247 76.019 12.5344L75.8155 12.3678V12.5691Z" fill="white"/>
<path d="M91.3278 12.8954C90.9427 13.4231 89.8747 14.4716 89.7148 14.4716C89.664 14.4716 89.6204 14.541 89.6204 14.6243C89.6204 14.7771 89.6204 14.7701 89.8238 14.5965C89.9328 14.4993 90.2161 14.3119 90.4632 14.173C90.8846 13.93 91.4804 13.3954 91.6329 13.1107C91.7419 12.9232 91.8291 12.3886 91.7492 12.3886C91.7201 12.3955 91.5312 12.6177 91.3278 12.8954Z" fill="white"/>
<path d="M90.0636 19.0403C89.9401 19.1931 89.8384 19.3389 89.8384 19.3597C89.8384 19.3805 90.0055 19.4014 90.2017 19.4014C90.6231 19.4014 90.6594 19.4777 90.4196 19.9221C90.3397 20.0679 90.2816 20.1929 90.2961 20.1998C90.3034 20.2068 90.6376 20.2623 91.0372 20.3318C91.4368 20.4012 91.8364 20.4706 91.9309 20.4915C92.0762 20.5262 92.0907 20.4984 92.0907 20.2762C92.0907 20.0263 92.0835 20.0263 91.7928 20.0263C91.5022 20.0263 91.4949 20.0193 91.5458 19.8319C91.5676 19.7277 91.6911 19.4986 91.8074 19.3111C91.9236 19.1306 92.0181 18.9639 92.0181 18.9501C92.0181 18.9292 91.9236 18.957 91.8001 19.0195C91.5821 19.1236 91.5821 19.1236 91.5821 18.9501C91.5821 18.7973 91.5531 18.7765 91.3278 18.7765C91.1462 18.7765 91.0081 18.832 90.8846 18.9501C90.7829 19.0473 90.6667 19.1236 90.6231 19.1236C90.5577 19.1236 90.5577 19.1028 90.6231 19.0403C90.7393 18.9292 90.7321 18.8459 90.6013 18.8459C90.5359 18.8459 90.4923 18.9153 90.485 18.9987C90.4778 19.1445 90.4705 19.1445 90.4414 19.0195C90.376 18.7626 90.2961 18.7695 90.0636 19.0403Z" fill="white"/>
<path d="M62.7375 20.54C62.7375 20.6372 62.7739 20.7344 62.8102 20.7553C62.8538 20.783 62.8829 20.7067 62.8829 20.5886C62.8829 20.4706 62.8538 20.3734 62.8102 20.3734C62.7739 20.3734 62.7375 20.4498 62.7375 20.54Z" fill="white"/>
<path d="M109.964 20.7275C109.964 20.8525 109.979 20.8594 110.073 20.79C110.131 20.7414 110.182 20.6789 110.182 20.6442C110.182 20.6094 110.131 20.5817 110.073 20.5817C110.008 20.5817 109.964 20.6442 109.964 20.7275Z" fill="white"/>
<path d="M97.8522 27.1083C97.6996 27.1708 97.5398 27.3722 97.5398 27.511C97.5398 27.6082 98.0484 27.4902 98.1792 27.3583C98.2736 27.275 98.2736 27.2333 98.1937 27.15C98.092 27.025 98.0775 27.025 97.8522 27.1083Z" fill="white"/>
<path d="M114.542 32.1978C114.542 32.4963 114.563 32.538 114.781 32.663C115.137 32.8713 115.159 32.8365 114.905 32.3991C114.578 31.8436 114.542 31.8228 114.542 32.1978Z" fill="white"/>
<path d="M40.7736 35.8013C40.7445 36.0166 40.759 36.1207 40.8244 36.0582C40.8971 35.9818 40.9479 35.5791 40.8825 35.5791C40.8462 35.5791 40.7953 35.6833 40.7736 35.8013Z" fill="white"/>
<path d="M40.5119 36.4818C40.2576 37.0095 40.3448 37.4886 40.6282 37.1206C40.8461 36.8359 40.8825 36.6693 40.7662 36.4054L40.6572 36.1693L40.5119 36.4818Z" fill="white"/>
<path d="M41.1587 37.7038C41.1587 37.801 41.1805 37.801 41.2677 37.7316C41.3258 37.683 41.3767 37.6344 41.3767 37.6205C41.3767 37.6066 41.3258 37.5927 41.2677 37.5927C41.2096 37.5927 41.1587 37.6413 41.1587 37.7038Z" fill="white"/>
<path d="M121.734 40.5852C121.734 40.7102 121.749 40.7172 121.843 40.62C121.901 40.5644 121.952 40.5019 121.952 40.4811C121.952 40.4603 121.901 40.4394 121.843 40.4394C121.778 40.4394 121.734 40.5019 121.734 40.5852Z" fill="white"/>
<path d="M122.824 40.8561C122.882 40.8908 122.999 40.9255 123.078 40.9255C123.202 40.9255 123.202 40.9117 123.115 40.8561C123.057 40.8214 122.94 40.7867 122.86 40.7867C122.737 40.7867 122.737 40.8006 122.824 40.8561Z" fill="white"/>
<path d="M123.769 44.6471C123.769 44.7443 123.791 44.7443 123.878 44.6748C123.936 44.6262 123.987 44.5776 123.987 44.5637C123.987 44.5499 123.936 44.536 123.878 44.536C123.82 44.536 123.769 44.5846 123.769 44.6471Z" fill="white"/>
<path d="M36.218 47.4868C36.218 48.1673 36.3125 48.3617 36.3997 47.8618C36.4578 47.5285 36.3851 46.8272 36.2834 46.8272C36.2471 46.8272 36.218 47.1258 36.218 47.4868Z" fill="white"/>
<path d="M79.2305 62.3454C79.2305 62.401 79.2523 62.4496 79.2741 62.4496C79.2959 62.4496 79.3612 62.401 79.4194 62.3454C79.5211 62.2552 79.5138 62.2413 79.383 62.2413C79.2959 62.2413 79.2305 62.2829 79.2305 62.3454Z" fill="white"/>
<path d="M82.2095 63.2481C82.2095 63.3037 82.2385 63.3523 82.2749 63.3523C82.3112 63.3523 82.3766 63.3037 82.4274 63.2481C82.5001 63.1579 82.4928 63.144 82.3621 63.144C82.2749 63.144 82.2095 63.1857 82.2095 63.2481Z" fill="white"/>
<path d="M43.7017 63.6994C43.7017 63.7341 43.7816 63.7688 43.8833 63.7688C43.985 63.7688 44.0649 63.7341 44.0649 63.6994C44.0649 63.6577 43.985 63.6299 43.8833 63.6299C43.7816 63.6299 43.7017 63.6577 43.7017 63.6994Z" fill="white"/>
<path d="M84.0257 66.3031C83.9313 66.4003 83.8877 66.4767 83.9313 66.4767C84.0185 66.4767 84.28 66.2128 84.2292 66.1642C84.2146 66.1434 84.1202 66.2059 84.0257 66.3031Z" fill="white"/>
<path d="M61.1608 66.9974C61.0954 67.171 61.1753 67.1849 61.3206 67.0321C61.4441 66.9071 61.4441 66.8933 61.3279 66.8933C61.2625 66.8933 61.1898 66.9419 61.1608 66.9974Z" fill="white"/>
<path d="M60.5797 67.1503C60.4852 67.185 60.4416 67.3794 60.5288 67.3794C60.5506 67.3794 60.616 67.3377 60.6741 67.2822C60.8412 67.1225 60.7976 67.06 60.5797 67.1503Z" fill="white"/>
<path d="M87.2227 69.3998C87.2227 69.4554 87.2735 69.5665 87.3316 69.6428C87.4624 69.8095 87.4697 69.6914 87.3316 69.4623C87.2663 69.3512 87.2299 69.3304 87.2227 69.3998Z" fill="white"/>
<path d="M101.376 82.2171C101.187 82.2449 101.187 82.2587 101.136 82.8975C101.107 83.2516 101.093 83.578 101.114 83.6266C101.129 83.6752 101.26 83.6196 101.441 83.4946C101.79 83.2516 101.914 82.9392 101.848 82.474C101.805 82.1546 101.805 82.1546 101.376 82.2171Z" fill="white"/>
<path d="M106.767 82.9045C106.767 83.0017 106.789 83.0017 106.876 82.9323C106.934 82.8837 106.985 82.8351 106.985 82.8212C106.985 82.8073 106.934 82.7934 106.876 82.7934C106.818 82.7934 106.767 82.842 106.767 82.9045Z" fill="white"/>
<path d="M107.959 82.9461C107.908 83.0294 108.206 83.3141 108.278 83.2447C108.329 83.203 108.14 82.8628 108.068 82.8628C108.039 82.8628 107.988 82.8975 107.959 82.9461Z" fill="white"/>
<path d="M109.31 83.7586C109.31 83.7933 109.252 83.8072 109.179 83.7863C109.085 83.7655 108.983 83.8349 108.852 84.0016L108.656 84.2446L108.802 84.5917C108.911 84.8625 108.925 84.9459 108.852 84.9459C108.794 84.9459 108.678 85.0222 108.591 85.1125C108.438 85.2652 108.431 85.2861 108.555 85.3486C108.642 85.3972 108.736 85.3902 108.852 85.3416C108.947 85.3069 109.041 85.293 109.078 85.3277C109.107 85.3555 109.099 85.3902 109.056 85.4111C108.794 85.5013 108.78 85.5499 108.874 85.8763C108.925 86.0568 108.99 86.2095 109.012 86.2304C109.041 86.2442 109.267 86.2095 109.521 86.147C109.877 86.0568 109.964 86.0151 109.928 85.9249C109.833 85.6818 109.804 84.9667 109.884 84.8209C109.957 84.689 109.928 84.6195 109.666 84.2862C109.376 83.9183 109.368 83.8974 109.499 83.8002C109.63 83.703 109.63 83.703 109.477 83.6961C109.383 83.6961 109.31 83.7238 109.31 83.7586Z" fill="white"/>
<path d="M102.473 84.7722C102.197 85.3346 102.044 85.8623 102.044 86.265C102.044 86.6469 102.248 87.4037 102.502 87.9731L102.691 88.3897L102.575 89.1951L102.466 89.9936L102.851 90.9448C103.112 91.5836 103.272 91.8821 103.33 91.8613C103.403 91.8335 103.425 91.9169 103.425 92.1668V92.514H103.701C103.861 92.514 104.181 92.6112 104.493 92.757C104.784 92.8889 105.045 93 105.074 93C105.111 93 105.198 92.8889 105.27 92.757C105.408 92.5209 105.408 92.5209 105.626 92.632C105.837 92.7362 105.859 92.7292 105.982 92.5834C106.055 92.5001 106.113 92.389 106.113 92.3404C106.113 92.2918 106.186 92.2362 106.266 92.2154C106.397 92.1807 106.418 92.139 106.382 91.9655C106.353 91.8474 106.367 91.7502 106.397 91.7502C106.433 91.7502 106.52 91.7294 106.585 91.7086C106.694 91.6669 106.702 91.7086 106.68 92.0002L106.658 92.3404L106.985 92.4168C107.174 92.4654 107.341 92.4723 107.385 92.4376C107.421 92.4029 107.45 92.1251 107.457 91.8196C107.457 91.3406 107.472 91.2642 107.588 91.2642C107.755 91.2642 108.002 91.0212 108.002 90.8476C108.002 90.7504 107.966 90.7226 107.886 90.7573C107.792 90.792 107.777 90.7712 107.821 90.6323C107.908 90.3616 108.053 90.1185 108.191 90.0075C108.307 89.9172 108.315 89.9241 108.264 90.0491C108.082 90.4727 108.177 90.5629 108.475 90.2505C108.583 90.1394 108.663 89.9519 108.692 89.7158C108.722 89.5145 108.838 88.9521 108.954 88.4522C109.172 87.5356 109.216 87.0566 109.128 86.5983L109.078 86.3414L108.794 86.4456C108.525 86.5497 108.504 86.5497 108.249 86.397L107.98 86.2373L107.755 86.4872C107.537 86.7233 107.523 86.7302 107.312 86.64C107.043 86.5289 106.644 86.5219 106.222 86.6191C106.041 86.6608 105.779 86.6747 105.641 86.6539C105.358 86.5983 104.224 85.904 103.904 85.5776C103.737 85.411 103.628 85.3624 103.41 85.3624C103.134 85.3624 103.134 85.3624 103.134 85.0777C103.134 84.8208 103.12 84.8 102.974 84.8486C102.815 84.8903 102.822 84.8833 103.011 84.6472C103.12 84.5084 103.207 84.3834 103.207 84.3626C103.207 84.3417 103.091 84.3209 102.945 84.3209C102.706 84.3209 102.684 84.3417 102.473 84.7722Z" fill="white"/>
</g>
<path d="M143.667 96L155.333 96C156.254 96 157 95.2965 157 94.4286L157 89.5795C157 89.1627 156.824 88.763 156.512 88.4683L153.321 85.4603C153.009 85.1656 152.585 85 152.143 85L143.667 85C142.746 85 142 85.7014 142 86.5692L142 94.4292C142 95.2971 142.746 96 143.667 96Z" fill="white"/>
<path d="M146.352 90.848C146.352 90.912 146.348 90.9787 146.34 91.048H144.792C144.803 91.1867 144.847 91.2933 144.924 91.368C145.004 91.44 145.101 91.476 145.216 91.476C145.387 91.476 145.505 91.404 145.572 91.26H146.3C146.263 91.4067 146.195 91.5387 146.096 91.656C146 91.7733 145.879 91.8653 145.732 91.932C145.585 91.9987 145.421 92.032 145.24 92.032C145.021 92.032 144.827 91.9853 144.656 91.892C144.485 91.7987 144.352 91.6653 144.256 91.492C144.16 91.3187 144.112 91.116 144.112 90.884C144.112 90.652 144.159 90.4493 144.252 90.276C144.348 90.1027 144.481 89.9693 144.652 89.876C144.823 89.7827 145.019 89.736 145.24 89.736C145.456 89.736 145.648 89.7813 145.816 89.872C145.984 89.9627 146.115 90.092 146.208 90.26C146.304 90.428 146.352 90.624 146.352 90.848ZM145.652 90.668C145.652 90.5507 145.612 90.4573 145.532 90.388C145.452 90.3187 145.352 90.284 145.232 90.284C145.117 90.284 145.02 90.3173 144.94 90.384C144.863 90.4507 144.815 90.5453 144.796 90.668H145.652ZM147.729 92.028C147.524 92.028 147.34 91.9947 147.177 91.928C147.014 91.8613 146.884 91.7627 146.785 91.632C146.689 91.5013 146.638 91.344 146.633 91.16H147.361C147.372 91.264 147.408 91.344 147.469 91.4C147.53 91.4533 147.61 91.48 147.709 91.48C147.81 91.48 147.89 91.4573 147.949 91.412C148.008 91.364 148.037 91.2987 148.037 91.216C148.037 91.1467 148.013 91.0893 147.965 91.044C147.92 90.9987 147.862 90.9613 147.793 90.932C147.726 90.9027 147.63 90.8693 147.505 90.832C147.324 90.776 147.176 90.72 147.061 90.664C146.946 90.608 146.848 90.5253 146.765 90.416C146.682 90.3067 146.641 90.164 146.641 89.988C146.641 89.7267 146.736 89.5227 146.925 89.376C147.114 89.2267 147.361 89.152 147.665 89.152C147.974 89.152 148.224 89.2267 148.413 89.376C148.602 89.5227 148.704 89.728 148.717 89.992H147.977C147.972 89.9013 147.938 89.8307 147.877 89.78C147.816 89.7267 147.737 89.7 147.641 89.7C147.558 89.7 147.492 89.7227 147.441 89.768C147.39 89.8107 147.365 89.8733 147.365 89.956C147.365 90.0467 147.408 90.1173 147.493 90.168C147.578 90.2187 147.712 90.2733 147.893 90.332C148.074 90.3933 148.221 90.452 148.333 90.508C148.448 90.564 148.546 90.6453 148.629 90.752C148.712 90.8587 148.753 90.996 148.753 91.164C148.753 91.324 148.712 91.4693 148.629 91.6C148.549 91.7307 148.432 91.8347 148.277 91.912C148.122 91.9893 147.94 92.028 147.729 92.028ZM149.858 89.192V92H149.174V89.192H149.858ZM153.533 89.192V92H152.849V90.316L152.221 92H151.669L151.037 90.312V92H150.353V89.192H151.161L151.949 91.136L152.729 89.192H153.533Z" fill="url(#paint1_linear_1246_3985)"/>
</g>
<defs>
<linearGradient id="paint0_linear_1246_3985" x1="0" y1="0" x2="92.535" y2="148.236" gradientUnits="userSpaceOnUse">
<stop stop-color="#BE1F68"/>
<stop offset="1" stop-color="#F5CAB8"/>
</linearGradient>
<linearGradient id="paint1_linear_1246_3985" x1="144" y1="91" x2="154" y2="91" gradientUnits="userSpaceOnUse">
<stop stop-color="#F4C5B6"/>
<stop offset="1" stop-color="#C0246B"/>
</linearGradient>
<clipPath id="clip0_1246_3985">
<rect width="165" height="103" fill="white"/>
</clipPath>
<clipPath id="clip1_1246_3985">
<rect width="93" height="82" fill="white" transform="translate(36 11)"/>
</clipPath>
</defs>
</svg>
