<svg width="165" height="103" viewBox="0 0 165 103" fill="none" xmlns="http://www.w3.org/2000/svg">
<g clip-path="url(#clip0_1246_3919)">
<rect width="165" height="103" rx="8" fill="url(#paint0_linear_1246_3919)"/>
<g clip-path="url(#clip1_1246_3919)">
<path d="M84.8639 8.07481C84.6261 8.21075 84.7484 8.47583 85.0473 8.47583C85.1967 8.47583 85.3122 8.21755 85.2103 8.09521C85.122 7.98646 85.0269 7.97966 84.8639 8.07481Z" fill="white"/>
<path d="M85.1083 8.78157C85.0064 8.85633 84.9928 8.89711 85.054 8.99907C85.1627 9.17579 85.448 9.16219 85.4751 8.97188C85.5023 8.76797 85.2781 8.65243 85.1083 8.78157Z" fill="white"/>
<path d="M85.4411 9.88273C85.3053 9.93031 85.3393 10.2294 85.4819 10.3109C85.5566 10.3449 85.6313 10.3789 85.6449 10.3789C85.7061 10.3789 85.8283 9.9575 85.7876 9.89633C85.7468 9.82836 85.577 9.82156 85.4411 9.88273Z" fill="white"/>
<path d="M74.0428 12.751C73.8594 12.7918 73.8119 12.8462 73.6013 13.3016C73.5673 13.3696 73.4519 13.4035 73.2685 13.4103C73.0511 13.4103 72.9356 13.4579 72.7658 13.621C72.4533 13.9133 72.3039 13.9813 71.7944 14.0289C71.4344 14.0628 71.3325 14.0968 71.251 14.226C71.1355 14.4027 70.8298 14.525 70.5106 14.525C70.0283 14.525 69.709 14.994 69.6954 15.7213C69.6818 16.3126 69.6479 16.3738 69.3558 16.3194C69.1588 16.2854 69.1112 16.3058 69.0093 16.4689C68.9414 16.5709 68.8871 16.7612 68.8803 16.8971C68.8803 17.1214 68.8599 17.1418 68.6085 17.2098C68.3708 17.2778 68.3368 17.3186 68.3165 17.5089C68.2961 17.7196 68.2757 17.7332 68.0991 17.6992C67.9225 17.6584 67.9089 17.6788 67.8681 17.9167C67.841 18.1002 67.7526 18.2429 67.5896 18.3925C67.4538 18.508 67.3247 18.6032 67.2975 18.6032C67.2704 18.6032 67.2092 18.6303 67.1549 18.6643C67.0734 18.7187 67.0734 18.7459 67.1685 18.841C67.2364 18.9022 67.2839 19.0585 67.2839 19.2013C67.2839 19.3508 67.3383 19.5003 67.4266 19.5955C67.5557 19.7314 67.5692 19.8334 67.576 20.751C67.5896 21.7501 67.5896 21.7569 67.4062 21.988C67.2704 22.1579 67.216 22.3007 67.216 22.5046C67.216 22.6541 67.1685 23.0415 67.1209 23.361C67.0598 23.7144 67.0462 24.0475 67.0734 24.2174C67.1481 24.598 67.0666 24.7203 66.7473 24.7203C66.2718 24.7203 65.9933 25.101 65.9933 25.7535C65.9933 25.9506 65.9389 26.0593 65.7555 26.2496C65.545 26.4535 65.4702 26.4875 65.1849 26.4875C65.0015 26.4875 64.8249 26.5283 64.7842 26.5691C64.7502 26.6167 64.6823 26.8546 64.6415 27.0993C64.5464 27.6566 64.4038 27.8469 63.9894 27.9761C63.5954 28.1052 63.3916 28.3635 63.2829 28.8732C63.1743 29.383 63.2014 29.8724 63.3712 30.3278C63.5071 30.7016 63.5411 30.7424 63.7856 30.8171C63.9351 30.8647 64.1728 30.9191 64.3155 30.9395C64.7026 31.0007 64.6279 31.191 64.0234 31.7007C63.643 32.0134 63.4867 32.1969 63.4052 32.4144C63.3441 32.5775 63.2354 32.8154 63.1539 32.9446C62.9637 33.2504 62.9637 33.3388 63.1743 33.5291C63.3033 33.6514 63.3305 33.7262 63.3033 33.8825C63.2829 33.9913 63.2965 34.1884 63.3305 34.3311C63.378 34.501 63.378 34.6438 63.3305 34.7865C63.2014 35.1671 63.575 35.473 64.3426 35.5953C64.7977 35.6701 64.8928 35.7517 64.9812 36.1391C65.083 36.6013 65.4974 37.3829 65.8506 37.7771C66.0273 37.9811 66.2175 38.2665 66.265 38.416C66.3126 38.5656 66.4552 38.8035 66.5775 38.9394C66.856 39.2521 66.9783 39.4968 67.0394 39.8434C67.1209 40.2988 67.8342 41.7805 68.2485 42.365C68.4659 42.6641 68.7308 43.1195 68.8531 43.3846C68.9686 43.6428 69.118 43.9759 69.1927 44.1322C69.2607 44.2818 69.3218 44.5128 69.3218 44.642C69.3218 44.9071 69.4033 45.043 69.94 45.6955C70.6396 46.5519 71.7469 47.4559 72.1612 47.5239C72.528 47.585 72.759 47.687 72.9016 47.8433C72.9696 47.9181 73.2685 48.1016 73.5673 48.2443C73.8662 48.3871 74.233 48.5706 74.3825 48.6521C74.5319 48.7269 74.7018 48.8153 74.7561 48.8425C74.8172 48.8764 74.8648 49.0192 74.8784 49.2027C74.9055 49.5969 75.0618 49.7464 75.6392 49.9368C76.1147 50.0999 76.1826 50.1543 76.1826 50.4057C76.1826 50.4941 76.2777 50.8475 76.3932 51.1874C76.563 51.67 76.6241 51.9894 76.6649 52.6215C76.6989 53.0701 76.7396 53.5459 76.76 53.675C76.794 53.8382 76.7328 54.178 76.5902 54.7285C76.3388 55.6665 76.3185 55.9724 76.4815 56.3938C76.5698 56.6181 76.6038 56.89 76.6038 57.3929C76.6038 57.9911 76.6241 58.1134 76.7396 58.2697C76.8687 58.4328 76.8755 58.4736 76.8008 58.7931C76.7328 59.0786 76.7328 59.3368 76.8143 60.166C76.9026 61.0089 76.9162 61.6342 76.8687 62.2867C76.8619 62.3343 76.7736 62.4566 76.6581 62.5586C76.4068 62.7761 76.4 62.98 76.6309 63.2518C76.794 63.4489 76.8008 63.4965 76.76 63.8907C76.7328 64.1422 76.6513 64.3937 76.5698 64.5093C76.4339 64.7064 76.4339 64.7132 76.5494 65.2773C76.6173 65.5968 76.7464 66.0521 76.8347 66.29C76.923 66.5347 76.9977 66.793 76.9977 66.8814C76.9977 66.9629 77.0725 67.194 77.1676 67.3911C77.3849 67.8601 77.3781 67.9825 77.1268 68.465C76.9162 68.8593 76.9094 68.8728 76.9706 69.4778C77.0725 70.6061 77.0045 72.3121 76.8347 72.7675C76.6921 73.1549 76.6989 73.3316 76.8619 73.5423C77.1336 73.8889 77.2695 74.2832 77.2695 74.7589C77.2695 75.0444 77.3102 75.3095 77.3849 75.459C77.4936 75.6901 77.4936 75.7037 77.351 75.9008C77.1744 76.1319 77.1676 76.2271 77.2966 76.4106C77.3442 76.4853 77.4053 76.6961 77.4257 76.8728C77.4732 77.233 77.9148 78.137 78.071 78.1914C78.1254 78.2186 78.2544 78.1778 78.3631 78.1166C78.5329 78.0146 78.5873 78.0146 78.7435 78.0894C78.8454 78.137 78.9405 78.2389 78.9541 78.3137C78.9677 78.3885 79.0832 78.5448 79.2122 78.6671C79.4432 78.8846 79.5043 79.1021 79.382 79.2925C79.3481 79.34 79.3549 79.4624 79.3956 79.5711C79.45 79.7139 79.4364 79.8226 79.3481 80.0469C79.2326 80.346 79.2802 80.5227 79.4839 80.5227C79.6266 80.5227 79.647 80.6178 79.5655 80.8829C79.4975 81.1004 79.5043 81.1548 79.613 81.2703C79.6809 81.3451 79.776 81.4063 79.8236 81.4063C79.9798 81.4063 80.1904 81.6986 80.1904 81.9093C80.1904 82.0248 80.1157 82.2831 80.0206 82.4802C79.8304 82.8948 79.8168 83.0647 79.9526 83.3094C80.0138 83.4182 80.0477 83.69 80.0545 84.0978C80.0545 84.6212 80.0342 84.7436 79.9187 84.8931C79.844 84.9882 79.7828 85.0902 79.7828 85.131C79.7828 85.165 79.844 85.2465 79.9187 85.3145C79.9934 85.3825 80.0545 85.4708 80.0545 85.5116C80.0613 85.6951 80.1972 85.7835 80.4961 85.7903C80.6795 85.7971 80.8561 85.8514 80.9172 85.9126C81.0123 86.0078 81.0055 86.0282 80.8153 86.1233C80.6048 86.2321 80.5708 86.3136 80.4961 86.8574C80.4485 87.1564 80.4621 87.1904 80.6319 87.3332C81.1074 87.7274 81.1414 87.7818 81.1414 88.1012C81.1414 88.3935 81.2637 88.611 81.4675 88.6857C81.5014 88.6993 81.6033 88.8964 81.6916 89.1207C81.8275 89.4538 81.9022 89.5489 82.106 89.6441C82.2418 89.7121 82.4049 89.8548 82.4728 89.9636C82.5407 90.0723 82.663 90.2014 82.7513 90.249C82.86 90.3102 82.9483 90.4529 83.0162 90.6976C83.0774 90.9015 83.1861 91.1394 83.2676 91.2346L83.417 91.4113L83.7838 91.221C84.1235 91.0443 84.1642 91.0375 84.5582 91.1054C84.7892 91.1462 85.0949 91.2278 85.2307 91.2889C85.4481 91.3841 85.4888 91.4317 85.4888 91.6016C85.4888 92.023 84.925 92.0502 84.6873 91.6424C84.4631 91.2686 83.9944 91.2753 83.9944 91.6628C83.9944 91.8803 84.1506 92.0366 84.4224 92.1046C84.6737 92.1657 84.6533 92.2813 84.3952 92.2813C84.1235 92.2813 84.171 92.4036 84.4903 92.526C84.6261 92.5803 84.8571 92.6687 84.9998 92.7231C85.3122 92.8386 85.6383 92.8522 85.747 92.7435C85.7945 92.6959 85.8285 92.5532 85.8285 92.4172C85.8285 92.2405 85.9168 92.0366 86.1342 91.7036C86.6912 90.8268 86.5961 90.9015 87.1599 90.9491C87.6558 90.9967 87.6626 90.9967 87.6626 90.8336C87.6626 90.6161 87.4588 90.4461 87.2006 90.4461C87.0172 90.4461 86.9833 90.4189 86.9833 90.2898C86.9833 90.2014 86.9085 90.0587 86.8202 89.9771C86.5893 89.7596 86.4398 89.4198 86.4398 89.1275C86.4398 88.8013 86.6572 88.3867 86.8746 88.2847C87.0648 88.1964 87.0716 88.1692 87.0512 87.3196L87.0376 86.803L87.3841 86.4836C87.5742 86.3068 87.8052 86.1301 87.9003 86.0825C88.2603 85.9194 88.3554 85.3757 88.0973 84.9543C88.0158 84.8319 87.9411 84.8047 87.6354 84.8047C87.3433 84.8047 87.221 84.7639 86.9969 84.6076C86.8474 84.4989 86.7048 84.3697 86.6776 84.3357C86.6572 84.295 86.5146 84.1998 86.3719 84.125C86.0459 83.9551 85.8964 83.69 85.8964 83.2686C85.8964 83.0036 85.9304 82.922 86.1206 82.7317C86.27 82.5821 86.4398 82.487 86.6165 82.4598C86.7591 82.4394 86.9289 82.3918 86.9833 82.3646C87.0987 82.3035 87.2006 81.8549 87.1938 81.4403C87.1938 81.2907 87.1871 80.9509 87.1803 80.6926C87.1803 80.4275 87.1803 80.1964 87.1803 80.1625C87.1871 80.1353 87.2618 80.1149 87.3569 80.1149C87.5742 80.1149 87.5742 79.9925 87.3501 79.7818C87.1395 79.5779 87.1599 79.408 87.4112 79.3808C87.5403 79.3672 87.5946 79.3196 87.5946 79.2313C87.5946 79.0682 87.4791 79.0002 87.2482 79.0138C87.1463 79.0206 86.9833 79.0002 86.8882 78.9594C86.7319 78.8982 86.7116 78.8575 86.7116 78.538C86.7116 78.1846 86.7048 78.1778 86.3855 77.9739C86.0255 77.7428 85.9372 77.4981 86.141 77.2942C86.304 77.1378 86.7931 77.1922 87.0784 77.4029C87.2618 77.5457 87.3841 77.5661 87.9479 77.5864C88.5388 77.6068 88.6136 77.6 88.7426 77.4709C88.8989 77.3146 88.9396 76.8796 88.8106 76.8388C88.7698 76.8252 88.7019 76.5533 88.6611 76.2271C88.6 75.7173 88.6068 75.6018 88.7087 75.3299C88.8513 74.9561 89.0075 74.8949 89.4559 75.0444C89.9314 75.2075 89.8838 75.2143 91.2967 74.7725C91.5956 74.6842 91.9149 74.6094 91.9964 74.6094C92.3564 74.6094 92.5534 74.3987 92.9746 73.5559C93.484 72.5296 93.484 72.5432 92.7572 71.5916C92.6349 71.4285 92.5534 71.245 92.5534 71.1158C92.5534 71.0003 92.4991 70.7488 92.4312 70.5653L92.3089 70.2254L91.9896 70.2458C91.5753 70.273 91.3239 70.1303 91.1337 69.77C91.0046 69.5321 90.9911 69.4438 91.0522 69.2875C91.1473 69.0428 91.2628 69.0564 91.5549 69.335C91.7383 69.505 91.8741 69.5661 92.1391 69.6001C92.5059 69.6409 92.8183 69.7836 93.1172 70.0283C93.355 70.2322 93.484 70.2322 93.878 70.0419L94.1905 69.8924L94.4758 70.0419C94.8358 70.2322 94.8698 70.2322 95.0736 70.0147C95.1619 69.9196 95.3317 69.7904 95.4404 69.7361C95.8412 69.5321 96.0178 69.3078 96.0178 68.9952C96.0178 68.7437 96.0585 68.6621 96.2827 68.4446C96.6156 68.1048 96.7175 67.9077 96.9348 67.1261C97.1386 66.3988 97.1794 66.3376 97.4715 66.2628C97.6141 66.2289 97.716 66.1337 97.7839 65.9978C97.8383 65.8822 97.9673 65.7191 98.0692 65.6375C98.1915 65.5492 98.2662 65.4064 98.2934 65.2433C98.4564 64.2238 98.667 63.6936 99.2716 62.7896C99.9237 61.8109 99.9101 61.8517 99.8558 61.0225C99.815 60.4447 99.7742 60.2476 99.6452 60.0233C99.4414 59.6767 99.4278 59.2077 99.6112 58.8543C99.7471 58.5892 100.1 58.2357 100.637 57.8279C100.807 57.6988 101.024 57.4813 101.126 57.3386C101.364 57.0123 101.622 56.8764 102.159 56.8084C102.566 56.7608 102.62 56.7336 103.042 56.3462C103.714 55.7345 103.843 55.6801 104.835 55.6665C105.297 55.6665 105.738 55.6393 105.82 55.6189C105.901 55.5986 106.058 55.4422 106.16 55.2723C106.268 55.1024 106.526 54.8169 106.73 54.6402L107.104 54.3139L107.124 53.8042C107.138 53.5255 107.151 53.2604 107.151 53.2196C107.158 53.1721 107.26 53.0905 107.382 53.0429C107.702 52.907 107.803 52.7507 107.783 52.3972C107.769 52.0506 107.824 51.9622 108.197 51.7243C108.544 51.5068 108.591 51.3437 108.476 50.8475C108.428 50.63 108.381 50.2698 108.381 50.0523C108.381 49.6921 108.401 49.6377 108.625 49.4202C108.775 49.2639 108.85 49.1347 108.822 49.0668C108.639 48.5774 108.639 48.1152 108.836 47.9521C109.019 47.8025 109.06 47.5782 108.958 47.2384C108.911 47.0617 108.843 46.6675 108.822 46.3684C108.795 46.0693 108.727 45.7023 108.68 45.5528C108.557 45.1993 108.564 45.0838 108.693 44.8255C108.788 44.6352 108.788 44.5944 108.693 44.3361C108.632 44.1866 108.605 43.9827 108.632 43.8875C108.686 43.6428 108.979 43.3574 109.257 43.269C109.529 43.1807 109.739 43.0243 109.739 42.902C109.739 42.8612 109.828 42.7049 109.936 42.5553C110.045 42.4126 110.154 42.2223 110.174 42.1407C110.201 42.0524 110.358 41.6921 110.527 41.3387C110.785 40.7814 110.853 40.693 110.989 40.693C111.118 40.693 111.227 40.5843 111.478 40.2104C111.655 39.9386 111.988 39.5103 112.212 39.2453L112.62 38.7695L112.667 38.083C112.694 37.6548 112.762 37.247 112.857 36.9955C113.041 36.4789 113.041 36.4246 112.796 35.7313C112.688 35.4118 112.592 35.0244 112.592 34.8613C112.592 34.603 112.552 34.5214 112.26 34.2156L111.92 33.8621L111.254 33.8418C110.609 33.8214 110.582 33.8146 110.405 33.6107C110.303 33.4951 110.154 33.3932 110.065 33.3864C109.977 33.3796 109.889 33.366 109.868 33.3592C109.848 33.3592 109.651 33.1145 109.434 32.8222C109.053 32.3125 108.394 31.7347 107.926 31.49C107.803 31.4289 107.654 31.2861 107.6 31.1774C107.471 30.9259 107.267 30.9123 106.581 31.1094C106.323 31.1842 105.99 31.2453 105.84 31.2453C105.575 31.2453 104.522 30.9259 104.128 30.722C103.857 30.5793 103.449 30.6336 102.994 30.8647C102.627 31.0618 102.519 31.0482 102.702 30.8443C102.919 30.6064 102.858 30.3414 102.505 29.9335C102.315 29.7093 102.104 29.5325 101.996 29.5121C101.894 29.4918 101.731 29.383 101.629 29.2675C101.486 29.1043 101.398 29.0703 101.153 29.0703C100.922 29.0703 100.8 29.0228 100.637 28.8868C100.433 28.7169 100.223 28.6557 99.5025 28.5538C99.0202 28.479 98.898 28.547 98.6806 29.016C98.4361 29.5189 97.7432 30.1578 97.4307 30.1578C97.2677 30.1578 97.2405 30.1307 97.2405 29.9675C97.2405 29.7296 97.3492 29.6141 97.5802 29.6141C97.8315 29.6141 98.0013 29.4714 98.1779 29.1111C98.2594 28.9412 98.3953 28.6557 98.4768 28.4858C98.6806 28.0712 98.6059 27.9625 98.0828 27.9081C97.8655 27.8809 97.3424 27.8605 96.9212 27.8537C96.3167 27.8469 96.1401 27.8673 96.0585 27.9557C95.9431 28.0644 95.9431 28.0848 95.9227 28.7645C95.9159 29.1723 95.9159 29.1723 95.7053 29.1927C95.583 29.2063 95.3725 29.315 95.2162 29.451C94.9989 29.6345 94.8834 29.6821 94.6524 29.6821H94.3603L94.8834 29.1791C95.1687 28.9004 95.4064 28.6285 95.4064 28.5606C95.4064 28.4994 95.4812 28.2887 95.5763 28.0916C95.6985 27.8333 95.8208 27.6974 96.011 27.5886C96.2012 27.4799 96.3031 27.3643 96.3574 27.1944C96.405 27.0585 96.5273 26.8546 96.6291 26.739C96.8805 26.44 97.0503 26.1001 97.0231 25.9234C97.0095 25.8078 96.9077 25.7467 96.5748 25.6379C96.3371 25.5564 96.1197 25.4476 96.0857 25.4C96.0585 25.3457 96.0178 25.0602 95.9974 24.7679C95.9634 24.3261 95.9295 24.197 95.7665 23.9863C95.6102 23.7756 95.5695 23.6464 95.5423 23.2318L95.5083 22.7221L95.2842 22.6677C95.0872 22.6133 95.026 22.5453 94.8426 22.1511C94.5981 21.621 94.5573 21.5802 94.2924 21.6278C94.1497 21.655 94.0479 21.6142 93.8984 21.4918C93.7693 21.3831 93.6131 21.3219 93.4705 21.3219C93.2938 21.3219 93.2055 21.2743 93.0901 21.1112C92.8795 20.8121 92.4108 20.615 92.0508 20.6694C91.8673 20.6966 91.6636 20.6762 91.4734 20.6082C91.1201 20.4859 90.6922 20.4791 90.1759 20.5878C89.6936 20.683 89.4423 20.6082 89.2453 20.2956C89.1638 20.1664 88.9328 19.9014 88.7358 19.7111C88.4505 19.4256 88.3283 19.3508 88.1584 19.3508C87.8528 19.3508 87.6626 19.1469 87.6626 18.8207C87.6626 18.3517 87.0784 17.638 86.4127 17.2982C86.1817 17.1758 86.1138 17.169 85.876 17.2438C85.3462 17.4001 84.9794 17.0603 85.3054 16.7136C85.8285 16.1427 85.353 15.6125 84.3069 15.6125C83.7702 15.6125 83.7227 15.5785 83.7227 15.2387C83.7227 15.0212 83.8925 14.8649 84.1303 14.8649C84.4563 14.8649 84.4563 14.7221 84.1303 14.5046C83.8993 14.3415 83.6004 14.3619 83.254 14.559C83.0638 14.6678 82.8532 14.7289 82.663 14.7289C82.4864 14.7289 82.2758 14.7833 82.1467 14.8649C82.0245 14.9396 81.8682 15.0008 81.8003 15.0008C81.7324 15.0008 81.6169 15.1028 81.5422 15.2319C81.4675 15.361 81.3656 15.4766 81.318 15.497C81.2093 15.5378 80.7746 15.3475 80.2447 15.028L79.844 14.7833L79.1171 14.8241C78.7163 14.8513 78.268 14.8853 78.1118 14.9057C77.7721 14.9532 77.6091 14.8173 77.6091 14.4911C77.6091 14.3483 77.548 14.192 77.4529 14.0764C77.3034 13.9065 77.2491 13.8929 76.7872 13.8861L76.2845 13.8793L76.3049 13.5259C76.332 13.1385 76.2777 13.0773 75.8362 12.9957C75.6596 12.9618 75.5712 12.9821 75.5033 13.0637C75.4286 13.1589 75.449 13.2064 75.6731 13.4443C75.9177 13.689 75.9313 13.7162 75.8294 13.8182C75.775 13.8793 75.5441 13.9473 75.3199 13.9745C74.8648 14.0289 74.5659 14.2056 74.3485 14.559C74.1515 14.8853 73.9749 14.8785 74.0293 14.5522C74.0632 14.3687 74.0361 14.2803 73.9342 14.1784C73.8662 14.1104 73.8051 14.0085 73.8051 13.9609C73.8051 13.8453 73.9953 13.6686 74.1855 13.6143C74.4368 13.5395 74.6882 13.254 74.6882 13.0433C74.6882 12.7171 74.5387 12.6423 74.0428 12.751Z" fill="white"/>
<path d="M84.6736 13.1248C84.6736 13.2675 84.8162 13.3355 84.8774 13.2267C84.9113 13.1792 84.9181 13.1112 84.9045 13.084C84.8434 12.9889 84.6736 13.0228 84.6736 13.1248Z" fill="white"/>
<path d="M84.993 14.6066C84.8163 14.6677 84.8028 14.7017 84.8367 14.9056C84.8775 15.0891 84.8571 15.1435 84.7416 15.2047C84.6261 15.2659 84.6126 15.2998 84.6805 15.3814C84.8028 15.5309 85.1764 15.4766 85.2035 15.3066C85.2239 15.2319 85.2918 15.1163 85.3598 15.0484C85.516 14.8988 85.5296 14.6202 85.3802 14.5658C85.2511 14.5182 85.2307 14.5182 84.993 14.6066Z" fill="white"/>
<path d="M52.109 27.6837C51.9732 27.8197 51.9732 27.8129 52.1498 28.1323C52.2856 28.377 52.2924 28.411 52.1905 28.4654C52.1362 28.4994 52.0615 28.6013 52.0411 28.6965C51.912 29.2198 52.5438 29.3082 52.8087 28.812C52.9377 28.5741 52.8426 28.0236 52.6321 27.7789C52.4419 27.5546 52.2653 27.5206 52.109 27.6837Z" fill="white"/>
<path d="M53.2907 28.5605C53.216 28.6556 53.2228 28.6896 53.3383 28.812C53.4266 28.9003 53.5285 28.9343 53.5964 28.9071C53.739 28.8527 53.7051 28.6692 53.5217 28.5469C53.3994 28.4653 53.3654 28.4721 53.2907 28.5605Z" fill="white"/>
<path d="M54.2822 28.7032C54.2143 28.88 54.2347 28.9343 54.3638 28.9343C54.5064 28.9343 54.6491 28.812 54.6491 28.6828C54.6491 28.5537 54.3298 28.5741 54.2822 28.7032Z" fill="white"/>
<path d="M77.8128 78.6875C77.643 78.8574 77.643 78.8982 77.8196 79.2516C77.9487 79.4963 77.9555 79.5778 77.9011 79.8905C77.8672 80.0876 77.8536 80.2779 77.8739 80.3119C77.8943 80.3459 78.0845 80.3867 78.2883 80.4003L78.6619 80.4207L78.6823 79.9992C78.6959 79.7138 78.6687 79.5099 78.594 79.3739C78.5396 79.2584 78.4921 79.1089 78.4921 79.0273C78.4921 78.8642 78.2068 78.5515 78.0506 78.5515C77.9962 78.5515 77.8875 78.6127 77.8128 78.6875Z" fill="white"/>
<path d="M87.7102 78.871C87.6898 78.8982 87.6762 79.0545 87.6762 79.2177C87.6694 79.4691 87.6966 79.5167 87.8664 79.6051C87.9751 79.6595 88.1381 79.707 88.24 79.707C88.3827 79.707 88.4099 79.673 88.4099 79.5099C88.4099 79.4012 88.3691 79.2992 88.3283 79.2788C88.2808 79.2652 88.24 79.1633 88.24 79.0545C88.24 78.8778 88.2129 78.8574 87.9887 78.837C87.8528 78.8234 87.7306 78.8438 87.7102 78.871Z" fill="white"/>
<path d="M79.5927 81.7393C79.4568 81.8209 79.6131 82.1675 79.7693 82.1403C79.9323 82.1063 79.9595 81.8413 79.8033 81.7529C79.7285 81.7189 79.6334 81.7121 79.5927 81.7393Z" fill="white"/>
<path d="M78.7638 82.2355C78.5057 82.6637 78.6348 82.854 79.151 82.82C79.4431 82.7996 79.4771 82.786 79.4975 82.6229C79.5246 82.4054 79.219 82.018 79.0288 82.018C78.954 82.018 78.8386 82.1131 78.7638 82.2355Z" fill="white"/>
<path d="M79.0017 83.6084C78.9473 83.69 78.7436 83.8463 78.5534 83.9483C78.37 84.0502 78.2273 84.1726 78.2409 84.2133C78.2545 84.2609 78.4311 84.3017 78.6688 84.3085C78.8862 84.3153 79.2123 84.3357 79.3821 84.3629C79.6266 84.3968 79.7149 84.3833 79.81 84.2881C79.9663 84.1318 79.9051 83.8735 79.6402 83.6288C79.3957 83.3977 79.1443 83.3909 79.0017 83.6084Z" fill="white"/>
<path d="M79.1238 86.0009C79.0016 86.0553 78.8997 86.1097 78.8997 86.1233C78.8997 86.1369 79.0423 86.232 79.2189 86.3272C79.5789 86.5311 79.6673 86.4971 79.6333 86.1573C79.6061 85.8854 79.4703 85.8446 79.1238 86.0009Z" fill="white"/>
<path d="M79.2393 86.8981C79.1238 86.9389 79.1646 87.0884 79.348 87.2583C79.4906 87.3875 79.511 87.4623 79.477 87.639C79.4431 87.8361 79.4567 87.8701 79.6129 87.9312C79.8031 88.006 80.1224 88.0264 80.1224 87.9652C80.1224 87.9448 80.0816 87.8565 80.0273 87.7749C79.9186 87.605 79.9865 87.3399 80.1563 87.2787C80.2786 87.2312 80.2922 87.0069 80.1767 86.9321C80.0884 86.8845 79.3751 86.8573 79.2393 86.8981Z" fill="white"/>
<path d="M94.999 89.882C94.768 89.9227 94.6797 90.0247 94.8155 90.0791C94.9786 90.1402 94.9582 90.249 94.7476 90.4189L94.5642 90.5616L94.7272 90.65C94.8699 90.7248 94.9039 90.7112 95.2095 90.3713C95.3861 90.1674 95.5288 89.9703 95.5152 89.9363C95.4948 89.8616 95.2503 89.8344 94.999 89.882Z" fill="white"/>
<path d="M95.8343 90.1199C95.5694 90.4053 95.6034 90.65 95.909 90.65C96.1332 90.65 96.3574 90.5073 96.3574 90.3714C96.3574 90.3374 96.4253 90.3102 96.5136 90.3102C96.6766 90.3102 96.9619 90.1403 96.9008 90.0859C96.8804 90.0655 96.6698 90.0315 96.4253 90.0043C96.0177 89.9635 95.9702 89.9703 95.8343 90.1199Z" fill="white"/>
<path d="M81.0327 90.2694C80.9783 90.4189 81.0259 90.6704 81.121 90.7044C81.2229 90.7315 81.3655 90.3985 81.318 90.2626C81.2704 90.147 81.0802 90.147 81.0327 90.2694Z" fill="white"/>
<path d="M86.7388 91.4521C86.6233 91.5268 86.5078 91.7783 86.5078 91.9686C86.5078 92.2133 86.7659 92.3764 87.0105 92.2813C87.1124 92.2473 87.2414 92.2133 87.2958 92.2133C87.452 92.2133 87.4045 92.4648 87.2143 92.5803C87.092 92.6687 87.0512 92.7435 87.0648 92.8794C87.0852 93.0629 87.126 93.0833 87.683 93.1989C87.7917 93.2193 87.8664 93.2736 87.846 93.3212C87.8052 93.4435 87.289 93.4571 87.0376 93.3416C86.9154 93.2872 86.5757 93.226 86.2904 93.2057C85.8217 93.1649 85.7674 93.1717 85.7334 93.2872C85.6655 93.4979 85.7606 93.6407 85.9644 93.6407C86.0663 93.6407 86.2836 93.6882 86.4467 93.7494C86.6097 93.8038 87.0173 93.8582 87.3433 93.8718C87.683 93.8853 87.9751 93.9261 88.0158 93.9669C88.1109 94.0621 88.3555 94.0757 88.4506 93.9873C88.5389 93.8921 89.3336 93.7494 89.7344 93.7494C89.9382 93.7562 90.1692 93.8038 90.3118 93.8853C90.4884 93.9737 90.6922 94.0077 91.0794 94.0145C91.6364 94.0145 91.7587 93.9533 91.7247 93.6746C91.7044 93.5659 91.6636 93.5455 91.4734 93.5591C91.3443 93.5659 91.1949 93.5319 91.1338 93.4843C91.0726 93.43 90.8756 93.3688 90.699 93.3416C90.2031 93.2804 89.4152 92.8862 89.0008 92.492C88.797 92.3017 88.5728 92.1453 88.4981 92.1453C88.3147 92.1453 88.1856 91.9822 88.24 91.8123C88.2672 91.7239 88.2332 91.6288 88.1449 91.5404C88.0226 91.4181 87.9207 91.3977 87.4113 91.3977C87.0784 91.3977 86.7795 91.4249 86.7388 91.4521Z" fill="white"/>
<path d="M82.0721 91.5133C82.0109 91.6084 82.2079 91.8599 82.4253 91.9686C82.6223 92.0774 83.4239 92.0434 83.4918 91.9279C83.5122 91.9007 83.3491 91.7919 83.1386 91.69C82.7242 91.4997 82.14 91.4045 82.0721 91.5133Z" fill="white"/>
<path d="M86.0729 92.1385C85.9303 92.2948 85.9778 92.5259 86.168 92.5871C86.3514 92.6415 86.4397 92.5735 86.4397 92.3832C86.4397 92.0094 86.2835 91.9074 86.0729 92.1385Z" fill="white"/>
<path d="M83.5867 92.39C83.4509 92.5464 83.6003 92.8114 83.8381 92.8386C83.9603 92.8522 84.0283 92.8998 84.0283 92.9746C84.0283 93.1513 84.1641 93.2532 84.3272 93.1989C84.5445 93.1309 84.5174 92.8386 84.2864 92.7503C84.1845 92.7163 84.0622 92.6211 84.0147 92.5532C83.8652 92.3357 83.6818 92.2677 83.5867 92.39Z" fill="white"/>
<path d="M89.089 93.9941C88.9599 94.0281 88.8105 94.0961 88.7629 94.1368C88.7154 94.1708 88.5659 94.2252 88.4368 94.2456C88.2059 94.2864 88.2059 94.2932 88.3078 94.4359C88.3757 94.5379 88.4844 94.5922 88.6067 94.5922C88.7154 94.5922 88.9123 94.6398 89.0414 94.6942C89.1773 94.7486 89.3675 94.7961 89.4558 94.7961C89.612 94.7961 89.6256 94.7758 89.5916 94.599L89.5509 94.4019L89.9109 94.4155C90.2437 94.4223 90.2777 94.4087 90.2981 94.266C90.3388 94.0009 90.203 93.9125 89.7411 93.9193C89.5169 93.9193 89.218 93.9533 89.089 93.9941Z" fill="white"/>
<path d="M90.7532 94.5242C90.3389 94.6126 90.1079 94.7145 90.1079 94.8233C90.1079 94.9728 90.3049 95.0068 90.8687 94.9592C91.4189 94.9116 91.5276 94.8369 91.3986 94.5854C91.3238 94.4494 91.1948 94.4358 90.7532 94.5242Z" fill="white"/>
</g>
<path d="M143.667 96L155.333 96C156.254 96 157 95.2965 157 94.4286L157 89.5795C157 89.1627 156.824 88.763 156.512 88.4683L153.321 85.4603C153.009 85.1656 152.585 85 152.143 85L143.667 85C142.746 85 142 85.7014 142 86.5692L142 94.4292C142 95.2971 142.746 96 143.667 96Z" fill="white"/>
<path d="M146.352 90.848C146.352 90.912 146.348 90.9787 146.34 91.048H144.792C144.803 91.1867 144.847 91.2933 144.924 91.368C145.004 91.44 145.101 91.476 145.216 91.476C145.387 91.476 145.505 91.404 145.572 91.26H146.3C146.263 91.4067 146.195 91.5387 146.096 91.656C146 91.7733 145.879 91.8653 145.732 91.932C145.585 91.9987 145.421 92.032 145.24 92.032C145.021 92.032 144.827 91.9853 144.656 91.892C144.485 91.7987 144.352 91.6653 144.256 91.492C144.16 91.3187 144.112 91.116 144.112 90.884C144.112 90.652 144.159 90.4493 144.252 90.276C144.348 90.1027 144.481 89.9693 144.652 89.876C144.823 89.7827 145.019 89.736 145.24 89.736C145.456 89.736 145.648 89.7813 145.816 89.872C145.984 89.9627 146.115 90.092 146.208 90.26C146.304 90.428 146.352 90.624 146.352 90.848ZM145.652 90.668C145.652 90.5507 145.612 90.4573 145.532 90.388C145.452 90.3187 145.352 90.284 145.232 90.284C145.117 90.284 145.02 90.3173 144.94 90.384C144.863 90.4507 144.815 90.5453 144.796 90.668H145.652ZM147.729 92.028C147.524 92.028 147.34 91.9947 147.177 91.928C147.014 91.8613 146.884 91.7627 146.785 91.632C146.689 91.5013 146.638 91.344 146.633 91.16H147.361C147.372 91.264 147.408 91.344 147.469 91.4C147.53 91.4533 147.61 91.48 147.709 91.48C147.81 91.48 147.89 91.4573 147.949 91.412C148.008 91.364 148.037 91.2987 148.037 91.216C148.037 91.1467 148.013 91.0893 147.965 91.044C147.92 90.9987 147.862 90.9613 147.793 90.932C147.726 90.9027 147.63 90.8693 147.505 90.832C147.324 90.776 147.176 90.72 147.061 90.664C146.946 90.608 146.848 90.5253 146.765 90.416C146.682 90.3067 146.641 90.164 146.641 89.988C146.641 89.7267 146.736 89.5227 146.925 89.376C147.114 89.2267 147.361 89.152 147.665 89.152C147.974 89.152 148.224 89.2267 148.413 89.376C148.602 89.5227 148.704 89.728 148.717 89.992H147.977C147.972 89.9013 147.938 89.8307 147.877 89.78C147.816 89.7267 147.737 89.7 147.641 89.7C147.558 89.7 147.492 89.7227 147.441 89.768C147.39 89.8107 147.365 89.8733 147.365 89.956C147.365 90.0467 147.408 90.1173 147.493 90.168C147.578 90.2187 147.712 90.2733 147.893 90.332C148.074 90.3933 148.221 90.452 148.333 90.508C148.448 90.564 148.546 90.6453 148.629 90.752C148.712 90.8587 148.753 90.996 148.753 91.164C148.753 91.324 148.712 91.4693 148.629 91.6C148.549 91.7307 148.432 91.8347 148.277 91.912C148.122 91.9893 147.94 92.028 147.729 92.028ZM149.858 89.192V92H149.174V89.192H149.858ZM153.533 89.192V92H152.849V90.316L152.221 92H151.669L151.037 90.312V92H150.353V89.192H151.161L151.949 91.136L152.729 89.192H153.533Z" fill="url(#paint1_linear_1246_3919)"/>
</g>
<defs>
<linearGradient id="paint0_linear_1246_3919" x1="0" y1="0" x2="92.535" y2="148.236" gradientUnits="userSpaceOnUse">
<stop stop-color="#E47BDF"/>
<stop offset="1" stop-color="#EF7271"/>
</linearGradient>
<linearGradient id="paint1_linear_1246_3919" x1="144" y1="91" x2="154" y2="91" gradientUnits="userSpaceOnUse">
<stop stop-color="#E47BDC"/>
<stop offset="1" stop-color="#EE7275"/>
</linearGradient>
<clipPath id="clip0_1246_3919">
<rect width="165" height="103" fill="white"/>
</clipPath>
<clipPath id="clip1_1246_3919">
<rect width="61" height="87" fill="white" transform="translate(52 8)"/>
</clipPath>
</defs>
</svg>
