<svg width="177" height="131" viewBox="0 0 177 131" fill="none" xmlns="http://www.w3.org/2000/svg">
<g clip-path="url(#clip0_298_97)">
<g opacity="0.1">
<path opacity="0.1" d="M141.726 92.2946C141.726 92.2946 129.09 90.666 138.513 110.965C138.513 110.965 147.101 107.312 147.443 99.0731C147.513 97.4697 146.987 95.8967 145.967 94.6521C144.946 93.4075 143.501 92.5778 141.905 92.3202L141.726 92.2946Z" fill="#FF8000"/>
<path opacity="0.1" d="M141.91 92.2643C141.91 92.2643 144.771 103.583 138.522 110.967" stroke="#535461" stroke-miterlimit="10"/>
<path opacity="0.1" d="M138.352 112.012C138.352 112.012 142.901 100.883 151.397 96.7544C154.975 95.0454 157.896 92.2301 159.724 88.7316C160.578 87.0653 161.276 85.3248 161.81 83.532" stroke="#535461" stroke-width="2" stroke-miterlimit="10"/>
<path opacity="0.1" d="M167.148 80.9009C166.262 82.0059 161.678 83.6232 161.678 83.6232C161.678 83.6232 162.23 78.8192 163.116 77.7222C163.318 77.4359 163.577 77.1936 163.877 77.0103C164.177 76.827 164.511 76.7066 164.86 76.6564C165.208 76.6062 165.564 76.6274 165.904 76.7186C166.244 76.8098 166.561 76.9691 166.837 77.1866C167.113 77.4042 167.341 77.6755 167.507 77.9838C167.673 78.2921 167.774 78.6308 167.803 78.9792C167.832 79.3276 167.789 79.6782 167.677 80.0095C167.564 80.3409 167.385 80.6459 167.149 80.9057L167.148 80.9009Z" fill="#FF8000"/>
<path opacity="0.1" d="M165.576 89.6523C164.227 90.1023 159.497 88.983 159.497 88.983C159.497 88.983 162.586 85.255 163.935 84.805C164.262 84.6721 164.612 84.6072 164.965 84.6142C165.318 84.6211 165.666 84.6999 165.987 84.8457C166.308 84.9914 166.596 85.201 166.832 85.4614C167.068 85.7218 167.248 86.0276 167.361 86.3598C167.473 86.692 167.516 87.0436 167.486 87.3928C167.456 87.742 167.354 88.0814 167.187 88.39C167.02 88.6986 166.79 88.9698 166.513 89.187C166.236 89.4041 165.917 89.5625 165.576 89.6523Z" fill="#FF8000"/>
<path opacity="0.1" d="M157.048 99.9987C155.656 99.712 152.14 96.3748 152.14 96.3748C152.14 96.3748 156.703 94.7046 158.097 94.9912C158.727 95.1657 159.268 95.5716 159.608 96.1267C159.949 96.6818 160.064 97.3446 159.931 97.9809C159.798 98.6172 159.426 99.1795 158.89 99.5538C158.355 99.9282 157.696 100.087 157.048 99.9971V99.9987Z" fill="#FF8000"/>
<path opacity="0.1" d="M148.82 106.385C147.399 106.335 143.365 103.637 143.365 103.637C143.365 103.637 147.579 101.222 149.001 101.273C149.652 101.339 150.254 101.648 150.685 102.138C151.115 102.628 151.342 103.263 151.319 103.912C151.296 104.562 151.025 105.179 150.561 105.638C150.097 106.096 149.475 106.363 148.82 106.383V106.385Z" fill="#FF8000"/>
<path opacity="0.1" d="M155.091 85.8491C155.273 87.2503 158.353 90.9846 158.353 90.9846C158.353 90.9846 160.381 86.5969 160.2 85.1957C160.178 84.8458 160.084 84.5042 159.923 84.192C159.763 83.8797 159.54 83.6035 159.267 83.3803C158.995 83.1572 158.679 82.9919 158.34 82.8947C158 82.7976 157.645 82.7705 157.294 82.8153C156.944 82.8601 156.607 82.9758 156.303 83.1552C156 83.3345 155.737 83.5738 155.53 83.8582C155.324 84.1426 155.178 84.466 155.103 84.8084C155.027 85.1509 155.023 85.505 155.091 85.8491Z" fill="#FF8000"/>
<path opacity="0.1" d="M145.564 93.4459C146.16 94.727 150.225 97.3772 150.225 97.3772C150.225 97.3772 150.838 92.5876 150.243 91.3065C150.116 90.9795 149.923 90.6819 149.676 90.4319C149.429 90.1819 149.132 89.985 148.805 89.8532C148.478 89.7214 148.127 89.6576 147.774 89.6657C147.421 89.6739 147.074 89.7537 146.753 89.9004C146.433 90.0471 146.146 90.2575 145.911 90.5186C145.675 90.7797 145.496 91.0859 145.385 91.4183C145.273 91.7508 145.232 92.1024 145.263 92.4514C145.294 92.8004 145.396 93.1394 145.564 93.4475V93.4459Z" fill="#FF8000"/>
<path opacity="0.1" d="M137.323 102.084C137.691 103.448 141.248 106.74 141.248 106.74C141.248 106.74 142.668 102.124 142.298 100.759C142.23 100.415 142.091 100.089 141.89 99.8004C141.689 99.5118 141.43 99.2673 141.13 99.082C140.83 98.8967 140.495 98.7745 140.145 98.7231C139.796 98.6716 139.439 98.6919 139.098 98.7827C138.756 98.8736 138.437 99.0331 138.161 99.2512C137.884 99.4694 137.655 99.7417 137.489 100.051C137.323 100.361 137.222 100.701 137.193 101.05C137.165 101.4 137.209 101.752 137.323 102.084Z" fill="#FF8000"/>
<path opacity="0.25" d="M167.148 80.9009C166.262 82.0059 161.678 83.6232 161.678 83.6232C161.678 83.6232 162.23 78.8192 163.116 77.7222C163.318 77.4359 163.577 77.1936 163.877 77.0103C164.177 76.827 164.511 76.7066 164.86 76.6564C165.208 76.6062 165.564 76.6274 165.904 76.7186C166.244 76.8098 166.561 76.9691 166.837 77.1866C167.113 77.4042 167.341 77.6755 167.507 77.9838C167.673 78.2921 167.774 78.6308 167.803 78.9792C167.832 79.3276 167.789 79.6782 167.677 80.0095C167.564 80.3409 167.385 80.6459 167.149 80.9057L167.148 80.9009Z" fill="black"/>
<path opacity="0.25" d="M165.576 89.6523C164.227 90.1023 159.497 88.983 159.497 88.983C159.497 88.983 162.586 85.255 163.935 84.805C164.262 84.6721 164.612 84.6072 164.965 84.6142C165.318 84.6211 165.666 84.6999 165.987 84.8457C166.308 84.9914 166.596 85.201 166.832 85.4614C167.068 85.7218 167.248 86.0276 167.361 86.3598C167.473 86.692 167.516 87.0436 167.486 87.3928C167.456 87.742 167.354 88.0814 167.187 88.39C167.02 88.6986 166.79 88.9698 166.513 89.187C166.236 89.4041 165.917 89.5625 165.576 89.6523Z" fill="black"/>
<path opacity="0.25" d="M157.048 99.9987C155.656 99.712 152.14 96.3748 152.14 96.3748C152.14 96.3748 156.703 94.7046 158.097 94.9912C158.727 95.1657 159.268 95.5716 159.608 96.1267C159.949 96.6818 160.064 97.3446 159.931 97.9809C159.798 98.6172 159.426 99.1795 158.89 99.5538C158.355 99.9282 157.696 100.087 157.048 99.9971V99.9987Z" fill="black"/>
<path opacity="0.25" d="M148.82 106.385C147.399 106.335 143.365 103.637 143.365 103.637C143.365 103.637 147.579 101.222 149.001 101.273C149.652 101.339 150.254 101.648 150.685 102.138C151.115 102.628 151.342 103.263 151.319 103.912C151.296 104.562 151.025 105.179 150.561 105.638C150.097 106.096 149.475 106.363 148.82 106.383V106.385Z" fill="black"/>
<path opacity="0.25" d="M155.091 85.8491C155.273 87.2503 158.353 90.9846 158.353 90.9846C158.353 90.9846 160.381 86.5969 160.2 85.1957C160.178 84.8458 160.084 84.5042 159.923 84.192C159.763 83.8797 159.54 83.6035 159.267 83.3803C158.995 83.1572 158.679 82.9919 158.34 82.8947C158 82.7976 157.645 82.7705 157.294 82.8153C156.944 82.8601 156.607 82.9758 156.303 83.1552C156 83.3345 155.737 83.5738 155.53 83.8582C155.324 84.1426 155.178 84.466 155.103 84.8084C155.027 85.1509 155.023 85.505 155.091 85.8491Z" fill="black"/>
<path opacity="0.25" d="M145.564 93.4459C146.16 94.727 150.225 97.3772 150.225 97.3772C150.225 97.3772 150.838 92.5876 150.243 91.3065C150.116 90.9795 149.923 90.6819 149.676 90.4319C149.429 90.1819 149.132 89.985 148.805 89.8532C148.478 89.7214 148.127 89.6576 147.774 89.6657C147.421 89.6739 147.074 89.7537 146.753 89.9004C146.433 90.0471 146.146 90.2575 145.911 90.5186C145.675 90.7797 145.496 91.0859 145.385 91.4183C145.273 91.7508 145.232 92.1024 145.263 92.4514C145.294 92.8004 145.396 93.1394 145.564 93.4475V93.4459Z" fill="black"/>
<path opacity="0.25" d="M137.323 102.084C137.691 103.448 141.248 106.74 141.248 106.74C141.248 106.74 142.668 102.124 142.298 100.759C142.23 100.415 142.091 100.089 141.89 99.8004C141.689 99.5118 141.43 99.2673 141.13 99.082C140.83 98.8967 140.495 98.7745 140.145 98.7231C139.796 98.6716 139.439 98.6919 139.098 98.7827C138.756 98.8736 138.437 99.0331 138.161 99.2512C137.884 99.4694 137.655 99.7417 137.489 100.051C137.323 100.361 137.222 100.701 137.193 101.05C137.165 101.4 137.209 101.752 137.323 102.084Z" fill="black"/>
<path opacity="0.1" d="M144.412 117.076C144.412 117.076 148.962 105.946 157.458 101.818C161.034 100.108 163.954 97.2919 165.78 93.7936C166.633 92.1273 167.332 90.3868 167.866 88.594" stroke="#535461" stroke-width="2" stroke-miterlimit="10"/>
<path opacity="0.1" d="M173.2 85.9613C172.315 87.0662 167.731 88.6836 167.731 88.6836C167.731 88.6836 168.283 83.8795 169.169 82.7826C169.608 82.2975 170.218 81.9972 170.873 81.9429C171.528 81.8887 172.18 82.0847 172.694 82.4908C173.209 82.897 173.548 83.4827 173.642 84.1286C173.737 84.7744 173.579 85.4316 173.202 85.9661L173.2 85.9613Z" fill="#FF8000"/>
<path opacity="0.1" d="M171.631 94.7125C170.282 95.1625 165.552 94.0431 165.552 94.0431C165.552 94.0431 168.641 90.3152 169.99 89.8652C170.624 89.6983 171.298 89.7771 171.875 90.0855C172.452 90.3939 172.89 90.9088 173.099 91.5257C173.307 92.1426 173.272 92.8153 172.999 93.4071C172.727 93.999 172.237 94.4657 171.631 94.7125Z" fill="#FF8000"/>
<path opacity="0.1" d="M163.103 105.066C161.711 104.779 158.195 101.442 158.195 101.442C158.195 101.442 162.758 99.7715 164.152 100.058C164.782 100.233 165.323 100.638 165.663 101.194C166.004 101.749 166.119 102.412 165.986 103.048C165.852 103.684 165.481 104.246 164.945 104.621C164.41 104.995 163.751 105.153 163.103 105.064V105.066Z" fill="#FF8000"/>
<path opacity="0.1" d="M154.872 111.444C153.451 111.394 149.417 108.696 149.417 108.696C149.417 108.696 153.631 106.284 155.053 106.334C155.704 106.4 156.307 106.709 156.737 107.199C157.168 107.689 157.394 108.323 157.371 108.973C157.348 109.622 157.077 110.239 156.613 110.698C156.149 111.157 155.527 111.423 154.872 111.444Z" fill="#FF8000"/>
<path opacity="0.1" d="M161.146 90.9158C161.328 92.317 164.408 96.0514 164.408 96.0514C164.408 96.0514 166.436 91.6637 166.255 90.2625C166.233 89.9126 166.139 89.571 165.978 89.2587C165.818 88.9465 165.594 88.6702 165.322 88.4471C165.05 88.224 164.734 88.0587 164.395 87.9615C164.055 87.8643 163.699 87.8373 163.349 87.8821C162.999 87.9269 162.661 88.0425 162.358 88.2219C162.055 88.4013 161.791 88.6406 161.585 88.925C161.378 89.2093 161.233 89.5327 161.157 89.8752C161.082 90.2176 161.078 90.5718 161.146 90.9158Z" fill="#FF8000"/>
<path opacity="0.1" d="M151.617 98.4999C152.213 99.7809 156.278 102.431 156.278 102.431C156.278 102.431 156.891 97.6415 156.296 96.3604C155.984 95.788 155.464 95.3551 154.841 95.1496C154.219 94.9441 153.541 94.9814 152.946 95.2539C152.35 95.5265 151.881 96.0138 151.635 96.617C151.388 97.2202 151.382 97.894 151.617 98.5015V98.4999Z" fill="#FF8000"/>
<path opacity="0.1" d="M143.378 107.147C143.745 108.512 147.303 111.804 147.303 111.804C147.303 111.804 148.723 107.187 148.353 105.823C148.142 105.208 147.703 104.695 147.125 104.389C146.547 104.083 145.874 104.006 145.241 104.174C144.608 104.343 144.064 104.744 143.718 105.296C143.372 105.848 143.25 106.51 143.378 107.147Z" fill="#FF8000"/>
</g>
<path opacity="0.1" d="M1.91144 69.0459C4.7122 80.928 10.6412 91.1991 20.0115 96.1777C39.4846 106.524 83.4015 101.188 116.178 95.0568C132.739 91.9699 147.772 83.4414 158.856 70.8442L1.91144 69.0459Z" fill="url(#paint0_linear_298_97)"/>
<path opacity="0.1" d="M173.79 13.1169H155.806C155.394 13.1169 154.999 12.9544 154.707 12.665C154.416 12.3757 154.252 11.9832 154.252 11.574C154.252 11.1648 154.416 10.7724 154.707 10.483C154.999 10.1937 155.394 10.0311 155.806 10.0311H158.915C158.503 10.0311 158.107 9.86856 157.816 9.57921C157.524 9.28986 157.361 8.89741 157.361 8.4882C157.361 8.079 157.524 7.68655 157.816 7.3972C158.107 7.10785 158.503 6.94529 158.915 6.94529H156.695C156.283 6.94529 155.887 6.78274 155.596 6.49339C155.304 6.20403 155.141 5.81159 155.141 5.40238C155.141 4.99318 155.304 4.60073 155.596 4.31138C155.887 4.02203 156.283 3.85947 156.695 3.85947H166.082C163.999 2.89866 161.564 2.21488 158.76 1.85617C133.166 -1.4074 124.028 0.751234 120.805 2.97712C116.828 5.71545 112.391 7.72996 107.649 8.70039C91.8565 11.9303 62.3242 15.8216 35.5572 7.45132C22.2535 3.28779 12.3654 10.321 6.43954 22.0685H176.912C176.689 18.6544 176.023 15.503 174.8 12.7422C174.52 12.9834 174.161 13.1164 173.79 13.1169Z" fill="url(#paint1_linear_298_97)"/>
<path opacity="0.1" d="M0.38507 44.2457C-0.305359 51.1564 -0.0704565 58.1275 1.08365 64.9769L158.978 70.7082C163.374 65.6897 167.064 60.1036 169.949 54.1021L0.38507 44.2457ZM62.8344 59.0343H59.7255C60.1377 59.0343 60.5331 59.1968 60.8246 59.4862C61.1162 59.7755 61.2799 60.168 61.2799 60.5772C61.2799 60.9864 61.1162 61.3788 60.8246 61.6682C60.5331 61.9576 60.1377 62.1201 59.7255 62.1201H41.7415C41.3293 62.1201 40.9339 61.9576 40.6424 61.6682C40.3509 61.3788 40.1871 60.9864 40.1871 60.5772C40.1871 60.168 40.3509 59.7755 40.6424 59.4862C40.9339 59.1968 41.3293 59.0343 41.7415 59.0343H44.8505C44.4382 59.0343 44.0428 58.8717 43.7513 58.5824C43.4598 58.293 43.296 57.9006 43.296 57.4914C43.296 57.0822 43.4598 56.6897 43.7513 56.4004C44.0428 56.111 44.4382 55.9485 44.8505 55.9485H42.6305C42.2182 55.9485 41.8228 55.7859 41.5313 55.4966C41.2398 55.2072 41.076 54.8148 41.076 54.4056C41.076 53.9963 41.2398 53.6039 41.5313 53.3146C41.8228 53.0252 42.2182 52.8626 42.6305 52.8626H60.6144C61.0267 52.8626 61.4221 53.0252 61.7136 53.3146C62.0051 53.6039 62.1689 53.9963 62.1689 54.4056C62.1689 54.8148 62.0051 55.2072 61.7136 55.4966C61.4221 55.7859 61.0267 55.9485 60.6144 55.9485H62.8344C63.2467 55.9485 63.642 56.111 63.9336 56.4004C64.2251 56.6897 64.3889 57.0822 64.3889 57.4914C64.3889 57.9006 64.2251 58.293 63.9336 58.5824C63.642 58.8717 63.2467 59.0343 62.8344 59.0343Z" fill="url(#paint2_linear_298_97)"/>
<path opacity="0.1" d="M176.92 22.176L4.53573 26.3396C2.43999 31.6897 1.05736 37.738 0.412018 44.0074H173.9C175.032 40.3246 175.87 36.5588 176.405 32.745C176.922 29.0603 177.128 25.4956 176.92 22.176ZM35.4087 35.8148H32.2998C32.712 35.8148 33.1074 35.9774 33.3989 36.2667C33.6905 36.5561 33.8542 36.9485 33.8542 37.3577C33.8542 37.7669 33.6905 38.1594 33.3989 38.4487C33.1074 38.7381 32.712 38.9006 32.2998 38.9006H14.3158C13.9036 38.9006 13.5082 38.7381 13.2167 38.4487C12.9251 38.1594 12.7614 37.7669 12.7614 37.3577C12.7614 36.9485 12.9251 36.5561 13.2167 36.2667C13.5082 35.9774 13.9036 35.8148 14.3158 35.8148H17.4247C17.0125 35.8148 16.6171 35.6522 16.3256 35.3629C16.034 35.0735 15.8703 34.6811 15.8703 34.2719C15.8703 33.8627 16.034 33.4702 16.3256 33.1809C16.6171 32.8915 17.0125 32.729 17.4247 32.729H15.2048C14.7925 32.729 14.3971 32.5664 14.1056 32.2771C13.8141 31.9877 13.6503 31.5953 13.6503 31.1861C13.6503 30.7769 13.8141 30.3844 14.1056 30.0951C14.3971 29.8057 14.7925 29.6432 15.2048 29.6432H33.1887C33.601 29.6432 33.9964 29.8057 34.2879 30.0951C34.5794 30.3844 34.7432 30.7769 34.7432 31.1861C34.7432 31.5953 34.5794 31.9877 34.2879 32.2771C33.9964 32.5664 33.601 32.729 33.1887 32.729H35.4087C35.8209 32.729 36.2163 32.8915 36.5078 33.1809C36.7994 33.4702 36.9631 33.8627 36.9631 34.2719C36.9631 34.6811 36.7994 35.0735 36.5078 35.3629C36.2163 35.6522 35.8209 35.8148 35.4087 35.8148Z" fill="url(#paint3_linear_298_97)"/>
<path d="M151.443 130.111C151.443 130.111 144.254 90.9736 130.545 84.6226C118.929 79.2372 106.368 75.6069 102.796 74.6221C102.262 73.7693 101.646 72.9707 100.955 72.2377C96.0728 67.179 93.1397 67.2734 92.6654 67.3359C92.4403 66.3327 92.2786 65.3165 92.1814 64.2933C92.1669 64.1332 92.1523 63.9843 92.1394 63.8257L92.1814 63.8049C92.1523 63.5022 92.1265 63.19 92.1039 62.8681C94.0968 61.8124 95.9317 60.486 97.5554 58.9272C97.5764 58.996 97.5942 59.0649 97.6167 59.1353C101.135 56.1835 104.58 53.1516 107.953 50.0396C108.921 49.1412 109.938 48.166 110.267 46.8993C110.372 46.4634 110.413 46.0146 110.388 45.567C110.432 44.6062 110.202 43.6246 110.164 42.6509C110.164 42.4908 110.181 42.3419 110.202 42.1897C110.428 40.5964 111.545 39.2881 112.461 37.9509C114.751 34.5719 115.946 30.5793 115.886 26.5076C115.911 24.5566 115.639 22.6131 115.08 20.7427C114.365 18.3695 112.877 15.8762 110.401 15.3574C109.443 15.1572 108.447 15.2821 107.469 15.2196C103.422 14.9634 100.392 11.6966 97.1634 9.30261C93.2233 6.39488 88.5638 4.59981 83.6791 4.1078C82.1544 3.94766 80.5798 3.93645 79.1294 4.41686C75.8721 5.49297 73.8941 8.8158 70.7562 10.1818C68.4362 11.197 65.7548 11.0321 63.3348 11.7943C59.7322 12.9313 56.6749 16.5984 56.5942 20.3664C56.5942 20.5057 56.5942 20.645 56.5942 20.7844C56.5942 20.8084 56.5942 20.8324 56.5942 20.8548C56.5539 22.7588 57.2396 24.6981 57.2944 26.6469C57.2944 26.8231 57.2971 26.9998 57.3025 27.177C57.2847 29.2812 57.0314 31.3918 56.2587 33.3695C55.8424 34.4344 55.3068 35.6674 55.3939 36.7323C55.3455 37.3841 55.473 37.9958 55.9295 38.4938L56.7088 37.8116C56.4474 39.2156 56.3162 40.6403 56.3167 42.068C56.3167 49.2646 59.6144 55.7084 64.8158 60.0449C64.846 60.5242 64.875 61.0378 64.903 61.5854C65.0256 63.9586 65.1224 66.9356 65.0949 70.1799L57.4864 77.1218L37.9262 85.9293C37.9262 85.9293 20.0375 89.6797 23.8901 114.624L25.7293 130.112H42.0612L42.0241 130.194H66.2646L66.2791 130.112H123.953L123.942 130.194H126.2V130.112L151.443 130.111ZM92.809 67.733C93.3034 68.7481 93.6926 69.8105 93.9706 70.9037C93.3998 69.8517 92.9779 68.7266 92.717 67.5601L92.7412 67.6033L92.809 67.733ZM65.0885 70.9358C65.0885 71.2411 65.0831 71.5491 65.0724 71.8597L65.0336 71.9142C65.031 71.5846 65.0493 71.2551 65.0885 70.9277V70.9358Z" fill="#1A535C"/>
<path d="M99.1893 74.8638L95.9626 105.45L78.6999 110.894C78.6999 110.894 56.2744 106.731 62.0824 94.7207C66.2142 86.1774 66.0996 70.9101 65.6898 62.8072C65.5285 59.518 65.3091 57.409 65.3091 57.409C65.3091 57.409 94.672 31.9474 92.2519 54.8468C91.7841 59.281 91.7566 62.7479 92.0164 65.4574C93.1054 76.7374 99.1893 74.8638 99.1893 74.8638Z" fill="#DE958A"/>
<path opacity="0.1" d="M92.2498 54.3662C91.7819 58.8004 91.7545 62.2673 92.0142 64.9768C87.869 67.2231 83.1361 68.1721 78.4374 67.6991C73.7387 67.2261 69.2941 65.3532 65.6877 62.3266C65.5263 59.0374 65.3069 56.9284 65.3069 56.9284C65.3069 56.9284 94.6698 31.4668 92.2498 54.3662Z" fill="black"/>
<path d="M80.3824 66.8584C93.3023 66.8584 103.776 56.4626 103.776 43.6387C103.776 30.8148 93.3023 20.4189 80.3824 20.4189C67.4625 20.4189 56.9889 30.8148 56.9889 43.6387C56.9889 56.4626 67.4625 66.8584 80.3824 66.8584Z" fill="#A87A66"/>
<path d="M80.1865 66.8584C93.1063 66.8584 103.58 56.4626 103.58 43.6387C103.58 30.8148 93.1063 20.4189 80.1865 20.4189C67.2666 20.4189 56.793 30.8148 56.793 43.6387C56.793 56.4626 67.2666 66.8584 80.1865 66.8584Z" fill="#F89D8F"/>
<path opacity="0.1" d="M42.2365 105.77C42.2365 105.77 49.8193 121.143 50.2226 130.191L42.2365 105.77Z" fill="black"/>
<path opacity="0.1" d="M124.841 114.579L122.663 130.192H124.841V114.579Z" fill="black"/>
<path opacity="0.1" d="M43.9307 130.191L55.9501 103.048C55.9501 103.048 59.3382 96.6423 60.1448 90.2369C60.9515 83.8314 65.3075 73.7429 65.3075 73.7429C65.3075 73.7429 76.1169 60.1313 81.1183 62.0529C86.1197 63.9746 76.7623 71.1807 76.7623 71.1807C76.7623 71.1807 90.4757 76.4652 81.1183 92.1585C71.7609 107.852 71.5996 104.969 71.5996 104.969L67.0015 130.191H43.9307Z" fill="black"/>
<path d="M43.6076 130.191L55.627 103.048C55.627 103.048 59.0151 96.6423 59.8217 90.2368C60.3348 86.1646 62.2821 80.603 63.6325 77.0913C64.5139 74.7954 65.8108 72.6788 67.4593 70.846C70.9538 66.9643 77.3007 60.7045 80.7952 62.0497C85.7966 63.9713 76.4392 71.1774 76.4392 71.1774C76.4392 71.1774 90.1526 76.4619 80.7952 92.1553C71.4378 107.849 71.2765 104.966 71.2765 104.966L66.6785 130.188L43.6076 130.191Z" fill="#F89D8F"/>
<path opacity="0.15" d="M87.9748 31.0682C88.2422 31.0682 88.4588 30.8532 88.4588 30.5878C88.4588 30.3225 88.2422 30.1074 87.9748 30.1074C87.7075 30.1074 87.4908 30.3225 87.4908 30.5878C87.4908 30.8532 87.7075 31.0682 87.9748 31.0682Z" fill="white"/>
<path opacity="0.15" d="M85.7173 32.0291C85.9846 32.0291 86.2013 31.814 86.2013 31.5486C86.2013 31.2833 85.9846 31.0682 85.7173 31.0682C85.45 31.0682 85.2333 31.2833 85.2333 31.5486C85.2333 31.814 85.45 32.0291 85.7173 32.0291Z" fill="white"/>
<path opacity="0.1" d="M64.1764 14.3774C66.5109 13.628 69.102 13.7897 71.3413 12.7937C74.3695 11.4453 76.2781 8.18174 79.4209 7.12484C80.8213 6.65404 82.3411 6.67166 83.8108 6.82219C88.5371 7.31042 93.038 9.07559 96.8241 11.9257C99.9394 14.2781 102.863 17.4856 106.769 17.7371C107.713 17.7979 108.672 17.6746 109.597 17.8716C111.991 18.3808 113.425 20.8293 114.114 23.1561C114.911 25.9136 115.098 28.8095 114.662 31.6454C114.226 34.4813 113.177 37.19 111.588 39.586C110.704 40.8991 109.626 42.185 109.408 43.7495C109.195 45.2837 109.853 46.8738 109.469 48.3759C109.147 49.6201 108.179 50.5778 107.237 51.4601C103.983 54.5144 100.658 57.4903 97.2613 60.3877C95.4963 54.8214 98.0857 48.8275 97.6824 43.0065C97.521 40.739 96.7144 38.2633 94.6993 37.1936C92.8133 36.1943 90.403 36.7132 88.4944 35.7524C86.3647 34.6875 85.4903 32.1653 83.8802 30.4198C81.1375 27.4413 76.3765 27.057 72.5416 28.4021C68.7067 29.7473 65.572 32.5144 62.5389 35.2127L57.0261 40.1209C55.95 38.9166 56.7663 37.0687 57.3488 35.5634C58.2167 33.3071 58.4071 30.8746 58.349 28.479C58.3022 26.5573 57.6343 24.6597 57.673 22.7893C57.7505 19.0998 60.6997 15.4936 64.1764 14.3774Z" fill="black"/>
<path d="M64.1764 13.8968C66.5109 13.1474 69.102 13.3091 71.3413 12.3131C74.3695 10.9647 76.2781 7.70115 79.4209 6.64425C80.8213 6.17345 82.3411 6.19107 83.8108 6.3416C88.5371 6.82982 93.038 8.595 96.8241 11.4451C99.9394 13.7975 102.863 17.0051 106.769 17.2565C107.713 17.3173 108.672 17.194 109.597 17.391C111.991 17.9002 113.425 20.3487 114.114 22.6755C114.911 25.433 115.098 28.3289 114.662 31.1648C114.226 34.0007 113.177 36.7095 111.588 39.1054C110.704 40.4185 109.626 41.7044 109.408 43.269C109.195 44.8031 109.853 46.3932 109.469 47.8953C109.147 49.1395 108.179 50.0972 107.237 50.9795C103.983 54.0338 100.658 57.0097 97.2613 59.9071C95.4963 54.3408 98.0857 48.3469 97.6824 42.5259C97.521 40.2584 96.7144 37.7827 94.6993 36.713C92.8133 35.7137 90.403 36.2326 88.4944 35.2718C86.3647 34.2069 85.4903 31.6847 83.8802 29.9392C81.1375 26.9607 76.3765 26.5764 72.5416 27.9215C68.7067 29.2667 65.572 32.0338 62.5389 34.7321L57.0261 39.6403C55.95 38.4361 56.7663 36.5881 57.3488 35.0828C58.2167 32.8265 58.4071 30.394 58.349 27.9984C58.3022 26.0768 57.6343 24.1791 57.673 22.3088C57.7505 18.6192 60.6997 15.013 64.1764 13.8968Z" fill="#141720"/>
</g>
<defs>
<linearGradient id="paint0_linear_298_97" x1="88.2309" y1="63.8553" x2="88.6222" y2="122.327" gradientUnits="userSpaceOnUse">
<stop stop-color="#FD749B"/>
<stop offset="1" stop-color="#281AC8"/>
</linearGradient>
<linearGradient id="paint1_linear_298_97" x1="100.199" y1="-3.25476" x2="100.358" y2="35.5427" gradientUnits="userSpaceOnUse">
<stop stop-color="#FD749B"/>
<stop offset="1" stop-color="#281AC8"/>
</linearGradient>
<linearGradient id="paint2_linear_298_97" x1="93.4713" y1="40.0803" x2="93.704" y2="87.0044" gradientUnits="userSpaceOnUse">
<stop stop-color="#FD749B"/>
<stop offset="1" stop-color="#281AC8"/>
</linearGradient>
<linearGradient id="paint3_linear_298_97" x1="97.5354" y1="18.7396" x2="97.6879" y2="57.452" gradientUnits="userSpaceOnUse">
<stop stop-color="#FD749B"/>
<stop offset="1" stop-color="#281AC8"/>
</linearGradient>
<clipPath id="clip0_298_97">
<rect width="177" height="130" fill="white" transform="translate(0 0.192383)"/>
</clipPath>
</defs>
</svg>
