<svg width="90" height="90" viewBox="0 0 90 90" fill="none" xmlns="http://www.w3.org/2000/svg">
<path fill-rule="evenodd" clip-rule="evenodd" d="M11.8934 78.1065C16.2868 82.5 23.3578 82.5 37.5 82.5C51.642 82.5 58.7134 82.5 63.1065 78.1065C67.5 73.7134 67.5 66.642 67.5 52.5C67.5 48.6547 65.9606 44.9764 63.2415 42.2573L47.7427 26.7583C45.0236 24.0393 41.3452 22.5 37.5 22.5C23.3578 22.5 16.2868 22.5 11.8934 26.8934C7.5 31.2868 7.5 38.358 7.5 52.5C7.5 66.642 7.5 73.7134 11.8934 78.1065ZM41.25 52.5C44.7855 52.5 46.5532 52.5 47.6516 53.5984C48.75 54.6967 48.75 56.4645 48.75 60H39.375V52.5H41.25ZM35.625 71.25H33.75C30.2145 71.25 28.4467 71.25 27.3483 70.1516C26.25 69.0532 26.25 67.2855 26.25 63.75V60C26.25 56.4645 26.25 54.6967 27.3483 53.5984C28.4467 52.5 30.2145 52.5 33.75 52.5H35.625V71.25ZM41.25 71.25H39.375V63.75H48.75C48.75 67.2855 48.75 69.0532 47.6516 70.1516C46.5532 71.25 44.7855 71.25 41.25 71.25Z" fill="url(#paint0_linear_626_1749)"/>
<path opacity="0.5" d="M22.8479 22.8477C23.3101 17.7798 24.3864 14.4006 26.8937 11.8934C31.2871 7.5 38.358 7.5 52.5004 7.5C56.3456 7.5 60.024 9.0393 62.7428 11.7583L78.2419 27.2573C80.961 29.9763 82.5004 33.6547 82.5004 37.5C82.5004 51.642 82.5004 58.7134 78.1069 63.1065C75.5996 65.6137 72.2205 66.6904 67.1528 67.1524C67.5004 63.3398 67.5004 58.5716 67.5004 52.5C67.5004 48.6547 65.961 44.9764 63.2419 42.2573L47.7428 26.7583C45.024 24.0393 41.3456 22.5 37.5004 22.5C31.4287 22.5 26.6605 22.5 22.8479 22.8477Z" fill="url(#paint1_linear_626_1749)"/>
<defs>
<linearGradient id="paint0_linear_626_1749" x1="40.5" y1="13.0556" x2="43.8851" y2="119.344" gradientUnits="userSpaceOnUse">
<stop stop-color="#FD749B"/>
<stop offset="0.104816" stop-color="#E76BA0"/>
<stop offset="0.63132" stop-color="#763BB7"/>
<stop offset="1" stop-color="#281AC8"/>
</linearGradient>
<linearGradient id="paint1_linear_626_1749" x1="55.6568" y1="-1.88973" x2="59.0223" y2="103.783" gradientUnits="userSpaceOnUse">
<stop stop-color="#FD749B"/>
<stop offset="0.104816" stop-color="#E76BA0"/>
<stop offset="0.63132" stop-color="#763BB7"/>
<stop offset="1" stop-color="#281AC8"/>
</linearGradient>
</defs>
</svg>
