<svg width="76" height="76" viewBox="0 0 76 76" fill="none" xmlns="http://www.w3.org/2000/svg">
<g clip-path="url(#clip0_626_1752)">
<path d="M14.1866 33.4402C14.1866 45.174 23.7329 54.7202 35.4666 54.7202C47.2004 54.7202 56.7466 45.174 56.7466 33.4402C56.7466 21.7064 47.2004 12.1602 35.4666 12.1602C23.7329 12.1602 14.1866 21.7064 14.1866 33.4402ZM32.5142 36.4802H38.4193C38.0326 43.0768 36.4478 47.1181 35.4669 48.3643C34.4857 47.1181 32.9009 43.0768 32.5142 36.4802ZM32.5142 30.4002C32.9009 23.8036 34.4857 19.7622 35.4666 18.516C36.4476 19.7622 38.0324 23.8036 38.4191 30.4002H32.5142ZM28.0926 20.155C27.1636 23.1451 26.617 26.7145 26.4251 30.4002H20.5727C21.4703 25.9956 24.2801 22.2797 28.0926 20.155ZM20.5727 36.4802H26.4253C26.617 40.1659 27.1636 43.7352 28.0928 46.7254C24.2801 44.6006 21.4703 40.8847 20.5727 36.4802ZM42.8407 46.7254C43.7697 43.7352 44.3163 40.1659 44.5082 36.4802H50.3608C49.4632 40.8847 46.6534 44.6006 42.8407 46.7254ZM50.3608 30.4002H44.5082C44.3165 26.7145 43.7699 23.1451 42.8407 20.155C46.6534 22.2797 49.4632 25.9956 50.3608 30.4002Z" fill="url(#paint0_linear_626_1752)"/>
<path d="M35.4667 60.8C20.3804 60.8 8.10667 48.5263 8.10667 33.44C8.10667 18.3537 20.3802 6.08 35.4667 6.08C37.1456 6.08 38.5067 4.71889 38.5067 3.04C38.5067 1.36111 37.1456 0 35.4667 0C17.0279 0 2.02667 15.0012 2.02667 33.44C2.02667 51.8788 17.0279 66.88 35.4667 66.88C37.1456 66.88 38.5067 65.5189 38.5067 63.84C38.5067 62.1611 37.1456 60.8 35.4667 60.8Z" fill="url(#paint1_linear_626_1752)"/>
<path d="M70.9332 62.8257L62.8841 62.8261C62.8832 62.8261 62.8824 62.8261 62.8814 62.8261L51.3746 62.8269L49.2203 59.2362C48.3565 57.7965 46.4889 57.3296 45.0494 58.1935C43.6096 59.0573 43.1429 60.9247 44.0067 62.3644L47.0467 67.4311C47.5961 68.3469 48.5857 68.9071 49.6536 68.9071L56.2167 68.9067L54.4381 70.9824C53.3458 72.2574 53.4937 74.1764 54.7687 75.2688C55.342 75.7601 56.0453 76.0004 56.7453 76.0004C57.6022 76.0004 58.454 75.6401 59.0551 74.9383L64.2237 68.9061L70.9336 68.9057C72.6125 68.9057 73.9734 67.5444 73.9734 65.8655C73.9734 64.1866 72.6121 62.8257 70.9332 62.8257Z" fill="url(#paint2_linear_626_1752)"/>
</g>
<defs>
<linearGradient id="paint0_linear_626_1752" x1="37.5946" y1="5.4609" x2="39.9958" y2="80.855" gradientUnits="userSpaceOnUse">
<stop stop-color="#FD749B"/>
<stop offset="0.104816" stop-color="#E76BA0"/>
<stop offset="0.63132" stop-color="#763BB7"/>
<stop offset="1" stop-color="#281AC8"/>
</linearGradient>
<linearGradient id="paint1_linear_626_1752" x1="22.0907" y1="-10.5274" x2="28.9918" y2="107.666" gradientUnits="userSpaceOnUse">
<stop stop-color="#FD749B"/>
<stop offset="0.104816" stop-color="#E76BA0"/>
<stop offset="0.63132" stop-color="#763BB7"/>
<stop offset="1" stop-color="#281AC8"/>
</linearGradient>
<linearGradient id="paint2_linear_626_1752" x1="60.2932" y1="54.8885" x2="60.9111" y2="87.2225" gradientUnits="userSpaceOnUse">
<stop stop-color="#FD749B"/>
<stop offset="0.104816" stop-color="#E76BA0"/>
<stop offset="0.63132" stop-color="#763BB7"/>
<stop offset="1" stop-color="#281AC8"/>
</linearGradient>
<clipPath id="clip0_626_1752">
<rect width="76" height="76" fill="white"/>
</clipPath>
</defs>
</svg>
