<svg width="668" height="668" viewBox="0 0 668 668" fill="none" xmlns="http://www.w3.org/2000/svg">
<path d="M333.667 0.666748C149.667 0.666748 0.666748 150 0.666748 334C0.666748 518 149.667 667.333 333.667 667.333C518 667.333 667.333 518 667.333 334C667.333 150 518 0.666748 333.667 0.666748ZM564.667 200.667H466.333C455.667 159 440.333 119 420.333 82.0001C481.667 103 532.667 145.667 564.667 200.667ZM334 68.6667C361.667 108.667 383.333 153 397.667 200.667H270.333C284.667 153 306.333 108.667 334 68.6667ZM76.0001 400.667C70.6668 379.333 67.3334 357 67.3334 334C67.3334 311 70.6668 288.667 76.0001 267.333H188.667C186 289.333 184 311.333 184 334C184 356.667 186 378.667 188.667 400.667H76.0001ZM103.333 467.333H201.667C212.333 509 227.667 549 247.667 586C186.333 565 135.333 522.667 103.333 467.333ZM201.667 200.667H103.333C135.333 145.333 186.333 103 247.667 82.0001C227.667 119 212.333 159 201.667 200.667ZM334 599.333C306.333 559.333 284.667 515 270.333 467.333H397.667C383.333 515 361.667 559.333 334 599.333ZM412 400.667H256C253 378.667 250.667 356.667 250.667 334C250.667 311.333 253 289 256 267.333H412C415 289 417.333 311.333 417.333 334C417.333 356.667 415 378.667 412 400.667ZM420.333 586C440.333 549 455.667 509 466.333 467.333H564.667C532.667 522.333 481.667 565 420.333 586ZM479.333 400.667C482 378.667 484 356.667 484 334C484 311.333 482 289.333 479.333 267.333H592C597.333 288.667 600.667 311 600.667 334C600.667 357 597.333 379.333 592 400.667H479.333Z" fill="black"/>
</svg>
